%
M48
M72
T01C0.01378
T02C0.03150
T03C0.06496
T04C0.14961
%
T01
X56512Y43967
X82102Y53809
X119504Y53809
X119504Y57746
X129346Y61683
X164780Y59715
X164780Y75463
X164780Y91211
X164780Y106959
X217929Y112864
X223835Y103022
X223835Y87274
X233677Y77431
X223835Y71526
X243520Y69557
X223835Y55778
X241551Y47904
X223835Y40030
X241551Y32156
X223835Y24281
X170685Y12470
X164780Y28219
X164780Y43967
X133283Y43967
X105724Y30187
X34858Y65620
X34858Y79400
X111630Y85305
X129346Y79400
X110646Y94163
X48638Y120738
X32890Y132549
X182496Y158140
X227897Y160108
X235646Y146329
X231709Y142392
X312417Y95148
X345882Y77431
X410843Y85305
X414780Y85305
X492535Y109911
X456118Y130581
X397063Y146329
X389189Y146329
X379346Y150266
X345882Y144360
X253362Y87274
T02
X38697Y179793
X46571Y179793
X54445Y179793
X62319Y179793
X98343Y179793
X106217Y179793
X114091Y179793
X121965Y179793
X157988Y179793
X165862Y179793
X173736Y179793
X181610Y179793
X217634Y179793
X225508Y179793
X233382Y179793
X241256Y179793
X277280Y179793
X285154Y179793
X293028Y179793
X300902Y179793
X336925Y179793
X344799Y179793
X352673Y179793
X360547Y179793
X396571Y179793
X404445Y179793
X412319Y179793
X420193Y179793
X456217Y179793
X464091Y179793
X471965Y179793
X479839Y179793
X479839Y213258
X471965Y213258
X464091Y213258
X456217Y213258
X420193Y213258
X412319Y213258
X404445Y213258
X396571Y213258
X360547Y213258
X352673Y213258
X344799Y213258
X336925Y213258
X300902Y213258
X293028Y213258
X285154Y213258
X277280Y213258
X241256Y213258
X233382Y213258
X225508Y213258
X217634Y213258
X181610Y213258
X173736Y213258
X165862Y213258
X157988Y213258
X121965Y213258
X114091Y213258
X106217Y213258
X98343Y213258
X62319Y213258
X54445Y213258
X46571Y213258
X38697Y213258
T03
X452260Y20344
X467850Y20344
T04
X13205Y14439
X13205Y213258
X505331Y213258
X505331Y14439
M30
