G75*
%MOIN*%
%OFA0B0*%
%FSLAX25Y25*%
%IPPOS*%
%LPD*%
%AMOC8*
5,1,8,0,0,1.08239X$1,22.5*
%
%ADD10C,0.00787*%
%ADD11C,0.00000*%
%ADD12R,0.04331X0.03937*%
%ADD13R,0.02600X0.08000*%
%ADD14R,0.07480X0.04331*%
%ADD15R,0.03937X0.04331*%
D10*
X0001394Y0002628D02*
X0001394Y0225069D01*
X0519110Y0225069D01*
X0519110Y0002628D01*
X0001394Y0002628D01*
D11*
X0005725Y0014439D02*
X0005727Y0014623D01*
X0005734Y0014806D01*
X0005745Y0014989D01*
X0005761Y0015172D01*
X0005781Y0015355D01*
X0005806Y0015537D01*
X0005835Y0015718D01*
X0005869Y0015898D01*
X0005907Y0016078D01*
X0005949Y0016256D01*
X0005996Y0016434D01*
X0006047Y0016610D01*
X0006103Y0016785D01*
X0006162Y0016959D01*
X0006226Y0017131D01*
X0006294Y0017301D01*
X0006367Y0017470D01*
X0006443Y0017637D01*
X0006524Y0017802D01*
X0006608Y0017965D01*
X0006697Y0018126D01*
X0006789Y0018284D01*
X0006885Y0018441D01*
X0006986Y0018595D01*
X0007089Y0018746D01*
X0007197Y0018895D01*
X0007308Y0019041D01*
X0007423Y0019184D01*
X0007541Y0019325D01*
X0007663Y0019462D01*
X0007788Y0019597D01*
X0007916Y0019728D01*
X0008047Y0019856D01*
X0008182Y0019981D01*
X0008319Y0020103D01*
X0008460Y0020221D01*
X0008603Y0020336D01*
X0008749Y0020447D01*
X0008898Y0020555D01*
X0009049Y0020658D01*
X0009203Y0020759D01*
X0009360Y0020855D01*
X0009518Y0020947D01*
X0009679Y0021036D01*
X0009842Y0021120D01*
X0010007Y0021201D01*
X0010174Y0021277D01*
X0010343Y0021350D01*
X0010513Y0021418D01*
X0010685Y0021482D01*
X0010859Y0021541D01*
X0011034Y0021597D01*
X0011210Y0021648D01*
X0011388Y0021695D01*
X0011566Y0021737D01*
X0011746Y0021775D01*
X0011926Y0021809D01*
X0012107Y0021838D01*
X0012289Y0021863D01*
X0012472Y0021883D01*
X0012655Y0021899D01*
X0012838Y0021910D01*
X0013021Y0021917D01*
X0013205Y0021919D01*
X0013389Y0021917D01*
X0013572Y0021910D01*
X0013755Y0021899D01*
X0013938Y0021883D01*
X0014121Y0021863D01*
X0014303Y0021838D01*
X0014484Y0021809D01*
X0014664Y0021775D01*
X0014844Y0021737D01*
X0015022Y0021695D01*
X0015200Y0021648D01*
X0015376Y0021597D01*
X0015551Y0021541D01*
X0015725Y0021482D01*
X0015897Y0021418D01*
X0016067Y0021350D01*
X0016236Y0021277D01*
X0016403Y0021201D01*
X0016568Y0021120D01*
X0016731Y0021036D01*
X0016892Y0020947D01*
X0017050Y0020855D01*
X0017207Y0020759D01*
X0017361Y0020658D01*
X0017512Y0020555D01*
X0017661Y0020447D01*
X0017807Y0020336D01*
X0017950Y0020221D01*
X0018091Y0020103D01*
X0018228Y0019981D01*
X0018363Y0019856D01*
X0018494Y0019728D01*
X0018622Y0019597D01*
X0018747Y0019462D01*
X0018869Y0019325D01*
X0018987Y0019184D01*
X0019102Y0019041D01*
X0019213Y0018895D01*
X0019321Y0018746D01*
X0019424Y0018595D01*
X0019525Y0018441D01*
X0019621Y0018284D01*
X0019713Y0018126D01*
X0019802Y0017965D01*
X0019886Y0017802D01*
X0019967Y0017637D01*
X0020043Y0017470D01*
X0020116Y0017301D01*
X0020184Y0017131D01*
X0020248Y0016959D01*
X0020307Y0016785D01*
X0020363Y0016610D01*
X0020414Y0016434D01*
X0020461Y0016256D01*
X0020503Y0016078D01*
X0020541Y0015898D01*
X0020575Y0015718D01*
X0020604Y0015537D01*
X0020629Y0015355D01*
X0020649Y0015172D01*
X0020665Y0014989D01*
X0020676Y0014806D01*
X0020683Y0014623D01*
X0020685Y0014439D01*
X0020683Y0014255D01*
X0020676Y0014072D01*
X0020665Y0013889D01*
X0020649Y0013706D01*
X0020629Y0013523D01*
X0020604Y0013341D01*
X0020575Y0013160D01*
X0020541Y0012980D01*
X0020503Y0012800D01*
X0020461Y0012622D01*
X0020414Y0012444D01*
X0020363Y0012268D01*
X0020307Y0012093D01*
X0020248Y0011919D01*
X0020184Y0011747D01*
X0020116Y0011577D01*
X0020043Y0011408D01*
X0019967Y0011241D01*
X0019886Y0011076D01*
X0019802Y0010913D01*
X0019713Y0010752D01*
X0019621Y0010594D01*
X0019525Y0010437D01*
X0019424Y0010283D01*
X0019321Y0010132D01*
X0019213Y0009983D01*
X0019102Y0009837D01*
X0018987Y0009694D01*
X0018869Y0009553D01*
X0018747Y0009416D01*
X0018622Y0009281D01*
X0018494Y0009150D01*
X0018363Y0009022D01*
X0018228Y0008897D01*
X0018091Y0008775D01*
X0017950Y0008657D01*
X0017807Y0008542D01*
X0017661Y0008431D01*
X0017512Y0008323D01*
X0017361Y0008220D01*
X0017207Y0008119D01*
X0017050Y0008023D01*
X0016892Y0007931D01*
X0016731Y0007842D01*
X0016568Y0007758D01*
X0016403Y0007677D01*
X0016236Y0007601D01*
X0016067Y0007528D01*
X0015897Y0007460D01*
X0015725Y0007396D01*
X0015551Y0007337D01*
X0015376Y0007281D01*
X0015200Y0007230D01*
X0015022Y0007183D01*
X0014844Y0007141D01*
X0014664Y0007103D01*
X0014484Y0007069D01*
X0014303Y0007040D01*
X0014121Y0007015D01*
X0013938Y0006995D01*
X0013755Y0006979D01*
X0013572Y0006968D01*
X0013389Y0006961D01*
X0013205Y0006959D01*
X0013021Y0006961D01*
X0012838Y0006968D01*
X0012655Y0006979D01*
X0012472Y0006995D01*
X0012289Y0007015D01*
X0012107Y0007040D01*
X0011926Y0007069D01*
X0011746Y0007103D01*
X0011566Y0007141D01*
X0011388Y0007183D01*
X0011210Y0007230D01*
X0011034Y0007281D01*
X0010859Y0007337D01*
X0010685Y0007396D01*
X0010513Y0007460D01*
X0010343Y0007528D01*
X0010174Y0007601D01*
X0010007Y0007677D01*
X0009842Y0007758D01*
X0009679Y0007842D01*
X0009518Y0007931D01*
X0009360Y0008023D01*
X0009203Y0008119D01*
X0009049Y0008220D01*
X0008898Y0008323D01*
X0008749Y0008431D01*
X0008603Y0008542D01*
X0008460Y0008657D01*
X0008319Y0008775D01*
X0008182Y0008897D01*
X0008047Y0009022D01*
X0007916Y0009150D01*
X0007788Y0009281D01*
X0007663Y0009416D01*
X0007541Y0009553D01*
X0007423Y0009694D01*
X0007308Y0009837D01*
X0007197Y0009983D01*
X0007089Y0010132D01*
X0006986Y0010283D01*
X0006885Y0010437D01*
X0006789Y0010594D01*
X0006697Y0010752D01*
X0006608Y0010913D01*
X0006524Y0011076D01*
X0006443Y0011241D01*
X0006367Y0011408D01*
X0006294Y0011577D01*
X0006226Y0011747D01*
X0006162Y0011919D01*
X0006103Y0012093D01*
X0006047Y0012268D01*
X0005996Y0012444D01*
X0005949Y0012622D01*
X0005907Y0012800D01*
X0005869Y0012980D01*
X0005835Y0013160D01*
X0005806Y0013341D01*
X0005781Y0013523D01*
X0005761Y0013706D01*
X0005745Y0013889D01*
X0005734Y0014072D01*
X0005727Y0014255D01*
X0005725Y0014439D01*
X0005725Y0213258D02*
X0005727Y0213442D01*
X0005734Y0213625D01*
X0005745Y0213808D01*
X0005761Y0213991D01*
X0005781Y0214174D01*
X0005806Y0214356D01*
X0005835Y0214537D01*
X0005869Y0214717D01*
X0005907Y0214897D01*
X0005949Y0215075D01*
X0005996Y0215253D01*
X0006047Y0215429D01*
X0006103Y0215604D01*
X0006162Y0215778D01*
X0006226Y0215950D01*
X0006294Y0216120D01*
X0006367Y0216289D01*
X0006443Y0216456D01*
X0006524Y0216621D01*
X0006608Y0216784D01*
X0006697Y0216945D01*
X0006789Y0217103D01*
X0006885Y0217260D01*
X0006986Y0217414D01*
X0007089Y0217565D01*
X0007197Y0217714D01*
X0007308Y0217860D01*
X0007423Y0218003D01*
X0007541Y0218144D01*
X0007663Y0218281D01*
X0007788Y0218416D01*
X0007916Y0218547D01*
X0008047Y0218675D01*
X0008182Y0218800D01*
X0008319Y0218922D01*
X0008460Y0219040D01*
X0008603Y0219155D01*
X0008749Y0219266D01*
X0008898Y0219374D01*
X0009049Y0219477D01*
X0009203Y0219578D01*
X0009360Y0219674D01*
X0009518Y0219766D01*
X0009679Y0219855D01*
X0009842Y0219939D01*
X0010007Y0220020D01*
X0010174Y0220096D01*
X0010343Y0220169D01*
X0010513Y0220237D01*
X0010685Y0220301D01*
X0010859Y0220360D01*
X0011034Y0220416D01*
X0011210Y0220467D01*
X0011388Y0220514D01*
X0011566Y0220556D01*
X0011746Y0220594D01*
X0011926Y0220628D01*
X0012107Y0220657D01*
X0012289Y0220682D01*
X0012472Y0220702D01*
X0012655Y0220718D01*
X0012838Y0220729D01*
X0013021Y0220736D01*
X0013205Y0220738D01*
X0013389Y0220736D01*
X0013572Y0220729D01*
X0013755Y0220718D01*
X0013938Y0220702D01*
X0014121Y0220682D01*
X0014303Y0220657D01*
X0014484Y0220628D01*
X0014664Y0220594D01*
X0014844Y0220556D01*
X0015022Y0220514D01*
X0015200Y0220467D01*
X0015376Y0220416D01*
X0015551Y0220360D01*
X0015725Y0220301D01*
X0015897Y0220237D01*
X0016067Y0220169D01*
X0016236Y0220096D01*
X0016403Y0220020D01*
X0016568Y0219939D01*
X0016731Y0219855D01*
X0016892Y0219766D01*
X0017050Y0219674D01*
X0017207Y0219578D01*
X0017361Y0219477D01*
X0017512Y0219374D01*
X0017661Y0219266D01*
X0017807Y0219155D01*
X0017950Y0219040D01*
X0018091Y0218922D01*
X0018228Y0218800D01*
X0018363Y0218675D01*
X0018494Y0218547D01*
X0018622Y0218416D01*
X0018747Y0218281D01*
X0018869Y0218144D01*
X0018987Y0218003D01*
X0019102Y0217860D01*
X0019213Y0217714D01*
X0019321Y0217565D01*
X0019424Y0217414D01*
X0019525Y0217260D01*
X0019621Y0217103D01*
X0019713Y0216945D01*
X0019802Y0216784D01*
X0019886Y0216621D01*
X0019967Y0216456D01*
X0020043Y0216289D01*
X0020116Y0216120D01*
X0020184Y0215950D01*
X0020248Y0215778D01*
X0020307Y0215604D01*
X0020363Y0215429D01*
X0020414Y0215253D01*
X0020461Y0215075D01*
X0020503Y0214897D01*
X0020541Y0214717D01*
X0020575Y0214537D01*
X0020604Y0214356D01*
X0020629Y0214174D01*
X0020649Y0213991D01*
X0020665Y0213808D01*
X0020676Y0213625D01*
X0020683Y0213442D01*
X0020685Y0213258D01*
X0020683Y0213074D01*
X0020676Y0212891D01*
X0020665Y0212708D01*
X0020649Y0212525D01*
X0020629Y0212342D01*
X0020604Y0212160D01*
X0020575Y0211979D01*
X0020541Y0211799D01*
X0020503Y0211619D01*
X0020461Y0211441D01*
X0020414Y0211263D01*
X0020363Y0211087D01*
X0020307Y0210912D01*
X0020248Y0210738D01*
X0020184Y0210566D01*
X0020116Y0210396D01*
X0020043Y0210227D01*
X0019967Y0210060D01*
X0019886Y0209895D01*
X0019802Y0209732D01*
X0019713Y0209571D01*
X0019621Y0209413D01*
X0019525Y0209256D01*
X0019424Y0209102D01*
X0019321Y0208951D01*
X0019213Y0208802D01*
X0019102Y0208656D01*
X0018987Y0208513D01*
X0018869Y0208372D01*
X0018747Y0208235D01*
X0018622Y0208100D01*
X0018494Y0207969D01*
X0018363Y0207841D01*
X0018228Y0207716D01*
X0018091Y0207594D01*
X0017950Y0207476D01*
X0017807Y0207361D01*
X0017661Y0207250D01*
X0017512Y0207142D01*
X0017361Y0207039D01*
X0017207Y0206938D01*
X0017050Y0206842D01*
X0016892Y0206750D01*
X0016731Y0206661D01*
X0016568Y0206577D01*
X0016403Y0206496D01*
X0016236Y0206420D01*
X0016067Y0206347D01*
X0015897Y0206279D01*
X0015725Y0206215D01*
X0015551Y0206156D01*
X0015376Y0206100D01*
X0015200Y0206049D01*
X0015022Y0206002D01*
X0014844Y0205960D01*
X0014664Y0205922D01*
X0014484Y0205888D01*
X0014303Y0205859D01*
X0014121Y0205834D01*
X0013938Y0205814D01*
X0013755Y0205798D01*
X0013572Y0205787D01*
X0013389Y0205780D01*
X0013205Y0205778D01*
X0013021Y0205780D01*
X0012838Y0205787D01*
X0012655Y0205798D01*
X0012472Y0205814D01*
X0012289Y0205834D01*
X0012107Y0205859D01*
X0011926Y0205888D01*
X0011746Y0205922D01*
X0011566Y0205960D01*
X0011388Y0206002D01*
X0011210Y0206049D01*
X0011034Y0206100D01*
X0010859Y0206156D01*
X0010685Y0206215D01*
X0010513Y0206279D01*
X0010343Y0206347D01*
X0010174Y0206420D01*
X0010007Y0206496D01*
X0009842Y0206577D01*
X0009679Y0206661D01*
X0009518Y0206750D01*
X0009360Y0206842D01*
X0009203Y0206938D01*
X0009049Y0207039D01*
X0008898Y0207142D01*
X0008749Y0207250D01*
X0008603Y0207361D01*
X0008460Y0207476D01*
X0008319Y0207594D01*
X0008182Y0207716D01*
X0008047Y0207841D01*
X0007916Y0207969D01*
X0007788Y0208100D01*
X0007663Y0208235D01*
X0007541Y0208372D01*
X0007423Y0208513D01*
X0007308Y0208656D01*
X0007197Y0208802D01*
X0007089Y0208951D01*
X0006986Y0209102D01*
X0006885Y0209256D01*
X0006789Y0209413D01*
X0006697Y0209571D01*
X0006608Y0209732D01*
X0006524Y0209895D01*
X0006443Y0210060D01*
X0006367Y0210227D01*
X0006294Y0210396D01*
X0006226Y0210566D01*
X0006162Y0210738D01*
X0006103Y0210912D01*
X0006047Y0211087D01*
X0005996Y0211263D01*
X0005949Y0211441D01*
X0005907Y0211619D01*
X0005869Y0211799D01*
X0005835Y0211979D01*
X0005806Y0212160D01*
X0005781Y0212342D01*
X0005761Y0212525D01*
X0005745Y0212708D01*
X0005734Y0212891D01*
X0005727Y0213074D01*
X0005725Y0213258D01*
X0497851Y0213258D02*
X0497853Y0213442D01*
X0497860Y0213625D01*
X0497871Y0213808D01*
X0497887Y0213991D01*
X0497907Y0214174D01*
X0497932Y0214356D01*
X0497961Y0214537D01*
X0497995Y0214717D01*
X0498033Y0214897D01*
X0498075Y0215075D01*
X0498122Y0215253D01*
X0498173Y0215429D01*
X0498229Y0215604D01*
X0498288Y0215778D01*
X0498352Y0215950D01*
X0498420Y0216120D01*
X0498493Y0216289D01*
X0498569Y0216456D01*
X0498650Y0216621D01*
X0498734Y0216784D01*
X0498823Y0216945D01*
X0498915Y0217103D01*
X0499011Y0217260D01*
X0499112Y0217414D01*
X0499215Y0217565D01*
X0499323Y0217714D01*
X0499434Y0217860D01*
X0499549Y0218003D01*
X0499667Y0218144D01*
X0499789Y0218281D01*
X0499914Y0218416D01*
X0500042Y0218547D01*
X0500173Y0218675D01*
X0500308Y0218800D01*
X0500445Y0218922D01*
X0500586Y0219040D01*
X0500729Y0219155D01*
X0500875Y0219266D01*
X0501024Y0219374D01*
X0501175Y0219477D01*
X0501329Y0219578D01*
X0501486Y0219674D01*
X0501644Y0219766D01*
X0501805Y0219855D01*
X0501968Y0219939D01*
X0502133Y0220020D01*
X0502300Y0220096D01*
X0502469Y0220169D01*
X0502639Y0220237D01*
X0502811Y0220301D01*
X0502985Y0220360D01*
X0503160Y0220416D01*
X0503336Y0220467D01*
X0503514Y0220514D01*
X0503692Y0220556D01*
X0503872Y0220594D01*
X0504052Y0220628D01*
X0504233Y0220657D01*
X0504415Y0220682D01*
X0504598Y0220702D01*
X0504781Y0220718D01*
X0504964Y0220729D01*
X0505147Y0220736D01*
X0505331Y0220738D01*
X0505515Y0220736D01*
X0505698Y0220729D01*
X0505881Y0220718D01*
X0506064Y0220702D01*
X0506247Y0220682D01*
X0506429Y0220657D01*
X0506610Y0220628D01*
X0506790Y0220594D01*
X0506970Y0220556D01*
X0507148Y0220514D01*
X0507326Y0220467D01*
X0507502Y0220416D01*
X0507677Y0220360D01*
X0507851Y0220301D01*
X0508023Y0220237D01*
X0508193Y0220169D01*
X0508362Y0220096D01*
X0508529Y0220020D01*
X0508694Y0219939D01*
X0508857Y0219855D01*
X0509018Y0219766D01*
X0509176Y0219674D01*
X0509333Y0219578D01*
X0509487Y0219477D01*
X0509638Y0219374D01*
X0509787Y0219266D01*
X0509933Y0219155D01*
X0510076Y0219040D01*
X0510217Y0218922D01*
X0510354Y0218800D01*
X0510489Y0218675D01*
X0510620Y0218547D01*
X0510748Y0218416D01*
X0510873Y0218281D01*
X0510995Y0218144D01*
X0511113Y0218003D01*
X0511228Y0217860D01*
X0511339Y0217714D01*
X0511447Y0217565D01*
X0511550Y0217414D01*
X0511651Y0217260D01*
X0511747Y0217103D01*
X0511839Y0216945D01*
X0511928Y0216784D01*
X0512012Y0216621D01*
X0512093Y0216456D01*
X0512169Y0216289D01*
X0512242Y0216120D01*
X0512310Y0215950D01*
X0512374Y0215778D01*
X0512433Y0215604D01*
X0512489Y0215429D01*
X0512540Y0215253D01*
X0512587Y0215075D01*
X0512629Y0214897D01*
X0512667Y0214717D01*
X0512701Y0214537D01*
X0512730Y0214356D01*
X0512755Y0214174D01*
X0512775Y0213991D01*
X0512791Y0213808D01*
X0512802Y0213625D01*
X0512809Y0213442D01*
X0512811Y0213258D01*
X0512809Y0213074D01*
X0512802Y0212891D01*
X0512791Y0212708D01*
X0512775Y0212525D01*
X0512755Y0212342D01*
X0512730Y0212160D01*
X0512701Y0211979D01*
X0512667Y0211799D01*
X0512629Y0211619D01*
X0512587Y0211441D01*
X0512540Y0211263D01*
X0512489Y0211087D01*
X0512433Y0210912D01*
X0512374Y0210738D01*
X0512310Y0210566D01*
X0512242Y0210396D01*
X0512169Y0210227D01*
X0512093Y0210060D01*
X0512012Y0209895D01*
X0511928Y0209732D01*
X0511839Y0209571D01*
X0511747Y0209413D01*
X0511651Y0209256D01*
X0511550Y0209102D01*
X0511447Y0208951D01*
X0511339Y0208802D01*
X0511228Y0208656D01*
X0511113Y0208513D01*
X0510995Y0208372D01*
X0510873Y0208235D01*
X0510748Y0208100D01*
X0510620Y0207969D01*
X0510489Y0207841D01*
X0510354Y0207716D01*
X0510217Y0207594D01*
X0510076Y0207476D01*
X0509933Y0207361D01*
X0509787Y0207250D01*
X0509638Y0207142D01*
X0509487Y0207039D01*
X0509333Y0206938D01*
X0509176Y0206842D01*
X0509018Y0206750D01*
X0508857Y0206661D01*
X0508694Y0206577D01*
X0508529Y0206496D01*
X0508362Y0206420D01*
X0508193Y0206347D01*
X0508023Y0206279D01*
X0507851Y0206215D01*
X0507677Y0206156D01*
X0507502Y0206100D01*
X0507326Y0206049D01*
X0507148Y0206002D01*
X0506970Y0205960D01*
X0506790Y0205922D01*
X0506610Y0205888D01*
X0506429Y0205859D01*
X0506247Y0205834D01*
X0506064Y0205814D01*
X0505881Y0205798D01*
X0505698Y0205787D01*
X0505515Y0205780D01*
X0505331Y0205778D01*
X0505147Y0205780D01*
X0504964Y0205787D01*
X0504781Y0205798D01*
X0504598Y0205814D01*
X0504415Y0205834D01*
X0504233Y0205859D01*
X0504052Y0205888D01*
X0503872Y0205922D01*
X0503692Y0205960D01*
X0503514Y0206002D01*
X0503336Y0206049D01*
X0503160Y0206100D01*
X0502985Y0206156D01*
X0502811Y0206215D01*
X0502639Y0206279D01*
X0502469Y0206347D01*
X0502300Y0206420D01*
X0502133Y0206496D01*
X0501968Y0206577D01*
X0501805Y0206661D01*
X0501644Y0206750D01*
X0501486Y0206842D01*
X0501329Y0206938D01*
X0501175Y0207039D01*
X0501024Y0207142D01*
X0500875Y0207250D01*
X0500729Y0207361D01*
X0500586Y0207476D01*
X0500445Y0207594D01*
X0500308Y0207716D01*
X0500173Y0207841D01*
X0500042Y0207969D01*
X0499914Y0208100D01*
X0499789Y0208235D01*
X0499667Y0208372D01*
X0499549Y0208513D01*
X0499434Y0208656D01*
X0499323Y0208802D01*
X0499215Y0208951D01*
X0499112Y0209102D01*
X0499011Y0209256D01*
X0498915Y0209413D01*
X0498823Y0209571D01*
X0498734Y0209732D01*
X0498650Y0209895D01*
X0498569Y0210060D01*
X0498493Y0210227D01*
X0498420Y0210396D01*
X0498352Y0210566D01*
X0498288Y0210738D01*
X0498229Y0210912D01*
X0498173Y0211087D01*
X0498122Y0211263D01*
X0498075Y0211441D01*
X0498033Y0211619D01*
X0497995Y0211799D01*
X0497961Y0211979D01*
X0497932Y0212160D01*
X0497907Y0212342D01*
X0497887Y0212525D01*
X0497871Y0212708D01*
X0497860Y0212891D01*
X0497853Y0213074D01*
X0497851Y0213258D01*
X0497851Y0014439D02*
X0497853Y0014623D01*
X0497860Y0014806D01*
X0497871Y0014989D01*
X0497887Y0015172D01*
X0497907Y0015355D01*
X0497932Y0015537D01*
X0497961Y0015718D01*
X0497995Y0015898D01*
X0498033Y0016078D01*
X0498075Y0016256D01*
X0498122Y0016434D01*
X0498173Y0016610D01*
X0498229Y0016785D01*
X0498288Y0016959D01*
X0498352Y0017131D01*
X0498420Y0017301D01*
X0498493Y0017470D01*
X0498569Y0017637D01*
X0498650Y0017802D01*
X0498734Y0017965D01*
X0498823Y0018126D01*
X0498915Y0018284D01*
X0499011Y0018441D01*
X0499112Y0018595D01*
X0499215Y0018746D01*
X0499323Y0018895D01*
X0499434Y0019041D01*
X0499549Y0019184D01*
X0499667Y0019325D01*
X0499789Y0019462D01*
X0499914Y0019597D01*
X0500042Y0019728D01*
X0500173Y0019856D01*
X0500308Y0019981D01*
X0500445Y0020103D01*
X0500586Y0020221D01*
X0500729Y0020336D01*
X0500875Y0020447D01*
X0501024Y0020555D01*
X0501175Y0020658D01*
X0501329Y0020759D01*
X0501486Y0020855D01*
X0501644Y0020947D01*
X0501805Y0021036D01*
X0501968Y0021120D01*
X0502133Y0021201D01*
X0502300Y0021277D01*
X0502469Y0021350D01*
X0502639Y0021418D01*
X0502811Y0021482D01*
X0502985Y0021541D01*
X0503160Y0021597D01*
X0503336Y0021648D01*
X0503514Y0021695D01*
X0503692Y0021737D01*
X0503872Y0021775D01*
X0504052Y0021809D01*
X0504233Y0021838D01*
X0504415Y0021863D01*
X0504598Y0021883D01*
X0504781Y0021899D01*
X0504964Y0021910D01*
X0505147Y0021917D01*
X0505331Y0021919D01*
X0505515Y0021917D01*
X0505698Y0021910D01*
X0505881Y0021899D01*
X0506064Y0021883D01*
X0506247Y0021863D01*
X0506429Y0021838D01*
X0506610Y0021809D01*
X0506790Y0021775D01*
X0506970Y0021737D01*
X0507148Y0021695D01*
X0507326Y0021648D01*
X0507502Y0021597D01*
X0507677Y0021541D01*
X0507851Y0021482D01*
X0508023Y0021418D01*
X0508193Y0021350D01*
X0508362Y0021277D01*
X0508529Y0021201D01*
X0508694Y0021120D01*
X0508857Y0021036D01*
X0509018Y0020947D01*
X0509176Y0020855D01*
X0509333Y0020759D01*
X0509487Y0020658D01*
X0509638Y0020555D01*
X0509787Y0020447D01*
X0509933Y0020336D01*
X0510076Y0020221D01*
X0510217Y0020103D01*
X0510354Y0019981D01*
X0510489Y0019856D01*
X0510620Y0019728D01*
X0510748Y0019597D01*
X0510873Y0019462D01*
X0510995Y0019325D01*
X0511113Y0019184D01*
X0511228Y0019041D01*
X0511339Y0018895D01*
X0511447Y0018746D01*
X0511550Y0018595D01*
X0511651Y0018441D01*
X0511747Y0018284D01*
X0511839Y0018126D01*
X0511928Y0017965D01*
X0512012Y0017802D01*
X0512093Y0017637D01*
X0512169Y0017470D01*
X0512242Y0017301D01*
X0512310Y0017131D01*
X0512374Y0016959D01*
X0512433Y0016785D01*
X0512489Y0016610D01*
X0512540Y0016434D01*
X0512587Y0016256D01*
X0512629Y0016078D01*
X0512667Y0015898D01*
X0512701Y0015718D01*
X0512730Y0015537D01*
X0512755Y0015355D01*
X0512775Y0015172D01*
X0512791Y0014989D01*
X0512802Y0014806D01*
X0512809Y0014623D01*
X0512811Y0014439D01*
X0512809Y0014255D01*
X0512802Y0014072D01*
X0512791Y0013889D01*
X0512775Y0013706D01*
X0512755Y0013523D01*
X0512730Y0013341D01*
X0512701Y0013160D01*
X0512667Y0012980D01*
X0512629Y0012800D01*
X0512587Y0012622D01*
X0512540Y0012444D01*
X0512489Y0012268D01*
X0512433Y0012093D01*
X0512374Y0011919D01*
X0512310Y0011747D01*
X0512242Y0011577D01*
X0512169Y0011408D01*
X0512093Y0011241D01*
X0512012Y0011076D01*
X0511928Y0010913D01*
X0511839Y0010752D01*
X0511747Y0010594D01*
X0511651Y0010437D01*
X0511550Y0010283D01*
X0511447Y0010132D01*
X0511339Y0009983D01*
X0511228Y0009837D01*
X0511113Y0009694D01*
X0510995Y0009553D01*
X0510873Y0009416D01*
X0510748Y0009281D01*
X0510620Y0009150D01*
X0510489Y0009022D01*
X0510354Y0008897D01*
X0510217Y0008775D01*
X0510076Y0008657D01*
X0509933Y0008542D01*
X0509787Y0008431D01*
X0509638Y0008323D01*
X0509487Y0008220D01*
X0509333Y0008119D01*
X0509176Y0008023D01*
X0509018Y0007931D01*
X0508857Y0007842D01*
X0508694Y0007758D01*
X0508529Y0007677D01*
X0508362Y0007601D01*
X0508193Y0007528D01*
X0508023Y0007460D01*
X0507851Y0007396D01*
X0507677Y0007337D01*
X0507502Y0007281D01*
X0507326Y0007230D01*
X0507148Y0007183D01*
X0506970Y0007141D01*
X0506790Y0007103D01*
X0506610Y0007069D01*
X0506429Y0007040D01*
X0506247Y0007015D01*
X0506064Y0006995D01*
X0505881Y0006979D01*
X0505698Y0006968D01*
X0505515Y0006961D01*
X0505331Y0006959D01*
X0505147Y0006961D01*
X0504964Y0006968D01*
X0504781Y0006979D01*
X0504598Y0006995D01*
X0504415Y0007015D01*
X0504233Y0007040D01*
X0504052Y0007069D01*
X0503872Y0007103D01*
X0503692Y0007141D01*
X0503514Y0007183D01*
X0503336Y0007230D01*
X0503160Y0007281D01*
X0502985Y0007337D01*
X0502811Y0007396D01*
X0502639Y0007460D01*
X0502469Y0007528D01*
X0502300Y0007601D01*
X0502133Y0007677D01*
X0501968Y0007758D01*
X0501805Y0007842D01*
X0501644Y0007931D01*
X0501486Y0008023D01*
X0501329Y0008119D01*
X0501175Y0008220D01*
X0501024Y0008323D01*
X0500875Y0008431D01*
X0500729Y0008542D01*
X0500586Y0008657D01*
X0500445Y0008775D01*
X0500308Y0008897D01*
X0500173Y0009022D01*
X0500042Y0009150D01*
X0499914Y0009281D01*
X0499789Y0009416D01*
X0499667Y0009553D01*
X0499549Y0009694D01*
X0499434Y0009837D01*
X0499323Y0009983D01*
X0499215Y0010132D01*
X0499112Y0010283D01*
X0499011Y0010437D01*
X0498915Y0010594D01*
X0498823Y0010752D01*
X0498734Y0010913D01*
X0498650Y0011076D01*
X0498569Y0011241D01*
X0498493Y0011408D01*
X0498420Y0011577D01*
X0498352Y0011747D01*
X0498288Y0011919D01*
X0498229Y0012093D01*
X0498173Y0012268D01*
X0498122Y0012444D01*
X0498075Y0012622D01*
X0498033Y0012800D01*
X0497995Y0012980D01*
X0497961Y0013160D01*
X0497932Y0013341D01*
X0497907Y0013523D01*
X0497887Y0013706D01*
X0497871Y0013889D01*
X0497860Y0014072D01*
X0497853Y0014255D01*
X0497851Y0014439D01*
D12*
X0124819Y0091211D03*
X0118126Y0091211D03*
X0103165Y0091211D03*
X0096472Y0091211D03*
D13*
X0345941Y0095033D03*
X0350941Y0095033D03*
X0355941Y0095033D03*
X0360941Y0095033D03*
X0365941Y0095033D03*
X0370941Y0095033D03*
X0375941Y0095033D03*
X0380941Y0095033D03*
X0385941Y0095033D03*
X0390941Y0095033D03*
X0395941Y0095033D03*
X0400941Y0095033D03*
X0400941Y0134633D03*
X0395941Y0134633D03*
X0390941Y0134633D03*
X0385941Y0134633D03*
X0380941Y0134633D03*
X0375941Y0134633D03*
X0370941Y0134633D03*
X0365941Y0134633D03*
X0360941Y0134633D03*
X0355941Y0134633D03*
X0350941Y0134633D03*
X0345941Y0134633D03*
D14*
X0111630Y0060502D03*
X0111630Y0051053D03*
D15*
X0111630Y0043376D03*
X0111630Y0036683D03*
X0111630Y0068179D03*
X0111630Y0074872D03*
M02*
