G75*
%MOIN*%
%OFA0B0*%
%FSLAX25Y25*%
%IPPOS*%
%LPD*%
%AMOC8*
5,1,8,0,0,1.08239X$1,22.5*
%
%ADD10C,0.00787*%
%ADD11C,0.00000*%
%ADD12R,0.03937X0.04331*%
%ADD13R,0.04331X0.03937*%
%ADD14R,0.02600X0.08000*%
%ADD15R,0.01142X0.04449*%
%ADD16R,0.04449X0.01142*%
%ADD17R,0.06102X0.05118*%
%ADD18R,0.01969X0.07874*%
%ADD19R,0.09843X0.08661*%
%ADD20C,0.04724*%
%ADD21R,0.04724X0.04724*%
%ADD22R,0.03543X0.03150*%
%ADD23R,0.02362X0.04724*%
%ADD24R,0.03150X0.03150*%
%ADD25C,0.09744*%
%ADD26R,0.09744X0.09744*%
%ADD27R,0.01969X0.02756*%
%ADD28C,0.02362*%
%ADD29C,0.00600*%
D10*
X0001394Y0002628D02*
X0001394Y0225069D01*
X0519110Y0225069D01*
X0519110Y0002628D01*
X0001394Y0002628D01*
X0047457Y0035108D02*
X0047457Y0048691D01*
X0057319Y0058553D01*
X0091492Y0058553D01*
X0091492Y0056585D02*
X0059287Y0056585D01*
X0050606Y0047904D01*
X0050606Y0035108D01*
X0056906Y0035108D02*
X0056906Y0043573D01*
X0056512Y0043967D01*
X0082102Y0053809D02*
X0082909Y0054616D01*
X0091492Y0054616D01*
X0091492Y0052648D02*
X0108500Y0052648D01*
X0110823Y0054970D01*
X0110823Y0047451D01*
X0102949Y0047451D02*
X0102949Y0013278D01*
X0107693Y0008533D01*
X0239583Y0008533D01*
X0249425Y0018376D01*
X0249425Y0047904D01*
X0261236Y0059715D01*
X0406906Y0059715D01*
X0456118Y0108927D01*
X0456118Y0119360D01*
X0467634Y0119360D01*
X0475902Y0127628D01*
X0507201Y0127628D01*
X0507201Y0109911D02*
X0492535Y0109911D01*
X0475902Y0109911D01*
X0456118Y0126053D02*
X0456118Y0130581D01*
X0430528Y0144360D02*
X0430528Y0104990D01*
X0410843Y0085305D01*
X0414780Y0085305D02*
X0432496Y0103022D01*
X0432496Y0146329D01*
X0426591Y0152234D01*
X0395094Y0152234D01*
X0389189Y0146329D01*
X0397063Y0146329D02*
X0401000Y0150266D01*
X0424622Y0150266D01*
X0430528Y0144360D01*
X0436433Y0147805D02*
X0436433Y0099085D01*
X0401000Y0063652D01*
X0267142Y0063652D01*
X0263579Y0067215D01*
X0263579Y0095033D01*
X0268579Y0095033D02*
X0268579Y0068120D01*
X0271079Y0065620D01*
X0336039Y0065620D01*
X0339976Y0069557D01*
X0339976Y0154203D01*
X0344799Y0159026D01*
X0344799Y0179793D01*
X0341689Y0181030D02*
X0340248Y0181030D01*
X0340332Y0180827D02*
X0340065Y0181472D01*
X0339677Y0182052D01*
X0339184Y0182546D01*
X0338604Y0182933D01*
X0337959Y0183200D01*
X0337319Y0183328D01*
X0337319Y0180187D01*
X0340460Y0180187D01*
X0340332Y0180827D01*
X0340448Y0180244D02*
X0341453Y0180244D01*
X0341453Y0180459D02*
X0341453Y0179128D01*
X0341962Y0177898D01*
X0342904Y0176956D01*
X0343421Y0176742D01*
X0343421Y0164045D01*
X0302850Y0164045D01*
X0288286Y0178610D01*
X0288500Y0179128D01*
X0288500Y0180459D01*
X0287991Y0181689D01*
X0287049Y0182630D01*
X0285819Y0183140D01*
X0284488Y0183140D01*
X0283258Y0182630D01*
X0282317Y0181689D01*
X0281807Y0180459D01*
X0281807Y0179128D01*
X0282317Y0177898D01*
X0283258Y0176956D01*
X0284488Y0176447D01*
X0285819Y0176447D01*
X0286337Y0176661D01*
X0298953Y0164045D01*
X0272457Y0164045D01*
X0272457Y0191034D01*
X0279524Y0198100D01*
X0458756Y0198100D01*
X0459563Y0198908D01*
X0470781Y0210126D01*
X0471299Y0209911D01*
X0472630Y0209911D01*
X0473860Y0210421D01*
X0474802Y0211362D01*
X0475311Y0212592D01*
X0475311Y0213924D01*
X0474802Y0215153D01*
X0473860Y0216095D01*
X0472630Y0216604D01*
X0471299Y0216604D01*
X0470069Y0216095D01*
X0469128Y0215153D01*
X0468618Y0213924D01*
X0468618Y0212592D01*
X0468833Y0212075D01*
X0457614Y0200856D01*
X0401866Y0200856D01*
X0401886Y0200876D01*
X0411136Y0210126D01*
X0411653Y0209911D01*
X0412985Y0209911D01*
X0414215Y0210421D01*
X0415156Y0211362D01*
X0415665Y0212592D01*
X0415665Y0213924D01*
X0415156Y0215153D01*
X0414215Y0216095D01*
X0412985Y0216604D01*
X0411653Y0216604D01*
X0410423Y0216095D01*
X0409482Y0215153D01*
X0408972Y0213924D01*
X0408972Y0212592D01*
X0409187Y0212075D01*
X0399937Y0202825D01*
X0344189Y0202825D01*
X0344209Y0202845D01*
X0351490Y0210126D01*
X0352008Y0209911D01*
X0353339Y0209911D01*
X0354569Y0210421D01*
X0355510Y0211362D01*
X0356020Y0212592D01*
X0356020Y0213924D01*
X0355510Y0215153D01*
X0354569Y0216095D01*
X0353339Y0216604D01*
X0352008Y0216604D01*
X0350778Y0216095D01*
X0349836Y0215153D01*
X0349327Y0213924D01*
X0349327Y0212592D01*
X0349541Y0212075D01*
X0342260Y0204793D01*
X0288185Y0204793D01*
X0293303Y0209911D01*
X0293693Y0209911D01*
X0294923Y0210421D01*
X0295865Y0211362D01*
X0296374Y0212592D01*
X0296374Y0213924D01*
X0295865Y0215153D01*
X0294923Y0216095D01*
X0293693Y0216604D01*
X0292362Y0216604D01*
X0291132Y0216095D01*
X0290191Y0215153D01*
X0289681Y0213924D01*
X0289681Y0212592D01*
X0290191Y0211362D01*
X0290524Y0211029D01*
X0286256Y0206762D01*
X0276413Y0206762D01*
X0264227Y0194575D01*
X0264227Y0172846D01*
X0263775Y0173297D01*
X0245882Y0191191D01*
X0245075Y0191998D01*
X0245075Y0191998D01*
X0234760Y0202313D01*
X0234760Y0210206D01*
X0235277Y0210421D01*
X0236219Y0211362D01*
X0236728Y0212592D01*
X0236728Y0213924D01*
X0236219Y0215153D01*
X0235277Y0216095D01*
X0234048Y0216604D01*
X0232716Y0216604D01*
X0231486Y0216095D01*
X0230545Y0215153D01*
X0230035Y0213924D01*
X0230035Y0212592D01*
X0230545Y0211362D01*
X0231486Y0210421D01*
X0232004Y0210206D01*
X0232004Y0201171D01*
X0242162Y0191014D01*
X0179130Y0191014D01*
X0175114Y0195029D01*
X0175114Y0210206D01*
X0175632Y0210421D01*
X0176573Y0211362D01*
X0177083Y0212592D01*
X0177083Y0213924D01*
X0176573Y0215153D01*
X0175632Y0216095D01*
X0174402Y0216604D01*
X0173071Y0216604D01*
X0171841Y0216095D01*
X0170899Y0215153D01*
X0170390Y0213924D01*
X0170390Y0212592D01*
X0170899Y0211362D01*
X0171841Y0210421D01*
X0172358Y0210206D01*
X0172358Y0193888D01*
X0177181Y0189065D01*
X0177201Y0189045D01*
X0122043Y0189045D01*
X0115468Y0195620D01*
X0115468Y0210206D01*
X0115986Y0210421D01*
X0116928Y0211362D01*
X0117437Y0212592D01*
X0117437Y0213924D01*
X0116928Y0215153D01*
X0115986Y0216095D01*
X0114756Y0216604D01*
X0113425Y0216604D01*
X0112195Y0216095D01*
X0111254Y0215153D01*
X0110744Y0213924D01*
X0110744Y0212592D01*
X0111254Y0211362D01*
X0112195Y0210421D01*
X0112713Y0210206D01*
X0112713Y0194478D01*
X0120114Y0187077D01*
X0061020Y0187077D01*
X0055921Y0192175D01*
X0055921Y0210247D01*
X0056340Y0210421D01*
X0057282Y0211362D01*
X0057791Y0212592D01*
X0057791Y0213924D01*
X0057282Y0215153D01*
X0056340Y0216095D01*
X0055111Y0216604D01*
X0053779Y0216604D01*
X0052549Y0216095D01*
X0051608Y0215153D01*
X0051098Y0213924D01*
X0051098Y0212592D01*
X0051608Y0211362D01*
X0052549Y0210421D01*
X0053165Y0210166D01*
X0053165Y0191034D01*
X0059071Y0185128D01*
X0059878Y0184321D01*
X0242949Y0184321D01*
X0257201Y0170069D01*
X0257201Y0164045D01*
X0226886Y0164045D01*
X0226886Y0176742D01*
X0227403Y0176956D01*
X0228345Y0177898D01*
X0228854Y0179128D01*
X0228854Y0180459D01*
X0228345Y0181689D01*
X0227403Y0182630D01*
X0226174Y0183140D01*
X0224842Y0183140D01*
X0223612Y0182630D01*
X0222671Y0181689D01*
X0222161Y0180459D01*
X0222161Y0179128D01*
X0222671Y0177898D01*
X0223612Y0176956D01*
X0224130Y0176742D01*
X0224130Y0164045D01*
X0167240Y0164045D01*
X0167240Y0176742D01*
X0167758Y0176956D01*
X0168699Y0177898D01*
X0169209Y0179128D01*
X0169209Y0180459D01*
X0168699Y0181689D01*
X0167758Y0182630D01*
X0166528Y0183140D01*
X0165197Y0183140D01*
X0163967Y0182630D01*
X0163025Y0181689D01*
X0162516Y0180459D01*
X0162516Y0179128D01*
X0163025Y0177898D01*
X0163967Y0176956D01*
X0164484Y0176742D01*
X0164484Y0164045D01*
X0107594Y0164045D01*
X0107594Y0176742D01*
X0108112Y0176956D01*
X0109054Y0177898D01*
X0109563Y0179128D01*
X0109563Y0180459D01*
X0109054Y0181689D01*
X0108112Y0182630D01*
X0106882Y0183140D01*
X0105551Y0183140D01*
X0104321Y0182630D01*
X0103380Y0181689D01*
X0102870Y0180459D01*
X0102870Y0179128D01*
X0103380Y0177898D01*
X0104321Y0176956D01*
X0104839Y0176742D01*
X0104839Y0164045D01*
X0048047Y0164045D01*
X0048047Y0176783D01*
X0048466Y0176956D01*
X0049408Y0177898D01*
X0049917Y0179128D01*
X0049917Y0180459D01*
X0049408Y0181689D01*
X0048466Y0182630D01*
X0047237Y0183140D01*
X0045905Y0183140D01*
X0044675Y0182630D01*
X0043734Y0181689D01*
X0043224Y0180459D01*
X0043224Y0179128D01*
X0043734Y0177898D01*
X0044675Y0176956D01*
X0045291Y0176701D01*
X0045291Y0164045D01*
X0005331Y0164045D01*
X0005331Y0209120D01*
X0005695Y0208240D01*
X0008187Y0205748D01*
X0011443Y0204400D01*
X0014967Y0204400D01*
X0018223Y0205748D01*
X0020714Y0208240D01*
X0022063Y0211496D01*
X0022063Y0215020D01*
X0020714Y0218276D01*
X0018223Y0220768D01*
X0017343Y0221132D01*
X0501193Y0221132D01*
X0500313Y0220768D01*
X0497821Y0218276D01*
X0496472Y0215020D01*
X0496472Y0211496D01*
X0497821Y0208240D01*
X0500313Y0205748D01*
X0503569Y0204400D01*
X0507093Y0204400D01*
X0510349Y0205748D01*
X0512840Y0208240D01*
X0513205Y0209120D01*
X0513205Y0164045D01*
X0450291Y0164045D01*
X0462907Y0176661D01*
X0463425Y0176447D01*
X0464756Y0176447D01*
X0465986Y0176956D01*
X0466928Y0177898D01*
X0467437Y0179128D01*
X0467437Y0180459D01*
X0466928Y0181689D01*
X0465986Y0182630D01*
X0464756Y0183140D01*
X0463425Y0183140D01*
X0462195Y0182630D01*
X0461254Y0181689D01*
X0460744Y0180459D01*
X0460744Y0179128D01*
X0460959Y0178610D01*
X0446394Y0164045D01*
X0422142Y0164045D01*
X0407577Y0178610D01*
X0407791Y0179128D01*
X0407791Y0180459D01*
X0407282Y0181689D01*
X0406340Y0182630D01*
X0405111Y0183140D01*
X0403779Y0183140D01*
X0402549Y0182630D01*
X0401608Y0181689D01*
X0401098Y0180459D01*
X0401098Y0179128D01*
X0401608Y0177898D01*
X0402549Y0176956D01*
X0403779Y0176447D01*
X0405111Y0176447D01*
X0405628Y0176661D01*
X0418244Y0164045D01*
X0346177Y0164045D01*
X0346177Y0176742D01*
X0346695Y0176956D01*
X0347636Y0177898D01*
X0348146Y0179128D01*
X0348146Y0180459D01*
X0347636Y0181689D01*
X0346695Y0182630D01*
X0345465Y0183140D01*
X0344134Y0183140D01*
X0342904Y0182630D01*
X0341962Y0181689D01*
X0341453Y0180459D01*
X0341453Y0179458D02*
X0337319Y0179458D01*
X0337319Y0179400D02*
X0337319Y0180187D01*
X0336531Y0180187D01*
X0336531Y0179400D01*
X0333391Y0179400D01*
X0333518Y0178760D01*
X0333785Y0178115D01*
X0334173Y0177535D01*
X0334666Y0177041D01*
X0335247Y0176653D01*
X0335892Y0176386D01*
X0336531Y0176259D01*
X0336531Y0179400D01*
X0337319Y0179400D01*
X0340460Y0179400D01*
X0340332Y0178760D01*
X0340065Y0178115D01*
X0339677Y0177535D01*
X0339184Y0177041D01*
X0338604Y0176653D01*
X0337959Y0176386D01*
X0337319Y0176259D01*
X0337319Y0179400D01*
X0337319Y0178672D02*
X0336531Y0178672D01*
X0336531Y0177887D02*
X0337319Y0177887D01*
X0337319Y0177101D02*
X0336531Y0177101D01*
X0336531Y0176315D02*
X0337319Y0176315D01*
X0337599Y0176315D02*
X0343421Y0176315D01*
X0343421Y0175529D02*
X0291367Y0175529D01*
X0292153Y0174743D02*
X0343421Y0174743D01*
X0343421Y0173957D02*
X0292939Y0173957D01*
X0293725Y0173171D02*
X0343421Y0173171D01*
X0343421Y0172385D02*
X0294510Y0172385D01*
X0295296Y0171599D02*
X0343421Y0171599D01*
X0343421Y0170813D02*
X0296082Y0170813D01*
X0296868Y0170027D02*
X0343421Y0170027D01*
X0343421Y0169241D02*
X0297654Y0169241D01*
X0298440Y0168456D02*
X0343421Y0168456D01*
X0343421Y0167670D02*
X0299226Y0167670D01*
X0300012Y0166884D02*
X0343421Y0166884D01*
X0343421Y0166098D02*
X0300798Y0166098D01*
X0301584Y0165312D02*
X0343421Y0165312D01*
X0343421Y0164526D02*
X0302370Y0164526D01*
X0298472Y0164526D02*
X0272457Y0164526D01*
X0272457Y0165312D02*
X0297686Y0165312D01*
X0296900Y0166098D02*
X0272457Y0166098D01*
X0272457Y0166884D02*
X0296114Y0166884D01*
X0295328Y0167670D02*
X0272457Y0167670D01*
X0272457Y0168456D02*
X0294543Y0168456D01*
X0293757Y0169241D02*
X0272457Y0169241D01*
X0272457Y0170027D02*
X0292971Y0170027D01*
X0292185Y0170813D02*
X0272457Y0170813D01*
X0272457Y0171599D02*
X0291399Y0171599D01*
X0290613Y0172385D02*
X0272457Y0172385D01*
X0272457Y0173171D02*
X0289827Y0173171D01*
X0289041Y0173957D02*
X0272457Y0173957D01*
X0272457Y0174743D02*
X0288255Y0174743D01*
X0287469Y0175529D02*
X0272457Y0175529D01*
X0272457Y0176315D02*
X0276605Y0176315D01*
X0276886Y0176315D02*
X0277673Y0176315D01*
X0277673Y0176259D02*
X0278313Y0176386D01*
X0278958Y0176653D01*
X0279538Y0177041D01*
X0280032Y0177535D01*
X0280420Y0178115D01*
X0280687Y0178760D01*
X0280814Y0179400D01*
X0277673Y0179400D01*
X0277673Y0180187D01*
X0276886Y0180187D01*
X0276886Y0183328D01*
X0276246Y0183200D01*
X0275601Y0182933D01*
X0275021Y0182546D01*
X0274527Y0182052D01*
X0274139Y0181472D01*
X0273872Y0180827D01*
X0273745Y0180187D01*
X0276886Y0180187D01*
X0276886Y0179400D01*
X0273745Y0179400D01*
X0273872Y0178760D01*
X0274139Y0178115D01*
X0274527Y0177535D01*
X0275021Y0177041D01*
X0275601Y0176653D01*
X0276246Y0176386D01*
X0276886Y0176259D01*
X0276886Y0179400D01*
X0277673Y0179400D01*
X0277673Y0176259D01*
X0277954Y0176315D02*
X0286683Y0176315D01*
X0289009Y0177887D02*
X0290202Y0177887D01*
X0290191Y0177898D02*
X0291132Y0176956D01*
X0292362Y0176447D01*
X0293693Y0176447D01*
X0294923Y0176956D01*
X0295865Y0177898D01*
X0296374Y0179128D01*
X0296374Y0180459D01*
X0295865Y0181689D01*
X0294923Y0182630D01*
X0293693Y0183140D01*
X0292362Y0183140D01*
X0291132Y0182630D01*
X0290191Y0181689D01*
X0289681Y0180459D01*
X0289681Y0179128D01*
X0290191Y0177898D01*
X0289870Y0178672D02*
X0288311Y0178672D01*
X0288500Y0179458D02*
X0289681Y0179458D01*
X0289681Y0180244D02*
X0288500Y0180244D01*
X0288263Y0181030D02*
X0289918Y0181030D01*
X0290318Y0181816D02*
X0287863Y0181816D01*
X0287077Y0182602D02*
X0291104Y0182602D01*
X0294951Y0182602D02*
X0297594Y0182602D01*
X0297555Y0182563D02*
X0297555Y0177023D01*
X0298132Y0176447D01*
X0303671Y0176447D01*
X0304248Y0177023D01*
X0304248Y0182563D01*
X0303671Y0183140D01*
X0298132Y0183140D01*
X0297555Y0182563D01*
X0297555Y0181816D02*
X0295737Y0181816D01*
X0296137Y0181030D02*
X0297555Y0181030D01*
X0297555Y0180244D02*
X0296374Y0180244D01*
X0296374Y0179458D02*
X0297555Y0179458D01*
X0297555Y0178672D02*
X0296185Y0178672D01*
X0295853Y0177887D02*
X0297555Y0177887D01*
X0297555Y0177101D02*
X0295067Y0177101D01*
X0290988Y0177101D02*
X0289795Y0177101D01*
X0290581Y0176315D02*
X0336251Y0176315D01*
X0334607Y0177101D02*
X0304248Y0177101D01*
X0304248Y0177887D02*
X0333938Y0177887D01*
X0333554Y0178672D02*
X0304248Y0178672D01*
X0304248Y0179458D02*
X0336531Y0179458D01*
X0336531Y0180187D02*
X0333391Y0180187D01*
X0333518Y0180827D01*
X0333785Y0181472D01*
X0334173Y0182052D01*
X0334666Y0182546D01*
X0335247Y0182933D01*
X0335892Y0183200D01*
X0336531Y0183328D01*
X0336531Y0180187D01*
X0336531Y0180244D02*
X0337319Y0180244D01*
X0337319Y0181030D02*
X0336531Y0181030D01*
X0336531Y0181816D02*
X0337319Y0181816D01*
X0337319Y0182602D02*
X0336531Y0182602D01*
X0334751Y0182602D02*
X0304209Y0182602D01*
X0304248Y0181816D02*
X0334015Y0181816D01*
X0333602Y0181030D02*
X0304248Y0181030D01*
X0304248Y0180244D02*
X0333402Y0180244D01*
X0339099Y0182602D02*
X0342875Y0182602D01*
X0342089Y0181816D02*
X0339835Y0181816D01*
X0340296Y0178672D02*
X0341641Y0178672D01*
X0341973Y0177887D02*
X0339913Y0177887D01*
X0339243Y0177101D02*
X0342759Y0177101D01*
X0346177Y0176315D02*
X0395897Y0176315D01*
X0396177Y0176315D02*
X0396965Y0176315D01*
X0396965Y0176259D02*
X0397604Y0176386D01*
X0398249Y0176653D01*
X0398830Y0177041D01*
X0399323Y0177535D01*
X0399711Y0178115D01*
X0399978Y0178760D01*
X0400105Y0179400D01*
X0396965Y0179400D01*
X0396965Y0180187D01*
X0400105Y0180187D01*
X0399978Y0180827D01*
X0399711Y0181472D01*
X0399323Y0182052D01*
X0398830Y0182546D01*
X0398249Y0182933D01*
X0397604Y0183200D01*
X0396965Y0183328D01*
X0396965Y0180187D01*
X0396177Y0180187D01*
X0396177Y0179400D01*
X0393036Y0179400D01*
X0393164Y0178760D01*
X0393431Y0178115D01*
X0393819Y0177535D01*
X0394312Y0177041D01*
X0394892Y0176653D01*
X0395537Y0176386D01*
X0396177Y0176259D01*
X0396177Y0179400D01*
X0396965Y0179400D01*
X0396965Y0176259D01*
X0397245Y0176315D02*
X0405975Y0176315D01*
X0406761Y0175529D02*
X0346177Y0175529D01*
X0346177Y0174743D02*
X0407547Y0174743D01*
X0408333Y0173957D02*
X0346177Y0173957D01*
X0346177Y0173171D02*
X0409118Y0173171D01*
X0409904Y0172385D02*
X0346177Y0172385D01*
X0346177Y0171599D02*
X0410690Y0171599D01*
X0411476Y0170813D02*
X0346177Y0170813D01*
X0346177Y0170027D02*
X0412262Y0170027D01*
X0413048Y0169241D02*
X0346177Y0169241D01*
X0346177Y0168456D02*
X0413834Y0168456D01*
X0414620Y0167670D02*
X0346177Y0167670D01*
X0346177Y0166884D02*
X0415406Y0166884D01*
X0416192Y0166098D02*
X0346177Y0166098D01*
X0346177Y0165312D02*
X0416978Y0165312D01*
X0417763Y0164526D02*
X0346177Y0164526D01*
X0346839Y0177101D02*
X0350633Y0177101D01*
X0350778Y0176956D02*
X0352008Y0176447D01*
X0353339Y0176447D01*
X0354569Y0176956D01*
X0355510Y0177898D01*
X0356020Y0179128D01*
X0356020Y0180459D01*
X0355510Y0181689D01*
X0354569Y0182630D01*
X0353339Y0183140D01*
X0352008Y0183140D01*
X0350778Y0182630D01*
X0349836Y0181689D01*
X0349327Y0180459D01*
X0349327Y0179128D01*
X0349836Y0177898D01*
X0350778Y0176956D01*
X0349847Y0177887D02*
X0347625Y0177887D01*
X0347957Y0178672D02*
X0349515Y0178672D01*
X0349327Y0179458D02*
X0348146Y0179458D01*
X0348146Y0180244D02*
X0349327Y0180244D01*
X0349563Y0181030D02*
X0347909Y0181030D01*
X0347509Y0181816D02*
X0349963Y0181816D01*
X0350749Y0182602D02*
X0346723Y0182602D01*
X0354597Y0182602D02*
X0357240Y0182602D01*
X0357201Y0182563D02*
X0357201Y0177023D01*
X0357777Y0176447D01*
X0363317Y0176447D01*
X0363894Y0177023D01*
X0363894Y0182563D01*
X0363317Y0183140D01*
X0357777Y0183140D01*
X0357201Y0182563D01*
X0357201Y0181816D02*
X0355383Y0181816D01*
X0355783Y0181030D02*
X0357201Y0181030D01*
X0357201Y0180244D02*
X0356020Y0180244D01*
X0356020Y0179458D02*
X0357201Y0179458D01*
X0357201Y0178672D02*
X0355831Y0178672D01*
X0355499Y0177887D02*
X0357201Y0177887D01*
X0357201Y0177101D02*
X0354713Y0177101D01*
X0363894Y0177101D02*
X0394253Y0177101D01*
X0393583Y0177887D02*
X0363894Y0177887D01*
X0363894Y0178672D02*
X0393200Y0178672D01*
X0393036Y0180187D02*
X0396177Y0180187D01*
X0396177Y0183328D01*
X0395537Y0183200D01*
X0394892Y0182933D01*
X0394312Y0182546D01*
X0393819Y0182052D01*
X0393431Y0181472D01*
X0393164Y0180827D01*
X0393036Y0180187D01*
X0393048Y0180244D02*
X0363894Y0180244D01*
X0363894Y0179458D02*
X0396177Y0179458D01*
X0396177Y0178672D02*
X0396965Y0178672D01*
X0396965Y0177887D02*
X0396177Y0177887D01*
X0396177Y0177101D02*
X0396965Y0177101D01*
X0398889Y0177101D02*
X0402405Y0177101D01*
X0401619Y0177887D02*
X0399558Y0177887D01*
X0399942Y0178672D02*
X0401287Y0178672D01*
X0401098Y0179458D02*
X0396965Y0179458D01*
X0396965Y0180244D02*
X0396177Y0180244D01*
X0396177Y0181030D02*
X0396965Y0181030D01*
X0396965Y0181816D02*
X0396177Y0181816D01*
X0396177Y0182602D02*
X0396965Y0182602D01*
X0398745Y0182602D02*
X0402521Y0182602D01*
X0401735Y0181816D02*
X0399481Y0181816D01*
X0399894Y0181030D02*
X0401335Y0181030D01*
X0401098Y0180244D02*
X0400094Y0180244D01*
X0404445Y0179793D02*
X0436433Y0147805D01*
X0438451Y0154154D02*
X0438451Y0097165D01*
X0402969Y0061683D01*
X0261236Y0061683D01*
X0258579Y0064341D01*
X0258579Y0095033D01*
X0253579Y0095033D02*
X0253362Y0094816D01*
X0253362Y0087274D01*
X0248579Y0082490D02*
X0239583Y0073494D01*
X0243520Y0069557D01*
X0239583Y0073494D02*
X0227772Y0061683D01*
X0208087Y0061683D01*
X0204150Y0057746D01*
X0204150Y0055778D01*
X0210646Y0055778D01*
X0204150Y0055778D02*
X0178953Y0055778D01*
X0170685Y0059518D02*
X0164976Y0059518D01*
X0164780Y0059715D01*
X0170685Y0059518D02*
X0189583Y0059518D01*
X0193717Y0063652D01*
X0187024Y0063652D02*
X0168717Y0063652D01*
X0166748Y0065620D01*
X0166748Y0067589D01*
X0170488Y0067589D01*
X0170685Y0067785D01*
X0166748Y0067589D02*
X0145094Y0067589D01*
X0142319Y0070364D01*
X0123894Y0070364D01*
X0123894Y0068396D02*
X0128539Y0068396D01*
X0144898Y0052037D01*
X0166748Y0052037D01*
X0166748Y0049872D01*
X0168717Y0047904D01*
X0187024Y0047904D01*
X0189583Y0043770D02*
X0193717Y0047904D01*
X0189583Y0043770D02*
X0170685Y0043770D01*
X0164976Y0043770D01*
X0164780Y0043967D01*
X0166748Y0036093D02*
X0151000Y0036093D01*
X0128539Y0058553D01*
X0123894Y0058553D01*
X0123894Y0056585D02*
X0128539Y0056585D01*
X0137220Y0047904D01*
X0137220Y0028219D01*
X0144898Y0020541D01*
X0166748Y0020541D01*
X0166748Y0018376D01*
X0168717Y0016407D01*
X0187024Y0016407D01*
X0190370Y0012470D02*
X0193717Y0015817D01*
X0193717Y0016407D01*
X0190370Y0012470D02*
X0170685Y0012470D01*
X0170685Y0020541D02*
X0166748Y0020541D01*
X0178953Y0024281D02*
X0204150Y0024281D01*
X0210646Y0024281D01*
X0204150Y0024281D02*
X0204150Y0028219D01*
X0208087Y0032156D01*
X0241551Y0032156D01*
X0223835Y0040030D02*
X0217339Y0040030D01*
X0210646Y0040030D02*
X0204150Y0040030D01*
X0178953Y0040030D01*
X0170685Y0036289D02*
X0170488Y0036093D01*
X0166748Y0036093D01*
X0166748Y0034124D01*
X0168717Y0032156D01*
X0187024Y0032156D01*
X0189583Y0028022D02*
X0170685Y0028022D01*
X0170488Y0028219D01*
X0164780Y0028219D01*
X0189583Y0028022D02*
X0193717Y0032156D01*
X0204150Y0040030D02*
X0204150Y0043967D01*
X0208087Y0047904D01*
X0241551Y0047904D01*
X0223835Y0055778D02*
X0217339Y0055778D01*
X0217339Y0071526D02*
X0223835Y0071526D01*
X0210646Y0071526D02*
X0204150Y0071526D01*
X0204150Y0073494D01*
X0208087Y0077431D01*
X0225977Y0077431D01*
X0229827Y0081281D01*
X0233677Y0077431D01*
X0229827Y0081281D02*
X0243579Y0095033D01*
X0248579Y0095033D02*
X0248579Y0082490D01*
X0233677Y0093179D02*
X0243520Y0103022D01*
X0275016Y0103022D01*
X0276000Y0102037D01*
X0276000Y0072510D01*
X0278953Y0069557D01*
X0329862Y0069557D01*
X0334071Y0073766D01*
X0334071Y0110896D01*
X0316354Y0128612D01*
X0304599Y0128612D01*
X0298579Y0134633D01*
X0293579Y0134633D02*
X0293579Y0139577D01*
X0271079Y0162077D01*
X0271079Y0191604D01*
X0278953Y0199478D01*
X0458185Y0199478D01*
X0471965Y0213258D01*
X0475311Y0213253D02*
X0479445Y0213253D01*
X0479445Y0212864D02*
X0476304Y0212864D01*
X0476431Y0212224D01*
X0476699Y0211579D01*
X0477086Y0210999D01*
X0477580Y0210506D01*
X0478160Y0210118D01*
X0478805Y0209851D01*
X0479445Y0209723D01*
X0479445Y0212864D01*
X0480232Y0212864D01*
X0480232Y0209723D01*
X0480872Y0209851D01*
X0481517Y0210118D01*
X0482097Y0210506D01*
X0482591Y0210999D01*
X0482979Y0211579D01*
X0483246Y0212224D01*
X0483373Y0212864D01*
X0480232Y0212864D01*
X0480232Y0213652D01*
X0479445Y0213652D01*
X0479445Y0216792D01*
X0478805Y0216665D01*
X0478160Y0216398D01*
X0477580Y0216010D01*
X0477086Y0215517D01*
X0476699Y0214936D01*
X0476431Y0214291D01*
X0476304Y0213652D01*
X0479445Y0213652D01*
X0479445Y0212864D01*
X0479445Y0212467D02*
X0480232Y0212467D01*
X0480232Y0213253D02*
X0496472Y0213253D01*
X0496472Y0214039D02*
X0483296Y0214039D01*
X0483246Y0214291D02*
X0482979Y0214936D01*
X0482591Y0215517D01*
X0482097Y0216010D01*
X0481517Y0216398D01*
X0480872Y0216665D01*
X0480232Y0216792D01*
X0480232Y0213652D01*
X0483373Y0213652D01*
X0483246Y0214291D01*
X0483025Y0214824D02*
X0496472Y0214824D01*
X0496717Y0215610D02*
X0482497Y0215610D01*
X0481519Y0216396D02*
X0497043Y0216396D01*
X0497368Y0217182D02*
X0021167Y0217182D01*
X0021493Y0216396D02*
X0035719Y0216396D01*
X0035927Y0216604D02*
X0035350Y0216028D01*
X0035350Y0210488D01*
X0035927Y0209911D01*
X0041467Y0209911D01*
X0042043Y0210488D01*
X0042043Y0216028D01*
X0041467Y0216604D01*
X0035927Y0216604D01*
X0035350Y0215610D02*
X0021818Y0215610D01*
X0022063Y0214824D02*
X0035350Y0214824D01*
X0035350Y0214039D02*
X0022063Y0214039D01*
X0022063Y0213253D02*
X0035350Y0213253D01*
X0035350Y0212467D02*
X0022063Y0212467D01*
X0022063Y0211681D02*
X0035350Y0211681D01*
X0035350Y0210895D02*
X0021814Y0210895D01*
X0021489Y0210109D02*
X0035729Y0210109D01*
X0041664Y0210109D02*
X0045428Y0210109D01*
X0045905Y0209911D02*
X0044675Y0210421D01*
X0043734Y0211362D01*
X0043224Y0212592D01*
X0043224Y0213924D01*
X0043734Y0215153D01*
X0044675Y0216095D01*
X0045905Y0216604D01*
X0047237Y0216604D01*
X0048466Y0216095D01*
X0049408Y0215153D01*
X0049917Y0213924D01*
X0049917Y0212592D01*
X0049408Y0211362D01*
X0048466Y0210421D01*
X0047237Y0209911D01*
X0045905Y0209911D01*
X0047713Y0210109D02*
X0053165Y0210109D01*
X0053165Y0209323D02*
X0021163Y0209323D01*
X0020837Y0208537D02*
X0053165Y0208537D01*
X0053165Y0207751D02*
X0020226Y0207751D01*
X0019440Y0206965D02*
X0053165Y0206965D01*
X0053165Y0206179D02*
X0018654Y0206179D01*
X0017366Y0205393D02*
X0053165Y0205393D01*
X0053165Y0204608D02*
X0015469Y0204608D01*
X0010941Y0204608D02*
X0005331Y0204608D01*
X0005331Y0205393D02*
X0009043Y0205393D01*
X0007756Y0206179D02*
X0005331Y0206179D01*
X0005331Y0206965D02*
X0006970Y0206965D01*
X0006184Y0207751D02*
X0005331Y0207751D01*
X0005331Y0208537D02*
X0005572Y0208537D01*
X0005331Y0203822D02*
X0053165Y0203822D01*
X0053165Y0203036D02*
X0005331Y0203036D01*
X0005331Y0202250D02*
X0053165Y0202250D01*
X0053165Y0201464D02*
X0005331Y0201464D01*
X0005331Y0200678D02*
X0053165Y0200678D01*
X0053165Y0199892D02*
X0005331Y0199892D01*
X0005331Y0199106D02*
X0053165Y0199106D01*
X0053165Y0198320D02*
X0005331Y0198320D01*
X0005331Y0197534D02*
X0053165Y0197534D01*
X0053165Y0196748D02*
X0005331Y0196748D01*
X0005331Y0195963D02*
X0053165Y0195963D01*
X0053165Y0195177D02*
X0005331Y0195177D01*
X0005331Y0194391D02*
X0053165Y0194391D01*
X0053165Y0193605D02*
X0005331Y0193605D01*
X0005331Y0192819D02*
X0053165Y0192819D01*
X0053165Y0192033D02*
X0005331Y0192033D01*
X0005331Y0191247D02*
X0053165Y0191247D01*
X0053738Y0190461D02*
X0005331Y0190461D01*
X0005331Y0189675D02*
X0054524Y0189675D01*
X0055310Y0188889D02*
X0005331Y0188889D01*
X0005331Y0188103D02*
X0056096Y0188103D01*
X0056881Y0187317D02*
X0005331Y0187317D01*
X0005331Y0186532D02*
X0057667Y0186532D01*
X0058453Y0185746D02*
X0005331Y0185746D01*
X0005331Y0184960D02*
X0059239Y0184960D01*
X0060449Y0185699D02*
X0243520Y0185699D01*
X0258579Y0170640D01*
X0258579Y0134633D01*
X0263579Y0134633D02*
X0263579Y0143986D01*
X0261236Y0146329D01*
X0261236Y0169951D01*
X0243520Y0187667D01*
X0121472Y0187667D01*
X0114091Y0195049D01*
X0114091Y0213258D01*
X0117437Y0213253D02*
X0121571Y0213253D01*
X0121571Y0212864D02*
X0118430Y0212864D01*
X0118557Y0212224D01*
X0118825Y0211579D01*
X0119212Y0210999D01*
X0119706Y0210506D01*
X0120286Y0210118D01*
X0120931Y0209851D01*
X0121571Y0209723D01*
X0121571Y0212864D01*
X0122358Y0212864D01*
X0122358Y0209723D01*
X0122998Y0209851D01*
X0123643Y0210118D01*
X0124223Y0210506D01*
X0124717Y0210999D01*
X0125105Y0211579D01*
X0125372Y0212224D01*
X0125499Y0212864D01*
X0122358Y0212864D01*
X0122358Y0213652D01*
X0121571Y0213652D01*
X0121571Y0216792D01*
X0120931Y0216665D01*
X0120286Y0216398D01*
X0119706Y0216010D01*
X0119212Y0215517D01*
X0118825Y0214936D01*
X0118557Y0214291D01*
X0118430Y0213652D01*
X0121571Y0213652D01*
X0121571Y0212864D01*
X0121571Y0212467D02*
X0122358Y0212467D01*
X0122358Y0213253D02*
X0154642Y0213253D01*
X0154642Y0214039D02*
X0125422Y0214039D01*
X0125372Y0214291D02*
X0125105Y0214936D01*
X0124717Y0215517D01*
X0124223Y0216010D01*
X0123643Y0216398D01*
X0122998Y0216665D01*
X0122358Y0216792D01*
X0122358Y0213652D01*
X0125499Y0213652D01*
X0125372Y0214291D01*
X0125151Y0214824D02*
X0154642Y0214824D01*
X0154642Y0215610D02*
X0124623Y0215610D01*
X0123645Y0216396D02*
X0155010Y0216396D01*
X0155218Y0216604D02*
X0154642Y0216028D01*
X0154642Y0210488D01*
X0155218Y0209911D01*
X0160758Y0209911D01*
X0161335Y0210488D01*
X0161335Y0216028D01*
X0160758Y0216604D01*
X0155218Y0216604D01*
X0154642Y0212467D02*
X0125420Y0212467D01*
X0125147Y0211681D02*
X0154642Y0211681D01*
X0154642Y0210895D02*
X0124613Y0210895D01*
X0123621Y0210109D02*
X0155021Y0210109D01*
X0160956Y0210109D02*
X0164720Y0210109D01*
X0165197Y0209911D02*
X0163967Y0210421D01*
X0163025Y0211362D01*
X0162516Y0212592D01*
X0162516Y0213924D01*
X0163025Y0215153D01*
X0163967Y0216095D01*
X0165197Y0216604D01*
X0166528Y0216604D01*
X0167758Y0216095D01*
X0168699Y0215153D01*
X0169209Y0213924D01*
X0169209Y0212592D01*
X0168699Y0211362D01*
X0167758Y0210421D01*
X0166528Y0209911D01*
X0165197Y0209911D01*
X0167005Y0210109D02*
X0172358Y0210109D01*
X0172358Y0209323D02*
X0115468Y0209323D01*
X0115468Y0208537D02*
X0172358Y0208537D01*
X0172358Y0207751D02*
X0115468Y0207751D01*
X0115468Y0206965D02*
X0172358Y0206965D01*
X0172358Y0206179D02*
X0115468Y0206179D01*
X0115468Y0205393D02*
X0172358Y0205393D01*
X0172358Y0204608D02*
X0115468Y0204608D01*
X0115468Y0203822D02*
X0172358Y0203822D01*
X0172358Y0203036D02*
X0115468Y0203036D01*
X0115468Y0202250D02*
X0172358Y0202250D01*
X0172358Y0201464D02*
X0115468Y0201464D01*
X0115468Y0200678D02*
X0172358Y0200678D01*
X0172358Y0199892D02*
X0115468Y0199892D01*
X0115468Y0199106D02*
X0172358Y0199106D01*
X0172358Y0198320D02*
X0115468Y0198320D01*
X0115468Y0197534D02*
X0172358Y0197534D01*
X0172358Y0196748D02*
X0115468Y0196748D01*
X0115468Y0195963D02*
X0172358Y0195963D01*
X0172358Y0195177D02*
X0115912Y0195177D01*
X0116698Y0194391D02*
X0172358Y0194391D01*
X0172641Y0193605D02*
X0117484Y0193605D01*
X0118270Y0192819D02*
X0173427Y0192819D01*
X0174213Y0192033D02*
X0119056Y0192033D01*
X0119841Y0191247D02*
X0174999Y0191247D01*
X0175785Y0190461D02*
X0120627Y0190461D01*
X0121413Y0189675D02*
X0176571Y0189675D01*
X0177181Y0189065D02*
X0177181Y0189065D01*
X0178559Y0189636D02*
X0173736Y0194459D01*
X0173736Y0213258D01*
X0170390Y0213253D02*
X0169209Y0213253D01*
X0169161Y0214039D02*
X0170437Y0214039D01*
X0170763Y0214824D02*
X0168835Y0214824D01*
X0168242Y0215610D02*
X0171356Y0215610D01*
X0172568Y0216396D02*
X0167030Y0216396D01*
X0164694Y0216396D02*
X0160966Y0216396D01*
X0161335Y0215610D02*
X0163482Y0215610D01*
X0162889Y0214824D02*
X0161335Y0214824D01*
X0161335Y0214039D02*
X0162563Y0214039D01*
X0162516Y0213253D02*
X0161335Y0213253D01*
X0161335Y0212467D02*
X0162568Y0212467D01*
X0162893Y0211681D02*
X0161335Y0211681D01*
X0161335Y0210895D02*
X0163493Y0210895D01*
X0168232Y0210895D02*
X0171367Y0210895D01*
X0170767Y0211681D02*
X0168831Y0211681D01*
X0169157Y0212467D02*
X0170442Y0212467D01*
X0175114Y0210109D02*
X0179953Y0210109D01*
X0179932Y0210118D02*
X0180577Y0209851D01*
X0181217Y0209723D01*
X0181217Y0212864D01*
X0182004Y0212864D01*
X0182004Y0209723D01*
X0182644Y0209851D01*
X0183289Y0210118D01*
X0183869Y0210506D01*
X0184362Y0210999D01*
X0184750Y0211579D01*
X0185017Y0212224D01*
X0185145Y0212864D01*
X0182004Y0212864D01*
X0182004Y0213652D01*
X0181217Y0213652D01*
X0181217Y0216792D01*
X0180577Y0216665D01*
X0179932Y0216398D01*
X0179352Y0216010D01*
X0178858Y0215517D01*
X0178470Y0214936D01*
X0178203Y0214291D01*
X0178076Y0213652D01*
X0181216Y0213652D01*
X0181216Y0212864D01*
X0178076Y0212864D01*
X0178203Y0212224D01*
X0178470Y0211579D01*
X0178858Y0210999D01*
X0179352Y0210506D01*
X0179932Y0210118D01*
X0178962Y0210895D02*
X0176106Y0210895D01*
X0176705Y0211681D02*
X0178428Y0211681D01*
X0178155Y0212467D02*
X0177031Y0212467D01*
X0177083Y0213253D02*
X0181216Y0213253D01*
X0181217Y0214039D02*
X0182004Y0214039D01*
X0182004Y0213652D02*
X0182004Y0216792D01*
X0182644Y0216665D01*
X0183289Y0216398D01*
X0183869Y0216010D01*
X0184362Y0215517D01*
X0184750Y0214936D01*
X0185017Y0214291D01*
X0185145Y0213652D01*
X0182004Y0213652D01*
X0182004Y0213253D02*
X0214287Y0213253D01*
X0214287Y0214039D02*
X0185068Y0214039D01*
X0184797Y0214824D02*
X0214287Y0214824D01*
X0214287Y0215610D02*
X0184269Y0215610D01*
X0183291Y0216396D02*
X0214656Y0216396D01*
X0214864Y0216604D02*
X0214287Y0216028D01*
X0214287Y0210488D01*
X0214864Y0209911D01*
X0220404Y0209911D01*
X0220980Y0210488D01*
X0220980Y0216028D01*
X0220404Y0216604D01*
X0214864Y0216604D01*
X0214287Y0212467D02*
X0185066Y0212467D01*
X0184792Y0211681D02*
X0214287Y0211681D01*
X0214287Y0210895D02*
X0184258Y0210895D01*
X0183267Y0210109D02*
X0214666Y0210109D01*
X0220601Y0210109D02*
X0224365Y0210109D01*
X0224842Y0209911D02*
X0223612Y0210421D01*
X0222671Y0211362D01*
X0222161Y0212592D01*
X0222161Y0213924D01*
X0222671Y0215153D01*
X0223612Y0216095D01*
X0224842Y0216604D01*
X0226174Y0216604D01*
X0227403Y0216095D01*
X0228345Y0215153D01*
X0228854Y0213924D01*
X0228854Y0212592D01*
X0228345Y0211362D01*
X0227403Y0210421D01*
X0226174Y0209911D01*
X0224842Y0209911D01*
X0226650Y0210109D02*
X0232004Y0210109D01*
X0232004Y0209323D02*
X0175114Y0209323D01*
X0175114Y0208537D02*
X0232004Y0208537D01*
X0232004Y0207751D02*
X0175114Y0207751D01*
X0175114Y0206965D02*
X0232004Y0206965D01*
X0232004Y0206179D02*
X0175114Y0206179D01*
X0175114Y0205393D02*
X0232004Y0205393D01*
X0232004Y0204608D02*
X0175114Y0204608D01*
X0175114Y0203822D02*
X0232004Y0203822D01*
X0232004Y0203036D02*
X0175114Y0203036D01*
X0175114Y0202250D02*
X0232004Y0202250D01*
X0232004Y0201464D02*
X0175114Y0201464D01*
X0175114Y0200678D02*
X0232497Y0200678D01*
X0233283Y0199892D02*
X0175114Y0199892D01*
X0175114Y0199106D02*
X0234069Y0199106D01*
X0234855Y0198320D02*
X0175114Y0198320D01*
X0175114Y0197534D02*
X0235641Y0197534D01*
X0236427Y0196748D02*
X0175114Y0196748D01*
X0175114Y0195963D02*
X0237213Y0195963D01*
X0237999Y0195177D02*
X0175114Y0195177D01*
X0175753Y0194391D02*
X0238785Y0194391D01*
X0239570Y0193605D02*
X0176539Y0193605D01*
X0177325Y0192819D02*
X0240356Y0192819D01*
X0241142Y0192033D02*
X0178111Y0192033D01*
X0178897Y0191247D02*
X0241928Y0191247D01*
X0244090Y0191014D02*
X0244484Y0190620D01*
X0244504Y0190620D01*
X0233382Y0201742D01*
X0233382Y0213258D01*
X0235762Y0215610D02*
X0238597Y0215610D01*
X0238504Y0215517D02*
X0238116Y0214936D01*
X0237849Y0214291D01*
X0237721Y0213652D01*
X0240862Y0213652D01*
X0240862Y0216792D01*
X0240222Y0216665D01*
X0239578Y0216398D01*
X0238997Y0216010D01*
X0238504Y0215517D01*
X0238070Y0214824D02*
X0236355Y0214824D01*
X0236681Y0214039D02*
X0237798Y0214039D01*
X0237721Y0212864D02*
X0237849Y0212224D01*
X0238116Y0211579D01*
X0238504Y0210999D01*
X0238997Y0210506D01*
X0239578Y0210118D01*
X0240222Y0209851D01*
X0240862Y0209723D01*
X0240862Y0212864D01*
X0237721Y0212864D01*
X0237801Y0212467D02*
X0236676Y0212467D01*
X0236728Y0213253D02*
X0240862Y0213253D01*
X0240862Y0212864D02*
X0240862Y0213652D01*
X0241650Y0213652D01*
X0244790Y0213652D01*
X0244663Y0214291D01*
X0244396Y0214936D01*
X0244008Y0215517D01*
X0243515Y0216010D01*
X0242934Y0216398D01*
X0242289Y0216665D01*
X0241650Y0216792D01*
X0241650Y0213652D01*
X0241650Y0212864D01*
X0244790Y0212864D01*
X0244663Y0212224D01*
X0244396Y0211579D01*
X0244008Y0210999D01*
X0243515Y0210506D01*
X0242934Y0210118D01*
X0242289Y0209851D01*
X0241650Y0209723D01*
X0241650Y0212864D01*
X0240862Y0212864D01*
X0240862Y0212467D02*
X0241650Y0212467D01*
X0241650Y0213253D02*
X0273933Y0213253D01*
X0273933Y0214039D02*
X0244713Y0214039D01*
X0244442Y0214824D02*
X0273933Y0214824D01*
X0273933Y0215610D02*
X0243914Y0215610D01*
X0242937Y0216396D02*
X0274302Y0216396D01*
X0274510Y0216604D02*
X0273933Y0216028D01*
X0273933Y0210488D01*
X0274510Y0209911D01*
X0280049Y0209911D01*
X0280626Y0210488D01*
X0280626Y0216028D01*
X0280049Y0216604D01*
X0274510Y0216604D01*
X0273933Y0212467D02*
X0244711Y0212467D01*
X0244438Y0211681D02*
X0273933Y0211681D01*
X0273933Y0210895D02*
X0243904Y0210895D01*
X0242913Y0210109D02*
X0274312Y0210109D01*
X0280247Y0210109D02*
X0284011Y0210109D01*
X0284488Y0209911D02*
X0283258Y0210421D01*
X0282317Y0211362D01*
X0281807Y0212592D01*
X0281807Y0213924D01*
X0282317Y0215153D01*
X0283258Y0216095D01*
X0284488Y0216604D01*
X0285819Y0216604D01*
X0287049Y0216095D01*
X0287991Y0215153D01*
X0288500Y0213924D01*
X0288500Y0212592D01*
X0287991Y0211362D01*
X0287049Y0210421D01*
X0285819Y0209911D01*
X0284488Y0209911D01*
X0286296Y0210109D02*
X0289603Y0210109D01*
X0288817Y0209323D02*
X0234760Y0209323D01*
X0234760Y0208537D02*
X0288031Y0208537D01*
X0287245Y0207751D02*
X0234760Y0207751D01*
X0234760Y0206965D02*
X0286460Y0206965D01*
X0286827Y0205384D02*
X0293028Y0211585D01*
X0293028Y0213258D01*
X0296374Y0213253D02*
X0300508Y0213253D01*
X0300508Y0212864D02*
X0297367Y0212864D01*
X0297494Y0212224D01*
X0297762Y0211579D01*
X0298149Y0210999D01*
X0298643Y0210506D01*
X0299223Y0210118D01*
X0299868Y0209851D01*
X0300508Y0209723D01*
X0300508Y0212864D01*
X0301295Y0212864D01*
X0301295Y0209723D01*
X0301935Y0209851D01*
X0302580Y0210118D01*
X0303160Y0210506D01*
X0303654Y0210999D01*
X0304042Y0211579D01*
X0304309Y0212224D01*
X0304436Y0212864D01*
X0301295Y0212864D01*
X0301295Y0213652D01*
X0300508Y0213652D01*
X0300508Y0216792D01*
X0299868Y0216665D01*
X0299223Y0216398D01*
X0298643Y0216010D01*
X0298149Y0215517D01*
X0297762Y0214936D01*
X0297494Y0214291D01*
X0297367Y0213652D01*
X0300508Y0213652D01*
X0300508Y0212864D01*
X0300508Y0212467D02*
X0301295Y0212467D01*
X0301295Y0213253D02*
X0333579Y0213253D01*
X0333579Y0214039D02*
X0304359Y0214039D01*
X0304309Y0214291D02*
X0304042Y0214936D01*
X0303654Y0215517D01*
X0303160Y0216010D01*
X0302580Y0216398D01*
X0301935Y0216665D01*
X0301295Y0216792D01*
X0301295Y0213652D01*
X0304436Y0213652D01*
X0304309Y0214291D01*
X0304088Y0214824D02*
X0333579Y0214824D01*
X0333579Y0215610D02*
X0303560Y0215610D01*
X0302582Y0216396D02*
X0333947Y0216396D01*
X0334155Y0216604D02*
X0333579Y0216028D01*
X0333579Y0210488D01*
X0334155Y0209911D01*
X0339695Y0209911D01*
X0340272Y0210488D01*
X0340272Y0216028D01*
X0339695Y0216604D01*
X0334155Y0216604D01*
X0333579Y0212467D02*
X0304357Y0212467D01*
X0304084Y0211681D02*
X0333579Y0211681D01*
X0333579Y0210895D02*
X0303550Y0210895D01*
X0302559Y0210109D02*
X0333958Y0210109D01*
X0339893Y0210109D02*
X0343657Y0210109D01*
X0344134Y0209911D02*
X0342904Y0210421D01*
X0341962Y0211362D01*
X0341453Y0212592D01*
X0341453Y0213924D01*
X0341962Y0215153D01*
X0342904Y0216095D01*
X0344134Y0216604D01*
X0345465Y0216604D01*
X0346695Y0216095D01*
X0347636Y0215153D01*
X0348146Y0213924D01*
X0348146Y0212592D01*
X0347636Y0211362D01*
X0346695Y0210421D01*
X0345465Y0209911D01*
X0344134Y0209911D01*
X0345942Y0210109D02*
X0347576Y0210109D01*
X0347169Y0210895D02*
X0348362Y0210895D01*
X0347768Y0211681D02*
X0349147Y0211681D01*
X0349379Y0212467D02*
X0348094Y0212467D01*
X0348146Y0213253D02*
X0349327Y0213253D01*
X0349374Y0214039D02*
X0348098Y0214039D01*
X0347773Y0214824D02*
X0349700Y0214824D01*
X0350293Y0215610D02*
X0347179Y0215610D01*
X0345967Y0216396D02*
X0351505Y0216396D01*
X0353841Y0216396D02*
X0358866Y0216396D01*
X0358869Y0216398D02*
X0358289Y0216010D01*
X0357795Y0215517D01*
X0357407Y0214936D01*
X0357140Y0214291D01*
X0357013Y0213652D01*
X0360153Y0213652D01*
X0360153Y0212864D01*
X0357013Y0212864D01*
X0357140Y0212224D01*
X0357407Y0211579D01*
X0357795Y0210999D01*
X0358289Y0210506D01*
X0358869Y0210118D01*
X0359514Y0209851D01*
X0360154Y0209723D01*
X0360154Y0212864D01*
X0360941Y0212864D01*
X0360941Y0209723D01*
X0361581Y0209851D01*
X0362226Y0210118D01*
X0362806Y0210506D01*
X0363299Y0210999D01*
X0363687Y0211579D01*
X0363954Y0212224D01*
X0364082Y0212864D01*
X0360941Y0212864D01*
X0360941Y0213652D01*
X0360154Y0213652D01*
X0360154Y0216792D01*
X0359514Y0216665D01*
X0358869Y0216398D01*
X0357889Y0215610D02*
X0355053Y0215610D01*
X0355647Y0214824D02*
X0357361Y0214824D01*
X0357090Y0214039D02*
X0355972Y0214039D01*
X0356020Y0213253D02*
X0360153Y0213253D01*
X0360154Y0214039D02*
X0360941Y0214039D01*
X0360941Y0213652D02*
X0360941Y0216792D01*
X0361581Y0216665D01*
X0362226Y0216398D01*
X0362806Y0216010D01*
X0363299Y0215517D01*
X0363687Y0214936D01*
X0363954Y0214291D01*
X0364082Y0213652D01*
X0360941Y0213652D01*
X0360941Y0213253D02*
X0393224Y0213253D01*
X0393224Y0214039D02*
X0364005Y0214039D01*
X0363734Y0214824D02*
X0393224Y0214824D01*
X0393224Y0215610D02*
X0363206Y0215610D01*
X0362228Y0216396D02*
X0393593Y0216396D01*
X0393801Y0216604D02*
X0393224Y0216028D01*
X0393224Y0210488D01*
X0393801Y0209911D01*
X0399341Y0209911D01*
X0399917Y0210488D01*
X0399917Y0216028D01*
X0399341Y0216604D01*
X0393801Y0216604D01*
X0393224Y0212467D02*
X0364003Y0212467D01*
X0363729Y0211681D02*
X0393224Y0211681D01*
X0393224Y0210895D02*
X0363195Y0210895D01*
X0362204Y0210109D02*
X0393603Y0210109D01*
X0399538Y0210109D02*
X0403302Y0210109D01*
X0403779Y0209911D02*
X0402549Y0210421D01*
X0401608Y0211362D01*
X0401098Y0212592D01*
X0401098Y0213924D01*
X0401608Y0215153D01*
X0402549Y0216095D01*
X0403779Y0216604D01*
X0405111Y0216604D01*
X0406340Y0216095D01*
X0407282Y0215153D01*
X0407791Y0213924D01*
X0407791Y0212592D01*
X0407282Y0211362D01*
X0406340Y0210421D01*
X0405111Y0209911D01*
X0403779Y0209911D01*
X0405587Y0210109D02*
X0407221Y0210109D01*
X0406814Y0210895D02*
X0408007Y0210895D01*
X0407414Y0211681D02*
X0408793Y0211681D01*
X0409024Y0212467D02*
X0407739Y0212467D01*
X0407791Y0213253D02*
X0408972Y0213253D01*
X0409020Y0214039D02*
X0407744Y0214039D01*
X0407418Y0214824D02*
X0409346Y0214824D01*
X0409939Y0215610D02*
X0406825Y0215610D01*
X0405613Y0216396D02*
X0411151Y0216396D01*
X0413487Y0216396D02*
X0418512Y0216396D01*
X0418515Y0216398D02*
X0417934Y0216010D01*
X0417441Y0215517D01*
X0417053Y0214936D01*
X0416786Y0214291D01*
X0416658Y0213652D01*
X0419799Y0213652D01*
X0419799Y0216792D01*
X0419159Y0216665D01*
X0418515Y0216398D01*
X0417534Y0215610D02*
X0414699Y0215610D01*
X0415292Y0214824D02*
X0417007Y0214824D01*
X0416735Y0214039D02*
X0415618Y0214039D01*
X0415665Y0213253D02*
X0419799Y0213253D01*
X0419799Y0212864D02*
X0416658Y0212864D01*
X0416786Y0212224D01*
X0417053Y0211579D01*
X0417441Y0210999D01*
X0417934Y0210506D01*
X0418515Y0210118D01*
X0419159Y0209851D01*
X0419799Y0209723D01*
X0419799Y0212864D01*
X0419799Y0213652D01*
X0420587Y0213652D01*
X0423727Y0213652D01*
X0423600Y0214291D01*
X0423333Y0214936D01*
X0422945Y0215517D01*
X0422452Y0216010D01*
X0421871Y0216398D01*
X0421226Y0216665D01*
X0420587Y0216792D01*
X0420587Y0213652D01*
X0420587Y0212864D01*
X0423727Y0212864D01*
X0423600Y0212224D01*
X0423333Y0211579D01*
X0422945Y0210999D01*
X0422452Y0210506D01*
X0421871Y0210118D01*
X0421226Y0209851D01*
X0420587Y0209723D01*
X0420587Y0212864D01*
X0419799Y0212864D01*
X0419799Y0212467D02*
X0420587Y0212467D01*
X0420587Y0213253D02*
X0452870Y0213253D01*
X0452870Y0214039D02*
X0423650Y0214039D01*
X0423379Y0214824D02*
X0452870Y0214824D01*
X0452870Y0215610D02*
X0422851Y0215610D01*
X0421874Y0216396D02*
X0453239Y0216396D01*
X0453447Y0216604D02*
X0452870Y0216028D01*
X0452870Y0210488D01*
X0453447Y0209911D01*
X0458986Y0209911D01*
X0459563Y0210488D01*
X0459563Y0216028D01*
X0458986Y0216604D01*
X0453447Y0216604D01*
X0452870Y0212467D02*
X0423648Y0212467D01*
X0423375Y0211681D02*
X0452870Y0211681D01*
X0452870Y0210895D02*
X0422841Y0210895D01*
X0421850Y0210109D02*
X0453249Y0210109D01*
X0459184Y0210109D02*
X0462948Y0210109D01*
X0463425Y0209911D02*
X0462195Y0210421D01*
X0461254Y0211362D01*
X0460744Y0212592D01*
X0460744Y0213924D01*
X0461254Y0215153D01*
X0462195Y0216095D01*
X0463425Y0216604D01*
X0464756Y0216604D01*
X0465986Y0216095D01*
X0466928Y0215153D01*
X0467437Y0213924D01*
X0467437Y0212592D01*
X0466928Y0211362D01*
X0465986Y0210421D01*
X0464756Y0209911D01*
X0463425Y0209911D01*
X0465233Y0210109D02*
X0466867Y0210109D01*
X0466460Y0210895D02*
X0467653Y0210895D01*
X0467059Y0211681D02*
X0468439Y0211681D01*
X0468670Y0212467D02*
X0467385Y0212467D01*
X0467437Y0213253D02*
X0468618Y0213253D01*
X0468666Y0214039D02*
X0467389Y0214039D01*
X0467064Y0214824D02*
X0468991Y0214824D01*
X0469584Y0215610D02*
X0466471Y0215610D01*
X0465259Y0216396D02*
X0470797Y0216396D01*
X0473133Y0216396D02*
X0478158Y0216396D01*
X0477180Y0215610D02*
X0474345Y0215610D01*
X0474938Y0214824D02*
X0476652Y0214824D01*
X0476381Y0214039D02*
X0475263Y0214039D01*
X0475259Y0212467D02*
X0476383Y0212467D01*
X0476657Y0211681D02*
X0474933Y0211681D01*
X0474334Y0210895D02*
X0477191Y0210895D01*
X0478182Y0210109D02*
X0473107Y0210109D01*
X0470822Y0210109D02*
X0470764Y0210109D01*
X0469978Y0209323D02*
X0497372Y0209323D01*
X0497047Y0210109D02*
X0481496Y0210109D01*
X0480232Y0210109D02*
X0479445Y0210109D01*
X0479445Y0210895D02*
X0480232Y0210895D01*
X0480232Y0211681D02*
X0479445Y0211681D01*
X0479445Y0214039D02*
X0480232Y0214039D01*
X0480232Y0214824D02*
X0479445Y0214824D01*
X0479445Y0215610D02*
X0480232Y0215610D01*
X0480232Y0216396D02*
X0479445Y0216396D01*
X0483294Y0212467D02*
X0496472Y0212467D01*
X0496472Y0211681D02*
X0483021Y0211681D01*
X0482487Y0210895D02*
X0496721Y0210895D01*
X0497698Y0208537D02*
X0469193Y0208537D01*
X0468407Y0207751D02*
X0498310Y0207751D01*
X0499096Y0206965D02*
X0467621Y0206965D01*
X0466835Y0206179D02*
X0499882Y0206179D01*
X0501169Y0205393D02*
X0466049Y0205393D01*
X0465263Y0204608D02*
X0503067Y0204608D01*
X0507595Y0204608D02*
X0513205Y0204608D01*
X0513205Y0205393D02*
X0509492Y0205393D01*
X0510780Y0206179D02*
X0513205Y0206179D01*
X0513205Y0206965D02*
X0511566Y0206965D01*
X0512352Y0207751D02*
X0513205Y0207751D01*
X0513205Y0208537D02*
X0512963Y0208537D01*
X0513205Y0203822D02*
X0464477Y0203822D01*
X0463691Y0203036D02*
X0513205Y0203036D01*
X0513205Y0202250D02*
X0462905Y0202250D01*
X0462119Y0201464D02*
X0513205Y0201464D01*
X0513205Y0200678D02*
X0461333Y0200678D01*
X0460548Y0199892D02*
X0513205Y0199892D01*
X0513205Y0199106D02*
X0459762Y0199106D01*
X0458976Y0198320D02*
X0513205Y0198320D01*
X0513205Y0197534D02*
X0278957Y0197534D01*
X0278172Y0196748D02*
X0513205Y0196748D01*
X0513205Y0195963D02*
X0277386Y0195963D01*
X0276600Y0195177D02*
X0513205Y0195177D01*
X0513205Y0194391D02*
X0275814Y0194391D01*
X0275028Y0193605D02*
X0513205Y0193605D01*
X0513205Y0192819D02*
X0274242Y0192819D01*
X0273456Y0192033D02*
X0513205Y0192033D01*
X0513205Y0191247D02*
X0272670Y0191247D01*
X0272457Y0190461D02*
X0513205Y0190461D01*
X0513205Y0189675D02*
X0272457Y0189675D01*
X0272457Y0188889D02*
X0513205Y0188889D01*
X0513205Y0188103D02*
X0272457Y0188103D01*
X0272457Y0187317D02*
X0513205Y0187317D01*
X0513205Y0186532D02*
X0272457Y0186532D01*
X0272457Y0185746D02*
X0513205Y0185746D01*
X0513205Y0184960D02*
X0272457Y0184960D01*
X0272457Y0184174D02*
X0513205Y0184174D01*
X0513205Y0183388D02*
X0272457Y0183388D01*
X0272457Y0182602D02*
X0275105Y0182602D01*
X0274370Y0181816D02*
X0272457Y0181816D01*
X0272457Y0181030D02*
X0273957Y0181030D01*
X0273757Y0180244D02*
X0272457Y0180244D01*
X0272457Y0179458D02*
X0276886Y0179458D01*
X0276886Y0178672D02*
X0277673Y0178672D01*
X0277673Y0177887D02*
X0276886Y0177887D01*
X0276886Y0177101D02*
X0277673Y0177101D01*
X0279598Y0177101D02*
X0283114Y0177101D01*
X0282328Y0177887D02*
X0280267Y0177887D01*
X0280650Y0178672D02*
X0281996Y0178672D01*
X0281807Y0179458D02*
X0277673Y0179458D01*
X0277673Y0180187D02*
X0280814Y0180187D01*
X0280687Y0180827D01*
X0280420Y0181472D01*
X0280032Y0182052D01*
X0279538Y0182546D01*
X0278958Y0182933D01*
X0278313Y0183200D01*
X0277673Y0183328D01*
X0277673Y0180187D01*
X0277673Y0180244D02*
X0276886Y0180244D01*
X0276886Y0181030D02*
X0277673Y0181030D01*
X0277673Y0181816D02*
X0276886Y0181816D01*
X0276886Y0182602D02*
X0277673Y0182602D01*
X0279454Y0182602D02*
X0283230Y0182602D01*
X0282444Y0181816D02*
X0280189Y0181816D01*
X0280602Y0181030D02*
X0282044Y0181030D01*
X0281807Y0180244D02*
X0280803Y0180244D01*
X0285154Y0179793D02*
X0336039Y0128907D01*
X0336039Y0073494D01*
X0330134Y0067589D01*
X0275016Y0067589D01*
X0273579Y0069026D01*
X0273579Y0095033D01*
X0278579Y0095033D02*
X0278579Y0073868D01*
X0280921Y0071526D01*
X0329882Y0071526D01*
X0332102Y0073746D01*
X0332102Y0110876D01*
X0316354Y0126624D01*
X0316354Y0126644D01*
X0233677Y0126644D01*
X0225508Y0134813D01*
X0225508Y0179793D01*
X0228618Y0181030D02*
X0230272Y0181030D01*
X0230035Y0180459D02*
X0230035Y0179128D01*
X0230545Y0177898D01*
X0231486Y0176956D01*
X0232716Y0176447D01*
X0234048Y0176447D01*
X0235277Y0176956D01*
X0236219Y0177898D01*
X0236728Y0179128D01*
X0236728Y0180459D01*
X0236219Y0181689D01*
X0235277Y0182630D01*
X0234048Y0183140D01*
X0232716Y0183140D01*
X0231486Y0182630D01*
X0230545Y0181689D01*
X0230035Y0180459D01*
X0230035Y0180244D02*
X0228854Y0180244D01*
X0228854Y0179458D02*
X0230035Y0179458D01*
X0230224Y0178672D02*
X0228666Y0178672D01*
X0228334Y0177887D02*
X0230556Y0177887D01*
X0231342Y0177101D02*
X0227548Y0177101D01*
X0226886Y0176315D02*
X0250955Y0176315D01*
X0250169Y0177101D02*
X0244602Y0177101D01*
X0244602Y0177023D02*
X0244026Y0176447D01*
X0238486Y0176447D01*
X0237909Y0177023D01*
X0237909Y0182563D01*
X0238486Y0183140D01*
X0244026Y0183140D01*
X0244602Y0182563D01*
X0244602Y0177023D01*
X0244602Y0177887D02*
X0249383Y0177887D01*
X0248597Y0178672D02*
X0244602Y0178672D01*
X0244602Y0179458D02*
X0247811Y0179458D01*
X0247026Y0180244D02*
X0244602Y0180244D01*
X0244602Y0181030D02*
X0246240Y0181030D01*
X0245454Y0181816D02*
X0244602Y0181816D01*
X0244564Y0182602D02*
X0244668Y0182602D01*
X0243882Y0183388D02*
X0005331Y0183388D01*
X0005331Y0184174D02*
X0243096Y0184174D01*
X0237948Y0182602D02*
X0235306Y0182602D01*
X0236092Y0181816D02*
X0237909Y0181816D01*
X0237909Y0181030D02*
X0236492Y0181030D01*
X0236728Y0180244D02*
X0237909Y0180244D01*
X0237909Y0179458D02*
X0236728Y0179458D01*
X0236540Y0178672D02*
X0237909Y0178672D01*
X0237909Y0177887D02*
X0236208Y0177887D01*
X0235422Y0177101D02*
X0237909Y0177101D01*
X0230672Y0181816D02*
X0228218Y0181816D01*
X0227432Y0182602D02*
X0231458Y0182602D01*
X0223584Y0182602D02*
X0219808Y0182602D01*
X0219893Y0182546D02*
X0219312Y0182933D01*
X0218667Y0183200D01*
X0218028Y0183328D01*
X0218028Y0180187D01*
X0221168Y0180187D01*
X0221041Y0180827D01*
X0220774Y0181472D01*
X0220386Y0182052D01*
X0219893Y0182546D01*
X0220544Y0181816D02*
X0222798Y0181816D01*
X0222398Y0181030D02*
X0220957Y0181030D01*
X0221157Y0180244D02*
X0222161Y0180244D01*
X0222161Y0179458D02*
X0218028Y0179458D01*
X0218028Y0179400D02*
X0218028Y0180187D01*
X0217240Y0180187D01*
X0217240Y0179400D01*
X0214099Y0179400D01*
X0214227Y0178760D01*
X0214494Y0178115D01*
X0214882Y0177535D01*
X0215375Y0177041D01*
X0215955Y0176653D01*
X0216600Y0176386D01*
X0217240Y0176259D01*
X0217240Y0179400D01*
X0218028Y0179400D01*
X0221168Y0179400D01*
X0221041Y0178760D01*
X0220774Y0178115D01*
X0220386Y0177535D01*
X0219893Y0177041D01*
X0219312Y0176653D01*
X0218667Y0176386D01*
X0218028Y0176259D01*
X0218028Y0179400D01*
X0218028Y0178672D02*
X0217240Y0178672D01*
X0217240Y0177887D02*
X0218028Y0177887D01*
X0218028Y0177101D02*
X0217240Y0177101D01*
X0217240Y0176315D02*
X0218028Y0176315D01*
X0218308Y0176315D02*
X0224130Y0176315D01*
X0224130Y0175529D02*
X0167240Y0175529D01*
X0167240Y0176315D02*
X0216960Y0176315D01*
X0215316Y0177101D02*
X0184957Y0177101D01*
X0184957Y0177023D02*
X0184380Y0176447D01*
X0178840Y0176447D01*
X0178264Y0177023D01*
X0178264Y0182563D01*
X0178840Y0183140D01*
X0184380Y0183140D01*
X0184957Y0182563D01*
X0184957Y0177023D01*
X0184957Y0177887D02*
X0214646Y0177887D01*
X0214263Y0178672D02*
X0184957Y0178672D01*
X0184957Y0179458D02*
X0217240Y0179458D01*
X0217240Y0180187D02*
X0214099Y0180187D01*
X0214227Y0180827D01*
X0214494Y0181472D01*
X0214882Y0182052D01*
X0215375Y0182546D01*
X0215955Y0182933D01*
X0216600Y0183200D01*
X0217240Y0183328D01*
X0217240Y0180187D01*
X0217240Y0180244D02*
X0218028Y0180244D01*
X0218028Y0181030D02*
X0217240Y0181030D01*
X0217240Y0181816D02*
X0218028Y0181816D01*
X0218028Y0182602D02*
X0217240Y0182602D01*
X0215460Y0182602D02*
X0184918Y0182602D01*
X0184957Y0181816D02*
X0214724Y0181816D01*
X0214311Y0181030D02*
X0184957Y0181030D01*
X0184957Y0180244D02*
X0214111Y0180244D01*
X0220621Y0177887D02*
X0222682Y0177887D01*
X0222350Y0178672D02*
X0221005Y0178672D01*
X0219952Y0177101D02*
X0223468Y0177101D01*
X0224130Y0174743D02*
X0167240Y0174743D01*
X0167240Y0173957D02*
X0224130Y0173957D01*
X0224130Y0173171D02*
X0167240Y0173171D01*
X0167240Y0172385D02*
X0224130Y0172385D01*
X0224130Y0171599D02*
X0167240Y0171599D01*
X0167240Y0170813D02*
X0224130Y0170813D01*
X0224130Y0170027D02*
X0167240Y0170027D01*
X0167240Y0169241D02*
X0224130Y0169241D01*
X0224130Y0168456D02*
X0167240Y0168456D01*
X0167240Y0167670D02*
X0224130Y0167670D01*
X0224130Y0166884D02*
X0167240Y0166884D01*
X0167240Y0166098D02*
X0224130Y0166098D01*
X0224130Y0165312D02*
X0167240Y0165312D01*
X0167240Y0164526D02*
X0224130Y0164526D01*
X0226886Y0164526D02*
X0257201Y0164526D01*
X0257201Y0165312D02*
X0226886Y0165312D01*
X0226886Y0166098D02*
X0257201Y0166098D01*
X0257201Y0166884D02*
X0226886Y0166884D01*
X0226886Y0167670D02*
X0257201Y0167670D01*
X0257201Y0168456D02*
X0226886Y0168456D01*
X0226886Y0169241D02*
X0257201Y0169241D01*
X0257201Y0170027D02*
X0226886Y0170027D01*
X0226886Y0170813D02*
X0256456Y0170813D01*
X0255671Y0171599D02*
X0226886Y0171599D01*
X0226886Y0172385D02*
X0254885Y0172385D01*
X0254099Y0173171D02*
X0226886Y0173171D01*
X0226886Y0173957D02*
X0253313Y0173957D01*
X0252527Y0174743D02*
X0226886Y0174743D01*
X0226886Y0175529D02*
X0251741Y0175529D01*
X0257614Y0179458D02*
X0264227Y0179458D01*
X0264227Y0178672D02*
X0258400Y0178672D01*
X0259186Y0177887D02*
X0264227Y0177887D01*
X0264227Y0177101D02*
X0259972Y0177101D01*
X0260758Y0176315D02*
X0264227Y0176315D01*
X0264227Y0175529D02*
X0261544Y0175529D01*
X0262330Y0174743D02*
X0264227Y0174743D01*
X0264227Y0173957D02*
X0263116Y0173957D01*
X0263902Y0173171D02*
X0264227Y0173171D01*
X0263205Y0171919D02*
X0263205Y0171900D01*
X0263992Y0171112D01*
X0263992Y0152647D01*
X0273579Y0143060D01*
X0273579Y0134633D01*
X0273579Y0136205D01*
X0278579Y0136860D02*
X0278579Y0134633D01*
X0278579Y0141229D01*
X0265605Y0154203D01*
X0265605Y0193573D01*
X0265605Y0193709D01*
X0265605Y0194004D01*
X0276984Y0205384D01*
X0286827Y0205384D01*
X0288785Y0205393D02*
X0342860Y0205393D01*
X0343646Y0206179D02*
X0289571Y0206179D01*
X0290357Y0206965D02*
X0344432Y0206965D01*
X0345218Y0207751D02*
X0291143Y0207751D01*
X0291929Y0208537D02*
X0346004Y0208537D01*
X0346790Y0209323D02*
X0292715Y0209323D01*
X0294170Y0210109D02*
X0299245Y0210109D01*
X0300508Y0210109D02*
X0301295Y0210109D01*
X0301295Y0210895D02*
X0300508Y0210895D01*
X0300508Y0211681D02*
X0301295Y0211681D01*
X0301295Y0214039D02*
X0300508Y0214039D01*
X0300508Y0214824D02*
X0301295Y0214824D01*
X0301295Y0215610D02*
X0300508Y0215610D01*
X0300508Y0216396D02*
X0301295Y0216396D01*
X0299221Y0216396D02*
X0294196Y0216396D01*
X0295408Y0215610D02*
X0298243Y0215610D01*
X0297715Y0214824D02*
X0296001Y0214824D01*
X0296326Y0214039D02*
X0297444Y0214039D01*
X0297446Y0212467D02*
X0296322Y0212467D01*
X0295996Y0211681D02*
X0297720Y0211681D01*
X0298254Y0210895D02*
X0295397Y0210895D01*
X0290389Y0210895D02*
X0287523Y0210895D01*
X0288122Y0211681D02*
X0290059Y0211681D01*
X0289733Y0212467D02*
X0288448Y0212467D01*
X0288500Y0213253D02*
X0289681Y0213253D01*
X0289729Y0214039D02*
X0288452Y0214039D01*
X0288127Y0214824D02*
X0290054Y0214824D01*
X0290647Y0215610D02*
X0287534Y0215610D01*
X0286322Y0216396D02*
X0291860Y0216396D01*
X0283986Y0216396D02*
X0280257Y0216396D01*
X0280626Y0215610D02*
X0282773Y0215610D01*
X0282180Y0214824D02*
X0280626Y0214824D01*
X0280626Y0214039D02*
X0281855Y0214039D01*
X0281807Y0213253D02*
X0280626Y0213253D01*
X0280626Y0212467D02*
X0281859Y0212467D01*
X0282185Y0211681D02*
X0280626Y0211681D01*
X0280626Y0210895D02*
X0282784Y0210895D01*
X0275831Y0206179D02*
X0234760Y0206179D01*
X0234760Y0205393D02*
X0275045Y0205393D01*
X0274259Y0204608D02*
X0234760Y0204608D01*
X0234760Y0203822D02*
X0273473Y0203822D01*
X0272687Y0203036D02*
X0234760Y0203036D01*
X0234823Y0202250D02*
X0271902Y0202250D01*
X0271116Y0201464D02*
X0235609Y0201464D01*
X0236395Y0200678D02*
X0270330Y0200678D01*
X0269544Y0199892D02*
X0237181Y0199892D01*
X0237967Y0199106D02*
X0268758Y0199106D01*
X0267972Y0198320D02*
X0238752Y0198320D01*
X0239538Y0197534D02*
X0267186Y0197534D01*
X0266400Y0196748D02*
X0240324Y0196748D01*
X0241110Y0195963D02*
X0265614Y0195963D01*
X0264828Y0195177D02*
X0241896Y0195177D01*
X0242682Y0194391D02*
X0264227Y0194391D01*
X0264227Y0193605D02*
X0243468Y0193605D01*
X0244254Y0192819D02*
X0264227Y0192819D01*
X0264227Y0192033D02*
X0245040Y0192033D01*
X0245826Y0191247D02*
X0264227Y0191247D01*
X0264227Y0190461D02*
X0246612Y0190461D01*
X0247398Y0189675D02*
X0264227Y0189675D01*
X0264227Y0188889D02*
X0248183Y0188889D01*
X0248969Y0188103D02*
X0264227Y0188103D01*
X0264227Y0187317D02*
X0249755Y0187317D01*
X0250541Y0186532D02*
X0264227Y0186532D01*
X0264227Y0185746D02*
X0251327Y0185746D01*
X0252113Y0184960D02*
X0264227Y0184960D01*
X0264227Y0184174D02*
X0252899Y0184174D01*
X0253685Y0183388D02*
X0264227Y0183388D01*
X0264227Y0182602D02*
X0254471Y0182602D01*
X0255257Y0181816D02*
X0264227Y0181816D01*
X0264227Y0181030D02*
X0256043Y0181030D01*
X0256828Y0180244D02*
X0264227Y0180244D01*
X0272457Y0178672D02*
X0273909Y0178672D01*
X0274292Y0177887D02*
X0272457Y0177887D01*
X0272457Y0177101D02*
X0274961Y0177101D01*
X0263205Y0171919D02*
X0244504Y0190620D01*
X0243520Y0189636D02*
X0262220Y0170935D01*
X0262220Y0170915D01*
X0262614Y0170522D01*
X0262614Y0150856D01*
X0268579Y0144892D01*
X0268579Y0134633D01*
X0268579Y0137018D01*
X0283579Y0135797D02*
X0283579Y0134633D01*
X0283579Y0139734D01*
X0267142Y0156171D01*
X0267142Y0191604D01*
X0278953Y0203415D01*
X0342831Y0203415D01*
X0352673Y0213258D01*
X0355043Y0210895D02*
X0357899Y0210895D01*
X0357365Y0211681D02*
X0355642Y0211681D01*
X0355968Y0212467D02*
X0357092Y0212467D01*
X0358890Y0210109D02*
X0353816Y0210109D01*
X0351531Y0210109D02*
X0351473Y0210109D01*
X0350687Y0209323D02*
X0406435Y0209323D01*
X0405649Y0208537D02*
X0349901Y0208537D01*
X0349115Y0207751D02*
X0404864Y0207751D01*
X0404078Y0206965D02*
X0348329Y0206965D01*
X0347543Y0206179D02*
X0403292Y0206179D01*
X0402506Y0205393D02*
X0346758Y0205393D01*
X0345972Y0204608D02*
X0401720Y0204608D01*
X0400934Y0203822D02*
X0345186Y0203822D01*
X0344400Y0203036D02*
X0400148Y0203036D01*
X0400508Y0201447D02*
X0278953Y0201447D01*
X0269110Y0191604D01*
X0269110Y0158140D01*
X0288579Y0138671D01*
X0288579Y0134633D01*
X0288579Y0136703D01*
X0316354Y0124675D02*
X0330134Y0110896D01*
X0330134Y0073726D01*
X0329311Y0072904D01*
X0284858Y0072904D01*
X0283579Y0074183D01*
X0283579Y0095033D01*
X0288579Y0095033D02*
X0288579Y0077648D01*
X0290764Y0075463D01*
X0326197Y0075463D01*
X0328165Y0077431D01*
X0328165Y0109696D01*
X0314386Y0122491D01*
X0134483Y0122491D01*
X0106217Y0151742D01*
X0106217Y0179793D01*
X0109326Y0181030D02*
X0110981Y0181030D01*
X0110744Y0180459D02*
X0110744Y0179128D01*
X0111254Y0177898D01*
X0112195Y0176956D01*
X0113425Y0176447D01*
X0114756Y0176447D01*
X0115986Y0176956D01*
X0116928Y0177898D01*
X0117437Y0179128D01*
X0117437Y0180459D01*
X0116928Y0181689D01*
X0115986Y0182630D01*
X0114756Y0183140D01*
X0113425Y0183140D01*
X0112195Y0182630D01*
X0111254Y0181689D01*
X0110744Y0180459D01*
X0110744Y0180244D02*
X0109563Y0180244D01*
X0109563Y0179458D02*
X0110744Y0179458D01*
X0110933Y0178672D02*
X0109374Y0178672D01*
X0109042Y0177887D02*
X0111265Y0177887D01*
X0112051Y0177101D02*
X0108256Y0177101D01*
X0107594Y0176315D02*
X0157314Y0176315D01*
X0157594Y0176315D02*
X0158382Y0176315D01*
X0158382Y0176259D02*
X0159022Y0176386D01*
X0159667Y0176653D01*
X0160247Y0177041D01*
X0160740Y0177535D01*
X0161128Y0178115D01*
X0161395Y0178760D01*
X0161523Y0179400D01*
X0158382Y0179400D01*
X0158382Y0180187D01*
X0161523Y0180187D01*
X0161395Y0180827D01*
X0161128Y0181472D01*
X0160740Y0182052D01*
X0160247Y0182546D01*
X0159667Y0182933D01*
X0159022Y0183200D01*
X0158382Y0183328D01*
X0158382Y0180187D01*
X0157594Y0180187D01*
X0157594Y0179400D01*
X0154454Y0179400D01*
X0154581Y0178760D01*
X0154848Y0178115D01*
X0155236Y0177535D01*
X0155729Y0177041D01*
X0156310Y0176653D01*
X0156955Y0176386D01*
X0157594Y0176259D01*
X0157594Y0179400D01*
X0158382Y0179400D01*
X0158382Y0176259D01*
X0158662Y0176315D02*
X0164484Y0176315D01*
X0164484Y0175529D02*
X0107594Y0175529D01*
X0107594Y0174743D02*
X0164484Y0174743D01*
X0164484Y0173957D02*
X0107594Y0173957D01*
X0107594Y0173171D02*
X0164484Y0173171D01*
X0164484Y0172385D02*
X0107594Y0172385D01*
X0107594Y0171599D02*
X0164484Y0171599D01*
X0164484Y0170813D02*
X0107594Y0170813D01*
X0107594Y0170027D02*
X0164484Y0170027D01*
X0164484Y0169241D02*
X0107594Y0169241D01*
X0107594Y0168456D02*
X0164484Y0168456D01*
X0164484Y0167670D02*
X0107594Y0167670D01*
X0107594Y0166884D02*
X0164484Y0166884D01*
X0164484Y0166098D02*
X0107594Y0166098D01*
X0107594Y0165312D02*
X0164484Y0165312D01*
X0164484Y0164526D02*
X0107594Y0164526D01*
X0104839Y0164526D02*
X0048047Y0164526D01*
X0048047Y0165312D02*
X0104839Y0165312D01*
X0104839Y0166098D02*
X0048047Y0166098D01*
X0048047Y0166884D02*
X0104839Y0166884D01*
X0104839Y0167670D02*
X0048047Y0167670D01*
X0048047Y0168456D02*
X0104839Y0168456D01*
X0104839Y0169241D02*
X0048047Y0169241D01*
X0048047Y0170027D02*
X0104839Y0170027D01*
X0104839Y0170813D02*
X0048047Y0170813D01*
X0048047Y0171599D02*
X0104839Y0171599D01*
X0104839Y0172385D02*
X0048047Y0172385D01*
X0048047Y0173171D02*
X0104839Y0173171D01*
X0104839Y0173957D02*
X0048047Y0173957D01*
X0048047Y0174743D02*
X0104839Y0174743D01*
X0104839Y0175529D02*
X0048047Y0175529D01*
X0048047Y0176315D02*
X0097668Y0176315D01*
X0097949Y0176315D02*
X0098736Y0176315D01*
X0098736Y0176259D02*
X0099376Y0176386D01*
X0100021Y0176653D01*
X0100601Y0177041D01*
X0101095Y0177535D01*
X0101483Y0178115D01*
X0101750Y0178760D01*
X0101877Y0179400D01*
X0098736Y0179400D01*
X0098736Y0180187D01*
X0097949Y0180187D01*
X0097949Y0183328D01*
X0097309Y0183200D01*
X0096664Y0182933D01*
X0096084Y0182546D01*
X0095590Y0182052D01*
X0095202Y0181472D01*
X0094935Y0180827D01*
X0094808Y0180187D01*
X0097949Y0180187D01*
X0097949Y0179400D01*
X0094808Y0179400D01*
X0094935Y0178760D01*
X0095202Y0178115D01*
X0095590Y0177535D01*
X0096084Y0177041D01*
X0096664Y0176653D01*
X0097309Y0176386D01*
X0097949Y0176259D01*
X0097949Y0179400D01*
X0098736Y0179400D01*
X0098736Y0176259D01*
X0099017Y0176315D02*
X0104839Y0176315D01*
X0104177Y0177101D02*
X0100661Y0177101D01*
X0101330Y0177887D02*
X0103391Y0177887D01*
X0103059Y0178672D02*
X0101713Y0178672D01*
X0102870Y0179458D02*
X0098736Y0179458D01*
X0098736Y0180187D02*
X0101877Y0180187D01*
X0101750Y0180827D01*
X0101483Y0181472D01*
X0101095Y0182052D01*
X0100601Y0182546D01*
X0100021Y0182933D01*
X0099376Y0183200D01*
X0098736Y0183328D01*
X0098736Y0180187D01*
X0098736Y0180244D02*
X0097949Y0180244D01*
X0097949Y0179458D02*
X0065665Y0179458D01*
X0065665Y0178672D02*
X0094972Y0178672D01*
X0095355Y0177887D02*
X0065665Y0177887D01*
X0065665Y0177101D02*
X0096024Y0177101D01*
X0097949Y0177101D02*
X0098736Y0177101D01*
X0098736Y0177887D02*
X0097949Y0177887D01*
X0097949Y0178672D02*
X0098736Y0178672D01*
X0098736Y0181030D02*
X0097949Y0181030D01*
X0097949Y0181816D02*
X0098736Y0181816D01*
X0098736Y0182602D02*
X0097949Y0182602D01*
X0096168Y0182602D02*
X0065627Y0182602D01*
X0065665Y0182563D02*
X0065089Y0183140D01*
X0059549Y0183140D01*
X0058972Y0182563D01*
X0058972Y0177023D01*
X0059549Y0176447D01*
X0065089Y0176447D01*
X0065665Y0177023D01*
X0065665Y0182563D01*
X0065665Y0181816D02*
X0095433Y0181816D01*
X0095020Y0181030D02*
X0065665Y0181030D01*
X0065665Y0180244D02*
X0094820Y0180244D01*
X0100517Y0182602D02*
X0104293Y0182602D01*
X0103507Y0181816D02*
X0101252Y0181816D01*
X0101665Y0181030D02*
X0103107Y0181030D01*
X0102870Y0180244D02*
X0101866Y0180244D01*
X0108140Y0182602D02*
X0112167Y0182602D01*
X0111381Y0181816D02*
X0108926Y0181816D01*
X0116014Y0182602D02*
X0118657Y0182602D01*
X0118618Y0182563D02*
X0118618Y0177023D01*
X0119195Y0176447D01*
X0124734Y0176447D01*
X0125311Y0177023D01*
X0125311Y0182563D01*
X0124734Y0183140D01*
X0119195Y0183140D01*
X0118618Y0182563D01*
X0118618Y0181816D02*
X0116800Y0181816D01*
X0117200Y0181030D02*
X0118618Y0181030D01*
X0118618Y0180244D02*
X0117437Y0180244D01*
X0117437Y0179458D02*
X0118618Y0179458D01*
X0118618Y0178672D02*
X0117248Y0178672D01*
X0116916Y0177887D02*
X0118618Y0177887D01*
X0118618Y0177101D02*
X0116130Y0177101D01*
X0125311Y0177101D02*
X0155670Y0177101D01*
X0155001Y0177887D02*
X0125311Y0177887D01*
X0125311Y0178672D02*
X0154617Y0178672D01*
X0154454Y0180187D02*
X0157594Y0180187D01*
X0157594Y0183328D01*
X0156955Y0183200D01*
X0156310Y0182933D01*
X0155729Y0182546D01*
X0155236Y0182052D01*
X0154848Y0181472D01*
X0154581Y0180827D01*
X0154454Y0180187D01*
X0154465Y0180244D02*
X0125311Y0180244D01*
X0125311Y0179458D02*
X0157594Y0179458D01*
X0157594Y0178672D02*
X0158382Y0178672D01*
X0158382Y0177887D02*
X0157594Y0177887D01*
X0157594Y0177101D02*
X0158382Y0177101D01*
X0160306Y0177101D02*
X0163822Y0177101D01*
X0163036Y0177887D02*
X0160976Y0177887D01*
X0161359Y0178672D02*
X0162704Y0178672D01*
X0162516Y0179458D02*
X0158382Y0179458D01*
X0158382Y0180244D02*
X0157594Y0180244D01*
X0157594Y0181030D02*
X0158382Y0181030D01*
X0158382Y0181816D02*
X0157594Y0181816D01*
X0157594Y0182602D02*
X0158382Y0182602D01*
X0160162Y0182602D02*
X0163938Y0182602D01*
X0163152Y0181816D02*
X0160898Y0181816D01*
X0161311Y0181030D02*
X0162752Y0181030D01*
X0162516Y0180244D02*
X0161511Y0180244D01*
X0165862Y0179793D02*
X0165862Y0143278D01*
X0184465Y0124675D01*
X0316354Y0124675D01*
X0313922Y0120274D02*
X0324228Y0109967D01*
X0324228Y0081368D01*
X0320291Y0077431D01*
X0296669Y0077431D01*
X0293579Y0080522D01*
X0293579Y0095033D01*
X0298579Y0095033D02*
X0298694Y0095148D01*
X0312417Y0095148D01*
X0345882Y0077431D02*
X0345882Y0144360D01*
X0379346Y0150266D02*
X0379346Y0164045D01*
X0407603Y0178672D02*
X0409161Y0178672D01*
X0408972Y0179128D02*
X0409482Y0177898D01*
X0410423Y0176956D01*
X0411653Y0176447D01*
X0412985Y0176447D01*
X0414215Y0176956D01*
X0415156Y0177898D01*
X0415665Y0179128D01*
X0415665Y0180459D01*
X0415156Y0181689D01*
X0414215Y0182630D01*
X0412985Y0183140D01*
X0411653Y0183140D01*
X0410423Y0182630D01*
X0409482Y0181689D01*
X0408972Y0180459D01*
X0408972Y0179128D01*
X0408972Y0179458D02*
X0407791Y0179458D01*
X0407791Y0180244D02*
X0408972Y0180244D01*
X0409209Y0181030D02*
X0407555Y0181030D01*
X0407155Y0181816D02*
X0409609Y0181816D01*
X0410395Y0182602D02*
X0406369Y0182602D01*
X0408300Y0177887D02*
X0409493Y0177887D01*
X0409086Y0177101D02*
X0410279Y0177101D01*
X0409872Y0176315D02*
X0455542Y0176315D01*
X0455823Y0176315D02*
X0456610Y0176315D01*
X0456610Y0176259D02*
X0457250Y0176386D01*
X0457895Y0176653D01*
X0458475Y0177041D01*
X0458969Y0177535D01*
X0459357Y0178115D01*
X0459624Y0178760D01*
X0459751Y0179400D01*
X0456610Y0179400D01*
X0456610Y0180187D01*
X0455823Y0180187D01*
X0455823Y0183328D01*
X0455183Y0183200D01*
X0454538Y0182933D01*
X0453958Y0182546D01*
X0453464Y0182052D01*
X0453077Y0181472D01*
X0452809Y0180827D01*
X0452682Y0180187D01*
X0455823Y0180187D01*
X0455823Y0179400D01*
X0452682Y0179400D01*
X0452809Y0178760D01*
X0453077Y0178115D01*
X0453464Y0177535D01*
X0453958Y0177041D01*
X0454538Y0176653D01*
X0455183Y0176386D01*
X0455823Y0176259D01*
X0455823Y0179400D01*
X0456610Y0179400D01*
X0456610Y0176259D01*
X0456891Y0176315D02*
X0458663Y0176315D01*
X0458535Y0177101D02*
X0459449Y0177101D01*
X0459204Y0177887D02*
X0460235Y0177887D01*
X0459587Y0178672D02*
X0460933Y0178672D01*
X0460744Y0179458D02*
X0456610Y0179458D01*
X0456610Y0180187D02*
X0459751Y0180187D01*
X0459624Y0180827D01*
X0459357Y0181472D01*
X0458969Y0182052D01*
X0458475Y0182546D01*
X0457895Y0182933D01*
X0457250Y0183200D01*
X0456610Y0183328D01*
X0456610Y0180187D01*
X0456610Y0180244D02*
X0455823Y0180244D01*
X0455823Y0179458D02*
X0423539Y0179458D01*
X0423539Y0178672D02*
X0452846Y0178672D01*
X0453229Y0177887D02*
X0423539Y0177887D01*
X0423539Y0177101D02*
X0453898Y0177101D01*
X0455823Y0177101D02*
X0456610Y0177101D01*
X0456610Y0177887D02*
X0455823Y0177887D01*
X0455823Y0178672D02*
X0456610Y0178672D01*
X0456610Y0181030D02*
X0455823Y0181030D01*
X0455823Y0181816D02*
X0456610Y0181816D01*
X0456610Y0182602D02*
X0455823Y0182602D01*
X0454042Y0182602D02*
X0423501Y0182602D01*
X0423539Y0182563D02*
X0422963Y0183140D01*
X0417423Y0183140D01*
X0416846Y0182563D01*
X0416846Y0177023D01*
X0417423Y0176447D01*
X0422963Y0176447D01*
X0423539Y0177023D01*
X0423539Y0182563D01*
X0423539Y0181816D02*
X0453307Y0181816D01*
X0452894Y0181030D02*
X0423539Y0181030D01*
X0423539Y0180244D02*
X0452694Y0180244D01*
X0458391Y0182602D02*
X0462167Y0182602D01*
X0461381Y0181816D02*
X0459126Y0181816D01*
X0459539Y0181030D02*
X0460981Y0181030D01*
X0460744Y0180244D02*
X0459740Y0180244D01*
X0464091Y0179793D02*
X0438451Y0154154D01*
X0446875Y0164526D02*
X0421661Y0164526D01*
X0420875Y0165312D02*
X0447660Y0165312D01*
X0448446Y0166098D02*
X0420089Y0166098D01*
X0419303Y0166884D02*
X0449232Y0166884D01*
X0450018Y0167670D02*
X0418517Y0167670D01*
X0417731Y0168456D02*
X0450804Y0168456D01*
X0451590Y0169241D02*
X0416945Y0169241D01*
X0416159Y0170027D02*
X0452376Y0170027D01*
X0453162Y0170813D02*
X0415374Y0170813D01*
X0414588Y0171599D02*
X0453948Y0171599D01*
X0454734Y0172385D02*
X0413802Y0172385D01*
X0413016Y0173171D02*
X0455520Y0173171D01*
X0456305Y0173957D02*
X0412230Y0173957D01*
X0411444Y0174743D02*
X0457091Y0174743D01*
X0457877Y0175529D02*
X0410658Y0175529D01*
X0414359Y0177101D02*
X0416846Y0177101D01*
X0416846Y0177887D02*
X0415145Y0177887D01*
X0415477Y0178672D02*
X0416846Y0178672D01*
X0416846Y0179458D02*
X0415665Y0179458D01*
X0415665Y0180244D02*
X0416846Y0180244D01*
X0416846Y0181030D02*
X0415429Y0181030D01*
X0415029Y0181816D02*
X0416846Y0181816D01*
X0416885Y0182602D02*
X0414243Y0182602D01*
X0394397Y0182602D02*
X0363855Y0182602D01*
X0363894Y0181816D02*
X0393661Y0181816D01*
X0393248Y0181030D02*
X0363894Y0181030D01*
X0400508Y0201447D02*
X0412319Y0213258D01*
X0414688Y0210895D02*
X0417545Y0210895D01*
X0417011Y0211681D02*
X0415288Y0211681D01*
X0415613Y0212467D02*
X0416738Y0212467D01*
X0418536Y0210109D02*
X0413461Y0210109D01*
X0411176Y0210109D02*
X0411119Y0210109D01*
X0410333Y0209323D02*
X0466081Y0209323D01*
X0465295Y0208537D02*
X0409547Y0208537D01*
X0408761Y0207751D02*
X0464509Y0207751D01*
X0463723Y0206965D02*
X0407975Y0206965D01*
X0407189Y0206179D02*
X0462937Y0206179D01*
X0462151Y0205393D02*
X0406403Y0205393D01*
X0405617Y0204608D02*
X0461366Y0204608D01*
X0460580Y0203822D02*
X0404831Y0203822D01*
X0404045Y0203036D02*
X0459794Y0203036D01*
X0459008Y0202250D02*
X0403260Y0202250D01*
X0402474Y0201464D02*
X0458222Y0201464D01*
X0459563Y0210895D02*
X0461721Y0210895D01*
X0461122Y0211681D02*
X0459563Y0211681D01*
X0459563Y0212467D02*
X0460796Y0212467D01*
X0460744Y0213253D02*
X0459563Y0213253D01*
X0459563Y0214039D02*
X0460792Y0214039D01*
X0461117Y0214824D02*
X0459563Y0214824D01*
X0459563Y0215610D02*
X0461710Y0215610D01*
X0462923Y0216396D02*
X0459194Y0216396D01*
X0420587Y0216396D02*
X0419799Y0216396D01*
X0419799Y0215610D02*
X0420587Y0215610D01*
X0420587Y0214824D02*
X0419799Y0214824D01*
X0419799Y0214039D02*
X0420587Y0214039D01*
X0420587Y0211681D02*
X0419799Y0211681D01*
X0419799Y0210895D02*
X0420587Y0210895D01*
X0420587Y0210109D02*
X0419799Y0210109D01*
X0403277Y0216396D02*
X0399549Y0216396D01*
X0399917Y0215610D02*
X0402065Y0215610D01*
X0401472Y0214824D02*
X0399917Y0214824D01*
X0399917Y0214039D02*
X0401146Y0214039D01*
X0401098Y0213253D02*
X0399917Y0213253D01*
X0399917Y0212467D02*
X0401150Y0212467D01*
X0401476Y0211681D02*
X0399917Y0211681D01*
X0399917Y0210895D02*
X0402075Y0210895D01*
X0360941Y0210895D02*
X0360154Y0210895D01*
X0360154Y0211681D02*
X0360941Y0211681D01*
X0360941Y0212467D02*
X0360154Y0212467D01*
X0360154Y0214824D02*
X0360941Y0214824D01*
X0360941Y0215610D02*
X0360154Y0215610D01*
X0360154Y0216396D02*
X0360941Y0216396D01*
X0360941Y0210109D02*
X0360154Y0210109D01*
X0343631Y0216396D02*
X0339903Y0216396D01*
X0340272Y0215610D02*
X0342419Y0215610D01*
X0341826Y0214824D02*
X0340272Y0214824D01*
X0340272Y0214039D02*
X0341500Y0214039D01*
X0341453Y0213253D02*
X0340272Y0213253D01*
X0340272Y0212467D02*
X0341505Y0212467D01*
X0341830Y0211681D02*
X0340272Y0211681D01*
X0340272Y0210895D02*
X0342430Y0210895D01*
X0241650Y0210895D02*
X0240862Y0210895D01*
X0240862Y0211681D02*
X0241650Y0211681D01*
X0241650Y0210109D02*
X0240862Y0210109D01*
X0239599Y0210109D02*
X0234760Y0210109D01*
X0235751Y0210895D02*
X0238608Y0210895D01*
X0238074Y0211681D02*
X0236351Y0211681D01*
X0240862Y0214039D02*
X0241650Y0214039D01*
X0241650Y0214824D02*
X0240862Y0214824D01*
X0240862Y0215610D02*
X0241650Y0215610D01*
X0241650Y0216396D02*
X0240862Y0216396D01*
X0239575Y0216396D02*
X0234550Y0216396D01*
X0232214Y0216396D02*
X0226676Y0216396D01*
X0227888Y0215610D02*
X0231002Y0215610D01*
X0230409Y0214824D02*
X0228481Y0214824D01*
X0228807Y0214039D02*
X0230083Y0214039D01*
X0230035Y0213253D02*
X0228854Y0213253D01*
X0228802Y0212467D02*
X0230087Y0212467D01*
X0230413Y0211681D02*
X0228477Y0211681D01*
X0227877Y0210895D02*
X0231012Y0210895D01*
X0223138Y0210895D02*
X0220980Y0210895D01*
X0220980Y0211681D02*
X0222539Y0211681D01*
X0222213Y0212467D02*
X0220980Y0212467D01*
X0220980Y0213253D02*
X0222161Y0213253D01*
X0222209Y0214039D02*
X0220980Y0214039D01*
X0220980Y0214824D02*
X0222535Y0214824D01*
X0223128Y0215610D02*
X0220980Y0215610D01*
X0220612Y0216396D02*
X0224340Y0216396D01*
X0182004Y0216396D02*
X0181217Y0216396D01*
X0181217Y0215610D02*
X0182004Y0215610D01*
X0182004Y0214824D02*
X0181217Y0214824D01*
X0179929Y0216396D02*
X0174904Y0216396D01*
X0176116Y0215610D02*
X0178952Y0215610D01*
X0178424Y0214824D02*
X0176710Y0214824D01*
X0177035Y0214039D02*
X0178153Y0214039D01*
X0181217Y0212467D02*
X0182004Y0212467D01*
X0182004Y0211681D02*
X0181217Y0211681D01*
X0181217Y0210895D02*
X0182004Y0210895D01*
X0182004Y0210109D02*
X0181217Y0210109D01*
X0178559Y0189636D02*
X0243520Y0189636D01*
X0178303Y0182602D02*
X0175660Y0182602D01*
X0175632Y0182630D02*
X0174402Y0183140D01*
X0173071Y0183140D01*
X0171841Y0182630D01*
X0170899Y0181689D01*
X0170390Y0180459D01*
X0170390Y0179128D01*
X0170899Y0177898D01*
X0171841Y0176956D01*
X0173071Y0176447D01*
X0174402Y0176447D01*
X0175632Y0176956D01*
X0176573Y0177898D01*
X0177083Y0179128D01*
X0177083Y0180459D01*
X0176573Y0181689D01*
X0175632Y0182630D01*
X0176446Y0181816D02*
X0178264Y0181816D01*
X0178264Y0181030D02*
X0176846Y0181030D01*
X0177083Y0180244D02*
X0178264Y0180244D01*
X0178264Y0179458D02*
X0177083Y0179458D01*
X0176894Y0178672D02*
X0178264Y0178672D01*
X0178264Y0177887D02*
X0176562Y0177887D01*
X0175776Y0177101D02*
X0178264Y0177101D01*
X0171696Y0177101D02*
X0167902Y0177101D01*
X0168688Y0177887D02*
X0170910Y0177887D01*
X0170578Y0178672D02*
X0169020Y0178672D01*
X0169209Y0179458D02*
X0170390Y0179458D01*
X0170390Y0180244D02*
X0169209Y0180244D01*
X0168972Y0181030D02*
X0170626Y0181030D01*
X0171026Y0181816D02*
X0168572Y0181816D01*
X0167786Y0182602D02*
X0171812Y0182602D01*
X0155814Y0182602D02*
X0125272Y0182602D01*
X0125311Y0181816D02*
X0155078Y0181816D01*
X0154665Y0181030D02*
X0125311Y0181030D01*
X0119874Y0187317D02*
X0060779Y0187317D01*
X0059993Y0188103D02*
X0119088Y0188103D01*
X0118302Y0188889D02*
X0059207Y0188889D01*
X0058421Y0189675D02*
X0117516Y0189675D01*
X0116730Y0190461D02*
X0057635Y0190461D01*
X0056849Y0191247D02*
X0115944Y0191247D01*
X0115158Y0192033D02*
X0056063Y0192033D01*
X0055921Y0192819D02*
X0114372Y0192819D01*
X0113586Y0193605D02*
X0055921Y0193605D01*
X0055921Y0194391D02*
X0112800Y0194391D01*
X0112713Y0195177D02*
X0055921Y0195177D01*
X0055921Y0195963D02*
X0112713Y0195963D01*
X0112713Y0196748D02*
X0055921Y0196748D01*
X0055921Y0197534D02*
X0112713Y0197534D01*
X0112713Y0198320D02*
X0055921Y0198320D01*
X0055921Y0199106D02*
X0112713Y0199106D01*
X0112713Y0199892D02*
X0055921Y0199892D01*
X0055921Y0200678D02*
X0112713Y0200678D01*
X0112713Y0201464D02*
X0055921Y0201464D01*
X0055921Y0202250D02*
X0112713Y0202250D01*
X0112713Y0203036D02*
X0055921Y0203036D01*
X0055921Y0203822D02*
X0112713Y0203822D01*
X0112713Y0204608D02*
X0055921Y0204608D01*
X0055921Y0205393D02*
X0112713Y0205393D01*
X0112713Y0206179D02*
X0055921Y0206179D01*
X0055921Y0206965D02*
X0112713Y0206965D01*
X0112713Y0207751D02*
X0055921Y0207751D01*
X0055921Y0208537D02*
X0112713Y0208537D01*
X0112713Y0209323D02*
X0055921Y0209323D01*
X0055921Y0210109D02*
X0060662Y0210109D01*
X0060641Y0210118D02*
X0061285Y0209851D01*
X0061925Y0209723D01*
X0061925Y0212864D01*
X0058784Y0212864D01*
X0058912Y0212224D01*
X0059179Y0211579D01*
X0059567Y0210999D01*
X0060060Y0210506D01*
X0060641Y0210118D01*
X0059671Y0210895D02*
X0056814Y0210895D01*
X0057414Y0211681D02*
X0059137Y0211681D01*
X0058864Y0212467D02*
X0057739Y0212467D01*
X0057791Y0213253D02*
X0061925Y0213253D01*
X0061925Y0212864D02*
X0061925Y0213652D01*
X0061925Y0216792D01*
X0061285Y0216665D01*
X0060641Y0216398D01*
X0060060Y0216010D01*
X0059567Y0215517D01*
X0059179Y0214936D01*
X0058912Y0214291D01*
X0058784Y0213652D01*
X0061925Y0213652D01*
X0062713Y0213652D01*
X0062713Y0216792D01*
X0063352Y0216665D01*
X0063997Y0216398D01*
X0064578Y0216010D01*
X0065071Y0215517D01*
X0065459Y0214936D01*
X0065726Y0214291D01*
X0065853Y0213652D01*
X0062713Y0213652D01*
X0062713Y0212864D01*
X0065853Y0212864D01*
X0065726Y0212224D01*
X0065459Y0211579D01*
X0065071Y0210999D01*
X0064578Y0210506D01*
X0063997Y0210118D01*
X0063352Y0209851D01*
X0062713Y0209723D01*
X0062713Y0212864D01*
X0061925Y0212864D01*
X0061925Y0212467D02*
X0062713Y0212467D01*
X0062713Y0213253D02*
X0094996Y0213253D01*
X0094996Y0214039D02*
X0065776Y0214039D01*
X0065505Y0214824D02*
X0094996Y0214824D01*
X0094996Y0215610D02*
X0064977Y0215610D01*
X0064000Y0216396D02*
X0095365Y0216396D01*
X0095573Y0216604D02*
X0094996Y0216028D01*
X0094996Y0210488D01*
X0095573Y0209911D01*
X0101112Y0209911D01*
X0101689Y0210488D01*
X0101689Y0216028D01*
X0101112Y0216604D01*
X0095573Y0216604D01*
X0094996Y0212467D02*
X0065774Y0212467D01*
X0065501Y0211681D02*
X0094996Y0211681D01*
X0094996Y0210895D02*
X0064967Y0210895D01*
X0063976Y0210109D02*
X0095375Y0210109D01*
X0101310Y0210109D02*
X0105074Y0210109D01*
X0105551Y0209911D02*
X0106882Y0209911D01*
X0108112Y0210421D01*
X0109054Y0211362D01*
X0109563Y0212592D01*
X0109563Y0213924D01*
X0109054Y0215153D01*
X0108112Y0216095D01*
X0106882Y0216604D01*
X0105551Y0216604D01*
X0104321Y0216095D01*
X0103380Y0215153D01*
X0102870Y0213924D01*
X0102870Y0212592D01*
X0103380Y0211362D01*
X0104321Y0210421D01*
X0105551Y0209911D01*
X0107359Y0210109D02*
X0112713Y0210109D01*
X0111721Y0210895D02*
X0108586Y0210895D01*
X0109185Y0211681D02*
X0111122Y0211681D01*
X0110796Y0212467D02*
X0109511Y0212467D01*
X0109563Y0213253D02*
X0110744Y0213253D01*
X0110792Y0214039D02*
X0109515Y0214039D01*
X0109190Y0214824D02*
X0111117Y0214824D01*
X0111710Y0215610D02*
X0108597Y0215610D01*
X0107384Y0216396D02*
X0112923Y0216396D01*
X0115259Y0216396D02*
X0120284Y0216396D01*
X0119306Y0215610D02*
X0116471Y0215610D01*
X0117064Y0214824D02*
X0118778Y0214824D01*
X0118507Y0214039D02*
X0117389Y0214039D01*
X0117385Y0212467D02*
X0118509Y0212467D01*
X0118783Y0211681D02*
X0117059Y0211681D01*
X0116460Y0210895D02*
X0119317Y0210895D01*
X0120308Y0210109D02*
X0115468Y0210109D01*
X0121571Y0210109D02*
X0122358Y0210109D01*
X0122358Y0210895D02*
X0121571Y0210895D01*
X0121571Y0211681D02*
X0122358Y0211681D01*
X0122358Y0214039D02*
X0121571Y0214039D01*
X0121571Y0214824D02*
X0122358Y0214824D01*
X0122358Y0215610D02*
X0121571Y0215610D01*
X0121571Y0216396D02*
X0122358Y0216396D01*
X0105049Y0216396D02*
X0101320Y0216396D01*
X0101689Y0215610D02*
X0103836Y0215610D01*
X0103243Y0214824D02*
X0101689Y0214824D01*
X0101689Y0214039D02*
X0102918Y0214039D01*
X0102870Y0213253D02*
X0101689Y0213253D01*
X0101689Y0212467D02*
X0102922Y0212467D01*
X0103248Y0211681D02*
X0101689Y0211681D01*
X0101689Y0210895D02*
X0103847Y0210895D01*
X0062713Y0210895D02*
X0061925Y0210895D01*
X0061925Y0211681D02*
X0062713Y0211681D01*
X0062713Y0210109D02*
X0061925Y0210109D01*
X0061925Y0214039D02*
X0062713Y0214039D01*
X0062713Y0214824D02*
X0061925Y0214824D01*
X0061925Y0215610D02*
X0062713Y0215610D01*
X0062713Y0216396D02*
X0061925Y0216396D01*
X0060638Y0216396D02*
X0055613Y0216396D01*
X0056825Y0215610D02*
X0059660Y0215610D01*
X0059133Y0214824D02*
X0057418Y0214824D01*
X0057744Y0214039D02*
X0058861Y0214039D01*
X0054543Y0213159D02*
X0054543Y0191604D01*
X0060449Y0185699D01*
X0059011Y0182602D02*
X0056369Y0182602D01*
X0056340Y0182630D02*
X0055111Y0183140D01*
X0053779Y0183140D01*
X0052549Y0182630D01*
X0051608Y0181689D01*
X0051098Y0180459D01*
X0051098Y0179128D01*
X0051608Y0177898D01*
X0052549Y0176956D01*
X0053779Y0176447D01*
X0055111Y0176447D01*
X0056340Y0176956D01*
X0057282Y0177898D01*
X0057791Y0179128D01*
X0057791Y0180459D01*
X0057282Y0181689D01*
X0056340Y0182630D01*
X0057155Y0181816D02*
X0058972Y0181816D01*
X0058972Y0181030D02*
X0057555Y0181030D01*
X0057791Y0180244D02*
X0058972Y0180244D01*
X0058972Y0179458D02*
X0057791Y0179458D01*
X0057603Y0178672D02*
X0058972Y0178672D01*
X0058972Y0177887D02*
X0057271Y0177887D01*
X0056485Y0177101D02*
X0058972Y0177101D01*
X0052405Y0177101D02*
X0048611Y0177101D01*
X0049397Y0177887D02*
X0051619Y0177887D01*
X0051287Y0178672D02*
X0049729Y0178672D01*
X0049917Y0179458D02*
X0051098Y0179458D01*
X0051098Y0180244D02*
X0049917Y0180244D01*
X0049681Y0181030D02*
X0051335Y0181030D01*
X0051735Y0181816D02*
X0049281Y0181816D01*
X0048495Y0182602D02*
X0052521Y0182602D01*
X0046669Y0179695D02*
X0046669Y0160108D01*
X0084535Y0120274D01*
X0313922Y0120274D01*
X0253579Y0134633D02*
X0253579Y0138238D01*
X0245488Y0146329D01*
X0235646Y0146329D01*
X0231709Y0142392D02*
X0243520Y0142392D01*
X0248579Y0137333D01*
X0248579Y0134633D01*
X0243579Y0134633D02*
X0238209Y0140003D01*
X0230719Y0140003D01*
X0227897Y0142825D01*
X0227897Y0160108D01*
X0182496Y0158140D02*
X0182496Y0164045D01*
X0210055Y0112864D02*
X0206118Y0108927D01*
X0206118Y0103022D01*
X0210646Y0103022D01*
X0206118Y0103022D02*
X0178953Y0103022D01*
X0170685Y0106762D02*
X0164976Y0106762D01*
X0164780Y0106959D01*
X0163008Y0099281D02*
X0138028Y0074301D01*
X0123894Y0074301D01*
X0123894Y0072333D02*
X0141965Y0072333D01*
X0153165Y0083533D01*
X0166748Y0083533D01*
X0166748Y0081368D01*
X0168717Y0079400D01*
X0187024Y0079400D01*
X0189583Y0075266D02*
X0193717Y0079400D01*
X0189583Y0075266D02*
X0170685Y0075266D01*
X0170488Y0075463D01*
X0164780Y0075463D01*
X0166748Y0083533D02*
X0170685Y0083533D01*
X0178953Y0087274D02*
X0204150Y0087274D01*
X0204150Y0091211D01*
X0206118Y0093179D01*
X0233677Y0093179D01*
X0223835Y0087274D02*
X0217339Y0087274D01*
X0210646Y0087274D02*
X0204150Y0087274D01*
X0193717Y0095148D02*
X0189583Y0091014D01*
X0170685Y0091014D01*
X0170488Y0091211D01*
X0164780Y0091211D01*
X0168717Y0095148D02*
X0166748Y0097116D01*
X0166748Y0099281D01*
X0170685Y0099281D01*
X0166748Y0099281D02*
X0163008Y0099281D01*
X0168717Y0095148D02*
X0187024Y0095148D01*
X0217339Y0103022D02*
X0223835Y0103022D01*
X0217929Y0112864D02*
X0210055Y0112864D01*
X0129346Y0079400D02*
X0124425Y0079400D01*
X0120488Y0075463D01*
X0110823Y0075463D01*
X0095882Y0075463D01*
X0093913Y0077431D01*
X0062984Y0077431D01*
X0037110Y0103305D01*
X0044394Y0103305D01*
X0048638Y0107549D01*
X0048638Y0114242D02*
X0048638Y0120738D01*
X0042732Y0124675D02*
X0046669Y0128612D01*
X0046669Y0134754D01*
X0046669Y0154203D01*
X0038795Y0162077D01*
X0038795Y0164045D01*
X0045291Y0164526D02*
X0005331Y0164526D01*
X0005331Y0165312D02*
X0045291Y0165312D01*
X0045291Y0166098D02*
X0005331Y0166098D01*
X0005331Y0166884D02*
X0045291Y0166884D01*
X0045291Y0167670D02*
X0005331Y0167670D01*
X0005331Y0168456D02*
X0045291Y0168456D01*
X0045291Y0169241D02*
X0005331Y0169241D01*
X0005331Y0170027D02*
X0045291Y0170027D01*
X0045291Y0170813D02*
X0005331Y0170813D01*
X0005331Y0171599D02*
X0045291Y0171599D01*
X0045291Y0172385D02*
X0005331Y0172385D01*
X0005331Y0173171D02*
X0045291Y0173171D01*
X0045291Y0173957D02*
X0005331Y0173957D01*
X0005331Y0174743D02*
X0045291Y0174743D01*
X0045291Y0175529D02*
X0005331Y0175529D01*
X0005331Y0176315D02*
X0038023Y0176315D01*
X0038303Y0176315D02*
X0039091Y0176315D01*
X0039091Y0176259D02*
X0039730Y0176386D01*
X0040375Y0176653D01*
X0040956Y0177041D01*
X0041449Y0177535D01*
X0041837Y0178115D01*
X0042104Y0178760D01*
X0042231Y0179400D01*
X0039091Y0179400D01*
X0039091Y0180187D01*
X0042231Y0180187D01*
X0042104Y0180827D01*
X0041837Y0181472D01*
X0041449Y0182052D01*
X0040956Y0182546D01*
X0040375Y0182933D01*
X0039730Y0183200D01*
X0039091Y0183328D01*
X0039091Y0180187D01*
X0038303Y0180187D01*
X0038303Y0179400D01*
X0035162Y0179400D01*
X0035290Y0178760D01*
X0035557Y0178115D01*
X0035945Y0177535D01*
X0036438Y0177041D01*
X0037018Y0176653D01*
X0037663Y0176386D01*
X0038303Y0176259D01*
X0038303Y0179400D01*
X0039091Y0179400D01*
X0039091Y0176259D01*
X0039371Y0176315D02*
X0045291Y0176315D01*
X0044531Y0177101D02*
X0041015Y0177101D01*
X0041684Y0177887D02*
X0043745Y0177887D01*
X0043413Y0178672D02*
X0042068Y0178672D01*
X0043224Y0179458D02*
X0039091Y0179458D01*
X0039091Y0178672D02*
X0038303Y0178672D01*
X0038303Y0177887D02*
X0039091Y0177887D01*
X0039091Y0177101D02*
X0038303Y0177101D01*
X0036379Y0177101D02*
X0005331Y0177101D01*
X0005331Y0177887D02*
X0035709Y0177887D01*
X0035326Y0178672D02*
X0005331Y0178672D01*
X0005331Y0179458D02*
X0038303Y0179458D01*
X0038303Y0180187D02*
X0035162Y0180187D01*
X0035290Y0180827D01*
X0035557Y0181472D01*
X0035945Y0182052D01*
X0036438Y0182546D01*
X0037018Y0182933D01*
X0037663Y0183200D01*
X0038303Y0183328D01*
X0038303Y0180187D01*
X0038303Y0180244D02*
X0039091Y0180244D01*
X0039091Y0181030D02*
X0038303Y0181030D01*
X0038303Y0181816D02*
X0039091Y0181816D01*
X0039091Y0182602D02*
X0038303Y0182602D01*
X0036523Y0182602D02*
X0005331Y0182602D01*
X0005331Y0181816D02*
X0035787Y0181816D01*
X0035374Y0181030D02*
X0005331Y0181030D01*
X0005331Y0180244D02*
X0035174Y0180244D01*
X0040871Y0182602D02*
X0044647Y0182602D01*
X0043861Y0181816D02*
X0041607Y0181816D01*
X0042020Y0181030D02*
X0043461Y0181030D01*
X0043224Y0180244D02*
X0042220Y0180244D01*
X0046571Y0179793D02*
X0046669Y0179695D01*
X0048940Y0210895D02*
X0052075Y0210895D01*
X0051476Y0211681D02*
X0049540Y0211681D01*
X0049865Y0212467D02*
X0051150Y0212467D01*
X0051098Y0213253D02*
X0049917Y0213253D01*
X0049870Y0214039D02*
X0051146Y0214039D01*
X0051472Y0214824D02*
X0049544Y0214824D01*
X0048951Y0215610D02*
X0052065Y0215610D01*
X0053277Y0216396D02*
X0047739Y0216396D01*
X0045403Y0216396D02*
X0041675Y0216396D01*
X0042043Y0215610D02*
X0044191Y0215610D01*
X0043598Y0214824D02*
X0042043Y0214824D01*
X0042043Y0214039D02*
X0043272Y0214039D01*
X0043224Y0213253D02*
X0042043Y0213253D01*
X0042043Y0212467D02*
X0043276Y0212467D01*
X0043602Y0211681D02*
X0042043Y0211681D01*
X0042043Y0210895D02*
X0044201Y0210895D01*
X0054445Y0213258D02*
X0054543Y0213159D01*
X0020842Y0217968D02*
X0497694Y0217968D01*
X0498299Y0218754D02*
X0020236Y0218754D01*
X0019450Y0219540D02*
X0499085Y0219540D01*
X0499871Y0220326D02*
X0018664Y0220326D01*
X0017392Y0221112D02*
X0501144Y0221112D01*
X0513205Y0182602D02*
X0483146Y0182602D01*
X0483185Y0182563D02*
X0482608Y0183140D01*
X0477069Y0183140D01*
X0476492Y0182563D01*
X0476492Y0177023D01*
X0477069Y0176447D01*
X0482608Y0176447D01*
X0483185Y0177023D01*
X0483185Y0182563D01*
X0483185Y0181816D02*
X0513205Y0181816D01*
X0513205Y0181030D02*
X0483185Y0181030D01*
X0483185Y0180244D02*
X0513205Y0180244D01*
X0513205Y0179458D02*
X0483185Y0179458D01*
X0483185Y0178672D02*
X0513205Y0178672D01*
X0513205Y0177887D02*
X0483185Y0177887D01*
X0483185Y0177101D02*
X0513205Y0177101D01*
X0513205Y0176315D02*
X0462561Y0176315D01*
X0461775Y0175529D02*
X0513205Y0175529D01*
X0513205Y0174743D02*
X0460989Y0174743D01*
X0460203Y0173957D02*
X0513205Y0173957D01*
X0513205Y0173171D02*
X0459417Y0173171D01*
X0458631Y0172385D02*
X0513205Y0172385D01*
X0513205Y0171599D02*
X0457845Y0171599D01*
X0457059Y0170813D02*
X0513205Y0170813D01*
X0513205Y0170027D02*
X0456273Y0170027D01*
X0455487Y0169241D02*
X0513205Y0169241D01*
X0513205Y0168456D02*
X0454702Y0168456D01*
X0453916Y0167670D02*
X0513205Y0167670D01*
X0513205Y0166884D02*
X0453130Y0166884D01*
X0452344Y0166098D02*
X0513205Y0166098D01*
X0513205Y0165312D02*
X0451558Y0165312D01*
X0450772Y0164526D02*
X0513205Y0164526D01*
X0511236Y0164045D02*
X0511236Y0095148D01*
X0485646Y0069557D01*
X0476787Y0069557D01*
X0476787Y0063258D01*
X0463402Y0049872D01*
X0467850Y0045423D01*
X0467850Y0020344D01*
X0452260Y0020344D02*
X0452260Y0049872D01*
X0456709Y0049872D01*
X0452260Y0049872D02*
X0452260Y0063140D01*
X0456709Y0069557D01*
X0463402Y0069557D02*
X0470882Y0069557D01*
X0471299Y0176447D02*
X0472630Y0176447D01*
X0473860Y0176956D01*
X0474802Y0177898D01*
X0475311Y0179128D01*
X0475311Y0180459D01*
X0474802Y0181689D01*
X0473860Y0182630D01*
X0472630Y0183140D01*
X0471299Y0183140D01*
X0470069Y0182630D01*
X0469128Y0181689D01*
X0468618Y0180459D01*
X0468618Y0179128D01*
X0469128Y0177898D01*
X0470069Y0176956D01*
X0471299Y0176447D01*
X0469925Y0177101D02*
X0466130Y0177101D01*
X0466916Y0177887D02*
X0469139Y0177887D01*
X0468807Y0178672D02*
X0467248Y0178672D01*
X0467437Y0179458D02*
X0468618Y0179458D01*
X0468618Y0180244D02*
X0467437Y0180244D01*
X0467200Y0181030D02*
X0468855Y0181030D01*
X0469255Y0181816D02*
X0466800Y0181816D01*
X0466014Y0182602D02*
X0470041Y0182602D01*
X0473888Y0182602D02*
X0476531Y0182602D01*
X0476492Y0181816D02*
X0474674Y0181816D01*
X0475074Y0181030D02*
X0476492Y0181030D01*
X0476492Y0180244D02*
X0475311Y0180244D01*
X0475311Y0179458D02*
X0476492Y0179458D01*
X0476492Y0178672D02*
X0475122Y0178672D01*
X0474790Y0177887D02*
X0476492Y0177887D01*
X0476492Y0177101D02*
X0474004Y0177101D01*
X0204150Y0071526D02*
X0178953Y0071526D01*
X0170685Y0052037D02*
X0166748Y0052037D01*
X0129346Y0061683D02*
X0128185Y0060522D01*
X0123894Y0060522D01*
X0123894Y0062490D02*
X0118697Y0062490D01*
X0118520Y0062667D01*
X0110823Y0054970D01*
X0118520Y0062667D02*
X0117535Y0063652D01*
X0117535Y0066781D01*
X0110823Y0073494D01*
X0110823Y0075463D01*
X0110823Y0079852D01*
X0110823Y0084498D01*
X0111630Y0085305D01*
X0111630Y0087274D01*
X0109661Y0089242D01*
X0105134Y0089242D01*
X0109661Y0089242D02*
X0116157Y0089242D01*
X0117929Y0094163D02*
X0122850Y0089242D01*
X0117929Y0094163D02*
X0110646Y0094163D01*
X0110350Y0093868D01*
X0103067Y0093868D01*
X0098441Y0089242D01*
X0102378Y0085305D01*
X0107693Y0085305D01*
X0108854Y0084144D01*
X0108854Y0079852D01*
X0110823Y0073494D02*
X0110823Y0073461D01*
X0099465Y0089242D02*
X0098441Y0089242D01*
X0037110Y0103305D02*
X0036630Y0103785D01*
X0036630Y0114069D02*
X0036630Y0124281D01*
X0036236Y0124675D01*
X0042732Y0124675D01*
X0032890Y0132549D02*
X0035094Y0134754D01*
X0039976Y0134754D01*
X0039740Y0134518D01*
X0032890Y0132549D02*
X0032890Y0114069D01*
X0029150Y0114069D02*
X0029150Y0124281D01*
X0029543Y0124675D01*
X0034858Y0065620D02*
X0039780Y0065620D01*
X0217339Y0024281D02*
X0223835Y0024281D01*
D11*
X0005725Y0014439D02*
X0005727Y0014623D01*
X0005734Y0014806D01*
X0005745Y0014989D01*
X0005761Y0015172D01*
X0005781Y0015355D01*
X0005806Y0015537D01*
X0005835Y0015718D01*
X0005869Y0015898D01*
X0005907Y0016078D01*
X0005949Y0016256D01*
X0005996Y0016434D01*
X0006047Y0016610D01*
X0006103Y0016785D01*
X0006162Y0016959D01*
X0006226Y0017131D01*
X0006294Y0017301D01*
X0006367Y0017470D01*
X0006443Y0017637D01*
X0006524Y0017802D01*
X0006608Y0017965D01*
X0006697Y0018126D01*
X0006789Y0018284D01*
X0006885Y0018441D01*
X0006986Y0018595D01*
X0007089Y0018746D01*
X0007197Y0018895D01*
X0007308Y0019041D01*
X0007423Y0019184D01*
X0007541Y0019325D01*
X0007663Y0019462D01*
X0007788Y0019597D01*
X0007916Y0019728D01*
X0008047Y0019856D01*
X0008182Y0019981D01*
X0008319Y0020103D01*
X0008460Y0020221D01*
X0008603Y0020336D01*
X0008749Y0020447D01*
X0008898Y0020555D01*
X0009049Y0020658D01*
X0009203Y0020759D01*
X0009360Y0020855D01*
X0009518Y0020947D01*
X0009679Y0021036D01*
X0009842Y0021120D01*
X0010007Y0021201D01*
X0010174Y0021277D01*
X0010343Y0021350D01*
X0010513Y0021418D01*
X0010685Y0021482D01*
X0010859Y0021541D01*
X0011034Y0021597D01*
X0011210Y0021648D01*
X0011388Y0021695D01*
X0011566Y0021737D01*
X0011746Y0021775D01*
X0011926Y0021809D01*
X0012107Y0021838D01*
X0012289Y0021863D01*
X0012472Y0021883D01*
X0012655Y0021899D01*
X0012838Y0021910D01*
X0013021Y0021917D01*
X0013205Y0021919D01*
X0013389Y0021917D01*
X0013572Y0021910D01*
X0013755Y0021899D01*
X0013938Y0021883D01*
X0014121Y0021863D01*
X0014303Y0021838D01*
X0014484Y0021809D01*
X0014664Y0021775D01*
X0014844Y0021737D01*
X0015022Y0021695D01*
X0015200Y0021648D01*
X0015376Y0021597D01*
X0015551Y0021541D01*
X0015725Y0021482D01*
X0015897Y0021418D01*
X0016067Y0021350D01*
X0016236Y0021277D01*
X0016403Y0021201D01*
X0016568Y0021120D01*
X0016731Y0021036D01*
X0016892Y0020947D01*
X0017050Y0020855D01*
X0017207Y0020759D01*
X0017361Y0020658D01*
X0017512Y0020555D01*
X0017661Y0020447D01*
X0017807Y0020336D01*
X0017950Y0020221D01*
X0018091Y0020103D01*
X0018228Y0019981D01*
X0018363Y0019856D01*
X0018494Y0019728D01*
X0018622Y0019597D01*
X0018747Y0019462D01*
X0018869Y0019325D01*
X0018987Y0019184D01*
X0019102Y0019041D01*
X0019213Y0018895D01*
X0019321Y0018746D01*
X0019424Y0018595D01*
X0019525Y0018441D01*
X0019621Y0018284D01*
X0019713Y0018126D01*
X0019802Y0017965D01*
X0019886Y0017802D01*
X0019967Y0017637D01*
X0020043Y0017470D01*
X0020116Y0017301D01*
X0020184Y0017131D01*
X0020248Y0016959D01*
X0020307Y0016785D01*
X0020363Y0016610D01*
X0020414Y0016434D01*
X0020461Y0016256D01*
X0020503Y0016078D01*
X0020541Y0015898D01*
X0020575Y0015718D01*
X0020604Y0015537D01*
X0020629Y0015355D01*
X0020649Y0015172D01*
X0020665Y0014989D01*
X0020676Y0014806D01*
X0020683Y0014623D01*
X0020685Y0014439D01*
X0020683Y0014255D01*
X0020676Y0014072D01*
X0020665Y0013889D01*
X0020649Y0013706D01*
X0020629Y0013523D01*
X0020604Y0013341D01*
X0020575Y0013160D01*
X0020541Y0012980D01*
X0020503Y0012800D01*
X0020461Y0012622D01*
X0020414Y0012444D01*
X0020363Y0012268D01*
X0020307Y0012093D01*
X0020248Y0011919D01*
X0020184Y0011747D01*
X0020116Y0011577D01*
X0020043Y0011408D01*
X0019967Y0011241D01*
X0019886Y0011076D01*
X0019802Y0010913D01*
X0019713Y0010752D01*
X0019621Y0010594D01*
X0019525Y0010437D01*
X0019424Y0010283D01*
X0019321Y0010132D01*
X0019213Y0009983D01*
X0019102Y0009837D01*
X0018987Y0009694D01*
X0018869Y0009553D01*
X0018747Y0009416D01*
X0018622Y0009281D01*
X0018494Y0009150D01*
X0018363Y0009022D01*
X0018228Y0008897D01*
X0018091Y0008775D01*
X0017950Y0008657D01*
X0017807Y0008542D01*
X0017661Y0008431D01*
X0017512Y0008323D01*
X0017361Y0008220D01*
X0017207Y0008119D01*
X0017050Y0008023D01*
X0016892Y0007931D01*
X0016731Y0007842D01*
X0016568Y0007758D01*
X0016403Y0007677D01*
X0016236Y0007601D01*
X0016067Y0007528D01*
X0015897Y0007460D01*
X0015725Y0007396D01*
X0015551Y0007337D01*
X0015376Y0007281D01*
X0015200Y0007230D01*
X0015022Y0007183D01*
X0014844Y0007141D01*
X0014664Y0007103D01*
X0014484Y0007069D01*
X0014303Y0007040D01*
X0014121Y0007015D01*
X0013938Y0006995D01*
X0013755Y0006979D01*
X0013572Y0006968D01*
X0013389Y0006961D01*
X0013205Y0006959D01*
X0013021Y0006961D01*
X0012838Y0006968D01*
X0012655Y0006979D01*
X0012472Y0006995D01*
X0012289Y0007015D01*
X0012107Y0007040D01*
X0011926Y0007069D01*
X0011746Y0007103D01*
X0011566Y0007141D01*
X0011388Y0007183D01*
X0011210Y0007230D01*
X0011034Y0007281D01*
X0010859Y0007337D01*
X0010685Y0007396D01*
X0010513Y0007460D01*
X0010343Y0007528D01*
X0010174Y0007601D01*
X0010007Y0007677D01*
X0009842Y0007758D01*
X0009679Y0007842D01*
X0009518Y0007931D01*
X0009360Y0008023D01*
X0009203Y0008119D01*
X0009049Y0008220D01*
X0008898Y0008323D01*
X0008749Y0008431D01*
X0008603Y0008542D01*
X0008460Y0008657D01*
X0008319Y0008775D01*
X0008182Y0008897D01*
X0008047Y0009022D01*
X0007916Y0009150D01*
X0007788Y0009281D01*
X0007663Y0009416D01*
X0007541Y0009553D01*
X0007423Y0009694D01*
X0007308Y0009837D01*
X0007197Y0009983D01*
X0007089Y0010132D01*
X0006986Y0010283D01*
X0006885Y0010437D01*
X0006789Y0010594D01*
X0006697Y0010752D01*
X0006608Y0010913D01*
X0006524Y0011076D01*
X0006443Y0011241D01*
X0006367Y0011408D01*
X0006294Y0011577D01*
X0006226Y0011747D01*
X0006162Y0011919D01*
X0006103Y0012093D01*
X0006047Y0012268D01*
X0005996Y0012444D01*
X0005949Y0012622D01*
X0005907Y0012800D01*
X0005869Y0012980D01*
X0005835Y0013160D01*
X0005806Y0013341D01*
X0005781Y0013523D01*
X0005761Y0013706D01*
X0005745Y0013889D01*
X0005734Y0014072D01*
X0005727Y0014255D01*
X0005725Y0014439D01*
X0005725Y0213258D02*
X0005727Y0213442D01*
X0005734Y0213625D01*
X0005745Y0213808D01*
X0005761Y0213991D01*
X0005781Y0214174D01*
X0005806Y0214356D01*
X0005835Y0214537D01*
X0005869Y0214717D01*
X0005907Y0214897D01*
X0005949Y0215075D01*
X0005996Y0215253D01*
X0006047Y0215429D01*
X0006103Y0215604D01*
X0006162Y0215778D01*
X0006226Y0215950D01*
X0006294Y0216120D01*
X0006367Y0216289D01*
X0006443Y0216456D01*
X0006524Y0216621D01*
X0006608Y0216784D01*
X0006697Y0216945D01*
X0006789Y0217103D01*
X0006885Y0217260D01*
X0006986Y0217414D01*
X0007089Y0217565D01*
X0007197Y0217714D01*
X0007308Y0217860D01*
X0007423Y0218003D01*
X0007541Y0218144D01*
X0007663Y0218281D01*
X0007788Y0218416D01*
X0007916Y0218547D01*
X0008047Y0218675D01*
X0008182Y0218800D01*
X0008319Y0218922D01*
X0008460Y0219040D01*
X0008603Y0219155D01*
X0008749Y0219266D01*
X0008898Y0219374D01*
X0009049Y0219477D01*
X0009203Y0219578D01*
X0009360Y0219674D01*
X0009518Y0219766D01*
X0009679Y0219855D01*
X0009842Y0219939D01*
X0010007Y0220020D01*
X0010174Y0220096D01*
X0010343Y0220169D01*
X0010513Y0220237D01*
X0010685Y0220301D01*
X0010859Y0220360D01*
X0011034Y0220416D01*
X0011210Y0220467D01*
X0011388Y0220514D01*
X0011566Y0220556D01*
X0011746Y0220594D01*
X0011926Y0220628D01*
X0012107Y0220657D01*
X0012289Y0220682D01*
X0012472Y0220702D01*
X0012655Y0220718D01*
X0012838Y0220729D01*
X0013021Y0220736D01*
X0013205Y0220738D01*
X0013389Y0220736D01*
X0013572Y0220729D01*
X0013755Y0220718D01*
X0013938Y0220702D01*
X0014121Y0220682D01*
X0014303Y0220657D01*
X0014484Y0220628D01*
X0014664Y0220594D01*
X0014844Y0220556D01*
X0015022Y0220514D01*
X0015200Y0220467D01*
X0015376Y0220416D01*
X0015551Y0220360D01*
X0015725Y0220301D01*
X0015897Y0220237D01*
X0016067Y0220169D01*
X0016236Y0220096D01*
X0016403Y0220020D01*
X0016568Y0219939D01*
X0016731Y0219855D01*
X0016892Y0219766D01*
X0017050Y0219674D01*
X0017207Y0219578D01*
X0017361Y0219477D01*
X0017512Y0219374D01*
X0017661Y0219266D01*
X0017807Y0219155D01*
X0017950Y0219040D01*
X0018091Y0218922D01*
X0018228Y0218800D01*
X0018363Y0218675D01*
X0018494Y0218547D01*
X0018622Y0218416D01*
X0018747Y0218281D01*
X0018869Y0218144D01*
X0018987Y0218003D01*
X0019102Y0217860D01*
X0019213Y0217714D01*
X0019321Y0217565D01*
X0019424Y0217414D01*
X0019525Y0217260D01*
X0019621Y0217103D01*
X0019713Y0216945D01*
X0019802Y0216784D01*
X0019886Y0216621D01*
X0019967Y0216456D01*
X0020043Y0216289D01*
X0020116Y0216120D01*
X0020184Y0215950D01*
X0020248Y0215778D01*
X0020307Y0215604D01*
X0020363Y0215429D01*
X0020414Y0215253D01*
X0020461Y0215075D01*
X0020503Y0214897D01*
X0020541Y0214717D01*
X0020575Y0214537D01*
X0020604Y0214356D01*
X0020629Y0214174D01*
X0020649Y0213991D01*
X0020665Y0213808D01*
X0020676Y0213625D01*
X0020683Y0213442D01*
X0020685Y0213258D01*
X0020683Y0213074D01*
X0020676Y0212891D01*
X0020665Y0212708D01*
X0020649Y0212525D01*
X0020629Y0212342D01*
X0020604Y0212160D01*
X0020575Y0211979D01*
X0020541Y0211799D01*
X0020503Y0211619D01*
X0020461Y0211441D01*
X0020414Y0211263D01*
X0020363Y0211087D01*
X0020307Y0210912D01*
X0020248Y0210738D01*
X0020184Y0210566D01*
X0020116Y0210396D01*
X0020043Y0210227D01*
X0019967Y0210060D01*
X0019886Y0209895D01*
X0019802Y0209732D01*
X0019713Y0209571D01*
X0019621Y0209413D01*
X0019525Y0209256D01*
X0019424Y0209102D01*
X0019321Y0208951D01*
X0019213Y0208802D01*
X0019102Y0208656D01*
X0018987Y0208513D01*
X0018869Y0208372D01*
X0018747Y0208235D01*
X0018622Y0208100D01*
X0018494Y0207969D01*
X0018363Y0207841D01*
X0018228Y0207716D01*
X0018091Y0207594D01*
X0017950Y0207476D01*
X0017807Y0207361D01*
X0017661Y0207250D01*
X0017512Y0207142D01*
X0017361Y0207039D01*
X0017207Y0206938D01*
X0017050Y0206842D01*
X0016892Y0206750D01*
X0016731Y0206661D01*
X0016568Y0206577D01*
X0016403Y0206496D01*
X0016236Y0206420D01*
X0016067Y0206347D01*
X0015897Y0206279D01*
X0015725Y0206215D01*
X0015551Y0206156D01*
X0015376Y0206100D01*
X0015200Y0206049D01*
X0015022Y0206002D01*
X0014844Y0205960D01*
X0014664Y0205922D01*
X0014484Y0205888D01*
X0014303Y0205859D01*
X0014121Y0205834D01*
X0013938Y0205814D01*
X0013755Y0205798D01*
X0013572Y0205787D01*
X0013389Y0205780D01*
X0013205Y0205778D01*
X0013021Y0205780D01*
X0012838Y0205787D01*
X0012655Y0205798D01*
X0012472Y0205814D01*
X0012289Y0205834D01*
X0012107Y0205859D01*
X0011926Y0205888D01*
X0011746Y0205922D01*
X0011566Y0205960D01*
X0011388Y0206002D01*
X0011210Y0206049D01*
X0011034Y0206100D01*
X0010859Y0206156D01*
X0010685Y0206215D01*
X0010513Y0206279D01*
X0010343Y0206347D01*
X0010174Y0206420D01*
X0010007Y0206496D01*
X0009842Y0206577D01*
X0009679Y0206661D01*
X0009518Y0206750D01*
X0009360Y0206842D01*
X0009203Y0206938D01*
X0009049Y0207039D01*
X0008898Y0207142D01*
X0008749Y0207250D01*
X0008603Y0207361D01*
X0008460Y0207476D01*
X0008319Y0207594D01*
X0008182Y0207716D01*
X0008047Y0207841D01*
X0007916Y0207969D01*
X0007788Y0208100D01*
X0007663Y0208235D01*
X0007541Y0208372D01*
X0007423Y0208513D01*
X0007308Y0208656D01*
X0007197Y0208802D01*
X0007089Y0208951D01*
X0006986Y0209102D01*
X0006885Y0209256D01*
X0006789Y0209413D01*
X0006697Y0209571D01*
X0006608Y0209732D01*
X0006524Y0209895D01*
X0006443Y0210060D01*
X0006367Y0210227D01*
X0006294Y0210396D01*
X0006226Y0210566D01*
X0006162Y0210738D01*
X0006103Y0210912D01*
X0006047Y0211087D01*
X0005996Y0211263D01*
X0005949Y0211441D01*
X0005907Y0211619D01*
X0005869Y0211799D01*
X0005835Y0211979D01*
X0005806Y0212160D01*
X0005781Y0212342D01*
X0005761Y0212525D01*
X0005745Y0212708D01*
X0005734Y0212891D01*
X0005727Y0213074D01*
X0005725Y0213258D01*
X0497851Y0213258D02*
X0497853Y0213442D01*
X0497860Y0213625D01*
X0497871Y0213808D01*
X0497887Y0213991D01*
X0497907Y0214174D01*
X0497932Y0214356D01*
X0497961Y0214537D01*
X0497995Y0214717D01*
X0498033Y0214897D01*
X0498075Y0215075D01*
X0498122Y0215253D01*
X0498173Y0215429D01*
X0498229Y0215604D01*
X0498288Y0215778D01*
X0498352Y0215950D01*
X0498420Y0216120D01*
X0498493Y0216289D01*
X0498569Y0216456D01*
X0498650Y0216621D01*
X0498734Y0216784D01*
X0498823Y0216945D01*
X0498915Y0217103D01*
X0499011Y0217260D01*
X0499112Y0217414D01*
X0499215Y0217565D01*
X0499323Y0217714D01*
X0499434Y0217860D01*
X0499549Y0218003D01*
X0499667Y0218144D01*
X0499789Y0218281D01*
X0499914Y0218416D01*
X0500042Y0218547D01*
X0500173Y0218675D01*
X0500308Y0218800D01*
X0500445Y0218922D01*
X0500586Y0219040D01*
X0500729Y0219155D01*
X0500875Y0219266D01*
X0501024Y0219374D01*
X0501175Y0219477D01*
X0501329Y0219578D01*
X0501486Y0219674D01*
X0501644Y0219766D01*
X0501805Y0219855D01*
X0501968Y0219939D01*
X0502133Y0220020D01*
X0502300Y0220096D01*
X0502469Y0220169D01*
X0502639Y0220237D01*
X0502811Y0220301D01*
X0502985Y0220360D01*
X0503160Y0220416D01*
X0503336Y0220467D01*
X0503514Y0220514D01*
X0503692Y0220556D01*
X0503872Y0220594D01*
X0504052Y0220628D01*
X0504233Y0220657D01*
X0504415Y0220682D01*
X0504598Y0220702D01*
X0504781Y0220718D01*
X0504964Y0220729D01*
X0505147Y0220736D01*
X0505331Y0220738D01*
X0505515Y0220736D01*
X0505698Y0220729D01*
X0505881Y0220718D01*
X0506064Y0220702D01*
X0506247Y0220682D01*
X0506429Y0220657D01*
X0506610Y0220628D01*
X0506790Y0220594D01*
X0506970Y0220556D01*
X0507148Y0220514D01*
X0507326Y0220467D01*
X0507502Y0220416D01*
X0507677Y0220360D01*
X0507851Y0220301D01*
X0508023Y0220237D01*
X0508193Y0220169D01*
X0508362Y0220096D01*
X0508529Y0220020D01*
X0508694Y0219939D01*
X0508857Y0219855D01*
X0509018Y0219766D01*
X0509176Y0219674D01*
X0509333Y0219578D01*
X0509487Y0219477D01*
X0509638Y0219374D01*
X0509787Y0219266D01*
X0509933Y0219155D01*
X0510076Y0219040D01*
X0510217Y0218922D01*
X0510354Y0218800D01*
X0510489Y0218675D01*
X0510620Y0218547D01*
X0510748Y0218416D01*
X0510873Y0218281D01*
X0510995Y0218144D01*
X0511113Y0218003D01*
X0511228Y0217860D01*
X0511339Y0217714D01*
X0511447Y0217565D01*
X0511550Y0217414D01*
X0511651Y0217260D01*
X0511747Y0217103D01*
X0511839Y0216945D01*
X0511928Y0216784D01*
X0512012Y0216621D01*
X0512093Y0216456D01*
X0512169Y0216289D01*
X0512242Y0216120D01*
X0512310Y0215950D01*
X0512374Y0215778D01*
X0512433Y0215604D01*
X0512489Y0215429D01*
X0512540Y0215253D01*
X0512587Y0215075D01*
X0512629Y0214897D01*
X0512667Y0214717D01*
X0512701Y0214537D01*
X0512730Y0214356D01*
X0512755Y0214174D01*
X0512775Y0213991D01*
X0512791Y0213808D01*
X0512802Y0213625D01*
X0512809Y0213442D01*
X0512811Y0213258D01*
X0512809Y0213074D01*
X0512802Y0212891D01*
X0512791Y0212708D01*
X0512775Y0212525D01*
X0512755Y0212342D01*
X0512730Y0212160D01*
X0512701Y0211979D01*
X0512667Y0211799D01*
X0512629Y0211619D01*
X0512587Y0211441D01*
X0512540Y0211263D01*
X0512489Y0211087D01*
X0512433Y0210912D01*
X0512374Y0210738D01*
X0512310Y0210566D01*
X0512242Y0210396D01*
X0512169Y0210227D01*
X0512093Y0210060D01*
X0512012Y0209895D01*
X0511928Y0209732D01*
X0511839Y0209571D01*
X0511747Y0209413D01*
X0511651Y0209256D01*
X0511550Y0209102D01*
X0511447Y0208951D01*
X0511339Y0208802D01*
X0511228Y0208656D01*
X0511113Y0208513D01*
X0510995Y0208372D01*
X0510873Y0208235D01*
X0510748Y0208100D01*
X0510620Y0207969D01*
X0510489Y0207841D01*
X0510354Y0207716D01*
X0510217Y0207594D01*
X0510076Y0207476D01*
X0509933Y0207361D01*
X0509787Y0207250D01*
X0509638Y0207142D01*
X0509487Y0207039D01*
X0509333Y0206938D01*
X0509176Y0206842D01*
X0509018Y0206750D01*
X0508857Y0206661D01*
X0508694Y0206577D01*
X0508529Y0206496D01*
X0508362Y0206420D01*
X0508193Y0206347D01*
X0508023Y0206279D01*
X0507851Y0206215D01*
X0507677Y0206156D01*
X0507502Y0206100D01*
X0507326Y0206049D01*
X0507148Y0206002D01*
X0506970Y0205960D01*
X0506790Y0205922D01*
X0506610Y0205888D01*
X0506429Y0205859D01*
X0506247Y0205834D01*
X0506064Y0205814D01*
X0505881Y0205798D01*
X0505698Y0205787D01*
X0505515Y0205780D01*
X0505331Y0205778D01*
X0505147Y0205780D01*
X0504964Y0205787D01*
X0504781Y0205798D01*
X0504598Y0205814D01*
X0504415Y0205834D01*
X0504233Y0205859D01*
X0504052Y0205888D01*
X0503872Y0205922D01*
X0503692Y0205960D01*
X0503514Y0206002D01*
X0503336Y0206049D01*
X0503160Y0206100D01*
X0502985Y0206156D01*
X0502811Y0206215D01*
X0502639Y0206279D01*
X0502469Y0206347D01*
X0502300Y0206420D01*
X0502133Y0206496D01*
X0501968Y0206577D01*
X0501805Y0206661D01*
X0501644Y0206750D01*
X0501486Y0206842D01*
X0501329Y0206938D01*
X0501175Y0207039D01*
X0501024Y0207142D01*
X0500875Y0207250D01*
X0500729Y0207361D01*
X0500586Y0207476D01*
X0500445Y0207594D01*
X0500308Y0207716D01*
X0500173Y0207841D01*
X0500042Y0207969D01*
X0499914Y0208100D01*
X0499789Y0208235D01*
X0499667Y0208372D01*
X0499549Y0208513D01*
X0499434Y0208656D01*
X0499323Y0208802D01*
X0499215Y0208951D01*
X0499112Y0209102D01*
X0499011Y0209256D01*
X0498915Y0209413D01*
X0498823Y0209571D01*
X0498734Y0209732D01*
X0498650Y0209895D01*
X0498569Y0210060D01*
X0498493Y0210227D01*
X0498420Y0210396D01*
X0498352Y0210566D01*
X0498288Y0210738D01*
X0498229Y0210912D01*
X0498173Y0211087D01*
X0498122Y0211263D01*
X0498075Y0211441D01*
X0498033Y0211619D01*
X0497995Y0211799D01*
X0497961Y0211979D01*
X0497932Y0212160D01*
X0497907Y0212342D01*
X0497887Y0212525D01*
X0497871Y0212708D01*
X0497860Y0212891D01*
X0497853Y0213074D01*
X0497851Y0213258D01*
X0497851Y0014439D02*
X0497853Y0014623D01*
X0497860Y0014806D01*
X0497871Y0014989D01*
X0497887Y0015172D01*
X0497907Y0015355D01*
X0497932Y0015537D01*
X0497961Y0015718D01*
X0497995Y0015898D01*
X0498033Y0016078D01*
X0498075Y0016256D01*
X0498122Y0016434D01*
X0498173Y0016610D01*
X0498229Y0016785D01*
X0498288Y0016959D01*
X0498352Y0017131D01*
X0498420Y0017301D01*
X0498493Y0017470D01*
X0498569Y0017637D01*
X0498650Y0017802D01*
X0498734Y0017965D01*
X0498823Y0018126D01*
X0498915Y0018284D01*
X0499011Y0018441D01*
X0499112Y0018595D01*
X0499215Y0018746D01*
X0499323Y0018895D01*
X0499434Y0019041D01*
X0499549Y0019184D01*
X0499667Y0019325D01*
X0499789Y0019462D01*
X0499914Y0019597D01*
X0500042Y0019728D01*
X0500173Y0019856D01*
X0500308Y0019981D01*
X0500445Y0020103D01*
X0500586Y0020221D01*
X0500729Y0020336D01*
X0500875Y0020447D01*
X0501024Y0020555D01*
X0501175Y0020658D01*
X0501329Y0020759D01*
X0501486Y0020855D01*
X0501644Y0020947D01*
X0501805Y0021036D01*
X0501968Y0021120D01*
X0502133Y0021201D01*
X0502300Y0021277D01*
X0502469Y0021350D01*
X0502639Y0021418D01*
X0502811Y0021482D01*
X0502985Y0021541D01*
X0503160Y0021597D01*
X0503336Y0021648D01*
X0503514Y0021695D01*
X0503692Y0021737D01*
X0503872Y0021775D01*
X0504052Y0021809D01*
X0504233Y0021838D01*
X0504415Y0021863D01*
X0504598Y0021883D01*
X0504781Y0021899D01*
X0504964Y0021910D01*
X0505147Y0021917D01*
X0505331Y0021919D01*
X0505515Y0021917D01*
X0505698Y0021910D01*
X0505881Y0021899D01*
X0506064Y0021883D01*
X0506247Y0021863D01*
X0506429Y0021838D01*
X0506610Y0021809D01*
X0506790Y0021775D01*
X0506970Y0021737D01*
X0507148Y0021695D01*
X0507326Y0021648D01*
X0507502Y0021597D01*
X0507677Y0021541D01*
X0507851Y0021482D01*
X0508023Y0021418D01*
X0508193Y0021350D01*
X0508362Y0021277D01*
X0508529Y0021201D01*
X0508694Y0021120D01*
X0508857Y0021036D01*
X0509018Y0020947D01*
X0509176Y0020855D01*
X0509333Y0020759D01*
X0509487Y0020658D01*
X0509638Y0020555D01*
X0509787Y0020447D01*
X0509933Y0020336D01*
X0510076Y0020221D01*
X0510217Y0020103D01*
X0510354Y0019981D01*
X0510489Y0019856D01*
X0510620Y0019728D01*
X0510748Y0019597D01*
X0510873Y0019462D01*
X0510995Y0019325D01*
X0511113Y0019184D01*
X0511228Y0019041D01*
X0511339Y0018895D01*
X0511447Y0018746D01*
X0511550Y0018595D01*
X0511651Y0018441D01*
X0511747Y0018284D01*
X0511839Y0018126D01*
X0511928Y0017965D01*
X0512012Y0017802D01*
X0512093Y0017637D01*
X0512169Y0017470D01*
X0512242Y0017301D01*
X0512310Y0017131D01*
X0512374Y0016959D01*
X0512433Y0016785D01*
X0512489Y0016610D01*
X0512540Y0016434D01*
X0512587Y0016256D01*
X0512629Y0016078D01*
X0512667Y0015898D01*
X0512701Y0015718D01*
X0512730Y0015537D01*
X0512755Y0015355D01*
X0512775Y0015172D01*
X0512791Y0014989D01*
X0512802Y0014806D01*
X0512809Y0014623D01*
X0512811Y0014439D01*
X0512809Y0014255D01*
X0512802Y0014072D01*
X0512791Y0013889D01*
X0512775Y0013706D01*
X0512755Y0013523D01*
X0512730Y0013341D01*
X0512701Y0013160D01*
X0512667Y0012980D01*
X0512629Y0012800D01*
X0512587Y0012622D01*
X0512540Y0012444D01*
X0512489Y0012268D01*
X0512433Y0012093D01*
X0512374Y0011919D01*
X0512310Y0011747D01*
X0512242Y0011577D01*
X0512169Y0011408D01*
X0512093Y0011241D01*
X0512012Y0011076D01*
X0511928Y0010913D01*
X0511839Y0010752D01*
X0511747Y0010594D01*
X0511651Y0010437D01*
X0511550Y0010283D01*
X0511447Y0010132D01*
X0511339Y0009983D01*
X0511228Y0009837D01*
X0511113Y0009694D01*
X0510995Y0009553D01*
X0510873Y0009416D01*
X0510748Y0009281D01*
X0510620Y0009150D01*
X0510489Y0009022D01*
X0510354Y0008897D01*
X0510217Y0008775D01*
X0510076Y0008657D01*
X0509933Y0008542D01*
X0509787Y0008431D01*
X0509638Y0008323D01*
X0509487Y0008220D01*
X0509333Y0008119D01*
X0509176Y0008023D01*
X0509018Y0007931D01*
X0508857Y0007842D01*
X0508694Y0007758D01*
X0508529Y0007677D01*
X0508362Y0007601D01*
X0508193Y0007528D01*
X0508023Y0007460D01*
X0507851Y0007396D01*
X0507677Y0007337D01*
X0507502Y0007281D01*
X0507326Y0007230D01*
X0507148Y0007183D01*
X0506970Y0007141D01*
X0506790Y0007103D01*
X0506610Y0007069D01*
X0506429Y0007040D01*
X0506247Y0007015D01*
X0506064Y0006995D01*
X0505881Y0006979D01*
X0505698Y0006968D01*
X0505515Y0006961D01*
X0505331Y0006959D01*
X0505147Y0006961D01*
X0504964Y0006968D01*
X0504781Y0006979D01*
X0504598Y0006995D01*
X0504415Y0007015D01*
X0504233Y0007040D01*
X0504052Y0007069D01*
X0503872Y0007103D01*
X0503692Y0007141D01*
X0503514Y0007183D01*
X0503336Y0007230D01*
X0503160Y0007281D01*
X0502985Y0007337D01*
X0502811Y0007396D01*
X0502639Y0007460D01*
X0502469Y0007528D01*
X0502300Y0007601D01*
X0502133Y0007677D01*
X0501968Y0007758D01*
X0501805Y0007842D01*
X0501644Y0007931D01*
X0501486Y0008023D01*
X0501329Y0008119D01*
X0501175Y0008220D01*
X0501024Y0008323D01*
X0500875Y0008431D01*
X0500729Y0008542D01*
X0500586Y0008657D01*
X0500445Y0008775D01*
X0500308Y0008897D01*
X0500173Y0009022D01*
X0500042Y0009150D01*
X0499914Y0009281D01*
X0499789Y0009416D01*
X0499667Y0009553D01*
X0499549Y0009694D01*
X0499434Y0009837D01*
X0499323Y0009983D01*
X0499215Y0010132D01*
X0499112Y0010283D01*
X0499011Y0010437D01*
X0498915Y0010594D01*
X0498823Y0010752D01*
X0498734Y0010913D01*
X0498650Y0011076D01*
X0498569Y0011241D01*
X0498493Y0011408D01*
X0498420Y0011577D01*
X0498352Y0011747D01*
X0498288Y0011919D01*
X0498229Y0012093D01*
X0498173Y0012268D01*
X0498122Y0012444D01*
X0498075Y0012622D01*
X0498033Y0012800D01*
X0497995Y0012980D01*
X0497961Y0013160D01*
X0497932Y0013341D01*
X0497907Y0013523D01*
X0497887Y0013706D01*
X0497871Y0013889D01*
X0497860Y0014072D01*
X0497853Y0014255D01*
X0497851Y0014439D01*
D12*
X0463402Y0069557D03*
X0456709Y0069557D03*
X0456118Y0119360D03*
X0456118Y0126053D03*
X0217339Y0103022D03*
X0210646Y0103022D03*
X0193717Y0095148D03*
X0187024Y0095148D03*
X0210646Y0087274D03*
X0217339Y0087274D03*
X0193717Y0079400D03*
X0187024Y0079400D03*
X0210646Y0071526D03*
X0217339Y0071526D03*
X0193717Y0063652D03*
X0187024Y0063652D03*
X0210646Y0055778D03*
X0217339Y0055778D03*
X0193717Y0047904D03*
X0187024Y0047904D03*
X0210646Y0040030D03*
X0217339Y0040030D03*
X0193717Y0032156D03*
X0187024Y0032156D03*
X0210646Y0024281D03*
X0217339Y0024281D03*
X0193717Y0016407D03*
X0187024Y0016407D03*
X0048638Y0107549D03*
X0048638Y0114242D03*
X0036236Y0124675D03*
X0029543Y0124675D03*
D13*
X0039976Y0134754D03*
X0046669Y0134754D03*
X0098441Y0089242D03*
X0105134Y0089242D03*
X0116157Y0089242D03*
X0122850Y0089242D03*
X0124071Y0036919D03*
X0130764Y0036919D03*
X0456709Y0049872D03*
X0463402Y0049872D03*
D14*
X0298579Y0095033D03*
X0293579Y0095033D03*
X0288579Y0095033D03*
X0283579Y0095033D03*
X0278579Y0095033D03*
X0273579Y0095033D03*
X0268579Y0095033D03*
X0263579Y0095033D03*
X0258579Y0095033D03*
X0253579Y0095033D03*
X0248579Y0095033D03*
X0243579Y0095033D03*
X0243579Y0134633D03*
X0248579Y0134633D03*
X0253579Y0134633D03*
X0258579Y0134633D03*
X0263579Y0134633D03*
X0268579Y0134633D03*
X0273579Y0134633D03*
X0278579Y0134633D03*
X0283579Y0134633D03*
X0288579Y0134633D03*
X0293579Y0134633D03*
X0298579Y0134633D03*
D15*
X0118697Y0079852D03*
X0116728Y0079852D03*
X0114760Y0079852D03*
X0112791Y0079852D03*
X0110823Y0079852D03*
X0108854Y0079852D03*
X0106886Y0079852D03*
X0104917Y0079852D03*
X0102949Y0079852D03*
X0100980Y0079852D03*
X0099012Y0079852D03*
X0097043Y0079852D03*
X0097043Y0047451D03*
X0099012Y0047451D03*
X0100980Y0047451D03*
X0102949Y0047451D03*
X0104917Y0047451D03*
X0106886Y0047451D03*
X0108854Y0047451D03*
X0110823Y0047451D03*
X0112791Y0047451D03*
X0114760Y0047451D03*
X0116728Y0047451D03*
X0118697Y0047451D03*
D16*
X0123894Y0052648D03*
X0123894Y0054616D03*
X0123894Y0056585D03*
X0123894Y0058553D03*
X0123894Y0060522D03*
X0123894Y0062490D03*
X0123894Y0064459D03*
X0123894Y0066427D03*
X0123894Y0068396D03*
X0123894Y0070364D03*
X0123894Y0072333D03*
X0123894Y0074301D03*
X0091492Y0074301D03*
X0091492Y0072333D03*
X0091492Y0070364D03*
X0091492Y0068396D03*
X0091492Y0066427D03*
X0091492Y0064459D03*
X0091492Y0062490D03*
X0091492Y0060522D03*
X0091492Y0058553D03*
X0091492Y0056585D03*
X0091492Y0054616D03*
X0091492Y0052648D03*
D17*
X0475902Y0109911D03*
X0507201Y0109911D03*
X0507201Y0127628D03*
X0475902Y0127628D03*
D18*
X0056906Y0035108D03*
X0053756Y0035108D03*
X0050606Y0035108D03*
X0047457Y0035108D03*
X0044307Y0035108D03*
D19*
X0034071Y0034124D03*
X0067142Y0034124D03*
X0067142Y0013258D03*
X0034071Y0013258D03*
D20*
X0038697Y0179793D03*
X0046571Y0179793D03*
X0054445Y0179793D03*
X0098343Y0179793D03*
X0106217Y0179793D03*
X0114091Y0179793D03*
X0157988Y0179793D03*
X0165862Y0179793D03*
X0173736Y0179793D03*
X0217634Y0179793D03*
X0225508Y0179793D03*
X0233382Y0179793D03*
X0277280Y0179793D03*
X0285154Y0179793D03*
X0293028Y0179793D03*
X0336925Y0179793D03*
X0344799Y0179793D03*
X0352673Y0179793D03*
X0396571Y0179793D03*
X0404445Y0179793D03*
X0412319Y0179793D03*
X0456217Y0179793D03*
X0464091Y0179793D03*
X0471965Y0179793D03*
X0471965Y0213258D03*
X0479839Y0213258D03*
X0464091Y0213258D03*
X0420193Y0213258D03*
X0412319Y0213258D03*
X0404445Y0213258D03*
X0360547Y0213258D03*
X0352673Y0213258D03*
X0344799Y0213258D03*
X0300902Y0213258D03*
X0293028Y0213258D03*
X0285154Y0213258D03*
X0241256Y0213258D03*
X0233382Y0213258D03*
X0225508Y0213258D03*
X0181610Y0213258D03*
X0173736Y0213258D03*
X0165862Y0213258D03*
X0121965Y0213258D03*
X0114091Y0213258D03*
X0106217Y0213258D03*
X0062319Y0213258D03*
X0054445Y0213258D03*
X0046571Y0213258D03*
D21*
X0038697Y0213258D03*
X0098343Y0213258D03*
X0157988Y0213258D03*
X0217634Y0213258D03*
X0277280Y0213258D03*
X0336925Y0213258D03*
X0396571Y0213258D03*
X0456217Y0213258D03*
X0479839Y0179793D03*
X0420193Y0179793D03*
X0360547Y0179793D03*
X0300902Y0179793D03*
X0241256Y0179793D03*
X0181610Y0179793D03*
X0121965Y0179793D03*
X0062319Y0179793D03*
D22*
X0170685Y0106762D03*
X0178953Y0103022D03*
X0170685Y0099281D03*
X0170685Y0091014D03*
X0178953Y0087274D03*
X0170685Y0083533D03*
X0170685Y0075266D03*
X0178953Y0071526D03*
X0170685Y0067785D03*
X0170685Y0059518D03*
X0178953Y0055778D03*
X0170685Y0052037D03*
X0170685Y0043770D03*
X0178953Y0040030D03*
X0170685Y0036289D03*
X0170685Y0028022D03*
X0178953Y0024281D03*
X0170685Y0020541D03*
D23*
X0036630Y0103785D03*
X0029150Y0103785D03*
X0029150Y0114069D03*
X0032890Y0114069D03*
X0036630Y0114069D03*
D24*
X0039780Y0079400D03*
X0045685Y0079400D03*
X0045685Y0065620D03*
X0039780Y0065620D03*
X0470882Y0069557D03*
X0476787Y0069557D03*
D25*
X0452260Y0020344D03*
D26*
X0467850Y0020344D03*
D27*
X0026984Y0070738D03*
X0026984Y0075856D03*
D28*
X0034858Y0079400D03*
X0034858Y0065620D03*
X0082102Y0053809D03*
X0056512Y0043967D03*
X0105724Y0030187D03*
X0133283Y0043967D03*
X0119504Y0053809D03*
X0119504Y0057746D03*
X0129346Y0061683D03*
X0164780Y0059715D03*
X0164780Y0075463D03*
X0164780Y0091211D03*
X0164780Y0106959D03*
X0217929Y0112864D03*
X0223835Y0103022D03*
X0223835Y0087274D03*
X0233677Y0077431D03*
X0223835Y0071526D03*
X0243520Y0069557D03*
X0223835Y0055778D03*
X0241551Y0047904D03*
X0223835Y0040030D03*
X0241551Y0032156D03*
X0223835Y0024281D03*
X0170685Y0012470D03*
X0164780Y0028219D03*
X0164780Y0043967D03*
X0129346Y0079400D03*
X0111630Y0085305D03*
X0110646Y0094163D03*
X0048638Y0120738D03*
X0032890Y0132549D03*
X0182496Y0158140D03*
X0227897Y0160108D03*
X0235646Y0146329D03*
X0231709Y0142392D03*
X0312417Y0095148D03*
X0345882Y0077431D03*
X0410843Y0085305D03*
X0414780Y0085305D03*
X0492535Y0109911D03*
X0456118Y0130581D03*
X0397063Y0146329D03*
X0389189Y0146329D03*
X0379346Y0150266D03*
X0345882Y0144360D03*
X0253362Y0087274D03*
D29*
X0133283Y0043967D02*
X0133283Y0039439D01*
X0130764Y0036919D01*
X0124071Y0036919D02*
X0112772Y0036919D01*
X0108854Y0040837D01*
X0108854Y0047451D01*
X0106886Y0047451D02*
X0106886Y0031348D01*
X0105724Y0030187D01*
X0120665Y0052648D02*
X0119504Y0053809D01*
X0120665Y0052648D02*
X0123894Y0052648D01*
X0123894Y0054616D02*
X0121808Y0054616D01*
X0120779Y0055645D01*
X0120779Y0056471D01*
X0119504Y0057746D01*
X0091492Y0068396D02*
X0073067Y0068396D01*
X0070291Y0065620D01*
X0045685Y0065620D01*
X0052575Y0079400D02*
X0061610Y0070364D01*
X0091492Y0070364D01*
X0052575Y0079400D02*
X0045685Y0079400D01*
X0039780Y0079400D02*
X0034858Y0079400D01*
X0032890Y0081762D02*
X0032890Y0106959D01*
X0036827Y0110896D01*
X0036827Y0113872D01*
X0036630Y0114069D01*
X0032890Y0081762D02*
X0026984Y0075856D01*
X0026984Y0070738D02*
X0026984Y0063652D01*
X0044701Y0045935D01*
X0044701Y0035502D01*
X0044307Y0035108D01*
M02*
