G75*
%MOIN*%
%OFA0B0*%
%FSLAX24Y24*%
%IPPOS*%
%LPD*%
%AMOC8*
5,1,8,0,0,1.08239X$1,22.5*
%
%ADD10R,0.0433X0.0394*%
%ADD11R,0.0394X0.0433*%
%ADD12OC8,0.0630*%
%ADD13C,0.0630*%
%ADD14C,0.0600*%
%ADD15C,0.0472*%
%ADD16R,0.0472X0.0472*%
%ADD17C,0.0600*%
%ADD18OC8,0.0760*%
%ADD19R,0.1299X0.1299*%
%ADD20C,0.1299*%
%ADD21C,0.0650*%
%ADD22C,0.0177*%
%ADD23C,0.0100*%
%ADD24C,0.1358*%
%ADD25C,0.0543*%
%ADD26R,0.0910X0.0890*%
%ADD27C,0.0118*%
%ADD28C,0.0236*%
%ADD29C,0.0236*%
%ADD30C,0.0079*%
D10*
X000598Y004701D03*
X001268Y004701D03*
X001252Y005559D03*
X000583Y005559D03*
X004772Y007688D03*
X005441Y007688D03*
X005165Y006852D03*
X005835Y006852D03*
X005835Y006000D03*
X005165Y006000D03*
X005165Y005000D03*
X005835Y005000D03*
X007201Y007868D03*
X007870Y007868D03*
X001346Y011492D03*
X000677Y011492D03*
X000618Y012350D03*
X001287Y012350D03*
X001287Y018185D03*
X000618Y018185D03*
X000657Y019071D03*
X001327Y019071D03*
X006051Y001614D03*
X006051Y000945D03*
X012972Y000783D03*
X012972Y001453D03*
X030524Y017869D03*
X031193Y017869D03*
X031240Y018717D03*
X030571Y018717D03*
D11*
X012063Y001465D03*
X012063Y000795D03*
X011142Y000776D03*
X011142Y001445D03*
X009500Y004915D03*
X009500Y005585D03*
X008500Y005585D03*
X008500Y004915D03*
X007500Y004915D03*
X007500Y005585D03*
X007915Y006250D03*
X008585Y006250D03*
X008585Y007053D03*
X007915Y007053D03*
X007500Y008612D03*
X007500Y009281D03*
X008500Y009281D03*
X008500Y008612D03*
X009976Y007894D03*
X010646Y007894D03*
X006500Y008415D03*
X006500Y009085D03*
X005480Y008501D03*
X004811Y008501D03*
X006500Y005585D03*
X006500Y004915D03*
X005142Y001583D03*
X005142Y000913D03*
X004252Y000906D03*
X004252Y001575D03*
X001248Y003791D03*
X000579Y003791D03*
X000654Y010650D03*
X001323Y010650D03*
X001315Y017276D03*
X000646Y017276D03*
D12*
X015228Y007070D03*
X015291Y010535D03*
X016669Y003787D03*
X020016Y002830D03*
D13*
X020016Y001430D03*
X016669Y002387D03*
X015228Y005670D03*
X015291Y009135D03*
D14*
X001540Y022406D02*
X000940Y022406D01*
X000940Y023406D02*
X001540Y023406D01*
X001540Y024406D02*
X000940Y024406D01*
X000940Y025406D02*
X001540Y025406D01*
X032633Y020866D02*
X033233Y020866D01*
X033233Y019866D02*
X032633Y019866D01*
X032633Y018866D02*
X033233Y018866D01*
X033233Y017866D02*
X032633Y017866D01*
D15*
X025315Y026449D03*
D16*
X025315Y027236D03*
D17*
X030681Y005528D03*
X031681Y005528D03*
X032681Y005528D03*
X032681Y004528D03*
X031681Y004528D03*
X030681Y004528D03*
X030681Y003528D03*
X031681Y003528D03*
X032681Y003528D03*
X032681Y002528D03*
X031681Y002528D03*
X030681Y002528D03*
X030681Y001528D03*
X031681Y001528D03*
X032681Y001528D03*
D18*
X025268Y011043D03*
D19*
X031089Y022862D03*
X031085Y024732D03*
D20*
X032585Y024732D03*
X032589Y022862D03*
D21*
X023425Y026799D03*
X022425Y026799D03*
X021425Y026799D03*
X020425Y026799D03*
X019425Y026799D03*
X018425Y026799D03*
X017425Y026799D03*
X016425Y026799D03*
X015425Y026799D03*
X014425Y026799D03*
X013425Y026799D03*
X012425Y026799D03*
X011425Y026799D03*
X010425Y026799D03*
X009425Y026799D03*
X008425Y026799D03*
X007425Y026799D03*
X006425Y026799D03*
X005425Y026799D03*
X004425Y026799D03*
X004425Y027799D03*
X005425Y027799D03*
X006425Y027799D03*
X007425Y027799D03*
X008425Y027799D03*
X009425Y027799D03*
X010425Y027799D03*
X011425Y027799D03*
X012425Y027799D03*
X013425Y027799D03*
X014425Y027799D03*
X015425Y027799D03*
X016425Y027799D03*
X017425Y027799D03*
X018425Y027799D03*
X019425Y027799D03*
X020425Y027799D03*
X021425Y027799D03*
X022425Y027799D03*
X023425Y027799D03*
X023425Y013823D03*
X022425Y013823D03*
X021425Y013823D03*
X020425Y013823D03*
X019425Y013823D03*
X018425Y013823D03*
X017425Y013823D03*
X016425Y013823D03*
X015425Y013823D03*
X014425Y013823D03*
X013425Y013823D03*
X012425Y013823D03*
X011425Y013823D03*
X010425Y013823D03*
X009425Y013823D03*
X008425Y013823D03*
X007425Y013823D03*
X006425Y013823D03*
X005425Y013823D03*
X004425Y013823D03*
X004425Y012823D03*
X005425Y012823D03*
X006425Y012823D03*
X007425Y012823D03*
X008425Y012823D03*
X009425Y012823D03*
X010425Y012823D03*
X011425Y012823D03*
X012425Y012823D03*
X013425Y012823D03*
X014425Y012823D03*
X015425Y012823D03*
X016425Y012823D03*
X017425Y012823D03*
X018425Y012823D03*
X019425Y012823D03*
X020425Y012823D03*
X021425Y012823D03*
X022425Y012823D03*
X023425Y012823D03*
D22*
X024941Y004260D02*
X024941Y004260D01*
X024367Y004260D01*
X024367Y004260D01*
X024941Y004260D01*
X024941Y003787D02*
X024941Y003787D01*
X024367Y003787D01*
X024367Y003787D01*
X024941Y003787D01*
X024941Y003315D02*
X024941Y003315D01*
X024367Y003315D01*
X024367Y003315D01*
X024941Y003315D01*
D23*
X025054Y003315D02*
X024654Y003315D01*
X024254Y003315D01*
X024254Y003787D02*
X024654Y003787D01*
X025054Y003787D01*
X025054Y004260D02*
X024654Y004260D01*
X024254Y004260D01*
D24*
X014673Y001250D03*
X009500Y001250D03*
X007923Y001250D03*
X002750Y001250D03*
X001049Y001827D03*
X001049Y007000D03*
X001000Y008577D03*
X001000Y013750D03*
X001000Y015327D03*
X001000Y020500D03*
D25*
X002067Y019291D03*
X002067Y018307D03*
X002067Y017520D03*
X002067Y016535D03*
X002067Y012541D03*
X002067Y011557D03*
X002067Y010770D03*
X002067Y009785D03*
X002116Y005791D03*
X002116Y004807D03*
X002116Y004020D03*
X002116Y003035D03*
X003959Y002317D03*
X004943Y002317D03*
X005730Y002317D03*
X006715Y002317D03*
X010709Y002317D03*
X011693Y002317D03*
X012480Y002317D03*
X013465Y002317D03*
D26*
X028152Y021850D03*
X029722Y021850D03*
D27*
X001000Y001827D02*
X000579Y002248D01*
X000579Y003791D01*
X000579Y004681D01*
X000598Y004701D01*
X000598Y005543D01*
X000583Y005559D01*
X000583Y006583D01*
X001000Y007000D01*
X001049Y007000D01*
X001000Y008577D02*
X000654Y008923D01*
X000654Y010650D01*
X000677Y010673D01*
X000677Y011492D01*
X000618Y011551D01*
X000618Y012350D01*
X000618Y013368D01*
X001000Y013750D01*
X001287Y012350D02*
X001287Y011551D01*
X001346Y011492D01*
X001346Y010673D01*
X001323Y010650D01*
X001323Y010094D01*
X001632Y009785D01*
X002067Y009785D01*
X004331Y009744D02*
X004331Y008981D01*
X004811Y008501D01*
X004811Y007727D01*
X004772Y007688D01*
X005441Y007688D02*
X005564Y007811D01*
X005646Y007811D01*
X005906Y008071D01*
X005906Y008366D01*
X005480Y008501D02*
X005480Y008742D01*
X005340Y008883D01*
X006500Y009085D02*
X006500Y009650D01*
X006693Y009843D01*
X007500Y009281D02*
X007707Y009281D01*
X008243Y009818D01*
X008106Y010039D02*
X008145Y010079D01*
X008366Y010079D01*
X008504Y009940D01*
X008505Y009941D01*
X010531Y009941D01*
X009843Y010433D02*
X009843Y011811D01*
X009251Y012132D02*
X020742Y012132D01*
X023819Y009055D01*
X023179Y009055D02*
X023179Y007923D01*
X024213Y006890D01*
X022638Y005315D01*
X022638Y004724D01*
X022441Y004528D01*
X022441Y002953D01*
X022441Y004528D02*
X012820Y004528D01*
X012795Y004503D01*
X012795Y004134D01*
X012598Y003937D01*
X012795Y004134D02*
X012844Y004183D01*
X012820Y004528D02*
X012598Y004749D01*
X012598Y006373D01*
X012008Y006939D02*
X011850Y006781D01*
X011850Y005537D01*
X011712Y005399D01*
X010763Y005399D01*
X009892Y004528D01*
X008981Y004528D01*
X008500Y004915D02*
X008071Y004486D01*
X008071Y004134D01*
X007480Y004134D02*
X007480Y004896D01*
X007500Y004915D01*
X007500Y005585D02*
X007500Y006083D01*
X006988Y006594D01*
X006594Y006594D02*
X006500Y006500D01*
X006500Y005585D01*
X005915Y005000D01*
X005835Y005000D01*
X006496Y004911D02*
X006500Y004915D01*
X006496Y004911D02*
X006496Y004134D01*
X005165Y005000D02*
X004850Y005315D01*
X004134Y005315D01*
X004134Y005906D02*
X004228Y006000D01*
X005165Y006000D01*
X005835Y006000D02*
X006000Y006000D01*
X006594Y006594D01*
X006459Y006852D02*
X006594Y006988D01*
X006583Y007000D01*
X006459Y006852D02*
X005835Y006852D01*
X005165Y006852D02*
X004762Y006852D01*
X004528Y007087D01*
X004134Y007480D01*
X004528Y007087D02*
X004614Y007000D01*
X006500Y007476D02*
X006594Y007382D01*
X006500Y007476D02*
X006500Y008415D01*
X007201Y007868D02*
X007250Y007868D01*
X007500Y008118D01*
X007500Y008612D01*
X007972Y008465D02*
X007972Y007970D01*
X007870Y007868D01*
X008425Y007775D02*
X008425Y007563D01*
X007915Y007053D01*
X007711Y007053D01*
X007382Y007382D01*
X007201Y007594D02*
X007201Y007868D01*
X007201Y007594D02*
X006988Y007382D01*
X007382Y006594D02*
X007726Y006250D01*
X007915Y006250D01*
X008500Y005665D01*
X008500Y005585D01*
X009500Y005585D01*
X010039Y005512D02*
X010039Y005118D01*
X009843Y004921D01*
X009506Y004921D01*
X009500Y004915D01*
X010310Y005635D02*
X011614Y005635D01*
X011467Y005906D02*
X010433Y005906D01*
X010039Y006299D01*
X010039Y005906D02*
X010310Y005635D01*
X010384Y006693D02*
X011024Y006693D01*
X010039Y006693D02*
X009028Y006693D01*
X008585Y006250D01*
X008585Y007053D02*
X010006Y007053D01*
X010039Y007087D01*
X009760Y007677D02*
X009976Y007894D01*
X009760Y007677D02*
X008661Y007677D01*
X008500Y007850D02*
X008500Y008612D01*
X008500Y008697D01*
X009055Y009252D01*
X008500Y009281D02*
X008500Y009741D01*
X008504Y009745D01*
X008504Y009940D01*
X008106Y010039D02*
X007997Y010039D01*
X008500Y008612D02*
X008500Y008532D01*
X008500Y007850D02*
X008425Y007775D01*
X010646Y007894D02*
X012160Y007894D01*
X012352Y007702D01*
X012008Y006939D02*
X013730Y006939D01*
X014173Y006496D01*
X011220Y009055D02*
X011024Y009055D01*
X010827Y008858D01*
X010827Y008075D01*
X010646Y007894D01*
X009251Y012132D02*
X008932Y012451D01*
X008932Y013330D01*
X009425Y013823D01*
X002067Y016535D02*
X001575Y016535D01*
X001315Y016795D01*
X001315Y017276D01*
X001287Y017303D01*
X001287Y018185D01*
X001327Y018224D01*
X001327Y019071D01*
X000657Y019071D02*
X000618Y019031D01*
X000618Y018185D01*
X000646Y018157D01*
X000646Y017276D01*
X000646Y015681D01*
X001000Y015327D01*
X000657Y019071D02*
X000657Y020157D01*
X001000Y020500D01*
X016929Y026181D02*
X016929Y028150D01*
X017126Y028346D01*
X017913Y028346D01*
X018110Y028150D01*
X018110Y028114D01*
X018425Y027799D01*
X017913Y027311D02*
X017425Y027799D01*
X017913Y027311D02*
X017913Y026378D01*
X018011Y026280D01*
X024704Y026280D01*
X026772Y024213D01*
X026772Y021260D01*
X027362Y020669D01*
X032736Y020669D01*
X032933Y020866D01*
X032720Y020079D02*
X032933Y019866D01*
X032720Y020079D02*
X027165Y020079D01*
X026378Y020866D01*
X026378Y023425D01*
X024409Y025394D01*
X024409Y025591D01*
X024213Y025787D01*
X017323Y025787D01*
X016929Y026181D01*
X024803Y022441D02*
X024803Y019291D01*
X026181Y017913D01*
X026181Y008268D01*
X025000Y007087D01*
X024606Y007087D01*
X025000Y006693D02*
X028740Y006693D01*
X029921Y005512D01*
X029921Y001575D01*
X030681Y001575D01*
X030681Y001528D01*
X031153Y001215D02*
X030726Y000787D01*
X025787Y000787D01*
X025394Y003315D02*
X024654Y003315D01*
X024654Y003787D02*
X023866Y003787D01*
X023819Y003740D01*
X024654Y004260D02*
X025787Y004260D01*
X025787Y004232D01*
X025394Y003642D02*
X025394Y003315D01*
X026378Y004921D02*
X028150Y004921D01*
X028150Y004528D01*
X028543Y005315D02*
X028543Y005709D01*
X025984Y005709D01*
X025984Y005512D01*
X025787Y008661D02*
X024729Y008661D01*
X029331Y008661D02*
X029921Y008661D01*
X030709Y006693D02*
X030709Y006299D01*
X031153Y005855D01*
X031153Y001215D01*
X027362Y013386D02*
X030906Y016929D01*
X031193Y017869D02*
X031193Y018020D01*
X031890Y018717D01*
X032083Y018717D01*
X032933Y017866D01*
X031890Y018717D02*
X031240Y018717D01*
X031373Y019193D02*
X031471Y019291D01*
X031471Y019685D01*
X031373Y019193D02*
X030610Y019193D01*
X030571Y019154D01*
X030571Y018717D01*
X030524Y018669D01*
X030524Y017869D01*
X029478Y022982D02*
X027362Y022982D01*
X029478Y022982D02*
X030241Y023745D01*
X033317Y023745D01*
X033489Y023917D01*
X033489Y025369D01*
X033342Y025517D01*
X025344Y022982D02*
X024803Y022441D01*
X013465Y002317D02*
X013465Y001945D01*
X012972Y001453D01*
X012961Y001465D01*
X012063Y001465D01*
X012043Y001445D01*
X011142Y001445D01*
X011161Y000795D02*
X012063Y000795D01*
X012075Y000783D01*
X012972Y000783D01*
X014207Y000783D01*
X014673Y001250D01*
X011161Y000795D02*
X011142Y000776D01*
X009974Y000776D01*
X009500Y001250D01*
X007923Y001250D02*
X007618Y000945D01*
X006051Y000945D01*
X005173Y000945D01*
X005142Y000913D01*
X004260Y000913D01*
X004252Y000906D01*
X003094Y000906D01*
X002750Y001250D01*
X004252Y001575D02*
X005134Y001575D01*
X005142Y001583D01*
X006020Y001583D01*
X006051Y001614D01*
X006535Y001614D01*
X006715Y001793D01*
X006715Y002317D01*
X002116Y003035D02*
X001492Y003035D01*
X001248Y003280D01*
X001248Y003791D01*
X001268Y003811D01*
X001268Y004701D01*
X001252Y004717D01*
X001252Y005559D01*
X001049Y001827D02*
X001000Y001827D01*
D28*
X003937Y003445D03*
X003346Y004331D03*
X004134Y005315D03*
X004134Y005906D03*
X003346Y005906D03*
X004134Y007480D03*
X005340Y008883D03*
X005906Y008366D03*
X006594Y007382D03*
X006594Y006988D03*
X006988Y006988D03*
X006988Y007382D03*
X007382Y007382D03*
X007382Y006988D03*
X007382Y006594D03*
X006988Y006594D03*
X006594Y006594D03*
X005413Y005610D03*
X006496Y004134D03*
X007480Y004134D03*
X008071Y004134D03*
X008981Y004528D03*
X010039Y005512D03*
X010039Y005906D03*
X010039Y006299D03*
X010630Y006398D03*
X010384Y006693D03*
X010039Y006693D03*
X010039Y007087D03*
X011024Y006693D03*
X011467Y005906D03*
X011614Y005635D03*
X011713Y005020D03*
X012057Y005020D03*
X011885Y004700D03*
X012057Y004405D03*
X011713Y004405D03*
X012598Y003937D03*
X012598Y003150D03*
X013583Y003937D03*
X014567Y003346D03*
X015945Y001378D03*
X017520Y001378D03*
X021654Y002756D03*
X022441Y002953D03*
X023622Y002953D03*
X023819Y003740D03*
X022638Y004724D03*
X023425Y006693D03*
X024213Y006890D03*
X024606Y007087D03*
X025000Y007480D03*
X025394Y007087D03*
X025000Y006693D03*
X026033Y006447D03*
X025984Y005512D03*
X026378Y004921D03*
X025787Y004232D03*
X025394Y003642D03*
X025861Y003568D03*
X025861Y003248D03*
X025861Y002928D03*
X025861Y002633D03*
X027264Y001378D03*
X025787Y000787D03*
X024016Y000787D03*
X028150Y004528D03*
X028937Y005118D03*
X028543Y005315D03*
X030709Y006693D03*
X029921Y008661D03*
X029331Y008661D03*
X027362Y010827D03*
X026575Y009843D03*
X025787Y008661D03*
X024729Y008661D03*
X023819Y009055D03*
X023179Y009055D03*
X022047Y008268D03*
X021063Y008268D03*
X021063Y007677D03*
X019685Y007874D03*
X018701Y008268D03*
X017717Y008268D03*
X016732Y008268D03*
X014173Y006496D03*
X012968Y007357D03*
X012672Y007530D03*
X012968Y007702D03*
X012352Y007702D03*
X012352Y007357D03*
X012008Y006939D03*
X012598Y006373D03*
X011122Y008169D03*
X011565Y008932D03*
X011220Y009055D03*
X010827Y009449D03*
X010531Y009941D03*
X009843Y010433D03*
X009449Y010433D03*
X010236Y011417D03*
X009843Y011811D03*
X008243Y009818D03*
X007997Y010039D03*
X007874Y008760D03*
X007972Y008465D03*
X008661Y007677D03*
X009055Y009252D03*
X006693Y009843D03*
X006693Y010433D03*
X004331Y009744D03*
X002830Y011220D03*
X002411Y010433D03*
X002559Y014370D03*
X002559Y018701D03*
X003740Y020669D03*
X013583Y010433D03*
X012598Y008760D03*
X012229Y008637D03*
X010630Y004921D03*
X010679Y004626D03*
X009449Y003150D03*
X006299Y002953D03*
X017126Y011024D03*
X019291Y010039D03*
X021063Y010236D03*
X022835Y010630D03*
X026575Y007874D03*
X028150Y012795D03*
X027362Y013386D03*
X027362Y016732D03*
X026575Y016732D03*
X025197Y019685D03*
X025197Y020079D03*
X025197Y020472D03*
X025197Y020866D03*
X025197Y021260D03*
X025344Y022982D03*
X027362Y022982D03*
X031471Y019685D03*
X031693Y021260D03*
X033342Y025517D03*
X033145Y027116D03*
X032480Y028346D03*
X031594Y027239D03*
D29*
X031089Y022862D02*
X030146Y022862D01*
X029921Y022638D01*
X028939Y022638D01*
X028152Y021850D01*
X029722Y021850D02*
X031627Y021850D01*
X031915Y022139D01*
X031915Y022189D01*
X032589Y022862D01*
D30*
X032933Y018866D02*
X033496Y018866D01*
X033661Y018701D01*
X033661Y017323D01*
X033268Y016929D01*
X030906Y016929D01*
M02*
