G75*
%MOIN*%
%OFA0B0*%
%FSLAX24Y24*%
%IPPOS*%
%LPD*%
%AMOC8*
5,1,8,0,0,1.08239X$1,22.5*
%
%ADD10C,0.0480*%
%ADD11C,0.0600*%
%ADD12C,0.0472*%
%ADD13C,0.1299*%
%ADD14C,0.1358*%
%ADD15C,0.0543*%
%ADD16C,0.0160*%
%ADD17C,0.0236*%
D10*
X015228Y005670D03*
X015228Y007070D03*
X015291Y009135D03*
X015291Y010535D03*
X016669Y003787D03*
X016669Y002387D03*
X020016Y002830D03*
X020016Y001430D03*
D11*
X030681Y001528D03*
X030681Y002528D03*
X030681Y003528D03*
X030681Y004528D03*
X030681Y005528D03*
X031681Y005528D03*
X032681Y005528D03*
X032681Y004528D03*
X031681Y004528D03*
X031681Y003528D03*
X032681Y003528D03*
X032681Y002528D03*
X031681Y002528D03*
X031681Y001528D03*
X032681Y001528D03*
X025268Y011043D03*
X023425Y012823D03*
X022425Y012823D03*
X021425Y012823D03*
X020425Y012823D03*
X019425Y012823D03*
X018425Y012823D03*
X017425Y012823D03*
X016425Y012823D03*
X015425Y012823D03*
X014425Y012823D03*
X013425Y012823D03*
X012425Y012823D03*
X011425Y012823D03*
X010425Y012823D03*
X009425Y012823D03*
X008425Y012823D03*
X007425Y012823D03*
X006425Y012823D03*
X005425Y012823D03*
X004425Y012823D03*
X004425Y013823D03*
X005425Y013823D03*
X006425Y013823D03*
X007425Y013823D03*
X008425Y013823D03*
X009425Y013823D03*
X010425Y013823D03*
X011425Y013823D03*
X012425Y013823D03*
X013425Y013823D03*
X014425Y013823D03*
X015425Y013823D03*
X016425Y013823D03*
X017425Y013823D03*
X018425Y013823D03*
X019425Y013823D03*
X020425Y013823D03*
X021425Y013823D03*
X022425Y013823D03*
X023425Y013823D03*
X032933Y017866D03*
X032933Y018866D03*
X032933Y019866D03*
X032933Y020866D03*
X023425Y026799D03*
X022425Y026799D03*
X021425Y026799D03*
X020425Y026799D03*
X019425Y026799D03*
X018425Y026799D03*
X017425Y026799D03*
X016425Y026799D03*
X015425Y026799D03*
X014425Y026799D03*
X013425Y026799D03*
X012425Y026799D03*
X011425Y026799D03*
X010425Y026799D03*
X009425Y026799D03*
X008425Y026799D03*
X007425Y026799D03*
X006425Y026799D03*
X005425Y026799D03*
X004425Y026799D03*
X004425Y027799D03*
X005425Y027799D03*
X006425Y027799D03*
X007425Y027799D03*
X008425Y027799D03*
X009425Y027799D03*
X010425Y027799D03*
X011425Y027799D03*
X012425Y027799D03*
X013425Y027799D03*
X014425Y027799D03*
X015425Y027799D03*
X016425Y027799D03*
X017425Y027799D03*
X018425Y027799D03*
X019425Y027799D03*
X020425Y027799D03*
X021425Y027799D03*
X022425Y027799D03*
X023425Y027799D03*
X001240Y025406D03*
X001240Y024406D03*
X001240Y023406D03*
X001240Y022406D03*
D12*
X025315Y026449D03*
X025315Y027236D03*
D13*
X031085Y024732D03*
X032585Y024732D03*
X032589Y022862D03*
X031089Y022862D03*
D14*
X014673Y001250D03*
X009500Y001250D03*
X007923Y001250D03*
X002750Y001250D03*
X001049Y001827D03*
X001049Y007000D03*
X001000Y008577D03*
X001000Y013750D03*
X001000Y015327D03*
X001000Y020500D03*
D15*
X002067Y019291D03*
X002067Y018307D03*
X002067Y017520D03*
X002067Y016535D03*
X002067Y012541D03*
X002067Y011557D03*
X002067Y010770D03*
X002067Y009785D03*
X002116Y005791D03*
X002116Y004807D03*
X002116Y004020D03*
X002116Y003035D03*
X003959Y002317D03*
X004943Y002317D03*
X005730Y002317D03*
X006715Y002317D03*
X010709Y002317D03*
X011693Y002317D03*
X012480Y002317D03*
X013465Y002317D03*
D16*
X001988Y000951D02*
X000953Y000951D01*
X001011Y000895D02*
X000895Y001009D01*
X001212Y001009D01*
X001513Y001133D01*
X001743Y001363D01*
X001867Y001664D01*
X001867Y001990D01*
X001743Y002290D01*
X001513Y002520D01*
X001212Y002645D01*
X000886Y002645D01*
X000586Y002520D01*
X000356Y002290D01*
X000311Y002182D01*
X000289Y002361D01*
X000295Y002493D01*
X000300Y002498D01*
X000300Y002584D01*
X000309Y002669D01*
X000300Y002680D01*
X000300Y006670D01*
X000356Y006537D01*
X000586Y006306D01*
X000886Y006182D01*
X001212Y006182D01*
X001513Y006306D01*
X001743Y006537D01*
X001867Y006837D01*
X001867Y007163D01*
X001743Y007463D01*
X001513Y007694D01*
X001259Y007799D01*
X001463Y007883D01*
X001694Y008113D01*
X001818Y008414D01*
X001818Y008740D01*
X001694Y009040D01*
X001463Y009270D01*
X001163Y009395D01*
X000837Y009395D01*
X000537Y009270D01*
X000306Y009040D01*
X000300Y009026D01*
X000300Y013301D01*
X000306Y013287D01*
X000537Y013056D01*
X000837Y012932D01*
X001163Y012932D01*
X001463Y013056D01*
X001694Y013287D01*
X001818Y013587D01*
X001818Y013913D01*
X001694Y014213D01*
X001463Y014444D01*
X001235Y014538D01*
X001463Y014633D01*
X001694Y014863D01*
X001818Y015164D01*
X001818Y015490D01*
X001694Y015790D01*
X001463Y016020D01*
X001163Y016145D01*
X000837Y016145D01*
X000537Y016020D01*
X000306Y015790D01*
X000300Y015776D01*
X000300Y020051D01*
X000306Y020037D01*
X000537Y019806D01*
X000837Y019682D01*
X001163Y019682D01*
X001463Y019806D01*
X001694Y020037D01*
X001818Y020337D01*
X001818Y020663D01*
X001694Y020963D01*
X001463Y021194D01*
X001163Y021318D01*
X000837Y021318D01*
X000537Y021194D01*
X000306Y020963D01*
X000300Y020949D01*
X000300Y027467D01*
X000310Y027611D01*
X000385Y027890D01*
X000529Y028141D01*
X000733Y028345D01*
X000984Y028489D01*
X001263Y028564D01*
X001407Y028574D01*
X032258Y028574D01*
X032444Y028561D01*
X032804Y028465D01*
X033126Y028279D01*
X033389Y028016D01*
X033575Y027693D01*
X033672Y027334D01*
X033684Y027148D01*
X033684Y001843D01*
X033672Y001668D01*
X033582Y001331D01*
X033407Y001028D01*
X033407Y001028D01*
X033161Y000782D01*
X032858Y000607D01*
X032521Y000517D01*
X032346Y000505D01*
X015013Y000505D01*
X015137Y000556D01*
X015367Y000787D01*
X015491Y001087D01*
X015491Y001413D01*
X015367Y001713D01*
X015137Y001944D01*
X014836Y002068D01*
X014510Y002068D01*
X014210Y001944D01*
X013980Y001713D01*
X013855Y001413D01*
X013855Y001087D01*
X013980Y000787D01*
X014210Y000556D01*
X014333Y000505D01*
X009840Y000505D01*
X009963Y000556D01*
X010194Y000787D01*
X010318Y001087D01*
X010318Y001413D01*
X010194Y001713D01*
X009963Y001944D01*
X009663Y002068D01*
X009337Y002068D01*
X009037Y001944D01*
X008806Y001713D01*
X008712Y001485D01*
X008617Y001713D01*
X008387Y001944D01*
X008086Y002068D01*
X007760Y002068D01*
X007460Y001944D01*
X007230Y001713D01*
X007105Y001413D01*
X007105Y001087D01*
X007230Y000787D01*
X007460Y000556D01*
X007583Y000505D01*
X003090Y000505D01*
X003213Y000556D01*
X003444Y000787D01*
X003568Y001087D01*
X003568Y001413D01*
X003444Y001713D01*
X003213Y001944D01*
X002913Y002068D01*
X002587Y002068D01*
X002287Y001944D01*
X002056Y001713D01*
X001932Y001413D01*
X001932Y001087D01*
X002056Y000787D01*
X002287Y000556D01*
X002410Y000505D01*
X001969Y000505D01*
X001769Y000538D01*
X001370Y000673D01*
X001011Y000895D01*
X001176Y000793D02*
X002054Y000793D01*
X002209Y000634D02*
X001485Y000634D01*
X001456Y001110D02*
X001932Y001110D01*
X001932Y001268D02*
X001648Y001268D01*
X001769Y001427D02*
X001938Y001427D01*
X002003Y001585D02*
X001835Y001585D01*
X001867Y001744D02*
X002086Y001744D01*
X002245Y001902D02*
X001867Y001902D01*
X001838Y002061D02*
X002569Y002061D01*
X002931Y002061D02*
X003634Y002061D01*
X003610Y002084D02*
X003726Y001969D01*
X003877Y001906D01*
X004040Y001906D01*
X004191Y001969D01*
X004307Y002084D01*
X004369Y002235D01*
X004369Y002399D01*
X004307Y002550D01*
X004191Y002665D01*
X004040Y002728D01*
X003877Y002728D01*
X003726Y002665D01*
X003610Y002550D01*
X003548Y002399D01*
X003548Y002235D01*
X003610Y002084D01*
X003555Y002219D02*
X001772Y002219D01*
X001656Y002378D02*
X003548Y002378D01*
X003605Y002536D02*
X001475Y002536D01*
X001788Y002755D02*
X001836Y002707D01*
X001891Y002667D01*
X001951Y002637D01*
X002015Y002616D01*
X002082Y002605D01*
X002106Y002605D01*
X002106Y003025D01*
X002127Y003025D01*
X002127Y003046D01*
X002547Y003046D01*
X002547Y003069D01*
X002536Y003136D01*
X002515Y003201D01*
X002484Y003261D01*
X002444Y003316D01*
X002397Y003364D01*
X002342Y003404D01*
X002281Y003434D01*
X002217Y003455D01*
X002150Y003466D01*
X002127Y003466D01*
X002127Y003046D01*
X002106Y003046D01*
X002106Y003466D01*
X002082Y003466D01*
X002015Y003455D01*
X001951Y003434D01*
X001891Y003404D01*
X001836Y003364D01*
X001788Y003316D01*
X001748Y003261D01*
X001717Y003201D01*
X001696Y003136D01*
X001686Y003069D01*
X001686Y003046D01*
X002106Y003046D01*
X002106Y003025D01*
X001686Y003025D01*
X001686Y003002D01*
X001696Y002935D01*
X001717Y002870D01*
X001748Y002810D01*
X001788Y002755D01*
X001853Y002695D02*
X000300Y002695D01*
X000300Y002853D02*
X001726Y002853D01*
X001686Y003012D02*
X000300Y003012D01*
X000300Y003170D02*
X001707Y003170D01*
X001801Y003329D02*
X000300Y003329D01*
X000300Y003487D02*
X014347Y003487D01*
X014349Y003492D02*
X014310Y003398D01*
X014310Y003295D01*
X014349Y003201D01*
X014421Y003128D01*
X014516Y003089D01*
X014618Y003089D01*
X014713Y003128D01*
X014785Y003201D01*
X014824Y003295D01*
X014824Y003398D01*
X014785Y003492D01*
X014713Y003564D01*
X014618Y003604D01*
X014516Y003604D01*
X014421Y003564D01*
X014349Y003492D01*
X014310Y003329D02*
X012783Y003329D01*
X012816Y003295D02*
X012744Y003368D01*
X012650Y003407D01*
X012547Y003407D01*
X012453Y003368D01*
X012380Y003295D01*
X012341Y003201D01*
X012341Y003098D01*
X012380Y003004D01*
X012453Y002932D01*
X012547Y002892D01*
X012650Y002892D01*
X012744Y002932D01*
X012816Y003004D01*
X012856Y003098D01*
X012856Y003201D01*
X012816Y003295D01*
X012856Y003170D02*
X014380Y003170D01*
X014754Y003170D02*
X019807Y003170D01*
X019827Y003183D02*
X019762Y003140D01*
X019706Y003084D01*
X019662Y003019D01*
X019632Y002946D01*
X019617Y002869D01*
X019617Y002830D01*
X020016Y002830D01*
X020414Y002830D01*
X020414Y002869D01*
X020399Y002946D01*
X020369Y003019D01*
X020325Y003084D01*
X020270Y003140D01*
X020205Y003183D01*
X020132Y003213D01*
X020055Y003229D01*
X020016Y003229D01*
X020016Y002830D01*
X020016Y002830D01*
X020414Y002830D01*
X020414Y002791D01*
X020399Y002714D01*
X020369Y002641D01*
X020325Y002576D01*
X020270Y002520D01*
X020205Y002477D01*
X020132Y002447D01*
X020055Y002431D01*
X020016Y002431D01*
X020016Y002830D01*
X020016Y002830D01*
X020016Y002830D01*
X020016Y003229D01*
X019976Y003229D01*
X019899Y003213D01*
X019827Y003183D01*
X020016Y003170D02*
X020016Y003170D01*
X020016Y003012D02*
X020016Y003012D01*
X020016Y002853D02*
X020016Y002853D01*
X020016Y002830D02*
X020016Y002830D01*
X020016Y002431D01*
X019976Y002431D01*
X019899Y002447D01*
X019827Y002477D01*
X019762Y002520D01*
X019706Y002576D01*
X019662Y002641D01*
X019632Y002714D01*
X019617Y002791D01*
X019617Y002830D01*
X020016Y002830D01*
X020016Y002695D02*
X020016Y002695D01*
X020016Y002536D02*
X020016Y002536D01*
X020286Y002536D02*
X030242Y002536D01*
X030242Y002615D02*
X030242Y002440D01*
X030309Y002279D01*
X030432Y002155D01*
X030594Y002089D01*
X030768Y002089D01*
X030930Y002155D01*
X031053Y002279D01*
X031120Y002440D01*
X031120Y002615D01*
X031053Y002776D01*
X030930Y002900D01*
X030768Y002967D01*
X030594Y002967D01*
X030432Y002900D01*
X030309Y002776D01*
X030242Y002615D01*
X030275Y002695D02*
X025969Y002695D01*
X026007Y002710D02*
X026079Y002782D01*
X026118Y002877D01*
X026118Y002979D01*
X026079Y003074D01*
X026007Y003146D01*
X025912Y003185D01*
X025810Y003185D01*
X025716Y003146D01*
X025643Y003074D01*
X025604Y002979D01*
X025604Y002877D01*
X025643Y002782D01*
X025716Y002710D01*
X025810Y002671D01*
X025912Y002671D01*
X026007Y002710D01*
X026108Y002853D02*
X030386Y002853D01*
X030432Y003155D02*
X030594Y003089D01*
X030768Y003089D01*
X030930Y003155D01*
X031053Y003279D01*
X031120Y003440D01*
X031120Y003615D01*
X031053Y003776D01*
X030930Y003900D01*
X030768Y003967D01*
X030594Y003967D01*
X030432Y003900D01*
X030309Y003776D01*
X030242Y003615D01*
X030242Y003440D01*
X030309Y003279D01*
X030432Y003155D01*
X030418Y003170D02*
X025949Y003170D01*
X025912Y003311D02*
X025810Y003311D01*
X025716Y003350D01*
X025643Y003422D01*
X025612Y003497D01*
X025612Y003496D01*
X025539Y003424D01*
X025445Y003385D01*
X025343Y003385D01*
X025248Y003424D01*
X025176Y003496D01*
X025137Y003591D01*
X025137Y003693D01*
X025176Y003787D01*
X025248Y003860D01*
X025343Y003899D01*
X025445Y003899D01*
X025539Y003860D01*
X025612Y003787D01*
X025643Y003712D01*
X025643Y003714D01*
X025716Y003786D01*
X025810Y003825D01*
X025912Y003825D01*
X026007Y003786D01*
X026079Y003714D01*
X026118Y003619D01*
X026118Y003517D01*
X026079Y003422D01*
X026007Y003350D01*
X025912Y003311D01*
X025955Y003329D02*
X030288Y003329D01*
X030242Y003487D02*
X026106Y003487D01*
X026107Y003646D02*
X030255Y003646D01*
X030337Y003804D02*
X025963Y003804D01*
X025759Y003804D02*
X025595Y003804D01*
X025642Y004014D02*
X025736Y003975D01*
X025839Y003975D01*
X025933Y004014D01*
X026005Y004087D01*
X026045Y004181D01*
X026045Y004283D01*
X026005Y004378D01*
X025933Y004450D01*
X025839Y004489D01*
X025736Y004489D01*
X025642Y004450D01*
X025569Y004378D01*
X025530Y004283D01*
X025530Y004181D01*
X025569Y004087D01*
X025642Y004014D01*
X025555Y004121D02*
X016887Y004121D01*
X016858Y004140D02*
X016786Y004170D01*
X016709Y004185D01*
X016669Y004185D01*
X016630Y004185D01*
X016553Y004170D01*
X016480Y004140D01*
X016415Y004096D01*
X016360Y004041D01*
X016316Y003975D01*
X016286Y003903D01*
X016271Y003826D01*
X016271Y003787D01*
X016669Y003787D01*
X016669Y004185D01*
X016669Y003787D01*
X016669Y003787D01*
X016669Y003787D01*
X016271Y003787D01*
X016271Y003747D01*
X016286Y003670D01*
X016316Y003598D01*
X016360Y003532D01*
X016415Y003477D01*
X016480Y003433D01*
X016553Y003403D01*
X016630Y003388D01*
X016669Y003388D01*
X016669Y003787D01*
X017068Y003787D01*
X017068Y003826D01*
X017053Y003903D01*
X017023Y003975D01*
X016979Y004041D01*
X016923Y004096D01*
X016858Y004140D01*
X016669Y004121D02*
X016669Y004121D01*
X016669Y003963D02*
X016669Y003963D01*
X016669Y003804D02*
X016669Y003804D01*
X016669Y003787D02*
X016669Y003787D01*
X016669Y003787D01*
X017068Y003787D01*
X017068Y003747D01*
X017053Y003670D01*
X017023Y003598D01*
X016979Y003532D01*
X016923Y003477D01*
X016858Y003433D01*
X016786Y003403D01*
X016709Y003388D01*
X016669Y003388D01*
X016669Y003787D01*
X016669Y003646D02*
X016669Y003646D01*
X016669Y003487D02*
X016669Y003487D01*
X016405Y003487D02*
X014787Y003487D01*
X014824Y003329D02*
X025767Y003329D01*
X025773Y003170D02*
X022587Y003170D01*
X022587Y003171D02*
X022492Y003210D01*
X022390Y003210D01*
X022295Y003171D01*
X022223Y003098D01*
X022184Y003004D01*
X022184Y002902D01*
X022223Y002807D01*
X022295Y002735D01*
X022390Y002696D01*
X022492Y002696D01*
X022587Y002735D01*
X022659Y002807D01*
X022698Y002902D01*
X022698Y003004D01*
X022659Y003098D01*
X022587Y003171D01*
X022695Y003012D02*
X025617Y003012D01*
X025614Y002853D02*
X022678Y002853D01*
X022204Y002853D02*
X020414Y002853D01*
X020391Y002695D02*
X025753Y002695D01*
X026105Y003012D02*
X033684Y003012D01*
X033684Y003170D02*
X032969Y003170D01*
X032980Y003178D02*
X033031Y003229D01*
X033073Y003287D01*
X033106Y003351D01*
X033129Y003420D01*
X033140Y003491D01*
X033140Y003508D01*
X032701Y003508D01*
X032701Y003548D01*
X032661Y003548D01*
X032661Y003986D01*
X032645Y003986D01*
X032574Y003975D01*
X032505Y003953D01*
X032441Y003920D01*
X032382Y003877D01*
X032331Y003826D01*
X032289Y003768D01*
X032256Y003704D01*
X032234Y003635D01*
X032222Y003564D01*
X032222Y003548D01*
X032661Y003548D01*
X032661Y003508D01*
X032222Y003508D01*
X032222Y003491D01*
X032234Y003420D01*
X032256Y003351D01*
X032289Y003287D01*
X032331Y003229D01*
X032382Y003178D01*
X032441Y003135D01*
X032505Y003102D01*
X032574Y003080D01*
X032645Y003069D01*
X032661Y003069D01*
X032661Y003508D01*
X032701Y003508D01*
X032701Y003069D01*
X032717Y003069D01*
X032789Y003080D01*
X032857Y003102D01*
X032922Y003135D01*
X032980Y003178D01*
X033095Y003329D02*
X033684Y003329D01*
X033684Y003487D02*
X033139Y003487D01*
X033140Y003548D02*
X033140Y003564D01*
X033129Y003635D01*
X033106Y003704D01*
X033073Y003768D01*
X033031Y003826D01*
X032980Y003877D01*
X032922Y003920D01*
X032857Y003953D01*
X032789Y003975D01*
X032717Y003986D01*
X032701Y003986D01*
X032701Y003548D01*
X033140Y003548D01*
X033125Y003646D02*
X033684Y003646D01*
X033684Y003804D02*
X033047Y003804D01*
X032827Y003963D02*
X033684Y003963D01*
X033684Y004121D02*
X032894Y004121D01*
X032922Y004135D02*
X032980Y004178D01*
X033031Y004229D01*
X033073Y004287D01*
X033106Y004351D01*
X033129Y004420D01*
X033140Y004491D01*
X033140Y004508D01*
X032701Y004508D01*
X032701Y004548D01*
X032661Y004548D01*
X032661Y004986D01*
X032645Y004986D01*
X032574Y004975D01*
X032505Y004953D01*
X032441Y004920D01*
X032382Y004877D01*
X032331Y004826D01*
X032289Y004768D01*
X032256Y004704D01*
X032234Y004635D01*
X032222Y004564D01*
X032222Y004548D01*
X032661Y004548D01*
X032661Y004508D01*
X032222Y004508D01*
X032222Y004491D01*
X032234Y004420D01*
X032256Y004351D01*
X032289Y004287D01*
X032331Y004229D01*
X032382Y004178D01*
X032441Y004135D01*
X032505Y004102D01*
X032574Y004080D01*
X032645Y004069D01*
X032661Y004069D01*
X032661Y004508D01*
X032701Y004508D01*
X032701Y004069D01*
X032717Y004069D01*
X032789Y004080D01*
X032857Y004102D01*
X032922Y004135D01*
X033068Y004280D02*
X033684Y004280D01*
X033684Y004438D02*
X033131Y004438D01*
X033140Y004548D02*
X033140Y004564D01*
X033129Y004635D01*
X033106Y004704D01*
X033073Y004768D01*
X033031Y004826D01*
X032980Y004877D01*
X032922Y004920D01*
X032857Y004953D01*
X032789Y004975D01*
X032717Y004986D01*
X032701Y004986D01*
X032701Y004548D01*
X033140Y004548D01*
X033135Y004597D02*
X033684Y004597D01*
X033684Y004755D02*
X033080Y004755D01*
X032930Y004914D02*
X033684Y004914D01*
X033684Y005072D02*
X032737Y005072D01*
X032717Y005069D02*
X032789Y005080D01*
X032857Y005102D01*
X032922Y005135D01*
X032980Y005178D01*
X033031Y005229D01*
X033073Y005287D01*
X033106Y005351D01*
X033129Y005420D01*
X033140Y005491D01*
X033140Y005508D01*
X032701Y005508D01*
X032701Y005548D01*
X032661Y005548D01*
X032661Y005986D01*
X032645Y005986D01*
X032574Y005975D01*
X032505Y005953D01*
X032441Y005920D01*
X032382Y005877D01*
X032331Y005826D01*
X032289Y005768D01*
X032256Y005704D01*
X032234Y005635D01*
X032222Y005564D01*
X032222Y005548D01*
X032661Y005548D01*
X032661Y005508D01*
X032222Y005508D01*
X032222Y005491D01*
X032234Y005420D01*
X032256Y005351D01*
X032289Y005287D01*
X032331Y005229D01*
X032382Y005178D01*
X032441Y005135D01*
X032505Y005102D01*
X032574Y005080D01*
X032645Y005069D01*
X032661Y005069D01*
X032661Y005508D01*
X032701Y005508D01*
X032701Y005069D01*
X032717Y005069D01*
X032701Y005072D02*
X032661Y005072D01*
X032625Y005072D02*
X028629Y005072D01*
X028594Y005058D02*
X028689Y005097D01*
X028761Y005169D01*
X028800Y005264D01*
X028800Y005366D01*
X028761Y005461D01*
X028689Y005533D01*
X028594Y005572D01*
X028492Y005572D01*
X028398Y005533D01*
X028325Y005461D01*
X028286Y005366D01*
X028286Y005264D01*
X028325Y005169D01*
X028398Y005097D01*
X028492Y005058D01*
X028594Y005058D01*
X028458Y005072D02*
X026591Y005072D01*
X026596Y005067D02*
X026524Y005139D01*
X026429Y005178D01*
X026327Y005178D01*
X026232Y005139D01*
X026160Y005067D01*
X026121Y004972D01*
X026121Y004870D01*
X026160Y004776D01*
X026232Y004703D01*
X026327Y004664D01*
X026429Y004664D01*
X026524Y004703D01*
X026596Y004776D01*
X026635Y004870D01*
X026635Y004972D01*
X026596Y005067D01*
X026635Y004914D02*
X030466Y004914D01*
X030432Y004900D02*
X030309Y004776D01*
X030242Y004615D01*
X030242Y004440D01*
X030309Y004279D01*
X030432Y004155D01*
X030594Y004089D01*
X030768Y004089D01*
X030930Y004155D01*
X031053Y004279D01*
X031120Y004440D01*
X031120Y004615D01*
X031053Y004776D01*
X030930Y004900D01*
X030768Y004967D01*
X030594Y004967D01*
X030432Y004900D01*
X030300Y004755D02*
X028273Y004755D01*
X028295Y004746D02*
X028201Y004785D01*
X028098Y004785D01*
X028004Y004746D01*
X027932Y004673D01*
X027892Y004579D01*
X027892Y004476D01*
X027932Y004382D01*
X028004Y004310D01*
X028098Y004270D01*
X028201Y004270D01*
X028295Y004310D01*
X028368Y004382D01*
X028407Y004476D01*
X028407Y004579D01*
X028368Y004673D01*
X028295Y004746D01*
X028399Y004597D02*
X030242Y004597D01*
X030243Y004438D02*
X028391Y004438D01*
X028223Y004280D02*
X030309Y004280D01*
X030515Y004121D02*
X026020Y004121D01*
X026045Y004280D02*
X028076Y004280D01*
X027908Y004438D02*
X025945Y004438D01*
X025629Y004438D02*
X010855Y004438D01*
X010825Y004408D02*
X010897Y004480D01*
X010936Y004575D01*
X010936Y004677D01*
X010897Y004772D01*
X010861Y004808D01*
X010887Y004870D01*
X010887Y004972D01*
X010848Y005067D01*
X010776Y005139D01*
X010681Y005178D01*
X010579Y005178D01*
X010484Y005139D01*
X010412Y005067D01*
X010373Y004972D01*
X010373Y004870D01*
X010412Y004776D01*
X010448Y004740D01*
X010422Y004677D01*
X010422Y004575D01*
X010461Y004480D01*
X010533Y004408D01*
X010628Y004369D01*
X010730Y004369D01*
X010825Y004408D01*
X010936Y004597D02*
X022412Y004597D01*
X022420Y004579D02*
X022492Y004506D01*
X022587Y004467D01*
X022689Y004467D01*
X022783Y004506D01*
X022856Y004579D01*
X022895Y004673D01*
X022895Y004776D01*
X022856Y004870D01*
X022783Y004942D01*
X022689Y004982D01*
X022587Y004982D01*
X022492Y004942D01*
X022420Y004870D01*
X022381Y004776D01*
X022381Y004673D01*
X022420Y004579D01*
X022381Y004755D02*
X010904Y004755D01*
X010887Y004914D02*
X022463Y004914D01*
X022812Y004914D02*
X026121Y004914D01*
X026165Y005072D02*
X010843Y005072D01*
X010417Y005072D02*
X004219Y005072D01*
X004185Y005058D02*
X004280Y005097D01*
X004352Y005169D01*
X004391Y005264D01*
X004391Y005366D01*
X004352Y005461D01*
X004280Y005533D01*
X004185Y005572D01*
X004083Y005572D01*
X003988Y005533D01*
X003916Y005461D01*
X003877Y005366D01*
X003877Y005264D01*
X003916Y005169D01*
X003988Y005097D01*
X004083Y005058D01*
X004185Y005058D01*
X004048Y005072D02*
X002432Y005072D01*
X002464Y005040D02*
X002349Y005155D01*
X002198Y005218D01*
X002034Y005218D01*
X001883Y005155D01*
X001768Y005040D01*
X001705Y004889D01*
X001705Y004725D01*
X001768Y004574D01*
X001883Y004459D01*
X001993Y004413D01*
X001883Y004368D01*
X001768Y004252D01*
X001705Y004101D01*
X001705Y003938D01*
X001768Y003787D01*
X001883Y003672D01*
X002034Y003609D01*
X002198Y003609D01*
X002349Y003672D01*
X002464Y003787D01*
X002527Y003938D01*
X002527Y004101D01*
X002464Y004252D01*
X002349Y004368D01*
X002239Y004413D01*
X002349Y004459D01*
X002464Y004574D01*
X002527Y004725D01*
X002527Y004889D01*
X002464Y005040D01*
X002517Y004914D02*
X010373Y004914D01*
X010432Y004755D02*
X009104Y004755D01*
X009127Y004746D02*
X009032Y004785D01*
X008930Y004785D01*
X008836Y004746D01*
X008763Y004673D01*
X008724Y004579D01*
X008724Y004476D01*
X008763Y004382D01*
X008836Y004310D01*
X008930Y004270D01*
X009032Y004270D01*
X009127Y004310D01*
X009199Y004382D01*
X009238Y004476D01*
X009238Y004579D01*
X009199Y004673D01*
X009127Y004746D01*
X009231Y004597D02*
X010422Y004597D01*
X010503Y004438D02*
X009223Y004438D01*
X009054Y004280D02*
X025530Y004280D01*
X026181Y004755D02*
X022895Y004755D01*
X022863Y004597D02*
X027900Y004597D01*
X028027Y004755D02*
X026575Y004755D01*
X026130Y005294D02*
X026035Y005255D01*
X025933Y005255D01*
X025839Y005294D01*
X025766Y005366D01*
X025727Y005461D01*
X025727Y005563D01*
X025766Y005657D01*
X025839Y005730D01*
X025933Y005769D01*
X026035Y005769D01*
X026130Y005730D01*
X026202Y005657D01*
X026241Y005563D01*
X026241Y005461D01*
X026202Y005366D01*
X026130Y005294D01*
X026212Y005389D02*
X028296Y005389D01*
X028300Y005231D02*
X004377Y005231D01*
X004382Y005389D02*
X005275Y005389D01*
X005268Y005392D02*
X005362Y005353D01*
X005465Y005353D01*
X005559Y005392D01*
X005631Y005465D01*
X005671Y005559D01*
X005671Y005661D01*
X005631Y005756D01*
X005559Y005828D01*
X005465Y005867D01*
X005362Y005867D01*
X005268Y005828D01*
X005195Y005756D01*
X005156Y005661D01*
X005156Y005559D01*
X005195Y005465D01*
X005268Y005392D01*
X005161Y005548D02*
X004244Y005548D01*
X004185Y005648D02*
X004280Y005687D01*
X004352Y005760D01*
X004391Y005854D01*
X004391Y005957D01*
X004352Y006051D01*
X004280Y006124D01*
X004185Y006163D01*
X004083Y006163D01*
X003988Y006124D01*
X003916Y006051D01*
X003877Y005957D01*
X003877Y005854D01*
X003916Y005760D01*
X003988Y005687D01*
X004083Y005648D01*
X004185Y005648D01*
X004298Y005706D02*
X005175Y005706D01*
X005355Y005865D02*
X004391Y005865D01*
X004364Y006023D02*
X009810Y006023D01*
X009821Y006051D02*
X009782Y005957D01*
X009782Y005854D01*
X009821Y005760D01*
X009873Y005709D01*
X009821Y005657D01*
X009782Y005563D01*
X009782Y005461D01*
X009821Y005366D01*
X009894Y005294D01*
X009988Y005255D01*
X010091Y005255D01*
X010185Y005294D01*
X010257Y005366D01*
X010297Y005461D01*
X010297Y005563D01*
X010257Y005657D01*
X010206Y005709D01*
X010257Y005760D01*
X010297Y005854D01*
X010297Y005957D01*
X010257Y006051D01*
X010206Y006102D01*
X010257Y006154D01*
X010297Y006248D01*
X010297Y006350D01*
X010257Y006445D01*
X010206Y006496D01*
X010212Y006501D01*
X010238Y006475D01*
X010333Y006436D01*
X010435Y006436D01*
X010530Y006475D01*
X010602Y006547D01*
X010641Y006642D01*
X010641Y006744D01*
X010602Y006839D01*
X010530Y006911D01*
X010435Y006950D01*
X010333Y006950D01*
X010238Y006911D01*
X010212Y006884D01*
X010206Y006890D01*
X010257Y006941D01*
X010297Y007035D01*
X010297Y007138D01*
X010257Y007232D01*
X010185Y007305D01*
X010091Y007344D01*
X009988Y007344D01*
X009894Y007305D01*
X009821Y007232D01*
X009782Y007138D01*
X009782Y007035D01*
X009821Y006941D01*
X009873Y006890D01*
X009821Y006839D01*
X009782Y006744D01*
X009782Y006642D01*
X009821Y006547D01*
X009873Y006496D01*
X009821Y006445D01*
X009782Y006350D01*
X009782Y006248D01*
X009821Y006154D01*
X009873Y006102D01*
X009821Y006051D01*
X009810Y006182D02*
X002247Y006182D01*
X002198Y006202D02*
X002034Y006202D01*
X001883Y006140D01*
X001768Y006024D01*
X001705Y005873D01*
X001705Y005710D01*
X001768Y005559D01*
X001883Y005443D01*
X002034Y005381D01*
X002198Y005381D01*
X002349Y005443D01*
X002464Y005559D01*
X002527Y005710D01*
X002527Y005873D01*
X002464Y006024D01*
X002349Y006140D01*
X002198Y006202D01*
X001985Y006182D02*
X000300Y006182D01*
X000300Y006340D02*
X000552Y006340D01*
X000394Y006499D02*
X000300Y006499D01*
X000300Y006657D02*
X000306Y006657D01*
X000300Y006023D02*
X001768Y006023D01*
X001705Y005865D02*
X000300Y005865D01*
X000300Y005706D02*
X001707Y005706D01*
X001779Y005548D02*
X000300Y005548D01*
X000300Y005389D02*
X002014Y005389D01*
X002218Y005389D02*
X003886Y005389D01*
X003890Y005231D02*
X000300Y005231D01*
X000300Y005072D02*
X001800Y005072D01*
X001716Y004914D02*
X000300Y004914D01*
X000300Y004755D02*
X001705Y004755D01*
X001759Y004597D02*
X000300Y004597D01*
X000300Y004438D02*
X001934Y004438D01*
X001795Y004280D02*
X000300Y004280D01*
X000300Y004121D02*
X001714Y004121D01*
X001705Y003963D02*
X000300Y003963D01*
X000300Y003804D02*
X001761Y003804D01*
X001946Y003646D02*
X000300Y003646D01*
X000300Y002536D02*
X000623Y002536D01*
X000443Y002378D02*
X000290Y002378D01*
X000306Y002219D02*
X000326Y002219D01*
X002127Y002605D02*
X002150Y002605D01*
X002217Y002616D01*
X002281Y002637D01*
X002342Y002667D01*
X002397Y002707D01*
X002444Y002755D01*
X002484Y002810D01*
X002515Y002870D01*
X002536Y002935D01*
X002547Y003002D01*
X002547Y003025D01*
X002127Y003025D01*
X002127Y002605D01*
X002127Y002695D02*
X002106Y002695D01*
X002106Y002853D02*
X002127Y002853D01*
X002127Y003012D02*
X002106Y003012D01*
X002106Y003170D02*
X002127Y003170D01*
X002127Y003329D02*
X002106Y003329D01*
X002432Y003329D02*
X012414Y003329D01*
X012341Y003170D02*
X006446Y003170D01*
X006445Y003171D02*
X006350Y003210D01*
X006248Y003210D01*
X006154Y003171D01*
X006081Y003098D01*
X006042Y003004D01*
X006042Y002902D01*
X006081Y002807D01*
X006154Y002735D01*
X006248Y002696D01*
X006350Y002696D01*
X006445Y002735D01*
X006517Y002807D01*
X006556Y002902D01*
X006556Y003004D01*
X006517Y003098D01*
X006445Y003171D01*
X006553Y003012D02*
X012377Y003012D01*
X012399Y002728D02*
X012248Y002665D01*
X012132Y002550D01*
X012087Y002440D01*
X012041Y002550D01*
X011926Y002665D01*
X011775Y002728D01*
X011611Y002728D01*
X011460Y002665D01*
X011345Y002550D01*
X011282Y002399D01*
X011282Y002235D01*
X011345Y002084D01*
X011460Y001969D01*
X011611Y001906D01*
X011775Y001906D01*
X011926Y001969D01*
X012041Y002084D01*
X012087Y002194D01*
X012132Y002084D01*
X012248Y001969D01*
X012399Y001906D01*
X012562Y001906D01*
X012713Y001969D01*
X012828Y002084D01*
X012891Y002235D01*
X012891Y002399D01*
X012828Y002550D01*
X012713Y002665D01*
X012562Y002728D01*
X012399Y002728D01*
X012319Y002695D02*
X011855Y002695D01*
X012047Y002536D02*
X012127Y002536D01*
X012156Y002061D02*
X012017Y002061D01*
X011369Y002061D02*
X011033Y002061D01*
X011057Y002084D02*
X011119Y002235D01*
X011119Y002399D01*
X011057Y002550D01*
X010941Y002665D01*
X010790Y002728D01*
X010627Y002728D01*
X010476Y002665D01*
X010360Y002550D01*
X010298Y002399D01*
X010298Y002235D01*
X010360Y002084D01*
X010476Y001969D01*
X010627Y001906D01*
X010790Y001906D01*
X010941Y001969D01*
X011057Y002084D01*
X011113Y002219D02*
X011289Y002219D01*
X011282Y002378D02*
X011119Y002378D01*
X011062Y002536D02*
X011339Y002536D01*
X011531Y002695D02*
X010870Y002695D01*
X010547Y002695D02*
X006922Y002695D01*
X006940Y002685D02*
X006880Y002716D01*
X006815Y002737D01*
X006748Y002747D01*
X006725Y002747D01*
X006725Y002327D01*
X007145Y002327D01*
X007145Y002351D01*
X007134Y002418D01*
X007113Y002482D01*
X007083Y002543D01*
X007043Y002597D01*
X006995Y002645D01*
X006940Y002685D01*
X007086Y002536D02*
X010355Y002536D01*
X010298Y002378D02*
X007141Y002378D01*
X007145Y002306D02*
X006725Y002306D01*
X006725Y001887D01*
X006748Y001887D01*
X006815Y001897D01*
X006880Y001918D01*
X006940Y001949D01*
X006995Y001989D01*
X007043Y002037D01*
X007083Y002091D01*
X007113Y002152D01*
X007134Y002216D01*
X007145Y002283D01*
X007145Y002306D01*
X007135Y002219D02*
X010305Y002219D01*
X010384Y002061D02*
X009681Y002061D01*
X010005Y001902D02*
X013349Y001902D01*
X013364Y001897D02*
X013431Y001887D01*
X013454Y001887D01*
X013454Y002306D01*
X013475Y002306D01*
X013475Y001887D01*
X013498Y001887D01*
X013565Y001897D01*
X013630Y001918D01*
X013690Y001949D01*
X013745Y001989D01*
X013793Y002037D01*
X013833Y002091D01*
X013863Y002152D01*
X013884Y002216D01*
X013895Y002283D01*
X013895Y002306D01*
X013475Y002306D01*
X013475Y002327D01*
X013895Y002327D01*
X013895Y002351D01*
X013884Y002418D01*
X013863Y002482D01*
X013833Y002543D01*
X013793Y002597D01*
X013745Y002645D01*
X013690Y002685D01*
X013630Y002716D01*
X013565Y002737D01*
X013498Y002747D01*
X013475Y002747D01*
X013475Y002327D01*
X013454Y002327D01*
X013454Y002306D01*
X013034Y002306D01*
X013034Y002283D01*
X013045Y002216D01*
X013066Y002152D01*
X013096Y002091D01*
X013136Y002037D01*
X013184Y001989D01*
X013239Y001949D01*
X013299Y001918D01*
X013364Y001897D01*
X013454Y001902D02*
X013475Y001902D01*
X013580Y001902D02*
X014168Y001902D01*
X014010Y001744D02*
X010164Y001744D01*
X010247Y001585D02*
X013926Y001585D01*
X013861Y001427D02*
X010312Y001427D01*
X010318Y001268D02*
X013855Y001268D01*
X013855Y001110D02*
X010318Y001110D01*
X010262Y000951D02*
X013911Y000951D01*
X013977Y000793D02*
X010196Y000793D01*
X010041Y000634D02*
X014132Y000634D01*
X015214Y000634D02*
X023805Y000634D01*
X023798Y000642D02*
X023870Y000569D01*
X023965Y000530D01*
X024067Y000530D01*
X024161Y000569D01*
X024234Y000642D01*
X024273Y000736D01*
X024273Y000839D01*
X024234Y000933D01*
X024161Y001005D01*
X024067Y001045D01*
X023965Y001045D01*
X023870Y001005D01*
X023798Y000933D01*
X023759Y000839D01*
X023759Y000736D01*
X023798Y000642D01*
X023759Y000793D02*
X015369Y000793D01*
X015435Y000951D02*
X023816Y000951D01*
X024216Y000951D02*
X025587Y000951D01*
X025569Y000933D02*
X025530Y000839D01*
X025530Y000736D01*
X025569Y000642D01*
X025642Y000569D01*
X025736Y000530D01*
X025839Y000530D01*
X025933Y000569D01*
X026005Y000642D01*
X026045Y000736D01*
X026045Y000839D01*
X026005Y000933D01*
X025933Y001005D01*
X025839Y001045D01*
X025736Y001045D01*
X025642Y001005D01*
X025569Y000933D01*
X025530Y000793D02*
X024273Y000793D01*
X024226Y000634D02*
X025577Y000634D01*
X025998Y000634D02*
X032905Y000634D01*
X033172Y000793D02*
X026045Y000793D01*
X025987Y000951D02*
X033330Y000951D01*
X033454Y001110D02*
X032871Y001110D01*
X032857Y001102D02*
X032922Y001135D01*
X032980Y001178D01*
X033031Y001229D01*
X033073Y001287D01*
X033106Y001351D01*
X033129Y001420D01*
X033140Y001491D01*
X033140Y001508D01*
X032701Y001508D01*
X032701Y001548D01*
X032661Y001548D01*
X032661Y001986D01*
X032645Y001986D01*
X032574Y001975D01*
X032505Y001953D01*
X032441Y001920D01*
X032382Y001877D01*
X032331Y001826D01*
X032289Y001768D01*
X032256Y001704D01*
X032234Y001635D01*
X032222Y001564D01*
X032222Y001548D01*
X032661Y001548D01*
X032661Y001508D01*
X032222Y001508D01*
X032222Y001491D01*
X032234Y001420D01*
X032256Y001351D01*
X032289Y001287D01*
X032331Y001229D01*
X032382Y001178D01*
X032441Y001135D01*
X032505Y001102D01*
X032574Y001080D01*
X032645Y001069D01*
X032661Y001069D01*
X032661Y001508D01*
X032701Y001508D01*
X032701Y001069D01*
X032717Y001069D01*
X032789Y001080D01*
X032857Y001102D01*
X032701Y001110D02*
X032661Y001110D01*
X032661Y001268D02*
X032701Y001268D01*
X032701Y001427D02*
X032661Y001427D01*
X032701Y001548D02*
X033140Y001548D01*
X033140Y001564D01*
X033129Y001635D01*
X033106Y001704D01*
X033073Y001768D01*
X033031Y001826D01*
X032980Y001877D01*
X032922Y001920D01*
X032857Y001953D01*
X032789Y001975D01*
X032717Y001986D01*
X032701Y001986D01*
X032701Y001548D01*
X032701Y001585D02*
X032661Y001585D01*
X032661Y001744D02*
X032701Y001744D01*
X032701Y001902D02*
X032661Y001902D01*
X032661Y002069D02*
X032661Y002508D01*
X032222Y002508D01*
X032222Y002491D01*
X032234Y002420D01*
X032256Y002351D01*
X032289Y002287D01*
X032331Y002229D01*
X032382Y002178D01*
X032441Y002135D01*
X032505Y002102D01*
X032574Y002080D01*
X032645Y002069D01*
X032661Y002069D01*
X032701Y002069D02*
X032717Y002069D01*
X032789Y002080D01*
X032857Y002102D01*
X032922Y002135D01*
X032980Y002178D01*
X033031Y002229D01*
X033073Y002287D01*
X033106Y002351D01*
X033129Y002420D01*
X033140Y002491D01*
X033140Y002508D01*
X032701Y002508D01*
X032701Y002548D01*
X032661Y002548D01*
X032661Y002986D01*
X032645Y002986D01*
X032574Y002975D01*
X032505Y002953D01*
X032441Y002920D01*
X032382Y002877D01*
X032331Y002826D01*
X032289Y002768D01*
X032256Y002704D01*
X032234Y002635D01*
X032222Y002564D01*
X032222Y002548D01*
X032661Y002548D01*
X032661Y002508D01*
X032701Y002508D01*
X032701Y002069D01*
X032701Y002219D02*
X032661Y002219D01*
X032661Y002378D02*
X032701Y002378D01*
X032701Y002536D02*
X033684Y002536D01*
X033684Y002378D02*
X033115Y002378D01*
X033140Y002548D02*
X033140Y002564D01*
X033129Y002635D01*
X033106Y002704D01*
X033073Y002768D01*
X033031Y002826D01*
X032980Y002877D01*
X032922Y002920D01*
X032857Y002953D01*
X032789Y002975D01*
X032717Y002986D01*
X032701Y002986D01*
X032701Y002548D01*
X033140Y002548D01*
X033109Y002695D02*
X033684Y002695D01*
X033684Y002853D02*
X033004Y002853D01*
X032701Y002853D02*
X032661Y002853D01*
X032661Y002695D02*
X032701Y002695D01*
X032661Y002536D02*
X032120Y002536D01*
X032120Y002615D02*
X032120Y002440D01*
X032053Y002279D01*
X031930Y002155D01*
X031768Y002089D01*
X031594Y002089D01*
X031432Y002155D01*
X031309Y002279D01*
X031242Y002440D01*
X031242Y002615D01*
X031309Y002776D01*
X031432Y002900D01*
X031594Y002967D01*
X031768Y002967D01*
X031930Y002900D01*
X032053Y002776D01*
X032120Y002615D01*
X032087Y002695D02*
X032253Y002695D01*
X032358Y002853D02*
X031977Y002853D01*
X031930Y003155D02*
X031768Y003089D01*
X031594Y003089D01*
X031432Y003155D01*
X031309Y003279D01*
X031242Y003440D01*
X031242Y003615D01*
X031309Y003776D01*
X031432Y003900D01*
X031594Y003967D01*
X031768Y003967D01*
X031930Y003900D01*
X032053Y003776D01*
X032120Y003615D01*
X032120Y003440D01*
X032053Y003279D01*
X031930Y003155D01*
X031944Y003170D02*
X032393Y003170D01*
X032268Y003329D02*
X032074Y003329D01*
X032120Y003487D02*
X032223Y003487D01*
X032237Y003646D02*
X032107Y003646D01*
X032026Y003804D02*
X032315Y003804D01*
X032535Y003963D02*
X031778Y003963D01*
X031768Y004089D02*
X031930Y004155D01*
X032053Y004279D01*
X032120Y004440D01*
X032120Y004615D01*
X032053Y004776D01*
X031930Y004900D01*
X031768Y004967D01*
X031594Y004967D01*
X031432Y004900D01*
X031309Y004776D01*
X031242Y004615D01*
X031242Y004440D01*
X031309Y004279D01*
X031432Y004155D01*
X031594Y004089D01*
X031768Y004089D01*
X031847Y004121D02*
X032469Y004121D01*
X032661Y004121D02*
X032701Y004121D01*
X032701Y003963D02*
X032661Y003963D01*
X032661Y003804D02*
X032701Y003804D01*
X032701Y003646D02*
X032661Y003646D01*
X032661Y003487D02*
X032701Y003487D01*
X032701Y003329D02*
X032661Y003329D01*
X032661Y003170D02*
X032701Y003170D01*
X032248Y002378D02*
X032094Y002378D01*
X031993Y002219D02*
X032341Y002219D01*
X032416Y001902D02*
X031924Y001902D01*
X031930Y001900D02*
X031768Y001967D01*
X031594Y001967D01*
X031432Y001900D01*
X031309Y001776D01*
X031242Y001615D01*
X031242Y001440D01*
X031309Y001279D01*
X031432Y001155D01*
X031594Y001089D01*
X031768Y001089D01*
X031930Y001155D01*
X032053Y001279D01*
X032120Y001440D01*
X032120Y001615D01*
X032053Y001776D01*
X031930Y001900D01*
X032067Y001744D02*
X032276Y001744D01*
X032226Y001585D02*
X032120Y001585D01*
X032114Y001427D02*
X032233Y001427D01*
X032303Y001268D02*
X032042Y001268D01*
X031819Y001110D02*
X032491Y001110D01*
X033060Y001268D02*
X033546Y001268D01*
X033608Y001427D02*
X033130Y001427D01*
X033136Y001585D02*
X033650Y001585D01*
X033677Y001744D02*
X033086Y001744D01*
X032946Y001902D02*
X033684Y001902D01*
X033684Y002061D02*
X016873Y002061D01*
X016884Y002065D02*
X016991Y002172D01*
X017048Y002311D01*
X017048Y002462D01*
X016991Y002601D01*
X016884Y002708D01*
X016745Y002766D01*
X016594Y002766D01*
X016455Y002708D01*
X016348Y002601D01*
X016290Y002462D01*
X016290Y002311D01*
X016348Y002172D01*
X016455Y002065D01*
X016594Y002008D01*
X016745Y002008D01*
X016884Y002065D01*
X017010Y002219D02*
X030369Y002219D01*
X030268Y002378D02*
X017048Y002378D01*
X017018Y002536D02*
X019746Y002536D01*
X019640Y002695D02*
X016897Y002695D01*
X016441Y002695D02*
X013672Y002695D01*
X013475Y002695D02*
X013454Y002695D01*
X013454Y002747D02*
X013431Y002747D01*
X013364Y002737D01*
X013299Y002716D01*
X013239Y002685D01*
X013184Y002645D01*
X013136Y002597D01*
X013096Y002543D01*
X013066Y002482D01*
X013045Y002418D01*
X013034Y002351D01*
X013034Y002327D01*
X013454Y002327D01*
X013454Y002747D01*
X013258Y002695D02*
X012642Y002695D01*
X012834Y002536D02*
X013093Y002536D01*
X013038Y002378D02*
X012891Y002378D01*
X012884Y002219D02*
X013044Y002219D01*
X013119Y002061D02*
X012805Y002061D01*
X013454Y002061D02*
X013475Y002061D01*
X013475Y002219D02*
X013454Y002219D01*
X013454Y002378D02*
X013475Y002378D01*
X013475Y002536D02*
X013454Y002536D01*
X013836Y002536D02*
X016321Y002536D01*
X016290Y002378D02*
X013891Y002378D01*
X013885Y002219D02*
X016328Y002219D01*
X016466Y002061D02*
X014855Y002061D01*
X015178Y001902D02*
X030438Y001902D01*
X030432Y001900D02*
X030309Y001776D01*
X030242Y001615D01*
X030242Y001440D01*
X030309Y001279D01*
X030432Y001155D01*
X030594Y001089D01*
X030768Y001089D01*
X030930Y001155D01*
X031053Y001279D01*
X031120Y001440D01*
X031120Y001615D01*
X031053Y001776D01*
X030930Y001900D01*
X030768Y001967D01*
X030594Y001967D01*
X030432Y001900D01*
X030295Y001744D02*
X020238Y001744D01*
X020230Y001751D02*
X020091Y001809D01*
X019940Y001809D01*
X019801Y001751D01*
X019694Y001645D01*
X019637Y001505D01*
X019637Y001355D01*
X019694Y001215D01*
X019801Y001109D01*
X019940Y001051D01*
X020091Y001051D01*
X020230Y001109D01*
X020337Y001215D01*
X020395Y001355D01*
X020395Y001505D01*
X020337Y001645D01*
X020230Y001751D01*
X020362Y001585D02*
X027107Y001585D01*
X027118Y001596D02*
X027046Y001524D01*
X027007Y001429D01*
X027007Y001327D01*
X027046Y001232D01*
X027118Y001160D01*
X027213Y001121D01*
X027315Y001121D01*
X027409Y001160D01*
X027482Y001232D01*
X027521Y001327D01*
X027521Y001429D01*
X027482Y001524D01*
X027409Y001596D01*
X027315Y001635D01*
X027213Y001635D01*
X027118Y001596D01*
X027007Y001427D02*
X020395Y001427D01*
X020359Y001268D02*
X027031Y001268D01*
X027497Y001268D02*
X030320Y001268D01*
X030248Y001427D02*
X027521Y001427D01*
X027420Y001585D02*
X030242Y001585D01*
X030543Y001110D02*
X020231Y001110D01*
X019800Y001110D02*
X015491Y001110D01*
X015491Y001268D02*
X019673Y001268D01*
X019637Y001427D02*
X015486Y001427D01*
X015420Y001585D02*
X019670Y001585D01*
X019793Y001744D02*
X015337Y001744D01*
X014492Y002061D02*
X013810Y002061D01*
X012820Y003012D02*
X019659Y003012D01*
X019617Y002853D02*
X006536Y002853D01*
X006549Y002716D02*
X006489Y002685D01*
X006434Y002645D01*
X006386Y002597D01*
X006346Y002543D01*
X006316Y002482D01*
X006295Y002418D01*
X006284Y002351D01*
X006284Y002327D01*
X006704Y002327D01*
X006704Y002306D01*
X006725Y002306D01*
X006725Y002327D01*
X006704Y002327D01*
X006704Y002747D01*
X006681Y002747D01*
X006614Y002737D01*
X006549Y002716D01*
X006508Y002695D02*
X005892Y002695D01*
X005963Y002665D02*
X005812Y002728D01*
X005649Y002728D01*
X005498Y002665D01*
X005382Y002550D01*
X005337Y002440D01*
X005291Y002550D01*
X005176Y002665D01*
X005025Y002728D01*
X004861Y002728D01*
X004710Y002665D01*
X004595Y002550D01*
X004532Y002399D01*
X004532Y002235D01*
X004595Y002084D01*
X004710Y001969D01*
X004861Y001906D01*
X005025Y001906D01*
X005176Y001969D01*
X005291Y002084D01*
X005337Y002194D01*
X005382Y002084D01*
X005498Y001969D01*
X005649Y001906D01*
X005812Y001906D01*
X005963Y001969D01*
X006078Y002084D01*
X006141Y002235D01*
X006141Y002399D01*
X006078Y002550D01*
X005963Y002665D01*
X006084Y002536D02*
X006343Y002536D01*
X006288Y002378D02*
X006141Y002378D01*
X006134Y002219D02*
X006294Y002219D01*
X006295Y002216D02*
X006316Y002152D01*
X006346Y002091D01*
X006386Y002037D01*
X006434Y001989D01*
X006489Y001949D01*
X006549Y001918D01*
X006614Y001897D01*
X006681Y001887D01*
X006704Y001887D01*
X006704Y002306D01*
X006284Y002306D01*
X006284Y002283D01*
X006295Y002216D01*
X006369Y002061D02*
X006055Y002061D01*
X006599Y001902D02*
X003255Y001902D01*
X003414Y001744D02*
X007260Y001744D01*
X007176Y001585D02*
X003497Y001585D01*
X003562Y001427D02*
X007111Y001427D01*
X007105Y001268D02*
X003568Y001268D01*
X003568Y001110D02*
X007105Y001110D01*
X007161Y000951D02*
X003512Y000951D01*
X003446Y000793D02*
X007227Y000793D01*
X007382Y000634D02*
X003291Y000634D01*
X004283Y002061D02*
X004619Y002061D01*
X004539Y002219D02*
X004363Y002219D01*
X004369Y002378D02*
X004532Y002378D01*
X004589Y002536D02*
X004312Y002536D01*
X004120Y002695D02*
X004781Y002695D01*
X005105Y002695D02*
X005569Y002695D01*
X005377Y002536D02*
X005297Y002536D01*
X005267Y002061D02*
X005406Y002061D01*
X006062Y002853D02*
X002506Y002853D01*
X002547Y003012D02*
X006045Y003012D01*
X006153Y003170D02*
X002525Y003170D01*
X002379Y002695D02*
X003797Y002695D01*
X002471Y003804D02*
X012375Y003804D01*
X012380Y003791D02*
X012453Y003719D01*
X012547Y003680D01*
X012650Y003680D01*
X012744Y003719D01*
X012816Y003791D01*
X012856Y003886D01*
X012856Y003988D01*
X012816Y004083D01*
X012744Y004155D01*
X012650Y004194D01*
X012547Y004194D01*
X012453Y004155D01*
X012380Y004083D01*
X012341Y003988D01*
X012341Y003886D01*
X012380Y003791D01*
X012341Y003963D02*
X008263Y003963D01*
X008289Y003988D02*
X008328Y004083D01*
X008328Y004185D01*
X008289Y004280D01*
X008217Y004352D01*
X008122Y004391D01*
X008020Y004391D01*
X007925Y004352D01*
X007853Y004280D01*
X007814Y004185D01*
X007814Y004083D01*
X007853Y003988D01*
X007925Y003916D01*
X008020Y003877D01*
X008122Y003877D01*
X008217Y003916D01*
X008289Y003988D01*
X008328Y004121D02*
X012419Y004121D01*
X012778Y004121D02*
X016452Y004121D01*
X016311Y003963D02*
X012856Y003963D01*
X012822Y003804D02*
X016271Y003804D01*
X016296Y003646D02*
X002286Y003646D01*
X002527Y003963D02*
X006304Y003963D01*
X006278Y003988D02*
X006350Y003916D01*
X006445Y003877D01*
X006547Y003877D01*
X006642Y003916D01*
X006714Y003988D01*
X006753Y004083D01*
X006753Y004185D01*
X006714Y004280D01*
X006642Y004352D01*
X006547Y004391D01*
X006445Y004391D01*
X006350Y004352D01*
X006278Y004280D01*
X006239Y004185D01*
X006239Y004083D01*
X006278Y003988D01*
X006239Y004121D02*
X003500Y004121D01*
X003492Y004113D02*
X003564Y004185D01*
X003604Y004280D01*
X003604Y004382D01*
X003564Y004476D01*
X003492Y004549D01*
X003398Y004588D01*
X003295Y004588D01*
X003201Y004549D01*
X003128Y004476D01*
X003089Y004382D01*
X003089Y004280D01*
X003128Y004185D01*
X003201Y004113D01*
X003295Y004074D01*
X003398Y004074D01*
X003492Y004113D01*
X003604Y004280D02*
X006278Y004280D01*
X006714Y004280D02*
X007262Y004280D01*
X007223Y004185D01*
X007223Y004083D01*
X007262Y003988D01*
X007335Y003916D01*
X007429Y003877D01*
X007531Y003877D01*
X007626Y003916D01*
X007698Y003988D01*
X007737Y004083D01*
X007737Y004185D01*
X007698Y004280D01*
X007626Y004352D01*
X007531Y004391D01*
X007429Y004391D01*
X007335Y004352D01*
X007262Y004280D01*
X007223Y004121D02*
X006753Y004121D01*
X006688Y003963D02*
X007288Y003963D01*
X007673Y003963D02*
X007879Y003963D01*
X007814Y004121D02*
X007737Y004121D01*
X007698Y004280D02*
X007853Y004280D01*
X008289Y004280D02*
X008908Y004280D01*
X008740Y004438D02*
X003580Y004438D01*
X003192Y004121D02*
X002519Y004121D01*
X002437Y004280D02*
X003089Y004280D01*
X003113Y004438D02*
X002298Y004438D01*
X002473Y004597D02*
X008732Y004597D01*
X008858Y004755D02*
X002527Y004755D01*
X002453Y005548D02*
X004023Y005548D01*
X003970Y005706D02*
X002525Y005706D01*
X002527Y005865D02*
X003877Y005865D01*
X003904Y006023D02*
X002465Y006023D01*
X001705Y006499D02*
X009870Y006499D01*
X009782Y006657D02*
X001793Y006657D01*
X001858Y006816D02*
X009812Y006816D01*
X009808Y006974D02*
X001867Y006974D01*
X001867Y007133D02*
X009782Y007133D01*
X009880Y007291D02*
X004308Y007291D01*
X004280Y007262D02*
X004352Y007335D01*
X004391Y007429D01*
X004391Y007531D01*
X004352Y007626D01*
X004280Y007698D01*
X004185Y007737D01*
X004083Y007737D01*
X003988Y007698D01*
X003916Y007626D01*
X003877Y007531D01*
X003877Y007429D01*
X003916Y007335D01*
X003988Y007262D01*
X004083Y007223D01*
X004185Y007223D01*
X004280Y007262D01*
X004391Y007450D02*
X008539Y007450D01*
X008516Y007459D02*
X008610Y007420D01*
X008713Y007420D01*
X008807Y007459D01*
X008879Y007531D01*
X008919Y007626D01*
X008919Y007728D01*
X008879Y007823D01*
X008807Y007895D01*
X008713Y007934D01*
X008610Y007934D01*
X008516Y007895D01*
X008443Y007823D01*
X008404Y007728D01*
X008404Y007626D01*
X008443Y007531D01*
X008516Y007459D01*
X008412Y007608D02*
X004359Y007608D01*
X003959Y007291D02*
X001814Y007291D01*
X001749Y007450D02*
X003877Y007450D01*
X003908Y007608D02*
X001598Y007608D01*
X001337Y007767D02*
X008420Y007767D01*
X008588Y007925D02*
X001505Y007925D01*
X001664Y008084D02*
X010879Y008084D01*
X010865Y008118D02*
X010904Y008024D01*
X010976Y007951D01*
X011071Y007912D01*
X011173Y007912D01*
X011268Y007951D01*
X011340Y008024D01*
X011379Y008118D01*
X011379Y008220D01*
X011340Y008315D01*
X011268Y008387D01*
X011173Y008426D01*
X011071Y008426D01*
X010976Y008387D01*
X010904Y008315D01*
X010865Y008220D01*
X010865Y008118D01*
X010874Y008242D02*
X008107Y008242D01*
X008118Y008247D02*
X008190Y008319D01*
X008230Y008413D01*
X008230Y008516D01*
X008190Y008610D01*
X008120Y008681D01*
X008131Y008709D01*
X008131Y008811D01*
X008092Y008906D01*
X008020Y008978D01*
X007925Y009017D01*
X007823Y009017D01*
X007728Y008978D01*
X007656Y008906D01*
X007617Y008811D01*
X007617Y008709D01*
X007656Y008614D01*
X007727Y008543D01*
X007715Y008516D01*
X007715Y008413D01*
X007754Y008319D01*
X007827Y008247D01*
X007921Y008207D01*
X008024Y008207D01*
X008118Y008247D01*
X008224Y008401D02*
X011008Y008401D01*
X011236Y008401D02*
X012128Y008401D01*
X012084Y008419D02*
X012178Y008380D01*
X012280Y008380D01*
X012375Y008419D01*
X012447Y008491D01*
X012466Y008536D01*
X012547Y008503D01*
X012650Y008503D01*
X012744Y008542D01*
X012816Y008614D01*
X012856Y008709D01*
X012856Y008811D01*
X012816Y008906D01*
X012744Y008978D01*
X012650Y009017D01*
X012547Y009017D01*
X012453Y008978D01*
X012380Y008906D01*
X012362Y008860D01*
X012280Y008894D01*
X012178Y008894D01*
X012084Y008855D01*
X012011Y008782D01*
X011972Y008688D01*
X011972Y008586D01*
X012011Y008491D01*
X012084Y008419D01*
X011983Y008559D02*
X008212Y008559D01*
X008131Y008718D02*
X011416Y008718D01*
X011419Y008714D02*
X011514Y008675D01*
X011616Y008675D01*
X011711Y008714D01*
X011783Y008786D01*
X011822Y008881D01*
X011822Y008983D01*
X011783Y009078D01*
X011711Y009150D01*
X011616Y009189D01*
X011514Y009189D01*
X011419Y009150D01*
X011347Y009078D01*
X011308Y008983D01*
X011308Y008881D01*
X011347Y008786D01*
X011419Y008714D01*
X011310Y008876D02*
X008104Y008876D01*
X007721Y008401D02*
X006163Y008401D01*
X006163Y008417D02*
X006124Y008512D01*
X006051Y008584D01*
X005957Y008623D01*
X005854Y008623D01*
X005760Y008584D01*
X005687Y008512D01*
X005648Y008417D01*
X005648Y008315D01*
X005687Y008220D01*
X005760Y008148D01*
X005854Y008109D01*
X005957Y008109D01*
X006051Y008148D01*
X006124Y008220D01*
X006163Y008315D01*
X006163Y008417D01*
X006076Y008559D02*
X007711Y008559D01*
X007617Y008718D02*
X005538Y008718D01*
X005558Y008737D02*
X005597Y008832D01*
X005597Y008934D01*
X005558Y009029D01*
X005485Y009101D01*
X005391Y009140D01*
X005288Y009140D01*
X005194Y009101D01*
X005122Y009029D01*
X005082Y008934D01*
X005082Y008832D01*
X005122Y008737D01*
X005194Y008665D01*
X005288Y008626D01*
X005391Y008626D01*
X005485Y008665D01*
X005558Y008737D01*
X005597Y008876D02*
X007644Y008876D01*
X007838Y008242D02*
X006132Y008242D01*
X005679Y008242D02*
X001747Y008242D01*
X001813Y008401D02*
X005648Y008401D01*
X005735Y008559D02*
X001818Y008559D01*
X001818Y008718D02*
X005141Y008718D01*
X005082Y008876D02*
X001762Y008876D01*
X001696Y009035D02*
X005128Y009035D01*
X005552Y009035D02*
X011329Y009035D01*
X011045Y009303D02*
X011084Y009398D01*
X011084Y009500D01*
X011045Y009594D01*
X010972Y009667D01*
X010878Y009706D01*
X010776Y009706D01*
X010681Y009667D01*
X010609Y009594D01*
X010570Y009500D01*
X010570Y009398D01*
X010609Y009303D01*
X010681Y009231D01*
X010776Y009192D01*
X010878Y009192D01*
X010972Y009231D01*
X011045Y009303D01*
X011065Y009352D02*
X014972Y009352D01*
X014970Y009349D02*
X014912Y009210D01*
X014912Y009059D01*
X014970Y008920D01*
X015077Y008813D01*
X015216Y008756D01*
X015367Y008756D01*
X015506Y008813D01*
X015613Y008920D01*
X015670Y009059D01*
X015670Y009210D01*
X015613Y009349D01*
X015506Y009456D01*
X015367Y009514D01*
X015216Y009514D01*
X015077Y009456D01*
X014970Y009349D01*
X014912Y009193D02*
X010881Y009193D01*
X010772Y009193D02*
X001541Y009193D01*
X001268Y009352D02*
X010589Y009352D01*
X010574Y009510D02*
X002399Y009510D01*
X002395Y009505D02*
X002435Y009560D01*
X002466Y009620D01*
X002487Y009685D01*
X002497Y009752D01*
X002497Y009775D01*
X002077Y009775D01*
X002077Y009355D01*
X002101Y009355D01*
X002168Y009366D01*
X002232Y009387D01*
X002293Y009417D01*
X002347Y009457D01*
X002395Y009505D01*
X002481Y009669D02*
X006503Y009669D01*
X006475Y009697D02*
X006547Y009625D01*
X006642Y009585D01*
X006744Y009585D01*
X006839Y009625D01*
X006911Y009697D01*
X006950Y009791D01*
X006950Y009894D01*
X006911Y009988D01*
X006839Y010061D01*
X006744Y010100D01*
X006642Y010100D01*
X006547Y010061D01*
X006475Y009988D01*
X006436Y009894D01*
X006436Y009791D01*
X006475Y009697D01*
X006436Y009827D02*
X002496Y009827D01*
X002497Y009819D02*
X002487Y009886D01*
X002466Y009951D01*
X002435Y010011D01*
X002395Y010066D01*
X002347Y010114D01*
X002293Y010154D01*
X002232Y010184D01*
X002168Y010205D01*
X002101Y010216D01*
X002077Y010216D01*
X002077Y009796D01*
X002056Y009796D01*
X002056Y009775D01*
X001637Y009775D01*
X001637Y009752D01*
X001647Y009685D01*
X001668Y009620D01*
X001699Y009560D01*
X001739Y009505D01*
X001787Y009457D01*
X001841Y009417D01*
X001902Y009387D01*
X001966Y009366D01*
X002033Y009355D01*
X002056Y009355D01*
X002056Y009775D01*
X002077Y009775D01*
X002077Y009796D01*
X002497Y009796D01*
X002497Y009819D01*
X002448Y009986D02*
X006474Y009986D01*
X006912Y009986D02*
X007741Y009986D01*
X007740Y009988D02*
X007779Y009894D01*
X007851Y009821D01*
X007946Y009782D01*
X007986Y009782D01*
X007986Y009767D01*
X008025Y009672D01*
X008097Y009600D01*
X008192Y009561D01*
X008294Y009561D01*
X008389Y009600D01*
X008461Y009672D01*
X008500Y009767D01*
X008500Y009869D01*
X008461Y009964D01*
X008389Y010036D01*
X008294Y010075D01*
X008254Y010075D01*
X008254Y010091D01*
X008215Y010185D01*
X008143Y010257D01*
X008048Y010297D01*
X007946Y010297D01*
X007851Y010257D01*
X007779Y010185D01*
X007740Y010091D01*
X007740Y009988D01*
X007762Y010144D02*
X002306Y010144D01*
X002077Y010144D02*
X002056Y010144D01*
X002056Y010216D02*
X002033Y010216D01*
X001966Y010205D01*
X001902Y010184D01*
X001841Y010154D01*
X001787Y010114D01*
X001739Y010066D01*
X001699Y010011D01*
X001668Y009951D01*
X001647Y009886D01*
X001637Y009819D01*
X001637Y009796D01*
X002056Y009796D01*
X002056Y010216D01*
X001985Y010359D02*
X002149Y010359D01*
X002300Y010422D01*
X002415Y010537D01*
X002478Y010688D01*
X002478Y010851D01*
X002415Y011002D01*
X002300Y011118D01*
X002190Y011163D01*
X002300Y011209D01*
X002415Y011324D01*
X002478Y011475D01*
X002478Y011639D01*
X002415Y011790D01*
X002300Y011905D01*
X002149Y011968D01*
X001985Y011968D01*
X001834Y011905D01*
X001719Y011790D01*
X001656Y011639D01*
X001656Y011475D01*
X001719Y011324D01*
X001834Y011209D01*
X001944Y011163D01*
X001834Y011118D01*
X001719Y011002D01*
X001656Y010851D01*
X001656Y010688D01*
X001719Y010537D01*
X001834Y010422D01*
X001985Y010359D01*
X001795Y010461D02*
X000300Y010461D01*
X000300Y010303D02*
X009618Y010303D01*
X009625Y010287D02*
X009697Y010215D01*
X009791Y010176D01*
X009894Y010176D01*
X009988Y010215D01*
X010061Y010287D01*
X010100Y010382D01*
X010100Y010484D01*
X010061Y010579D01*
X009988Y010651D01*
X009894Y010690D01*
X009791Y010690D01*
X009697Y010651D01*
X009625Y010579D01*
X009585Y010484D01*
X009585Y010382D01*
X009625Y010287D01*
X009585Y010461D02*
X002339Y010461D01*
X002449Y010620D02*
X009665Y010620D01*
X010020Y010620D02*
X014902Y010620D01*
X014908Y010651D02*
X014893Y010574D01*
X014893Y010535D01*
X015291Y010535D01*
X015291Y010933D01*
X015252Y010933D01*
X015175Y010918D01*
X015102Y010888D01*
X015037Y010844D01*
X014982Y010789D01*
X014938Y010724D01*
X014908Y010651D01*
X014893Y010535D02*
X014893Y010495D01*
X014908Y010418D01*
X014938Y010346D01*
X014982Y010280D01*
X015037Y010225D01*
X015102Y010181D01*
X015175Y010151D01*
X015252Y010136D01*
X015291Y010136D01*
X015291Y010535D01*
X015291Y010535D01*
X015291Y010535D01*
X015291Y010933D01*
X015331Y010933D01*
X015408Y010918D01*
X015480Y010888D01*
X015546Y010844D01*
X015601Y010789D01*
X015645Y010724D01*
X015675Y010651D01*
X015690Y010574D01*
X015690Y010535D01*
X015291Y010535D01*
X014893Y010535D01*
X014899Y010461D02*
X010100Y010461D01*
X010067Y010303D02*
X014967Y010303D01*
X015211Y010144D02*
X010692Y010144D01*
X010677Y010159D02*
X010583Y010198D01*
X010480Y010198D01*
X010386Y010159D01*
X010313Y010087D01*
X010274Y009992D01*
X010274Y009890D01*
X010313Y009795D01*
X010386Y009723D01*
X010480Y009684D01*
X010583Y009684D01*
X010677Y009723D01*
X010750Y009795D01*
X010789Y009890D01*
X010789Y009992D01*
X010750Y010087D01*
X010677Y010159D01*
X010789Y009986D02*
X033684Y009986D01*
X033684Y010144D02*
X015371Y010144D01*
X015408Y010151D02*
X015480Y010181D01*
X015546Y010225D01*
X015601Y010280D01*
X015645Y010346D01*
X015675Y010418D01*
X015690Y010495D01*
X015690Y010535D01*
X015291Y010535D01*
X015291Y010535D01*
X015291Y010535D01*
X015291Y010136D01*
X015331Y010136D01*
X015408Y010151D01*
X015291Y010144D02*
X015291Y010144D01*
X015291Y010303D02*
X015291Y010303D01*
X015291Y010461D02*
X015291Y010461D01*
X015291Y010620D02*
X015291Y010620D01*
X015291Y010778D02*
X015291Y010778D01*
X014974Y010778D02*
X002478Y010778D01*
X002442Y010937D02*
X016884Y010937D01*
X016869Y010972D02*
X016908Y010878D01*
X016980Y010806D01*
X017075Y010766D01*
X017177Y010766D01*
X017272Y010806D01*
X017344Y010878D01*
X017383Y010972D01*
X017383Y011075D01*
X017344Y011169D01*
X017272Y011242D01*
X017177Y011281D01*
X017075Y011281D01*
X016980Y011242D01*
X016908Y011169D01*
X016869Y011075D01*
X016869Y010972D01*
X016877Y011095D02*
X003056Y011095D01*
X003048Y011075D02*
X003087Y011169D01*
X003087Y011272D01*
X003048Y011366D01*
X002975Y011438D01*
X002881Y011478D01*
X002779Y011478D01*
X002684Y011438D01*
X002612Y011366D01*
X002573Y011272D01*
X002573Y011169D01*
X002612Y011075D01*
X002684Y011002D01*
X002779Y010963D01*
X002881Y010963D01*
X002975Y011002D01*
X003048Y011075D01*
X003087Y011254D02*
X010036Y011254D01*
X010018Y011272D02*
X010091Y011199D01*
X010185Y011160D01*
X010287Y011160D01*
X010382Y011199D01*
X010454Y011272D01*
X010493Y011366D01*
X010493Y011468D01*
X010454Y011563D01*
X010382Y011635D01*
X010287Y011674D01*
X010185Y011674D01*
X010091Y011635D01*
X010018Y011563D01*
X009979Y011468D01*
X009979Y011366D01*
X010018Y011272D01*
X009979Y011412D02*
X003002Y011412D01*
X002658Y011412D02*
X002451Y011412D01*
X002478Y011571D02*
X009751Y011571D01*
X009791Y011554D02*
X009894Y011554D01*
X009988Y011593D01*
X010061Y011665D01*
X010100Y011760D01*
X010100Y011862D01*
X010061Y011957D01*
X009988Y012029D01*
X009894Y012068D01*
X009791Y012068D01*
X009697Y012029D01*
X009625Y011957D01*
X009585Y011862D01*
X009585Y011760D01*
X009625Y011665D01*
X009697Y011593D01*
X009791Y011554D01*
X009934Y011571D02*
X010026Y011571D01*
X010087Y011729D02*
X033684Y011729D01*
X033684Y011571D02*
X010447Y011571D01*
X010493Y011412D02*
X025016Y011412D01*
X025019Y011416D02*
X024896Y011292D01*
X024829Y011131D01*
X024829Y010956D01*
X024896Y010795D01*
X025019Y010671D01*
X025180Y010604D01*
X025355Y010604D01*
X025516Y010671D01*
X025640Y010795D01*
X025707Y010956D01*
X025707Y011131D01*
X025640Y011292D01*
X025516Y011416D01*
X025355Y011482D01*
X025180Y011482D01*
X025019Y011416D01*
X024880Y011254D02*
X017243Y011254D01*
X017375Y011095D02*
X024829Y011095D01*
X024837Y010937D02*
X017368Y010937D01*
X017205Y010778D02*
X022619Y010778D01*
X022617Y010776D02*
X022577Y010681D01*
X022577Y010579D01*
X022617Y010484D01*
X022689Y010412D01*
X022783Y010373D01*
X022886Y010373D01*
X022980Y010412D01*
X023053Y010484D01*
X023092Y010579D01*
X023092Y010681D01*
X023053Y010776D01*
X022980Y010848D01*
X022886Y010887D01*
X022783Y010887D01*
X022689Y010848D01*
X022617Y010776D01*
X022577Y010620D02*
X015681Y010620D01*
X015683Y010461D02*
X022640Y010461D01*
X023029Y010461D02*
X033684Y010461D01*
X033684Y010303D02*
X015616Y010303D01*
X015608Y010778D02*
X017047Y010778D01*
X017009Y011254D02*
X010436Y011254D01*
X010089Y011888D02*
X033684Y011888D01*
X033684Y012046D02*
X009947Y012046D01*
X009738Y012046D02*
X000300Y012046D01*
X000300Y011888D02*
X001817Y011888D01*
X001694Y011729D02*
X000300Y011729D01*
X000300Y011571D02*
X001656Y011571D01*
X001682Y011412D02*
X000300Y011412D01*
X000300Y011254D02*
X001790Y011254D01*
X001811Y011095D02*
X000300Y011095D01*
X000300Y010937D02*
X001691Y010937D01*
X001656Y010778D02*
X000300Y010778D01*
X000300Y010620D02*
X001685Y010620D01*
X001828Y010144D02*
X000300Y010144D01*
X000300Y009986D02*
X001686Y009986D01*
X001638Y009827D02*
X000300Y009827D01*
X000300Y009669D02*
X001652Y009669D01*
X001735Y009510D02*
X000300Y009510D01*
X000300Y009352D02*
X000732Y009352D01*
X000459Y009193D02*
X000300Y009193D01*
X000300Y009035D02*
X000304Y009035D01*
X002056Y009510D02*
X002077Y009510D01*
X002077Y009669D02*
X002056Y009669D01*
X002056Y009827D02*
X002077Y009827D01*
X002077Y009986D02*
X002056Y009986D01*
X002322Y011095D02*
X002603Y011095D01*
X002573Y011254D02*
X002344Y011254D01*
X002440Y011729D02*
X009598Y011729D01*
X009596Y011888D02*
X002317Y011888D01*
X002149Y012131D02*
X001985Y012131D01*
X001834Y012193D01*
X001719Y012309D01*
X001656Y012460D01*
X001656Y012623D01*
X001719Y012774D01*
X001834Y012890D01*
X001985Y012952D01*
X002149Y012952D01*
X002300Y012890D01*
X002415Y012774D01*
X002478Y012623D01*
X002478Y012460D01*
X002415Y012309D01*
X002300Y012193D01*
X002149Y012131D01*
X002311Y012205D02*
X033684Y012205D01*
X033684Y012363D02*
X002438Y012363D01*
X002478Y012522D02*
X004106Y012522D01*
X004053Y012574D02*
X004176Y012451D01*
X004338Y012384D01*
X004513Y012384D01*
X004674Y012451D01*
X004797Y012574D01*
X004864Y012736D01*
X004864Y012910D01*
X004797Y013072D01*
X004674Y013195D01*
X004513Y013262D01*
X004338Y013262D01*
X004176Y013195D01*
X004053Y013072D01*
X003986Y012910D01*
X003986Y012736D01*
X004053Y012574D01*
X004009Y012680D02*
X002454Y012680D01*
X002351Y012839D02*
X003986Y012839D01*
X004022Y012997D02*
X001320Y012997D01*
X001563Y013156D02*
X004137Y013156D01*
X004176Y013451D02*
X004338Y013384D01*
X004513Y013384D01*
X004674Y013451D01*
X004797Y013574D01*
X004864Y013736D01*
X004864Y013910D01*
X004797Y014072D01*
X004674Y014195D01*
X004513Y014262D01*
X004338Y014262D01*
X004176Y014195D01*
X004053Y014072D01*
X003986Y013910D01*
X003986Y013736D01*
X004053Y013574D01*
X004176Y013451D01*
X004155Y013473D02*
X001771Y013473D01*
X001818Y013631D02*
X004029Y013631D01*
X003986Y013790D02*
X001818Y013790D01*
X001804Y013948D02*
X004002Y013948D01*
X004088Y014107D02*
X001738Y014107D01*
X001642Y014265D02*
X019302Y014265D01*
X019318Y014270D02*
X019249Y014248D01*
X019185Y014215D01*
X019126Y014173D01*
X019075Y014122D01*
X019033Y014063D01*
X019000Y013999D01*
X018978Y013930D01*
X018966Y013859D01*
X018966Y013843D01*
X019405Y013843D01*
X019405Y013803D01*
X018966Y013803D01*
X018966Y013787D01*
X018978Y013715D01*
X019000Y013647D01*
X019033Y013582D01*
X019075Y013524D01*
X019126Y013473D01*
X019185Y013430D01*
X019249Y013398D01*
X019318Y013375D01*
X019389Y013364D01*
X019405Y013364D01*
X019405Y013803D01*
X019445Y013803D01*
X019445Y013364D01*
X019461Y013364D01*
X019533Y013375D01*
X019601Y013398D01*
X019666Y013430D01*
X019724Y013473D01*
X019775Y013524D01*
X019818Y013582D01*
X019850Y013647D01*
X019873Y013715D01*
X019884Y013787D01*
X019884Y013803D01*
X019445Y013803D01*
X019445Y013843D01*
X019405Y013843D01*
X019405Y014282D01*
X019389Y014282D01*
X019318Y014270D01*
X019405Y014265D02*
X019445Y014265D01*
X019445Y014282D02*
X019445Y013843D01*
X019884Y013843D01*
X019884Y013859D01*
X019873Y013930D01*
X019850Y013999D01*
X019818Y014063D01*
X019775Y014122D01*
X019724Y014173D01*
X019666Y014215D01*
X019601Y014248D01*
X019533Y014270D01*
X019461Y014282D01*
X019445Y014282D01*
X019549Y014265D02*
X020302Y014265D01*
X020318Y014270D02*
X020249Y014248D01*
X020185Y014215D01*
X020126Y014173D01*
X020075Y014122D01*
X020033Y014063D01*
X020000Y013999D01*
X019978Y013930D01*
X019966Y013859D01*
X019966Y013843D01*
X020405Y013843D01*
X020405Y013803D01*
X019966Y013803D01*
X019966Y013787D01*
X019978Y013715D01*
X020000Y013647D01*
X020033Y013582D01*
X020075Y013524D01*
X020126Y013473D01*
X020185Y013430D01*
X020249Y013398D01*
X020318Y013375D01*
X020389Y013364D01*
X020405Y013364D01*
X020405Y013803D01*
X020445Y013803D01*
X020445Y013364D01*
X020461Y013364D01*
X020533Y013375D01*
X020601Y013398D01*
X020666Y013430D01*
X020724Y013473D01*
X020775Y013524D01*
X020818Y013582D01*
X020850Y013647D01*
X020873Y013715D01*
X020884Y013787D01*
X020884Y013803D01*
X020445Y013803D01*
X020445Y013843D01*
X020405Y013843D01*
X020405Y014282D01*
X020389Y014282D01*
X020318Y014270D01*
X020405Y014265D02*
X020445Y014265D01*
X020445Y014282D02*
X020445Y013843D01*
X020884Y013843D01*
X020884Y013859D01*
X020873Y013930D01*
X020850Y013999D01*
X020818Y014063D01*
X020775Y014122D01*
X020724Y014173D01*
X020666Y014215D01*
X020601Y014248D01*
X020533Y014270D01*
X020461Y014282D01*
X020445Y014282D01*
X020549Y014265D02*
X021302Y014265D01*
X021318Y014270D02*
X021249Y014248D01*
X021185Y014215D01*
X021126Y014173D01*
X021075Y014122D01*
X021033Y014063D01*
X021000Y013999D01*
X020978Y013930D01*
X020966Y013859D01*
X020966Y013843D01*
X021405Y013843D01*
X021405Y013803D01*
X020966Y013803D01*
X020966Y013787D01*
X020978Y013715D01*
X021000Y013647D01*
X021033Y013582D01*
X021075Y013524D01*
X021126Y013473D01*
X021185Y013430D01*
X021249Y013398D01*
X021318Y013375D01*
X021389Y013364D01*
X021405Y013364D01*
X021405Y013803D01*
X021445Y013803D01*
X021445Y013364D01*
X021461Y013364D01*
X021533Y013375D01*
X021601Y013398D01*
X021666Y013430D01*
X021724Y013473D01*
X021775Y013524D01*
X021818Y013582D01*
X021850Y013647D01*
X021873Y013715D01*
X021884Y013787D01*
X021884Y013803D01*
X021445Y013803D01*
X021445Y013843D01*
X021405Y013843D01*
X021405Y014282D01*
X021389Y014282D01*
X021318Y014270D01*
X021405Y014265D02*
X021445Y014265D01*
X021445Y014282D02*
X021445Y013843D01*
X021884Y013843D01*
X021884Y013859D01*
X021873Y013930D01*
X021850Y013999D01*
X021818Y014063D01*
X021775Y014122D01*
X021724Y014173D01*
X021666Y014215D01*
X021601Y014248D01*
X021533Y014270D01*
X021461Y014282D01*
X021445Y014282D01*
X021549Y014265D02*
X022302Y014265D01*
X022318Y014270D02*
X022249Y014248D01*
X022185Y014215D01*
X022126Y014173D01*
X022075Y014122D01*
X022033Y014063D01*
X022000Y013999D01*
X021978Y013930D01*
X021966Y013859D01*
X021966Y013843D01*
X022405Y013843D01*
X022405Y013803D01*
X021966Y013803D01*
X021966Y013787D01*
X021978Y013715D01*
X022000Y013647D01*
X022033Y013582D01*
X022075Y013524D01*
X022126Y013473D01*
X022185Y013430D01*
X022249Y013398D01*
X022318Y013375D01*
X022389Y013364D01*
X022405Y013364D01*
X022405Y013803D01*
X022445Y013803D01*
X022445Y013364D01*
X022461Y013364D01*
X022533Y013375D01*
X022601Y013398D01*
X022666Y013430D01*
X022724Y013473D01*
X022775Y013524D01*
X022818Y013582D01*
X022850Y013647D01*
X022873Y013715D01*
X022884Y013787D01*
X022884Y013803D01*
X022445Y013803D01*
X022445Y013843D01*
X022405Y013843D01*
X022405Y014282D01*
X022389Y014282D01*
X022318Y014270D01*
X022405Y014265D02*
X022445Y014265D01*
X022445Y014282D02*
X022445Y013843D01*
X022884Y013843D01*
X022884Y013859D01*
X022873Y013930D01*
X022850Y013999D01*
X022818Y014063D01*
X022775Y014122D01*
X022724Y014173D01*
X022666Y014215D01*
X022601Y014248D01*
X022533Y014270D01*
X022461Y014282D01*
X022445Y014282D01*
X022549Y014265D02*
X023302Y014265D01*
X023318Y014270D02*
X023249Y014248D01*
X023185Y014215D01*
X023126Y014173D01*
X023075Y014122D01*
X023033Y014063D01*
X023000Y013999D01*
X022978Y013930D01*
X022966Y013859D01*
X022966Y013843D01*
X023405Y013843D01*
X023405Y013803D01*
X022966Y013803D01*
X022966Y013787D01*
X022978Y013715D01*
X023000Y013647D01*
X023033Y013582D01*
X023075Y013524D01*
X023126Y013473D01*
X023185Y013430D01*
X023249Y013398D01*
X023318Y013375D01*
X023389Y013364D01*
X023405Y013364D01*
X023405Y013803D01*
X023445Y013803D01*
X023445Y013364D01*
X023461Y013364D01*
X023533Y013375D01*
X023601Y013398D01*
X023666Y013430D01*
X023724Y013473D01*
X023775Y013524D01*
X023818Y013582D01*
X023850Y013647D01*
X023873Y013715D01*
X023884Y013787D01*
X023884Y013803D01*
X023445Y013803D01*
X023445Y013843D01*
X023405Y013843D01*
X023405Y014282D01*
X023389Y014282D01*
X023318Y014270D01*
X023405Y014265D02*
X023445Y014265D01*
X023445Y014282D02*
X023445Y013843D01*
X023884Y013843D01*
X023884Y013859D01*
X023873Y013930D01*
X023850Y013999D01*
X023818Y014063D01*
X023775Y014122D01*
X023724Y014173D01*
X023666Y014215D01*
X023601Y014248D01*
X023533Y014270D01*
X023461Y014282D01*
X023445Y014282D01*
X023549Y014265D02*
X033684Y014265D01*
X033684Y014107D02*
X023786Y014107D01*
X023867Y013948D02*
X033684Y013948D01*
X033684Y013790D02*
X023884Y013790D01*
X023842Y013631D02*
X027282Y013631D01*
X027311Y013643D02*
X027217Y013604D01*
X027144Y013531D01*
X027105Y013437D01*
X027105Y013335D01*
X027144Y013240D01*
X027217Y013168D01*
X027311Y013129D01*
X027413Y013129D01*
X027508Y013168D01*
X027580Y013240D01*
X027619Y013335D01*
X027619Y013437D01*
X027580Y013531D01*
X027508Y013604D01*
X027413Y013643D01*
X027311Y013643D01*
X027442Y013631D02*
X033684Y013631D01*
X033684Y013473D02*
X027605Y013473D01*
X027611Y013314D02*
X033684Y013314D01*
X033684Y013156D02*
X027478Y013156D01*
X027246Y013156D02*
X023713Y013156D01*
X023674Y013195D02*
X023513Y013262D01*
X023338Y013262D01*
X023176Y013195D01*
X023053Y013072D01*
X022986Y012910D01*
X022986Y012736D01*
X023053Y012574D01*
X023176Y012451D01*
X023338Y012384D01*
X023513Y012384D01*
X023674Y012451D01*
X023797Y012574D01*
X023864Y012736D01*
X023864Y012910D01*
X023797Y013072D01*
X023674Y013195D01*
X023828Y012997D02*
X033684Y012997D01*
X033684Y012839D02*
X023864Y012839D01*
X023841Y012680D02*
X033684Y012680D01*
X033684Y012522D02*
X023745Y012522D01*
X023106Y012522D02*
X022745Y012522D01*
X022797Y012574D02*
X022864Y012736D01*
X022864Y012910D01*
X022797Y013072D01*
X022674Y013195D01*
X022513Y013262D01*
X022338Y013262D01*
X022176Y013195D01*
X022053Y013072D01*
X021986Y012910D01*
X021986Y012736D01*
X022053Y012574D01*
X022176Y012451D01*
X022338Y012384D01*
X022513Y012384D01*
X022674Y012451D01*
X022797Y012574D01*
X022841Y012680D02*
X023009Y012680D01*
X022986Y012839D02*
X022864Y012839D01*
X022828Y012997D02*
X023022Y012997D01*
X023137Y013156D02*
X022713Y013156D01*
X022723Y013473D02*
X023127Y013473D01*
X023008Y013631D02*
X022842Y013631D01*
X022884Y013790D02*
X022966Y013790D01*
X022984Y013948D02*
X022867Y013948D01*
X022786Y014107D02*
X023064Y014107D01*
X023405Y014107D02*
X023445Y014107D01*
X023445Y013948D02*
X023405Y013948D01*
X023405Y013790D02*
X023445Y013790D01*
X023445Y013631D02*
X023405Y013631D01*
X023405Y013473D02*
X023445Y013473D01*
X023723Y013473D02*
X027120Y013473D01*
X027114Y013314D02*
X001705Y013314D01*
X001783Y012839D02*
X000300Y012839D01*
X000300Y012997D02*
X000680Y012997D01*
X000437Y013156D02*
X000300Y013156D01*
X000300Y012680D02*
X001680Y012680D01*
X001656Y012522D02*
X000300Y012522D01*
X000300Y012363D02*
X001696Y012363D01*
X001823Y012205D02*
X000300Y012205D01*
X001484Y014424D02*
X033684Y014424D01*
X033684Y014582D02*
X001340Y014582D01*
X001571Y014741D02*
X004493Y014741D01*
X004452Y014752D02*
X004828Y014651D01*
X004828Y014651D01*
X005006Y014674D01*
X023019Y014674D01*
X023157Y014660D01*
X023157Y014660D01*
X023453Y014723D01*
X023453Y014723D01*
X023715Y014875D01*
X023917Y015100D01*
X024040Y015376D01*
X024046Y015443D01*
X024056Y015453D01*
X024056Y015539D01*
X024065Y015625D01*
X024056Y015635D01*
X024056Y024571D01*
X024059Y024733D01*
X024059Y024733D01*
X023962Y025047D01*
X023962Y025047D01*
X023773Y025316D01*
X023773Y025316D01*
X023773Y025316D01*
X023510Y025513D01*
X023199Y025619D01*
X023131Y025620D01*
X023130Y025621D01*
X023033Y025621D01*
X022937Y025623D01*
X022935Y025621D01*
X004862Y025621D01*
X004525Y025512D01*
X004238Y025303D01*
X004030Y025016D01*
X003920Y024679D01*
X003920Y015632D01*
X003909Y015618D01*
X003920Y015536D01*
X003920Y015453D01*
X003933Y015440D01*
X003947Y015327D01*
X004142Y014989D01*
X004452Y014752D01*
X004452Y014752D01*
X004260Y014899D02*
X001708Y014899D01*
X001774Y015058D02*
X004103Y015058D01*
X004142Y014989D02*
X004142Y014989D01*
X004011Y015216D02*
X001818Y015216D01*
X001818Y015375D02*
X003941Y015375D01*
X003947Y015327D02*
X003947Y015327D01*
X003920Y015533D02*
X001800Y015533D01*
X001735Y015692D02*
X003920Y015692D01*
X003920Y015850D02*
X001634Y015850D01*
X001475Y016009D02*
X003920Y016009D01*
X003920Y016167D02*
X002292Y016167D01*
X002293Y016167D02*
X002347Y016207D01*
X002395Y016255D01*
X002435Y016310D01*
X002466Y016370D01*
X002487Y016435D01*
X002497Y016502D01*
X002497Y016525D01*
X002077Y016525D01*
X002077Y016105D01*
X002101Y016105D01*
X002168Y016116D01*
X002232Y016137D01*
X002293Y016167D01*
X002077Y016167D02*
X002056Y016167D01*
X002056Y016105D02*
X002033Y016105D01*
X001966Y016116D01*
X001902Y016137D01*
X001841Y016167D01*
X001787Y016207D01*
X001739Y016255D01*
X001699Y016310D01*
X001668Y016370D01*
X001647Y016435D01*
X001637Y016502D01*
X001637Y016525D01*
X002056Y016525D01*
X002056Y016546D01*
X001637Y016546D01*
X001637Y016569D01*
X001647Y016636D01*
X001668Y016701D01*
X001699Y016761D01*
X001739Y016816D01*
X001787Y016864D01*
X001841Y016904D01*
X001902Y016934D01*
X001966Y016955D01*
X002033Y016966D01*
X002056Y016966D01*
X002056Y016546D01*
X002077Y016546D01*
X002077Y016966D01*
X002101Y016966D01*
X002168Y016955D01*
X002232Y016934D01*
X002293Y016904D01*
X002347Y016864D01*
X002395Y016816D01*
X002435Y016761D01*
X002466Y016701D01*
X002487Y016636D01*
X002497Y016569D01*
X002497Y016546D01*
X002077Y016546D01*
X002077Y016525D01*
X002056Y016525D01*
X002056Y016105D01*
X002056Y016326D02*
X002077Y016326D01*
X002077Y016484D02*
X002056Y016484D01*
X002056Y016643D02*
X002077Y016643D01*
X002077Y016801D02*
X002056Y016801D01*
X002056Y016960D02*
X002077Y016960D01*
X002141Y016960D02*
X003920Y016960D01*
X003920Y017118D02*
X002170Y017118D01*
X002149Y017109D02*
X002300Y017172D01*
X002415Y017287D01*
X002478Y017438D01*
X002478Y017601D01*
X002415Y017752D01*
X003920Y017752D01*
X003920Y017594D02*
X002478Y017594D01*
X002476Y017435D02*
X003920Y017435D01*
X003920Y017277D02*
X002405Y017277D01*
X002149Y017109D02*
X001985Y017109D01*
X001834Y017172D01*
X001719Y017287D01*
X001656Y017438D01*
X001656Y017601D01*
X001719Y017752D01*
X000300Y017752D01*
X000300Y017594D02*
X001656Y017594D01*
X001657Y017435D02*
X000300Y017435D01*
X000300Y017277D02*
X001729Y017277D01*
X001963Y017118D02*
X000300Y017118D01*
X000300Y016960D02*
X001993Y016960D01*
X001728Y016801D02*
X000300Y016801D01*
X000300Y016643D02*
X001649Y016643D01*
X001639Y016484D02*
X000300Y016484D01*
X000300Y016326D02*
X001691Y016326D01*
X001842Y016167D02*
X000300Y016167D01*
X000300Y016009D02*
X000525Y016009D01*
X000366Y015850D02*
X000300Y015850D01*
X002406Y016801D02*
X003920Y016801D01*
X003920Y016643D02*
X002485Y016643D01*
X002495Y016484D02*
X003920Y016484D01*
X003920Y016326D02*
X002443Y016326D01*
X002415Y017752D02*
X002300Y017868D01*
X002190Y017913D01*
X002300Y017959D01*
X002415Y018074D01*
X002478Y018225D01*
X002478Y018389D01*
X002415Y018540D01*
X002300Y018655D01*
X002149Y018718D01*
X001985Y018718D01*
X001834Y018655D01*
X001719Y018540D01*
X001656Y018389D01*
X001656Y018225D01*
X001719Y018074D01*
X001834Y017959D01*
X001944Y017913D01*
X001834Y017868D01*
X001719Y017752D01*
X001937Y017911D02*
X000300Y017911D01*
X000300Y018069D02*
X001724Y018069D01*
X001656Y018228D02*
X000300Y018228D01*
X000300Y018386D02*
X001656Y018386D01*
X001724Y018545D02*
X000300Y018545D01*
X000300Y018703D02*
X001950Y018703D01*
X001985Y018881D02*
X002149Y018881D01*
X002300Y018943D01*
X002415Y019059D01*
X002478Y019210D01*
X002478Y019373D01*
X002415Y019524D01*
X002300Y019640D01*
X002149Y019702D01*
X001985Y019702D01*
X001834Y019640D01*
X001719Y019524D01*
X001656Y019373D01*
X001656Y019210D01*
X001719Y019059D01*
X001834Y018943D01*
X001985Y018881D01*
X001757Y019020D02*
X000300Y019020D01*
X000300Y018862D02*
X003920Y018862D01*
X003920Y019020D02*
X002376Y019020D01*
X002465Y019179D02*
X003920Y019179D01*
X003920Y019337D02*
X002478Y019337D01*
X002427Y019496D02*
X003920Y019496D01*
X003920Y019654D02*
X002265Y019654D01*
X001869Y019654D02*
X000300Y019654D01*
X000300Y019496D02*
X001707Y019496D01*
X001656Y019337D02*
X000300Y019337D01*
X000300Y019179D02*
X001669Y019179D01*
X001470Y019813D02*
X003920Y019813D01*
X003920Y019971D02*
X001628Y019971D01*
X001732Y020130D02*
X003920Y020130D01*
X003920Y020288D02*
X001798Y020288D01*
X001818Y020447D02*
X003920Y020447D01*
X003920Y020605D02*
X001818Y020605D01*
X001776Y020764D02*
X003920Y020764D01*
X003920Y020922D02*
X001711Y020922D01*
X001577Y021081D02*
X003920Y021081D01*
X003920Y021239D02*
X001354Y021239D01*
X000646Y021239D02*
X000300Y021239D01*
X000300Y021081D02*
X000423Y021081D01*
X000300Y021398D02*
X003920Y021398D01*
X003920Y021556D02*
X000300Y021556D01*
X000300Y021715D02*
X003920Y021715D01*
X003920Y021873D02*
X000300Y021873D01*
X000300Y022032D02*
X000996Y022032D01*
X000991Y022033D02*
X001153Y021966D01*
X001327Y021966D01*
X001489Y022033D01*
X001612Y022157D01*
X001679Y022318D01*
X001679Y022493D01*
X001612Y022654D01*
X001489Y022778D01*
X001327Y022845D01*
X001153Y022845D01*
X000991Y022778D01*
X000868Y022654D01*
X000801Y022493D01*
X000801Y022318D01*
X000868Y022157D01*
X000991Y022033D01*
X000854Y022190D02*
X000300Y022190D01*
X000300Y022349D02*
X000801Y022349D01*
X000807Y022507D02*
X000300Y022507D01*
X000300Y022666D02*
X000879Y022666D01*
X001103Y022824D02*
X000300Y022824D01*
X000300Y022983D02*
X001114Y022983D01*
X001153Y022966D02*
X001327Y022966D01*
X001489Y023033D01*
X001612Y023157D01*
X001679Y023318D01*
X001679Y023493D01*
X001612Y023654D01*
X001489Y023778D01*
X001327Y023845D01*
X001153Y023845D01*
X000991Y023778D01*
X000868Y023654D01*
X000801Y023493D01*
X000801Y023318D01*
X000868Y023157D01*
X000991Y023033D01*
X001153Y022966D01*
X001366Y022983D02*
X003920Y022983D01*
X003920Y023141D02*
X001597Y023141D01*
X001671Y023300D02*
X003920Y023300D01*
X003920Y023458D02*
X001679Y023458D01*
X001628Y023617D02*
X003920Y023617D01*
X003920Y023775D02*
X001492Y023775D01*
X001416Y023980D02*
X001481Y024013D01*
X001539Y024056D01*
X001590Y024107D01*
X001633Y024165D01*
X001665Y024229D01*
X001688Y024298D01*
X001699Y024369D01*
X001699Y024386D01*
X001260Y024386D01*
X001260Y024426D01*
X001220Y024426D01*
X001220Y024864D01*
X001204Y024864D01*
X001133Y024853D01*
X001064Y024831D01*
X001000Y024798D01*
X000941Y024755D01*
X000890Y024704D01*
X000848Y024646D01*
X000815Y024582D01*
X000793Y024513D01*
X000781Y024442D01*
X000781Y024426D01*
X001220Y024426D01*
X001220Y024386D01*
X000781Y024386D01*
X000781Y024369D01*
X000793Y024298D01*
X000815Y024229D01*
X000848Y024165D01*
X000890Y024107D01*
X000941Y024056D01*
X001000Y024013D01*
X001064Y023980D01*
X001133Y023958D01*
X001204Y023947D01*
X001220Y023947D01*
X001220Y024386D01*
X001260Y024386D01*
X001260Y023947D01*
X001276Y023947D01*
X001348Y023958D01*
X001416Y023980D01*
X001260Y024092D02*
X001220Y024092D01*
X001220Y024251D02*
X001260Y024251D01*
X001260Y024409D02*
X003920Y024409D01*
X003920Y024251D02*
X001672Y024251D01*
X001699Y024426D02*
X001260Y024426D01*
X001260Y024864D01*
X001276Y024864D01*
X001348Y024853D01*
X001416Y024831D01*
X001481Y024798D01*
X001539Y024755D01*
X001590Y024704D01*
X001633Y024646D01*
X001665Y024582D01*
X001688Y024513D01*
X001699Y024442D01*
X001699Y024426D01*
X001670Y024568D02*
X003920Y024568D01*
X003935Y024726D02*
X001568Y024726D01*
X001260Y024726D02*
X001220Y024726D01*
X001220Y024568D02*
X001260Y024568D01*
X001220Y024409D02*
X000300Y024409D01*
X000300Y024251D02*
X000808Y024251D01*
X000905Y024092D02*
X000300Y024092D01*
X000300Y023934D02*
X003920Y023934D01*
X003920Y024092D02*
X001575Y024092D01*
X000989Y023775D02*
X000300Y023775D01*
X000300Y023617D02*
X000852Y023617D01*
X000801Y023458D02*
X000300Y023458D01*
X000300Y023300D02*
X000809Y023300D01*
X000884Y023141D02*
X000300Y023141D01*
X001377Y022824D02*
X003920Y022824D01*
X003920Y022666D02*
X001601Y022666D01*
X001673Y022507D02*
X003920Y022507D01*
X003920Y022349D02*
X001679Y022349D01*
X001626Y022190D02*
X003920Y022190D01*
X003920Y022032D02*
X001485Y022032D01*
X000372Y019971D02*
X000300Y019971D01*
X000300Y019813D02*
X000530Y019813D01*
X002184Y018703D02*
X003920Y018703D01*
X003920Y018545D02*
X002410Y018545D01*
X002478Y018386D02*
X003920Y018386D01*
X003920Y018228D02*
X002478Y018228D01*
X002410Y018069D02*
X003920Y018069D01*
X003920Y017911D02*
X002197Y017911D01*
X005176Y014195D02*
X005053Y014072D01*
X004986Y013910D01*
X004986Y013736D01*
X005053Y013574D01*
X005176Y013451D01*
X005338Y013384D01*
X005513Y013384D01*
X005674Y013451D01*
X005797Y013574D01*
X005864Y013736D01*
X005864Y013910D01*
X005797Y014072D01*
X005674Y014195D01*
X005513Y014262D01*
X005338Y014262D01*
X005176Y014195D01*
X005088Y014107D02*
X004762Y014107D01*
X004849Y013948D02*
X005002Y013948D01*
X004986Y013790D02*
X004864Y013790D01*
X004821Y013631D02*
X005029Y013631D01*
X005155Y013473D02*
X004696Y013473D01*
X004713Y013156D02*
X005137Y013156D01*
X005176Y013195D02*
X005053Y013072D01*
X004986Y012910D01*
X004986Y012736D01*
X005053Y012574D01*
X005176Y012451D01*
X005338Y012384D01*
X005513Y012384D01*
X005674Y012451D01*
X005797Y012574D01*
X005864Y012736D01*
X005864Y012910D01*
X005797Y013072D01*
X005674Y013195D01*
X005513Y013262D01*
X005338Y013262D01*
X005176Y013195D01*
X005022Y012997D02*
X004828Y012997D01*
X004864Y012839D02*
X004986Y012839D01*
X005009Y012680D02*
X004841Y012680D01*
X004745Y012522D02*
X005106Y012522D01*
X005745Y012522D02*
X006106Y012522D01*
X006053Y012574D02*
X006176Y012451D01*
X006338Y012384D01*
X006513Y012384D01*
X006674Y012451D01*
X006797Y012574D01*
X006864Y012736D01*
X006864Y012910D01*
X006797Y013072D01*
X006674Y013195D01*
X006513Y013262D01*
X006338Y013262D01*
X006176Y013195D01*
X006053Y013072D01*
X005986Y012910D01*
X005986Y012736D01*
X006053Y012574D01*
X006009Y012680D02*
X005841Y012680D01*
X005864Y012839D02*
X005986Y012839D01*
X006022Y012997D02*
X005828Y012997D01*
X005713Y013156D02*
X006137Y013156D01*
X006176Y013451D02*
X006338Y013384D01*
X006513Y013384D01*
X006674Y013451D01*
X006797Y013574D01*
X006864Y013736D01*
X006864Y013910D01*
X006797Y014072D01*
X006674Y014195D01*
X006513Y014262D01*
X006338Y014262D01*
X006176Y014195D01*
X006053Y014072D01*
X005986Y013910D01*
X005986Y013736D01*
X006053Y013574D01*
X006176Y013451D01*
X006155Y013473D02*
X005696Y013473D01*
X005821Y013631D02*
X006029Y013631D01*
X005986Y013790D02*
X005864Y013790D01*
X005849Y013948D02*
X006002Y013948D01*
X006088Y014107D02*
X005762Y014107D01*
X006762Y014107D02*
X007088Y014107D01*
X007053Y014072D02*
X006986Y013910D01*
X006986Y013736D01*
X007053Y013574D01*
X007176Y013451D01*
X007338Y013384D01*
X007513Y013384D01*
X007674Y013451D01*
X007797Y013574D01*
X007864Y013736D01*
X007864Y013910D01*
X007797Y014072D01*
X007674Y014195D01*
X007513Y014262D01*
X007338Y014262D01*
X007176Y014195D01*
X007053Y014072D01*
X007002Y013948D02*
X006849Y013948D01*
X006864Y013790D02*
X006986Y013790D01*
X007029Y013631D02*
X006821Y013631D01*
X006696Y013473D02*
X007155Y013473D01*
X007176Y013195D02*
X007053Y013072D01*
X006986Y012910D01*
X006986Y012736D01*
X007053Y012574D01*
X007176Y012451D01*
X007338Y012384D01*
X007513Y012384D01*
X007674Y012451D01*
X007797Y012574D01*
X007864Y012736D01*
X007864Y012910D01*
X007797Y013072D01*
X007674Y013195D01*
X007513Y013262D01*
X007338Y013262D01*
X007176Y013195D01*
X007137Y013156D02*
X006713Y013156D01*
X006828Y012997D02*
X007022Y012997D01*
X006986Y012839D02*
X006864Y012839D01*
X006841Y012680D02*
X007009Y012680D01*
X007106Y012522D02*
X006745Y012522D01*
X007713Y013156D02*
X008137Y013156D01*
X008176Y013195D02*
X008053Y013072D01*
X007986Y012910D01*
X007986Y012736D01*
X008053Y012574D01*
X008176Y012451D01*
X008338Y012384D01*
X008513Y012384D01*
X008674Y012451D01*
X008797Y012574D01*
X008864Y012736D01*
X008864Y012910D01*
X008797Y013072D01*
X008674Y013195D01*
X008513Y013262D01*
X008338Y013262D01*
X008176Y013195D01*
X008338Y013384D02*
X008513Y013384D01*
X008674Y013451D01*
X008797Y013574D01*
X008864Y013736D01*
X008864Y013910D01*
X008797Y014072D01*
X008674Y014195D01*
X008513Y014262D01*
X008338Y014262D01*
X008176Y014195D01*
X008053Y014072D01*
X007986Y013910D01*
X007986Y013736D01*
X008053Y013574D01*
X008176Y013451D01*
X008338Y013384D01*
X008155Y013473D02*
X007696Y013473D01*
X007821Y013631D02*
X008029Y013631D01*
X007986Y013790D02*
X007864Y013790D01*
X007849Y013948D02*
X008002Y013948D01*
X008088Y014107D02*
X007762Y014107D01*
X008762Y014107D02*
X009088Y014107D01*
X009053Y014072D02*
X008986Y013910D01*
X008986Y013736D01*
X009053Y013574D01*
X009176Y013451D01*
X009338Y013384D01*
X009513Y013384D01*
X009674Y013451D01*
X009797Y013574D01*
X009864Y013736D01*
X009864Y013910D01*
X009797Y014072D01*
X009674Y014195D01*
X009513Y014262D01*
X009338Y014262D01*
X009176Y014195D01*
X009053Y014072D01*
X009002Y013948D02*
X008849Y013948D01*
X008864Y013790D02*
X008986Y013790D01*
X009029Y013631D02*
X008821Y013631D01*
X008696Y013473D02*
X009155Y013473D01*
X009176Y013195D02*
X009053Y013072D01*
X008986Y012910D01*
X008986Y012736D01*
X009053Y012574D01*
X009176Y012451D01*
X009338Y012384D01*
X009513Y012384D01*
X009674Y012451D01*
X009797Y012574D01*
X009864Y012736D01*
X009864Y012910D01*
X009797Y013072D01*
X009674Y013195D01*
X009513Y013262D01*
X009338Y013262D01*
X009176Y013195D01*
X009137Y013156D02*
X008713Y013156D01*
X008828Y012997D02*
X009022Y012997D01*
X008986Y012839D02*
X008864Y012839D01*
X008841Y012680D02*
X009009Y012680D01*
X009106Y012522D02*
X008745Y012522D01*
X008106Y012522D02*
X007745Y012522D01*
X007841Y012680D02*
X008009Y012680D01*
X007986Y012839D02*
X007864Y012839D01*
X007828Y012997D02*
X008022Y012997D01*
X009713Y013156D02*
X010137Y013156D01*
X010176Y013195D02*
X010053Y013072D01*
X009986Y012910D01*
X009986Y012736D01*
X010053Y012574D01*
X010176Y012451D01*
X010338Y012384D01*
X010513Y012384D01*
X010674Y012451D01*
X010797Y012574D01*
X010864Y012736D01*
X010864Y012910D01*
X010797Y013072D01*
X010674Y013195D01*
X010513Y013262D01*
X010338Y013262D01*
X010176Y013195D01*
X010338Y013384D02*
X010513Y013384D01*
X010674Y013451D01*
X010797Y013574D01*
X010864Y013736D01*
X010864Y013910D01*
X010797Y014072D01*
X010674Y014195D01*
X010513Y014262D01*
X010338Y014262D01*
X010176Y014195D01*
X010053Y014072D01*
X009986Y013910D01*
X009986Y013736D01*
X010053Y013574D01*
X010176Y013451D01*
X010338Y013384D01*
X010155Y013473D02*
X009696Y013473D01*
X009821Y013631D02*
X010029Y013631D01*
X009986Y013790D02*
X009864Y013790D01*
X009849Y013948D02*
X010002Y013948D01*
X010088Y014107D02*
X009762Y014107D01*
X010696Y013473D02*
X011155Y013473D01*
X011176Y013451D02*
X011338Y013384D01*
X011513Y013384D01*
X011674Y013451D01*
X011797Y013574D01*
X011864Y013736D01*
X011864Y013910D01*
X011797Y014072D01*
X011674Y014195D01*
X011513Y014262D01*
X011338Y014262D01*
X011176Y014195D01*
X011053Y014072D01*
X010986Y013910D01*
X010986Y013736D01*
X011053Y013574D01*
X011176Y013451D01*
X011029Y013631D02*
X010821Y013631D01*
X010864Y013790D02*
X010986Y013790D01*
X011002Y013948D02*
X010849Y013948D01*
X010762Y014107D02*
X011088Y014107D01*
X011762Y014107D02*
X012088Y014107D01*
X012053Y014072D02*
X011986Y013910D01*
X011986Y013736D01*
X012053Y013574D01*
X012176Y013451D01*
X012338Y013384D01*
X012513Y013384D01*
X012674Y013451D01*
X012797Y013574D01*
X012864Y013736D01*
X012864Y013910D01*
X012797Y014072D01*
X012674Y014195D01*
X012513Y014262D01*
X012338Y014262D01*
X012176Y014195D01*
X012053Y014072D01*
X012002Y013948D02*
X011849Y013948D01*
X011864Y013790D02*
X011986Y013790D01*
X012029Y013631D02*
X011821Y013631D01*
X011696Y013473D02*
X012155Y013473D01*
X012176Y013195D02*
X012053Y013072D01*
X011986Y012910D01*
X011986Y012736D01*
X012053Y012574D01*
X012176Y012451D01*
X012338Y012384D01*
X012513Y012384D01*
X012674Y012451D01*
X012797Y012574D01*
X012864Y012736D01*
X012864Y012910D01*
X012797Y013072D01*
X012674Y013195D01*
X012513Y013262D01*
X012338Y013262D01*
X012176Y013195D01*
X012137Y013156D02*
X011713Y013156D01*
X011674Y013195D02*
X011513Y013262D01*
X011338Y013262D01*
X011176Y013195D01*
X011053Y013072D01*
X010986Y012910D01*
X010986Y012736D01*
X011053Y012574D01*
X011176Y012451D01*
X011338Y012384D01*
X011513Y012384D01*
X011674Y012451D01*
X011797Y012574D01*
X011864Y012736D01*
X011864Y012910D01*
X011797Y013072D01*
X011674Y013195D01*
X011828Y012997D02*
X012022Y012997D01*
X011986Y012839D02*
X011864Y012839D01*
X011841Y012680D02*
X012009Y012680D01*
X012106Y012522D02*
X011745Y012522D01*
X011106Y012522D02*
X010745Y012522D01*
X010841Y012680D02*
X011009Y012680D01*
X010986Y012839D02*
X010864Y012839D01*
X010828Y012997D02*
X011022Y012997D01*
X011137Y013156D02*
X010713Y013156D01*
X010022Y012997D02*
X009828Y012997D01*
X009864Y012839D02*
X009986Y012839D01*
X010009Y012680D02*
X009841Y012680D01*
X009745Y012522D02*
X010106Y012522D01*
X010371Y010144D02*
X008232Y010144D01*
X008439Y009986D02*
X010274Y009986D01*
X010300Y009827D02*
X008500Y009827D01*
X008457Y009669D02*
X010685Y009669D01*
X010763Y009827D02*
X033684Y009827D01*
X033684Y009669D02*
X010968Y009669D01*
X011080Y009510D02*
X015207Y009510D01*
X015376Y009510D02*
X033684Y009510D01*
X033684Y009352D02*
X015611Y009352D01*
X015670Y009193D02*
X022958Y009193D01*
X022961Y009201D02*
X022922Y009106D01*
X022922Y009004D01*
X022961Y008909D01*
X023033Y008837D01*
X023128Y008798D01*
X023230Y008798D01*
X023325Y008837D01*
X023397Y008909D01*
X023436Y009004D01*
X023436Y009106D01*
X023397Y009201D01*
X023325Y009273D01*
X023230Y009312D01*
X023128Y009312D01*
X023033Y009273D01*
X022961Y009201D01*
X022922Y009035D02*
X015660Y009035D01*
X015569Y008876D02*
X022995Y008876D01*
X023364Y008876D02*
X023634Y008876D01*
X023601Y008909D02*
X023673Y008837D01*
X023768Y008798D01*
X023870Y008798D01*
X023965Y008837D01*
X024037Y008909D01*
X024076Y009004D01*
X024076Y009106D01*
X024037Y009201D01*
X023965Y009273D01*
X023870Y009312D01*
X023768Y009312D01*
X023673Y009273D01*
X023601Y009201D01*
X023562Y009106D01*
X023562Y009004D01*
X023601Y008909D01*
X023562Y009035D02*
X023436Y009035D01*
X023400Y009193D02*
X023598Y009193D01*
X024040Y009193D02*
X033684Y009193D01*
X033684Y009035D02*
X024076Y009035D01*
X024003Y008876D02*
X024580Y008876D01*
X024584Y008879D02*
X024511Y008807D01*
X024472Y008713D01*
X024472Y008610D01*
X024511Y008516D01*
X024584Y008443D01*
X024678Y008404D01*
X024780Y008404D01*
X024875Y008443D01*
X024947Y008516D01*
X024986Y008610D01*
X024986Y008713D01*
X024947Y008807D01*
X024875Y008879D01*
X024780Y008919D01*
X024678Y008919D01*
X024584Y008879D01*
X024474Y008718D02*
X012856Y008718D01*
X012829Y008876D02*
X015014Y008876D01*
X014923Y009035D02*
X011801Y009035D01*
X011820Y008876D02*
X012135Y008876D01*
X012324Y008876D02*
X012368Y008876D01*
X011984Y008718D02*
X011714Y008718D01*
X011370Y008242D02*
X033684Y008242D01*
X033684Y008084D02*
X026729Y008084D01*
X026720Y008092D02*
X026626Y008131D01*
X026524Y008131D01*
X026429Y008092D01*
X026357Y008020D01*
X026318Y007925D01*
X019942Y007925D01*
X019903Y008020D01*
X019831Y008092D01*
X019736Y008131D01*
X019634Y008131D01*
X019539Y008092D01*
X019467Y008020D01*
X019428Y007925D01*
X011204Y007925D01*
X011040Y007925D02*
X008735Y007925D01*
X008903Y007767D02*
X019451Y007767D01*
X019467Y007728D02*
X019539Y007656D01*
X019634Y007617D01*
X019736Y007617D01*
X019831Y007656D01*
X019903Y007728D01*
X019942Y007823D01*
X019942Y007925D01*
X019919Y007767D02*
X026341Y007767D01*
X026357Y007728D02*
X026429Y007656D01*
X026524Y007617D01*
X026626Y007617D01*
X026720Y007656D01*
X026793Y007728D01*
X026832Y007823D01*
X026832Y007925D01*
X033684Y007925D01*
X033684Y007767D02*
X026809Y007767D01*
X026832Y007925D02*
X026793Y008020D01*
X026720Y008092D01*
X026421Y008084D02*
X019839Y008084D01*
X019531Y008084D02*
X011365Y008084D01*
X012331Y008401D02*
X033684Y008401D01*
X033684Y008559D02*
X030157Y008559D01*
X030139Y008516D02*
X030178Y008610D01*
X030178Y008713D01*
X030139Y008807D01*
X030067Y008879D01*
X029972Y008919D01*
X029870Y008919D01*
X029776Y008879D01*
X029703Y008807D01*
X029664Y008713D01*
X029664Y008610D01*
X029703Y008516D01*
X029776Y008443D01*
X029870Y008404D01*
X029972Y008404D01*
X030067Y008443D01*
X030139Y008516D01*
X030176Y008718D02*
X033684Y008718D01*
X033684Y008876D02*
X030070Y008876D01*
X029772Y008876D02*
X029480Y008876D01*
X029476Y008879D02*
X029382Y008919D01*
X029280Y008919D01*
X029185Y008879D01*
X029113Y008807D01*
X029074Y008713D01*
X029074Y008610D01*
X029113Y008516D01*
X029185Y008443D01*
X029280Y008404D01*
X029382Y008404D01*
X029476Y008443D01*
X029549Y008516D01*
X029588Y008610D01*
X029588Y008713D01*
X029549Y008807D01*
X029476Y008879D01*
X029586Y008718D02*
X029666Y008718D01*
X029685Y008559D02*
X029567Y008559D01*
X029095Y008559D02*
X026023Y008559D01*
X026005Y008516D02*
X026045Y008610D01*
X026045Y008713D01*
X026005Y008807D01*
X025933Y008879D01*
X025839Y008919D01*
X025736Y008919D01*
X025642Y008879D01*
X025569Y008807D01*
X025530Y008713D01*
X025530Y008610D01*
X025569Y008516D01*
X025642Y008443D01*
X025736Y008404D01*
X025839Y008404D01*
X025933Y008443D01*
X026005Y008516D01*
X026043Y008718D02*
X029076Y008718D01*
X029182Y008876D02*
X025936Y008876D01*
X025638Y008876D02*
X024878Y008876D01*
X024984Y008718D02*
X025532Y008718D01*
X025551Y008559D02*
X024965Y008559D01*
X024493Y008559D02*
X012761Y008559D01*
X012154Y007157D02*
X012059Y007196D01*
X011957Y007196D01*
X011862Y007157D01*
X011790Y007085D01*
X011751Y006990D01*
X011751Y006888D01*
X011790Y006793D01*
X011862Y006721D01*
X011957Y006682D01*
X012059Y006682D01*
X012154Y006721D01*
X012226Y006793D01*
X012265Y006888D01*
X012265Y006990D01*
X012226Y007085D01*
X012154Y007157D01*
X012178Y007133D02*
X014834Y007133D01*
X014830Y007109D02*
X014830Y007070D01*
X014830Y007031D01*
X014845Y006954D01*
X014875Y006881D01*
X014919Y006816D01*
X014974Y006760D01*
X015039Y006717D01*
X015112Y006687D01*
X015189Y006671D01*
X015228Y006671D01*
X015228Y007070D01*
X014830Y007070D01*
X015228Y007070D01*
X015228Y007070D01*
X015228Y007070D01*
X015228Y007469D01*
X015189Y007469D01*
X015112Y007453D01*
X015039Y007423D01*
X014974Y007380D01*
X014919Y007324D01*
X014875Y007259D01*
X014845Y007186D01*
X014830Y007109D01*
X014841Y006974D02*
X012265Y006974D01*
X012235Y006816D02*
X014919Y006816D01*
X015228Y006816D02*
X015228Y006816D01*
X015228Y006671D02*
X015268Y006671D01*
X015345Y006687D01*
X015417Y006717D01*
X015483Y006760D01*
X015538Y006816D01*
X015582Y006881D01*
X015612Y006954D01*
X015627Y007031D01*
X015627Y007070D01*
X015228Y007070D01*
X015228Y007070D01*
X015228Y006671D01*
X015228Y006974D02*
X015228Y006974D01*
X015228Y007070D02*
X015228Y007070D01*
X015228Y007469D01*
X015268Y007469D01*
X015345Y007453D01*
X015417Y007423D01*
X015483Y007380D01*
X015538Y007324D01*
X015582Y007259D01*
X015612Y007186D01*
X015627Y007109D01*
X015627Y007070D01*
X015228Y007070D01*
X015228Y007133D02*
X015228Y007133D01*
X015228Y007291D02*
X015228Y007291D01*
X015228Y007450D02*
X015228Y007450D01*
X015102Y007450D02*
X008784Y007450D01*
X008911Y007608D02*
X024775Y007608D01*
X024782Y007626D02*
X024743Y007531D01*
X024743Y007429D01*
X024782Y007335D01*
X024854Y007262D01*
X024949Y007223D01*
X025051Y007223D01*
X025146Y007262D01*
X025218Y007335D01*
X025257Y007429D01*
X025257Y007531D01*
X025218Y007626D01*
X025146Y007698D01*
X025051Y007737D01*
X024949Y007737D01*
X024854Y007698D01*
X024782Y007626D01*
X024743Y007450D02*
X015354Y007450D01*
X015560Y007291D02*
X024447Y007291D01*
X024461Y007305D02*
X024388Y007232D01*
X024349Y007138D01*
X024349Y007112D01*
X024264Y007147D01*
X024161Y007147D01*
X024067Y007108D01*
X023995Y007035D01*
X023955Y006941D01*
X023955Y006839D01*
X023995Y006744D01*
X024067Y006672D01*
X024161Y006633D01*
X024264Y006633D01*
X024358Y006672D01*
X024431Y006744D01*
X024470Y006839D01*
X024470Y006865D01*
X024555Y006829D01*
X024657Y006829D01*
X024752Y006869D01*
X024824Y006941D01*
X024863Y007035D01*
X024863Y007138D01*
X024824Y007232D01*
X024752Y007305D01*
X024657Y007344D01*
X024555Y007344D01*
X024461Y007305D01*
X024349Y007133D02*
X024299Y007133D01*
X024127Y007133D02*
X015622Y007133D01*
X015616Y006974D02*
X023969Y006974D01*
X023965Y006816D02*
X015538Y006816D01*
X014896Y007291D02*
X010199Y007291D01*
X010297Y007133D02*
X011838Y007133D01*
X011751Y006974D02*
X010271Y006974D01*
X010611Y006816D02*
X010796Y006816D01*
X010806Y006839D02*
X010766Y006744D01*
X010766Y006642D01*
X010806Y006547D01*
X010878Y006475D01*
X010972Y006436D01*
X011075Y006436D01*
X011169Y006475D01*
X011242Y006547D01*
X011281Y006642D01*
X011281Y006744D01*
X011242Y006839D01*
X011169Y006911D01*
X011075Y006950D01*
X010972Y006950D01*
X010878Y006911D01*
X010806Y006839D01*
X010766Y006657D02*
X010641Y006657D01*
X010553Y006499D02*
X010854Y006499D01*
X011193Y006499D02*
X012372Y006499D01*
X012380Y006519D02*
X012341Y006424D01*
X012341Y006322D01*
X012380Y006227D01*
X012453Y006155D01*
X012547Y006116D01*
X012650Y006116D01*
X012744Y006155D01*
X012816Y006227D01*
X012856Y006322D01*
X012856Y006424D01*
X012816Y006519D01*
X012744Y006591D01*
X012650Y006630D01*
X012547Y006630D01*
X012453Y006591D01*
X012380Y006519D01*
X012341Y006340D02*
X010297Y006340D01*
X010269Y006182D02*
X012426Y006182D01*
X012771Y006182D02*
X033684Y006182D01*
X033684Y006340D02*
X014381Y006340D01*
X014391Y006350D02*
X014430Y006445D01*
X014430Y006547D01*
X014391Y006642D01*
X014319Y006714D01*
X014224Y006753D01*
X014122Y006753D01*
X014028Y006714D01*
X013955Y006642D01*
X013916Y006547D01*
X013916Y006445D01*
X013955Y006350D01*
X014028Y006278D01*
X014122Y006239D01*
X014224Y006239D01*
X014319Y006278D01*
X014391Y006350D01*
X014430Y006499D02*
X024831Y006499D01*
X024854Y006475D02*
X024949Y006436D01*
X025051Y006436D01*
X025146Y006475D01*
X025218Y006547D01*
X025257Y006642D01*
X025257Y006744D01*
X025218Y006839D01*
X025146Y006911D01*
X025051Y006950D01*
X024949Y006950D01*
X024854Y006911D01*
X024782Y006839D01*
X024743Y006744D01*
X024743Y006642D01*
X024782Y006547D01*
X024854Y006475D01*
X024743Y006657D02*
X024323Y006657D01*
X024460Y006816D02*
X024772Y006816D01*
X024838Y006974D02*
X025162Y006974D01*
X025176Y006941D02*
X025248Y006869D01*
X025343Y006829D01*
X025445Y006829D01*
X025539Y006869D01*
X025612Y006941D01*
X025651Y007035D01*
X025651Y007138D01*
X025612Y007232D01*
X025539Y007305D01*
X025445Y007344D01*
X025343Y007344D01*
X025248Y007305D01*
X025176Y007232D01*
X025137Y007138D01*
X025137Y007035D01*
X025176Y006941D01*
X025228Y006816D02*
X030481Y006816D01*
X030491Y006839D02*
X030451Y006744D01*
X030451Y006642D01*
X030491Y006547D01*
X030563Y006475D01*
X030658Y006436D01*
X030760Y006436D01*
X030854Y006475D01*
X030927Y006547D01*
X030966Y006642D01*
X030966Y006744D01*
X030927Y006839D01*
X030854Y006911D01*
X030760Y006950D01*
X030658Y006950D01*
X030563Y006911D01*
X030491Y006839D01*
X030451Y006657D02*
X025257Y006657D01*
X025169Y006499D02*
X030539Y006499D01*
X030878Y006499D02*
X033684Y006499D01*
X033684Y006657D02*
X030966Y006657D01*
X030936Y006816D02*
X033684Y006816D01*
X033684Y006974D02*
X025625Y006974D01*
X025651Y007133D02*
X033684Y007133D01*
X033684Y007291D02*
X025553Y007291D01*
X025234Y007291D02*
X025174Y007291D01*
X025137Y007133D02*
X024863Y007133D01*
X024826Y007291D02*
X024766Y007291D01*
X025257Y007450D02*
X033684Y007450D01*
X033684Y007608D02*
X025225Y007608D01*
X026318Y007823D02*
X026357Y007728D01*
X026318Y007823D02*
X026318Y007925D01*
X026154Y005706D02*
X030280Y005706D01*
X030309Y005776D02*
X030242Y005615D01*
X030242Y005440D01*
X030309Y005279D01*
X030432Y005155D01*
X030594Y005089D01*
X030768Y005089D01*
X030930Y005155D01*
X031053Y005279D01*
X031120Y005440D01*
X031120Y005615D01*
X031053Y005776D01*
X030930Y005900D01*
X030768Y005967D01*
X030594Y005967D01*
X030432Y005900D01*
X030309Y005776D01*
X030397Y005865D02*
X015558Y005865D01*
X015550Y005885D02*
X015443Y005991D01*
X015304Y006049D01*
X015153Y006049D01*
X015014Y005991D01*
X014907Y005885D01*
X014849Y005745D01*
X014849Y005595D01*
X014907Y005455D01*
X015014Y005349D01*
X015153Y005291D01*
X015304Y005291D01*
X015443Y005349D01*
X015550Y005455D01*
X015607Y005595D01*
X015607Y005745D01*
X015550Y005885D01*
X015607Y005706D02*
X025815Y005706D01*
X025727Y005548D02*
X015588Y005548D01*
X015483Y005389D02*
X025757Y005389D01*
X026241Y005548D02*
X028433Y005548D01*
X028654Y005548D02*
X030242Y005548D01*
X030263Y005389D02*
X028791Y005389D01*
X028787Y005231D02*
X030357Y005231D01*
X030897Y004914D02*
X031466Y004914D01*
X031594Y005089D02*
X031432Y005155D01*
X031309Y005279D01*
X031242Y005440D01*
X031242Y005615D01*
X031309Y005776D01*
X031432Y005900D01*
X031594Y005967D01*
X031768Y005967D01*
X031930Y005900D01*
X032053Y005776D01*
X032120Y005615D01*
X032120Y005440D01*
X032053Y005279D01*
X031930Y005155D01*
X031768Y005089D01*
X031594Y005089D01*
X031357Y005231D02*
X031005Y005231D01*
X031099Y005389D02*
X031263Y005389D01*
X031242Y005548D02*
X031120Y005548D01*
X031082Y005706D02*
X031280Y005706D01*
X031397Y005865D02*
X030965Y005865D01*
X031965Y005865D02*
X032369Y005865D01*
X032257Y005706D02*
X032082Y005706D01*
X032120Y005548D02*
X032661Y005548D01*
X032701Y005548D02*
X032701Y005986D01*
X032717Y005986D01*
X032789Y005975D01*
X032857Y005953D01*
X032922Y005920D01*
X032980Y005877D01*
X033031Y005826D01*
X033073Y005768D01*
X033106Y005704D01*
X033129Y005635D01*
X033140Y005564D01*
X033140Y005548D01*
X032701Y005548D01*
X033684Y005548D01*
X033684Y005706D02*
X033105Y005706D01*
X032993Y005865D02*
X033684Y005865D01*
X033684Y006023D02*
X015367Y006023D01*
X015090Y006023D02*
X011696Y006023D01*
X011685Y006051D02*
X011612Y006124D01*
X011518Y006163D01*
X011415Y006163D01*
X011321Y006124D01*
X011249Y006051D01*
X011209Y005957D01*
X011209Y005854D01*
X011249Y005760D01*
X011321Y005687D01*
X011357Y005673D01*
X011357Y005584D01*
X011396Y005489D01*
X011469Y005417D01*
X011563Y005378D01*
X011665Y005378D01*
X011760Y005417D01*
X011832Y005489D01*
X011871Y005584D01*
X011871Y005686D01*
X011832Y005781D01*
X011760Y005853D01*
X011724Y005868D01*
X011724Y005957D01*
X011685Y006051D01*
X011732Y005865D02*
X014899Y005865D01*
X014849Y005706D02*
X011863Y005706D01*
X011856Y005548D02*
X014869Y005548D01*
X014973Y005389D02*
X011693Y005389D01*
X011536Y005389D02*
X010267Y005389D01*
X010297Y005548D02*
X011372Y005548D01*
X011302Y005706D02*
X010209Y005706D01*
X010297Y005865D02*
X011209Y005865D01*
X011237Y006023D02*
X010269Y006023D01*
X010209Y006499D02*
X010215Y006499D01*
X009782Y006340D02*
X001546Y006340D01*
X005472Y005865D02*
X009782Y005865D01*
X009870Y005706D02*
X005652Y005706D01*
X005666Y005548D02*
X009782Y005548D01*
X009812Y005389D02*
X005551Y005389D01*
X006704Y002695D02*
X006725Y002695D01*
X006725Y002536D02*
X006704Y002536D01*
X006704Y002378D02*
X006725Y002378D01*
X006725Y002219D02*
X006704Y002219D01*
X006704Y002061D02*
X006725Y002061D01*
X006725Y001902D02*
X006704Y001902D01*
X006830Y001902D02*
X007418Y001902D01*
X007742Y002061D02*
X007060Y002061D01*
X008105Y002061D02*
X009319Y002061D01*
X008995Y001902D02*
X008428Y001902D01*
X008587Y001744D02*
X008836Y001744D01*
X008753Y001585D02*
X008670Y001585D01*
X012856Y006340D02*
X013966Y006340D01*
X013916Y006499D02*
X012825Y006499D01*
X011781Y006816D02*
X011251Y006816D01*
X011281Y006657D02*
X013970Y006657D01*
X014376Y006657D02*
X024103Y006657D01*
X025192Y003804D02*
X017068Y003804D01*
X017042Y003646D02*
X025137Y003646D01*
X025185Y003487D02*
X016934Y003487D01*
X017028Y003963D02*
X030584Y003963D01*
X030778Y003963D02*
X031584Y003963D01*
X031515Y004121D02*
X030847Y004121D01*
X031054Y004280D02*
X031309Y004280D01*
X031243Y004438D02*
X031119Y004438D01*
X031120Y004597D02*
X031242Y004597D01*
X031300Y004755D02*
X031062Y004755D01*
X031897Y004914D02*
X032432Y004914D01*
X032282Y004755D02*
X032062Y004755D01*
X032120Y004597D02*
X032228Y004597D01*
X032231Y004438D02*
X032119Y004438D01*
X032054Y004280D02*
X032294Y004280D01*
X032661Y004280D02*
X032701Y004280D01*
X032701Y004438D02*
X032661Y004438D01*
X032661Y004597D02*
X032701Y004597D01*
X032701Y004755D02*
X032661Y004755D01*
X032661Y004914D02*
X032701Y004914D01*
X032701Y005231D02*
X032661Y005231D01*
X032661Y005389D02*
X032701Y005389D01*
X032701Y005706D02*
X032661Y005706D01*
X032661Y005865D02*
X032701Y005865D01*
X033118Y005389D02*
X033684Y005389D01*
X033684Y005231D02*
X033032Y005231D01*
X032330Y005231D02*
X032005Y005231D01*
X032099Y005389D02*
X032244Y005389D01*
X031337Y003804D02*
X031026Y003804D01*
X031107Y003646D02*
X031255Y003646D01*
X031242Y003487D02*
X031120Y003487D01*
X031074Y003329D02*
X031288Y003329D01*
X031418Y003170D02*
X030944Y003170D01*
X030977Y002853D02*
X031386Y002853D01*
X031275Y002695D02*
X031087Y002695D01*
X031120Y002536D02*
X031242Y002536D01*
X031268Y002378D02*
X031094Y002378D01*
X030993Y002219D02*
X031369Y002219D01*
X031438Y001902D02*
X030924Y001902D01*
X031067Y001744D02*
X031295Y001744D01*
X031242Y001585D02*
X031120Y001585D01*
X031114Y001427D02*
X031248Y001427D01*
X031320Y001268D02*
X031042Y001268D01*
X030819Y001110D02*
X031543Y001110D01*
X033021Y002219D02*
X033684Y002219D01*
X025616Y003487D02*
X025603Y003487D01*
X022295Y003170D02*
X020224Y003170D01*
X020372Y003012D02*
X022187Y003012D01*
X019467Y007728D02*
X019428Y007823D01*
X019428Y007925D01*
X023092Y010620D02*
X025144Y010620D01*
X025392Y010620D02*
X027206Y010620D01*
X027217Y010609D02*
X027311Y010570D01*
X027413Y010570D01*
X027508Y010609D01*
X027580Y010681D01*
X027619Y010776D01*
X027619Y010878D01*
X027580Y010972D01*
X027508Y011045D01*
X027413Y011084D01*
X027311Y011084D01*
X027217Y011045D01*
X027144Y010972D01*
X027105Y010878D01*
X027105Y010776D01*
X027144Y010681D01*
X027217Y010609D01*
X027105Y010778D02*
X025623Y010778D01*
X025699Y010937D02*
X027129Y010937D01*
X027595Y010937D02*
X033684Y010937D01*
X033684Y011095D02*
X025707Y011095D01*
X025656Y011254D02*
X033684Y011254D01*
X033684Y011412D02*
X025520Y011412D01*
X024912Y010778D02*
X023050Y010778D01*
X021674Y012451D02*
X021513Y012384D01*
X021338Y012384D01*
X021176Y012451D01*
X021053Y012574D01*
X020986Y012736D01*
X020986Y012910D01*
X021053Y013072D01*
X021176Y013195D01*
X021338Y013262D01*
X021513Y013262D01*
X021674Y013195D01*
X021797Y013072D01*
X021864Y012910D01*
X021864Y012736D01*
X021797Y012574D01*
X021674Y012451D01*
X021745Y012522D02*
X022106Y012522D01*
X022009Y012680D02*
X021841Y012680D01*
X021864Y012839D02*
X021986Y012839D01*
X022022Y012997D02*
X021828Y012997D01*
X021713Y013156D02*
X022137Y013156D01*
X022127Y013473D02*
X021723Y013473D01*
X021842Y013631D02*
X022008Y013631D01*
X021966Y013790D02*
X021884Y013790D01*
X021867Y013948D02*
X021984Y013948D01*
X022064Y014107D02*
X021786Y014107D01*
X021445Y014107D02*
X021405Y014107D01*
X021405Y013948D02*
X021445Y013948D01*
X021445Y013790D02*
X021405Y013790D01*
X021405Y013631D02*
X021445Y013631D01*
X021445Y013473D02*
X021405Y013473D01*
X021127Y013473D02*
X020723Y013473D01*
X020842Y013631D02*
X021008Y013631D01*
X020966Y013790D02*
X020884Y013790D01*
X020867Y013948D02*
X020984Y013948D01*
X021064Y014107D02*
X020786Y014107D01*
X020445Y014107D02*
X020405Y014107D01*
X020405Y013948D02*
X020445Y013948D01*
X020445Y013790D02*
X020405Y013790D01*
X020405Y013631D02*
X020445Y013631D01*
X020445Y013473D02*
X020405Y013473D01*
X020338Y013262D02*
X020176Y013195D01*
X020053Y013072D01*
X019986Y012910D01*
X019986Y012736D01*
X020053Y012574D01*
X020176Y012451D01*
X020338Y012384D01*
X020513Y012384D01*
X020674Y012451D01*
X020797Y012574D01*
X020864Y012736D01*
X020864Y012910D01*
X020797Y013072D01*
X020674Y013195D01*
X020513Y013262D01*
X020338Y013262D01*
X020137Y013156D02*
X019713Y013156D01*
X019674Y013195D02*
X019513Y013262D01*
X019338Y013262D01*
X019176Y013195D01*
X019053Y013072D01*
X018986Y012910D01*
X018986Y012736D01*
X019053Y012574D01*
X019176Y012451D01*
X019338Y012384D01*
X019513Y012384D01*
X019674Y012451D01*
X019797Y012574D01*
X019864Y012736D01*
X019864Y012910D01*
X019797Y013072D01*
X019674Y013195D01*
X019828Y012997D02*
X020022Y012997D01*
X019986Y012839D02*
X019864Y012839D01*
X019841Y012680D02*
X020009Y012680D01*
X020106Y012522D02*
X019745Y012522D01*
X019106Y012522D02*
X018745Y012522D01*
X018797Y012574D02*
X018864Y012736D01*
X018864Y012910D01*
X018797Y013072D01*
X018674Y013195D01*
X018513Y013262D01*
X018338Y013262D01*
X018176Y013195D01*
X018053Y013072D01*
X017986Y012910D01*
X017986Y012736D01*
X018053Y012574D01*
X018176Y012451D01*
X018338Y012384D01*
X018513Y012384D01*
X018674Y012451D01*
X018797Y012574D01*
X018841Y012680D02*
X019009Y012680D01*
X018986Y012839D02*
X018864Y012839D01*
X018828Y012997D02*
X019022Y012997D01*
X019137Y013156D02*
X018713Y013156D01*
X018674Y013451D02*
X018797Y013574D01*
X018864Y013736D01*
X018864Y013910D01*
X018797Y014072D01*
X018674Y014195D01*
X018513Y014262D01*
X018338Y014262D01*
X018176Y014195D01*
X018053Y014072D01*
X017986Y013910D01*
X017986Y013736D01*
X018053Y013574D01*
X018176Y013451D01*
X018338Y013384D01*
X018513Y013384D01*
X018674Y013451D01*
X018696Y013473D02*
X019127Y013473D01*
X019008Y013631D02*
X018821Y013631D01*
X018864Y013790D02*
X018966Y013790D01*
X018984Y013948D02*
X018849Y013948D01*
X018762Y014107D02*
X019064Y014107D01*
X019405Y014107D02*
X019445Y014107D01*
X019445Y013948D02*
X019405Y013948D01*
X019405Y013790D02*
X019445Y013790D01*
X019445Y013631D02*
X019405Y013631D01*
X019405Y013473D02*
X019445Y013473D01*
X019723Y013473D02*
X020127Y013473D01*
X020008Y013631D02*
X019842Y013631D01*
X019884Y013790D02*
X019966Y013790D01*
X019984Y013948D02*
X019867Y013948D01*
X019786Y014107D02*
X020064Y014107D01*
X020713Y013156D02*
X021137Y013156D01*
X021022Y012997D02*
X020828Y012997D01*
X020864Y012839D02*
X020986Y012839D01*
X021009Y012680D02*
X020841Y012680D01*
X020745Y012522D02*
X021106Y012522D01*
X022405Y013473D02*
X022445Y013473D01*
X022445Y013631D02*
X022405Y013631D01*
X022405Y013790D02*
X022445Y013790D01*
X022445Y013948D02*
X022405Y013948D01*
X022405Y014107D02*
X022445Y014107D01*
X023483Y014741D02*
X033684Y014741D01*
X033684Y014899D02*
X023737Y014899D01*
X023715Y014875D02*
X023715Y014875D01*
X023879Y015058D02*
X033684Y015058D01*
X033684Y015216D02*
X023969Y015216D01*
X023917Y015100D02*
X023917Y015100D01*
X024039Y015375D02*
X033684Y015375D01*
X033684Y015533D02*
X024056Y015533D01*
X024040Y015376D02*
X024040Y015376D01*
X024056Y015692D02*
X033684Y015692D01*
X033684Y015850D02*
X024056Y015850D01*
X024056Y016009D02*
X033684Y016009D01*
X033684Y016167D02*
X024056Y016167D01*
X024056Y016326D02*
X033684Y016326D01*
X033684Y016484D02*
X024056Y016484D01*
X024056Y016643D02*
X033684Y016643D01*
X033684Y016801D02*
X024056Y016801D01*
X024056Y016960D02*
X033684Y016960D01*
X033684Y017118D02*
X024056Y017118D01*
X024056Y017277D02*
X033684Y017277D01*
X033684Y017435D02*
X033091Y017435D01*
X033109Y017441D02*
X033174Y017474D01*
X033232Y017516D01*
X033283Y017567D01*
X033325Y017626D01*
X033358Y017690D01*
X033381Y017759D01*
X033392Y017830D01*
X033392Y017846D01*
X032953Y017846D01*
X032953Y017407D01*
X032969Y017407D01*
X033040Y017419D01*
X033109Y017441D01*
X032953Y017435D02*
X032913Y017435D01*
X032913Y017407D02*
X032913Y017846D01*
X032953Y017846D01*
X032953Y017886D01*
X033392Y017886D01*
X033392Y017902D01*
X033381Y017974D01*
X033358Y018042D01*
X033325Y018107D01*
X033283Y018165D01*
X033232Y018216D01*
X033174Y018258D01*
X033109Y018291D01*
X033040Y018314D01*
X032969Y018325D01*
X032953Y018325D01*
X032953Y017886D01*
X032913Y017886D01*
X032913Y017846D01*
X032474Y017846D01*
X032474Y017830D01*
X032486Y017759D01*
X032508Y017690D01*
X032541Y017626D01*
X032583Y017567D01*
X032634Y017516D01*
X032693Y017474D01*
X032757Y017441D01*
X032826Y017419D01*
X032897Y017407D01*
X032913Y017407D01*
X032775Y017435D02*
X024056Y017435D01*
X024056Y017594D02*
X032564Y017594D01*
X032488Y017752D02*
X024056Y017752D01*
X024056Y017911D02*
X032476Y017911D01*
X032474Y017902D02*
X032474Y017886D01*
X032913Y017886D01*
X032913Y018325D01*
X032897Y018325D01*
X032826Y018314D01*
X032757Y018291D01*
X032693Y018258D01*
X032634Y018216D01*
X032583Y018165D01*
X032541Y018107D01*
X032508Y018042D01*
X032486Y017974D01*
X032474Y017902D01*
X032522Y018069D02*
X024056Y018069D01*
X024056Y018228D02*
X032650Y018228D01*
X032913Y018228D02*
X032953Y018228D01*
X032953Y018069D02*
X032913Y018069D01*
X032913Y017911D02*
X032953Y017911D01*
X032953Y017752D02*
X032913Y017752D01*
X032913Y017594D02*
X032953Y017594D01*
X033302Y017594D02*
X033684Y017594D01*
X033684Y017752D02*
X033378Y017752D01*
X033390Y017911D02*
X033684Y017911D01*
X033684Y018069D02*
X033345Y018069D01*
X033216Y018228D02*
X033684Y018228D01*
X033684Y018386D02*
X024056Y018386D01*
X024056Y018545D02*
X032634Y018545D01*
X032684Y018494D02*
X032561Y018617D01*
X032494Y018779D01*
X032494Y018953D01*
X032561Y019115D01*
X032684Y019238D01*
X032846Y019305D01*
X033020Y019305D01*
X033182Y019238D01*
X033305Y019115D01*
X033372Y018953D01*
X033372Y018779D01*
X033305Y018617D01*
X033182Y018494D01*
X033020Y018427D01*
X032846Y018427D01*
X032684Y018494D01*
X032525Y018703D02*
X024056Y018703D01*
X024056Y018862D02*
X032494Y018862D01*
X032522Y019020D02*
X024056Y019020D01*
X024056Y019179D02*
X032625Y019179D01*
X032684Y019494D02*
X032846Y019427D01*
X033020Y019427D01*
X033182Y019494D01*
X033305Y019617D01*
X033372Y019779D01*
X033372Y019953D01*
X033305Y020115D01*
X033182Y020238D01*
X033020Y020305D01*
X032846Y020305D01*
X032684Y020238D01*
X032561Y020115D01*
X032494Y019953D01*
X032494Y019779D01*
X032561Y019617D01*
X032684Y019494D01*
X032683Y019496D02*
X031646Y019496D01*
X031617Y019467D02*
X031689Y019539D01*
X031729Y019634D01*
X031729Y019736D01*
X031689Y019831D01*
X031617Y019903D01*
X031523Y019942D01*
X031420Y019942D01*
X031326Y019903D01*
X031253Y019831D01*
X031214Y019736D01*
X031214Y019634D01*
X031253Y019539D01*
X031326Y019467D01*
X031420Y019428D01*
X031523Y019428D01*
X031617Y019467D01*
X031729Y019654D02*
X032546Y019654D01*
X032494Y019813D02*
X031697Y019813D01*
X031246Y019813D02*
X024056Y019813D01*
X024056Y019971D02*
X032501Y019971D01*
X032576Y020130D02*
X024056Y020130D01*
X024056Y020288D02*
X032804Y020288D01*
X032846Y020427D02*
X033020Y020427D01*
X033182Y020494D01*
X033305Y020617D01*
X033372Y020779D01*
X033372Y020953D01*
X033305Y021115D01*
X033182Y021238D01*
X033020Y021305D01*
X032846Y021305D01*
X032684Y021238D01*
X032561Y021115D01*
X032494Y020953D01*
X032494Y020779D01*
X032561Y020617D01*
X032684Y020494D01*
X032846Y020427D01*
X032799Y020447D02*
X024056Y020447D01*
X024056Y020605D02*
X032573Y020605D01*
X032500Y020764D02*
X024056Y020764D01*
X024056Y020922D02*
X032494Y020922D01*
X032547Y021081D02*
X031877Y021081D01*
X031911Y021114D02*
X031839Y021042D01*
X031744Y021003D01*
X031642Y021003D01*
X031547Y021042D01*
X031475Y021114D01*
X031436Y021209D01*
X031436Y021311D01*
X031475Y021406D01*
X031547Y021478D01*
X031642Y021517D01*
X031744Y021517D01*
X031839Y021478D01*
X031911Y021406D01*
X031950Y021311D01*
X031950Y021209D01*
X031911Y021114D01*
X031950Y021239D02*
X032686Y021239D01*
X033180Y021239D02*
X033684Y021239D01*
X033684Y021081D02*
X033319Y021081D01*
X033372Y020922D02*
X033684Y020922D01*
X033684Y020764D02*
X033366Y020764D01*
X033293Y020605D02*
X033684Y020605D01*
X033684Y020447D02*
X033067Y020447D01*
X033062Y020288D02*
X033684Y020288D01*
X033684Y020130D02*
X033291Y020130D01*
X033365Y019971D02*
X033684Y019971D01*
X033684Y019813D02*
X033372Y019813D01*
X033320Y019654D02*
X033684Y019654D01*
X033684Y019496D02*
X033183Y019496D01*
X033242Y019179D02*
X033684Y019179D01*
X033684Y019337D02*
X024056Y019337D01*
X024056Y019496D02*
X031297Y019496D01*
X031214Y019654D02*
X024056Y019654D01*
X024056Y021081D02*
X031509Y021081D01*
X031436Y021239D02*
X024056Y021239D01*
X024056Y021398D02*
X031472Y021398D01*
X031914Y021398D02*
X033684Y021398D01*
X033684Y021556D02*
X024056Y021556D01*
X024056Y021715D02*
X033684Y021715D01*
X033684Y021873D02*
X024056Y021873D01*
X024056Y022032D02*
X033684Y022032D01*
X033684Y022190D02*
X033027Y022190D01*
X033035Y022194D02*
X033257Y022415D01*
X033377Y022705D01*
X033377Y023019D01*
X033257Y023309D01*
X033035Y023531D01*
X032745Y023651D01*
X032432Y023651D01*
X032142Y023531D01*
X031920Y023309D01*
X031849Y023138D01*
X031815Y023220D01*
X031762Y023312D01*
X031698Y023396D01*
X031623Y023471D01*
X031539Y023536D01*
X031447Y023589D01*
X031349Y023629D01*
X031247Y023657D01*
X031169Y023667D01*
X031169Y022942D01*
X031009Y022942D01*
X031009Y023667D01*
X030931Y023657D01*
X030828Y023629D01*
X030730Y023589D01*
X030639Y023536D01*
X030554Y023471D01*
X030480Y023396D01*
X030415Y023312D01*
X030362Y023220D01*
X030321Y023123D01*
X030294Y023020D01*
X030284Y022942D01*
X031009Y022942D01*
X031009Y022782D01*
X031169Y022782D01*
X031169Y022057D01*
X031247Y022068D01*
X031349Y022095D01*
X031447Y022136D01*
X031539Y022189D01*
X031623Y022253D01*
X031698Y022328D01*
X031762Y022412D01*
X031815Y022504D01*
X031849Y022586D01*
X031920Y022415D01*
X032142Y022194D01*
X032432Y022074D01*
X032745Y022074D01*
X033035Y022194D01*
X033190Y022349D02*
X033684Y022349D01*
X033684Y022507D02*
X033295Y022507D01*
X033361Y022666D02*
X033684Y022666D01*
X033684Y022824D02*
X033377Y022824D01*
X033377Y022983D02*
X033684Y022983D01*
X033684Y023141D02*
X033327Y023141D01*
X033261Y023300D02*
X033684Y023300D01*
X033684Y023458D02*
X033108Y023458D01*
X032828Y023617D02*
X033684Y023617D01*
X033684Y023775D02*
X024056Y023775D01*
X024056Y023617D02*
X030797Y023617D01*
X031009Y023617D02*
X031169Y023617D01*
X031169Y023458D02*
X031009Y023458D01*
X031009Y023300D02*
X031169Y023300D01*
X031169Y023141D02*
X031009Y023141D01*
X031009Y022983D02*
X031169Y022983D01*
X031009Y022824D02*
X027568Y022824D01*
X027580Y022837D02*
X027619Y022931D01*
X027619Y023033D01*
X027580Y023128D01*
X027508Y023200D01*
X027413Y023239D01*
X027311Y023239D01*
X027217Y023200D01*
X027144Y023128D01*
X027105Y023033D01*
X027105Y022931D01*
X027144Y022837D01*
X027217Y022764D01*
X027311Y022725D01*
X027413Y022725D01*
X027508Y022764D01*
X027580Y022837D01*
X027619Y022983D02*
X030289Y022983D01*
X030329Y023141D02*
X027567Y023141D01*
X027157Y023141D02*
X025549Y023141D01*
X025563Y023128D02*
X025490Y023200D01*
X025396Y023239D01*
X025293Y023239D01*
X025199Y023200D01*
X025126Y023128D01*
X025087Y023033D01*
X025087Y022931D01*
X025126Y022837D01*
X025199Y022764D01*
X025293Y022725D01*
X025396Y022725D01*
X025490Y022764D01*
X025563Y022837D01*
X025602Y022931D01*
X025602Y023033D01*
X025563Y023128D01*
X025602Y022983D02*
X027105Y022983D01*
X027157Y022824D02*
X025550Y022824D01*
X025139Y022824D02*
X024056Y022824D01*
X024056Y022666D02*
X030304Y022666D01*
X030294Y022704D02*
X030321Y022602D01*
X030362Y022504D01*
X030415Y022412D01*
X030480Y022328D01*
X030554Y022253D01*
X030639Y022189D01*
X030730Y022136D01*
X030828Y022095D01*
X030931Y022068D01*
X031009Y022057D01*
X031009Y022782D01*
X030284Y022782D01*
X030294Y022704D01*
X030361Y022507D02*
X024056Y022507D01*
X024056Y022349D02*
X030464Y022349D01*
X030637Y022190D02*
X024056Y022190D01*
X024056Y022983D02*
X025087Y022983D01*
X025140Y023141D02*
X024056Y023141D01*
X024056Y023300D02*
X030408Y023300D01*
X030541Y023458D02*
X024056Y023458D01*
X024056Y023934D02*
X033684Y023934D01*
X033684Y024092D02*
X033060Y024092D01*
X033031Y024064D02*
X033253Y024286D01*
X033373Y024575D01*
X033373Y024889D01*
X033253Y025179D01*
X033031Y025401D01*
X032742Y025521D01*
X032428Y025521D01*
X032138Y025401D01*
X031916Y025179D01*
X031835Y024982D01*
X031753Y025179D01*
X031531Y025401D01*
X031242Y025521D01*
X030928Y025521D01*
X030638Y025401D01*
X030416Y025179D01*
X030296Y024889D01*
X030296Y024575D01*
X030416Y024286D01*
X030638Y024064D01*
X030928Y023944D01*
X031242Y023944D01*
X031531Y024064D01*
X031753Y024286D01*
X031835Y024482D01*
X031916Y024286D01*
X032138Y024064D01*
X032428Y023944D01*
X032742Y023944D01*
X033031Y024064D01*
X033218Y024251D02*
X033684Y024251D01*
X033684Y024409D02*
X033304Y024409D01*
X033370Y024568D02*
X033684Y024568D01*
X033684Y024726D02*
X033373Y024726D01*
X033373Y024885D02*
X033684Y024885D01*
X033684Y025043D02*
X033310Y025043D01*
X033231Y025202D02*
X033684Y025202D01*
X033684Y025360D02*
X033549Y025360D01*
X033560Y025371D02*
X033599Y025466D01*
X033599Y025568D01*
X033560Y025662D01*
X033487Y025735D01*
X033393Y025774D01*
X033290Y025774D01*
X033196Y025735D01*
X033124Y025662D01*
X033084Y025568D01*
X033084Y025466D01*
X033124Y025371D01*
X033196Y025299D01*
X033290Y025260D01*
X033393Y025260D01*
X033487Y025299D01*
X033560Y025371D01*
X033599Y025519D02*
X033684Y025519D01*
X033684Y025677D02*
X033545Y025677D01*
X033684Y025836D02*
X001349Y025836D01*
X001327Y025845D02*
X001153Y025845D01*
X000991Y025778D01*
X000868Y025654D01*
X000801Y025493D01*
X000801Y025318D01*
X000868Y025157D01*
X000991Y025033D01*
X001153Y024966D01*
X001327Y024966D01*
X001489Y025033D01*
X001612Y025157D01*
X001679Y025318D01*
X001679Y025493D01*
X001612Y025654D01*
X001489Y025778D01*
X001327Y025845D01*
X001131Y025836D02*
X000300Y025836D01*
X000300Y025994D02*
X033684Y025994D01*
X033684Y026153D02*
X025577Y026153D01*
X025567Y026142D02*
X025622Y026197D01*
X025665Y026262D01*
X025695Y026334D01*
X025710Y026410D01*
X025710Y026449D01*
X025710Y026488D01*
X025695Y026564D01*
X025665Y026636D01*
X025622Y026701D01*
X025567Y026756D01*
X025502Y026799D01*
X025430Y026829D01*
X025354Y026844D01*
X025315Y026844D01*
X025315Y026449D01*
X025315Y026449D01*
X025315Y026844D01*
X025276Y026844D01*
X025200Y026829D01*
X025128Y026799D01*
X025063Y026756D01*
X025008Y026701D01*
X024965Y026636D01*
X024935Y026564D01*
X024920Y026488D01*
X024920Y026449D01*
X025315Y026449D01*
X025710Y026449D01*
X025315Y026449D01*
X025315Y026449D01*
X025315Y026449D01*
X024920Y026449D01*
X024920Y026410D01*
X024935Y026334D01*
X024965Y026262D01*
X025008Y026197D01*
X025063Y026142D01*
X025128Y026099D01*
X025200Y026069D01*
X025276Y026054D01*
X025315Y026054D01*
X025354Y026054D01*
X025430Y026069D01*
X025502Y026099D01*
X025567Y026142D01*
X025685Y026311D02*
X033684Y026311D01*
X033684Y026470D02*
X025710Y026470D01*
X025668Y026628D02*
X033684Y026628D01*
X033684Y026787D02*
X025520Y026787D01*
X025528Y026918D02*
X025633Y027024D01*
X025690Y027162D01*
X025690Y027311D01*
X025633Y027449D01*
X025528Y027554D01*
X025390Y027611D01*
X025240Y027611D01*
X025102Y027554D01*
X024997Y027449D01*
X024940Y027311D01*
X024940Y027162D01*
X024997Y027024D01*
X025102Y026918D01*
X025240Y026861D01*
X025390Y026861D01*
X025528Y026918D01*
X025555Y026945D02*
X032952Y026945D01*
X032927Y026970D02*
X032999Y026898D01*
X033094Y026859D01*
X033196Y026859D01*
X033290Y026898D01*
X033363Y026970D01*
X033402Y027065D01*
X033402Y027167D01*
X033363Y027262D01*
X033290Y027334D01*
X033196Y027373D01*
X033094Y027373D01*
X032999Y027334D01*
X032927Y027262D01*
X025690Y027262D01*
X025666Y027104D02*
X032888Y027104D01*
X032888Y027065D02*
X032927Y026970D01*
X032888Y027065D02*
X032888Y027167D01*
X032927Y027262D01*
X033362Y027262D02*
X033676Y027262D01*
X033684Y027104D02*
X033402Y027104D01*
X033337Y026945D02*
X033684Y026945D01*
X033648Y027421D02*
X025645Y027421D01*
X025468Y027579D02*
X033606Y027579D01*
X033550Y027738D02*
X023864Y027738D01*
X023864Y027712D02*
X023864Y027887D01*
X023797Y028048D01*
X023674Y028171D01*
X023513Y028238D01*
X023338Y028238D01*
X023176Y028171D01*
X023053Y028048D01*
X022986Y027887D01*
X022986Y027712D01*
X023053Y027551D01*
X023176Y027427D01*
X023338Y027360D01*
X023513Y027360D01*
X023674Y027427D01*
X023797Y027551D01*
X023864Y027712D01*
X023809Y027579D02*
X025162Y027579D01*
X024985Y027421D02*
X023658Y027421D01*
X023513Y027238D02*
X023338Y027238D01*
X023176Y027171D01*
X023053Y027048D01*
X022986Y026887D01*
X022986Y026712D01*
X023053Y026551D01*
X023176Y026427D01*
X023338Y026360D01*
X023513Y026360D01*
X023674Y026427D01*
X023797Y026551D01*
X023864Y026712D01*
X023864Y026887D01*
X023797Y027048D01*
X023674Y027171D01*
X023513Y027238D01*
X023742Y027104D02*
X024964Y027104D01*
X024940Y027262D02*
X000300Y027262D01*
X000300Y027104D02*
X004109Y027104D01*
X004053Y027048D02*
X003986Y026887D01*
X003986Y026712D01*
X004053Y026551D01*
X004176Y026427D01*
X004338Y026360D01*
X004513Y026360D01*
X004674Y026427D01*
X004797Y026551D01*
X004864Y026712D01*
X004864Y026887D01*
X004797Y027048D01*
X004674Y027171D01*
X004513Y027238D01*
X004338Y027238D01*
X004176Y027171D01*
X004053Y027048D01*
X004010Y026945D02*
X000300Y026945D01*
X000300Y026787D02*
X003986Y026787D01*
X004021Y026628D02*
X000300Y026628D01*
X000300Y026470D02*
X004134Y026470D01*
X004716Y026470D02*
X005106Y026470D01*
X005126Y026449D02*
X005185Y026407D01*
X005249Y026374D01*
X005318Y026352D01*
X005389Y026340D01*
X005405Y026340D01*
X005405Y026779D01*
X004966Y026779D01*
X004966Y026763D01*
X004978Y026692D01*
X005000Y026623D01*
X005033Y026559D01*
X005075Y026500D01*
X005126Y026449D01*
X004998Y026628D02*
X004830Y026628D01*
X004864Y026787D02*
X005405Y026787D01*
X005405Y026779D02*
X005405Y026819D01*
X004966Y026819D01*
X004966Y026835D01*
X004978Y026907D01*
X005000Y026975D01*
X005033Y027040D01*
X005075Y027098D01*
X005126Y027149D01*
X005185Y027192D01*
X005249Y027224D01*
X005318Y027247D01*
X005389Y027258D01*
X005405Y027258D01*
X005405Y026819D01*
X005445Y026819D01*
X005884Y026819D01*
X005884Y026835D01*
X005873Y026907D01*
X005850Y026975D01*
X005818Y027040D01*
X005775Y027098D01*
X005724Y027149D01*
X005666Y027192D01*
X005601Y027224D01*
X005533Y027247D01*
X005461Y027258D01*
X005445Y027258D01*
X005445Y026819D01*
X005445Y026779D01*
X005445Y026340D01*
X005461Y026340D01*
X005533Y026352D01*
X005601Y026374D01*
X005666Y026407D01*
X005724Y026449D01*
X005775Y026500D01*
X005818Y026559D01*
X005850Y026623D01*
X005873Y026692D01*
X005884Y026763D01*
X005884Y026779D01*
X005445Y026779D01*
X005405Y026779D01*
X005445Y026787D02*
X006405Y026787D01*
X006405Y026779D02*
X005966Y026779D01*
X005966Y026763D01*
X005978Y026692D01*
X006000Y026623D01*
X006033Y026559D01*
X006075Y026500D01*
X006126Y026449D01*
X006185Y026407D01*
X006249Y026374D01*
X006318Y026352D01*
X006389Y026340D01*
X006405Y026340D01*
X006405Y026779D01*
X006405Y026819D01*
X005966Y026819D01*
X005966Y026835D01*
X005978Y026907D01*
X006000Y026975D01*
X006033Y027040D01*
X006075Y027098D01*
X006126Y027149D01*
X006185Y027192D01*
X006249Y027224D01*
X006318Y027247D01*
X006389Y027258D01*
X006405Y027258D01*
X006405Y026819D01*
X006445Y026819D01*
X006884Y026819D01*
X006884Y026835D01*
X006873Y026907D01*
X006850Y026975D01*
X006818Y027040D01*
X006775Y027098D01*
X006724Y027149D01*
X006666Y027192D01*
X006601Y027224D01*
X006533Y027247D01*
X006461Y027258D01*
X006445Y027258D01*
X006445Y026819D01*
X006445Y026779D01*
X006445Y026340D01*
X006461Y026340D01*
X006533Y026352D01*
X006601Y026374D01*
X006666Y026407D01*
X006724Y026449D01*
X006775Y026500D01*
X006818Y026559D01*
X006850Y026623D01*
X006873Y026692D01*
X006884Y026763D01*
X006884Y026779D01*
X006445Y026779D01*
X006405Y026779D01*
X006445Y026787D02*
X006986Y026787D01*
X006986Y026712D02*
X007053Y026551D01*
X007176Y026427D01*
X007338Y026360D01*
X007513Y026360D01*
X007674Y026427D01*
X007797Y026551D01*
X007864Y026712D01*
X007864Y026887D01*
X007797Y027048D01*
X007674Y027171D01*
X007513Y027238D01*
X007338Y027238D01*
X007176Y027171D01*
X007053Y027048D01*
X006986Y026887D01*
X006986Y026712D01*
X007021Y026628D02*
X006852Y026628D01*
X006744Y026470D02*
X007134Y026470D01*
X007010Y026945D02*
X006860Y026945D01*
X006770Y027104D02*
X007109Y027104D01*
X007192Y027421D02*
X006658Y027421D01*
X006674Y027427D02*
X006797Y027551D01*
X006864Y027712D01*
X006864Y027887D01*
X006797Y028048D01*
X006674Y028171D01*
X006513Y028238D01*
X006338Y028238D01*
X006176Y028171D01*
X006053Y028048D01*
X005986Y027887D01*
X005986Y027712D01*
X006053Y027551D01*
X006176Y027427D01*
X006338Y027360D01*
X006513Y027360D01*
X006674Y027427D01*
X006809Y027579D02*
X007041Y027579D01*
X007053Y027551D02*
X007176Y027427D01*
X007338Y027360D01*
X007513Y027360D01*
X007674Y027427D01*
X007797Y027551D01*
X007864Y027712D01*
X007864Y027887D01*
X007797Y028048D01*
X007674Y028171D01*
X007513Y028238D01*
X007338Y028238D01*
X007176Y028171D01*
X007053Y028048D01*
X006986Y027887D01*
X006986Y027712D01*
X007053Y027551D01*
X006986Y027738D02*
X006864Y027738D01*
X006860Y027896D02*
X006990Y027896D01*
X007060Y028055D02*
X006791Y028055D01*
X006573Y028213D02*
X007277Y028213D01*
X007573Y028213D02*
X008277Y028213D01*
X008338Y028238D02*
X008176Y028171D01*
X008053Y028048D01*
X007986Y027887D01*
X007986Y027712D01*
X008053Y027551D01*
X008176Y027427D01*
X008338Y027360D01*
X008513Y027360D01*
X008674Y027427D01*
X008797Y027551D01*
X008864Y027712D01*
X008864Y027887D01*
X008797Y028048D01*
X008674Y028171D01*
X008513Y028238D01*
X008338Y028238D01*
X008573Y028213D02*
X009277Y028213D01*
X009338Y028238D02*
X009176Y028171D01*
X009053Y028048D01*
X008986Y027887D01*
X008986Y027712D01*
X009053Y027551D01*
X009176Y027427D01*
X009338Y027360D01*
X009513Y027360D01*
X009674Y027427D01*
X009797Y027551D01*
X009864Y027712D01*
X009864Y027887D01*
X009797Y028048D01*
X009674Y028171D01*
X009513Y028238D01*
X009338Y028238D01*
X009573Y028213D02*
X010277Y028213D01*
X010338Y028238D02*
X010176Y028171D01*
X010053Y028048D01*
X009986Y027887D01*
X009986Y027712D01*
X010053Y027551D01*
X010176Y027427D01*
X010338Y027360D01*
X010513Y027360D01*
X010674Y027427D01*
X010797Y027551D01*
X010864Y027712D01*
X010864Y027887D01*
X010797Y028048D01*
X010674Y028171D01*
X010513Y028238D01*
X010338Y028238D01*
X010573Y028213D02*
X011277Y028213D01*
X011338Y028238D02*
X011176Y028171D01*
X011053Y028048D01*
X010986Y027887D01*
X010986Y027712D01*
X011053Y027551D01*
X011176Y027427D01*
X011338Y027360D01*
X011513Y027360D01*
X011674Y027427D01*
X011797Y027551D01*
X011864Y027712D01*
X011864Y027887D01*
X011797Y028048D01*
X011674Y028171D01*
X011513Y028238D01*
X011338Y028238D01*
X011573Y028213D02*
X012277Y028213D01*
X012338Y028238D02*
X012176Y028171D01*
X012053Y028048D01*
X011986Y027887D01*
X011986Y027712D01*
X012053Y027551D01*
X012176Y027427D01*
X012338Y027360D01*
X012513Y027360D01*
X012674Y027427D01*
X012797Y027551D01*
X012864Y027712D01*
X012864Y027887D01*
X012797Y028048D01*
X012674Y028171D01*
X012513Y028238D01*
X012338Y028238D01*
X012573Y028213D02*
X013277Y028213D01*
X013338Y028238D02*
X013176Y028171D01*
X013053Y028048D01*
X012986Y027887D01*
X012986Y027712D01*
X013053Y027551D01*
X013176Y027427D01*
X013338Y027360D01*
X013513Y027360D01*
X013674Y027427D01*
X013797Y027551D01*
X013864Y027712D01*
X013864Y027887D01*
X013797Y028048D01*
X013674Y028171D01*
X013513Y028238D01*
X013338Y028238D01*
X013573Y028213D02*
X014277Y028213D01*
X014338Y028238D02*
X014176Y028171D01*
X014053Y028048D01*
X013986Y027887D01*
X013986Y027712D01*
X014053Y027551D01*
X014176Y027427D01*
X014338Y027360D01*
X014513Y027360D01*
X014674Y027427D01*
X014797Y027551D01*
X014864Y027712D01*
X014864Y027887D01*
X014797Y028048D01*
X014674Y028171D01*
X014513Y028238D01*
X014338Y028238D01*
X014573Y028213D02*
X015277Y028213D01*
X015338Y028238D02*
X015176Y028171D01*
X015053Y028048D01*
X014986Y027887D01*
X014986Y027712D01*
X015053Y027551D01*
X015176Y027427D01*
X015338Y027360D01*
X015513Y027360D01*
X015674Y027427D01*
X015797Y027551D01*
X015864Y027712D01*
X015864Y027887D01*
X015797Y028048D01*
X015674Y028171D01*
X015513Y028238D01*
X015338Y028238D01*
X015573Y028213D02*
X016277Y028213D01*
X016338Y028238D02*
X016176Y028171D01*
X016053Y028048D01*
X015986Y027887D01*
X015986Y027712D01*
X016053Y027551D01*
X016176Y027427D01*
X016338Y027360D01*
X016513Y027360D01*
X016674Y027427D01*
X016797Y027551D01*
X016864Y027712D01*
X016864Y027887D01*
X016797Y028048D01*
X016674Y028171D01*
X016513Y028238D01*
X016338Y028238D01*
X016573Y028213D02*
X017277Y028213D01*
X017338Y028238D02*
X017176Y028171D01*
X017053Y028048D01*
X016986Y027887D01*
X016986Y027712D01*
X017053Y027551D01*
X017176Y027427D01*
X017338Y027360D01*
X017513Y027360D01*
X017674Y027427D01*
X017797Y027551D01*
X017864Y027712D01*
X017864Y027887D01*
X017797Y028048D01*
X017674Y028171D01*
X017513Y028238D01*
X017338Y028238D01*
X017573Y028213D02*
X018277Y028213D01*
X018338Y028238D02*
X018176Y028171D01*
X018053Y028048D01*
X017986Y027887D01*
X017986Y027712D01*
X018053Y027551D01*
X018176Y027427D01*
X018338Y027360D01*
X018513Y027360D01*
X018674Y027427D01*
X018797Y027551D01*
X018864Y027712D01*
X018864Y027887D01*
X018797Y028048D01*
X018674Y028171D01*
X018513Y028238D01*
X018338Y028238D01*
X018573Y028213D02*
X019277Y028213D01*
X019338Y028238D02*
X019176Y028171D01*
X019053Y028048D01*
X018986Y027887D01*
X018986Y027712D01*
X019053Y027551D01*
X019176Y027427D01*
X019338Y027360D01*
X019513Y027360D01*
X019674Y027427D01*
X019797Y027551D01*
X019864Y027712D01*
X019864Y027887D01*
X019797Y028048D01*
X019674Y028171D01*
X019513Y028238D01*
X019338Y028238D01*
X019573Y028213D02*
X020277Y028213D01*
X020338Y028238D02*
X020176Y028171D01*
X020053Y028048D01*
X019986Y027887D01*
X019986Y027712D01*
X020053Y027551D01*
X020176Y027427D01*
X020338Y027360D01*
X020513Y027360D01*
X020674Y027427D01*
X020797Y027551D01*
X020864Y027712D01*
X020864Y027887D01*
X020797Y028048D01*
X020674Y028171D01*
X020513Y028238D01*
X020338Y028238D01*
X020573Y028213D02*
X021277Y028213D01*
X021338Y028238D02*
X021176Y028171D01*
X021053Y028048D01*
X020986Y027887D01*
X020986Y027712D01*
X021053Y027551D01*
X021176Y027427D01*
X021338Y027360D01*
X021513Y027360D01*
X021674Y027427D01*
X021797Y027551D01*
X021864Y027712D01*
X021864Y027887D01*
X021797Y028048D01*
X021674Y028171D01*
X021513Y028238D01*
X021338Y028238D01*
X021573Y028213D02*
X022277Y028213D01*
X022338Y028238D02*
X022176Y028171D01*
X022053Y028048D01*
X021986Y027887D01*
X021986Y027712D01*
X022053Y027551D01*
X022176Y027427D01*
X022338Y027360D01*
X022513Y027360D01*
X022674Y027427D01*
X022797Y027551D01*
X022864Y027712D01*
X022864Y027887D01*
X022797Y028048D01*
X022674Y028171D01*
X022513Y028238D01*
X022338Y028238D01*
X022573Y028213D02*
X023277Y028213D01*
X023060Y028055D02*
X022791Y028055D01*
X022860Y027896D02*
X022990Y027896D01*
X022986Y027738D02*
X022864Y027738D01*
X022809Y027579D02*
X023041Y027579D01*
X023192Y027421D02*
X022658Y027421D01*
X022513Y027238D02*
X022338Y027238D01*
X022176Y027171D01*
X022053Y027048D01*
X021986Y026887D01*
X021986Y026712D01*
X022053Y026551D01*
X022176Y026427D01*
X022338Y026360D01*
X022513Y026360D01*
X022674Y026427D01*
X022797Y026551D01*
X022864Y026712D01*
X022864Y026887D01*
X022797Y027048D01*
X022674Y027171D01*
X022513Y027238D01*
X022742Y027104D02*
X023109Y027104D01*
X023010Y026945D02*
X022840Y026945D01*
X022864Y026787D02*
X022986Y026787D01*
X023021Y026628D02*
X022830Y026628D01*
X022716Y026470D02*
X023134Y026470D01*
X023716Y026470D02*
X024920Y026470D01*
X024945Y026311D02*
X000300Y026311D01*
X000300Y026153D02*
X025053Y026153D01*
X025315Y026153D02*
X025315Y026153D01*
X025315Y026054D02*
X025315Y026449D01*
X025315Y026449D01*
X025315Y026054D01*
X025315Y026311D02*
X025315Y026311D01*
X025315Y026470D02*
X025315Y026470D01*
X025315Y026628D02*
X025315Y026628D01*
X025315Y026787D02*
X025315Y026787D01*
X025109Y026787D02*
X023864Y026787D01*
X023840Y026945D02*
X025075Y026945D01*
X024962Y026628D02*
X023830Y026628D01*
X023493Y025519D02*
X030922Y025519D01*
X031247Y025519D02*
X032422Y025519D01*
X032747Y025519D02*
X033084Y025519D01*
X033072Y025360D02*
X033135Y025360D01*
X033138Y025677D02*
X001590Y025677D01*
X001669Y025519D02*
X004546Y025519D01*
X004525Y025512D02*
X004525Y025512D01*
X004316Y025360D02*
X001679Y025360D01*
X001631Y025202D02*
X004164Y025202D01*
X004238Y025303D02*
X004238Y025303D01*
X004238Y025303D01*
X004049Y025043D02*
X001499Y025043D01*
X000982Y025043D02*
X000300Y025043D01*
X000300Y024885D02*
X003987Y024885D01*
X004030Y025016D02*
X004030Y025016D01*
X005405Y026470D02*
X005445Y026470D01*
X005445Y026628D02*
X005405Y026628D01*
X005405Y026945D02*
X005445Y026945D01*
X005445Y027104D02*
X005405Y027104D01*
X005405Y027340D02*
X005405Y027779D01*
X004966Y027779D01*
X004966Y027763D01*
X004978Y027692D01*
X005000Y027623D01*
X005033Y027559D01*
X005075Y027500D01*
X005126Y027449D01*
X005185Y027407D01*
X005249Y027374D01*
X005318Y027352D01*
X005389Y027340D01*
X005405Y027340D01*
X005445Y027340D02*
X005461Y027340D01*
X005533Y027352D01*
X005601Y027374D01*
X005666Y027407D01*
X005724Y027449D01*
X005775Y027500D01*
X005818Y027559D01*
X005850Y027623D01*
X005873Y027692D01*
X005884Y027763D01*
X005884Y027779D01*
X005445Y027779D01*
X005445Y027340D01*
X005445Y027421D02*
X005405Y027421D01*
X005405Y027579D02*
X005445Y027579D01*
X005445Y027738D02*
X005405Y027738D01*
X005405Y027779D02*
X005445Y027779D01*
X005445Y027819D01*
X005884Y027819D01*
X005884Y027835D01*
X005873Y027907D01*
X005850Y027975D01*
X005818Y028040D01*
X005775Y028098D01*
X005724Y028149D01*
X005666Y028192D01*
X005601Y028224D01*
X005533Y028247D01*
X005461Y028258D01*
X005445Y028258D01*
X005445Y027819D01*
X005405Y027819D01*
X005405Y027779D01*
X005405Y027819D02*
X004966Y027819D01*
X004966Y027835D01*
X004978Y027907D01*
X005000Y027975D01*
X005033Y028040D01*
X005075Y028098D01*
X005126Y028149D01*
X005185Y028192D01*
X005249Y028224D01*
X005318Y028247D01*
X005389Y028258D01*
X005405Y028258D01*
X005405Y027819D01*
X005405Y027896D02*
X005445Y027896D01*
X005445Y028055D02*
X005405Y028055D01*
X005405Y028213D02*
X005445Y028213D01*
X005623Y028213D02*
X006277Y028213D01*
X006060Y028055D02*
X005807Y028055D01*
X005874Y027896D02*
X005990Y027896D01*
X005986Y027738D02*
X005880Y027738D01*
X005828Y027579D02*
X006041Y027579D01*
X006192Y027421D02*
X005684Y027421D01*
X005770Y027104D02*
X006081Y027104D01*
X005990Y026945D02*
X005860Y026945D01*
X005852Y026628D02*
X005998Y026628D01*
X006106Y026470D02*
X005744Y026470D01*
X006405Y026470D02*
X006445Y026470D01*
X006445Y026628D02*
X006405Y026628D01*
X006405Y026945D02*
X006445Y026945D01*
X006445Y027104D02*
X006405Y027104D01*
X005166Y027421D02*
X004684Y027421D01*
X004666Y027407D02*
X004724Y027449D01*
X004775Y027500D01*
X004818Y027559D01*
X004850Y027623D01*
X004873Y027692D01*
X004884Y027763D01*
X004884Y027779D01*
X004445Y027779D01*
X004445Y027340D01*
X004461Y027340D01*
X004533Y027352D01*
X004601Y027374D01*
X004666Y027407D01*
X004445Y027421D02*
X004405Y027421D01*
X004405Y027340D02*
X004405Y027779D01*
X003966Y027779D01*
X003966Y027763D01*
X003978Y027692D01*
X004000Y027623D01*
X004033Y027559D01*
X004075Y027500D01*
X004126Y027449D01*
X004185Y027407D01*
X004249Y027374D01*
X004318Y027352D01*
X004389Y027340D01*
X004405Y027340D01*
X004405Y027579D02*
X004445Y027579D01*
X004445Y027738D02*
X004405Y027738D01*
X004405Y027779D02*
X004445Y027779D01*
X004445Y027819D01*
X004884Y027819D01*
X004884Y027835D01*
X004873Y027907D01*
X004850Y027975D01*
X004818Y028040D01*
X004775Y028098D01*
X004724Y028149D01*
X004666Y028192D01*
X004601Y028224D01*
X004533Y028247D01*
X004461Y028258D01*
X004445Y028258D01*
X004445Y027819D01*
X004405Y027819D01*
X004405Y027779D01*
X004405Y027819D02*
X003966Y027819D01*
X003966Y027835D01*
X003978Y027907D01*
X004000Y027975D01*
X004033Y028040D01*
X004075Y028098D01*
X004126Y028149D01*
X004185Y028192D01*
X004249Y028224D01*
X004318Y028247D01*
X004389Y028258D01*
X004405Y028258D01*
X004405Y027819D01*
X004405Y027896D02*
X004445Y027896D01*
X004445Y028055D02*
X004405Y028055D01*
X004405Y028213D02*
X004445Y028213D01*
X004623Y028213D02*
X005227Y028213D01*
X005044Y028055D02*
X004807Y028055D01*
X004874Y027896D02*
X004976Y027896D01*
X004971Y027738D02*
X004880Y027738D01*
X004828Y027579D02*
X005023Y027579D01*
X005081Y027104D02*
X004742Y027104D01*
X004840Y026945D02*
X004990Y026945D01*
X004166Y027421D02*
X000300Y027421D01*
X000308Y027579D02*
X004023Y027579D01*
X003971Y027738D02*
X000344Y027738D01*
X000388Y027896D02*
X003976Y027896D01*
X004044Y028055D02*
X000480Y028055D01*
X000602Y028213D02*
X004227Y028213D01*
X001136Y028530D02*
X032561Y028530D01*
X032965Y028372D02*
X000780Y028372D01*
X000891Y025677D02*
X000300Y025677D01*
X000300Y025519D02*
X000812Y025519D01*
X000801Y025360D02*
X000300Y025360D01*
X000300Y025202D02*
X000849Y025202D01*
X000912Y024726D02*
X000300Y024726D01*
X000300Y024568D02*
X000810Y024568D01*
X007658Y027421D02*
X008192Y027421D01*
X008041Y027579D02*
X007809Y027579D01*
X007864Y027738D02*
X007986Y027738D01*
X007990Y027896D02*
X007860Y027896D01*
X007791Y028055D02*
X008060Y028055D01*
X008791Y028055D02*
X009060Y028055D01*
X008990Y027896D02*
X008860Y027896D01*
X008864Y027738D02*
X008986Y027738D01*
X009041Y027579D02*
X008809Y027579D01*
X008658Y027421D02*
X009192Y027421D01*
X009338Y027238D02*
X009176Y027171D01*
X009053Y027048D01*
X008986Y026887D01*
X008986Y026712D01*
X009053Y026551D01*
X009176Y026427D01*
X009338Y026360D01*
X009513Y026360D01*
X009674Y026427D01*
X009797Y026551D01*
X009864Y026712D01*
X009864Y026887D01*
X009797Y027048D01*
X009674Y027171D01*
X009513Y027238D01*
X009338Y027238D01*
X009109Y027104D02*
X008742Y027104D01*
X008797Y027048D02*
X008674Y027171D01*
X008513Y027238D01*
X008338Y027238D01*
X008176Y027171D01*
X008053Y027048D01*
X007986Y026887D01*
X007986Y026712D01*
X008053Y026551D01*
X008176Y026427D01*
X008338Y026360D01*
X008513Y026360D01*
X008674Y026427D01*
X008797Y026551D01*
X008864Y026712D01*
X008864Y026887D01*
X008797Y027048D01*
X008840Y026945D02*
X009010Y026945D01*
X008986Y026787D02*
X008864Y026787D01*
X008830Y026628D02*
X009021Y026628D01*
X009134Y026470D02*
X008716Y026470D01*
X008134Y026470D02*
X007716Y026470D01*
X007830Y026628D02*
X008021Y026628D01*
X007986Y026787D02*
X007864Y026787D01*
X007840Y026945D02*
X008010Y026945D01*
X008109Y027104D02*
X007742Y027104D01*
X009658Y027421D02*
X010192Y027421D01*
X010041Y027579D02*
X009809Y027579D01*
X009864Y027738D02*
X009986Y027738D01*
X009990Y027896D02*
X009860Y027896D01*
X009791Y028055D02*
X010060Y028055D01*
X010658Y027421D02*
X011192Y027421D01*
X011041Y027579D02*
X010809Y027579D01*
X010864Y027738D02*
X010986Y027738D01*
X010990Y027896D02*
X010860Y027896D01*
X010791Y028055D02*
X011060Y028055D01*
X011791Y028055D02*
X012060Y028055D01*
X011990Y027896D02*
X011860Y027896D01*
X011864Y027738D02*
X011986Y027738D01*
X012041Y027579D02*
X011809Y027579D01*
X011658Y027421D02*
X012192Y027421D01*
X012338Y027238D02*
X012176Y027171D01*
X012053Y027048D01*
X011986Y026887D01*
X011986Y026712D01*
X012053Y026551D01*
X012176Y026427D01*
X012338Y026360D01*
X012513Y026360D01*
X012674Y026427D01*
X012797Y026551D01*
X012864Y026712D01*
X012864Y026887D01*
X012797Y027048D01*
X012674Y027171D01*
X012513Y027238D01*
X012338Y027238D01*
X012109Y027104D02*
X011742Y027104D01*
X011797Y027048D02*
X011674Y027171D01*
X011513Y027238D01*
X011338Y027238D01*
X011176Y027171D01*
X011053Y027048D01*
X010986Y026887D01*
X010986Y026712D01*
X011053Y026551D01*
X011176Y026427D01*
X011338Y026360D01*
X011513Y026360D01*
X011674Y026427D01*
X011797Y026551D01*
X011864Y026712D01*
X011864Y026887D01*
X011797Y027048D01*
X011840Y026945D02*
X012010Y026945D01*
X011986Y026787D02*
X011864Y026787D01*
X011830Y026628D02*
X012021Y026628D01*
X012134Y026470D02*
X011716Y026470D01*
X011134Y026470D02*
X010716Y026470D01*
X010674Y026427D02*
X010797Y026551D01*
X010864Y026712D01*
X010864Y026887D01*
X010797Y027048D01*
X010674Y027171D01*
X010513Y027238D01*
X010338Y027238D01*
X010176Y027171D01*
X010053Y027048D01*
X009986Y026887D01*
X009986Y026712D01*
X010053Y026551D01*
X010176Y026427D01*
X010338Y026360D01*
X010513Y026360D01*
X010674Y026427D01*
X010830Y026628D02*
X011021Y026628D01*
X010986Y026787D02*
X010864Y026787D01*
X010840Y026945D02*
X011010Y026945D01*
X011109Y027104D02*
X010742Y027104D01*
X010109Y027104D02*
X009742Y027104D01*
X009840Y026945D02*
X010010Y026945D01*
X009986Y026787D02*
X009864Y026787D01*
X009830Y026628D02*
X010021Y026628D01*
X010134Y026470D02*
X009716Y026470D01*
X012716Y026470D02*
X013134Y026470D01*
X013176Y026427D02*
X013338Y026360D01*
X013513Y026360D01*
X013674Y026427D01*
X013797Y026551D01*
X013864Y026712D01*
X013864Y026887D01*
X013797Y027048D01*
X013674Y027171D01*
X013513Y027238D01*
X013338Y027238D01*
X013176Y027171D01*
X013053Y027048D01*
X012986Y026887D01*
X012986Y026712D01*
X013053Y026551D01*
X013176Y026427D01*
X013021Y026628D02*
X012830Y026628D01*
X012864Y026787D02*
X012986Y026787D01*
X013010Y026945D02*
X012840Y026945D01*
X012742Y027104D02*
X013109Y027104D01*
X013192Y027421D02*
X012658Y027421D01*
X012809Y027579D02*
X013041Y027579D01*
X012986Y027738D02*
X012864Y027738D01*
X012860Y027896D02*
X012990Y027896D01*
X013060Y028055D02*
X012791Y028055D01*
X013658Y027421D02*
X014192Y027421D01*
X014041Y027579D02*
X013809Y027579D01*
X013864Y027738D02*
X013986Y027738D01*
X013990Y027896D02*
X013860Y027896D01*
X013791Y028055D02*
X014060Y028055D01*
X014791Y028055D02*
X015060Y028055D01*
X014990Y027896D02*
X014860Y027896D01*
X014864Y027738D02*
X014986Y027738D01*
X015041Y027579D02*
X014809Y027579D01*
X014658Y027421D02*
X015192Y027421D01*
X015338Y027238D02*
X015176Y027171D01*
X015053Y027048D01*
X014986Y026887D01*
X014986Y026712D01*
X015053Y026551D01*
X015176Y026427D01*
X015338Y026360D01*
X015513Y026360D01*
X015674Y026427D01*
X015797Y026551D01*
X015864Y026712D01*
X015864Y026887D01*
X015797Y027048D01*
X015674Y027171D01*
X015513Y027238D01*
X015338Y027238D01*
X015109Y027104D02*
X014742Y027104D01*
X014797Y027048D02*
X014674Y027171D01*
X014513Y027238D01*
X014338Y027238D01*
X014176Y027171D01*
X014053Y027048D01*
X013986Y026887D01*
X013986Y026712D01*
X014053Y026551D01*
X014176Y026427D01*
X014338Y026360D01*
X014513Y026360D01*
X014674Y026427D01*
X014797Y026551D01*
X014864Y026712D01*
X014864Y026887D01*
X014797Y027048D01*
X014840Y026945D02*
X015010Y026945D01*
X014986Y026787D02*
X014864Y026787D01*
X014830Y026628D02*
X015021Y026628D01*
X015134Y026470D02*
X014716Y026470D01*
X014134Y026470D02*
X013716Y026470D01*
X013830Y026628D02*
X014021Y026628D01*
X013986Y026787D02*
X013864Y026787D01*
X013840Y026945D02*
X014010Y026945D01*
X014109Y027104D02*
X013742Y027104D01*
X015658Y027421D02*
X016192Y027421D01*
X016041Y027579D02*
X015809Y027579D01*
X015864Y027738D02*
X015986Y027738D01*
X015990Y027896D02*
X015860Y027896D01*
X015791Y028055D02*
X016060Y028055D01*
X016658Y027421D02*
X017192Y027421D01*
X017041Y027579D02*
X016809Y027579D01*
X016864Y027738D02*
X016986Y027738D01*
X016990Y027896D02*
X016860Y027896D01*
X016791Y028055D02*
X017060Y028055D01*
X017791Y028055D02*
X018060Y028055D01*
X017990Y027896D02*
X017860Y027896D01*
X017864Y027738D02*
X017986Y027738D01*
X018041Y027579D02*
X017809Y027579D01*
X017658Y027421D02*
X018192Y027421D01*
X018338Y027238D02*
X018176Y027171D01*
X018053Y027048D01*
X017986Y026887D01*
X017986Y026712D01*
X018053Y026551D01*
X018176Y026427D01*
X018338Y026360D01*
X018513Y026360D01*
X018674Y026427D01*
X018797Y026551D01*
X018864Y026712D01*
X018864Y026887D01*
X018797Y027048D01*
X018674Y027171D01*
X018513Y027238D01*
X018338Y027238D01*
X018109Y027104D02*
X017742Y027104D01*
X017797Y027048D02*
X017674Y027171D01*
X017513Y027238D01*
X017338Y027238D01*
X017176Y027171D01*
X017053Y027048D01*
X016986Y026887D01*
X016986Y026712D01*
X017053Y026551D01*
X017176Y026427D01*
X017338Y026360D01*
X017513Y026360D01*
X017674Y026427D01*
X017797Y026551D01*
X017864Y026712D01*
X017864Y026887D01*
X017797Y027048D01*
X017840Y026945D02*
X018010Y026945D01*
X017986Y026787D02*
X017864Y026787D01*
X017830Y026628D02*
X018021Y026628D01*
X018134Y026470D02*
X017716Y026470D01*
X017134Y026470D02*
X016716Y026470D01*
X016674Y026427D02*
X016797Y026551D01*
X016864Y026712D01*
X016864Y026887D01*
X016797Y027048D01*
X016674Y027171D01*
X016513Y027238D01*
X016338Y027238D01*
X016176Y027171D01*
X016053Y027048D01*
X015986Y026887D01*
X015986Y026712D01*
X016053Y026551D01*
X016176Y026427D01*
X016338Y026360D01*
X016513Y026360D01*
X016674Y026427D01*
X016830Y026628D02*
X017021Y026628D01*
X016986Y026787D02*
X016864Y026787D01*
X016840Y026945D02*
X017010Y026945D01*
X017109Y027104D02*
X016742Y027104D01*
X016109Y027104D02*
X015742Y027104D01*
X015840Y026945D02*
X016010Y026945D01*
X015986Y026787D02*
X015864Y026787D01*
X015830Y026628D02*
X016021Y026628D01*
X016134Y026470D02*
X015716Y026470D01*
X018658Y027421D02*
X019192Y027421D01*
X019041Y027579D02*
X018809Y027579D01*
X018864Y027738D02*
X018986Y027738D01*
X018990Y027896D02*
X018860Y027896D01*
X018791Y028055D02*
X019060Y028055D01*
X019791Y028055D02*
X020060Y028055D01*
X019990Y027896D02*
X019860Y027896D01*
X019864Y027738D02*
X019986Y027738D01*
X020041Y027579D02*
X019809Y027579D01*
X019658Y027421D02*
X020192Y027421D01*
X020338Y027238D02*
X020176Y027171D01*
X020053Y027048D01*
X019986Y026887D01*
X019986Y026712D01*
X020053Y026551D01*
X020176Y026427D01*
X020338Y026360D01*
X020513Y026360D01*
X020674Y026427D01*
X020797Y026551D01*
X020864Y026712D01*
X020864Y026887D01*
X020797Y027048D01*
X020674Y027171D01*
X020513Y027238D01*
X020338Y027238D01*
X020109Y027104D02*
X019742Y027104D01*
X019797Y027048D02*
X019674Y027171D01*
X019513Y027238D01*
X019338Y027238D01*
X019176Y027171D01*
X019053Y027048D01*
X018986Y026887D01*
X018986Y026712D01*
X019053Y026551D01*
X019176Y026427D01*
X019338Y026360D01*
X019513Y026360D01*
X019674Y026427D01*
X019797Y026551D01*
X019864Y026712D01*
X019864Y026887D01*
X019797Y027048D01*
X019840Y026945D02*
X020010Y026945D01*
X019986Y026787D02*
X019864Y026787D01*
X019830Y026628D02*
X020021Y026628D01*
X020134Y026470D02*
X019716Y026470D01*
X019134Y026470D02*
X018716Y026470D01*
X018830Y026628D02*
X019021Y026628D01*
X018986Y026787D02*
X018864Y026787D01*
X018840Y026945D02*
X019010Y026945D01*
X019109Y027104D02*
X018742Y027104D01*
X020658Y027421D02*
X021192Y027421D01*
X021041Y027579D02*
X020809Y027579D01*
X020864Y027738D02*
X020986Y027738D01*
X020990Y027896D02*
X020860Y027896D01*
X020791Y028055D02*
X021060Y028055D01*
X021658Y027421D02*
X022192Y027421D01*
X022041Y027579D02*
X021809Y027579D01*
X021864Y027738D02*
X021986Y027738D01*
X021990Y027896D02*
X021860Y027896D01*
X021791Y028055D02*
X022060Y028055D01*
X022109Y027104D02*
X021742Y027104D01*
X021797Y027048D02*
X021674Y027171D01*
X021513Y027238D01*
X021338Y027238D01*
X021176Y027171D01*
X021053Y027048D01*
X020986Y026887D01*
X020986Y026712D01*
X021053Y026551D01*
X021176Y026427D01*
X021338Y026360D01*
X021513Y026360D01*
X021674Y026427D01*
X021797Y026551D01*
X021864Y026712D01*
X021864Y026887D01*
X021797Y027048D01*
X021840Y026945D02*
X022010Y026945D01*
X021986Y026787D02*
X021864Y026787D01*
X021830Y026628D02*
X022021Y026628D01*
X022134Y026470D02*
X021716Y026470D01*
X021134Y026470D02*
X020716Y026470D01*
X020830Y026628D02*
X021021Y026628D01*
X020986Y026787D02*
X020864Y026787D01*
X020840Y026945D02*
X021010Y026945D01*
X021109Y027104D02*
X020742Y027104D01*
X023573Y028213D02*
X033192Y028213D01*
X033350Y028055D02*
X023791Y028055D01*
X023860Y027896D02*
X033458Y027896D01*
X032097Y025360D02*
X031572Y025360D01*
X031731Y025202D02*
X031939Y025202D01*
X031860Y025043D02*
X031810Y025043D01*
X031804Y024409D02*
X031865Y024409D01*
X031951Y024251D02*
X031718Y024251D01*
X031560Y024092D02*
X032110Y024092D01*
X032349Y023617D02*
X031380Y023617D01*
X031636Y023458D02*
X032069Y023458D01*
X031916Y023300D02*
X031769Y023300D01*
X031848Y023141D02*
X031850Y023141D01*
X031169Y022666D02*
X031009Y022666D01*
X031009Y022507D02*
X031169Y022507D01*
X031169Y022349D02*
X031009Y022349D01*
X031009Y022190D02*
X031169Y022190D01*
X031540Y022190D02*
X032150Y022190D01*
X031987Y022349D02*
X031713Y022349D01*
X031816Y022507D02*
X031882Y022507D01*
X030610Y024092D02*
X024056Y024092D01*
X024056Y024251D02*
X030451Y024251D01*
X030365Y024409D02*
X024056Y024409D01*
X024056Y024568D02*
X030299Y024568D01*
X030296Y024726D02*
X024059Y024726D01*
X024012Y024885D02*
X030296Y024885D01*
X030360Y025043D02*
X023963Y025043D01*
X023853Y025202D02*
X030439Y025202D01*
X030597Y025360D02*
X023714Y025360D01*
X033345Y019020D02*
X033684Y019020D01*
X033684Y018862D02*
X033372Y018862D01*
X033341Y018703D02*
X033684Y018703D01*
X033684Y018545D02*
X033232Y018545D01*
X033684Y010778D02*
X027619Y010778D01*
X027519Y010620D02*
X033684Y010620D01*
X018106Y012522D02*
X017745Y012522D01*
X017797Y012574D02*
X017864Y012736D01*
X017864Y012910D01*
X017797Y013072D01*
X017674Y013195D01*
X017513Y013262D01*
X017338Y013262D01*
X017176Y013195D01*
X017053Y013072D01*
X016986Y012910D01*
X016986Y012736D01*
X017053Y012574D01*
X017176Y012451D01*
X017338Y012384D01*
X017513Y012384D01*
X017674Y012451D01*
X017797Y012574D01*
X017841Y012680D02*
X018009Y012680D01*
X017986Y012839D02*
X017864Y012839D01*
X017828Y012997D02*
X018022Y012997D01*
X018137Y013156D02*
X017713Y013156D01*
X017674Y013451D02*
X017797Y013574D01*
X017864Y013736D01*
X017864Y013910D01*
X017797Y014072D01*
X017674Y014195D01*
X017513Y014262D01*
X017338Y014262D01*
X017176Y014195D01*
X017053Y014072D01*
X016986Y013910D01*
X016986Y013736D01*
X017053Y013574D01*
X017176Y013451D01*
X017338Y013384D01*
X017513Y013384D01*
X017674Y013451D01*
X017696Y013473D02*
X018155Y013473D01*
X018029Y013631D02*
X017821Y013631D01*
X017864Y013790D02*
X017986Y013790D01*
X018002Y013948D02*
X017849Y013948D01*
X017762Y014107D02*
X018088Y014107D01*
X017088Y014107D02*
X016762Y014107D01*
X016797Y014072D02*
X016674Y014195D01*
X016513Y014262D01*
X016338Y014262D01*
X016176Y014195D01*
X016053Y014072D01*
X015986Y013910D01*
X015986Y013736D01*
X016053Y013574D01*
X016176Y013451D01*
X016338Y013384D01*
X016513Y013384D01*
X016674Y013451D01*
X016797Y013574D01*
X016864Y013736D01*
X016864Y013910D01*
X016797Y014072D01*
X016849Y013948D02*
X017002Y013948D01*
X016986Y013790D02*
X016864Y013790D01*
X016821Y013631D02*
X017029Y013631D01*
X017155Y013473D02*
X016696Y013473D01*
X016674Y013195D02*
X016513Y013262D01*
X016338Y013262D01*
X016176Y013195D01*
X016053Y013072D01*
X015986Y012910D01*
X015986Y012736D01*
X016053Y012574D01*
X016176Y012451D01*
X016338Y012384D01*
X016513Y012384D01*
X016674Y012451D01*
X016797Y012574D01*
X016864Y012736D01*
X016864Y012910D01*
X016797Y013072D01*
X016674Y013195D01*
X016713Y013156D02*
X017137Y013156D01*
X017022Y012997D02*
X016828Y012997D01*
X016864Y012839D02*
X016986Y012839D01*
X017009Y012680D02*
X016841Y012680D01*
X016745Y012522D02*
X017106Y012522D01*
X016106Y012522D02*
X015745Y012522D01*
X015797Y012574D02*
X015864Y012736D01*
X015864Y012910D01*
X015797Y013072D01*
X015674Y013195D01*
X015513Y013262D01*
X015338Y013262D01*
X015176Y013195D01*
X015053Y013072D01*
X014986Y012910D01*
X014986Y012736D01*
X015053Y012574D01*
X015176Y012451D01*
X015338Y012384D01*
X015513Y012384D01*
X015674Y012451D01*
X015797Y012574D01*
X015841Y012680D02*
X016009Y012680D01*
X015986Y012839D02*
X015864Y012839D01*
X015828Y012997D02*
X016022Y012997D01*
X016137Y013156D02*
X015713Y013156D01*
X015674Y013451D02*
X015797Y013574D01*
X015864Y013736D01*
X015864Y013910D01*
X015797Y014072D01*
X015674Y014195D01*
X015513Y014262D01*
X015338Y014262D01*
X015176Y014195D01*
X015053Y014072D01*
X014986Y013910D01*
X014986Y013736D01*
X015053Y013574D01*
X015176Y013451D01*
X015338Y013384D01*
X015513Y013384D01*
X015674Y013451D01*
X015696Y013473D02*
X016155Y013473D01*
X016029Y013631D02*
X015821Y013631D01*
X015864Y013790D02*
X015986Y013790D01*
X016002Y013948D02*
X015849Y013948D01*
X015762Y014107D02*
X016088Y014107D01*
X015088Y014107D02*
X014762Y014107D01*
X014797Y014072D02*
X014674Y014195D01*
X014513Y014262D01*
X014338Y014262D01*
X014176Y014195D01*
X014053Y014072D01*
X013986Y013910D01*
X013986Y013736D01*
X014053Y013574D01*
X014176Y013451D01*
X014338Y013384D01*
X014513Y013384D01*
X014674Y013451D01*
X014797Y013574D01*
X014864Y013736D01*
X014864Y013910D01*
X014797Y014072D01*
X014849Y013948D02*
X015002Y013948D01*
X014986Y013790D02*
X014864Y013790D01*
X014821Y013631D02*
X015029Y013631D01*
X015155Y013473D02*
X014696Y013473D01*
X014674Y013195D02*
X014513Y013262D01*
X014338Y013262D01*
X014176Y013195D01*
X014053Y013072D01*
X013986Y012910D01*
X013986Y012736D01*
X014053Y012574D01*
X014176Y012451D01*
X014338Y012384D01*
X014513Y012384D01*
X014674Y012451D01*
X014797Y012574D01*
X014864Y012736D01*
X014864Y012910D01*
X014797Y013072D01*
X014674Y013195D01*
X014713Y013156D02*
X015137Y013156D01*
X015022Y012997D02*
X014828Y012997D01*
X014864Y012839D02*
X014986Y012839D01*
X015009Y012680D02*
X014841Y012680D01*
X014745Y012522D02*
X015106Y012522D01*
X014106Y012522D02*
X013745Y012522D01*
X013797Y012574D02*
X013674Y012451D01*
X013513Y012384D01*
X013338Y012384D01*
X013176Y012451D01*
X013053Y012574D01*
X012986Y012736D01*
X012986Y012910D01*
X013053Y013072D01*
X013176Y013195D01*
X013338Y013262D01*
X013513Y013262D01*
X013674Y013195D01*
X013797Y013072D01*
X013864Y012910D01*
X013864Y012736D01*
X013797Y012574D01*
X013841Y012680D02*
X014009Y012680D01*
X013986Y012839D02*
X013864Y012839D01*
X013828Y012997D02*
X014022Y012997D01*
X014137Y013156D02*
X013713Y013156D01*
X013674Y013451D02*
X013513Y013384D01*
X013338Y013384D01*
X013176Y013451D01*
X013053Y013574D01*
X012986Y013736D01*
X012986Y013910D01*
X013053Y014072D01*
X013176Y014195D01*
X013338Y014262D01*
X013513Y014262D01*
X013674Y014195D01*
X013797Y014072D01*
X013864Y013910D01*
X013864Y013736D01*
X013797Y013574D01*
X013674Y013451D01*
X013696Y013473D02*
X014155Y013473D01*
X014029Y013631D02*
X013821Y013631D01*
X013864Y013790D02*
X013986Y013790D01*
X014002Y013948D02*
X013849Y013948D01*
X013762Y014107D02*
X014088Y014107D01*
X013088Y014107D02*
X012762Y014107D01*
X012849Y013948D02*
X013002Y013948D01*
X012986Y013790D02*
X012864Y013790D01*
X012821Y013631D02*
X013029Y013631D01*
X013155Y013473D02*
X012696Y013473D01*
X012713Y013156D02*
X013137Y013156D01*
X013022Y012997D02*
X012828Y012997D01*
X012864Y012839D02*
X012986Y012839D01*
X013009Y012680D02*
X012841Y012680D01*
X012745Y012522D02*
X013106Y012522D01*
X008029Y009669D02*
X006883Y009669D01*
X006950Y009827D02*
X007846Y009827D01*
D17*
X007997Y010039D03*
X008243Y009818D03*
X009055Y009252D03*
X007874Y008760D03*
X007972Y008465D03*
X008661Y007677D03*
X007382Y007382D03*
X007382Y006988D03*
X006988Y006988D03*
X006594Y006988D03*
X006594Y007382D03*
X006988Y007382D03*
X006988Y006594D03*
X006594Y006594D03*
X007382Y006594D03*
X005413Y005610D03*
X004134Y005315D03*
X004134Y005906D03*
X003346Y005906D03*
X003346Y004331D03*
X003937Y003445D03*
X006299Y002953D03*
X006496Y004134D03*
X007480Y004134D03*
X008071Y004134D03*
X008981Y004528D03*
X010039Y005512D03*
X010039Y005906D03*
X010039Y006299D03*
X010630Y006398D03*
X010384Y006693D03*
X010039Y006693D03*
X010039Y007087D03*
X011024Y006693D03*
X011467Y005906D03*
X011614Y005635D03*
X011713Y005020D03*
X012057Y005020D03*
X011885Y004700D03*
X012057Y004405D03*
X011713Y004405D03*
X012598Y003937D03*
X012598Y003150D03*
X013583Y003937D03*
X014567Y003346D03*
X015945Y001378D03*
X017520Y001378D03*
X021654Y002756D03*
X022441Y002953D03*
X023622Y002953D03*
X023819Y003740D03*
X022638Y004724D03*
X023425Y006693D03*
X024213Y006890D03*
X024606Y007087D03*
X025000Y007480D03*
X025394Y007087D03*
X025000Y006693D03*
X026033Y006447D03*
X025984Y005512D03*
X026378Y004921D03*
X025787Y004232D03*
X025394Y003642D03*
X025861Y003568D03*
X025861Y003248D03*
X025861Y002928D03*
X025861Y002633D03*
X027264Y001378D03*
X025787Y000787D03*
X024016Y000787D03*
X028150Y004528D03*
X028937Y005118D03*
X028543Y005315D03*
X030709Y006693D03*
X029921Y008661D03*
X029331Y008661D03*
X027362Y010827D03*
X026575Y009843D03*
X025787Y008661D03*
X024729Y008661D03*
X023819Y009055D03*
X023179Y009055D03*
X022047Y008268D03*
X021063Y008268D03*
X021063Y007677D03*
X019685Y007874D03*
X018701Y008268D03*
X017717Y008268D03*
X016732Y008268D03*
X014173Y006496D03*
X012968Y007357D03*
X012672Y007530D03*
X012968Y007702D03*
X012352Y007702D03*
X012352Y007357D03*
X012008Y006939D03*
X012598Y006373D03*
X011122Y008169D03*
X011565Y008932D03*
X011220Y009055D03*
X010827Y009449D03*
X010531Y009941D03*
X009843Y010433D03*
X009449Y010433D03*
X010236Y011417D03*
X009843Y011811D03*
X006693Y010433D03*
X006693Y009843D03*
X005340Y008883D03*
X005906Y008366D03*
X004331Y009744D03*
X002830Y011220D03*
X002411Y010433D03*
X004134Y007480D03*
X009449Y003150D03*
X010679Y004626D03*
X010630Y004921D03*
X012229Y008637D03*
X012598Y008760D03*
X013583Y010433D03*
X017126Y011024D03*
X019291Y010039D03*
X021063Y010236D03*
X022835Y010630D03*
X026575Y007874D03*
X028150Y012795D03*
X027362Y013386D03*
X027362Y016732D03*
X026575Y016732D03*
X025197Y019685D03*
X025197Y020079D03*
X025197Y020472D03*
X025197Y020866D03*
X025197Y021260D03*
X025344Y022982D03*
X027362Y022982D03*
X031471Y019685D03*
X031693Y021260D03*
X033342Y025517D03*
X033145Y027116D03*
X032480Y028346D03*
X031594Y027239D03*
X003740Y020669D03*
X002559Y018701D03*
X002559Y014370D03*
M02*
