G75*
%MOIN*%
%OFA0B0*%
%FSLAX24Y24*%
%IPPOS*%
%LPD*%
%AMOC8*
5,1,8,0,0,1.08239X$1,22.5*
%
%ADD10C,0.0020*%
%ADD11C,0.0060*%
%ADD12C,0.0040*%
%ADD13C,0.0080*%
%ADD14R,0.0660X0.0380*%
%ADD15C,0.0050*%
%ADD16C,0.0010*%
%ADD17C,0.0100*%
%ADD18C,0.0030*%
%ADD19C,0.0118*%
%ADD20R,0.0018X0.0006*%
%ADD21R,0.0030X0.0006*%
%ADD22R,0.0042X0.0006*%
%ADD23R,0.0024X0.0006*%
%ADD24R,0.0024X0.0006*%
%ADD25R,0.0012X0.0006*%
%ADD26R,0.0006X0.0006*%
%ADD27R,0.0078X0.0006*%
%ADD28R,0.0126X0.0006*%
%ADD29R,0.0150X0.0006*%
%ADD30R,0.0222X0.0006*%
%ADD31R,0.0258X0.0006*%
%ADD32R,0.0306X0.0006*%
%ADD33R,0.0330X0.0006*%
%ADD34R,0.0354X0.0006*%
%ADD35R,0.0342X0.0006*%
%ADD36R,0.0318X0.0006*%
%ADD37R,0.0252X0.0006*%
%ADD38R,0.0228X0.0006*%
%ADD39R,0.0174X0.0006*%
%ADD40R,0.0138X0.0006*%
%ADD41R,0.0084X0.0006*%
%ADD42R,0.0048X0.0006*%
%ADD43R,0.0090X0.0006*%
%ADD44R,0.0216X0.0006*%
%ADD45R,0.0294X0.0006*%
%ADD46R,0.0336X0.0006*%
%ADD47R,0.0414X0.0006*%
%ADD48R,0.0456X0.0006*%
%ADD49R,0.0486X0.0006*%
%ADD50R,0.0498X0.0006*%
%ADD51R,0.0492X0.0006*%
%ADD52R,0.0324X0.0006*%
%ADD53R,0.0234X0.0006*%
%ADD54R,0.0198X0.0006*%
%ADD55R,0.0114X0.0006*%
%ADD56R,0.0102X0.0006*%
%ADD57R,0.0108X0.0006*%
%ADD58R,0.0264X0.0006*%
%ADD59R,0.0426X0.0006*%
%ADD60R,0.0510X0.0006*%
%ADD61R,0.0570X0.0006*%
%ADD62R,0.0630X0.0006*%
%ADD63R,0.0636X0.0006*%
%ADD64R,0.0642X0.0006*%
%ADD65R,0.0606X0.0006*%
%ADD66R,0.0474X0.0006*%
%ADD67R,0.0270X0.0006*%
%ADD68R,0.0168X0.0006*%
%ADD69R,0.0012X0.0006*%
%ADD70R,0.0036X0.0006*%
%ADD71R,0.0102X0.0006*%
%ADD72R,0.0282X0.0006*%
%ADD73R,0.0402X0.0006*%
%ADD74R,0.0462X0.0006*%
%ADD75R,0.0582X0.0006*%
%ADD76R,0.0726X0.0006*%
%ADD77R,0.0744X0.0006*%
%ADD78R,0.0738X0.0006*%
%ADD79R,0.0696X0.0006*%
%ADD80R,0.0576X0.0006*%
%ADD81R,0.0210X0.0006*%
%ADD82R,0.0222X0.0006*%
%ADD83R,0.0186X0.0006*%
%ADD84R,0.0144X0.0006*%
%ADD85R,0.0360X0.0006*%
%ADD86R,0.0366X0.0006*%
%ADD87R,0.0348X0.0006*%
%ADD88R,0.0390X0.0006*%
%ADD89R,0.0876X0.0006*%
%ADD90R,0.0882X0.0006*%
%ADD91R,0.0894X0.0006*%
%ADD92R,0.0792X0.0006*%
%ADD93R,0.0714X0.0006*%
%ADD94R,0.0594X0.0006*%
%ADD95R,0.0600X0.0006*%
%ADD96R,0.0648X0.0006*%
%ADD97R,0.0672X0.0006*%
%ADD98R,0.0678X0.0006*%
%ADD99R,0.0750X0.0006*%
%ADD100R,0.0762X0.0006*%
%ADD101R,0.0822X0.0006*%
%ADD102R,0.0828X0.0006*%
%ADD103R,0.0852X0.0006*%
%ADD104R,0.0870X0.0006*%
%ADD105R,0.0942X0.0006*%
%ADD106R,0.0936X0.0006*%
%ADD107R,0.0054X0.0006*%
%ADD108R,0.0864X0.0006*%
%ADD109R,0.0060X0.0006*%
%ADD110R,0.0858X0.0006*%
%ADD111R,0.0054X0.0006*%
%ADD112R,0.0066X0.0006*%
%ADD113R,0.0072X0.0006*%
%ADD114R,0.0846X0.0006*%
%ADD115R,0.0072X0.0006*%
%ADD116R,0.0708X0.0006*%
%ADD117R,0.0702X0.0006*%
%ADD118R,0.0666X0.0006*%
%ADD119R,0.0642X0.0006*%
%ADD120R,0.0096X0.0006*%
%ADD121R,0.0612X0.0006*%
%ADD122R,0.0564X0.0006*%
%ADD123R,0.0558X0.0006*%
%ADD124R,0.0114X0.0006*%
%ADD125R,0.0414X0.0006*%
%ADD126R,0.0378X0.0006*%
%ADD127R,0.0312X0.0006*%
%ADD128R,0.0282X0.0006*%
%ADD129R,0.0156X0.0006*%
%ADD130R,0.0132X0.0006*%
%ADD131R,0.0162X0.0006*%
%ADD132R,0.0084X0.0006*%
%ADD133R,0.0180X0.0006*%
%ADD134R,0.0300X0.0006*%
%ADD135R,0.0372X0.0006*%
%ADD136R,0.0396X0.0006*%
%ADD137R,0.0462X0.0006*%
%ADD138R,0.0468X0.0006*%
%ADD139R,0.0588X0.0006*%
%ADD140R,0.0204X0.0006*%
%ADD141R,0.0240X0.0006*%
%ADD142R,0.0732X0.0006*%
%ADD143R,0.0234X0.0006*%
%ADD144R,0.0246X0.0006*%
%ADD145R,0.0774X0.0006*%
%ADD146R,0.0120X0.0006*%
%ADD147R,0.0786X0.0006*%
%ADD148R,0.0780X0.0006*%
%ADD149R,0.0162X0.0006*%
%ADD150R,0.0204X0.0006*%
%ADD151R,0.0654X0.0006*%
%ADD152R,0.0288X0.0006*%
%ADD153R,0.0294X0.0006*%
%ADD154R,0.0546X0.0006*%
%ADD155R,0.0042X0.0006*%
%ADD156R,0.0432X0.0006*%
%ADD157R,0.0528X0.0006*%
%ADD158R,0.0438X0.0006*%
%ADD159R,0.0522X0.0006*%
%ADD160R,0.0480X0.0006*%
%ADD161R,0.0408X0.0006*%
%ADD162R,0.0444X0.0006*%
%ADD163R,0.0420X0.0006*%
%ADD164R,0.0402X0.0006*%
%ADD165R,0.0354X0.0006*%
%ADD166R,0.0492X0.0006*%
%ADD167R,0.0324X0.0006*%
%ADD168R,0.0312X0.0006*%
%ADD169R,0.0618X0.0006*%
%ADD170R,0.0450X0.0006*%
%ADD171R,0.0690X0.0006*%
%ADD172R,0.0192X0.0006*%
%ADD173R,0.0144X0.0006*%
%ADD174R,0.0372X0.0006*%
%ADD175R,0.0342X0.0006*%
%ADD176R,0.0540X0.0006*%
%ADD177R,0.0252X0.0006*%
%ADD178R,0.0276X0.0006*%
%ADD179R,0.0534X0.0006*%
%ADD180R,0.0534X0.0006*%
%ADD181R,0.0264X0.0006*%
%ADD182R,0.0384X0.0006*%
%ADD183R,0.0624X0.0006*%
%ADD184R,0.0672X0.0006*%
%ADD185R,0.0684X0.0006*%
%ADD186R,0.0702X0.0006*%
%ADD187R,0.0732X0.0006*%
%ADD188R,0.0174X0.0006*%
%ADD189R,0.0762X0.0006*%
%ADD190R,0.0798X0.0006*%
%ADD191R,0.0792X0.0006*%
%ADD192R,0.0804X0.0006*%
%ADD193R,0.0810X0.0006*%
%ADD194R,0.0816X0.0006*%
%ADD195R,0.0822X0.0006*%
%ADD196R,0.0918X0.0006*%
%ADD197R,0.0756X0.0006*%
%ADD198R,0.0930X0.0006*%
%ADD199R,0.0966X0.0006*%
%ADD200R,0.0972X0.0006*%
%ADD201R,0.0978X0.0006*%
%ADD202R,0.0984X0.0006*%
%ADD203R,0.0990X0.0006*%
%ADD204R,0.1104X0.0006*%
%ADD205R,0.1086X0.0006*%
%ADD206R,0.0504X0.0006*%
%ADD207R,0.1092X0.0006*%
%ADD208R,0.1074X0.0006*%
%ADD209R,0.0516X0.0006*%
%ADD210R,0.1068X0.0006*%
%ADD211R,0.0660X0.0006*%
%ADD212R,0.0564X0.0006*%
%ADD213R,0.0906X0.0006*%
%ADD214R,0.0582X0.0006*%
%ADD215R,0.1080X0.0006*%
%ADD216R,0.1098X0.0006*%
%ADD217R,0.1116X0.0006*%
%ADD218R,0.0132X0.0006*%
%ADD219R,0.1278X0.0006*%
%ADD220R,0.0594X0.0006*%
%ADD221R,0.1266X0.0006*%
%ADD222R,0.1272X0.0006*%
%ADD223R,0.0192X0.0006*%
%ADD224R,0.0552X0.0006*%
%ADD225R,0.0624X0.0006*%
%ADD226R,0.0522X0.0006*%
%ADD227R,0.0474X0.0006*%
%ADD228R,0.0612X0.0006*%
%ADD229R,0.0552X0.0006*%
D10*
X004157Y003278D02*
X004187Y003248D01*
X004246Y003248D01*
X004275Y003278D01*
X004338Y003248D02*
X004456Y003248D01*
X004397Y003248D02*
X004397Y003425D01*
X004338Y003366D01*
X004275Y003396D02*
X004246Y003425D01*
X004187Y003425D01*
X004157Y003396D01*
X004157Y003278D01*
X004520Y003278D02*
X004549Y003248D01*
X004608Y003248D01*
X004638Y003278D01*
X004638Y003307D01*
X004608Y003337D01*
X004520Y003337D01*
X004520Y003278D01*
X004520Y003337D02*
X004579Y003396D01*
X004638Y003425D01*
X002571Y005235D02*
X002571Y005294D01*
X002541Y005324D01*
X002571Y005387D02*
X002571Y005505D01*
X002571Y005446D02*
X002394Y005446D01*
X002453Y005387D01*
X002423Y005324D02*
X002394Y005294D01*
X002394Y005235D01*
X002423Y005206D01*
X002541Y005206D01*
X002571Y005235D01*
X002541Y005568D02*
X002571Y005598D01*
X002571Y005657D01*
X002541Y005686D01*
X002512Y005686D01*
X002482Y005657D01*
X002482Y005627D01*
X002482Y005657D02*
X002453Y005686D01*
X002423Y005686D01*
X002394Y005657D01*
X002394Y005598D01*
X002423Y005568D01*
X002553Y008802D02*
X002612Y008802D01*
X002641Y008832D01*
X002705Y008802D02*
X002823Y008920D01*
X002823Y008950D01*
X002793Y008979D01*
X002734Y008979D01*
X002705Y008950D01*
X002641Y008950D02*
X002612Y008979D01*
X002553Y008979D01*
X002523Y008950D01*
X002523Y008832D01*
X002553Y008802D01*
X002705Y008802D02*
X002823Y008802D01*
X002886Y008832D02*
X002915Y008802D01*
X002974Y008802D01*
X003004Y008832D01*
X003004Y008950D01*
X002974Y008979D01*
X002915Y008979D01*
X002886Y008950D01*
X002886Y008920D01*
X002915Y008891D01*
X003004Y008891D01*
X002552Y009758D02*
X002582Y009788D01*
X002582Y009847D01*
X002552Y009876D01*
X002552Y009939D02*
X002582Y009969D01*
X002582Y010028D01*
X002552Y010057D01*
X002523Y010057D01*
X002493Y010028D01*
X002493Y009998D01*
X002493Y010028D02*
X002464Y010057D01*
X002434Y010057D01*
X002405Y010028D01*
X002405Y009969D01*
X002434Y009939D01*
X002434Y009876D02*
X002405Y009847D01*
X002405Y009788D01*
X002434Y009758D01*
X002552Y009758D01*
X002552Y010121D02*
X002434Y010239D01*
X002552Y010239D01*
X002582Y010209D01*
X002582Y010150D01*
X002552Y010121D01*
X002434Y010121D01*
X002405Y010150D01*
X002405Y010209D01*
X002434Y010239D01*
X004452Y008943D02*
X004452Y008825D01*
X004482Y008795D01*
X004541Y008795D01*
X004570Y008825D01*
X004634Y008884D02*
X004752Y008884D01*
X004815Y008943D02*
X004844Y008972D01*
X004903Y008972D01*
X004933Y008943D01*
X004933Y008913D01*
X004903Y008884D01*
X004933Y008854D01*
X004933Y008825D01*
X004903Y008795D01*
X004844Y008795D01*
X004815Y008825D01*
X004874Y008884D02*
X004903Y008884D01*
X004722Y008972D02*
X004634Y008884D01*
X004570Y008943D02*
X004541Y008972D01*
X004482Y008972D01*
X004452Y008943D01*
X004722Y008972D02*
X004722Y008795D01*
X005516Y009641D02*
X005516Y009729D01*
X005545Y009759D01*
X005604Y009759D01*
X005634Y009729D01*
X005634Y009641D01*
X005693Y009641D02*
X005516Y009641D01*
X005634Y009700D02*
X005693Y009759D01*
X005693Y009822D02*
X005575Y009940D01*
X005545Y009940D01*
X005516Y009911D01*
X005516Y009852D01*
X005545Y009822D01*
X005693Y009822D02*
X005693Y009940D01*
X005663Y010003D02*
X005693Y010033D01*
X005693Y010092D01*
X005663Y010121D01*
X005634Y010121D01*
X005604Y010092D01*
X005604Y010003D01*
X005663Y010003D01*
X005604Y010003D02*
X005545Y010062D01*
X005516Y010121D01*
X006372Y010760D02*
X006402Y010730D01*
X006461Y010730D01*
X006490Y010760D01*
X006553Y010760D02*
X006583Y010730D01*
X006642Y010730D01*
X006671Y010760D01*
X006671Y010789D01*
X006642Y010819D01*
X006612Y010819D01*
X006642Y010819D02*
X006671Y010848D01*
X006671Y010878D01*
X006642Y010907D01*
X006583Y010907D01*
X006553Y010878D01*
X006490Y010878D02*
X006461Y010907D01*
X006402Y010907D01*
X006372Y010878D01*
X006372Y010760D01*
X006735Y010760D02*
X006735Y010789D01*
X006764Y010819D01*
X006823Y010819D01*
X006853Y010789D01*
X006853Y010760D01*
X006823Y010730D01*
X006764Y010730D01*
X006735Y010760D01*
X006764Y010819D02*
X006735Y010848D01*
X006735Y010878D01*
X006764Y010907D01*
X006823Y010907D01*
X006853Y010878D01*
X006853Y010848D01*
X006823Y010819D01*
X008681Y009661D02*
X008769Y009661D01*
X008799Y009632D01*
X008799Y009573D01*
X008769Y009543D01*
X008681Y009543D01*
X008681Y009484D02*
X008681Y009661D01*
X008740Y009543D02*
X008799Y009484D01*
X008862Y009484D02*
X008980Y009602D01*
X008980Y009632D01*
X008951Y009661D01*
X008892Y009661D01*
X008862Y009632D01*
X008862Y009484D02*
X008980Y009484D01*
X009043Y009514D02*
X009073Y009484D01*
X009132Y009484D01*
X009161Y009514D01*
X009161Y009573D01*
X009132Y009602D01*
X009102Y009602D01*
X009043Y009573D01*
X009043Y009661D01*
X009161Y009661D01*
X009945Y009090D02*
X009945Y009031D01*
X009974Y009001D01*
X009974Y008938D02*
X009945Y008909D01*
X009945Y008850D01*
X009974Y008820D01*
X009974Y008757D02*
X010033Y008757D01*
X010063Y008727D01*
X010063Y008639D01*
X010122Y008639D02*
X009945Y008639D01*
X009945Y008727D01*
X009974Y008757D01*
X010063Y008698D02*
X010122Y008757D01*
X010122Y008820D02*
X010004Y008938D01*
X009974Y008938D01*
X010122Y008938D02*
X010122Y008820D01*
X010122Y009001D02*
X010004Y009119D01*
X009974Y009119D01*
X009945Y009090D01*
X010122Y009119D02*
X010122Y009001D01*
X011244Y009020D02*
X011333Y009020D01*
X011362Y008990D01*
X011362Y008931D01*
X011333Y008902D01*
X011244Y008902D01*
X011303Y008902D02*
X011362Y008843D01*
X011426Y008843D02*
X011544Y008961D01*
X011544Y008990D01*
X011514Y009020D01*
X011455Y009020D01*
X011426Y008990D01*
X011426Y008843D02*
X011544Y008843D01*
X011607Y008843D02*
X011725Y008843D01*
X011666Y008843D02*
X011666Y009020D01*
X011607Y008961D01*
X011244Y009020D02*
X011244Y008843D01*
X012305Y009910D02*
X012305Y009999D01*
X012335Y010028D01*
X012394Y010028D01*
X012423Y009999D01*
X012423Y009910D01*
X012423Y009969D02*
X012482Y010028D01*
X012482Y010091D02*
X012364Y010209D01*
X012335Y010209D01*
X012305Y010180D01*
X012305Y010121D01*
X012335Y010091D01*
X012482Y010091D02*
X012482Y010209D01*
X012453Y010273D02*
X012335Y010391D01*
X012453Y010391D01*
X012482Y010361D01*
X012482Y010302D01*
X012453Y010273D01*
X012335Y010273D01*
X012305Y010302D01*
X012305Y010361D01*
X012335Y010391D01*
X012697Y010467D02*
X012726Y010437D01*
X012844Y010437D01*
X012874Y010467D01*
X012874Y010526D01*
X012844Y010555D01*
X012874Y010618D02*
X012756Y010736D01*
X012726Y010736D01*
X012697Y010707D01*
X012697Y010648D01*
X012726Y010618D01*
X012726Y010555D02*
X012697Y010526D01*
X012697Y010467D01*
X012874Y010618D02*
X012874Y010736D01*
X012874Y010800D02*
X012844Y010800D01*
X012726Y010918D01*
X012697Y010918D01*
X012697Y010800D01*
X012482Y009910D02*
X012305Y009910D01*
X014110Y007957D02*
X014199Y007869D01*
X014199Y007987D01*
X014287Y007957D02*
X014110Y007957D01*
X014110Y007746D02*
X014287Y007746D01*
X014287Y007687D02*
X014287Y007805D01*
X014169Y007687D02*
X014110Y007746D01*
X014140Y007624D02*
X014110Y007595D01*
X014110Y007506D01*
X014287Y007506D01*
X014228Y007506D02*
X014228Y007595D01*
X014199Y007624D01*
X014140Y007624D01*
X014228Y007565D02*
X014287Y007624D01*
X015812Y006412D02*
X015812Y006294D01*
X015841Y006264D01*
X015900Y006264D01*
X015930Y006294D01*
X015993Y006264D02*
X016111Y006382D01*
X016111Y006412D01*
X016082Y006441D01*
X016023Y006441D01*
X015993Y006412D01*
X015930Y006412D02*
X015900Y006441D01*
X015841Y006441D01*
X015812Y006412D01*
X015993Y006264D02*
X016111Y006264D01*
X016174Y006294D02*
X016204Y006264D01*
X016263Y006264D01*
X016292Y006294D01*
X016292Y006353D01*
X016263Y006382D01*
X016233Y006382D01*
X016174Y006353D01*
X016174Y006441D01*
X016292Y006441D01*
X014075Y004534D02*
X014045Y004564D01*
X014016Y004564D01*
X013986Y004534D01*
X013986Y004446D01*
X014045Y004446D01*
X014075Y004475D01*
X014075Y004534D01*
X013986Y004446D02*
X013927Y004505D01*
X013898Y004564D01*
X013927Y004383D02*
X013898Y004353D01*
X013898Y004294D01*
X013927Y004265D01*
X013927Y004201D02*
X013898Y004172D01*
X013898Y004113D01*
X013927Y004083D01*
X014045Y004083D01*
X014075Y004113D01*
X014075Y004172D01*
X014045Y004201D01*
X014075Y004265D02*
X013957Y004383D01*
X013927Y004383D01*
X014075Y004383D02*
X014075Y004265D01*
X014174Y003828D02*
X014115Y003798D01*
X014056Y003739D01*
X014144Y003739D01*
X014174Y003710D01*
X014174Y003680D01*
X014144Y003651D01*
X014085Y003651D01*
X014056Y003680D01*
X014056Y003739D01*
X013992Y003651D02*
X013874Y003651D01*
X013933Y003651D02*
X013933Y003828D01*
X013874Y003769D01*
X013811Y003798D02*
X013811Y003739D01*
X013782Y003710D01*
X013693Y003710D01*
X013752Y003710D02*
X013811Y003651D01*
X013693Y003651D02*
X013693Y003828D01*
X013782Y003828D01*
X013811Y003798D01*
X017324Y003128D02*
X017324Y003010D01*
X017353Y002981D01*
X017412Y002981D01*
X017442Y003010D01*
X017505Y002981D02*
X017623Y003099D01*
X017623Y003128D01*
X017593Y003158D01*
X017534Y003158D01*
X017505Y003128D01*
X017442Y003128D02*
X017412Y003158D01*
X017353Y003158D01*
X017324Y003128D01*
X017505Y002981D02*
X017623Y002981D01*
X017686Y003010D02*
X017804Y003128D01*
X017804Y003010D01*
X017775Y002981D01*
X017716Y002981D01*
X017686Y003010D01*
X017686Y003128D01*
X017716Y003158D01*
X017775Y003158D01*
X017804Y003128D01*
X017832Y000669D02*
X017773Y000669D01*
X017744Y000640D01*
X017681Y000640D02*
X017651Y000669D01*
X017592Y000669D01*
X017563Y000640D01*
X017563Y000522D01*
X017592Y000492D01*
X017651Y000492D01*
X017681Y000522D01*
X017744Y000492D02*
X017862Y000610D01*
X017862Y000640D01*
X017832Y000669D01*
X017925Y000640D02*
X017955Y000669D01*
X018014Y000669D01*
X018043Y000640D01*
X018043Y000610D01*
X017925Y000492D01*
X018043Y000492D01*
X017862Y000492D02*
X017744Y000492D01*
X016409Y000522D02*
X016380Y000492D01*
X016321Y000492D01*
X016291Y000522D01*
X016228Y000492D02*
X016110Y000492D01*
X016228Y000610D01*
X016228Y000640D01*
X016199Y000669D01*
X016140Y000669D01*
X016110Y000640D01*
X016047Y000640D02*
X016017Y000669D01*
X015958Y000669D01*
X015929Y000640D01*
X015929Y000522D01*
X015958Y000492D01*
X016017Y000492D01*
X016047Y000522D01*
X016291Y000640D02*
X016321Y000669D01*
X016380Y000669D01*
X016409Y000640D01*
X016409Y000610D01*
X016380Y000581D01*
X016409Y000551D01*
X016409Y000522D01*
X016380Y000581D02*
X016350Y000581D01*
X020643Y002026D02*
X020672Y001997D01*
X020731Y001997D01*
X020761Y002026D01*
X020824Y001997D02*
X020942Y002115D01*
X020942Y002144D01*
X020912Y002174D01*
X020853Y002174D01*
X020824Y002144D01*
X020761Y002144D02*
X020731Y002174D01*
X020672Y002174D01*
X020643Y002144D01*
X020643Y002026D01*
X020824Y001997D02*
X020942Y001997D01*
X021005Y001997D02*
X021123Y001997D01*
X021064Y001997D02*
X021064Y002174D01*
X021005Y002115D01*
X022291Y002953D02*
X022321Y002923D01*
X022439Y002923D01*
X022468Y002953D01*
X022468Y003012D01*
X022439Y003041D01*
X022468Y003104D02*
X022350Y003222D01*
X022321Y003222D01*
X022291Y003193D01*
X022291Y003134D01*
X022321Y003104D01*
X022321Y003041D02*
X022291Y003012D01*
X022291Y002953D01*
X022468Y003104D02*
X022468Y003222D01*
X022167Y003443D02*
X022167Y003561D01*
X022138Y003591D01*
X022079Y003591D01*
X022049Y003561D01*
X022049Y003532D01*
X022079Y003502D01*
X022167Y003502D01*
X022167Y003443D02*
X022138Y003414D01*
X022079Y003414D01*
X022049Y003443D01*
X021986Y003443D02*
X021956Y003414D01*
X021897Y003414D01*
X021868Y003443D01*
X021868Y003502D02*
X021927Y003532D01*
X021956Y003532D01*
X021986Y003502D01*
X021986Y003443D01*
X021868Y003502D02*
X021868Y003591D01*
X021986Y003591D01*
X021805Y003561D02*
X021775Y003591D01*
X021716Y003591D01*
X021687Y003561D01*
X021687Y003443D01*
X021716Y003414D01*
X021775Y003414D01*
X021805Y003443D01*
X021928Y004226D02*
X021987Y004226D01*
X022016Y004255D01*
X022080Y004255D02*
X022080Y004314D01*
X022168Y004314D01*
X022198Y004285D01*
X022198Y004255D01*
X022168Y004226D01*
X022109Y004226D01*
X022080Y004255D01*
X022080Y004314D02*
X022139Y004373D01*
X022198Y004403D01*
X022261Y004373D02*
X022290Y004403D01*
X022349Y004403D01*
X022379Y004373D01*
X022261Y004255D01*
X022290Y004226D01*
X022349Y004226D01*
X022379Y004255D01*
X022379Y004373D01*
X022261Y004373D02*
X022261Y004255D01*
X022016Y004373D02*
X021987Y004403D01*
X021928Y004403D01*
X021898Y004373D01*
X021898Y004255D01*
X021928Y004226D01*
X021831Y006035D02*
X021831Y006064D01*
X021949Y006182D01*
X021949Y006212D01*
X021831Y006212D01*
X021767Y006182D02*
X021738Y006212D01*
X021679Y006212D01*
X021649Y006182D01*
X021586Y006182D02*
X021586Y006123D01*
X021557Y006094D01*
X021468Y006094D01*
X021527Y006094D02*
X021586Y006035D01*
X021649Y006035D02*
X021767Y006153D01*
X021767Y006182D01*
X021767Y006035D02*
X021649Y006035D01*
X021586Y006182D02*
X021557Y006212D01*
X021468Y006212D01*
X021468Y006035D01*
X021473Y007043D02*
X021532Y007043D01*
X021562Y007073D01*
X021625Y007132D02*
X021743Y007132D01*
X021806Y007161D02*
X021806Y007191D01*
X021836Y007220D01*
X021895Y007220D01*
X021924Y007191D01*
X021924Y007161D01*
X021895Y007132D01*
X021836Y007132D01*
X021806Y007161D01*
X021836Y007132D02*
X021806Y007102D01*
X021806Y007073D01*
X021836Y007043D01*
X021895Y007043D01*
X021924Y007073D01*
X021924Y007102D01*
X021895Y007132D01*
X021713Y007220D02*
X021625Y007132D01*
X021562Y007191D02*
X021532Y007220D01*
X021473Y007220D01*
X021444Y007191D01*
X021444Y007073D01*
X021473Y007043D01*
X021713Y007043D02*
X021713Y007220D01*
X021372Y008722D02*
X021254Y008722D01*
X021224Y008752D01*
X021224Y008811D01*
X021254Y008840D01*
X021313Y008903D02*
X021313Y009021D01*
X021372Y009085D02*
X021254Y009203D01*
X021224Y009203D01*
X021224Y009085D01*
X021224Y008992D02*
X021313Y008903D01*
X021372Y008840D02*
X021401Y008811D01*
X021401Y008752D01*
X021372Y008722D01*
X021401Y008992D02*
X021224Y008992D01*
X021372Y009085D02*
X021401Y009085D01*
X022209Y009065D02*
X022209Y009124D01*
X022238Y009153D01*
X022268Y009153D01*
X022297Y009124D01*
X022327Y009153D01*
X022356Y009153D01*
X022386Y009124D01*
X022386Y009065D01*
X022356Y009035D01*
X022356Y008972D02*
X022386Y008943D01*
X022386Y008884D01*
X022356Y008854D01*
X022238Y008854D01*
X022209Y008884D01*
X022209Y008943D01*
X022238Y008972D01*
X022238Y009035D02*
X022209Y009065D01*
X022297Y009094D02*
X022297Y009124D01*
X022735Y009715D02*
X022794Y009715D01*
X022824Y009744D01*
X022824Y009892D01*
X022887Y009862D02*
X022917Y009892D01*
X022976Y009892D01*
X023005Y009862D01*
X023068Y009862D02*
X023068Y009833D01*
X023098Y009803D01*
X023157Y009803D01*
X023186Y009774D01*
X023186Y009744D01*
X023157Y009715D01*
X023098Y009715D01*
X023068Y009744D01*
X023068Y009774D01*
X023098Y009803D01*
X023157Y009803D02*
X023186Y009833D01*
X023186Y009862D01*
X023157Y009892D01*
X023098Y009892D01*
X023068Y009862D01*
X023005Y009774D02*
X022976Y009803D01*
X022917Y009803D01*
X022887Y009833D01*
X022887Y009862D01*
X022946Y009921D02*
X022946Y009685D01*
X022917Y009715D02*
X022976Y009715D01*
X023005Y009744D01*
X023005Y009774D01*
X022917Y009715D02*
X022887Y009744D01*
X022735Y009715D02*
X022706Y009744D01*
X022706Y009892D01*
X020406Y009359D02*
X020288Y009359D01*
X020377Y009447D01*
X020377Y009270D01*
X020225Y009300D02*
X020225Y009447D01*
X020107Y009447D02*
X020107Y009300D01*
X020137Y009270D01*
X020196Y009270D01*
X020225Y009300D01*
X019039Y009149D02*
X018862Y009149D01*
X018951Y009060D01*
X018951Y009178D01*
X018951Y008997D02*
X018951Y008879D01*
X018862Y008967D01*
X019039Y008967D01*
X019010Y008816D02*
X019039Y008786D01*
X019039Y008727D01*
X019010Y008698D01*
X018892Y008698D01*
X018862Y008727D01*
X018862Y008786D01*
X018892Y008816D01*
X018080Y008786D02*
X018050Y008816D01*
X018080Y008786D02*
X018080Y008727D01*
X018050Y008698D01*
X017932Y008698D01*
X017903Y008727D01*
X017903Y008786D01*
X017932Y008816D01*
X017991Y008879D02*
X017991Y008997D01*
X017991Y009060D02*
X017903Y009060D01*
X017903Y009178D01*
X017962Y009149D02*
X017991Y009178D01*
X018050Y009178D01*
X018080Y009149D01*
X018080Y009090D01*
X018050Y009060D01*
X017991Y009060D02*
X017962Y009119D01*
X017962Y009149D01*
X017903Y008967D02*
X017991Y008879D01*
X017903Y008967D02*
X018080Y008967D01*
X017071Y008967D02*
X016894Y008967D01*
X016982Y008879D01*
X016982Y008997D01*
X016982Y009060D02*
X016982Y009149D01*
X017012Y009178D01*
X017041Y009178D01*
X017071Y009149D01*
X017071Y009090D01*
X017041Y009060D01*
X016982Y009060D01*
X016923Y009119D01*
X016894Y009178D01*
X016923Y008816D02*
X016894Y008786D01*
X016894Y008727D01*
X016923Y008698D01*
X017041Y008698D01*
X017071Y008727D01*
X017071Y008786D01*
X017041Y008816D01*
X016342Y009723D02*
X016342Y009900D01*
X016253Y009811D01*
X016371Y009811D01*
X016190Y009841D02*
X016190Y009870D01*
X016160Y009900D01*
X016101Y009900D01*
X016072Y009870D01*
X016009Y009870D02*
X015979Y009900D01*
X015920Y009900D01*
X015891Y009870D01*
X015891Y009752D01*
X015920Y009723D01*
X015979Y009723D01*
X016009Y009752D01*
X016072Y009723D02*
X016190Y009841D01*
X016190Y009723D02*
X016072Y009723D01*
X009616Y011219D02*
X009498Y011219D01*
X009587Y011307D01*
X009587Y011130D01*
X009435Y011160D02*
X009405Y011130D01*
X009346Y011130D01*
X009317Y011160D01*
X009317Y011278D01*
X009346Y011307D01*
X009405Y011307D01*
X009435Y011278D01*
X009265Y005355D02*
X009265Y005119D01*
X009294Y005148D02*
X009324Y005178D01*
X009324Y005207D01*
X009294Y005237D01*
X009235Y005237D01*
X009206Y005266D01*
X009206Y005296D01*
X009235Y005325D01*
X009294Y005325D01*
X009324Y005296D01*
X009387Y005266D02*
X009446Y005325D01*
X009446Y005148D01*
X009387Y005148D02*
X009505Y005148D01*
X009294Y005148D02*
X009235Y005148D01*
X009206Y005178D01*
X009142Y005178D02*
X009142Y005325D01*
X009024Y005325D02*
X009024Y005178D01*
X009054Y005148D01*
X009113Y005148D01*
X009142Y005178D01*
X009251Y004469D02*
X009339Y004469D01*
X009369Y004440D01*
X009369Y004381D01*
X009339Y004351D01*
X009251Y004351D01*
X009251Y004292D02*
X009251Y004469D01*
X009310Y004351D02*
X009369Y004292D01*
X009432Y004292D02*
X009550Y004292D01*
X009491Y004292D02*
X009491Y004469D01*
X009432Y004410D01*
X009613Y004381D02*
X009672Y004410D01*
X009702Y004410D01*
X009731Y004381D01*
X009731Y004322D01*
X009702Y004292D01*
X009643Y004292D01*
X009613Y004322D01*
X009613Y004381D02*
X009613Y004469D01*
X009731Y004469D01*
X009876Y002835D02*
X009846Y002805D01*
X009846Y002687D01*
X009876Y002658D01*
X009935Y002658D01*
X009964Y002687D01*
X010027Y002658D02*
X010145Y002658D01*
X010086Y002658D02*
X010086Y002835D01*
X010027Y002776D01*
X009964Y002805D02*
X009935Y002835D01*
X009876Y002835D01*
X010209Y002805D02*
X010209Y002776D01*
X010238Y002746D01*
X010327Y002746D01*
X010327Y002687D02*
X010327Y002805D01*
X010297Y002835D01*
X010238Y002835D01*
X010209Y002805D01*
X010209Y002687D02*
X010238Y002658D01*
X010297Y002658D01*
X010327Y002687D01*
X002344Y012962D02*
X002374Y012991D01*
X002374Y013050D01*
X002344Y013080D01*
X002374Y013143D02*
X002374Y013261D01*
X002374Y013202D02*
X002197Y013202D01*
X002256Y013143D01*
X002226Y013080D02*
X002197Y013050D01*
X002197Y012991D01*
X002226Y012962D01*
X002344Y012962D01*
X002344Y013324D02*
X002226Y013442D01*
X002344Y013442D01*
X002374Y013413D01*
X002374Y013354D01*
X002344Y013324D01*
X002226Y013324D01*
X002197Y013354D01*
X002197Y013413D01*
X002226Y013442D01*
X002896Y017831D02*
X002896Y018008D01*
X002984Y018008D01*
X003014Y017978D01*
X003014Y017919D01*
X002984Y017890D01*
X002896Y017890D01*
X002955Y017890D02*
X003014Y017831D01*
X003077Y017831D02*
X003077Y017860D01*
X003195Y017978D01*
X003195Y018008D01*
X003077Y018008D01*
X003094Y018703D02*
X003153Y018703D01*
X003182Y018732D01*
X003182Y018762D01*
X003153Y018791D01*
X003064Y018791D01*
X003064Y018732D01*
X003094Y018703D01*
X003001Y018703D02*
X002942Y018762D01*
X002972Y018762D02*
X002883Y018762D01*
X002883Y018703D02*
X002883Y018880D01*
X002972Y018880D01*
X003001Y018850D01*
X003001Y018791D01*
X002972Y018762D01*
X003064Y018791D02*
X003123Y018850D01*
X003182Y018880D01*
X003641Y019589D02*
X003700Y019589D01*
X003729Y019618D01*
X003793Y019618D02*
X003793Y019589D01*
X003793Y019618D02*
X003911Y019736D01*
X003911Y019766D01*
X003793Y019766D01*
X003729Y019736D02*
X003700Y019766D01*
X003641Y019766D01*
X003611Y019736D01*
X003611Y019618D01*
X003641Y019589D01*
X001816Y021519D02*
X001757Y021578D01*
X001787Y021578D02*
X001698Y021578D01*
X001698Y021519D02*
X001698Y021696D01*
X001787Y021696D01*
X001816Y021667D01*
X001816Y021608D01*
X001787Y021578D01*
X001635Y021519D02*
X001517Y021519D01*
X001517Y021696D01*
X001635Y021696D01*
X001576Y021608D02*
X001517Y021608D01*
X001454Y021667D02*
X001424Y021696D01*
X001336Y021696D01*
X001336Y021519D01*
X001424Y021519D01*
X001454Y021549D01*
X001454Y021667D01*
X001273Y021667D02*
X001273Y021549D01*
X001243Y021519D01*
X001184Y021519D01*
X001155Y021549D01*
X001155Y021667D01*
X001184Y021696D01*
X001243Y021696D01*
X001273Y021667D01*
X001091Y021667D02*
X001062Y021696D01*
X001003Y021696D01*
X000973Y021667D01*
X000973Y021549D01*
X001003Y021519D01*
X001062Y021519D01*
X001091Y021549D01*
X000910Y021519D02*
X000910Y021696D01*
X000792Y021696D02*
X000910Y021519D01*
X000792Y021519D02*
X000792Y021696D01*
X000729Y021696D02*
X000611Y021696D01*
X000611Y021519D01*
X000729Y021519D01*
X000670Y021608D02*
X000611Y021608D01*
X022635Y001273D02*
X022724Y001273D01*
X022753Y001243D01*
X022753Y001184D01*
X022724Y001155D01*
X022635Y001155D01*
X022694Y001155D02*
X022753Y001096D01*
X022816Y001125D02*
X022846Y001096D01*
X022905Y001096D01*
X022934Y001125D01*
X022934Y001155D01*
X022905Y001184D01*
X022875Y001184D01*
X022905Y001184D02*
X022934Y001214D01*
X022934Y001243D01*
X022905Y001273D01*
X022846Y001273D01*
X022816Y001243D01*
X022635Y001273D02*
X022635Y001096D01*
X025360Y000682D02*
X025360Y000505D01*
X025360Y000564D02*
X025449Y000564D01*
X025478Y000594D01*
X025478Y000653D01*
X025449Y000682D01*
X025360Y000682D01*
X025419Y000564D02*
X025478Y000505D01*
X025542Y000505D02*
X025660Y000505D01*
X025601Y000505D02*
X025601Y000682D01*
X025542Y000623D01*
X028992Y001484D02*
X028992Y005484D01*
X028243Y006330D02*
X028184Y006330D01*
X028155Y006359D01*
X028214Y006418D02*
X028243Y006418D01*
X028273Y006389D01*
X028273Y006359D01*
X028243Y006330D01*
X028243Y006418D02*
X028273Y006448D01*
X028273Y006477D01*
X028243Y006507D01*
X028184Y006507D01*
X028155Y006477D01*
X028091Y006418D02*
X027973Y006418D01*
X028062Y006507D01*
X028062Y006330D01*
X027910Y006330D02*
X027851Y006389D01*
X027881Y006389D02*
X027792Y006389D01*
X027792Y006330D02*
X027792Y006507D01*
X027881Y006507D01*
X027910Y006477D01*
X027910Y006418D01*
X027881Y006389D01*
X027036Y006359D02*
X026859Y006359D01*
X026948Y006271D01*
X026948Y006389D01*
X026918Y006452D02*
X026948Y006481D01*
X026948Y006570D01*
X027007Y006570D02*
X026889Y006570D01*
X026859Y006540D01*
X026859Y006481D01*
X026889Y006452D01*
X026918Y006452D01*
X027007Y006452D02*
X027036Y006481D01*
X027036Y006540D01*
X027007Y006570D01*
X027007Y006207D02*
X027036Y006178D01*
X027036Y006119D01*
X027007Y006089D01*
X026889Y006089D01*
X026859Y006119D01*
X026859Y006178D01*
X026889Y006207D01*
X026730Y008145D02*
X026671Y008145D01*
X026642Y008174D01*
X026642Y008204D01*
X026671Y008233D01*
X026730Y008233D01*
X026760Y008204D01*
X026760Y008174D01*
X026730Y008145D01*
X026730Y008233D02*
X026760Y008263D01*
X026760Y008292D01*
X026730Y008322D01*
X026671Y008322D01*
X026642Y008292D01*
X026642Y008263D01*
X026671Y008233D01*
X026578Y008174D02*
X026578Y008322D01*
X026460Y008322D02*
X026460Y008174D01*
X026490Y008145D01*
X026549Y008145D01*
X026578Y008174D01*
X025494Y010223D02*
X025435Y010223D01*
X025406Y010253D01*
X025406Y010312D01*
X025494Y010312D01*
X025524Y010282D01*
X025524Y010253D01*
X025494Y010223D01*
X025406Y010312D02*
X025465Y010371D01*
X025524Y010400D01*
X025342Y010371D02*
X025342Y010312D01*
X025313Y010282D01*
X025224Y010282D01*
X025224Y010223D02*
X025224Y010400D01*
X025313Y010400D01*
X025342Y010371D01*
X025161Y010400D02*
X025102Y010400D01*
X025131Y010400D02*
X025131Y010253D01*
X025102Y010223D01*
X025072Y010223D01*
X025043Y010253D01*
X026444Y010708D02*
X026591Y010708D01*
X026621Y010737D01*
X026621Y010796D01*
X026591Y010826D01*
X026444Y010826D01*
X026473Y010889D02*
X026444Y010919D01*
X026444Y010978D01*
X026473Y011007D01*
X026503Y011007D01*
X026532Y010978D01*
X026562Y011007D01*
X026591Y011007D01*
X026621Y010978D01*
X026621Y010919D01*
X026591Y010889D01*
X026532Y010948D02*
X026532Y010978D01*
X033292Y005610D02*
X033410Y005610D01*
X033351Y005610D02*
X033351Y005433D01*
X033474Y005433D02*
X033474Y005610D01*
X033474Y005521D02*
X033592Y005521D01*
X033655Y005492D02*
X033744Y005492D01*
X033773Y005521D01*
X033773Y005580D01*
X033744Y005610D01*
X033655Y005610D01*
X033655Y005433D01*
X033592Y005433D02*
X033592Y005610D01*
X033714Y005492D02*
X033773Y005433D01*
X033744Y004610D02*
X033773Y004580D01*
X033773Y004521D01*
X033744Y004492D01*
X033655Y004492D01*
X033714Y004492D02*
X033773Y004433D01*
X033655Y004433D02*
X033655Y004610D01*
X033744Y004610D01*
X033592Y004610D02*
X033474Y004610D01*
X033474Y004433D01*
X033592Y004433D01*
X033533Y004521D02*
X033474Y004521D01*
X033410Y004492D02*
X033410Y004462D01*
X033381Y004433D01*
X033322Y004433D01*
X033292Y004462D01*
X033322Y004521D02*
X033381Y004521D01*
X033410Y004492D01*
X033410Y004580D02*
X033381Y004610D01*
X033322Y004610D01*
X033292Y004580D01*
X033292Y004551D01*
X033322Y004521D01*
X033443Y003634D02*
X033443Y003457D01*
X033384Y003457D02*
X033502Y003457D01*
X033384Y003575D02*
X033443Y003634D01*
X033414Y002610D02*
X033384Y002580D01*
X033414Y002610D02*
X033473Y002610D01*
X033502Y002580D01*
X033502Y002551D01*
X033384Y002433D01*
X033502Y002433D01*
X033473Y001634D02*
X033502Y001605D01*
X033502Y001575D01*
X033473Y001546D01*
X033502Y001516D01*
X033502Y001487D01*
X033473Y001457D01*
X033414Y001457D01*
X033384Y001487D01*
X033443Y001546D02*
X033473Y001546D01*
X033473Y001634D02*
X033414Y001634D01*
X033384Y001605D01*
X029575Y001467D02*
X029545Y001497D01*
X029486Y001497D01*
X029457Y001467D01*
X029394Y001497D02*
X029394Y001349D01*
X029364Y001320D01*
X029305Y001320D01*
X029276Y001349D01*
X029276Y001497D01*
X029457Y001320D02*
X029575Y001438D01*
X029575Y001467D01*
X029575Y001320D02*
X029457Y001320D01*
X032700Y017034D02*
X032759Y017034D01*
X032730Y017034D02*
X032730Y017211D01*
X032759Y017211D02*
X032700Y017211D01*
X032821Y017211D02*
X032880Y017152D01*
X032939Y017211D01*
X032939Y017034D01*
X033003Y017064D02*
X033032Y017034D01*
X033091Y017034D01*
X033121Y017064D01*
X033121Y017211D01*
X033003Y017211D02*
X033003Y017064D01*
X032821Y017034D02*
X032821Y017211D01*
X030019Y018742D02*
X030019Y018801D01*
X030019Y018772D02*
X029842Y018772D01*
X029842Y018801D02*
X029842Y018742D01*
X029871Y018863D02*
X029989Y018863D01*
X030019Y018893D01*
X030019Y018952D01*
X029989Y018981D01*
X029989Y019044D02*
X030019Y019074D01*
X030019Y019133D01*
X029989Y019162D01*
X029960Y019162D01*
X029930Y019133D01*
X029930Y019103D01*
X029930Y019133D02*
X029901Y019162D01*
X029871Y019162D01*
X029842Y019133D01*
X029842Y019074D01*
X029871Y019044D01*
X029871Y018981D02*
X029842Y018952D01*
X029842Y018893D01*
X029871Y018863D01*
X029443Y022601D02*
X029325Y022601D01*
X029384Y022601D02*
X029384Y022778D01*
X029325Y022719D01*
X029262Y022748D02*
X029262Y022630D01*
X029232Y022601D01*
X029173Y022601D01*
X029144Y022630D01*
X029144Y022748D01*
X029173Y022778D01*
X029232Y022778D01*
X029262Y022748D01*
X029203Y022660D02*
X029262Y022601D01*
X033474Y022691D02*
X033592Y022868D01*
X033655Y022780D02*
X033773Y022780D01*
X033743Y022868D02*
X033655Y022780D01*
X033592Y022691D02*
X033474Y022868D01*
X033743Y022868D02*
X033743Y022691D01*
X033764Y024586D02*
X033705Y024586D01*
X033676Y024615D01*
X033676Y024674D02*
X033735Y024704D01*
X033764Y024704D01*
X033794Y024674D01*
X033794Y024615D01*
X033764Y024586D01*
X033676Y024674D02*
X033676Y024763D01*
X033794Y024763D01*
X033612Y024763D02*
X033494Y024586D01*
X033612Y024586D02*
X033494Y024763D01*
X032885Y026433D02*
X032708Y026433D01*
X032708Y026522D01*
X032737Y026551D01*
X032796Y026551D01*
X032826Y026522D01*
X032826Y026433D01*
X032826Y026492D02*
X032885Y026551D01*
X032885Y026614D02*
X032767Y026732D01*
X032737Y026732D01*
X032708Y026703D01*
X032708Y026644D01*
X032737Y026614D01*
X032885Y026614D02*
X032885Y026732D01*
X032855Y026796D02*
X032826Y026796D01*
X032796Y026825D01*
X032796Y026884D01*
X032826Y026914D01*
X032855Y026914D01*
X032885Y026884D01*
X032885Y026825D01*
X032855Y026796D01*
X032796Y026825D02*
X032767Y026796D01*
X032737Y026796D01*
X032708Y026825D01*
X032708Y026884D01*
X032737Y026914D01*
X032767Y026914D01*
X032796Y026884D01*
X032781Y027023D02*
X032722Y027023D01*
X032693Y027052D01*
X032811Y027170D01*
X032811Y027052D01*
X032781Y027023D01*
X032693Y027052D02*
X032693Y027170D01*
X032722Y027200D01*
X032781Y027200D01*
X032811Y027170D01*
X032630Y027023D02*
X032512Y027023D01*
X032571Y027023D02*
X032571Y027200D01*
X032512Y027141D01*
X032448Y027200D02*
X032448Y027052D01*
X032419Y027023D01*
X032360Y027023D01*
X032330Y027052D01*
X032330Y027200D01*
X032179Y027230D02*
X032179Y027112D01*
X032061Y027230D01*
X032031Y027230D01*
X032002Y027201D01*
X032002Y027142D01*
X032031Y027112D01*
X032031Y027049D02*
X032090Y027049D01*
X032120Y027019D01*
X032120Y026931D01*
X032120Y026990D02*
X032179Y027049D01*
X032179Y026931D02*
X032002Y026931D01*
X032002Y027019D01*
X032031Y027049D01*
X032031Y027293D02*
X032061Y027293D01*
X032090Y027323D01*
X032090Y027411D01*
X032031Y027411D02*
X032002Y027382D01*
X032002Y027323D01*
X032031Y027293D01*
X032031Y027411D02*
X032149Y027411D01*
X032179Y027382D01*
X032179Y027323D01*
X032149Y027293D01*
X031161Y026876D02*
X031161Y026758D01*
X031043Y026876D01*
X031014Y026876D01*
X030984Y026847D01*
X030984Y026788D01*
X031014Y026758D01*
X031014Y026695D02*
X031073Y026695D01*
X031102Y026665D01*
X031102Y026577D01*
X031102Y026636D02*
X031161Y026695D01*
X031161Y026577D02*
X030984Y026577D01*
X030984Y026665D01*
X031014Y026695D01*
X025403Y027710D02*
X025403Y027739D01*
X025374Y027769D01*
X025226Y027769D01*
X025226Y027798D02*
X025226Y027739D01*
X025285Y027861D02*
X025226Y027920D01*
X025403Y027920D01*
X025403Y027861D02*
X025403Y027979D01*
X025403Y027710D02*
X025374Y027680D01*
D11*
X032433Y021116D02*
X032683Y021366D01*
X033183Y021366D01*
X033433Y021116D01*
X033433Y020616D01*
X033183Y020366D01*
X033433Y020116D01*
X033433Y019616D01*
X033183Y019366D01*
X033433Y019116D01*
X033433Y018616D01*
X033183Y018366D01*
X033433Y018116D01*
X033433Y017616D01*
X033183Y017366D01*
X032683Y017366D01*
X032433Y017616D01*
X032433Y018116D01*
X032683Y018366D01*
X032433Y018616D01*
X032433Y019116D01*
X032683Y019366D01*
X033183Y019366D01*
X032683Y019366D02*
X032433Y019616D01*
X032433Y020116D01*
X032683Y020366D01*
X032433Y020616D01*
X032433Y021116D01*
X032683Y020366D02*
X033183Y020366D01*
X033183Y018366D02*
X032683Y018366D01*
X026734Y012873D02*
X026734Y012579D01*
X026734Y012726D02*
X026293Y012726D01*
X026440Y012579D01*
X025518Y011543D02*
X025768Y011293D01*
X025768Y010793D01*
X025518Y010543D01*
X025018Y010543D01*
X024768Y010793D01*
X024768Y011293D01*
X025018Y011543D01*
X025518Y011543D01*
X025720Y007746D02*
X025720Y006246D01*
X027592Y005334D02*
X027592Y001634D01*
X027594Y001611D01*
X027599Y001588D01*
X027608Y001566D01*
X027621Y001546D01*
X027636Y001528D01*
X027654Y001513D01*
X027674Y001500D01*
X027696Y001491D01*
X027719Y001486D01*
X027742Y001484D01*
X028162Y001484D01*
X028562Y001484D01*
X028982Y001484D01*
X029005Y001486D01*
X029028Y001491D01*
X029050Y001500D01*
X029070Y001513D01*
X029088Y001528D01*
X029103Y001546D01*
X029116Y001566D01*
X029125Y001588D01*
X029130Y001611D01*
X029132Y001634D01*
X029132Y005334D01*
X029130Y005357D01*
X029125Y005380D01*
X029116Y005402D01*
X029103Y005422D01*
X029088Y005440D01*
X029070Y005455D01*
X029050Y005468D01*
X029028Y005477D01*
X029005Y005482D01*
X028982Y005484D01*
X027742Y005484D01*
X027719Y005482D01*
X027696Y005477D01*
X027674Y005468D01*
X027654Y005455D01*
X027636Y005440D01*
X027621Y005422D01*
X027608Y005402D01*
X027599Y005380D01*
X027594Y005357D01*
X027592Y005334D01*
X030181Y005278D02*
X030181Y005778D01*
X030431Y006028D01*
X030931Y006028D01*
X031181Y005778D01*
X031431Y006028D01*
X031931Y006028D01*
X032181Y005778D01*
X032431Y006028D01*
X032931Y006028D01*
X033181Y005778D01*
X033181Y005278D01*
X032931Y005028D01*
X032431Y005028D01*
X032181Y005278D01*
X031931Y005028D01*
X031431Y005028D01*
X031181Y005278D01*
X030931Y005028D01*
X030431Y005028D01*
X030181Y005278D01*
X030431Y005028D02*
X030181Y004778D01*
X030181Y004278D01*
X030431Y004028D01*
X030931Y004028D01*
X031181Y004278D01*
X031181Y004778D01*
X030931Y005028D01*
X030431Y005028D01*
X031181Y005278D02*
X031181Y005778D01*
X031431Y005028D02*
X031931Y005028D01*
X032181Y004778D01*
X032431Y005028D01*
X032931Y005028D01*
X033181Y004778D01*
X033181Y004278D01*
X032931Y004028D01*
X032431Y004028D01*
X032181Y004278D01*
X031931Y004028D01*
X031431Y004028D01*
X031181Y004278D01*
X030931Y004028D02*
X031181Y003778D01*
X031431Y004028D01*
X031931Y004028D01*
X032181Y003778D01*
X032431Y004028D01*
X032931Y004028D01*
X033181Y003778D01*
X033181Y003278D01*
X032931Y003028D01*
X032431Y003028D01*
X032181Y003278D01*
X031931Y003028D01*
X031431Y003028D01*
X031181Y003278D01*
X030931Y003028D01*
X030431Y003028D01*
X030181Y003278D01*
X030181Y003778D01*
X030431Y004028D01*
X030931Y004028D01*
X031181Y003778D02*
X031181Y003278D01*
X030931Y003028D02*
X031181Y002778D01*
X031431Y003028D01*
X031931Y003028D01*
X032181Y002778D01*
X032431Y003028D01*
X032931Y003028D01*
X033181Y002778D01*
X033181Y002278D01*
X032931Y002028D01*
X032431Y002028D01*
X032181Y002278D01*
X031931Y002028D01*
X031431Y002028D01*
X031181Y002278D01*
X030931Y002028D01*
X030431Y002028D01*
X030181Y002278D01*
X030181Y002778D01*
X030431Y003028D01*
X030931Y003028D01*
X031181Y002778D02*
X031181Y002278D01*
X030931Y002028D02*
X031181Y001778D01*
X031431Y002028D01*
X031931Y002028D01*
X032181Y001778D01*
X032431Y002028D01*
X032931Y002028D01*
X033181Y001778D01*
X033181Y001278D01*
X032931Y001028D01*
X032431Y001028D01*
X032181Y001278D01*
X031931Y001028D01*
X031431Y001028D01*
X031181Y001278D01*
X030931Y001028D01*
X030431Y001028D01*
X030181Y001278D01*
X030181Y001778D01*
X030431Y002028D01*
X030931Y002028D01*
X031181Y001778D02*
X031181Y001278D01*
X032181Y001278D02*
X032181Y001778D01*
X032181Y002278D02*
X032181Y002778D01*
X032181Y003278D02*
X032181Y003778D01*
X032181Y004278D02*
X032181Y004778D01*
X032181Y005278D02*
X032181Y005778D01*
X031431Y005028D02*
X031181Y004778D01*
X028562Y001484D02*
X028560Y001511D01*
X028555Y001538D01*
X028545Y001564D01*
X028533Y001588D01*
X028517Y001610D01*
X028499Y001630D01*
X028477Y001647D01*
X028454Y001662D01*
X028429Y001672D01*
X028403Y001680D01*
X028376Y001684D01*
X028348Y001684D01*
X028321Y001680D01*
X028295Y001672D01*
X028270Y001662D01*
X028247Y001647D01*
X028225Y001630D01*
X028207Y001610D01*
X028191Y001588D01*
X028179Y001564D01*
X028169Y001538D01*
X028164Y001511D01*
X028162Y001484D01*
X023020Y006246D02*
X023020Y007746D01*
X018416Y002130D02*
X018418Y002210D01*
X018424Y002289D01*
X018434Y002368D01*
X018448Y002447D01*
X018465Y002525D01*
X018487Y002602D01*
X018512Y002677D01*
X018542Y002751D01*
X018574Y002824D01*
X018611Y002895D01*
X018651Y002964D01*
X018694Y003031D01*
X018741Y003096D01*
X018790Y003158D01*
X018843Y003218D01*
X018899Y003275D01*
X018957Y003330D01*
X019018Y003381D01*
X019082Y003429D01*
X019148Y003474D01*
X019216Y003516D01*
X019286Y003554D01*
X019358Y003588D01*
X019431Y003619D01*
X019506Y003647D01*
X019583Y003670D01*
X019660Y003690D01*
X019738Y003706D01*
X019817Y003718D01*
X019896Y003726D01*
X019976Y003730D01*
X020056Y003730D01*
X020136Y003726D01*
X020215Y003718D01*
X020294Y003706D01*
X020372Y003690D01*
X020449Y003670D01*
X020526Y003647D01*
X020601Y003619D01*
X020674Y003588D01*
X020746Y003554D01*
X020816Y003516D01*
X020884Y003474D01*
X020950Y003429D01*
X021014Y003381D01*
X021075Y003330D01*
X021133Y003275D01*
X021189Y003218D01*
X021242Y003158D01*
X021291Y003096D01*
X021338Y003031D01*
X021381Y002964D01*
X021421Y002895D01*
X021458Y002824D01*
X021490Y002751D01*
X021520Y002677D01*
X021545Y002602D01*
X021567Y002525D01*
X021584Y002447D01*
X021598Y002368D01*
X021608Y002289D01*
X021614Y002210D01*
X021616Y002130D01*
X021614Y002050D01*
X021608Y001971D01*
X021598Y001892D01*
X021584Y001813D01*
X021567Y001735D01*
X021545Y001658D01*
X021520Y001583D01*
X021490Y001509D01*
X021458Y001436D01*
X021421Y001365D01*
X021381Y001296D01*
X021338Y001229D01*
X021291Y001164D01*
X021242Y001102D01*
X021189Y001042D01*
X021133Y000985D01*
X021075Y000930D01*
X021014Y000879D01*
X020950Y000831D01*
X020884Y000786D01*
X020816Y000744D01*
X020746Y000706D01*
X020674Y000672D01*
X020601Y000641D01*
X020526Y000613D01*
X020449Y000590D01*
X020372Y000570D01*
X020294Y000554D01*
X020215Y000542D01*
X020136Y000534D01*
X020056Y000530D01*
X019976Y000530D01*
X019896Y000534D01*
X019817Y000542D01*
X019738Y000554D01*
X019660Y000570D01*
X019583Y000590D01*
X019506Y000613D01*
X019431Y000641D01*
X019358Y000672D01*
X019286Y000706D01*
X019216Y000744D01*
X019148Y000786D01*
X019082Y000831D01*
X019018Y000879D01*
X018957Y000930D01*
X018899Y000985D01*
X018843Y001042D01*
X018790Y001102D01*
X018741Y001164D01*
X018694Y001229D01*
X018651Y001296D01*
X018611Y001365D01*
X018574Y001436D01*
X018542Y001509D01*
X018512Y001583D01*
X018487Y001658D01*
X018465Y001735D01*
X018448Y001813D01*
X018434Y001892D01*
X018424Y001971D01*
X018418Y002050D01*
X018416Y002130D01*
X019566Y001080D02*
X019566Y000780D01*
X019716Y000930D02*
X019416Y000930D01*
X015069Y003087D02*
X015071Y003167D01*
X015077Y003246D01*
X015087Y003325D01*
X015101Y003404D01*
X015118Y003482D01*
X015140Y003559D01*
X015165Y003634D01*
X015195Y003708D01*
X015227Y003781D01*
X015264Y003852D01*
X015304Y003921D01*
X015347Y003988D01*
X015394Y004053D01*
X015443Y004115D01*
X015496Y004175D01*
X015552Y004232D01*
X015610Y004287D01*
X015671Y004338D01*
X015735Y004386D01*
X015801Y004431D01*
X015869Y004473D01*
X015939Y004511D01*
X016011Y004545D01*
X016084Y004576D01*
X016159Y004604D01*
X016236Y004627D01*
X016313Y004647D01*
X016391Y004663D01*
X016470Y004675D01*
X016549Y004683D01*
X016629Y004687D01*
X016709Y004687D01*
X016789Y004683D01*
X016868Y004675D01*
X016947Y004663D01*
X017025Y004647D01*
X017102Y004627D01*
X017179Y004604D01*
X017254Y004576D01*
X017327Y004545D01*
X017399Y004511D01*
X017469Y004473D01*
X017537Y004431D01*
X017603Y004386D01*
X017667Y004338D01*
X017728Y004287D01*
X017786Y004232D01*
X017842Y004175D01*
X017895Y004115D01*
X017944Y004053D01*
X017991Y003988D01*
X018034Y003921D01*
X018074Y003852D01*
X018111Y003781D01*
X018143Y003708D01*
X018173Y003634D01*
X018198Y003559D01*
X018220Y003482D01*
X018237Y003404D01*
X018251Y003325D01*
X018261Y003246D01*
X018267Y003167D01*
X018269Y003087D01*
X018267Y003007D01*
X018261Y002928D01*
X018251Y002849D01*
X018237Y002770D01*
X018220Y002692D01*
X018198Y002615D01*
X018173Y002540D01*
X018143Y002466D01*
X018111Y002393D01*
X018074Y002322D01*
X018034Y002253D01*
X017991Y002186D01*
X017944Y002121D01*
X017895Y002059D01*
X017842Y001999D01*
X017786Y001942D01*
X017728Y001887D01*
X017667Y001836D01*
X017603Y001788D01*
X017537Y001743D01*
X017469Y001701D01*
X017399Y001663D01*
X017327Y001629D01*
X017254Y001598D01*
X017179Y001570D01*
X017102Y001547D01*
X017025Y001527D01*
X016947Y001511D01*
X016868Y001499D01*
X016789Y001491D01*
X016709Y001487D01*
X016629Y001487D01*
X016549Y001491D01*
X016470Y001499D01*
X016391Y001511D01*
X016313Y001527D01*
X016236Y001547D01*
X016159Y001570D01*
X016084Y001598D01*
X016011Y001629D01*
X015939Y001663D01*
X015869Y001701D01*
X015801Y001743D01*
X015735Y001788D01*
X015671Y001836D01*
X015610Y001887D01*
X015552Y001942D01*
X015496Y001999D01*
X015443Y002059D01*
X015394Y002121D01*
X015347Y002186D01*
X015304Y002253D01*
X015264Y002322D01*
X015227Y002393D01*
X015195Y002466D01*
X015165Y002540D01*
X015140Y002615D01*
X015118Y002692D01*
X015101Y002770D01*
X015087Y002849D01*
X015077Y002928D01*
X015071Y003007D01*
X015069Y003087D01*
X016219Y002037D02*
X016219Y001737D01*
X016369Y001887D02*
X016069Y001887D01*
X014778Y005020D02*
X014778Y005320D01*
X014928Y005170D02*
X014628Y005170D01*
X013628Y006370D02*
X013630Y006450D01*
X013636Y006529D01*
X013646Y006608D01*
X013660Y006687D01*
X013677Y006765D01*
X013699Y006842D01*
X013724Y006917D01*
X013754Y006991D01*
X013786Y007064D01*
X013823Y007135D01*
X013863Y007204D01*
X013906Y007271D01*
X013953Y007336D01*
X014002Y007398D01*
X014055Y007458D01*
X014111Y007515D01*
X014169Y007570D01*
X014230Y007621D01*
X014294Y007669D01*
X014360Y007714D01*
X014428Y007756D01*
X014498Y007794D01*
X014570Y007828D01*
X014643Y007859D01*
X014718Y007887D01*
X014795Y007910D01*
X014872Y007930D01*
X014950Y007946D01*
X015029Y007958D01*
X015108Y007966D01*
X015188Y007970D01*
X015268Y007970D01*
X015348Y007966D01*
X015427Y007958D01*
X015506Y007946D01*
X015584Y007930D01*
X015661Y007910D01*
X015738Y007887D01*
X015813Y007859D01*
X015886Y007828D01*
X015958Y007794D01*
X016028Y007756D01*
X016096Y007714D01*
X016162Y007669D01*
X016226Y007621D01*
X016287Y007570D01*
X016345Y007515D01*
X016401Y007458D01*
X016454Y007398D01*
X016503Y007336D01*
X016550Y007271D01*
X016593Y007204D01*
X016633Y007135D01*
X016670Y007064D01*
X016702Y006991D01*
X016732Y006917D01*
X016757Y006842D01*
X016779Y006765D01*
X016796Y006687D01*
X016810Y006608D01*
X016820Y006529D01*
X016826Y006450D01*
X016828Y006370D01*
X016826Y006290D01*
X016820Y006211D01*
X016810Y006132D01*
X016796Y006053D01*
X016779Y005975D01*
X016757Y005898D01*
X016732Y005823D01*
X016702Y005749D01*
X016670Y005676D01*
X016633Y005605D01*
X016593Y005536D01*
X016550Y005469D01*
X016503Y005404D01*
X016454Y005342D01*
X016401Y005282D01*
X016345Y005225D01*
X016287Y005170D01*
X016226Y005119D01*
X016162Y005071D01*
X016096Y005026D01*
X016028Y004984D01*
X015958Y004946D01*
X015886Y004912D01*
X015813Y004881D01*
X015738Y004853D01*
X015661Y004830D01*
X015584Y004810D01*
X015506Y004794D01*
X015427Y004782D01*
X015348Y004774D01*
X015268Y004770D01*
X015188Y004770D01*
X015108Y004774D01*
X015029Y004782D01*
X014950Y004794D01*
X014872Y004810D01*
X014795Y004830D01*
X014718Y004853D01*
X014643Y004881D01*
X014570Y004912D01*
X014498Y004946D01*
X014428Y004984D01*
X014360Y005026D01*
X014294Y005071D01*
X014230Y005119D01*
X014169Y005170D01*
X014111Y005225D01*
X014055Y005282D01*
X014002Y005342D01*
X013953Y005404D01*
X013906Y005469D01*
X013863Y005536D01*
X013823Y005605D01*
X013786Y005676D01*
X013754Y005749D01*
X013724Y005823D01*
X013699Y005898D01*
X013677Y005975D01*
X013660Y006053D01*
X013646Y006132D01*
X013636Y006211D01*
X013630Y006290D01*
X013628Y006370D01*
X014841Y008485D02*
X014841Y008785D01*
X014991Y008635D02*
X014691Y008635D01*
X013691Y009835D02*
X013693Y009915D01*
X013699Y009994D01*
X013709Y010073D01*
X013723Y010152D01*
X013740Y010230D01*
X013762Y010307D01*
X013787Y010382D01*
X013817Y010456D01*
X013849Y010529D01*
X013886Y010600D01*
X013926Y010669D01*
X013969Y010736D01*
X014016Y010801D01*
X014065Y010863D01*
X014118Y010923D01*
X014174Y010980D01*
X014232Y011035D01*
X014293Y011086D01*
X014357Y011134D01*
X014423Y011179D01*
X014491Y011221D01*
X014561Y011259D01*
X014633Y011293D01*
X014706Y011324D01*
X014781Y011352D01*
X014858Y011375D01*
X014935Y011395D01*
X015013Y011411D01*
X015092Y011423D01*
X015171Y011431D01*
X015251Y011435D01*
X015331Y011435D01*
X015411Y011431D01*
X015490Y011423D01*
X015569Y011411D01*
X015647Y011395D01*
X015724Y011375D01*
X015801Y011352D01*
X015876Y011324D01*
X015949Y011293D01*
X016021Y011259D01*
X016091Y011221D01*
X016159Y011179D01*
X016225Y011134D01*
X016289Y011086D01*
X016350Y011035D01*
X016408Y010980D01*
X016464Y010923D01*
X016517Y010863D01*
X016566Y010801D01*
X016613Y010736D01*
X016656Y010669D01*
X016696Y010600D01*
X016733Y010529D01*
X016765Y010456D01*
X016795Y010382D01*
X016820Y010307D01*
X016842Y010230D01*
X016859Y010152D01*
X016873Y010073D01*
X016883Y009994D01*
X016889Y009915D01*
X016891Y009835D01*
X016889Y009755D01*
X016883Y009676D01*
X016873Y009597D01*
X016859Y009518D01*
X016842Y009440D01*
X016820Y009363D01*
X016795Y009288D01*
X016765Y009214D01*
X016733Y009141D01*
X016696Y009070D01*
X016656Y009001D01*
X016613Y008934D01*
X016566Y008869D01*
X016517Y008807D01*
X016464Y008747D01*
X016408Y008690D01*
X016350Y008635D01*
X016289Y008584D01*
X016225Y008536D01*
X016159Y008491D01*
X016091Y008449D01*
X016021Y008411D01*
X015949Y008377D01*
X015876Y008346D01*
X015801Y008318D01*
X015724Y008295D01*
X015647Y008275D01*
X015569Y008259D01*
X015490Y008247D01*
X015411Y008239D01*
X015331Y008235D01*
X015251Y008235D01*
X015171Y008239D01*
X015092Y008247D01*
X015013Y008259D01*
X014935Y008275D01*
X014858Y008295D01*
X014781Y008318D01*
X014706Y008346D01*
X014633Y008377D01*
X014561Y008411D01*
X014491Y008449D01*
X014423Y008491D01*
X014357Y008536D01*
X014293Y008584D01*
X014232Y008635D01*
X014174Y008690D01*
X014118Y008747D01*
X014065Y008807D01*
X014016Y008869D01*
X013969Y008934D01*
X013926Y009001D01*
X013886Y009070D01*
X013849Y009141D01*
X013817Y009214D01*
X013787Y009288D01*
X013762Y009363D01*
X013740Y009440D01*
X013723Y009518D01*
X013709Y009597D01*
X013699Y009676D01*
X013693Y009755D01*
X013691Y009835D01*
X001490Y021906D02*
X000990Y021906D01*
X000740Y022156D01*
X000740Y022656D01*
X000990Y022906D01*
X000740Y023156D01*
X000740Y023656D01*
X000990Y023906D01*
X001490Y023906D01*
X001740Y023656D01*
X001740Y023156D01*
X001490Y022906D01*
X001740Y022656D01*
X001740Y022156D01*
X001490Y021906D01*
X001490Y022906D02*
X000990Y022906D01*
X000990Y023906D02*
X000740Y024156D01*
X000740Y024656D01*
X000990Y024906D01*
X000740Y025156D01*
X000740Y025656D01*
X000990Y025906D01*
X001490Y025906D01*
X001740Y025656D01*
X001740Y025156D01*
X001490Y024906D01*
X001740Y024656D01*
X001740Y024156D01*
X001490Y023906D01*
X001490Y024906D02*
X000990Y024906D01*
D12*
X004018Y025712D02*
X004254Y026066D01*
X004380Y025948D02*
X004498Y026066D01*
X004498Y025712D01*
X004380Y025712D02*
X004616Y025712D01*
X004254Y025712D02*
X004018Y026066D01*
X002459Y012310D02*
X002459Y012205D01*
X002459Y012257D02*
X002302Y012257D01*
X002354Y012205D01*
X002354Y012129D02*
X002380Y012102D01*
X002380Y012024D01*
X002380Y012102D02*
X002406Y012129D01*
X002432Y012129D01*
X002459Y012102D01*
X002459Y012024D01*
X002302Y012024D01*
X002302Y012102D01*
X002328Y012129D01*
X002354Y012129D01*
X002302Y011947D02*
X002302Y011843D01*
X002459Y011843D01*
X002380Y011843D02*
X002380Y011895D01*
X003414Y011238D02*
X003414Y011212D01*
X003466Y011160D01*
X003466Y011081D01*
X003466Y011160D02*
X003518Y011212D01*
X003518Y011238D01*
X003595Y011212D02*
X003621Y011238D01*
X003673Y011238D01*
X003699Y011212D01*
X003699Y011186D01*
X003595Y011081D01*
X003699Y011081D01*
X007889Y011042D02*
X007994Y011042D01*
X008070Y011042D02*
X008149Y011042D01*
X008175Y011016D01*
X008175Y010990D01*
X008149Y010963D01*
X008070Y010963D01*
X008070Y010885D02*
X008149Y010885D01*
X008175Y010911D01*
X008175Y010937D01*
X008149Y010963D01*
X008251Y010963D02*
X008304Y010990D01*
X008330Y010990D01*
X008356Y010963D01*
X008356Y010911D01*
X008330Y010885D01*
X008278Y010885D01*
X008251Y010911D01*
X008251Y010963D02*
X008251Y011042D01*
X008356Y011042D01*
X008070Y011042D02*
X008070Y010885D01*
X007941Y010963D02*
X007889Y010963D01*
X007889Y010885D02*
X007889Y011042D01*
X012218Y009120D02*
X012218Y008963D01*
X012218Y009042D02*
X012270Y009042D01*
X012218Y009120D02*
X012322Y009120D01*
X012399Y009120D02*
X012477Y009120D01*
X012504Y009094D01*
X012504Y009068D01*
X012477Y009042D01*
X012399Y009042D01*
X012399Y009120D02*
X012399Y008963D01*
X012477Y008963D01*
X012504Y008989D01*
X012504Y009015D01*
X012477Y009042D01*
X012580Y009042D02*
X012659Y009042D01*
X012685Y009015D01*
X012685Y008989D01*
X012659Y008963D01*
X012606Y008963D01*
X012580Y008989D01*
X012580Y009042D01*
X012632Y009094D01*
X012685Y009120D01*
X011613Y002828D02*
X011535Y002749D01*
X011639Y002749D01*
X011613Y002671D02*
X011613Y002828D01*
X011458Y002802D02*
X011458Y002775D01*
X011432Y002749D01*
X011354Y002749D01*
X011432Y002749D02*
X011458Y002723D01*
X011458Y002697D01*
X011432Y002671D01*
X011354Y002671D01*
X011354Y002828D01*
X011432Y002828D01*
X011458Y002802D01*
X011277Y002828D02*
X011172Y002828D01*
X011172Y002671D01*
X011172Y002749D02*
X011225Y002749D01*
X006384Y002728D02*
X006384Y002702D01*
X006357Y002675D01*
X006384Y002649D01*
X006384Y002623D01*
X006357Y002597D01*
X006305Y002597D01*
X006279Y002623D01*
X006331Y002675D02*
X006357Y002675D01*
X006384Y002728D02*
X006357Y002754D01*
X006305Y002754D01*
X006279Y002728D01*
X006202Y002728D02*
X006202Y002702D01*
X006176Y002675D01*
X006098Y002675D01*
X006098Y002597D02*
X006176Y002597D01*
X006202Y002623D01*
X006202Y002649D01*
X006176Y002675D01*
X006202Y002728D02*
X006176Y002754D01*
X006098Y002754D01*
X006098Y002597D01*
X005969Y002675D02*
X005916Y002675D01*
X005916Y002597D02*
X005916Y002754D01*
X006021Y002754D01*
X003221Y004569D02*
X003064Y004569D01*
X003064Y004674D01*
X003064Y004750D02*
X003064Y004829D01*
X003091Y004855D01*
X003117Y004855D01*
X003143Y004829D01*
X003143Y004750D01*
X003221Y004750D02*
X003064Y004750D01*
X003143Y004829D02*
X003169Y004855D01*
X003195Y004855D01*
X003221Y004829D01*
X003221Y004750D01*
X003143Y004621D02*
X003143Y004569D01*
X003091Y004931D02*
X003064Y004958D01*
X003064Y005010D01*
X003091Y005036D01*
X003117Y005036D01*
X003221Y004931D01*
X003221Y005036D01*
X021596Y001130D02*
X021753Y001130D01*
X021753Y001078D02*
X021753Y001183D01*
X021648Y001078D02*
X021596Y001130D01*
X021622Y001001D02*
X021596Y000975D01*
X021596Y000897D01*
X021753Y000897D01*
X021753Y000975D01*
X021726Y001001D01*
X021622Y001001D01*
X026368Y001680D02*
X026394Y001654D01*
X026447Y001654D01*
X026473Y001680D01*
X026473Y001811D01*
X026550Y001759D02*
X026602Y001811D01*
X026602Y001654D01*
X026550Y001654D02*
X026654Y001654D01*
X026368Y001680D02*
X026368Y001811D01*
X031660Y006418D02*
X031686Y006392D01*
X031738Y006392D01*
X031764Y006418D01*
X031764Y006445D01*
X031738Y006471D01*
X031686Y006471D01*
X031660Y006497D01*
X031660Y006523D01*
X031686Y006549D01*
X031738Y006549D01*
X031764Y006523D01*
X031841Y006497D02*
X031893Y006549D01*
X031893Y006392D01*
X031841Y006392D02*
X031946Y006392D01*
X024242Y014485D02*
X024006Y014485D01*
X024242Y014721D01*
X024242Y014780D01*
X024183Y014839D01*
X024065Y014839D01*
X024006Y014780D01*
X023880Y014839D02*
X023644Y014485D01*
X023880Y014485D02*
X023644Y014839D01*
D13*
X023675Y014323D02*
X023175Y014323D01*
X022925Y014073D01*
X022925Y012573D01*
X022675Y012323D01*
X022175Y012323D01*
X021925Y012573D01*
X021925Y014073D01*
X022175Y014323D01*
X022675Y014323D01*
X022925Y014073D01*
X023675Y014323D02*
X023925Y014073D01*
X023925Y013573D01*
X023675Y013323D01*
X023925Y013073D01*
X023925Y012573D01*
X023675Y012323D01*
X023175Y012323D01*
X022925Y012573D01*
X021925Y012573D02*
X021675Y012323D01*
X021175Y012323D01*
X020925Y012573D01*
X020925Y014073D01*
X020675Y014323D01*
X020175Y014323D01*
X019925Y014073D01*
X019925Y012573D01*
X019675Y012323D01*
X019175Y012323D01*
X018925Y012573D01*
X018925Y014073D01*
X019175Y014323D01*
X019675Y014323D01*
X019925Y014073D01*
X020925Y014073D02*
X021175Y014323D01*
X021675Y014323D01*
X021925Y014073D01*
X020925Y012573D02*
X020675Y012323D01*
X020175Y012323D01*
X019925Y012573D01*
X018925Y012573D02*
X018675Y012323D01*
X018175Y012323D01*
X017925Y012573D01*
X017925Y014073D01*
X017675Y014323D01*
X017175Y014323D01*
X016925Y014073D01*
X016925Y012573D01*
X016675Y012323D01*
X016175Y012323D01*
X015925Y012573D01*
X015925Y014073D01*
X015675Y014323D01*
X015175Y014323D01*
X014925Y014073D01*
X014925Y012573D01*
X015175Y012323D01*
X015675Y012323D01*
X015925Y012573D01*
X014925Y012573D02*
X014675Y012323D01*
X014175Y012323D01*
X013925Y012573D01*
X013925Y014073D01*
X013675Y014323D01*
X013175Y014323D01*
X012925Y014073D01*
X012925Y012573D01*
X012675Y012323D01*
X012175Y012323D01*
X011925Y012573D01*
X011925Y014073D01*
X012175Y014323D01*
X012675Y014323D01*
X012925Y014073D01*
X011925Y014073D02*
X011675Y014323D01*
X011175Y014323D01*
X010925Y014073D01*
X010675Y014323D01*
X010175Y014323D01*
X009925Y014073D01*
X009675Y014323D01*
X009175Y014323D01*
X008925Y014073D01*
X008675Y014323D01*
X008175Y014323D01*
X007925Y014073D01*
X007675Y014323D01*
X007175Y014323D01*
X006925Y014073D01*
X006675Y014323D01*
X006175Y014323D01*
X005925Y014073D01*
X005675Y014323D01*
X005175Y014323D01*
X004925Y014073D01*
X004675Y014323D01*
X004175Y014323D01*
X003925Y014073D01*
X003925Y013573D01*
X004175Y013323D01*
X003925Y013073D01*
X003925Y012573D01*
X004175Y012323D01*
X004675Y012323D01*
X004925Y012573D01*
X004925Y014073D01*
X005925Y014073D02*
X005925Y012573D01*
X005675Y012323D01*
X005175Y012323D01*
X004925Y012573D01*
X005925Y012573D02*
X006175Y012323D01*
X006675Y012323D01*
X006925Y012573D01*
X006925Y014073D01*
X007925Y014073D02*
X007925Y012573D01*
X008175Y012323D01*
X008675Y012323D01*
X008925Y012573D01*
X008925Y014073D01*
X009925Y014073D02*
X009925Y012573D01*
X009675Y012323D01*
X009175Y012323D01*
X008925Y012573D01*
X009925Y012573D02*
X010175Y012323D01*
X010675Y012323D01*
X010925Y012573D01*
X010925Y014073D01*
X010925Y012573D02*
X011175Y012323D01*
X011675Y012323D01*
X011925Y012573D01*
X012925Y012573D02*
X013175Y012323D01*
X013675Y012323D01*
X013925Y012573D01*
X013925Y014073D02*
X014175Y014323D01*
X014675Y014323D01*
X014925Y014073D01*
X015925Y014073D02*
X016175Y014323D01*
X016675Y014323D01*
X016925Y014073D01*
X017925Y014073D02*
X018175Y014323D01*
X018675Y014323D01*
X018925Y014073D01*
X017925Y012573D02*
X017675Y012323D01*
X017175Y012323D01*
X016925Y012573D01*
X018150Y011378D02*
X019449Y011378D01*
X019449Y009488D01*
X018150Y009488D01*
X019449Y009488D02*
X019646Y009488D01*
X019646Y011378D02*
X019449Y011378D01*
X025720Y011559D02*
X032020Y011559D01*
X032020Y017858D01*
X025720Y017858D01*
X025720Y011559D01*
X026919Y009728D02*
X030309Y009728D01*
X030309Y008429D01*
X026919Y008429D01*
X026919Y009728D01*
X026919Y008429D02*
X026919Y008232D01*
X030309Y008232D01*
X030309Y008429D01*
X030807Y008303D02*
X030807Y007091D01*
X031307Y006697D02*
X032295Y006697D01*
X032807Y007091D02*
X032807Y008303D01*
X032295Y008697D02*
X031319Y008697D01*
X031307Y007697D02*
X031309Y007741D01*
X031315Y007785D01*
X031325Y007828D01*
X031338Y007870D01*
X031355Y007911D01*
X031376Y007950D01*
X031400Y007987D01*
X031427Y008022D01*
X031457Y008054D01*
X031490Y008084D01*
X031526Y008110D01*
X031563Y008134D01*
X031603Y008153D01*
X031644Y008170D01*
X031687Y008182D01*
X031730Y008191D01*
X031774Y008196D01*
X031818Y008197D01*
X031862Y008194D01*
X031906Y008187D01*
X031949Y008176D01*
X031991Y008162D01*
X032031Y008144D01*
X032070Y008122D01*
X032106Y008098D01*
X032140Y008070D01*
X032172Y008039D01*
X032201Y008005D01*
X032227Y007969D01*
X032249Y007931D01*
X032268Y007891D01*
X032283Y007849D01*
X032295Y007807D01*
X032303Y007763D01*
X032307Y007719D01*
X032307Y007675D01*
X032303Y007631D01*
X032295Y007587D01*
X032283Y007545D01*
X032268Y007503D01*
X032249Y007463D01*
X032227Y007425D01*
X032201Y007389D01*
X032172Y007355D01*
X032140Y007324D01*
X032106Y007296D01*
X032070Y007272D01*
X032031Y007250D01*
X031991Y007232D01*
X031949Y007218D01*
X031906Y007207D01*
X031862Y007200D01*
X031818Y007197D01*
X031774Y007198D01*
X031730Y007203D01*
X031687Y007212D01*
X031644Y007224D01*
X031603Y007241D01*
X031563Y007260D01*
X031526Y007284D01*
X031490Y007310D01*
X031457Y007340D01*
X031427Y007372D01*
X031400Y007407D01*
X031376Y007444D01*
X031355Y007483D01*
X031338Y007524D01*
X031325Y007566D01*
X031315Y007609D01*
X031309Y007653D01*
X031307Y007697D01*
X026089Y004526D02*
X026089Y001906D01*
X025949Y001766D01*
X023329Y001766D01*
X023329Y004526D01*
X026089Y004526D01*
X026089Y001696D02*
X026091Y001711D01*
X026096Y001725D01*
X026105Y001737D01*
X026117Y001747D01*
X026130Y001753D01*
X026145Y001756D01*
X026160Y001755D01*
X026175Y001750D01*
X026187Y001742D01*
X026198Y001731D01*
X026205Y001718D01*
X026209Y001704D01*
X026209Y001688D01*
X026205Y001674D01*
X026198Y001661D01*
X026187Y001650D01*
X026175Y001642D01*
X026160Y001637D01*
X026145Y001636D01*
X026130Y001639D01*
X026117Y001645D01*
X026105Y001655D01*
X026096Y001667D01*
X026091Y001681D01*
X026089Y001696D01*
X028083Y013134D02*
X028083Y014709D01*
X029657Y014709D01*
X029657Y013134D01*
X028083Y013134D01*
X028280Y015496D02*
X028280Y016283D01*
X029067Y016283D01*
X029067Y015496D01*
X028280Y015496D01*
X029665Y018640D02*
X029665Y022651D01*
X032534Y027313D02*
X032968Y027313D01*
X032968Y028100D02*
X032534Y028100D01*
X023925Y028049D02*
X023925Y027549D01*
X023675Y027299D01*
X023925Y027049D01*
X023925Y026549D01*
X023675Y026299D01*
X023175Y026299D01*
X022925Y026549D01*
X022925Y028049D01*
X022675Y028299D01*
X022175Y028299D01*
X021925Y028049D01*
X021925Y026549D01*
X022175Y026299D01*
X022675Y026299D01*
X022925Y026549D01*
X021925Y026549D02*
X021675Y026299D01*
X021175Y026299D01*
X020925Y026549D01*
X020925Y028049D01*
X020675Y028299D01*
X020175Y028299D01*
X019925Y028049D01*
X019925Y026549D01*
X019675Y026299D01*
X019175Y026299D01*
X018925Y026549D01*
X018925Y028049D01*
X019175Y028299D01*
X019675Y028299D01*
X019925Y028049D01*
X020925Y028049D02*
X021175Y028299D01*
X021675Y028299D01*
X021925Y028049D01*
X022925Y028049D02*
X023175Y028299D01*
X023675Y028299D01*
X023925Y028049D01*
X020925Y026549D02*
X020675Y026299D01*
X020175Y026299D01*
X019925Y026549D01*
X018925Y026549D02*
X018675Y026299D01*
X018175Y026299D01*
X017925Y026549D01*
X017925Y028049D01*
X017675Y028299D01*
X017175Y028299D01*
X016925Y028049D01*
X016925Y026549D01*
X016675Y026299D01*
X016175Y026299D01*
X015925Y026549D01*
X015925Y028049D01*
X015675Y028299D01*
X015175Y028299D01*
X014925Y028049D01*
X014925Y026549D01*
X015175Y026299D01*
X015675Y026299D01*
X015925Y026549D01*
X014925Y026549D02*
X014675Y026299D01*
X014175Y026299D01*
X013925Y026549D01*
X013925Y028049D01*
X013675Y028299D01*
X013175Y028299D01*
X012925Y028049D01*
X012925Y026549D01*
X012675Y026299D01*
X012175Y026299D01*
X011925Y026549D01*
X011925Y028049D01*
X012175Y028299D01*
X012675Y028299D01*
X012925Y028049D01*
X011925Y028049D02*
X011675Y028299D01*
X011175Y028299D01*
X010925Y028049D01*
X010675Y028299D01*
X010175Y028299D01*
X009925Y028049D01*
X009675Y028299D01*
X009175Y028299D01*
X008925Y028049D01*
X008675Y028299D01*
X008175Y028299D01*
X007925Y028049D01*
X007675Y028299D01*
X007175Y028299D01*
X006925Y028049D01*
X006675Y028299D01*
X006175Y028299D01*
X005925Y028049D01*
X005675Y028299D01*
X005175Y028299D01*
X004925Y028049D01*
X004675Y028299D01*
X004175Y028299D01*
X003925Y028049D01*
X003925Y027549D01*
X004175Y027299D01*
X003925Y027049D01*
X003925Y026549D01*
X004175Y026299D01*
X004675Y026299D01*
X004925Y026549D01*
X004925Y028049D01*
X005925Y028049D02*
X005925Y026549D01*
X005675Y026299D01*
X005175Y026299D01*
X004925Y026549D01*
X005925Y026549D02*
X006175Y026299D01*
X006675Y026299D01*
X006925Y026549D01*
X006925Y028049D01*
X007925Y028049D02*
X007925Y026549D01*
X008175Y026299D01*
X008675Y026299D01*
X008925Y026549D01*
X008925Y028049D01*
X009925Y028049D02*
X009925Y026549D01*
X009675Y026299D01*
X009175Y026299D01*
X008925Y026549D01*
X009925Y026549D02*
X010175Y026299D01*
X010675Y026299D01*
X010925Y026549D01*
X010925Y028049D01*
X010925Y026549D02*
X011175Y026299D01*
X011675Y026299D01*
X011925Y026549D01*
X012925Y026549D02*
X013175Y026299D01*
X013675Y026299D01*
X013925Y026549D01*
X013925Y028049D02*
X014175Y028299D01*
X014675Y028299D01*
X014925Y028049D01*
X015925Y028049D02*
X016175Y028299D01*
X016675Y028299D01*
X016925Y028049D01*
X017925Y028049D02*
X018175Y028299D01*
X018675Y028299D01*
X018925Y028049D01*
X017925Y026549D02*
X017675Y026299D01*
X017175Y026299D01*
X016925Y026549D01*
X007925Y026549D02*
X007675Y026299D01*
X007175Y026299D01*
X006925Y026549D01*
X006925Y012573D02*
X007175Y012323D01*
X007675Y012323D01*
X007925Y012573D01*
X005386Y010429D02*
X005386Y010193D01*
X004598Y009642D02*
X004126Y009642D01*
X003339Y010193D02*
X003339Y010429D01*
X004126Y010980D02*
X004598Y010980D01*
X005268Y008890D02*
X008732Y008890D01*
X008890Y008732D01*
X008890Y005268D01*
X008732Y005110D01*
X005268Y005110D01*
X005110Y005268D01*
X005110Y008732D01*
X005268Y008890D01*
D14*
X029961Y019646D03*
X029961Y020646D03*
X029961Y021646D03*
D15*
X-001931Y007000D02*
X-001931Y001827D01*
X002116Y001827D01*
X002116Y007000D01*
X-001931Y007000D01*
X-001980Y008577D02*
X-001980Y013750D01*
X002067Y013750D01*
X002067Y008577D01*
X-001980Y008577D01*
X002750Y002317D02*
X002750Y-001730D01*
X007923Y-001730D01*
X007923Y002317D01*
X002750Y002317D01*
X009500Y002317D02*
X009500Y-001730D01*
X014673Y-001730D01*
X014673Y002317D01*
X009500Y002317D01*
X019164Y009685D02*
X019166Y009703D01*
X019172Y009721D01*
X019181Y009737D01*
X019193Y009750D01*
X019208Y009761D01*
X019225Y009769D01*
X019243Y009773D01*
X019261Y009773D01*
X019279Y009769D01*
X019296Y009761D01*
X019311Y009750D01*
X019323Y009737D01*
X019332Y009721D01*
X019338Y009703D01*
X019340Y009685D01*
X019338Y009667D01*
X019332Y009649D01*
X019323Y009633D01*
X019311Y009620D01*
X019296Y009609D01*
X019279Y009601D01*
X019261Y009597D01*
X019243Y009597D01*
X019225Y009601D01*
X019208Y009609D01*
X019193Y009620D01*
X019181Y009633D01*
X019172Y009649D01*
X019166Y009667D01*
X019164Y009685D01*
X026989Y008730D02*
X026991Y008752D01*
X026997Y008773D01*
X027006Y008792D01*
X027018Y008810D01*
X027034Y008826D01*
X027051Y008838D01*
X027071Y008847D01*
X027092Y008853D01*
X027114Y008855D01*
X027136Y008853D01*
X027157Y008847D01*
X027176Y008838D01*
X027194Y008826D01*
X027210Y008810D01*
X027222Y008792D01*
X027231Y008773D01*
X027237Y008752D01*
X027239Y008730D01*
X027237Y008708D01*
X027231Y008687D01*
X027222Y008668D01*
X027210Y008650D01*
X027194Y008634D01*
X027177Y008622D01*
X027157Y008613D01*
X027136Y008607D01*
X027114Y008605D01*
X027092Y008607D01*
X027071Y008613D01*
X027051Y008622D01*
X027034Y008634D01*
X027018Y008650D01*
X027006Y008667D01*
X026997Y008687D01*
X026991Y008708D01*
X026989Y008730D01*
X022235Y002003D02*
X021860Y002003D01*
X002067Y015327D02*
X-001980Y015327D01*
X-001980Y020500D01*
X002067Y020500D01*
X002067Y015327D01*
X024134Y025268D02*
X026496Y025268D01*
X026496Y028417D01*
X024134Y028417D01*
X024134Y025268D01*
X030335Y025482D02*
X030335Y023982D01*
X032585Y023982D01*
X032589Y023612D02*
X030339Y023612D01*
X030339Y022112D01*
X032589Y022112D01*
X033339Y022862D02*
X033337Y022916D01*
X033331Y022969D01*
X033322Y023021D01*
X033309Y023073D01*
X033292Y023124D01*
X033271Y023174D01*
X033247Y023221D01*
X033220Y023267D01*
X033189Y023311D01*
X033156Y023353D01*
X033119Y023392D01*
X033080Y023429D01*
X033038Y023462D01*
X032994Y023493D01*
X032948Y023520D01*
X032901Y023544D01*
X032851Y023565D01*
X032800Y023582D01*
X032748Y023595D01*
X032696Y023604D01*
X032643Y023610D01*
X032589Y023612D01*
X033339Y022862D02*
X033337Y022808D01*
X033331Y022755D01*
X033322Y022703D01*
X033309Y022651D01*
X033292Y022600D01*
X033271Y022550D01*
X033247Y022503D01*
X033220Y022457D01*
X033189Y022413D01*
X033156Y022371D01*
X033119Y022332D01*
X033080Y022295D01*
X033038Y022262D01*
X032994Y022231D01*
X032948Y022204D01*
X032901Y022180D01*
X032851Y022159D01*
X032800Y022142D01*
X032748Y022129D01*
X032696Y022120D01*
X032643Y022114D01*
X032589Y022112D01*
X033335Y024732D02*
X033333Y024786D01*
X033327Y024839D01*
X033318Y024891D01*
X033305Y024943D01*
X033288Y024994D01*
X033267Y025044D01*
X033243Y025091D01*
X033216Y025137D01*
X033185Y025181D01*
X033152Y025223D01*
X033115Y025262D01*
X033076Y025299D01*
X033034Y025332D01*
X032990Y025363D01*
X032944Y025390D01*
X032897Y025414D01*
X032847Y025435D01*
X032796Y025452D01*
X032744Y025465D01*
X032692Y025474D01*
X032639Y025480D01*
X032585Y025482D01*
X030335Y025482D01*
X032585Y023982D02*
X032639Y023984D01*
X032692Y023990D01*
X032744Y023999D01*
X032796Y024012D01*
X032847Y024029D01*
X032897Y024050D01*
X032944Y024074D01*
X032990Y024101D01*
X033034Y024132D01*
X033076Y024165D01*
X033115Y024202D01*
X033152Y024241D01*
X033185Y024283D01*
X033216Y024327D01*
X033243Y024373D01*
X033267Y024420D01*
X033288Y024470D01*
X033305Y024521D01*
X033318Y024573D01*
X033327Y024625D01*
X033333Y024678D01*
X033335Y024732D01*
D16*
X023294Y008636D02*
X023144Y008636D01*
X023144Y008536D01*
X023294Y008536D01*
X023294Y008636D01*
X023294Y008628D02*
X023144Y008628D01*
X023144Y008619D02*
X023294Y008619D01*
X023294Y008611D02*
X023144Y008611D01*
X023144Y008602D02*
X023294Y008602D01*
X023294Y008594D02*
X023144Y008594D01*
X023144Y008585D02*
X023294Y008585D01*
X023294Y008577D02*
X023144Y008577D01*
X023144Y008568D02*
X023294Y008568D01*
X023294Y008560D02*
X023144Y008560D01*
X023144Y008551D02*
X023294Y008551D01*
X023294Y008543D02*
X023144Y008543D01*
X025688Y008283D02*
X025688Y008221D01*
X025719Y008190D01*
X025750Y008190D01*
X025781Y008221D01*
X025781Y008314D01*
X025719Y008314D02*
X025688Y008283D01*
X025719Y008314D02*
X025844Y008314D01*
X025875Y008283D01*
X025875Y008221D01*
X025844Y008190D01*
X025844Y008133D02*
X025688Y008133D01*
X025688Y008008D02*
X025844Y008008D01*
X025875Y008039D01*
X025875Y008102D01*
X025844Y008133D01*
X025597Y005456D02*
X025447Y005456D01*
X025447Y005356D01*
X025597Y005356D01*
X025597Y005456D01*
X025597Y005449D02*
X025447Y005449D01*
X025447Y005440D02*
X025597Y005440D01*
X025597Y005432D02*
X025447Y005432D01*
X025447Y005423D02*
X025597Y005423D01*
X025597Y005415D02*
X025447Y005415D01*
X025447Y005406D02*
X025597Y005406D01*
X025597Y005398D02*
X025447Y005398D01*
X025447Y005389D02*
X025597Y005389D01*
X025597Y005381D02*
X025447Y005381D01*
X025447Y005372D02*
X025597Y005372D01*
X025597Y005364D02*
X025447Y005364D01*
X012259Y006607D02*
X012247Y006596D01*
X012224Y006596D01*
X012213Y006607D01*
X012186Y006596D02*
X012141Y006596D01*
X012163Y006596D02*
X012163Y006664D01*
X012141Y006641D01*
X012114Y006630D02*
X012102Y006618D01*
X012068Y006618D01*
X012068Y006596D02*
X012068Y006664D01*
X012102Y006664D01*
X012114Y006653D01*
X012114Y006630D01*
X012091Y006618D02*
X012114Y006596D01*
X012213Y006653D02*
X012224Y006664D01*
X012247Y006664D01*
X012259Y006653D01*
X012259Y006641D01*
X012247Y006630D01*
X012259Y006618D01*
X012259Y006607D01*
X012247Y006630D02*
X012236Y006630D01*
X011139Y005342D02*
X011127Y005342D01*
X011081Y005388D01*
X011070Y005388D01*
X011070Y005342D01*
X011070Y005292D02*
X011139Y005292D01*
X011139Y005269D02*
X011139Y005315D01*
X011093Y005269D02*
X011070Y005292D01*
X011081Y005243D02*
X011104Y005243D01*
X011116Y005231D01*
X011116Y005197D01*
X011139Y005197D02*
X011070Y005197D01*
X011070Y005231D01*
X011081Y005243D01*
X011116Y005220D02*
X011139Y005243D01*
X011743Y007826D02*
X011743Y007895D01*
X011778Y007895D01*
X011789Y007883D01*
X011789Y007860D01*
X011778Y007849D01*
X011743Y007849D01*
X011766Y007849D02*
X011789Y007826D01*
X011816Y007826D02*
X011862Y007826D01*
X011839Y007826D02*
X011839Y007895D01*
X011816Y007872D01*
X011888Y007872D02*
X011888Y007883D01*
X011900Y007895D01*
X011923Y007895D01*
X011934Y007883D01*
X011934Y007872D01*
X011923Y007860D01*
X011900Y007860D01*
X011888Y007872D01*
X011900Y007860D02*
X011888Y007849D01*
X011888Y007837D01*
X011900Y007826D01*
X011923Y007826D01*
X011934Y007837D01*
X011934Y007849D01*
X011923Y007860D01*
X010404Y007847D02*
X010404Y007919D01*
X010386Y007937D01*
X010350Y007937D01*
X010332Y007919D01*
X010332Y007901D01*
X010350Y007883D01*
X010404Y007883D01*
X010404Y007847D02*
X010386Y007829D01*
X010350Y007829D01*
X010332Y007847D01*
X010295Y007829D02*
X010223Y007829D01*
X010259Y007829D02*
X010259Y007937D01*
X010223Y007901D01*
X010186Y007919D02*
X010186Y007883D01*
X010168Y007865D01*
X010114Y007865D01*
X010114Y007829D02*
X010114Y007937D01*
X010168Y007937D01*
X010186Y007919D01*
X010150Y007865D02*
X010186Y007829D01*
D17*
X008464Y005425D02*
X008466Y005445D01*
X008471Y005465D01*
X008481Y005483D01*
X008493Y005500D01*
X008508Y005514D01*
X008526Y005524D01*
X008545Y005532D01*
X008565Y005536D01*
X008585Y005536D01*
X008605Y005532D01*
X008624Y005524D01*
X008642Y005514D01*
X008657Y005500D01*
X008669Y005483D01*
X008679Y005465D01*
X008684Y005445D01*
X008686Y005425D01*
X008684Y005405D01*
X008679Y005385D01*
X008669Y005367D01*
X008657Y005350D01*
X008642Y005336D01*
X008624Y005326D01*
X008605Y005318D01*
X008585Y005314D01*
X008565Y005314D01*
X008545Y005318D01*
X008526Y005326D01*
X008508Y005336D01*
X008493Y005350D01*
X008481Y005367D01*
X008471Y005385D01*
X008466Y005405D01*
X008464Y005425D01*
D18*
X025703Y008107D02*
X026017Y008421D01*
X025860Y008421D02*
X025860Y008107D01*
X026017Y008107D02*
X025703Y008421D01*
X025703Y008264D02*
X026017Y008264D01*
D19*
X032815Y027431D03*
D20*
X018149Y007891D03*
X018155Y007873D03*
X018161Y007867D03*
X018167Y007861D03*
X018173Y007855D03*
X018179Y007849D03*
X018191Y007837D03*
X018203Y007813D03*
X018209Y007807D03*
X018215Y007801D03*
X018221Y007795D03*
X018227Y007789D03*
X018233Y007777D03*
X018239Y007765D03*
X018245Y007759D03*
X018251Y007753D03*
X018263Y007741D03*
X018275Y007717D03*
X018281Y007711D03*
X018287Y007705D03*
X018293Y007693D03*
X018299Y007681D03*
X018305Y007675D03*
X018311Y007669D03*
X018323Y007645D03*
X018329Y007639D03*
X018335Y007621D03*
X018341Y007615D03*
X018347Y007609D03*
X018353Y007597D03*
X018359Y007585D03*
X018365Y007579D03*
X018371Y007573D03*
X018371Y007561D03*
X018377Y007555D03*
X018383Y007549D03*
X018389Y007531D03*
X018395Y007525D03*
X018407Y007501D03*
X018419Y007477D03*
X018431Y007453D03*
X018443Y007429D03*
X018449Y007411D03*
X018455Y007405D03*
X018461Y007387D03*
X018467Y007381D03*
X018467Y007369D03*
X018473Y007363D03*
X018479Y007357D03*
X018479Y007345D03*
X018491Y007321D03*
X018497Y007303D03*
X018503Y007297D03*
X018503Y007285D03*
X018509Y007279D03*
X018515Y007261D03*
X018527Y007237D03*
X018527Y007225D03*
X018533Y007219D03*
X018539Y007201D03*
X018545Y007183D03*
X018551Y007177D03*
X018551Y007165D03*
X018557Y007159D03*
X018563Y007141D03*
X018575Y007117D03*
X018575Y007105D03*
X018587Y007081D03*
X018599Y007045D03*
X018605Y007027D03*
X018611Y007009D03*
X018623Y006985D03*
X018623Y006973D03*
X018629Y006967D03*
X018635Y006949D03*
X018671Y006937D03*
X018779Y006913D03*
X018797Y006907D03*
X018815Y006901D03*
X018833Y006895D03*
X018857Y006883D03*
X018881Y006871D03*
X018905Y006859D03*
X018911Y006853D03*
X018917Y006847D03*
X018941Y006835D03*
X018953Y006823D03*
X018965Y006811D03*
X019013Y006763D03*
X019025Y006751D03*
X019049Y006715D03*
X019013Y006211D03*
X019001Y006199D03*
X018989Y006187D03*
X018941Y006139D03*
X018917Y006115D03*
X018905Y006103D03*
X018899Y006097D03*
X018821Y006031D03*
X018749Y005971D03*
X018647Y005887D03*
X018647Y005881D03*
X018785Y005779D03*
X018785Y005767D03*
X018881Y005587D03*
X018797Y005395D03*
X018833Y005359D03*
X018857Y005347D03*
X018881Y005335D03*
X018899Y005329D03*
X018869Y005299D03*
X018959Y005317D03*
X019043Y005317D03*
X019091Y005329D03*
X019109Y005335D03*
X019127Y005341D03*
X019133Y005347D03*
X019151Y005353D03*
X019157Y005359D03*
X019181Y005371D03*
X019055Y005401D03*
X019007Y005389D03*
X019223Y005509D03*
X018911Y005965D03*
X018413Y005731D03*
X018365Y005719D03*
X018257Y005695D03*
X018233Y005683D03*
X018209Y005671D03*
X018203Y005665D03*
X018179Y005653D03*
X018155Y005641D03*
X017771Y005593D03*
X017741Y005611D03*
X018359Y004993D03*
X018701Y004501D03*
X018701Y004495D03*
X018701Y004489D03*
X018701Y004483D03*
X018701Y004477D03*
X018701Y004471D03*
X018701Y004465D03*
X018701Y004459D03*
X018701Y004453D03*
X018701Y004447D03*
X018701Y004441D03*
X018701Y004435D03*
X018701Y004429D03*
X018701Y004423D03*
X018701Y004417D03*
X018701Y004411D03*
X018707Y004405D03*
X018701Y004327D03*
X018701Y004315D03*
X018701Y004303D03*
X018701Y004291D03*
X018707Y004285D03*
X018701Y004279D03*
X018707Y004273D03*
X018701Y004267D03*
X018707Y004261D03*
X018701Y004255D03*
X018707Y004249D03*
X018707Y004165D03*
X018707Y004153D03*
X018707Y004141D03*
X018707Y004129D03*
X018707Y004117D03*
X018707Y004105D03*
X018707Y004093D03*
X018707Y004081D03*
X018707Y003997D03*
X018707Y003991D03*
X018707Y003985D03*
X018707Y003979D03*
X018707Y003973D03*
X018707Y003967D03*
X018707Y003961D03*
X018707Y003949D03*
X018707Y003937D03*
X018707Y003925D03*
X018707Y003913D03*
X018707Y003901D03*
X018707Y003817D03*
X018713Y003811D03*
X018707Y003805D03*
X018713Y003799D03*
X018707Y003793D03*
X018713Y003787D03*
X018707Y003781D03*
X018713Y003775D03*
X018707Y003769D03*
X018713Y003763D03*
X018707Y003757D03*
X018713Y003751D03*
X018707Y003745D03*
X018713Y003739D03*
X018707Y003733D03*
X018713Y003655D03*
X018713Y003643D03*
X018713Y003631D03*
X018713Y003619D03*
X018713Y003613D03*
X018713Y003607D03*
X018713Y003601D03*
X018713Y003595D03*
X018713Y003589D03*
X018713Y003583D03*
X018713Y003577D03*
X018713Y003571D03*
X018713Y003565D03*
X018713Y003559D03*
X018713Y003553D03*
X018713Y003547D03*
X018713Y003541D03*
X018713Y003535D03*
X018713Y003529D03*
X018713Y003523D03*
X018713Y003517D03*
X018713Y003511D03*
X018719Y003481D03*
X018713Y003475D03*
X018743Y003517D03*
X018749Y003523D03*
X018755Y003529D03*
X018761Y003535D03*
X018767Y003541D03*
X018803Y003589D03*
X018815Y003601D03*
X018821Y003607D03*
X018827Y003613D03*
X018839Y003625D03*
X018959Y003769D03*
X018971Y003781D03*
X019019Y003841D03*
X019031Y003853D03*
X019103Y003937D03*
X019151Y003997D03*
X019157Y004003D03*
X019163Y004009D03*
X019169Y004015D03*
X019175Y004021D03*
X019295Y004165D03*
X019307Y004177D03*
X019319Y004189D03*
X019499Y004273D03*
X019847Y005125D03*
X019889Y005287D03*
X019895Y005305D03*
X019895Y005317D03*
X019901Y005335D03*
X020039Y005281D03*
X020039Y005269D03*
X020033Y005251D03*
X020045Y005299D03*
X020051Y005305D03*
X020045Y005611D03*
X020051Y005617D03*
X020051Y005629D03*
X020219Y005749D03*
X020225Y005743D03*
X020327Y006229D03*
X020333Y006235D03*
X018503Y006973D03*
X018491Y006997D03*
X018479Y007021D03*
X018467Y007045D03*
X018455Y007069D03*
X018443Y007093D03*
X018431Y007117D03*
X018479Y006925D03*
X018461Y006919D03*
X018437Y006907D03*
X018413Y006895D03*
X018323Y007297D03*
X018299Y007333D03*
X018239Y007417D03*
X018215Y007453D03*
X018203Y007465D03*
X018167Y007513D03*
X018155Y007525D03*
X018119Y007573D03*
X018107Y007585D03*
X018083Y007621D03*
X018071Y007633D03*
X018065Y007639D03*
X018059Y007645D03*
X018041Y007669D03*
X018023Y007693D03*
X018011Y007705D03*
X018005Y007711D03*
X017999Y007717D03*
X017987Y007729D03*
X017963Y007765D03*
X017951Y007777D03*
X017945Y007783D03*
X017939Y007789D03*
X017933Y007795D03*
X017927Y007801D03*
X017915Y007813D03*
X017903Y007837D03*
X017891Y007849D03*
X017885Y007855D03*
X017879Y007861D03*
X017873Y007867D03*
X017867Y007873D03*
X017861Y007879D03*
X017855Y007885D03*
X017825Y007927D03*
X017819Y007933D03*
X017867Y006403D03*
X017813Y006319D03*
X018671Y004333D03*
D21*
X018701Y004333D03*
X018707Y004003D03*
X018971Y003787D03*
X018983Y003799D03*
X018995Y003811D03*
X019001Y003817D03*
X019019Y003835D03*
X018959Y003763D03*
X018875Y003667D03*
X018863Y003655D03*
X018857Y003649D03*
X018851Y003643D03*
X018803Y003583D03*
X018791Y003571D03*
X018785Y003565D03*
X018779Y003559D03*
X018725Y003493D03*
X018719Y003487D03*
X019115Y003955D03*
X019121Y003961D03*
X019127Y003967D03*
X019133Y003973D03*
X019139Y003979D03*
X019187Y004039D03*
X019259Y004123D03*
X019265Y004129D03*
X019271Y004135D03*
X019319Y004195D03*
X019331Y004207D03*
X019655Y004741D03*
X019655Y004747D03*
X019649Y004765D03*
X019715Y005005D03*
X019847Y005131D03*
X019847Y005143D03*
X019847Y005155D03*
X019853Y005161D03*
X019853Y005167D03*
X019853Y005173D03*
X019859Y005179D03*
X019859Y005191D03*
X019865Y005197D03*
X019895Y005311D03*
X020039Y005287D03*
X020039Y005275D03*
X020033Y005245D03*
X020021Y005161D03*
X020015Y005155D03*
X020015Y005143D03*
X020009Y005137D03*
X020009Y005131D03*
X020009Y005125D03*
X020003Y005119D03*
X020003Y005107D03*
X020003Y005095D03*
X019997Y005089D03*
X020051Y005635D03*
X020057Y005641D03*
X020051Y006151D03*
X020327Y006223D03*
X019067Y005323D03*
X018923Y005323D03*
X019001Y005581D03*
X018983Y005731D03*
X018785Y005761D03*
X018767Y005731D03*
X018785Y005581D03*
X018341Y005713D03*
X018143Y005635D03*
X018107Y005623D03*
X018101Y005437D03*
X017831Y005575D03*
X017783Y005587D03*
X018131Y005107D03*
X018821Y006025D03*
X018899Y006091D03*
X018905Y006085D03*
X018755Y006919D03*
X018635Y006955D03*
X018629Y006961D03*
X018623Y006979D03*
X018611Y007015D03*
X018587Y007075D03*
X018581Y007093D03*
X018575Y007111D03*
X018563Y007135D03*
X018563Y007147D03*
X018551Y007171D03*
X018527Y007231D03*
X018503Y007291D03*
X018479Y007351D03*
X018467Y007375D03*
X018335Y007279D03*
X018329Y007285D03*
X018323Y007291D03*
X018311Y007315D03*
X018305Y007321D03*
X018299Y007327D03*
X018287Y007351D03*
X018281Y007357D03*
X018275Y007363D03*
X018269Y007375D03*
X018263Y007387D03*
X018257Y007393D03*
X018251Y007399D03*
X018239Y007411D03*
X018227Y007435D03*
X018221Y007441D03*
X018215Y007447D03*
X018191Y007483D03*
X018185Y007489D03*
X018179Y007495D03*
X018155Y007531D03*
X018149Y007537D03*
X018143Y007543D03*
X018095Y007603D03*
X018083Y007615D03*
X018035Y007675D03*
X017975Y007747D03*
X017915Y007819D03*
X017903Y007831D03*
X017843Y007903D03*
X018191Y007831D03*
X018203Y007819D03*
X018263Y007735D03*
X018287Y007699D03*
X018335Y007627D03*
X018371Y007567D03*
X018383Y007543D03*
X018341Y007267D03*
X018347Y007255D03*
X018353Y007249D03*
X018359Y007243D03*
X018371Y007219D03*
X018377Y007213D03*
X018383Y007195D03*
X018389Y007189D03*
X018395Y007183D03*
X018401Y007165D03*
X018407Y007159D03*
X018413Y007147D03*
X018419Y007135D03*
X018425Y007129D03*
X018431Y007123D03*
X018431Y007111D03*
X018437Y007105D03*
X018443Y007099D03*
X018443Y007087D03*
X018449Y007081D03*
X018455Y007075D03*
X018455Y007063D03*
X018461Y007057D03*
X018467Y007051D03*
X018467Y007039D03*
X018473Y007033D03*
X018479Y007027D03*
X018479Y007015D03*
X018485Y007009D03*
X018491Y007003D03*
X018491Y006991D03*
X018497Y006985D03*
X018503Y006979D03*
X018503Y006967D03*
X018509Y006961D03*
X018509Y006955D03*
X018515Y006943D03*
X018521Y006937D03*
X018503Y006931D03*
X017873Y006421D03*
X017867Y006415D03*
D22*
X018719Y005893D03*
X018755Y005845D03*
X018869Y005779D03*
X018839Y005989D03*
X018899Y005533D03*
X018875Y005293D03*
X019289Y005527D03*
X019709Y005011D03*
X019859Y005215D03*
X019859Y005221D03*
X020315Y006217D03*
X018665Y004003D03*
X018665Y003655D03*
X018725Y003505D03*
X018725Y003499D03*
D23*
X018740Y003511D03*
X018770Y003547D03*
X018776Y003553D03*
X018794Y003577D03*
X018830Y003619D03*
X018848Y003637D03*
X018866Y003661D03*
X018878Y003673D03*
X018884Y003679D03*
X018980Y003793D03*
X019004Y003823D03*
X019010Y003829D03*
X019028Y003847D03*
X019106Y003943D03*
X019148Y003991D03*
X019178Y004027D03*
X019184Y004033D03*
X019256Y004117D03*
X019274Y004141D03*
X019280Y004147D03*
X019286Y004153D03*
X019298Y004171D03*
X019310Y004183D03*
X019328Y004201D03*
X019334Y004213D03*
X018704Y004171D03*
X018704Y004159D03*
X018704Y004147D03*
X018704Y004135D03*
X018704Y004123D03*
X018704Y004111D03*
X018704Y004099D03*
X018704Y004087D03*
X018710Y003955D03*
X018710Y003943D03*
X018710Y003931D03*
X018710Y003919D03*
X018710Y003907D03*
X019718Y004999D03*
X019844Y005137D03*
X019850Y005149D03*
X019856Y005185D03*
X019898Y005323D03*
X019898Y005329D03*
X020036Y005263D03*
X020036Y005257D03*
X020006Y005113D03*
X020000Y005101D03*
X019994Y005083D03*
X020048Y005623D03*
X020276Y006019D03*
X019976Y006121D03*
X018704Y005929D03*
X017870Y006409D03*
X018416Y007141D03*
X018410Y007153D03*
X018398Y007171D03*
X018398Y007177D03*
X018380Y007201D03*
X018380Y007207D03*
X018368Y007225D03*
X018344Y007261D03*
X018338Y007273D03*
X018320Y007303D03*
X018314Y007309D03*
X018290Y007345D03*
X018266Y007381D03*
X018248Y007405D03*
X018236Y007423D03*
X018230Y007429D03*
X018206Y007459D03*
X018200Y007471D03*
X018194Y007477D03*
X018176Y007501D03*
X018170Y007507D03*
X018164Y007519D03*
X018140Y007549D03*
X018134Y007555D03*
X018128Y007561D03*
X018116Y007579D03*
X018104Y007591D03*
X018098Y007597D03*
X018074Y007627D03*
X018056Y007651D03*
X018050Y007657D03*
X018044Y007663D03*
X018026Y007687D03*
X018014Y007699D03*
X017996Y007723D03*
X017984Y007735D03*
X017966Y007759D03*
X017954Y007771D03*
X017924Y007807D03*
X017906Y007825D03*
X017894Y007843D03*
X017846Y007897D03*
X017834Y007915D03*
X017828Y007921D03*
X018194Y007825D03*
X018230Y007783D03*
X018236Y007771D03*
X018254Y007747D03*
X018266Y007729D03*
X018296Y007687D03*
X018314Y007663D03*
X018314Y007657D03*
X018320Y007651D03*
X018350Y007603D03*
X018356Y007591D03*
X018386Y007537D03*
X018398Y007519D03*
X018398Y007513D03*
X018404Y007507D03*
X018410Y007495D03*
X018410Y007489D03*
X018416Y007483D03*
X018428Y007459D03*
X018434Y007447D03*
X018434Y007441D03*
X018440Y007435D03*
X018446Y007423D03*
X018446Y007417D03*
X018458Y007399D03*
X018458Y007393D03*
X018488Y007333D03*
X018488Y007327D03*
X018494Y007315D03*
X018494Y007309D03*
X018518Y007255D03*
X018518Y007249D03*
X018524Y007243D03*
X018536Y007213D03*
X018536Y007207D03*
X018560Y007153D03*
X018566Y007129D03*
X018578Y007099D03*
X018584Y007087D03*
X018590Y007069D03*
X018590Y007063D03*
X018596Y007057D03*
X018596Y007051D03*
X018608Y007021D03*
X018614Y007003D03*
X018614Y006997D03*
X018620Y006991D03*
D24*
X018602Y007033D03*
X018602Y007039D03*
X018572Y007123D03*
X018542Y007189D03*
X018542Y007195D03*
X018512Y007267D03*
X018512Y007273D03*
X018482Y007339D03*
X018422Y007465D03*
X018422Y007471D03*
X018272Y007369D03*
X018362Y007237D03*
X018362Y007231D03*
X018512Y006949D03*
X018332Y007633D03*
X018272Y007723D03*
X018182Y007843D03*
X018152Y007879D03*
X017972Y007753D03*
X018032Y007681D03*
X018092Y007609D03*
X018122Y007567D03*
X017852Y007891D03*
X019892Y005299D03*
X019892Y005293D03*
X020042Y005293D03*
X020012Y005149D03*
X019652Y004759D03*
X019652Y004753D03*
X019292Y004159D03*
X019142Y003985D03*
X019112Y003949D03*
X018992Y003805D03*
X018962Y003775D03*
X018842Y003631D03*
X018812Y003595D03*
D25*
X018710Y003625D03*
X018710Y003637D03*
X018710Y003649D03*
X018704Y004297D03*
X018704Y004309D03*
X018704Y004321D03*
X019724Y004993D03*
X019850Y005113D03*
X019850Y005119D03*
X019190Y005377D03*
X018734Y005959D03*
X018740Y005965D03*
X018764Y005983D03*
X018704Y005935D03*
X018830Y006037D03*
X018914Y006109D03*
X018950Y006145D03*
X019040Y006247D03*
X019070Y006667D03*
X019064Y006691D03*
X019034Y006739D03*
X018980Y006799D03*
X017864Y006397D03*
X017864Y006391D03*
X017840Y006355D03*
X017774Y006259D03*
X017744Y006199D03*
X017720Y006151D03*
X017714Y006139D03*
X017690Y006079D03*
X017660Y005935D03*
X017660Y005875D03*
X017660Y005863D03*
X017690Y005707D03*
X017720Y005635D03*
X017750Y005605D03*
X018164Y005647D03*
X017840Y007909D03*
D26*
X017819Y007939D03*
X017813Y007945D03*
X018149Y007897D03*
X018149Y007885D03*
X018203Y006919D03*
X018185Y006913D03*
X018275Y006919D03*
X018305Y006913D03*
X018341Y006901D03*
X018401Y006889D03*
X018425Y006901D03*
X018449Y006913D03*
X018533Y006829D03*
X018563Y006835D03*
X018575Y006835D03*
X018587Y006835D03*
X018599Y006835D03*
X018611Y006835D03*
X018629Y006829D03*
X018653Y006937D03*
X018659Y006943D03*
X018725Y006925D03*
X018731Y006931D03*
X018737Y006925D03*
X018749Y006925D03*
X018779Y006919D03*
X018815Y006907D03*
X018845Y006889D03*
X018869Y006877D03*
X018893Y006865D03*
X018929Y006841D03*
X018941Y006829D03*
X018977Y006805D03*
X018989Y006793D03*
X019001Y006781D03*
X019007Y006775D03*
X019013Y006769D03*
X019037Y006733D03*
X019043Y006727D03*
X019049Y006721D03*
X019049Y006709D03*
X019055Y006703D03*
X019061Y006697D03*
X019061Y006685D03*
X019067Y006679D03*
X019073Y006673D03*
X019073Y006661D03*
X019079Y006649D03*
X019079Y006643D03*
X019079Y006631D03*
X019085Y006625D03*
X019085Y006613D03*
X019085Y006607D03*
X019085Y006601D03*
X019085Y006589D03*
X019091Y006583D03*
X019085Y006577D03*
X019091Y006571D03*
X019085Y006565D03*
X019085Y006553D03*
X019085Y006541D03*
X019085Y006535D03*
X019085Y006529D03*
X019085Y006517D03*
X019091Y006511D03*
X019085Y006505D03*
X019073Y006337D03*
X019073Y006325D03*
X019073Y006313D03*
X019067Y006307D03*
X019067Y006295D03*
X019061Y006289D03*
X019061Y006277D03*
X019055Y006271D03*
X019049Y006265D03*
X019037Y006241D03*
X019031Y006235D03*
X019025Y006229D03*
X019013Y006217D03*
X019007Y006205D03*
X019001Y006181D03*
X018989Y006181D03*
X018965Y006157D03*
X018941Y006133D03*
X018881Y006085D03*
X018869Y006073D03*
X018845Y006049D03*
X018785Y006001D03*
X018779Y005995D03*
X018773Y005989D03*
X018725Y005953D03*
X018719Y005947D03*
X018713Y005941D03*
X018665Y005905D03*
X018659Y005899D03*
X018653Y005893D03*
X018851Y005731D03*
X018863Y005731D03*
X018875Y005731D03*
X018917Y005845D03*
X018899Y005587D03*
X018863Y005587D03*
X018887Y005539D03*
X018899Y005539D03*
X018911Y005539D03*
X018995Y005587D03*
X019007Y005587D03*
X019079Y005407D03*
X019025Y005389D03*
X019007Y005383D03*
X018953Y005377D03*
X018941Y005377D03*
X018929Y005377D03*
X018899Y005335D03*
X018869Y005341D03*
X018875Y005383D03*
X018827Y005395D03*
X018809Y005377D03*
X018815Y005371D03*
X018821Y005365D03*
X018797Y005389D03*
X018791Y005401D03*
X018785Y005413D03*
X018887Y005299D03*
X018905Y005293D03*
X018941Y005317D03*
X018947Y005323D03*
X018971Y005311D03*
X018977Y005317D03*
X018983Y005311D03*
X018989Y005317D03*
X018995Y005311D03*
X019001Y005317D03*
X019007Y005311D03*
X019013Y005317D03*
X019019Y005311D03*
X019025Y005317D03*
X019031Y005311D03*
X019031Y005299D03*
X019043Y005299D03*
X019019Y005299D03*
X019007Y005299D03*
X018995Y005299D03*
X018983Y005299D03*
X018983Y005287D03*
X018953Y005281D03*
X019019Y005263D03*
X019067Y005251D03*
X019085Y005245D03*
X019097Y005257D03*
X019115Y005251D03*
X019163Y005239D03*
X019199Y005227D03*
X019241Y005197D03*
X019253Y005209D03*
X019367Y005167D03*
X019409Y005137D03*
X019421Y005149D03*
X019427Y005131D03*
X019463Y005119D03*
X019505Y005101D03*
X019727Y004987D03*
X019847Y005107D03*
X019985Y005077D03*
X020057Y005311D03*
X019895Y005347D03*
X019955Y005527D03*
X019967Y005527D03*
X019979Y005527D03*
X019991Y005527D03*
X020003Y005527D03*
X020015Y005527D03*
X020039Y005599D03*
X020045Y005605D03*
X020075Y005587D03*
X020021Y005701D03*
X019991Y005695D03*
X019949Y005689D03*
X019931Y005683D03*
X019919Y005683D03*
X019937Y005617D03*
X019895Y005755D03*
X019931Y005767D03*
X020015Y005803D03*
X020063Y005935D03*
X020045Y006073D03*
X019997Y006121D03*
X019979Y006127D03*
X019979Y006199D03*
X019991Y006199D03*
X020003Y006199D03*
X019997Y006217D03*
X019985Y006217D03*
X019973Y006217D03*
X019979Y006247D03*
X019967Y006247D03*
X020009Y006253D03*
X020021Y006253D03*
X020039Y006223D03*
X020051Y006223D03*
X020057Y006205D03*
X020045Y006205D03*
X020033Y006205D03*
X020123Y006199D03*
X020135Y006199D03*
X020147Y006199D03*
X020147Y006211D03*
X020135Y006211D03*
X020141Y006229D03*
X020129Y006229D03*
X020177Y006217D03*
X020189Y006217D03*
X020201Y006217D03*
X020213Y006217D03*
X020213Y006205D03*
X020225Y006205D03*
X020225Y006217D03*
X020237Y006217D03*
X020249Y006205D03*
X020261Y006205D03*
X020267Y006223D03*
X020339Y006241D03*
X020219Y006307D03*
X020189Y006313D03*
X020213Y006457D03*
X020225Y006457D03*
X020255Y006547D03*
X020183Y006547D03*
X020165Y006541D03*
X020099Y006535D03*
X020087Y006535D03*
X020075Y006535D03*
X020081Y006517D03*
X020093Y006517D03*
X020069Y006517D03*
X020069Y006505D03*
X020057Y006505D03*
X020045Y006505D03*
X020027Y006511D03*
X020015Y006511D03*
X020003Y006511D03*
X020009Y006529D03*
X020021Y006529D03*
X020033Y006529D03*
X019997Y006529D03*
X019967Y006499D03*
X019955Y006499D03*
X019943Y006499D03*
X019913Y006505D03*
X019901Y006505D03*
X019901Y006493D03*
X019889Y006493D03*
X019877Y006493D03*
X019889Y006505D03*
X019895Y006523D03*
X019907Y006523D03*
X019919Y006523D03*
X019883Y006523D03*
X019841Y006517D03*
X019829Y006517D03*
X019817Y006517D03*
X019823Y006499D03*
X019835Y006499D03*
X019847Y006499D03*
X019799Y006487D03*
X019787Y006487D03*
X019775Y006487D03*
X019733Y006481D03*
X019721Y006481D03*
X019709Y006481D03*
X019709Y006493D03*
X019721Y006493D03*
X019733Y006493D03*
X019727Y006511D03*
X019715Y006511D03*
X019703Y006511D03*
X019697Y006493D03*
X019667Y006487D03*
X019655Y006487D03*
X019751Y006391D03*
X019763Y006391D03*
X019769Y006373D03*
X019781Y006373D03*
X019805Y006397D03*
X019817Y006397D03*
X019823Y006379D03*
X019835Y006379D03*
X019883Y006403D03*
X019895Y006403D03*
X019901Y006385D03*
X019913Y006385D03*
X019937Y006409D03*
X019949Y006409D03*
X019955Y006391D03*
X019967Y006391D03*
X020003Y006415D03*
X020015Y006415D03*
X020045Y006397D03*
X019901Y006241D03*
X019889Y006241D03*
X019895Y006211D03*
X019907Y006211D03*
X019913Y006193D03*
X019901Y006193D03*
X019889Y006193D03*
X019883Y006211D03*
X019853Y006205D03*
X019841Y006205D03*
X019829Y006205D03*
X019835Y006187D03*
X019847Y006187D03*
X019847Y006235D03*
X019835Y006235D03*
X019589Y005929D03*
X019559Y005923D03*
X019547Y005923D03*
X019505Y005917D03*
X019487Y005911D03*
X019457Y005905D03*
X019397Y005893D03*
X019379Y005887D03*
X019349Y005881D03*
X019331Y005875D03*
X019301Y005521D03*
X019295Y005503D03*
X019289Y005497D03*
X019283Y005479D03*
X019277Y005473D03*
X019271Y005467D03*
X019265Y005461D03*
X019265Y005449D03*
X019253Y005437D03*
X019247Y005431D03*
X019241Y005425D03*
X019235Y005419D03*
X019229Y005413D03*
X019223Y005407D03*
X019217Y005401D03*
X019211Y005395D03*
X019205Y005389D03*
X019169Y005365D03*
X019121Y005317D03*
X019103Y005311D03*
X019091Y005323D03*
X019085Y005305D03*
X019043Y005323D03*
X019193Y005497D03*
X019205Y005509D03*
X019223Y005503D03*
X019313Y005485D03*
X019325Y005485D03*
X019337Y005485D03*
X019349Y005485D03*
X019403Y005479D03*
X019421Y005473D03*
X019451Y005467D03*
X019823Y005743D03*
X020201Y005749D03*
X019277Y004921D03*
X019097Y004993D03*
X019067Y004999D03*
X019019Y005011D03*
X018875Y005047D03*
X018827Y005059D03*
X018899Y004783D03*
X018917Y004777D03*
X018947Y004771D03*
X019049Y004741D03*
X018923Y004435D03*
X018929Y004417D03*
X018941Y004417D03*
X018953Y004417D03*
X018917Y004345D03*
X018905Y004345D03*
X018893Y004345D03*
X018851Y004339D03*
X018839Y004339D03*
X018827Y004339D03*
X018815Y004339D03*
X018815Y004411D03*
X018827Y004411D03*
X018803Y004411D03*
X018791Y004411D03*
X018749Y004405D03*
X018737Y004405D03*
X018725Y004405D03*
X018821Y004477D03*
X018863Y004459D03*
X018881Y004453D03*
X019019Y004351D03*
X019031Y004351D03*
X019043Y004351D03*
X019055Y004351D03*
X019097Y004357D03*
X019109Y004357D03*
X019121Y004357D03*
X019169Y004273D03*
X019181Y004273D03*
X019193Y004273D03*
X019205Y004273D03*
X019247Y004279D03*
X019259Y004279D03*
X019271Y004279D03*
X019283Y004279D03*
X019289Y004213D03*
X019301Y004213D03*
X019313Y004213D03*
X019247Y004207D03*
X019235Y004207D03*
X019223Y004207D03*
X019133Y004201D03*
X019121Y004201D03*
X019109Y004201D03*
X019067Y004195D03*
X019055Y004195D03*
X019043Y004195D03*
X019043Y004267D03*
X019055Y004267D03*
X019067Y004267D03*
X019079Y004267D03*
X019001Y004261D03*
X018989Y004261D03*
X018977Y004261D03*
X018953Y004189D03*
X018941Y004189D03*
X018929Y004189D03*
X018887Y004183D03*
X018875Y004183D03*
X018863Y004183D03*
X018863Y004255D03*
X018875Y004255D03*
X018887Y004255D03*
X018851Y004255D03*
X018809Y004249D03*
X018797Y004249D03*
X018785Y004249D03*
X018773Y004249D03*
X018773Y004177D03*
X018761Y004177D03*
X018749Y004177D03*
X018683Y004171D03*
X018683Y004243D03*
X018671Y004243D03*
X018659Y004243D03*
X018647Y004243D03*
X018671Y004075D03*
X018683Y004075D03*
X018761Y004009D03*
X018773Y004009D03*
X018785Y004081D03*
X018797Y004081D03*
X018809Y004081D03*
X018851Y004087D03*
X018863Y004087D03*
X018875Y004087D03*
X018875Y004015D03*
X018863Y004015D03*
X018851Y004015D03*
X018917Y004021D03*
X018929Y004021D03*
X018953Y004093D03*
X018965Y004093D03*
X018977Y004093D03*
X019019Y004099D03*
X019031Y004099D03*
X019043Y004099D03*
X019073Y004033D03*
X019085Y004033D03*
X019097Y004033D03*
X019163Y004039D03*
X019217Y004045D03*
X019229Y004045D03*
X019241Y004045D03*
X019211Y004111D03*
X019199Y004111D03*
X019187Y004111D03*
X019145Y004105D03*
X019133Y004105D03*
X019121Y004105D03*
X019031Y004027D03*
X019019Y004027D03*
X019007Y004027D03*
X019025Y003925D03*
X019037Y003925D03*
X019049Y003925D03*
X019067Y003859D03*
X019079Y003859D03*
X019109Y003865D03*
X019121Y003865D03*
X019169Y003937D03*
X019001Y003853D03*
X018989Y003853D03*
X018959Y003847D03*
X018947Y003847D03*
X018881Y003841D03*
X018869Y003841D03*
X018839Y003835D03*
X018827Y003835D03*
X018761Y003829D03*
X018749Y003829D03*
X018773Y003901D03*
X018785Y003901D03*
X018815Y003907D03*
X018827Y003907D03*
X018893Y003913D03*
X018905Y003913D03*
X018917Y003913D03*
X018947Y003919D03*
X018959Y003919D03*
X019025Y003769D03*
X018989Y003697D03*
X018959Y003691D03*
X018929Y003757D03*
X018875Y003751D03*
X018833Y003745D03*
X018779Y003739D03*
X018767Y003739D03*
X018749Y003733D03*
X018737Y003733D03*
X018683Y003727D03*
X018653Y003721D03*
X018695Y003655D03*
X018779Y003667D03*
X018791Y003667D03*
X018809Y003673D03*
X018821Y003673D03*
X018683Y003895D03*
X018641Y003889D03*
X019289Y004117D03*
X019301Y004117D03*
X019313Y004117D03*
X019433Y004273D03*
X019445Y004273D03*
X019457Y004273D03*
X019469Y004273D03*
X019481Y004273D03*
X019601Y004477D03*
X018497Y005173D03*
X018503Y005227D03*
X018515Y005227D03*
X018491Y005227D03*
X018479Y005227D03*
X018467Y005227D03*
X018455Y005227D03*
X018443Y005227D03*
X018431Y005227D03*
X018419Y005227D03*
X018407Y005227D03*
X018395Y005227D03*
X018377Y005221D03*
X018383Y005251D03*
X018395Y005251D03*
X018407Y005251D03*
X018419Y005251D03*
X018431Y005251D03*
X018443Y005251D03*
X018455Y005251D03*
X018467Y005251D03*
X018371Y005251D03*
X018359Y005251D03*
X018347Y005251D03*
X018335Y005251D03*
X018347Y005167D03*
X018299Y005083D03*
X018287Y005083D03*
X018275Y005083D03*
X018317Y004993D03*
X018329Y004993D03*
X018341Y004993D03*
X018137Y005101D03*
X018125Y005101D03*
X018107Y005107D03*
X018017Y005125D03*
X017987Y005119D03*
X017975Y005119D03*
X017963Y005119D03*
X017951Y005119D03*
X017939Y005119D03*
X017873Y005185D03*
X018077Y005437D03*
X018197Y005485D03*
X018203Y005491D03*
X018221Y005497D03*
X018233Y005497D03*
X018245Y005497D03*
X018257Y005497D03*
X018269Y005497D03*
X018281Y005497D03*
X018293Y005497D03*
X018305Y005497D03*
X018317Y005497D03*
X018329Y005497D03*
X018341Y005497D03*
X018353Y005497D03*
X018335Y005707D03*
X018323Y005707D03*
X018317Y005713D03*
X018347Y005719D03*
X018383Y005719D03*
X018389Y005725D03*
X018395Y005731D03*
X018401Y005725D03*
X018413Y005737D03*
X018269Y005701D03*
X018257Y005701D03*
X018245Y005689D03*
X018221Y005677D03*
X018137Y005629D03*
X018125Y005629D03*
X018083Y005623D03*
X018065Y005617D03*
X018035Y005611D03*
X018017Y005605D03*
X017921Y005569D03*
X017915Y005575D03*
X017909Y005569D03*
X017903Y005575D03*
X017897Y005569D03*
X017891Y005575D03*
X017885Y005569D03*
X017879Y005575D03*
X017873Y005569D03*
X017867Y005575D03*
X017861Y005569D03*
X017855Y005575D03*
X017849Y005569D03*
X017813Y005581D03*
X017807Y005575D03*
X017801Y005581D03*
X017789Y005581D03*
X017759Y005599D03*
X017717Y005641D03*
X017711Y005647D03*
X017705Y005653D03*
X017705Y005665D03*
X017699Y005671D03*
X017699Y005677D03*
X017699Y005683D03*
X017693Y005689D03*
X017693Y005695D03*
X017693Y005701D03*
X017693Y005713D03*
X017687Y005719D03*
X017687Y005725D03*
X017687Y005731D03*
X017687Y005743D03*
X017681Y005749D03*
X017681Y005761D03*
X017675Y005767D03*
X017669Y005773D03*
X017669Y005785D03*
X017669Y005797D03*
X017663Y005803D03*
X017663Y005815D03*
X017663Y005821D03*
X017663Y005827D03*
X017663Y005839D03*
X017657Y005845D03*
X017663Y005851D03*
X017657Y005857D03*
X017657Y005869D03*
X017657Y005881D03*
X017657Y005887D03*
X017657Y005893D03*
X017657Y005899D03*
X017657Y005905D03*
X017657Y005911D03*
X017657Y005917D03*
X017657Y005923D03*
X017657Y005929D03*
X017657Y005941D03*
X017663Y005947D03*
X017657Y005953D03*
X017663Y005959D03*
X017663Y005965D03*
X017663Y005971D03*
X017663Y005977D03*
X017663Y005983D03*
X017669Y005989D03*
X017669Y006001D03*
X017669Y006013D03*
X017675Y006019D03*
X017675Y006025D03*
X017675Y006031D03*
X017681Y006037D03*
X017681Y006049D03*
X017687Y006055D03*
X017687Y006067D03*
X017693Y006073D03*
X017693Y006085D03*
X017699Y006091D03*
X017699Y006097D03*
X017699Y006103D03*
X017705Y006109D03*
X017705Y006121D03*
X017711Y006127D03*
X017717Y006145D03*
X017723Y006157D03*
X017723Y006163D03*
X017729Y006169D03*
X017735Y006187D03*
X017741Y006193D03*
X017747Y006211D03*
X017753Y006217D03*
X017759Y006229D03*
X017765Y006241D03*
X017771Y006247D03*
X017777Y006265D03*
X017783Y006271D03*
X017789Y006277D03*
X017795Y006289D03*
X017795Y006295D03*
X017801Y006301D03*
X017807Y006307D03*
X017813Y006313D03*
X017819Y006331D03*
X017825Y006337D03*
X017831Y006343D03*
X017837Y006349D03*
X017837Y006361D03*
X017849Y006373D03*
X017855Y006379D03*
X017861Y006385D03*
X018209Y006229D03*
X018215Y006223D03*
X018305Y006193D03*
X018377Y006193D03*
X018407Y006199D03*
X018425Y006205D03*
X018479Y006223D03*
X018779Y005587D03*
X018209Y005185D03*
X019271Y007039D03*
X019289Y007045D03*
X019325Y007057D03*
X019355Y007063D03*
X019367Y007063D03*
X019379Y007063D03*
X019391Y007063D03*
X019421Y007057D03*
X019451Y007051D03*
X019493Y007033D03*
X019505Y007033D03*
X019547Y007027D03*
X019607Y007003D03*
D27*
X019373Y007057D03*
X018581Y006829D03*
X017885Y006469D03*
X017879Y006451D03*
X018641Y005857D03*
X018791Y005815D03*
X018869Y005845D03*
X018893Y005905D03*
X018899Y006067D03*
X018863Y005719D03*
X018899Y005515D03*
X018929Y005017D03*
X018929Y005005D03*
X018923Y004999D03*
X018917Y004993D03*
X018917Y004981D03*
X018917Y004969D03*
X018911Y004963D03*
X018911Y004951D03*
X018905Y004945D03*
X018899Y004927D03*
X018899Y004915D03*
X018893Y004909D03*
X018893Y004897D03*
X018887Y004891D03*
X018887Y004879D03*
X018881Y004873D03*
X018881Y004867D03*
X018875Y004855D03*
X018875Y004843D03*
X018869Y004837D03*
X018869Y004831D03*
X018863Y004819D03*
X018695Y004843D03*
X018689Y004837D03*
X018713Y004933D03*
X018725Y004969D03*
X018275Y005215D03*
X018269Y005209D03*
X018275Y005227D03*
X018275Y005239D03*
X018275Y005251D03*
X017969Y005125D03*
X018065Y005605D03*
X019691Y005035D03*
X019697Y005041D03*
X019631Y004783D03*
X019667Y004699D03*
X019661Y004693D03*
X019655Y004675D03*
X019859Y005263D03*
X019859Y005275D03*
X020051Y005209D03*
X020051Y005203D03*
X020093Y005245D03*
X020117Y005269D03*
X020129Y005281D03*
X020135Y005287D03*
X020141Y005293D03*
X020201Y005353D03*
X020207Y005359D03*
X020213Y005377D03*
X020213Y005389D03*
X020219Y005395D03*
X020219Y005407D03*
X020219Y005419D03*
X020225Y005425D03*
X020225Y005431D03*
X020225Y005437D03*
X019799Y005515D03*
X019793Y005497D03*
X019793Y005491D03*
X019793Y005485D03*
X019787Y005479D03*
X019787Y005467D03*
X019961Y005965D03*
X019955Y006019D03*
X019955Y006031D03*
X018683Y003823D03*
X018689Y003661D03*
D28*
X018707Y003667D03*
X019619Y004807D03*
X019673Y005077D03*
X019847Y005623D03*
X020171Y005683D03*
X020177Y005677D03*
X020183Y005671D03*
X020195Y005659D03*
X020231Y005635D03*
X020237Y005629D03*
X020243Y005623D03*
X020213Y005461D03*
X019991Y005935D03*
X020195Y006007D03*
X020195Y006013D03*
X020195Y006019D03*
X020213Y006229D03*
X020309Y006313D03*
X020315Y006319D03*
X018965Y005953D03*
X018959Y005959D03*
X018887Y005887D03*
X018869Y005689D03*
X018875Y005623D03*
X018635Y005833D03*
X018335Y006199D03*
X017903Y006511D03*
X017897Y006505D03*
X018041Y005593D03*
X018263Y005287D03*
X018419Y005167D03*
X018407Y005143D03*
X018383Y005107D03*
D29*
X018407Y005263D03*
X018413Y005329D03*
X018407Y005335D03*
X018401Y005341D03*
X018395Y005347D03*
X018383Y005371D03*
X018377Y005377D03*
X018749Y005545D03*
X018779Y005515D03*
X018875Y005635D03*
X018875Y005647D03*
X018875Y005659D03*
X018635Y005827D03*
X018629Y005821D03*
X018341Y006205D03*
X017909Y006541D03*
X018587Y006823D03*
X018023Y005587D03*
X017957Y005317D03*
X017981Y005137D03*
X018899Y005275D03*
X019367Y005467D03*
X019865Y005689D03*
X020165Y005941D03*
X020171Y005947D03*
X020219Y006235D03*
X020201Y005473D03*
X019607Y004819D03*
X018725Y003673D03*
D30*
X018755Y003679D03*
X018275Y005023D03*
X018185Y005377D03*
X018275Y005467D03*
X018929Y005401D03*
X019619Y005119D03*
X020135Y005803D03*
X020189Y006073D03*
X020219Y006259D03*
X020219Y006511D03*
X018095Y006751D03*
X018089Y006745D03*
X018065Y006721D03*
X018059Y006715D03*
D31*
X018197Y006835D03*
X018203Y006841D03*
X018209Y006847D03*
X018215Y006853D03*
X018581Y006799D03*
X018629Y005683D03*
X018287Y005425D03*
X018023Y005401D03*
X018023Y005389D03*
X018293Y005077D03*
X018293Y005071D03*
X018767Y004801D03*
X018773Y004807D03*
X018761Y004783D03*
X018929Y005251D03*
X019403Y005425D03*
X019601Y005131D03*
X020033Y005755D03*
X020075Y005845D03*
X020081Y005851D03*
X020081Y005857D03*
X020087Y005869D03*
X020081Y005875D03*
X020087Y005929D03*
X020219Y006277D03*
X020207Y006505D03*
X020171Y006529D03*
X019865Y006511D03*
X019391Y004309D03*
X018779Y003685D03*
D32*
X018797Y003691D03*
X019541Y004843D03*
X019547Y004873D03*
X019409Y005407D03*
X019175Y005581D03*
X019181Y005593D03*
X019187Y005605D03*
X018953Y005239D03*
X018593Y005731D03*
X018353Y006235D03*
X018575Y006781D03*
X019403Y007021D03*
X020165Y006127D03*
X020159Y006121D03*
X019931Y005581D03*
X018005Y005203D03*
X017993Y005227D03*
X017993Y005239D03*
X017987Y005245D03*
X017993Y005251D03*
D33*
X018791Y004765D03*
X019253Y004267D03*
X019541Y004879D03*
X019535Y004885D03*
X019187Y005629D03*
X019175Y005689D03*
X019181Y005695D03*
X018575Y006769D03*
X018815Y003697D03*
D34*
X018821Y003703D03*
X018821Y003715D03*
X018971Y003901D03*
X018821Y004027D03*
X019529Y004891D03*
X019145Y005551D03*
X019145Y005563D03*
X019181Y005659D03*
X019175Y005665D03*
X019181Y005671D03*
X019139Y005737D03*
X018941Y005431D03*
X018359Y006253D03*
X020129Y006103D03*
X020135Y006109D03*
X020129Y006079D03*
D35*
X020003Y005743D03*
X019943Y005575D03*
X019547Y005167D03*
X018941Y005425D03*
X018617Y005749D03*
X018623Y005755D03*
X018011Y005287D03*
X018833Y003721D03*
X018821Y003709D03*
X019403Y007015D03*
D36*
X018353Y006241D03*
X019163Y005731D03*
X019169Y005725D03*
X019175Y005713D03*
X019175Y005707D03*
X019181Y005701D03*
X019187Y005611D03*
X019175Y005587D03*
X019409Y005401D03*
X019559Y005155D03*
X019367Y004327D03*
X019145Y004093D03*
X018851Y003727D03*
X017999Y005275D03*
X018005Y005281D03*
X020099Y005827D03*
D37*
X020084Y005881D03*
X020084Y005887D03*
X019400Y005431D03*
X018620Y005773D03*
X018290Y005065D03*
X018764Y004795D03*
X018764Y004789D03*
X019394Y004303D03*
X018884Y003733D03*
X018164Y006811D03*
D38*
X018116Y006769D03*
X018578Y006805D03*
X019202Y006421D03*
X020204Y006151D03*
X020204Y006145D03*
X020210Y006163D03*
X020210Y006169D03*
X020216Y006187D03*
X020216Y006193D03*
X018278Y005455D03*
X018278Y005449D03*
X018284Y005041D03*
X018902Y003739D03*
D39*
X018929Y003745D03*
X018731Y003835D03*
X018431Y005179D03*
X018431Y005185D03*
X018431Y005191D03*
X018431Y005197D03*
X018431Y005203D03*
X018431Y005209D03*
X018431Y005323D03*
X018179Y005143D03*
X018179Y005119D03*
X017981Y005377D03*
X018011Y005575D03*
X018659Y005623D03*
X018719Y005575D03*
X018725Y005569D03*
X018731Y005563D03*
X018629Y005809D03*
X018905Y005269D03*
X020123Y005701D03*
X020189Y005485D03*
X020195Y005479D03*
X020243Y006199D03*
X018581Y006817D03*
X018245Y006901D03*
X017939Y006583D03*
X017933Y006577D03*
D40*
X017909Y006523D03*
X017903Y006517D03*
X018683Y005593D03*
X018689Y005587D03*
X018695Y005581D03*
X018755Y005533D03*
X018761Y005527D03*
X018767Y005521D03*
X018875Y005629D03*
X018875Y005641D03*
X018869Y005683D03*
X018923Y005389D03*
X018395Y005353D03*
X018383Y005365D03*
X017981Y005131D03*
X018713Y004819D03*
X019661Y005083D03*
X020189Y005965D03*
X020189Y005971D03*
X020195Y005977D03*
X020195Y005983D03*
X020195Y005989D03*
X020141Y006307D03*
X020297Y006307D03*
X019373Y007051D03*
X018953Y003751D03*
D41*
X018980Y003757D03*
X018914Y004975D03*
X018920Y004987D03*
X018926Y005011D03*
X018758Y005065D03*
X018746Y005041D03*
X018746Y005029D03*
X018740Y005023D03*
X018740Y005017D03*
X018734Y005005D03*
X018728Y004987D03*
X018728Y004981D03*
X018716Y004951D03*
X018884Y005287D03*
X018896Y005911D03*
X018944Y006001D03*
X019838Y005671D03*
X019958Y005971D03*
X019964Y006049D03*
X019988Y006067D03*
X019994Y006073D03*
X020168Y005317D03*
X020156Y005305D03*
X020120Y005275D03*
X020108Y005263D03*
X019856Y005281D03*
D42*
X019862Y005233D03*
X019658Y004735D03*
X019658Y004729D03*
X020060Y005665D03*
X018860Y005965D03*
X018848Y005983D03*
X018710Y005905D03*
X018746Y005857D03*
X018764Y005833D03*
X019004Y003763D03*
D43*
X018695Y003829D03*
X018683Y004849D03*
X018689Y004855D03*
X018689Y004861D03*
X018689Y004867D03*
X018695Y004873D03*
X018695Y004879D03*
X018695Y004885D03*
X018701Y004891D03*
X018701Y004897D03*
X018701Y004903D03*
X018707Y004909D03*
X018707Y004915D03*
X018707Y004921D03*
X018713Y004927D03*
X018713Y004939D03*
X018719Y004945D03*
X018719Y004957D03*
X018725Y004963D03*
X018725Y004975D03*
X018731Y004993D03*
X018737Y004999D03*
X018737Y005011D03*
X018749Y005035D03*
X018749Y005047D03*
X018881Y005599D03*
X018863Y005713D03*
X018893Y005899D03*
X018971Y005965D03*
X018959Y005977D03*
X018953Y005989D03*
X018941Y006007D03*
X018935Y006013D03*
X018929Y006019D03*
X018923Y006025D03*
X018917Y006031D03*
X018911Y006037D03*
X018905Y006049D03*
X018899Y006061D03*
X018641Y005851D03*
X018275Y005257D03*
X018269Y005203D03*
X018275Y005197D03*
X019349Y005479D03*
X019685Y005047D03*
X019631Y004789D03*
X020057Y005215D03*
X020063Y005221D03*
X020093Y005251D03*
X020153Y005299D03*
X020165Y005311D03*
X020177Y005323D03*
X020183Y005329D03*
X020189Y005335D03*
X020195Y005341D03*
X020201Y005347D03*
X020225Y005443D03*
X020219Y005449D03*
X020267Y005593D03*
X019835Y005629D03*
X019835Y005641D03*
X019835Y005653D03*
X019835Y005659D03*
X019835Y005665D03*
X019835Y005677D03*
X019967Y005953D03*
X019961Y005959D03*
X019955Y006037D03*
X019961Y006043D03*
X020099Y006361D03*
X020099Y006397D03*
X020099Y006403D03*
X020099Y006409D03*
X020219Y006541D03*
X020339Y006397D03*
X020339Y006385D03*
X020339Y006373D03*
X017885Y006475D03*
D44*
X018020Y006679D03*
X018032Y006691D03*
X018038Y006697D03*
X018044Y006703D03*
X018050Y006709D03*
X018626Y005791D03*
X018656Y005647D03*
X018278Y005461D03*
X018746Y004183D03*
X018752Y003841D03*
X019904Y005701D03*
D45*
X019919Y005587D03*
X020105Y005821D03*
X020093Y005833D03*
X019991Y006379D03*
X019409Y005413D03*
X019091Y005515D03*
X018941Y005413D03*
X018593Y005725D03*
X017993Y005221D03*
X018005Y005197D03*
X018011Y005191D03*
X019373Y004321D03*
X018791Y003847D03*
D46*
X018812Y003853D03*
X018938Y005419D03*
X019412Y005395D03*
X018350Y006247D03*
D47*
X018365Y006277D03*
X018569Y006733D03*
X019415Y006991D03*
X019163Y005887D03*
X019115Y005875D03*
X019001Y005209D03*
X018101Y005161D03*
X018095Y005155D03*
X018851Y003859D03*
X019973Y005557D03*
X020003Y005707D03*
D48*
X018920Y003895D03*
X018872Y003865D03*
D49*
X018887Y003871D03*
X019025Y005185D03*
X018959Y005503D03*
X018953Y005509D03*
X019067Y005827D03*
X019061Y005833D03*
X019067Y005839D03*
X019397Y005329D03*
X018389Y006325D03*
X018383Y006319D03*
X018557Y006685D03*
X019415Y006955D03*
X019421Y006949D03*
D50*
X019421Y006943D03*
X018551Y006673D03*
X018395Y006337D03*
X019199Y005905D03*
X018893Y003883D03*
X018887Y003877D03*
D51*
X018896Y003889D03*
D52*
X018998Y003907D03*
X019364Y004333D03*
X019556Y005161D03*
X019190Y005623D03*
X018578Y006775D03*
D53*
X018251Y006889D03*
X018155Y006805D03*
X018149Y006799D03*
X018143Y006793D03*
X018131Y006781D03*
X018623Y005785D03*
X018281Y005443D03*
X018173Y005323D03*
X018023Y005425D03*
X018281Y005035D03*
X018923Y005257D03*
X019403Y004297D03*
X019043Y003913D03*
X020039Y005761D03*
X020129Y005791D03*
X020201Y006139D03*
X020213Y006175D03*
X020219Y006265D03*
X019199Y006373D03*
D54*
X019379Y007039D03*
X020159Y006223D03*
X020219Y006247D03*
X020201Y006061D03*
X019631Y005107D03*
X018911Y005263D03*
X018659Y005635D03*
X018629Y005797D03*
X018191Y005359D03*
X018191Y005353D03*
X018191Y005347D03*
X018191Y005335D03*
X018185Y005329D03*
X017963Y006619D03*
X017969Y006625D03*
X017975Y006631D03*
X017981Y006637D03*
X017993Y006649D03*
X018005Y006661D03*
X018743Y004015D03*
X019067Y003919D03*
D55*
X019115Y003925D03*
X019133Y004759D03*
X019133Y004771D03*
X019139Y004777D03*
X019145Y004795D03*
X019145Y004807D03*
X019151Y004813D03*
X019163Y004849D03*
X019169Y004867D03*
X019181Y004903D03*
X019619Y004801D03*
X019679Y005065D03*
X019673Y005071D03*
X019355Y005473D03*
X018941Y005383D03*
X018881Y005611D03*
X018869Y005707D03*
X018641Y005839D03*
X018419Y005161D03*
X018395Y005125D03*
X018371Y005089D03*
X017891Y006493D03*
X018593Y006943D03*
X019979Y005941D03*
X019853Y005683D03*
X020219Y005641D03*
X020249Y005617D03*
X020213Y005455D03*
X020321Y006439D03*
X020315Y006445D03*
D56*
X020327Y006427D03*
X020333Y006421D03*
X020333Y006415D03*
X020333Y006409D03*
X020333Y006349D03*
X020327Y006343D03*
X020327Y006337D03*
X020321Y006325D03*
X020261Y005605D03*
X020261Y005575D03*
X020063Y005227D03*
X019433Y004813D03*
X019433Y004801D03*
X019427Y004795D03*
X019427Y004789D03*
X019427Y004783D03*
X019421Y004777D03*
X019421Y004771D03*
X019421Y004765D03*
X019403Y004723D03*
X019403Y004711D03*
X019397Y004705D03*
X019397Y004693D03*
X019391Y004687D03*
X019391Y004675D03*
X019181Y004909D03*
X018893Y005281D03*
X018881Y005605D03*
X018641Y005845D03*
X018911Y006043D03*
X017891Y006487D03*
X018701Y004825D03*
X019127Y003931D03*
D57*
X019274Y004111D03*
X018698Y004009D03*
X019136Y004765D03*
X019142Y004783D03*
X019142Y004789D03*
X019148Y004801D03*
X019154Y004819D03*
X019154Y004825D03*
X019160Y004837D03*
X019166Y004855D03*
X019166Y004861D03*
X019172Y004873D03*
X019172Y004879D03*
X019172Y004885D03*
X019178Y004891D03*
X019178Y004897D03*
X019184Y004915D03*
X019184Y004921D03*
X019190Y004927D03*
X019190Y004933D03*
X019430Y004807D03*
X019400Y004699D03*
X019394Y004681D03*
X019388Y004663D03*
X019382Y004651D03*
X020072Y005239D03*
X020198Y005653D03*
X020324Y006331D03*
X020324Y006433D03*
X018272Y005191D03*
X018212Y005107D03*
X018212Y005101D03*
X018212Y005089D03*
X018050Y005599D03*
D58*
X018290Y005419D03*
X018290Y005413D03*
X018254Y006877D03*
X020084Y005863D03*
X020108Y005779D03*
X018776Y004021D03*
D59*
X018851Y004033D03*
X019097Y004087D03*
X018875Y004357D03*
X018827Y004741D03*
X019499Y004921D03*
X019505Y004915D03*
X018947Y005461D03*
X019175Y005893D03*
X019535Y006373D03*
X019415Y006985D03*
X018569Y006727D03*
X018365Y006283D03*
X018101Y005167D03*
D60*
X019391Y005323D03*
X019445Y005233D03*
X019151Y004255D03*
X018899Y004039D03*
X018401Y006349D03*
X018545Y006661D03*
X018551Y006667D03*
X019421Y006937D03*
D61*
X019427Y006889D03*
X019427Y006877D03*
X019385Y006511D03*
X019379Y006505D03*
X018527Y006589D03*
X018527Y006595D03*
X018437Y006415D03*
X018431Y006409D03*
X019055Y005161D03*
X019409Y005251D03*
X018893Y004723D03*
X018887Y004705D03*
X018881Y004699D03*
X018887Y004693D03*
X018923Y004045D03*
D62*
X018953Y004051D03*
X019247Y004435D03*
X018911Y004675D03*
X019079Y005143D03*
X019343Y005011D03*
X019421Y006637D03*
X019421Y006643D03*
X019421Y006649D03*
X019427Y006655D03*
X019427Y006667D03*
X019427Y006673D03*
X019427Y006679D03*
X019427Y006685D03*
X019427Y006691D03*
X019427Y006703D03*
X019433Y006709D03*
X019427Y006715D03*
X019433Y006721D03*
X019427Y006727D03*
X019433Y006733D03*
X019427Y006739D03*
X019433Y006745D03*
D63*
X019082Y005137D03*
X018956Y004057D03*
D64*
X018959Y004063D03*
X018959Y004069D03*
X018959Y004213D03*
X019175Y005917D03*
D65*
X019349Y005953D03*
X019403Y006559D03*
X019403Y006571D03*
X019409Y006577D03*
X019409Y006589D03*
X019427Y006823D03*
X019427Y006829D03*
X019427Y006835D03*
X019427Y006847D03*
X018503Y006535D03*
X018491Y006511D03*
X018479Y006487D03*
X019073Y005149D03*
X019361Y005005D03*
X019379Y005263D03*
X019253Y004429D03*
X018995Y004075D03*
D66*
X019055Y004081D03*
X019463Y005221D03*
X018953Y005491D03*
X019193Y005899D03*
X019559Y006229D03*
X018383Y006313D03*
D67*
X018353Y006229D03*
X018581Y006793D03*
X018239Y006871D03*
X018233Y006865D03*
X018227Y006859D03*
X018293Y005407D03*
X018293Y005401D03*
X018185Y005305D03*
X018365Y005269D03*
X018941Y005245D03*
X018935Y005407D03*
X019589Y005137D03*
X019913Y005593D03*
X020159Y005527D03*
X020111Y005815D03*
X020219Y006283D03*
X019187Y004099D03*
D68*
X019238Y004105D03*
X019646Y005101D03*
X020210Y006031D03*
X018434Y005317D03*
X018434Y005311D03*
X018434Y005305D03*
X018176Y005131D03*
X017984Y005143D03*
X017996Y005491D03*
D69*
X018188Y005659D03*
X017732Y005617D03*
X017726Y005623D03*
X017708Y005659D03*
X017678Y005755D03*
X017672Y005779D03*
X017666Y005791D03*
X017666Y005995D03*
X017672Y006007D03*
X017678Y006043D03*
X017702Y006115D03*
X017732Y006175D03*
X017756Y006223D03*
X017762Y006235D03*
X017792Y006283D03*
X017846Y006367D03*
X018758Y005977D03*
X018836Y006043D03*
X018926Y006121D03*
X018932Y006127D03*
X018956Y006151D03*
X018968Y006163D03*
X018998Y006193D03*
X019022Y006223D03*
X019046Y006259D03*
X019058Y006283D03*
X019088Y006523D03*
X019088Y006547D03*
X019088Y006559D03*
X019088Y006595D03*
X019082Y006619D03*
X019076Y006655D03*
X019028Y006745D03*
X019022Y006757D03*
X018992Y006787D03*
X018962Y006817D03*
X018782Y005785D03*
X018788Y005773D03*
X018788Y005407D03*
X018806Y005383D03*
X018842Y005353D03*
X019196Y005383D03*
X019256Y005443D03*
X019268Y005455D03*
X019286Y005491D03*
X019298Y005515D03*
X019898Y005341D03*
X019502Y004267D03*
X019328Y004117D03*
X017978Y007741D03*
D70*
X018296Y007339D03*
X018788Y005791D03*
X019286Y005533D03*
X019862Y005209D03*
X019862Y005203D03*
X018656Y004171D03*
X018092Y005617D03*
D71*
X018269Y005185D03*
X018209Y005113D03*
X018215Y005095D03*
X018215Y005083D03*
X018689Y004177D03*
X019379Y004639D03*
X019385Y004645D03*
X019385Y004657D03*
X019409Y004729D03*
X019409Y004735D03*
X019409Y004741D03*
X019415Y004747D03*
X019415Y004753D03*
X019415Y004759D03*
X019439Y004819D03*
X019439Y004831D03*
X019625Y004795D03*
X019685Y005053D03*
X019679Y005059D03*
X020069Y005233D03*
X020255Y005563D03*
X020339Y006379D03*
X020339Y006391D03*
X018959Y005971D03*
X018899Y006055D03*
X018245Y006913D03*
D72*
X018299Y005389D03*
X018365Y005275D03*
X019109Y005527D03*
X019115Y005545D03*
X020099Y005773D03*
X020219Y006289D03*
X020219Y006301D03*
X019385Y004315D03*
X018779Y004189D03*
D73*
X018833Y004195D03*
X019211Y004261D03*
X019331Y004357D03*
X019511Y004909D03*
X020003Y005713D03*
X019997Y005719D03*
D74*
X019079Y005815D03*
X019415Y006967D03*
X018869Y004201D03*
D75*
X018923Y004207D03*
X019433Y004945D03*
X019433Y004951D03*
X019433Y004957D03*
X019403Y004987D03*
X019397Y005257D03*
X019337Y005941D03*
X019391Y006523D03*
X019427Y006871D03*
X018521Y006577D03*
X018443Y006427D03*
D76*
X019373Y006025D03*
X019433Y006205D03*
X019433Y006211D03*
X019433Y006217D03*
X019433Y006223D03*
X019451Y006499D03*
X019685Y006421D03*
X019259Y005041D03*
X019001Y004225D03*
X018995Y004219D03*
D77*
X019004Y004231D03*
X018950Y004639D03*
X019124Y005101D03*
D78*
X019121Y005107D03*
X019235Y005053D03*
X019265Y005035D03*
X019007Y004237D03*
X019373Y006031D03*
D79*
X019106Y005119D03*
X019220Y004459D03*
X019040Y004243D03*
D80*
X019106Y004249D03*
X019436Y004963D03*
X019394Y004993D03*
X019382Y006517D03*
X019388Y006529D03*
X019424Y006883D03*
X018524Y006583D03*
X018440Y006421D03*
D81*
X018581Y006811D03*
X018005Y006667D03*
X018659Y005641D03*
X018941Y005395D03*
X019391Y005449D03*
X019883Y005605D03*
X020177Y005503D03*
X020135Y005797D03*
X020021Y006211D03*
X020219Y006253D03*
X019955Y006517D03*
X019775Y006505D03*
X018185Y005371D03*
X018275Y005017D03*
X018275Y005011D03*
X019319Y004273D03*
X019409Y004291D03*
D82*
X019403Y004279D03*
X018773Y004345D03*
X018281Y005029D03*
X018653Y005653D03*
X019391Y005443D03*
X020177Y005509D03*
X020213Y006181D03*
X020033Y006385D03*
X019193Y006313D03*
X019193Y006301D03*
X019373Y007033D03*
X018251Y006895D03*
X018101Y006757D03*
X018083Y006739D03*
X018077Y006733D03*
X018071Y006727D03*
D83*
X017951Y006601D03*
X017945Y006595D03*
X018629Y005803D03*
X018659Y005629D03*
X018425Y005299D03*
X018425Y005293D03*
X018425Y005287D03*
X018281Y005479D03*
X018947Y005929D03*
X018941Y005947D03*
X019385Y005455D03*
X019853Y005527D03*
X019877Y005611D03*
X019889Y005695D03*
X020129Y005695D03*
X020129Y005689D03*
X020201Y006055D03*
X020201Y006535D03*
X019595Y004837D03*
X019415Y004285D03*
D84*
X018734Y004339D03*
X018416Y005173D03*
X018404Y005257D03*
X018680Y005599D03*
X018674Y005605D03*
X019658Y005089D03*
X019856Y005617D03*
X020204Y005467D03*
X020180Y005953D03*
X020186Y005959D03*
X017906Y006529D03*
D85*
X018572Y006757D03*
X018572Y006763D03*
X019184Y005647D03*
X019538Y005173D03*
X019952Y005569D03*
X020132Y006115D03*
X019352Y004339D03*
D86*
X019349Y004345D03*
X018803Y004759D03*
X018941Y005437D03*
X019181Y005653D03*
X019133Y005743D03*
X019133Y005749D03*
X019127Y005755D03*
X019121Y005761D03*
X019121Y005767D03*
X019121Y005773D03*
X019127Y005779D03*
X019121Y005785D03*
X019415Y005383D03*
X019997Y005737D03*
X020159Y006499D03*
X019409Y007009D03*
X018611Y005743D03*
X018605Y005737D03*
D87*
X019142Y005557D03*
X019148Y005569D03*
X019154Y005575D03*
X019184Y005635D03*
X019178Y005677D03*
X020132Y006091D03*
X020132Y006097D03*
X018836Y004351D03*
D88*
X019343Y004351D03*
X019517Y005185D03*
X019409Y005365D03*
X019109Y005797D03*
X019115Y005851D03*
X019109Y005869D03*
X019997Y005725D03*
X019967Y005563D03*
X018569Y006745D03*
X019409Y006997D03*
D89*
X019100Y004369D03*
X019100Y004363D03*
D90*
X019097Y004375D03*
X019103Y004381D03*
X019103Y004393D03*
X019133Y004519D03*
X019517Y006247D03*
D91*
X019103Y004399D03*
X019103Y004387D03*
D92*
X019154Y004405D03*
D93*
X019193Y004411D03*
X019211Y004465D03*
X019115Y005113D03*
X019373Y006019D03*
X019439Y006397D03*
D94*
X019391Y006493D03*
X019403Y006565D03*
X018509Y006547D03*
X018503Y006541D03*
X018503Y006529D03*
X018473Y006475D03*
X018461Y006451D03*
X018893Y004687D03*
X019259Y004417D03*
D95*
X019256Y004423D03*
X019376Y004999D03*
X019400Y006553D03*
X018500Y006523D03*
X018494Y006517D03*
X018488Y006505D03*
X018488Y006499D03*
X018482Y006493D03*
X018476Y006481D03*
X018464Y006463D03*
D96*
X019358Y005971D03*
X019238Y004441D03*
D97*
X019232Y004447D03*
D98*
X019229Y004453D03*
X018929Y004657D03*
X019097Y005125D03*
X019331Y005287D03*
D99*
X019265Y005029D03*
X019211Y004471D03*
X019235Y005935D03*
X019373Y006049D03*
X019379Y006043D03*
D100*
X019373Y006055D03*
X019217Y005059D03*
X019211Y004477D03*
D101*
X019211Y004483D03*
X019157Y005077D03*
X019151Y005083D03*
D102*
X019208Y004489D03*
D103*
X019202Y004495D03*
X019022Y004585D03*
X018998Y004615D03*
X018998Y004621D03*
D104*
X019079Y004555D03*
X019115Y004531D03*
X019193Y004501D03*
X019745Y006313D03*
D105*
X019163Y004507D03*
D106*
X019160Y004513D03*
D107*
X019607Y004519D03*
X020207Y005755D03*
X018767Y005827D03*
X018737Y005869D03*
X018287Y005707D03*
D108*
X019058Y004567D03*
X019124Y004525D03*
D109*
X019610Y004525D03*
X019610Y004531D03*
X019616Y004549D03*
X019616Y004555D03*
X019622Y004567D03*
X019622Y004573D03*
X019628Y004585D03*
X019628Y004591D03*
X019640Y004621D03*
X019658Y004723D03*
X019640Y004777D03*
X020030Y005179D03*
X019844Y005287D03*
X019838Y005305D03*
X019832Y005317D03*
X019826Y005335D03*
X019826Y005341D03*
X019820Y005347D03*
X019820Y005353D03*
X019814Y005365D03*
X019814Y005371D03*
X019808Y005383D03*
X019802Y005401D03*
X019802Y005407D03*
X019796Y005413D03*
X019796Y005419D03*
X019790Y005437D03*
X019784Y005443D03*
X020066Y005677D03*
X019964Y005995D03*
X020306Y006211D03*
X018866Y005869D03*
X018866Y005863D03*
X018866Y005857D03*
X018866Y005791D03*
D110*
X019001Y004627D03*
X018995Y004609D03*
X018995Y004603D03*
X019007Y004597D03*
X019013Y004591D03*
X019037Y004579D03*
X019043Y004573D03*
X019067Y004561D03*
X019091Y004549D03*
X019097Y004543D03*
X019103Y004537D03*
D111*
X019613Y004537D03*
X019661Y004717D03*
X019643Y004771D03*
X019709Y005017D03*
X019703Y005023D03*
X019859Y005227D03*
X019859Y005239D03*
X019841Y005293D03*
X019835Y005311D03*
X019829Y005329D03*
X019805Y005389D03*
X019793Y005425D03*
X020033Y005185D03*
X020063Y005659D03*
X020063Y005671D03*
X019961Y005989D03*
X019961Y006001D03*
X019961Y006013D03*
X020051Y006139D03*
X020219Y006547D03*
X019289Y005545D03*
X018899Y005527D03*
X018881Y005593D03*
X018869Y005725D03*
X018869Y005785D03*
X018773Y005821D03*
X018761Y005839D03*
X018755Y005851D03*
X018743Y005863D03*
X018731Y005875D03*
X018725Y005881D03*
X018719Y005887D03*
X018713Y005899D03*
X018701Y005917D03*
X018641Y005869D03*
X018821Y006013D03*
X018833Y006001D03*
X018839Y005995D03*
X018851Y005971D03*
X018863Y005959D03*
X018869Y005953D03*
X018929Y005881D03*
X018905Y006073D03*
X018899Y006079D03*
X018341Y006193D03*
X017879Y006439D03*
X017873Y006433D03*
X018239Y006919D03*
X018125Y005113D03*
D112*
X018275Y005233D03*
X018077Y005611D03*
X018641Y005863D03*
X018701Y005911D03*
X018821Y006007D03*
X018863Y005881D03*
X018869Y005851D03*
X018863Y005797D03*
X018899Y005521D03*
X018875Y004849D03*
X018863Y004813D03*
X019631Y004609D03*
X019637Y004615D03*
X019631Y004597D03*
X019625Y004579D03*
X019619Y004561D03*
X019613Y004543D03*
X019643Y004633D03*
X019643Y004645D03*
X019649Y004651D03*
X019655Y004669D03*
X019661Y004711D03*
X019703Y005029D03*
X019859Y005245D03*
X019859Y005251D03*
X019859Y005257D03*
X019859Y005269D03*
X019841Y005299D03*
X019829Y005323D03*
X019817Y005359D03*
X019811Y005377D03*
X019805Y005395D03*
X019793Y005431D03*
X019787Y005449D03*
X019787Y005461D03*
X019787Y005473D03*
X020069Y005683D03*
X019967Y005977D03*
X019961Y005983D03*
X019961Y006007D03*
X019979Y006061D03*
X020303Y006205D03*
X020039Y005197D03*
X020039Y005191D03*
X017879Y006445D03*
D113*
X018860Y005875D03*
X019784Y005455D03*
X020210Y005371D03*
X020210Y005365D03*
X019664Y004705D03*
X019640Y004627D03*
X019634Y004603D03*
X018884Y004885D03*
X018890Y004903D03*
D114*
X019001Y004633D03*
X019163Y005071D03*
X019457Y006193D03*
X019505Y006409D03*
D115*
X020198Y005761D03*
X020222Y005413D03*
X020216Y005401D03*
X020216Y005383D03*
X019802Y005521D03*
X019796Y005509D03*
X019796Y005503D03*
X019658Y004687D03*
X019658Y004681D03*
X019652Y004663D03*
X019652Y004657D03*
X019646Y004639D03*
X018878Y004861D03*
X018866Y004825D03*
X018896Y004921D03*
X018902Y004933D03*
X018908Y004957D03*
X018272Y005221D03*
X018272Y005245D03*
X017882Y006457D03*
D116*
X018938Y004645D03*
D117*
X018935Y004651D03*
D118*
X018917Y004663D03*
X019313Y005023D03*
X019343Y005281D03*
X019361Y005983D03*
D119*
X019331Y005017D03*
X018911Y004669D03*
D120*
X019388Y004669D03*
X019406Y004717D03*
X019436Y004825D03*
X019442Y004837D03*
X020252Y005557D03*
X020258Y005569D03*
X020264Y005581D03*
X020264Y005587D03*
X020264Y005599D03*
X019832Y005635D03*
X019832Y005647D03*
X019970Y005947D03*
X019964Y006055D03*
X020102Y006415D03*
X020102Y006421D03*
X020336Y006403D03*
X020336Y006367D03*
X020336Y006361D03*
X020336Y006355D03*
X018956Y005983D03*
X018950Y005995D03*
X018278Y005263D03*
X017888Y006481D03*
D121*
X019358Y005299D03*
X018902Y004681D03*
X020048Y006481D03*
D122*
X019424Y006895D03*
X018530Y006607D03*
X018530Y006601D03*
X018428Y006403D03*
X019376Y005305D03*
X019430Y004969D03*
X018896Y004735D03*
X018896Y004729D03*
X018890Y004711D03*
D123*
X018893Y004717D03*
X019421Y004981D03*
X019427Y004975D03*
X018167Y005383D03*
X018419Y006379D03*
X018425Y006397D03*
X018533Y006613D03*
X019367Y006487D03*
X019373Y006481D03*
D124*
X018887Y005893D03*
X019157Y004843D03*
X019157Y004831D03*
X019127Y004753D03*
X019127Y004747D03*
X019127Y004741D03*
X017897Y006499D03*
D125*
X018947Y005455D03*
X018827Y004747D03*
D126*
X018815Y004753D03*
X018983Y005221D03*
X019529Y005179D03*
X019997Y005731D03*
X020117Y006523D03*
X019409Y007003D03*
X018569Y006751D03*
X018359Y006265D03*
X019115Y005845D03*
X019151Y005881D03*
X019121Y005791D03*
D127*
X018782Y004771D03*
X017996Y005263D03*
X017996Y005269D03*
D128*
X018023Y005185D03*
X018593Y005719D03*
X019103Y005521D03*
X018767Y004777D03*
X020027Y005749D03*
X020171Y006133D03*
X019397Y007027D03*
D129*
X017918Y006553D03*
X017918Y006547D03*
X018020Y005581D03*
X018008Y005533D03*
X017990Y005461D03*
X017966Y005365D03*
X017960Y005335D03*
X017960Y005329D03*
X017954Y005305D03*
X018290Y005491D03*
X018662Y005617D03*
X018722Y004813D03*
D130*
X018452Y005221D03*
X018866Y005695D03*
X019616Y004813D03*
X020198Y005995D03*
X020198Y006001D03*
X020306Y006451D03*
D131*
X020057Y006391D03*
X020087Y006217D03*
X019943Y006205D03*
X020207Y006037D03*
X020207Y006025D03*
X020153Y005935D03*
X019607Y004825D03*
X018743Y005551D03*
X018743Y005557D03*
X018437Y005215D03*
X018287Y005485D03*
X018017Y005563D03*
X018011Y005557D03*
X018011Y005551D03*
X018011Y005545D03*
X018011Y005569D03*
X017993Y005479D03*
X017993Y005473D03*
X017993Y005467D03*
X017993Y005455D03*
X017987Y005449D03*
X017987Y005443D03*
X017987Y005437D03*
X017963Y005353D03*
X017963Y005347D03*
X017963Y005341D03*
X017957Y005323D03*
X017957Y005311D03*
X017921Y006559D03*
X017927Y006565D03*
D132*
X017882Y006463D03*
X018752Y005059D03*
X018752Y005053D03*
X018932Y005023D03*
X018902Y004939D03*
X018692Y004831D03*
X020102Y005257D03*
X019952Y006025D03*
D133*
X020204Y006049D03*
X018944Y005941D03*
X018182Y005149D03*
X017984Y005149D03*
X017942Y006589D03*
X019598Y004831D03*
D134*
X019544Y004849D03*
X019544Y004855D03*
X019544Y004861D03*
X019550Y004867D03*
X018368Y005281D03*
X018002Y005209D03*
X017996Y005215D03*
X017990Y005233D03*
X018578Y006787D03*
D135*
X019520Y004897D03*
D136*
X019514Y004903D03*
X019412Y005371D03*
X018944Y005443D03*
X018944Y005449D03*
X019112Y005863D03*
D137*
X019073Y005821D03*
X018953Y005497D03*
X018953Y005485D03*
X019487Y004927D03*
X018377Y006301D03*
X018557Y006697D03*
X018563Y006703D03*
D138*
X018380Y006307D03*
X019418Y006961D03*
X019472Y005215D03*
X019484Y004933D03*
D139*
X019430Y004939D03*
X019064Y005155D03*
X019340Y005947D03*
X019394Y006535D03*
X019394Y006541D03*
X019424Y006865D03*
X018518Y006571D03*
X018518Y006565D03*
X018512Y006559D03*
X018512Y006553D03*
X018464Y006457D03*
X018458Y006445D03*
X018452Y006439D03*
D140*
X018272Y005005D03*
X018272Y004999D03*
D141*
X018284Y005047D03*
X018284Y005437D03*
X018644Y005659D03*
X018644Y005665D03*
X019400Y005437D03*
X019898Y005599D03*
X020168Y005515D03*
X020084Y005905D03*
X018122Y006775D03*
D142*
X019250Y005047D03*
D143*
X019607Y005125D03*
X020087Y005917D03*
X020207Y006157D03*
X018347Y006217D03*
X018107Y006763D03*
X018137Y006787D03*
X018017Y005431D03*
X018167Y005317D03*
X018287Y005053D03*
D144*
X018287Y005059D03*
X018167Y005311D03*
X018287Y005431D03*
X018023Y005419D03*
X018611Y005695D03*
X018617Y005689D03*
X018629Y005677D03*
X018635Y005671D03*
X018623Y005779D03*
X018347Y006223D03*
X018173Y006817D03*
X018185Y006829D03*
X019193Y006229D03*
X020087Y005923D03*
X020087Y005911D03*
X020087Y005899D03*
X020081Y005893D03*
X020129Y005809D03*
X020117Y005785D03*
X020165Y005521D03*
X020219Y006271D03*
D145*
X019379Y006067D03*
X019373Y006073D03*
X019205Y005065D03*
D146*
X018878Y005617D03*
X018866Y005701D03*
X018416Y005155D03*
X018410Y005149D03*
X018404Y005137D03*
X018398Y005131D03*
X018392Y005119D03*
X018386Y005113D03*
X018380Y005101D03*
X018374Y005095D03*
X018368Y005083D03*
X020186Y005665D03*
X020210Y005647D03*
X020252Y005611D03*
D147*
X019379Y006085D03*
X019373Y006079D03*
X019379Y006097D03*
X019403Y006181D03*
X019139Y005089D03*
D148*
X019136Y005095D03*
D149*
X019379Y005461D03*
X019649Y005095D03*
X018665Y005611D03*
X018629Y005815D03*
X018005Y005539D03*
X018005Y005527D03*
X018005Y005521D03*
X018005Y005515D03*
X017999Y005509D03*
X017999Y005503D03*
X017999Y005497D03*
X017999Y005485D03*
X017969Y005371D03*
X017969Y005359D03*
X018179Y005137D03*
X018179Y005125D03*
X018245Y006907D03*
X019379Y007045D03*
X020219Y006241D03*
D150*
X020198Y006067D03*
X020180Y005497D03*
X019628Y005113D03*
X018344Y006211D03*
X017984Y006643D03*
X017996Y006655D03*
X018014Y006673D03*
X018026Y006685D03*
X018278Y005473D03*
X018188Y005365D03*
D151*
X019091Y005131D03*
X019355Y005275D03*
X019361Y005977D03*
X019409Y006385D03*
D152*
X018614Y005761D03*
X019406Y005419D03*
X019580Y005143D03*
X020222Y006295D03*
D153*
X020087Y005767D03*
X019577Y005149D03*
D154*
X019415Y005245D03*
X019385Y005311D03*
X019049Y005167D03*
X019037Y005803D03*
X019031Y005809D03*
X018419Y006385D03*
X018539Y006625D03*
X020081Y006487D03*
D155*
X020051Y006145D03*
X020063Y005653D03*
X020057Y005647D03*
X020027Y005173D03*
X020021Y005167D03*
X018791Y005797D03*
X018701Y005923D03*
X018641Y005875D03*
X018821Y006019D03*
X018851Y005977D03*
X018701Y006931D03*
X017873Y006427D03*
D156*
X018368Y006289D03*
X018566Y006721D03*
X020126Y006493D03*
X019406Y005353D03*
X018098Y005173D03*
D157*
X019040Y005173D03*
X018404Y006355D03*
X018410Y006361D03*
X018542Y006637D03*
X019424Y006925D03*
D158*
X019415Y006979D03*
X018563Y006715D03*
X018947Y005467D03*
X019007Y005203D03*
X019487Y005203D03*
X018101Y005179D03*
D159*
X019037Y005179D03*
X019391Y005317D03*
X019433Y005239D03*
X020027Y005533D03*
X019421Y006931D03*
D160*
X019400Y005335D03*
X019022Y005191D03*
D161*
X019508Y005191D03*
D162*
X019484Y005209D03*
X019406Y005347D03*
X019010Y005197D03*
X018950Y005473D03*
D163*
X019406Y005359D03*
X019502Y005197D03*
D164*
X018989Y005215D03*
X018365Y006271D03*
X018569Y006739D03*
D165*
X019187Y005641D03*
X018977Y005227D03*
X019967Y006373D03*
D166*
X019454Y005227D03*
X018554Y006679D03*
D167*
X019172Y005719D03*
X018962Y005233D03*
D168*
X019184Y005599D03*
X019190Y005617D03*
X017990Y005257D03*
D169*
X019367Y005269D03*
X019349Y005959D03*
X019409Y006583D03*
X019409Y006595D03*
X019415Y006601D03*
X019415Y006613D03*
X019427Y006793D03*
X019433Y006799D03*
X019427Y006805D03*
D170*
X019415Y006973D03*
X018563Y006709D03*
X018377Y006295D03*
X018953Y005479D03*
X019403Y005341D03*
X018101Y005299D03*
X018095Y005293D03*
D171*
X019319Y005293D03*
X019193Y005923D03*
X019367Y006001D03*
D172*
X020186Y005491D03*
X020216Y006517D03*
X018188Y005341D03*
D173*
X018392Y005359D03*
X018752Y005539D03*
X018872Y005653D03*
X018872Y005665D03*
X018872Y005671D03*
X018872Y005677D03*
X017912Y006535D03*
D174*
X018356Y006259D03*
X019412Y005377D03*
D175*
X019409Y005389D03*
X019139Y005539D03*
X019175Y005683D03*
X020129Y006085D03*
D176*
X019424Y006913D03*
X019424Y006919D03*
X018536Y006631D03*
X018416Y006373D03*
X018410Y006367D03*
X018164Y005395D03*
D177*
X018026Y005407D03*
X018026Y005413D03*
X018608Y005701D03*
X018176Y006823D03*
D178*
X018260Y006883D03*
X018614Y005767D03*
X018602Y005713D03*
X019112Y005533D03*
X020084Y005839D03*
D179*
X020027Y005539D03*
D180*
X020033Y005545D03*
X020033Y005551D03*
X019313Y005929D03*
X019211Y005911D03*
X018539Y006643D03*
D181*
X018602Y005707D03*
D182*
X019112Y005857D03*
D183*
X019352Y005965D03*
X019412Y006607D03*
D184*
X019364Y005989D03*
D185*
X019364Y005995D03*
D186*
X019367Y006007D03*
X019373Y006013D03*
D187*
X019376Y006037D03*
D188*
X020207Y006043D03*
X017927Y006571D03*
D189*
X019379Y006061D03*
D190*
X019379Y006091D03*
X019379Y006103D03*
D191*
X019382Y006109D03*
X019478Y006403D03*
D192*
X019382Y006133D03*
X019382Y006127D03*
X019382Y006121D03*
X019382Y006115D03*
D193*
X019385Y006139D03*
X019385Y006145D03*
X019385Y006151D03*
X019385Y006163D03*
X019421Y006187D03*
X019475Y006241D03*
D194*
X019382Y006157D03*
D195*
X019385Y006169D03*
X019385Y006175D03*
D196*
X019511Y006199D03*
D197*
X019448Y006235D03*
X019688Y006301D03*
D198*
X019535Y006253D03*
D199*
X019559Y006259D03*
X019565Y006361D03*
D200*
X019562Y006265D03*
D201*
X019565Y006271D03*
X019571Y006289D03*
D202*
X019568Y006277D03*
D203*
X019571Y006283D03*
X019571Y006295D03*
X019571Y006307D03*
D204*
X019622Y006319D03*
D205*
X019625Y006325D03*
D206*
X018392Y006331D03*
D207*
X019616Y006331D03*
D208*
X019619Y006337D03*
X019613Y006343D03*
X019613Y006355D03*
X019625Y006427D03*
D209*
X018398Y006343D03*
D210*
X019610Y006349D03*
X019610Y006367D03*
X019622Y006433D03*
D211*
X019412Y006391D03*
X019412Y006379D03*
D212*
X018422Y006391D03*
D213*
X019541Y006415D03*
D214*
X018449Y006433D03*
D215*
X019628Y006439D03*
X019628Y006445D03*
D216*
X019637Y006451D03*
D217*
X019646Y006457D03*
D218*
X020300Y006457D03*
D219*
X019727Y006463D03*
D220*
X019397Y006547D03*
X019427Y006841D03*
X019427Y006853D03*
X019427Y006859D03*
X018467Y006469D03*
D221*
X019727Y006469D03*
D222*
X019724Y006475D03*
D223*
X017960Y006613D03*
X017954Y006607D03*
D224*
X018536Y006619D03*
D225*
X019418Y006619D03*
X019418Y006625D03*
X019418Y006631D03*
X019424Y006661D03*
X019430Y006697D03*
X019430Y006751D03*
X019430Y006757D03*
X019430Y006763D03*
X019430Y006769D03*
X019430Y006775D03*
X019430Y006781D03*
X019430Y006787D03*
D226*
X018545Y006655D03*
X018545Y006649D03*
D227*
X018557Y006691D03*
D228*
X019430Y006811D03*
X019430Y006817D03*
D229*
X019424Y006901D03*
X019424Y006907D03*
M02*
