G04 EAGLE Gerber RS-274X export*
G75*
%MOMM*%
%FSLAX34Y34*%
%LPD*%
%INBottom Copper*%
%IPPOS*%
%AMOC8*
5,1,8,0,0,1.08239X$1,22.5*%
G01*
%ADD10C,4.800000*%
%ADD11C,1.308000*%
%ADD12C,1.524000*%
%ADD13C,2.625000*%
%ADD14R,1.000000X1.100000*%
%ADD15C,1.208000*%
%ADD16C,1.208000*%
%ADD17R,1.524000X1.524000*%
%ADD18C,0.806400*%
%ADD19C,0.304800*%
%ADD20C,0.787400*%
%ADD21C,0.508000*%
%ADD22C,0.635000*%
%ADD23C,0.152400*%

G36*
X467365Y-80516D02*
X467365Y-80516D01*
X467370Y-80517D01*
X467463Y-80496D01*
X467557Y-80478D01*
X467561Y-80475D01*
X467566Y-80474D01*
X467644Y-80418D01*
X467722Y-80365D01*
X467725Y-80361D01*
X467729Y-80358D01*
X467780Y-80276D01*
X467832Y-80197D01*
X467832Y-80192D01*
X467835Y-80187D01*
X467867Y-80010D01*
X467867Y711200D01*
X467866Y711205D01*
X467867Y711210D01*
X467846Y711303D01*
X467828Y711397D01*
X467825Y711401D01*
X467824Y711406D01*
X467768Y711484D01*
X467715Y711562D01*
X467711Y711565D01*
X467708Y711569D01*
X467626Y711620D01*
X467547Y711672D01*
X467542Y711672D01*
X467537Y711675D01*
X467360Y711707D01*
X16510Y711707D01*
X16505Y711706D01*
X16500Y711707D01*
X16407Y711686D01*
X16314Y711668D01*
X16309Y711665D01*
X16304Y711664D01*
X16226Y711608D01*
X16148Y711555D01*
X16145Y711551D01*
X16141Y711548D01*
X16090Y711466D01*
X16038Y711387D01*
X16038Y711382D01*
X16035Y711377D01*
X16003Y711200D01*
X16003Y-80010D01*
X16004Y-80015D01*
X16003Y-80020D01*
X16024Y-80113D01*
X16042Y-80207D01*
X16045Y-80211D01*
X16046Y-80216D01*
X16102Y-80294D01*
X16155Y-80372D01*
X16159Y-80375D01*
X16162Y-80379D01*
X16244Y-80430D01*
X16323Y-80482D01*
X16328Y-80482D01*
X16333Y-80485D01*
X16510Y-80517D01*
X467360Y-80517D01*
X467365Y-80516D01*
G37*
%LPC*%
G36*
X278368Y99853D02*
X278368Y99853D01*
X275113Y103108D01*
X275113Y106445D01*
X275112Y106453D01*
X275113Y106461D01*
X275092Y106550D01*
X275074Y106642D01*
X275069Y106648D01*
X275067Y106656D01*
X274965Y106804D01*
X263780Y117989D01*
X263773Y117993D01*
X263769Y117999D01*
X263690Y118048D01*
X263613Y118100D01*
X263605Y118101D01*
X263598Y118105D01*
X263421Y118137D01*
X232469Y118137D01*
X213370Y137237D01*
X213363Y137241D01*
X213358Y137247D01*
X213280Y137296D01*
X213203Y137348D01*
X213195Y137349D01*
X213188Y137353D01*
X213011Y137385D01*
X195523Y137385D01*
X162130Y170778D01*
X162126Y170781D01*
X162123Y170785D01*
X162043Y170836D01*
X161963Y170889D01*
X161958Y170890D01*
X161954Y170893D01*
X161860Y170908D01*
X161767Y170926D01*
X161761Y170925D01*
X161756Y170926D01*
X161664Y170905D01*
X161570Y170885D01*
X161566Y170882D01*
X161561Y170881D01*
X161413Y170778D01*
X160828Y170193D01*
X160422Y170025D01*
X159197Y169517D01*
X157973Y169010D01*
X157864Y168965D01*
X154656Y168965D01*
X151692Y170193D01*
X149423Y172462D01*
X148195Y175426D01*
X148195Y178634D01*
X149423Y181598D01*
X151692Y183867D01*
X152754Y184307D01*
X153978Y184814D01*
X154656Y185095D01*
X157349Y185095D01*
X157352Y185095D01*
X157354Y185095D01*
X157449Y185115D01*
X157546Y185134D01*
X157548Y185136D01*
X157550Y185136D01*
X157631Y185192D01*
X157711Y185247D01*
X157713Y185249D01*
X157715Y185251D01*
X157768Y185334D01*
X157821Y185415D01*
X157821Y185418D01*
X157823Y185420D01*
X157839Y185516D01*
X157856Y185612D01*
X157856Y185615D01*
X157856Y185617D01*
X157834Y185711D01*
X157813Y185808D01*
X157811Y185810D01*
X157811Y185813D01*
X157708Y185961D01*
X155146Y188523D01*
X153211Y190457D01*
X153211Y194625D01*
X153210Y194631D01*
X153211Y194638D01*
X153190Y194729D01*
X153172Y194821D01*
X153168Y194827D01*
X153167Y194833D01*
X153112Y194909D01*
X153059Y194987D01*
X153054Y194991D01*
X153050Y194996D01*
X152898Y195093D01*
X151692Y195593D01*
X149423Y197862D01*
X148195Y200826D01*
X148195Y204034D01*
X149423Y206998D01*
X151692Y209267D01*
X152663Y209669D01*
X153888Y210177D01*
X154656Y210495D01*
X157864Y210495D01*
X160828Y209267D01*
X163097Y206998D01*
X164325Y204034D01*
X164325Y200826D01*
X163097Y197862D01*
X160828Y195593D01*
X159622Y195093D01*
X159616Y195090D01*
X159610Y195088D01*
X159533Y195034D01*
X159455Y194982D01*
X159452Y194976D01*
X159447Y194972D01*
X159397Y194892D01*
X159345Y194814D01*
X159344Y194808D01*
X159341Y194802D01*
X159309Y194625D01*
X159309Y193193D01*
X159310Y193185D01*
X159309Y193177D01*
X159330Y193088D01*
X159348Y192996D01*
X159353Y192990D01*
X159355Y192982D01*
X159457Y192834D01*
X172869Y179422D01*
X172872Y179421D01*
X172873Y179419D01*
X172954Y179366D01*
X173036Y179311D01*
X173039Y179311D01*
X173041Y179309D01*
X173137Y179292D01*
X173233Y179274D01*
X173236Y179274D01*
X173238Y179274D01*
X173335Y179295D01*
X173429Y179315D01*
X173431Y179317D01*
X173434Y179317D01*
X173514Y179374D01*
X173594Y179430D01*
X173595Y179432D01*
X173597Y179433D01*
X173648Y179515D01*
X173701Y179599D01*
X173702Y179601D01*
X173703Y179604D01*
X173735Y179781D01*
X173735Y210126D01*
X173734Y210133D01*
X173735Y210141D01*
X173714Y210231D01*
X173696Y210322D01*
X173691Y210329D01*
X173689Y210336D01*
X173587Y210484D01*
X172338Y211733D01*
X172338Y216257D01*
X175538Y219457D01*
X180062Y219457D01*
X183262Y216257D01*
X183262Y211733D01*
X182013Y210484D01*
X182009Y210478D01*
X182003Y210473D01*
X181954Y210394D01*
X181902Y210317D01*
X181901Y210310D01*
X181897Y210303D01*
X181865Y210126D01*
X181865Y181952D01*
X181866Y181944D01*
X181865Y181937D01*
X181886Y181847D01*
X181904Y181756D01*
X181909Y181749D01*
X181911Y181741D01*
X182013Y181593D01*
X185622Y177985D01*
X185629Y177980D01*
X185633Y177974D01*
X185712Y177925D01*
X185789Y177874D01*
X185797Y177872D01*
X185803Y177868D01*
X185981Y177836D01*
X187746Y177836D01*
X190946Y174637D01*
X190946Y170112D01*
X187816Y166983D01*
X187815Y166980D01*
X187813Y166979D01*
X187760Y166898D01*
X187705Y166816D01*
X187705Y166813D01*
X187703Y166811D01*
X187686Y166715D01*
X187668Y166619D01*
X187668Y166616D01*
X187668Y166614D01*
X187689Y166517D01*
X187709Y166423D01*
X187711Y166421D01*
X187711Y166418D01*
X187769Y166337D01*
X187824Y166258D01*
X187826Y166257D01*
X187827Y166255D01*
X187910Y166203D01*
X187993Y166151D01*
X187995Y166150D01*
X187998Y166149D01*
X188175Y166117D01*
X189587Y166117D01*
X192787Y162917D01*
X192787Y158393D01*
X189587Y155193D01*
X187563Y155193D01*
X187560Y155193D01*
X187557Y155193D01*
X187463Y155173D01*
X187366Y155154D01*
X187364Y155152D01*
X187361Y155152D01*
X187281Y155096D01*
X187200Y155041D01*
X187199Y155039D01*
X187197Y155037D01*
X187143Y154954D01*
X187091Y154873D01*
X187091Y154870D01*
X187089Y154868D01*
X187073Y154772D01*
X187055Y154676D01*
X187056Y154673D01*
X187056Y154671D01*
X187078Y154577D01*
X187099Y154480D01*
X187101Y154478D01*
X187101Y154475D01*
X187204Y154327D01*
X197900Y143631D01*
X197907Y143627D01*
X197911Y143621D01*
X197990Y143572D01*
X198067Y143520D01*
X198075Y143519D01*
X198081Y143515D01*
X198259Y143483D01*
X211772Y143483D01*
X211774Y143483D01*
X211777Y143483D01*
X211872Y143503D01*
X211968Y143522D01*
X211971Y143524D01*
X211973Y143524D01*
X212054Y143580D01*
X212134Y143635D01*
X212136Y143637D01*
X212138Y143639D01*
X212191Y143722D01*
X212243Y143803D01*
X212244Y143806D01*
X212245Y143808D01*
X212262Y143904D01*
X212279Y144000D01*
X212278Y144003D01*
X212279Y144005D01*
X212257Y144100D01*
X212235Y144196D01*
X212234Y144198D01*
X212233Y144201D01*
X212131Y144349D01*
X211517Y144962D01*
X211517Y149566D01*
X214772Y152821D01*
X217191Y152821D01*
X217194Y152821D01*
X217196Y152821D01*
X217291Y152841D01*
X217388Y152860D01*
X217390Y152862D01*
X217393Y152862D01*
X217473Y152918D01*
X217554Y152973D01*
X217555Y152975D01*
X217557Y152977D01*
X217610Y153060D01*
X217663Y153141D01*
X217663Y153144D01*
X217665Y153146D01*
X217681Y153242D01*
X217698Y153338D01*
X217698Y153341D01*
X217698Y153343D01*
X217676Y153438D01*
X217655Y153534D01*
X217653Y153536D01*
X217653Y153539D01*
X217550Y153687D01*
X216058Y155178D01*
X216058Y159782D01*
X219313Y163037D01*
X223917Y163037D01*
X227172Y159782D01*
X227172Y157715D01*
X227173Y157707D01*
X227172Y157699D01*
X227193Y157610D01*
X227211Y157518D01*
X227216Y157512D01*
X227218Y157504D01*
X227320Y157356D01*
X229286Y155390D01*
X231063Y153613D01*
X231070Y153609D01*
X231074Y153603D01*
X231153Y153554D01*
X231230Y153502D01*
X231238Y153501D01*
X231245Y153497D01*
X231422Y153465D01*
X241852Y153465D01*
X242719Y152597D01*
X242722Y152595D01*
X242723Y152593D01*
X242803Y152541D01*
X242886Y152486D01*
X242889Y152485D01*
X242891Y152484D01*
X242987Y152467D01*
X243083Y152448D01*
X243086Y152449D01*
X243088Y152448D01*
X243185Y152470D01*
X243279Y152490D01*
X243281Y152491D01*
X243284Y152492D01*
X243364Y152549D01*
X243444Y152604D01*
X243445Y152607D01*
X243447Y152608D01*
X243499Y152691D01*
X243551Y152773D01*
X243552Y152776D01*
X243553Y152778D01*
X243585Y152956D01*
X243585Y167581D01*
X243584Y167588D01*
X243585Y167596D01*
X243564Y167686D01*
X243546Y167777D01*
X243541Y167784D01*
X243539Y167791D01*
X243437Y167939D01*
X241553Y169823D01*
X241553Y174347D01*
X244753Y177547D01*
X249277Y177547D01*
X252477Y174347D01*
X252477Y169823D01*
X251863Y169209D01*
X251859Y169203D01*
X251853Y169198D01*
X251804Y169119D01*
X251752Y169042D01*
X251751Y169035D01*
X251747Y169028D01*
X251715Y168851D01*
X251715Y152956D01*
X251715Y152953D01*
X251715Y152950D01*
X251735Y152856D01*
X251754Y152759D01*
X251756Y152757D01*
X251756Y152754D01*
X251812Y152674D01*
X251867Y152593D01*
X251869Y152592D01*
X251871Y152590D01*
X251954Y152536D01*
X252035Y152484D01*
X252038Y152484D01*
X252040Y152482D01*
X252136Y152466D01*
X252232Y152448D01*
X252235Y152449D01*
X252237Y152449D01*
X252332Y152471D01*
X252428Y152492D01*
X252430Y152494D01*
X252433Y152494D01*
X252581Y152597D01*
X253448Y153465D01*
X264712Y153465D01*
X265605Y152572D01*
X265605Y151257D01*
X265606Y151252D01*
X265605Y151247D01*
X265626Y151154D01*
X265644Y151060D01*
X265647Y151056D01*
X265648Y151051D01*
X265704Y150973D01*
X265757Y150895D01*
X265761Y150892D01*
X265764Y150888D01*
X265846Y150837D01*
X265925Y150785D01*
X265930Y150785D01*
X265935Y150782D01*
X266112Y150750D01*
X274908Y150750D01*
X274913Y150751D01*
X274918Y150750D01*
X275011Y150771D01*
X275105Y150789D01*
X275109Y150792D01*
X275114Y150793D01*
X275192Y150849D01*
X275270Y150902D01*
X275273Y150906D01*
X275277Y150909D01*
X275328Y150991D01*
X275380Y151070D01*
X275380Y151075D01*
X275383Y151080D01*
X275415Y151257D01*
X275415Y152572D01*
X276308Y153465D01*
X287306Y153465D01*
X287311Y153466D01*
X287316Y153465D01*
X287409Y153486D01*
X287503Y153504D01*
X287507Y153507D01*
X287512Y153508D01*
X287590Y153564D01*
X287668Y153617D01*
X287671Y153621D01*
X287675Y153624D01*
X287726Y153706D01*
X287778Y153785D01*
X287778Y153790D01*
X287781Y153795D01*
X287813Y153972D01*
X287813Y156409D01*
X290014Y158610D01*
X290017Y158614D01*
X290022Y158617D01*
X290073Y158698D01*
X290125Y158777D01*
X290126Y158782D01*
X290129Y158786D01*
X290145Y158880D01*
X290163Y158974D01*
X290162Y158979D01*
X290163Y158984D01*
X290141Y159076D01*
X290121Y159170D01*
X290118Y159174D01*
X290117Y159179D01*
X290014Y159327D01*
X287813Y161528D01*
X287813Y166132D01*
X291068Y169387D01*
X295672Y169387D01*
X296761Y168297D01*
X296768Y168293D01*
X296772Y168287D01*
X296851Y168238D01*
X296928Y168186D01*
X296936Y168185D01*
X296942Y168181D01*
X297120Y168149D01*
X328990Y168149D01*
X328998Y168150D01*
X329006Y168149D01*
X329096Y168170D01*
X329187Y168188D01*
X329193Y168193D01*
X329201Y168195D01*
X329349Y168297D01*
X331708Y170657D01*
X336312Y170657D01*
X339567Y167402D01*
X339567Y162798D01*
X337048Y160280D01*
X337045Y160275D01*
X337041Y160272D01*
X336990Y160192D01*
X336937Y160113D01*
X336936Y160108D01*
X336933Y160103D01*
X336917Y160009D01*
X336900Y159916D01*
X336901Y159911D01*
X336900Y159906D01*
X336921Y159813D01*
X336941Y159720D01*
X336944Y159715D01*
X336945Y159710D01*
X337048Y159562D01*
X339567Y157044D01*
X339567Y152440D01*
X338305Y151179D01*
X338304Y151176D01*
X338301Y151175D01*
X338249Y151095D01*
X338194Y151012D01*
X338194Y151009D01*
X338192Y151007D01*
X338175Y150911D01*
X338157Y150815D01*
X338157Y150812D01*
X338157Y150810D01*
X338178Y150713D01*
X338198Y150619D01*
X338200Y150617D01*
X338200Y150614D01*
X338257Y150534D01*
X338312Y150454D01*
X338315Y150453D01*
X338316Y150451D01*
X338400Y150398D01*
X338482Y150347D01*
X338484Y150346D01*
X338486Y150345D01*
X338664Y150313D01*
X339689Y150313D01*
X341623Y148378D01*
X356097Y133905D01*
X356102Y133901D01*
X356106Y133896D01*
X356185Y133846D01*
X356264Y133794D01*
X356270Y133793D01*
X356276Y133789D01*
X356368Y133774D01*
X356460Y133756D01*
X356467Y133758D01*
X356473Y133757D01*
X356649Y133795D01*
X357359Y134089D01*
X357856Y134295D01*
X361064Y134295D01*
X364028Y133067D01*
X366297Y130798D01*
X367525Y127834D01*
X367525Y124626D01*
X366297Y121662D01*
X364028Y119393D01*
X363803Y119300D01*
X362578Y118792D01*
X361354Y118285D01*
X361064Y118165D01*
X357856Y118165D01*
X354892Y119393D01*
X352623Y121662D01*
X351395Y124626D01*
X351395Y127834D01*
X351895Y129041D01*
X351896Y129047D01*
X351900Y129053D01*
X351916Y129145D01*
X351934Y129237D01*
X351932Y129244D01*
X351933Y129250D01*
X351912Y129342D01*
X351893Y129434D01*
X351889Y129439D01*
X351888Y129445D01*
X351785Y129593D01*
X337312Y144067D01*
X337305Y144071D01*
X337301Y144077D01*
X337222Y144126D01*
X337145Y144178D01*
X337137Y144179D01*
X337130Y144183D01*
X336953Y144215D01*
X305513Y144215D01*
X305506Y144214D01*
X305498Y144215D01*
X305408Y144194D01*
X305317Y144176D01*
X305310Y144171D01*
X305303Y144169D01*
X305155Y144067D01*
X283797Y122709D01*
X268907Y122709D01*
X268904Y122709D01*
X268902Y122709D01*
X268807Y122689D01*
X268710Y122670D01*
X268708Y122668D01*
X268706Y122668D01*
X268625Y122612D01*
X268545Y122557D01*
X268543Y122555D01*
X268541Y122553D01*
X268488Y122470D01*
X268435Y122389D01*
X268435Y122386D01*
X268433Y122384D01*
X268417Y122288D01*
X268400Y122192D01*
X268400Y122189D01*
X268400Y122187D01*
X268422Y122093D01*
X268443Y121996D01*
X268445Y121994D01*
X268445Y121991D01*
X268548Y121843D01*
X279276Y111115D01*
X279283Y111111D01*
X279287Y111105D01*
X279366Y111056D01*
X279443Y111004D01*
X279451Y111003D01*
X279458Y110999D01*
X279635Y110967D01*
X282972Y110967D01*
X286227Y107712D01*
X286227Y103108D01*
X282972Y99853D01*
X278368Y99853D01*
G37*
%LPD*%
%LPC*%
G36*
X316680Y647575D02*
X316680Y647575D01*
X310188Y649315D01*
X304368Y652675D01*
X299615Y657428D01*
X296255Y663248D01*
X294515Y669740D01*
X294515Y676460D01*
X296255Y682952D01*
X299615Y688772D01*
X304368Y693525D01*
X310188Y696885D01*
X316680Y698625D01*
X323400Y698625D01*
X329892Y696885D01*
X335712Y693525D01*
X340465Y688772D01*
X343825Y682952D01*
X345565Y676460D01*
X345565Y669740D01*
X343825Y663248D01*
X340465Y657428D01*
X335712Y652675D01*
X329892Y649315D01*
X323400Y647575D01*
X316680Y647575D01*
G37*
%LPD*%
%LPC*%
G36*
X43523Y-74613D02*
X43523Y-74613D01*
X34771Y-70988D01*
X28072Y-64289D01*
X24447Y-55537D01*
X24447Y-46063D01*
X28072Y-37311D01*
X34771Y-30612D01*
X35621Y-30260D01*
X36846Y-29753D01*
X38070Y-29245D01*
X39295Y-28738D01*
X40519Y-28231D01*
X40520Y-28231D01*
X41744Y-27724D01*
X42969Y-27216D01*
X43523Y-26987D01*
X52997Y-26987D01*
X61749Y-30612D01*
X68448Y-37311D01*
X72073Y-46063D01*
X72073Y-55537D01*
X68448Y-64289D01*
X61749Y-70988D01*
X60691Y-71426D01*
X60690Y-71426D01*
X59466Y-71934D01*
X58241Y-72441D01*
X57017Y-72948D01*
X55792Y-73455D01*
X54568Y-73963D01*
X54567Y-73963D01*
X53343Y-74470D01*
X52997Y-74613D01*
X43523Y-74613D01*
G37*
%LPD*%
%LPC*%
G36*
X434683Y-74613D02*
X434683Y-74613D01*
X425931Y-70988D01*
X419232Y-64289D01*
X415607Y-55537D01*
X415607Y-46063D01*
X419232Y-37311D01*
X425931Y-30612D01*
X426781Y-30260D01*
X428006Y-29753D01*
X429230Y-29245D01*
X430455Y-28738D01*
X431679Y-28231D01*
X431680Y-28231D01*
X432904Y-27724D01*
X434129Y-27216D01*
X434683Y-26987D01*
X444157Y-26987D01*
X452909Y-30612D01*
X459608Y-37311D01*
X463233Y-46063D01*
X463233Y-55537D01*
X459608Y-64289D01*
X452909Y-70988D01*
X451851Y-71426D01*
X451850Y-71426D01*
X450626Y-71934D01*
X449401Y-72441D01*
X448177Y-72948D01*
X446952Y-73455D01*
X445728Y-73963D01*
X445727Y-73963D01*
X444503Y-74470D01*
X444157Y-74613D01*
X434683Y-74613D01*
G37*
%LPD*%
%LPC*%
G36*
X43523Y651827D02*
X43523Y651827D01*
X34771Y655452D01*
X28072Y662151D01*
X24447Y670903D01*
X24447Y680377D01*
X28072Y689129D01*
X34771Y695828D01*
X35481Y696122D01*
X36706Y696629D01*
X37930Y697137D01*
X39155Y697644D01*
X40380Y698151D01*
X41604Y698658D01*
X42829Y699166D01*
X43523Y699453D01*
X52997Y699453D01*
X61749Y695828D01*
X68448Y689129D01*
X72073Y680377D01*
X72073Y670903D01*
X68448Y662151D01*
X61749Y655452D01*
X60551Y654956D01*
X59326Y654448D01*
X58101Y653941D01*
X56877Y653434D01*
X55652Y652927D01*
X54428Y652419D01*
X54427Y652419D01*
X53203Y651912D01*
X52997Y651827D01*
X43523Y651827D01*
G37*
%LPD*%
%LPC*%
G36*
X434683Y651827D02*
X434683Y651827D01*
X425931Y655452D01*
X419232Y662151D01*
X415607Y670903D01*
X415607Y680377D01*
X419232Y689129D01*
X425931Y695828D01*
X426641Y696122D01*
X427866Y696629D01*
X429090Y697137D01*
X430315Y697644D01*
X431540Y698151D01*
X432764Y698658D01*
X433989Y699166D01*
X434683Y699453D01*
X444157Y699453D01*
X452909Y695828D01*
X459608Y689129D01*
X463233Y680377D01*
X463233Y670903D01*
X459608Y662151D01*
X452909Y655452D01*
X451711Y654956D01*
X450486Y654448D01*
X449261Y653941D01*
X448037Y653434D01*
X446812Y652927D01*
X445588Y652419D01*
X445587Y652419D01*
X444363Y651912D01*
X444157Y651827D01*
X434683Y651827D01*
G37*
%LPD*%
%LPC*%
G36*
X334248Y197643D02*
X334248Y197643D01*
X331889Y200003D01*
X331882Y200007D01*
X331878Y200013D01*
X331799Y200062D01*
X331722Y200114D01*
X331714Y200115D01*
X331708Y200119D01*
X331530Y200151D01*
X285757Y200151D01*
X269396Y216513D01*
X269389Y216517D01*
X269385Y216523D01*
X269306Y216572D01*
X269229Y216624D01*
X269221Y216625D01*
X269214Y216629D01*
X269037Y216661D01*
X226298Y216661D01*
X222813Y220146D01*
X222813Y248980D01*
X222812Y248988D01*
X222813Y248996D01*
X222792Y249086D01*
X222774Y249177D01*
X222769Y249183D01*
X222767Y249191D01*
X222665Y249339D01*
X220305Y251698D01*
X220305Y256302D01*
X223560Y259557D01*
X228164Y259557D01*
X231419Y256302D01*
X231419Y251698D01*
X229059Y249339D01*
X229055Y249332D01*
X229049Y249328D01*
X229000Y249249D01*
X228948Y249172D01*
X228947Y249164D01*
X228943Y249158D01*
X228911Y248980D01*
X228911Y223266D01*
X228912Y223261D01*
X228911Y223256D01*
X228932Y223163D01*
X228950Y223069D01*
X228953Y223065D01*
X228954Y223060D01*
X229010Y222982D01*
X229063Y222904D01*
X229067Y222901D01*
X229070Y222897D01*
X229152Y222846D01*
X229231Y222794D01*
X229236Y222794D01*
X229241Y222791D01*
X229418Y222759D01*
X271773Y222759D01*
X288134Y206397D01*
X288141Y206393D01*
X288145Y206387D01*
X288224Y206338D01*
X288301Y206286D01*
X288309Y206285D01*
X288316Y206281D01*
X288493Y206249D01*
X295208Y206249D01*
X295211Y206249D01*
X295213Y206249D01*
X295308Y206269D01*
X295405Y206288D01*
X295407Y206290D01*
X295410Y206290D01*
X295490Y206346D01*
X295571Y206401D01*
X295572Y206403D01*
X295574Y206405D01*
X295627Y206488D01*
X295680Y206569D01*
X295680Y206572D01*
X295682Y206574D01*
X295698Y206670D01*
X295715Y206766D01*
X295715Y206769D01*
X295715Y206771D01*
X295693Y206866D01*
X295672Y206962D01*
X295670Y206964D01*
X295670Y206967D01*
X295567Y207115D01*
X293528Y209153D01*
X293528Y213757D01*
X295888Y216116D01*
X295892Y216123D01*
X295898Y216127D01*
X295947Y216206D01*
X295999Y216283D01*
X296000Y216291D01*
X296004Y216297D01*
X296036Y216475D01*
X296036Y219842D01*
X305690Y229496D01*
X346142Y229496D01*
X346467Y229170D01*
X346474Y229166D01*
X346478Y229160D01*
X346557Y229111D01*
X346634Y229059D01*
X346642Y229058D01*
X346649Y229054D01*
X346826Y229022D01*
X354040Y229022D01*
X354048Y229023D01*
X354056Y229022D01*
X354145Y229043D01*
X354237Y229061D01*
X354243Y229066D01*
X354251Y229068D01*
X354399Y229170D01*
X356722Y231493D01*
X356726Y231500D01*
X356732Y231504D01*
X356781Y231583D01*
X356833Y231660D01*
X356834Y231668D01*
X356838Y231675D01*
X356870Y231852D01*
X356870Y235189D01*
X360125Y238444D01*
X364729Y238444D01*
X367984Y235189D01*
X367984Y230585D01*
X364729Y227330D01*
X361392Y227330D01*
X361384Y227329D01*
X361376Y227330D01*
X361287Y227309D01*
X361195Y227291D01*
X361189Y227286D01*
X361181Y227284D01*
X361033Y227182D01*
X356776Y222924D01*
X344090Y222924D01*
X343765Y223250D01*
X343758Y223254D01*
X343754Y223260D01*
X343675Y223309D01*
X343598Y223361D01*
X343590Y223362D01*
X343583Y223366D01*
X343406Y223398D01*
X308426Y223398D01*
X308418Y223397D01*
X308411Y223398D01*
X308321Y223377D01*
X308230Y223359D01*
X308223Y223354D01*
X308215Y223352D01*
X308067Y223250D01*
X302282Y217465D01*
X302278Y217458D01*
X302272Y217453D01*
X302223Y217375D01*
X302171Y217298D01*
X302170Y217290D01*
X302166Y217283D01*
X302134Y217106D01*
X302134Y216475D01*
X302135Y216467D01*
X302134Y216459D01*
X302155Y216369D01*
X302173Y216278D01*
X302178Y216272D01*
X302180Y216264D01*
X302282Y216116D01*
X304642Y213757D01*
X304642Y209153D01*
X302603Y207115D01*
X302602Y207112D01*
X302599Y207111D01*
X302547Y207030D01*
X302492Y206948D01*
X302492Y206945D01*
X302490Y206943D01*
X302473Y206847D01*
X302455Y206751D01*
X302455Y206748D01*
X302455Y206746D01*
X302476Y206649D01*
X302496Y206555D01*
X302498Y206553D01*
X302498Y206550D01*
X302555Y206470D01*
X302610Y206390D01*
X302613Y206389D01*
X302614Y206387D01*
X302697Y206335D01*
X302780Y206283D01*
X302782Y206282D01*
X302784Y206281D01*
X302962Y206249D01*
X331530Y206249D01*
X331538Y206250D01*
X331546Y206249D01*
X331636Y206270D01*
X331727Y206288D01*
X331733Y206293D01*
X331741Y206295D01*
X331889Y206397D01*
X334248Y208757D01*
X338852Y208757D01*
X342107Y205502D01*
X342107Y200898D01*
X338852Y197643D01*
X334248Y197643D01*
G37*
%LPD*%
%LPC*%
G36*
X70015Y91115D02*
X70015Y91115D01*
X67235Y92267D01*
X65107Y94395D01*
X63955Y97175D01*
X63955Y100185D01*
X65107Y102965D01*
X67235Y105093D01*
X67435Y105176D01*
X68659Y105683D01*
X68660Y105683D01*
X69884Y106190D01*
X69935Y106211D01*
X69937Y106213D01*
X69939Y106213D01*
X70020Y106269D01*
X70101Y106323D01*
X70103Y106325D01*
X70105Y106327D01*
X70158Y106409D01*
X70211Y106491D01*
X70212Y106493D01*
X70213Y106495D01*
X70230Y106592D01*
X70248Y106688D01*
X70247Y106690D01*
X70248Y106693D01*
X70226Y106789D01*
X70205Y106884D01*
X70204Y106886D01*
X70203Y106888D01*
X70145Y106969D01*
X70090Y107048D01*
X70088Y107049D01*
X70086Y107051D01*
X69935Y107149D01*
X67235Y108267D01*
X65107Y110395D01*
X63955Y113175D01*
X63955Y116185D01*
X65107Y118965D01*
X67235Y121093D01*
X67995Y121408D01*
X69219Y121915D01*
X69220Y121915D01*
X70015Y122245D01*
X73025Y122245D01*
X75254Y121321D01*
X75258Y121321D01*
X75261Y121318D01*
X75356Y121301D01*
X75451Y121283D01*
X75454Y121284D01*
X75458Y121283D01*
X75553Y121304D01*
X75647Y121323D01*
X75650Y121326D01*
X75654Y121326D01*
X75733Y121383D01*
X75812Y121437D01*
X75814Y121440D01*
X75817Y121442D01*
X75868Y121524D01*
X75921Y121605D01*
X75921Y121609D01*
X75923Y121613D01*
X75955Y121790D01*
X75955Y124185D01*
X77107Y126965D01*
X79235Y129093D01*
X80275Y129524D01*
X81499Y130031D01*
X81500Y130031D01*
X82015Y130245D01*
X85025Y130245D01*
X87805Y129093D01*
X89933Y126965D01*
X91085Y124185D01*
X91085Y121175D01*
X89933Y118395D01*
X87805Y116267D01*
X87779Y116256D01*
X86555Y115749D01*
X86554Y115749D01*
X85330Y115242D01*
X85105Y115149D01*
X85103Y115147D01*
X85101Y115147D01*
X85020Y115091D01*
X84939Y115037D01*
X84937Y115035D01*
X84935Y115033D01*
X84882Y114951D01*
X84829Y114869D01*
X84828Y114867D01*
X84827Y114865D01*
X84810Y114768D01*
X84792Y114672D01*
X84793Y114670D01*
X84792Y114667D01*
X84814Y114571D01*
X84835Y114476D01*
X84836Y114474D01*
X84837Y114472D01*
X84894Y114392D01*
X84950Y114312D01*
X84952Y114311D01*
X84954Y114309D01*
X85105Y114211D01*
X87805Y113093D01*
X89933Y110965D01*
X91085Y108185D01*
X91085Y105175D01*
X89933Y102395D01*
X87805Y100267D01*
X87219Y100024D01*
X85995Y99517D01*
X85994Y99517D01*
X85025Y99115D01*
X82015Y99115D01*
X79786Y100039D01*
X79782Y100039D01*
X79779Y100042D01*
X79684Y100059D01*
X79589Y100077D01*
X79586Y100076D01*
X79582Y100077D01*
X79487Y100056D01*
X79393Y100037D01*
X79390Y100034D01*
X79386Y100034D01*
X79307Y99977D01*
X79228Y99923D01*
X79226Y99920D01*
X79223Y99918D01*
X79172Y99836D01*
X79119Y99755D01*
X79119Y99751D01*
X79117Y99747D01*
X79085Y99570D01*
X79085Y97175D01*
X77933Y94395D01*
X75805Y92267D01*
X74939Y91908D01*
X73714Y91401D01*
X73025Y91115D01*
X70015Y91115D01*
G37*
%LPD*%
%LPC*%
G36*
X314626Y387160D02*
X314626Y387160D01*
X309242Y389391D01*
X305121Y393512D01*
X302890Y398896D01*
X302890Y404724D01*
X305121Y410108D01*
X309242Y414229D01*
X310132Y414598D01*
X311357Y415106D01*
X312581Y415613D01*
X312582Y415613D01*
X313806Y416120D01*
X314626Y416460D01*
X320454Y416460D01*
X325838Y414229D01*
X329959Y410108D01*
X332190Y404724D01*
X332190Y398896D01*
X329959Y393512D01*
X325838Y389391D01*
X325274Y389157D01*
X324049Y388649D01*
X322825Y388142D01*
X322824Y388142D01*
X321600Y387635D01*
X320454Y387160D01*
X314626Y387160D01*
G37*
%LPD*%
%LPC*%
G36*
X179926Y387160D02*
X179926Y387160D01*
X174542Y389391D01*
X170421Y393512D01*
X168190Y398896D01*
X168190Y404724D01*
X170421Y410108D01*
X174542Y414229D01*
X175432Y414598D01*
X176657Y415106D01*
X177881Y415613D01*
X177882Y415613D01*
X179106Y416120D01*
X179926Y416460D01*
X185754Y416460D01*
X191138Y414229D01*
X195259Y410108D01*
X197490Y404724D01*
X197490Y398896D01*
X195259Y393512D01*
X191138Y389391D01*
X190574Y389157D01*
X189349Y388649D01*
X188125Y388142D01*
X188124Y388142D01*
X186900Y387635D01*
X185754Y387160D01*
X179926Y387160D01*
G37*
%LPD*%
%LPC*%
G36*
X317166Y591630D02*
X317166Y591630D01*
X311782Y593861D01*
X307661Y597982D01*
X305430Y603366D01*
X305430Y609194D01*
X307661Y614578D01*
X311782Y618699D01*
X312556Y619020D01*
X313780Y619527D01*
X315005Y620035D01*
X316230Y620542D01*
X317166Y620930D01*
X322994Y620930D01*
X328378Y618699D01*
X332499Y614578D01*
X334730Y609194D01*
X334730Y603366D01*
X332499Y597982D01*
X328378Y593861D01*
X327697Y593578D01*
X326473Y593071D01*
X325248Y592564D01*
X324024Y592057D01*
X324023Y592057D01*
X322994Y591630D01*
X317166Y591630D01*
G37*
%LPD*%
%LPC*%
G36*
X182466Y591630D02*
X182466Y591630D01*
X177082Y593861D01*
X172961Y597982D01*
X170730Y603366D01*
X170730Y609194D01*
X172961Y614578D01*
X177082Y618699D01*
X177856Y619020D01*
X179080Y619527D01*
X180305Y620035D01*
X181530Y620542D01*
X182466Y620930D01*
X188294Y620930D01*
X193678Y618699D01*
X197799Y614578D01*
X200030Y609194D01*
X200030Y603366D01*
X197799Y597982D01*
X193678Y593861D01*
X192997Y593578D01*
X191773Y593071D01*
X190548Y592564D01*
X189324Y592057D01*
X189323Y592057D01*
X188294Y591630D01*
X182466Y591630D01*
G37*
%LPD*%
%LPC*%
G36*
X315896Y450950D02*
X315896Y450950D01*
X310512Y453181D01*
X306391Y457302D01*
X304160Y462686D01*
X304160Y468514D01*
X306391Y473898D01*
X310512Y478019D01*
X311700Y478512D01*
X312925Y479019D01*
X314150Y479526D01*
X315374Y480034D01*
X315896Y480250D01*
X321724Y480250D01*
X327108Y478019D01*
X331229Y473898D01*
X333460Y468514D01*
X333460Y462686D01*
X331229Y457302D01*
X327108Y453181D01*
X326842Y453070D01*
X325617Y452563D01*
X324393Y452056D01*
X323168Y451548D01*
X321944Y451041D01*
X321943Y451041D01*
X321724Y450950D01*
X315896Y450950D01*
G37*
%LPD*%
%LPC*%
G36*
X181196Y450950D02*
X181196Y450950D01*
X175812Y453181D01*
X171691Y457302D01*
X169460Y462686D01*
X169460Y468514D01*
X171691Y473898D01*
X175812Y478019D01*
X177000Y478512D01*
X178225Y479019D01*
X179450Y479526D01*
X180674Y480034D01*
X181196Y480250D01*
X187024Y480250D01*
X192408Y478019D01*
X196529Y473898D01*
X198760Y468514D01*
X198760Y462686D01*
X196529Y457302D01*
X192408Y453181D01*
X192142Y453070D01*
X190917Y452563D01*
X189693Y452056D01*
X188468Y451548D01*
X187244Y451041D01*
X187243Y451041D01*
X187024Y450950D01*
X181196Y450950D01*
G37*
%LPD*%
%LPC*%
G36*
X315896Y484950D02*
X315896Y484950D01*
X310512Y487181D01*
X306391Y491302D01*
X304160Y496686D01*
X304160Y502514D01*
X306391Y507898D01*
X310512Y512019D01*
X311666Y512498D01*
X312890Y513005D01*
X312891Y513005D01*
X314115Y513512D01*
X315340Y514019D01*
X315896Y514250D01*
X321724Y514250D01*
X327108Y512019D01*
X331229Y507898D01*
X333460Y502514D01*
X333460Y496686D01*
X331229Y491302D01*
X327108Y487181D01*
X326808Y487056D01*
X326807Y487056D01*
X325583Y486549D01*
X324358Y486041D01*
X323134Y485534D01*
X321909Y485027D01*
X321724Y484950D01*
X315896Y484950D01*
G37*
%LPD*%
%LPC*%
G36*
X181196Y484950D02*
X181196Y484950D01*
X175812Y487181D01*
X171691Y491302D01*
X169460Y496686D01*
X169460Y502514D01*
X171691Y507898D01*
X175812Y512019D01*
X176966Y512498D01*
X178190Y513005D01*
X178191Y513005D01*
X179415Y513512D01*
X180640Y514019D01*
X181196Y514250D01*
X187024Y514250D01*
X192408Y512019D01*
X196529Y507898D01*
X198760Y502514D01*
X198760Y496686D01*
X196529Y491302D01*
X192408Y487181D01*
X192108Y487056D01*
X192107Y487056D01*
X190883Y486549D01*
X189658Y486041D01*
X188434Y485534D01*
X187209Y485027D01*
X187024Y484950D01*
X181196Y484950D01*
G37*
%LPD*%
%LPC*%
G36*
X314626Y353160D02*
X314626Y353160D01*
X309242Y355391D01*
X305121Y359512D01*
X302890Y364896D01*
X302890Y370724D01*
X305121Y376108D01*
X309242Y380229D01*
X310167Y380613D01*
X311391Y381120D01*
X312616Y381627D01*
X313840Y382134D01*
X313841Y382134D01*
X314626Y382460D01*
X320454Y382460D01*
X325838Y380229D01*
X329959Y376108D01*
X332190Y370724D01*
X332190Y364896D01*
X329959Y359512D01*
X325838Y355391D01*
X325308Y355171D01*
X324084Y354664D01*
X324083Y354664D01*
X322859Y354156D01*
X321634Y353649D01*
X320454Y353160D01*
X314626Y353160D01*
G37*
%LPD*%
%LPC*%
G36*
X179926Y353160D02*
X179926Y353160D01*
X174542Y355391D01*
X170421Y359512D01*
X168190Y364896D01*
X168190Y370724D01*
X170421Y376108D01*
X174542Y380229D01*
X175467Y380613D01*
X176691Y381120D01*
X177916Y381627D01*
X179140Y382134D01*
X179141Y382134D01*
X179926Y382460D01*
X185754Y382460D01*
X191138Y380229D01*
X195259Y376108D01*
X197490Y370724D01*
X197490Y364896D01*
X195259Y359512D01*
X191138Y355391D01*
X190608Y355171D01*
X189384Y354664D01*
X189383Y354664D01*
X188159Y354156D01*
X186934Y353649D01*
X185754Y353160D01*
X179926Y353160D01*
G37*
%LPD*%
%LPC*%
G36*
X182466Y557630D02*
X182466Y557630D01*
X177082Y559861D01*
X172961Y563982D01*
X170730Y569366D01*
X170730Y575194D01*
X172961Y580578D01*
X177082Y584699D01*
X177890Y585034D01*
X179115Y585542D01*
X180339Y586049D01*
X181564Y586556D01*
X182466Y586930D01*
X188294Y586930D01*
X193678Y584699D01*
X197799Y580578D01*
X200030Y575194D01*
X200030Y569366D01*
X197799Y563982D01*
X193678Y559861D01*
X193032Y559593D01*
X191807Y559085D01*
X190583Y558578D01*
X190582Y558578D01*
X189358Y558071D01*
X188294Y557630D01*
X182466Y557630D01*
G37*
%LPD*%
%LPC*%
G36*
X317166Y557630D02*
X317166Y557630D01*
X311782Y559861D01*
X307661Y563982D01*
X305430Y569366D01*
X305430Y575194D01*
X307661Y580578D01*
X311782Y584699D01*
X312590Y585034D01*
X313815Y585542D01*
X315039Y586049D01*
X316264Y586556D01*
X317166Y586930D01*
X322994Y586930D01*
X328378Y584699D01*
X332499Y580578D01*
X334730Y575194D01*
X334730Y569366D01*
X332499Y563982D01*
X328378Y559861D01*
X327732Y559593D01*
X326507Y559085D01*
X325283Y558578D01*
X325282Y558578D01*
X324058Y558071D01*
X322994Y557630D01*
X317166Y557630D01*
G37*
%LPD*%
%LPC*%
G36*
X235228Y289178D02*
X235228Y289178D01*
X232028Y292378D01*
X232028Y296902D01*
X232642Y297516D01*
X232646Y297522D01*
X232652Y297527D01*
X232701Y297606D01*
X232753Y297683D01*
X232754Y297690D01*
X232758Y297697D01*
X232790Y297874D01*
X232790Y332046D01*
X232789Y332053D01*
X232790Y332061D01*
X232769Y332151D01*
X232751Y332242D01*
X232746Y332249D01*
X232744Y332256D01*
X232642Y332404D01*
X232028Y333018D01*
X232028Y337542D01*
X235228Y340742D01*
X239752Y340742D01*
X242952Y337542D01*
X242952Y333018D01*
X242338Y332404D01*
X242334Y332398D01*
X242328Y332393D01*
X242279Y332314D01*
X242227Y332237D01*
X242226Y332230D01*
X242222Y332223D01*
X242190Y332046D01*
X242190Y297874D01*
X242191Y297867D01*
X242190Y297859D01*
X242211Y297769D01*
X242229Y297678D01*
X242234Y297671D01*
X242236Y297664D01*
X242338Y297516D01*
X242952Y296902D01*
X242952Y292378D01*
X239752Y289178D01*
X235228Y289178D01*
G37*
%LPD*%
%LPC*%
G36*
X131048Y282733D02*
X131048Y282733D01*
X127793Y285988D01*
X127793Y290592D01*
X131048Y293847D01*
X135652Y293847D01*
X138011Y291487D01*
X138018Y291483D01*
X138022Y291477D01*
X138101Y291428D01*
X138178Y291376D01*
X138186Y291375D01*
X138192Y291371D01*
X138370Y291339D01*
X185480Y291339D01*
X185488Y291340D01*
X185496Y291339D01*
X185586Y291360D01*
X185677Y291378D01*
X185683Y291383D01*
X185691Y291385D01*
X185839Y291487D01*
X188198Y293847D01*
X192802Y293847D01*
X196057Y290592D01*
X196057Y285988D01*
X192802Y282733D01*
X188198Y282733D01*
X185839Y285093D01*
X185832Y285097D01*
X185828Y285103D01*
X185749Y285152D01*
X185672Y285204D01*
X185664Y285205D01*
X185658Y285209D01*
X185480Y285241D01*
X138370Y285241D01*
X138362Y285240D01*
X138354Y285241D01*
X138264Y285220D01*
X138173Y285202D01*
X138167Y285197D01*
X138159Y285195D01*
X138011Y285093D01*
X135652Y282733D01*
X131048Y282733D01*
G37*
%LPD*%
%LPC*%
G36*
X359648Y301783D02*
X359648Y301783D01*
X356393Y305038D01*
X356393Y309642D01*
X357737Y310985D01*
X357741Y310992D01*
X357747Y310996D01*
X357796Y311075D01*
X357848Y311152D01*
X357849Y311160D01*
X357853Y311166D01*
X357885Y311344D01*
X357885Y326804D01*
X366405Y335323D01*
X366409Y335330D01*
X366415Y335334D01*
X366464Y335413D01*
X366516Y335490D01*
X366517Y335498D01*
X366521Y335504D01*
X366553Y335682D01*
X366553Y337582D01*
X369808Y340837D01*
X374412Y340837D01*
X377667Y337582D01*
X377667Y332978D01*
X374412Y329723D01*
X372512Y329723D01*
X372504Y329722D01*
X372496Y329723D01*
X372406Y329702D01*
X372315Y329684D01*
X372309Y329679D01*
X372301Y329677D01*
X372153Y329575D01*
X366163Y323585D01*
X366159Y323578D01*
X366153Y323574D01*
X366104Y323495D01*
X366052Y323418D01*
X366051Y323410D01*
X366047Y323404D01*
X366015Y323226D01*
X366015Y311344D01*
X366016Y311336D01*
X366015Y311328D01*
X366036Y311238D01*
X366054Y311147D01*
X366059Y311141D01*
X366061Y311133D01*
X366163Y310985D01*
X367507Y309642D01*
X367507Y305038D01*
X364252Y301783D01*
X359648Y301783D01*
G37*
%LPD*%
%LPC*%
G36*
X392433Y491997D02*
X392433Y491997D01*
X391540Y492890D01*
X391540Y509394D01*
X392433Y510287D01*
X408937Y510287D01*
X409830Y509394D01*
X409830Y492890D01*
X408937Y491997D01*
X392433Y491997D01*
G37*
%LPD*%
%LPC*%
G36*
X310118Y-3017D02*
X310118Y-3017D01*
X306863Y238D01*
X306863Y4842D01*
X309223Y7201D01*
X309227Y7208D01*
X309233Y7212D01*
X309282Y7291D01*
X309334Y7368D01*
X309335Y7376D01*
X309339Y7382D01*
X309371Y7560D01*
X309371Y22920D01*
X309370Y22928D01*
X309371Y22936D01*
X309350Y23026D01*
X309332Y23117D01*
X309327Y23123D01*
X309325Y23131D01*
X309223Y23279D01*
X306863Y25638D01*
X306863Y30242D01*
X310118Y33497D01*
X314722Y33497D01*
X317977Y30242D01*
X317977Y25638D01*
X315617Y23279D01*
X315613Y23272D01*
X315607Y23268D01*
X315558Y23189D01*
X315506Y23112D01*
X315505Y23104D01*
X315501Y23098D01*
X315469Y22920D01*
X315469Y7560D01*
X315470Y7552D01*
X315469Y7544D01*
X315490Y7454D01*
X315508Y7363D01*
X315513Y7357D01*
X315515Y7349D01*
X315617Y7201D01*
X317977Y4842D01*
X317977Y238D01*
X314722Y-3017D01*
X310118Y-3017D01*
G37*
%LPD*%
%LPC*%
G36*
X97241Y467105D02*
X97241Y467105D01*
X93880Y468497D01*
X91307Y471070D01*
X89915Y474431D01*
X89915Y478069D01*
X91307Y481430D01*
X93880Y484003D01*
X94095Y484092D01*
X95320Y484599D01*
X96544Y485106D01*
X97241Y485395D01*
X100879Y485395D01*
X104240Y484003D01*
X106813Y481430D01*
X108205Y478069D01*
X108205Y474431D01*
X106813Y471070D01*
X104240Y468497D01*
X103734Y468288D01*
X103733Y468288D01*
X102509Y467780D01*
X101284Y467273D01*
X100879Y467105D01*
X97241Y467105D01*
G37*
%LPD*%
%LPC*%
G36*
X97241Y566165D02*
X97241Y566165D01*
X93880Y567557D01*
X91307Y570130D01*
X89915Y573491D01*
X89915Y577129D01*
X91307Y580490D01*
X93880Y583063D01*
X94966Y583513D01*
X94967Y583513D01*
X96191Y584020D01*
X97241Y584455D01*
X100879Y584455D01*
X104240Y583063D01*
X106813Y580490D01*
X108205Y577129D01*
X108205Y573491D01*
X106813Y570130D01*
X104240Y567557D01*
X103381Y567201D01*
X103380Y567201D01*
X102156Y566694D01*
X100931Y566187D01*
X100879Y566165D01*
X97241Y566165D01*
G37*
%LPD*%
%LPC*%
G36*
X97241Y252475D02*
X97241Y252475D01*
X93880Y253867D01*
X91307Y256440D01*
X89915Y259801D01*
X89915Y263439D01*
X91307Y266800D01*
X93880Y269373D01*
X94248Y269525D01*
X95472Y270032D01*
X96697Y270539D01*
X97241Y270765D01*
X100879Y270765D01*
X104240Y269373D01*
X106813Y266800D01*
X108205Y263439D01*
X108205Y259801D01*
X106813Y256440D01*
X104240Y253867D01*
X103886Y253721D01*
X102662Y253214D01*
X101437Y252706D01*
X100879Y252475D01*
X97241Y252475D01*
G37*
%LPD*%
%LPC*%
G36*
X97241Y371855D02*
X97241Y371855D01*
X93880Y373247D01*
X91307Y375820D01*
X89915Y379181D01*
X89915Y382819D01*
X91307Y386180D01*
X93880Y388753D01*
X95047Y389236D01*
X96271Y389743D01*
X96272Y389743D01*
X97241Y390145D01*
X100879Y390145D01*
X104240Y388753D01*
X106813Y386180D01*
X108205Y382819D01*
X108205Y379181D01*
X106813Y375820D01*
X104240Y373247D01*
X103461Y372925D01*
X102236Y372417D01*
X101012Y371910D01*
X101011Y371910D01*
X100879Y371855D01*
X97241Y371855D01*
G37*
%LPD*%
%LPC*%
G36*
X214007Y182403D02*
X214007Y182403D01*
X210752Y185658D01*
X210752Y190262D01*
X214007Y193517D01*
X218611Y193517D01*
X220970Y191157D01*
X220977Y191153D01*
X220981Y191147D01*
X221060Y191098D01*
X221137Y191046D01*
X221145Y191045D01*
X221151Y191041D01*
X221329Y191009D01*
X228660Y191009D01*
X228668Y191010D01*
X228676Y191009D01*
X228766Y191030D01*
X228857Y191048D01*
X228863Y191053D01*
X228871Y191055D01*
X229019Y191157D01*
X231378Y193517D01*
X235982Y193517D01*
X239237Y190262D01*
X239237Y185658D01*
X235982Y182403D01*
X231378Y182403D01*
X229019Y184763D01*
X229012Y184767D01*
X229008Y184773D01*
X228929Y184822D01*
X228852Y184874D01*
X228844Y184875D01*
X228838Y184879D01*
X228660Y184911D01*
X221329Y184911D01*
X221321Y184910D01*
X221313Y184911D01*
X221223Y184890D01*
X221132Y184872D01*
X221126Y184867D01*
X221118Y184865D01*
X220970Y184763D01*
X218611Y182403D01*
X214007Y182403D01*
G37*
%LPD*%
%LPC*%
G36*
X357856Y194365D02*
X357856Y194365D01*
X354892Y195593D01*
X352623Y197862D01*
X351395Y200826D01*
X351395Y204034D01*
X352623Y206998D01*
X354892Y209267D01*
X355863Y209669D01*
X357088Y210177D01*
X357856Y210495D01*
X361064Y210495D01*
X364028Y209267D01*
X366297Y206998D01*
X367525Y204034D01*
X367525Y200826D01*
X366297Y197862D01*
X364028Y195593D01*
X363531Y195387D01*
X362307Y194880D01*
X361082Y194373D01*
X361064Y194365D01*
X357856Y194365D01*
G37*
%LPD*%
%LPC*%
G36*
X357856Y168965D02*
X357856Y168965D01*
X354892Y170193D01*
X352623Y172462D01*
X351395Y175426D01*
X351395Y178634D01*
X352623Y181598D01*
X354892Y183867D01*
X355954Y184307D01*
X357178Y184814D01*
X357856Y185095D01*
X361064Y185095D01*
X364028Y183867D01*
X366297Y181598D01*
X367525Y178634D01*
X367525Y175426D01*
X366297Y172462D01*
X364028Y170193D01*
X363622Y170025D01*
X362397Y169517D01*
X361173Y169010D01*
X361064Y168965D01*
X357856Y168965D01*
G37*
%LPD*%
%LPC*%
G36*
X154656Y92765D02*
X154656Y92765D01*
X151692Y93993D01*
X149423Y96262D01*
X148195Y99226D01*
X148195Y102434D01*
X149423Y105398D01*
X151692Y107667D01*
X151801Y107712D01*
X153025Y108219D01*
X154250Y108727D01*
X154656Y108895D01*
X157864Y108895D01*
X160828Y107667D01*
X163097Y105398D01*
X164325Y102434D01*
X164325Y99226D01*
X163097Y96262D01*
X160828Y93993D01*
X160694Y93937D01*
X160693Y93937D01*
X159469Y93430D01*
X158244Y92923D01*
X157864Y92765D01*
X154656Y92765D01*
G37*
%LPD*%
%LPC*%
G36*
X154656Y118165D02*
X154656Y118165D01*
X151692Y119393D01*
X149423Y121662D01*
X148195Y124626D01*
X148195Y127834D01*
X149423Y130798D01*
X151692Y133067D01*
X151710Y133075D01*
X152935Y133582D01*
X154159Y134089D01*
X154656Y134295D01*
X157864Y134295D01*
X160828Y133067D01*
X163097Y130798D01*
X164325Y127834D01*
X164325Y124626D01*
X163097Y121662D01*
X160828Y119393D01*
X160603Y119300D01*
X159378Y118792D01*
X158154Y118285D01*
X157864Y118165D01*
X154656Y118165D01*
G37*
%LPD*%
%LPC*%
G36*
X154656Y143565D02*
X154656Y143565D01*
X151692Y144793D01*
X149423Y147062D01*
X148195Y150026D01*
X148195Y153234D01*
X149423Y156198D01*
X151692Y158467D01*
X152844Y158944D01*
X154069Y159452D01*
X154656Y159695D01*
X157864Y159695D01*
X160828Y158467D01*
X163097Y156198D01*
X164325Y153234D01*
X164325Y150026D01*
X163097Y147062D01*
X160828Y144793D01*
X160512Y144662D01*
X159288Y144155D01*
X158063Y143648D01*
X157864Y143565D01*
X154656Y143565D01*
G37*
%LPD*%
%LPC*%
G36*
X357856Y143565D02*
X357856Y143565D01*
X354892Y144793D01*
X352623Y147062D01*
X351395Y150026D01*
X351395Y153234D01*
X352623Y156198D01*
X354892Y158467D01*
X356044Y158944D01*
X357269Y159452D01*
X357856Y159695D01*
X361064Y159695D01*
X364028Y158467D01*
X366297Y156198D01*
X367525Y153234D01*
X367525Y150026D01*
X366297Y147062D01*
X364028Y144793D01*
X363712Y144662D01*
X362488Y144155D01*
X361263Y143648D01*
X361064Y143565D01*
X357856Y143565D01*
G37*
%LPD*%
D10*
X320040Y673100D03*
D11*
X359460Y75430D03*
X359460Y100830D03*
X359460Y126230D03*
X359460Y151630D03*
X359460Y177030D03*
X359460Y202430D03*
X156260Y75430D03*
X156260Y100830D03*
X156260Y126230D03*
X156260Y151630D03*
X156260Y177030D03*
X156260Y202430D03*
D10*
X189230Y673100D03*
D12*
X99060Y355600D03*
X99060Y381000D03*
X99060Y450850D03*
X99060Y476250D03*
X99060Y549910D03*
X99060Y575310D03*
X99060Y236220D03*
X99060Y261620D03*
D13*
X184110Y499600D03*
X184110Y465600D03*
X318810Y499600D03*
X318810Y465600D03*
X182840Y401810D03*
X182840Y367810D03*
X317540Y401810D03*
X317540Y367810D03*
X185380Y606280D03*
X185380Y572280D03*
X320080Y606280D03*
X320080Y572280D03*
D14*
X281940Y146440D03*
X281940Y163440D03*
X259080Y146440D03*
X259080Y163440D03*
X236220Y146440D03*
X236220Y163440D03*
D15*
X39060Y143180D02*
X26980Y143180D01*
X26980Y70180D02*
X39060Y70180D01*
D16*
X71520Y98680D03*
X71520Y114680D03*
X83520Y90680D03*
X83520Y106680D03*
X83520Y122680D03*
D17*
X400685Y501142D03*
D12*
X400685Y466090D03*
D18*
X34290Y408940D03*
X34290Y506730D03*
X34290Y605790D03*
X378460Y666115D03*
X335280Y139700D03*
X187170Y182880D03*
X336550Y218440D03*
X242570Y59690D03*
X417830Y256540D03*
X276860Y92710D03*
X368300Y255270D03*
X185420Y-5080D03*
X303530Y-33020D03*
X400050Y396240D03*
X262890Y254000D03*
X189865Y267335D03*
X334010Y154742D03*
D19*
X333375Y154107D01*
X293370Y154107D01*
D18*
X293370Y154107D03*
X221615Y157480D03*
D19*
X222885Y157480D02*
X228172Y152193D01*
X222885Y157480D02*
X221615Y157480D01*
X228172Y152193D02*
X228172Y139678D01*
X289988Y139678D02*
X289988Y150486D01*
X293370Y153868D02*
X293370Y154107D01*
X293370Y153868D02*
X289988Y150486D01*
X237520Y130330D02*
X228172Y139678D01*
X237520Y130330D02*
X280641Y130330D01*
X289988Y139678D01*
D20*
X187325Y160655D03*
D19*
X156260Y191720D01*
X156260Y202430D01*
X338426Y147264D02*
X359460Y126230D01*
X282534Y125758D02*
X235626Y125758D01*
X304040Y147264D02*
X338426Y147264D01*
X304040Y147264D02*
X282534Y125758D01*
D18*
X217074Y147264D03*
D19*
X217074Y144310D02*
X235626Y125758D01*
X217074Y144310D02*
X217074Y147264D01*
D18*
X334010Y165100D03*
D19*
X294640Y165100D01*
X293370Y163830D01*
D18*
X293370Y163830D03*
X312420Y27940D03*
D19*
X312420Y2540D01*
D18*
X312420Y2540D03*
X280670Y105410D03*
D19*
X264894Y121186D01*
X233732Y121186D01*
X214484Y140434D01*
X196786Y140434D01*
X160190Y177030D02*
X156260Y177030D01*
X160190Y177030D02*
X196786Y140434D01*
D18*
X133350Y288290D03*
X225862Y254000D03*
D19*
X225862Y221409D01*
X227561Y219710D01*
X270510Y219710D01*
X287020Y203200D01*
X336550Y203200D01*
D18*
X336550Y203200D03*
D19*
X190500Y288290D02*
X133350Y288290D01*
D18*
X190500Y288290D03*
D19*
X236220Y146440D02*
X236220Y146050D01*
D18*
X247650Y138430D03*
D21*
X247650Y146050D02*
X236220Y146050D01*
D22*
X247650Y146050D02*
X281550Y146050D01*
X281940Y146440D01*
D21*
X247650Y146050D02*
X247650Y138430D01*
D23*
X258690Y146050D02*
X259080Y146440D01*
D21*
X258690Y146050D02*
X247650Y146050D01*
D20*
X247015Y172085D03*
D21*
X247650Y171450D01*
X247650Y146050D01*
D20*
X237490Y294640D03*
D22*
X237490Y335280D01*
D20*
X237490Y335280D03*
D18*
X372110Y335280D03*
D21*
X361950Y325120D01*
X361950Y307340D01*
D18*
X361950Y307340D03*
D20*
X185484Y172374D03*
D21*
X177800Y180058D01*
X177800Y213995D01*
D20*
X177800Y213995D03*
D18*
X216309Y187960D03*
D19*
X233680Y187960D01*
D18*
X233680Y187960D03*
D19*
X345353Y225973D02*
X355513Y225973D01*
X362427Y232887D01*
D18*
X362427Y232887D03*
X299085Y211455D03*
D19*
X299085Y218579D01*
X306953Y226447D01*
X344879Y226447D01*
X345353Y225973D01*
M02*
