G04 EAGLE Gerber RS-274X export*
G75*
%MOMM*%
%FSLAX34Y34*%
%LPD*%
%INTop Copper*%
%IPPOS*%
%AMOC8*
5,1,8,0,0,1.08239X$1,22.5*%
G01*
%ADD10C,4.800000*%
%ADD11R,1.000000X1.100000*%
%ADD12R,0.830000X0.630000*%
%ADD13C,1.308000*%
%ADD14R,1.800000X1.000000*%
%ADD15C,1.524000*%
%ADD16R,0.800000X0.800000*%
%ADD17C,0.300000*%
%ADD18R,1.550000X1.300000*%
%ADD19R,1.100000X1.000000*%
%ADD20R,0.550000X1.200000*%
%ADD21R,1.900000X1.100000*%
%ADD22C,2.625000*%
%ADD23R,1.500000X0.500000*%
%ADD24R,0.500000X1.500000*%
%ADD25C,1.208000*%
%ADD26C,1.208000*%
%ADD27R,1.524000X1.524000*%
%ADD28R,2.489200X1.752600*%
%ADD29R,1.752600X2.489200*%
%ADD30C,0.806400*%
%ADD31C,0.304800*%
%ADD32C,0.635000*%
%ADD33C,0.508000*%
%ADD34C,0.787400*%
%ADD35C,2.540000*%
%ADD36C,0.609600*%
%ADD37C,0.203200*%

G36*
X345448Y348744D02*
X345448Y348744D01*
X345455Y348743D01*
X345545Y348764D01*
X345637Y348782D01*
X345643Y348787D01*
X345651Y348789D01*
X345799Y348891D01*
X348339Y351431D01*
X348343Y351438D01*
X348349Y351442D01*
X348398Y351521D01*
X348450Y351598D01*
X348451Y351606D01*
X348455Y351613D01*
X348487Y351790D01*
X348487Y480823D01*
X419100Y480823D01*
X419105Y480824D01*
X419110Y480823D01*
X419203Y480844D01*
X419297Y480862D01*
X419301Y480865D01*
X419306Y480866D01*
X419384Y480922D01*
X419462Y480975D01*
X419465Y480979D01*
X419469Y480982D01*
X419520Y481064D01*
X419572Y481143D01*
X419572Y481148D01*
X419575Y481153D01*
X419607Y481330D01*
X419607Y520065D01*
X419606Y520070D01*
X419607Y520075D01*
X419586Y520168D01*
X419568Y520262D01*
X419565Y520266D01*
X419564Y520271D01*
X419508Y520349D01*
X419455Y520427D01*
X419451Y520430D01*
X419448Y520434D01*
X419366Y520485D01*
X419287Y520537D01*
X419282Y520537D01*
X419277Y520540D01*
X419100Y520572D01*
X348487Y520572D01*
X348487Y697230D01*
X348487Y697232D01*
X348487Y697234D01*
X348486Y697239D01*
X348487Y697245D01*
X348466Y697335D01*
X348448Y697427D01*
X348443Y697433D01*
X348441Y697441D01*
X348339Y697589D01*
X344529Y701399D01*
X344522Y701403D01*
X344518Y701409D01*
X344439Y701458D01*
X344362Y701510D01*
X344354Y701511D01*
X344347Y701515D01*
X344170Y701547D01*
X294640Y701547D01*
X294632Y701546D01*
X294625Y701547D01*
X294535Y701526D01*
X294444Y701508D01*
X294437Y701503D01*
X294429Y701501D01*
X294281Y701399D01*
X246021Y653139D01*
X246017Y653132D01*
X246011Y653128D01*
X245962Y653049D01*
X245910Y652972D01*
X245909Y652964D01*
X245905Y652957D01*
X245873Y652780D01*
X245873Y349250D01*
X245874Y349245D01*
X245873Y349240D01*
X245894Y349147D01*
X245912Y349054D01*
X245915Y349049D01*
X245916Y349044D01*
X245972Y348966D01*
X246025Y348888D01*
X246029Y348885D01*
X246032Y348881D01*
X246114Y348830D01*
X246193Y348778D01*
X246198Y348778D01*
X246203Y348775D01*
X246380Y348743D01*
X345440Y348743D01*
X345448Y348744D01*
G37*
D10*
X320040Y673100D03*
D11*
X345440Y237880D03*
X345440Y254880D03*
X414020Y303140D03*
X414020Y286140D03*
X264160Y75320D03*
X264160Y92320D03*
X321310Y237880D03*
X321310Y254880D03*
X242570Y92320D03*
X242570Y75320D03*
X394970Y239150D03*
X394970Y256150D03*
X218440Y92320D03*
X218440Y75320D03*
X336550Y120260D03*
X336550Y103260D03*
D12*
X358140Y322510D03*
X358140Y345510D03*
D13*
X359460Y75430D03*
X359460Y100830D03*
X359460Y126230D03*
X359460Y151630D03*
X359460Y177030D03*
X359460Y202430D03*
X156260Y75430D03*
X156260Y100830D03*
X156260Y126230D03*
X156260Y151630D03*
X156260Y177030D03*
X156260Y202430D03*
D14*
X373380Y397540D03*
X373380Y369540D03*
D10*
X189230Y673100D03*
D15*
X99060Y355600D03*
X99060Y381000D03*
X99060Y450850D03*
X99060Y476250D03*
X99060Y549910D03*
X99060Y575310D03*
X99060Y236220D03*
X99060Y261620D03*
D16*
X263405Y635D03*
X248405Y635D03*
X400050Y384690D03*
X400050Y369690D03*
D17*
X381960Y638365D02*
X374960Y638365D01*
X374960Y645365D01*
X381960Y645365D01*
X381960Y638365D01*
X381960Y641215D02*
X374960Y641215D01*
X374960Y644065D02*
X381960Y644065D01*
X381960Y620825D02*
X374960Y620825D01*
X374960Y627825D01*
X381960Y627825D01*
X381960Y620825D01*
X381960Y623675D02*
X374960Y623675D01*
X374960Y626525D02*
X381960Y626525D01*
D18*
X222500Y-50440D03*
X145800Y-50440D03*
X145800Y-5440D03*
X222500Y-5440D03*
X295660Y-5440D03*
X372360Y-5440D03*
X372360Y-50440D03*
X295660Y-50440D03*
D19*
X125095Y11185D03*
X125095Y28185D03*
D11*
X396240Y353940D03*
X396240Y336940D03*
X370840Y575555D03*
X370840Y558555D03*
D19*
X86750Y288290D03*
X103750Y288290D03*
D11*
X116205Y72145D03*
X116205Y89145D03*
X394970Y107560D03*
X394970Y90560D03*
X127000Y143755D03*
X127000Y126755D03*
D19*
X415290Y35950D03*
X415290Y52950D03*
D20*
X371500Y284179D03*
X381000Y284179D03*
X390500Y284179D03*
X390500Y310181D03*
X371500Y310181D03*
D21*
X287570Y54540D03*
X324570Y77540D03*
X287570Y77540D03*
X324570Y54540D03*
D22*
X184110Y499600D03*
X184110Y465600D03*
X318810Y499600D03*
X318810Y465600D03*
X182840Y401810D03*
X182840Y367810D03*
X317540Y401810D03*
X317540Y367810D03*
X185380Y606280D03*
X185380Y572280D03*
X320080Y606280D03*
X320080Y572280D03*
D19*
X86750Y506730D03*
X103750Y506730D03*
X86750Y408940D03*
X103750Y408940D03*
X86750Y605790D03*
X103750Y605790D03*
D17*
X51880Y609290D02*
X51880Y602290D01*
X44880Y602290D01*
X44880Y609290D01*
X51880Y609290D01*
X51880Y605140D02*
X44880Y605140D01*
X44880Y607990D02*
X51880Y607990D01*
X69420Y609290D02*
X69420Y602290D01*
X62420Y602290D01*
X62420Y609290D01*
X69420Y609290D01*
X69420Y605140D02*
X62420Y605140D01*
X62420Y607990D02*
X69420Y607990D01*
X51880Y412440D02*
X51880Y405440D01*
X44880Y405440D01*
X44880Y412440D01*
X51880Y412440D01*
X51880Y408290D02*
X44880Y408290D01*
X44880Y411140D02*
X51880Y411140D01*
X69420Y412440D02*
X69420Y405440D01*
X62420Y405440D01*
X62420Y412440D01*
X69420Y412440D01*
X69420Y408290D02*
X62420Y408290D01*
X62420Y411140D02*
X69420Y411140D01*
X51880Y503230D02*
X51880Y510230D01*
X51880Y503230D02*
X44880Y503230D01*
X44880Y510230D01*
X51880Y510230D01*
X51880Y506080D02*
X44880Y506080D01*
X44880Y508930D02*
X51880Y508930D01*
X69420Y510230D02*
X69420Y503230D01*
X62420Y503230D01*
X62420Y510230D01*
X69420Y510230D01*
X69420Y506080D02*
X62420Y506080D01*
X62420Y508930D02*
X69420Y508930D01*
D23*
X201080Y219070D03*
X201080Y211070D03*
X201080Y203070D03*
X201080Y195070D03*
X201080Y187070D03*
X201080Y179070D03*
X201080Y171070D03*
X201080Y163070D03*
X201080Y155070D03*
X201080Y147070D03*
X201080Y139070D03*
D24*
X219080Y121070D03*
X227080Y121070D03*
X235080Y121070D03*
X243080Y121070D03*
X251080Y121070D03*
X259080Y121070D03*
X267080Y121070D03*
X275080Y121070D03*
X283080Y121070D03*
X291080Y121070D03*
X299080Y121070D03*
D23*
X317080Y139070D03*
X317080Y147070D03*
X317080Y155070D03*
X317080Y163070D03*
X317080Y171070D03*
X317080Y179070D03*
X317080Y187070D03*
X317080Y195070D03*
X317080Y203070D03*
X317080Y211070D03*
X317080Y219070D03*
D24*
X299080Y237070D03*
X291080Y237070D03*
X283080Y237070D03*
X275080Y237070D03*
X267080Y237070D03*
X259080Y237070D03*
X251080Y237070D03*
X243080Y237070D03*
X235080Y237070D03*
X227080Y237070D03*
X219080Y237070D03*
D12*
X105410Y147390D03*
X105410Y124390D03*
D25*
X39060Y143180D02*
X26980Y143180D01*
X26980Y70180D02*
X39060Y70180D01*
D26*
X71520Y98680D03*
X71520Y114680D03*
X83520Y90680D03*
X83520Y106680D03*
X83520Y122680D03*
D11*
X195580Y235340D03*
X195580Y252340D03*
X125095Y-37075D03*
X125095Y-20075D03*
X443865Y52950D03*
X443865Y35950D03*
D27*
X400685Y501142D03*
D15*
X400685Y466090D03*
D28*
X269367Y303530D03*
X313563Y303530D03*
D29*
X425450Y152527D03*
X425450Y196723D03*
D30*
X34290Y408940D03*
D31*
X48380Y408940D01*
X48380Y506730D02*
X34290Y506730D01*
D30*
X34290Y506730D03*
D31*
X34290Y605790D02*
X48380Y605790D01*
D30*
X34290Y605790D03*
D32*
X378460Y641865D02*
X378460Y666115D01*
D30*
X378460Y666115D03*
D31*
X334650Y139070D02*
X317080Y139070D01*
X334650Y139070D02*
X335280Y139700D01*
D30*
X335280Y139700D03*
D31*
X201080Y187070D02*
X191360Y187070D01*
X187170Y182880D01*
D30*
X187170Y182880D03*
D31*
X227080Y237070D02*
X235080Y237070D01*
X317080Y219070D02*
X335920Y219070D01*
X336550Y218440D01*
D30*
X336550Y218440D03*
D33*
X381000Y273050D02*
X381000Y284179D01*
X381000Y273050D02*
X394970Y259080D01*
X394970Y256150D01*
X414020Y275200D01*
X414020Y286140D01*
D32*
X345440Y254880D02*
X321310Y254880D01*
D31*
X336550Y103260D02*
X338980Y100830D01*
D33*
X359460Y100830D01*
D31*
X372360Y-50440D02*
X295660Y-50440D01*
X241300Y75320D02*
X218440Y75320D01*
X241300Y75320D02*
X242570Y75320D01*
X242570Y59690D01*
D30*
X242570Y59690D03*
D33*
X394970Y256150D02*
X417440Y256150D01*
D32*
X417830Y256540D01*
D30*
X417830Y256540D03*
D31*
X243080Y121070D02*
X243080Y111060D01*
X264160Y92320D02*
X276470Y92320D01*
X276860Y92710D01*
D30*
X276860Y92710D03*
X368300Y255270D03*
D32*
X345830Y255270D02*
X345440Y254880D01*
X345830Y255270D02*
X368300Y255270D01*
D30*
X185420Y-5080D03*
D31*
X295660Y-40890D02*
X295660Y-50440D01*
X295660Y-40890D02*
X303530Y-33020D01*
D30*
X303530Y-33020D03*
D31*
X185060Y-5440D02*
X145800Y-5440D01*
X185060Y-5440D02*
X185420Y-5080D01*
X222140Y-5080D01*
X222500Y-5440D01*
D30*
X400050Y396240D03*
D33*
X400050Y384690D01*
D31*
X235080Y243840D02*
X235080Y237070D01*
X235080Y243840D02*
X245110Y253870D01*
X280461Y254000D02*
X291080Y243381D01*
X291080Y237070D01*
D30*
X262890Y254000D03*
D31*
X262760Y253870D02*
X245110Y253870D01*
X262760Y253870D02*
X262890Y254000D01*
X280461Y254000D01*
D32*
X33020Y143180D02*
X33020Y70180D01*
X63020Y70180D02*
X83520Y90680D01*
X63020Y70180D02*
X33020Y70180D01*
D33*
X195580Y252340D02*
X195580Y261620D01*
X189865Y267335D01*
D30*
X189865Y267335D03*
D31*
X139730Y-5440D02*
X125095Y-20075D01*
X139730Y-5440D02*
X145800Y-5440D01*
X443865Y21065D02*
X443865Y35950D01*
X443865Y21065D02*
X372360Y-50440D01*
D33*
X321310Y295783D02*
X313563Y303530D01*
X321310Y295783D02*
X321310Y254880D01*
X417440Y204733D02*
X425450Y196723D01*
X417440Y204733D02*
X417440Y256150D01*
D31*
X241300Y78780D02*
X241300Y75320D01*
X241300Y78780D02*
X234522Y85558D01*
X234522Y102502D01*
X243080Y111060D01*
D30*
X334010Y154742D03*
X293370Y154107D03*
D31*
X219205Y155070D02*
X201080Y155070D01*
X219205Y155070D02*
X221615Y157480D01*
D30*
X221615Y157480D03*
D31*
X334010Y154742D02*
X356348Y154742D01*
X359460Y151630D01*
D33*
X396240Y353940D02*
X400050Y357750D01*
X400050Y369690D01*
D34*
X187325Y160655D03*
D31*
X198628Y141522D02*
X201080Y139070D01*
X198628Y141522D02*
X192318Y141522D01*
X187325Y146515D01*
X187325Y160655D01*
X201080Y147070D02*
X216880Y147070D01*
X217074Y147264D01*
D30*
X217074Y147264D03*
D31*
X242570Y101600D02*
X242570Y92320D01*
X242570Y101600D02*
X251460Y110490D01*
X251460Y120690D01*
X251080Y121070D01*
X242570Y92320D02*
X256112Y78778D01*
X256112Y68558D01*
X270130Y54540D01*
X287570Y54540D01*
X270480Y75320D02*
X264160Y75320D01*
X270480Y75320D02*
X276808Y68992D01*
X316022Y68992D01*
X324570Y77540D01*
X256112Y85558D02*
X256112Y99083D01*
X264160Y77510D02*
X264160Y75320D01*
X264160Y77510D02*
X256112Y85558D01*
X256112Y99083D02*
X259080Y102051D01*
X259080Y121070D01*
X379750Y107560D02*
X394970Y107560D01*
X379750Y107560D02*
X363092Y90902D01*
X329248Y90902D02*
X299080Y121070D01*
X329248Y90902D02*
X363092Y90902D01*
X394970Y25400D02*
X379730Y10160D01*
X394970Y25400D02*
X394970Y90560D01*
X272930Y10160D02*
X263405Y635D01*
X272930Y10160D02*
X379730Y10160D01*
D33*
X358140Y345510D02*
X373380Y360750D01*
X373380Y369540D01*
D31*
X222500Y-50440D02*
X145800Y-50440D01*
X227080Y121070D02*
X227080Y127381D01*
X125095Y-37075D02*
X138460Y-50440D01*
X145800Y-50440D01*
X125095Y28185D02*
X175015Y78105D01*
X193040Y78105D01*
X205105Y90170D01*
X205105Y100330D01*
X211455Y106680D01*
X220980Y106680D01*
X227080Y112780D01*
X227080Y121070D01*
X135548Y21893D02*
X135548Y6828D01*
X125095Y-34886D02*
X125095Y-37075D01*
X125095Y-34886D02*
X116412Y-26203D01*
X135548Y21893D02*
X129256Y28185D01*
X125095Y28185D01*
X116412Y-12309D02*
X116412Y-26203D01*
X116412Y-12309D02*
X135548Y6828D01*
D30*
X334010Y165100D03*
X293370Y163830D03*
D31*
X292353Y164847D01*
X334010Y165100D02*
X345940Y177030D01*
X359460Y177030D01*
X202857Y164847D02*
X201080Y163070D01*
X202857Y164847D02*
X292353Y164847D01*
D32*
X378460Y583175D02*
X378460Y624325D01*
X378460Y583175D02*
X370840Y575555D01*
D31*
X306950Y-2930D02*
X298170Y-2930D01*
X295660Y-5440D01*
D30*
X312420Y27940D03*
X312420Y2540D03*
D31*
X306950Y-2930D01*
D30*
X280670Y105410D03*
D31*
X320400Y-5440D02*
X372360Y-5440D01*
X320400Y-5440D02*
X312420Y2540D01*
X404690Y42350D02*
X415290Y52950D01*
X337118Y84303D02*
X335333Y86088D01*
X337118Y84303D02*
X337118Y70778D01*
X299992Y86088D02*
X280670Y105410D01*
X299992Y86088D02*
X335333Y86088D01*
X315140Y64420D02*
X312022Y61303D01*
X330761Y64420D02*
X337118Y70778D01*
X330761Y64420D02*
X315140Y64420D01*
X280670Y105410D02*
X280670Y109220D01*
X283210Y111760D01*
X283210Y120940D01*
X283080Y121070D01*
X404690Y26890D02*
X372360Y-5440D01*
X404690Y26890D02*
X404690Y42350D01*
X312420Y27940D02*
X312022Y28338D01*
X312022Y61303D01*
X415290Y52950D02*
X443865Y52950D01*
X133350Y288290D02*
X103750Y288290D01*
D30*
X133350Y288290D03*
X225862Y254000D03*
X336550Y203200D03*
D31*
X317210Y203200D01*
X317080Y203070D01*
D30*
X190500Y288290D03*
D31*
X191572Y288290D02*
X225862Y254000D01*
X191572Y288290D02*
X190500Y288290D01*
X321310Y171070D02*
X323391Y171070D01*
X321310Y171070D02*
X317080Y171070D01*
X323391Y171070D02*
X328100Y171070D01*
X359460Y202430D01*
D35*
X182840Y401810D02*
X142730Y401810D01*
D36*
X104140Y408550D02*
X103750Y408940D01*
X104140Y408550D02*
X104140Y392938D01*
D35*
X121920Y381000D02*
X142730Y401810D01*
X121920Y381000D02*
X99060Y381000D01*
X182840Y367810D02*
X182840Y401810D01*
D32*
X104140Y392938D02*
X99060Y387858D01*
X99060Y381000D01*
D35*
X184110Y465600D02*
X184110Y499600D01*
X179030Y494520D01*
X137650Y494520D01*
X119380Y476250D01*
X104013Y476250D02*
X99060Y476250D01*
X104013Y476250D02*
X119380Y476250D01*
D32*
X104140Y506340D02*
X103750Y506730D01*
X104140Y476377D02*
X104013Y476250D01*
X104140Y476377D02*
X104140Y506340D01*
D35*
X159240Y606280D02*
X185380Y606280D01*
X128270Y575310D02*
X104013Y575310D01*
X99060Y575310D01*
X128270Y575310D02*
X159240Y606280D01*
X185380Y606280D02*
X185380Y572280D01*
D36*
X103750Y584590D02*
X103750Y605790D01*
X103750Y584590D02*
X104140Y584200D01*
D37*
X104013Y584073D01*
X104013Y575310D01*
D31*
X86750Y288290D02*
X86750Y273930D01*
X99060Y261620D01*
D36*
X86750Y605790D02*
X65920Y605790D01*
X65920Y408940D02*
X86750Y408940D01*
X86750Y506730D02*
X65920Y506730D01*
D31*
X146050Y158750D02*
X146050Y127390D01*
X146050Y158750D02*
X152400Y165100D01*
X167640Y165100D01*
X175260Y172720D01*
X175260Y186690D01*
X183640Y195070D01*
X201080Y195070D01*
X146050Y127390D02*
X116205Y97545D01*
X116205Y89145D01*
X127000Y126755D02*
X127000Y128990D01*
X133217Y135207D01*
X133263Y135207D01*
X198628Y200618D02*
X201080Y203070D01*
X141478Y143423D02*
X133263Y135207D01*
X141478Y143423D02*
X141478Y168764D01*
X141476Y168879D01*
X141470Y168993D01*
X141461Y169107D01*
X141447Y169221D01*
X141430Y169334D01*
X141409Y169447D01*
X141385Y169559D01*
X141356Y169670D01*
X141324Y169780D01*
X141288Y169889D01*
X141249Y169996D01*
X141206Y170103D01*
X141159Y170207D01*
X141109Y170311D01*
X141056Y170412D01*
X140999Y170511D01*
X140939Y170609D01*
X140876Y170705D01*
X140810Y170798D01*
X140740Y170889D01*
X140668Y170978D01*
X140592Y171064D01*
X140514Y171148D01*
X140433Y171229D01*
X140349Y171307D01*
X140263Y171383D01*
X140174Y171455D01*
X140083Y171525D01*
X139990Y171591D01*
X139894Y171654D01*
X139796Y171714D01*
X139697Y171771D01*
X139596Y171824D01*
X139492Y171874D01*
X139388Y171921D01*
X139281Y171964D01*
X139174Y172003D01*
X139065Y172039D01*
X138955Y172071D01*
X138844Y172100D01*
X138732Y172124D01*
X138619Y172145D01*
X138506Y172162D01*
X138392Y172176D01*
X138278Y172185D01*
X138164Y172191D01*
X138049Y172193D01*
X128372Y172193D01*
X128257Y172195D01*
X128143Y172201D01*
X128029Y172210D01*
X127915Y172224D01*
X127802Y172241D01*
X127689Y172262D01*
X127577Y172286D01*
X127466Y172315D01*
X127356Y172347D01*
X127247Y172383D01*
X127140Y172422D01*
X127033Y172465D01*
X126929Y172512D01*
X126825Y172562D01*
X126724Y172615D01*
X126625Y172672D01*
X126527Y172732D01*
X126431Y172795D01*
X126338Y172861D01*
X126247Y172931D01*
X126158Y173003D01*
X126072Y173079D01*
X125988Y173157D01*
X125907Y173238D01*
X125829Y173322D01*
X125753Y173408D01*
X125681Y173497D01*
X125611Y173588D01*
X125545Y173681D01*
X125482Y173777D01*
X125422Y173875D01*
X125365Y173974D01*
X125312Y174075D01*
X125262Y174179D01*
X125215Y174283D01*
X125172Y174390D01*
X125133Y174497D01*
X125097Y174606D01*
X125065Y174716D01*
X125036Y174827D01*
X125012Y174939D01*
X124991Y175052D01*
X124974Y175165D01*
X124960Y175279D01*
X124951Y175393D01*
X124945Y175507D01*
X124943Y175622D01*
X124943Y181015D01*
X124945Y181130D01*
X124951Y181244D01*
X124960Y181358D01*
X124974Y181472D01*
X124991Y181585D01*
X125012Y181698D01*
X125036Y181810D01*
X125065Y181921D01*
X125097Y182031D01*
X125133Y182140D01*
X125172Y182247D01*
X125215Y182354D01*
X125262Y182458D01*
X125312Y182562D01*
X125365Y182663D01*
X125422Y182762D01*
X125482Y182860D01*
X125545Y182956D01*
X125611Y183049D01*
X125681Y183140D01*
X125753Y183229D01*
X125829Y183315D01*
X125907Y183399D01*
X125988Y183480D01*
X126072Y183558D01*
X126158Y183634D01*
X126247Y183706D01*
X126338Y183776D01*
X126431Y183842D01*
X126527Y183905D01*
X126625Y183965D01*
X126724Y184022D01*
X126825Y184075D01*
X126929Y184125D01*
X127033Y184172D01*
X127140Y184215D01*
X127247Y184254D01*
X127356Y184290D01*
X127466Y184322D01*
X127577Y184351D01*
X127689Y184375D01*
X127802Y184396D01*
X127915Y184413D01*
X128029Y184427D01*
X128143Y184436D01*
X128257Y184442D01*
X128372Y184444D01*
X138049Y184444D01*
X138164Y184446D01*
X138278Y184452D01*
X138392Y184461D01*
X138506Y184475D01*
X138619Y184492D01*
X138732Y184513D01*
X138844Y184537D01*
X138955Y184566D01*
X139065Y184598D01*
X139174Y184634D01*
X139281Y184673D01*
X139388Y184716D01*
X139492Y184763D01*
X139596Y184813D01*
X139697Y184866D01*
X139796Y184923D01*
X139894Y184983D01*
X139990Y185046D01*
X140083Y185112D01*
X140174Y185182D01*
X140263Y185254D01*
X140349Y185330D01*
X140433Y185408D01*
X140514Y185489D01*
X140592Y185573D01*
X140668Y185659D01*
X140740Y185748D01*
X140810Y185839D01*
X140876Y185932D01*
X140939Y186028D01*
X140999Y186126D01*
X141056Y186225D01*
X141109Y186326D01*
X141159Y186430D01*
X141206Y186534D01*
X141249Y186641D01*
X141288Y186748D01*
X141324Y186857D01*
X141356Y186967D01*
X141385Y187078D01*
X141409Y187190D01*
X141430Y187303D01*
X141447Y187416D01*
X141461Y187530D01*
X141470Y187644D01*
X141476Y187758D01*
X141478Y187873D01*
X145939Y192333D01*
X182722Y200618D02*
X198628Y200618D01*
X182722Y200618D02*
X174437Y192333D01*
X145939Y192333D01*
D32*
X345050Y558555D02*
X370840Y558555D01*
D33*
X373380Y397540D02*
X341660Y397540D01*
D30*
X247650Y138430D03*
D33*
X242489Y133269D02*
X238634Y133269D01*
X242489Y133269D02*
X247650Y138430D01*
X238634Y133269D02*
X235080Y129715D01*
X295263Y225506D02*
X297644Y227887D01*
X222897Y225506D02*
X220516Y227887D01*
X222897Y225506D02*
X295263Y225506D01*
X297644Y235634D02*
X299080Y237070D01*
X297644Y235634D02*
X297644Y227887D01*
X220516Y227887D02*
X220516Y235634D01*
X219080Y237070D01*
X217897Y227887D02*
X220516Y227887D01*
X202516Y212506D02*
X201080Y211070D01*
X202516Y212506D02*
X210263Y212506D01*
X212644Y214887D01*
X212644Y222634D01*
X217897Y227887D01*
X210263Y212506D02*
X225425Y197344D01*
X202516Y172506D02*
X201080Y171070D01*
X216114Y176316D02*
X225425Y185627D01*
X216114Y176316D02*
X212305Y172506D01*
X202516Y172506D01*
X225425Y185627D02*
X225425Y197344D01*
X216114Y176316D02*
X242784Y176316D01*
X247015Y172085D01*
D34*
X247015Y172085D03*
D33*
X247650Y138430D02*
X299348Y138430D01*
X315644Y145634D02*
X317080Y147070D01*
X306552Y145634D02*
X299348Y138430D01*
X306552Y145634D02*
X315644Y145634D01*
D32*
X299080Y237070D02*
X298279Y237871D01*
X298279Y246516D01*
X276825Y267970D01*
X262890Y267970D01*
X237490Y293370D01*
X237490Y294640D01*
D34*
X237490Y294640D03*
X237490Y335280D03*
D32*
X237490Y342265D01*
X252730Y357505D01*
D33*
X235080Y121070D02*
X233644Y119634D01*
X218440Y96237D02*
X218440Y92320D01*
X218440Y96237D02*
X233644Y111441D01*
X233644Y119634D01*
X205566Y78693D02*
X205566Y64327D01*
X248405Y21488D02*
X248405Y635D01*
X248405Y21488D02*
X205566Y64327D01*
X218440Y91567D02*
X218440Y92320D01*
X218440Y91567D02*
X205566Y78693D01*
X235080Y121070D02*
X235080Y129715D01*
X171860Y141485D02*
X171860Y158750D01*
X321310Y237880D02*
X345440Y237880D01*
D30*
X372110Y335280D03*
X361950Y307340D03*
D33*
X378032Y-23161D02*
X295489Y-23161D01*
X372110Y335280D02*
X394580Y335280D01*
X396240Y336940D01*
X371500Y303635D02*
X362228Y294362D01*
X361950Y294640D02*
X361950Y307340D01*
X361950Y294640D02*
X362228Y294362D01*
X197310Y237070D02*
X195580Y235340D01*
X156260Y126230D02*
X156260Y100830D01*
X156260Y126230D02*
X171515Y141485D01*
X171860Y141485D01*
X393183Y120260D02*
X425450Y152527D01*
X350434Y120260D02*
X336550Y120260D01*
X350434Y120260D02*
X355068Y115626D01*
X363852Y115626D01*
X368486Y120260D01*
X386715Y120260D01*
X393183Y120260D01*
X386715Y120260D02*
X386715Y196605D01*
X345440Y237880D01*
X371654Y247174D02*
X376396Y251917D01*
X376396Y258624D01*
X354734Y247174D02*
X345440Y237880D01*
X362228Y272792D02*
X362228Y294362D01*
X354734Y247174D02*
X371654Y247174D01*
X376396Y258624D02*
X362228Y272792D01*
X106506Y-12892D02*
X106506Y-43623D01*
X134327Y-71444D01*
X125095Y5697D02*
X125095Y11185D01*
X125095Y5697D02*
X106506Y-12892D01*
X156260Y90426D02*
X156260Y100830D01*
X156260Y90426D02*
X115531Y49697D01*
X115531Y20749D02*
X125095Y11185D01*
X115531Y20749D02*
X115531Y49697D01*
D34*
X185484Y172374D03*
X177800Y213995D03*
D33*
X195580Y231775D01*
X195580Y235340D01*
X185484Y172374D02*
X171860Y158750D01*
X371500Y303635D02*
X371500Y310181D01*
X456104Y8227D02*
X376433Y-71444D01*
X247206Y-71444D01*
X134327Y-71444D01*
X247206Y-71444D02*
X295489Y-23161D01*
X456104Y8227D02*
X456104Y63943D01*
X425450Y94597D02*
X425450Y152527D01*
X425450Y94597D02*
X456104Y63943D01*
X415290Y35950D02*
X415290Y14097D01*
X378032Y-23161D01*
D30*
X216309Y187960D03*
D31*
X216281Y187960D01*
D30*
X233680Y187960D03*
X362427Y232887D03*
D31*
X388707Y232887D01*
X394970Y239150D01*
X257175Y211455D02*
X233680Y187960D01*
X257175Y211455D02*
X299085Y211455D01*
D30*
X299085Y211455D03*
D31*
X207391Y179070D02*
X201080Y179070D01*
X207391Y179070D02*
X216281Y187960D01*
D33*
X406979Y310181D02*
X414020Y303140D01*
X406979Y310181D02*
X390500Y310181D01*
X85230Y124390D02*
X83520Y122680D01*
X85230Y124390D02*
X105410Y124390D01*
D31*
X79756Y131768D02*
X74432Y126444D01*
X113386Y143755D02*
X127000Y143755D01*
X74432Y117592D02*
X71520Y114680D01*
X74432Y117592D02*
X74432Y126444D01*
X101399Y131768D02*
X113386Y143755D01*
X101399Y131768D02*
X79756Y131768D01*
X83520Y106680D02*
X99902Y90298D01*
X99902Y81748D01*
X109505Y72145D02*
X116205Y72145D01*
X109505Y72145D02*
X99902Y81748D01*
D33*
X251460Y331470D02*
X314960Y331470D01*
X219710Y299720D02*
X186690Y299720D01*
X224790Y304800D02*
X251460Y331470D01*
X224790Y304800D02*
X219710Y299720D01*
X224790Y304800D02*
X242540Y304800D01*
X390500Y292760D02*
X390500Y284179D01*
X382270Y314806D02*
X376196Y320880D01*
X359770Y320880D01*
X358140Y322510D01*
X371500Y291490D02*
X371500Y284179D01*
X371500Y291490D02*
X375920Y295910D01*
X387350Y295910D02*
X390500Y292760D01*
X382270Y295910D02*
X375920Y295910D01*
X382270Y295910D02*
X387350Y295910D01*
X382270Y295910D02*
X382270Y314806D01*
X186690Y299720D02*
X166370Y279400D01*
X323920Y322510D02*
X358140Y322510D01*
X323920Y322510D02*
X314960Y331470D01*
X166370Y241370D02*
X105410Y180410D01*
X166370Y241370D02*
X166370Y279400D01*
X105410Y180410D02*
X105410Y147390D01*
X243810Y303530D02*
X242540Y304800D01*
X243810Y303530D02*
X269367Y303530D01*
M02*
