G04 EAGLE Gerber RS-274X export*
G75*
%MOMM*%
%FSLAX34Y34*%
%LPD*%
%IN*%
%IPPOS*%
%AMOC8*
5,1,8,0,0,1.08239X$1,22.5*%
G01*
%ADD10C,0.254000*%


D10*
X12700Y-86360D02*
X474980Y-86360D01*
X476250Y715010D01*
X13970Y715010D01*
X12700Y-86360D01*
X27020Y66680D02*
X39020Y66680D01*
X39325Y66693D01*
X39628Y66733D01*
X39926Y66799D01*
X40217Y66891D01*
X40499Y67008D01*
X40770Y67149D01*
X41028Y67313D01*
X41270Y67499D01*
X41495Y67705D01*
X41701Y67930D01*
X41887Y68172D01*
X42051Y68430D01*
X42192Y68701D01*
X42309Y68983D01*
X42401Y69274D01*
X42467Y69572D01*
X42507Y69875D01*
X42520Y70180D01*
X42507Y70485D01*
X42467Y70788D01*
X42401Y71086D01*
X42309Y71377D01*
X42192Y71659D01*
X42051Y71930D01*
X41887Y72188D01*
X41701Y72430D01*
X41495Y72655D01*
X41270Y72861D01*
X41028Y73047D01*
X40770Y73211D01*
X40499Y73352D01*
X40217Y73469D01*
X39926Y73561D01*
X39628Y73627D01*
X39325Y73667D01*
X39020Y73680D01*
X27020Y73680D01*
X26715Y73667D01*
X26412Y73627D01*
X26114Y73561D01*
X25823Y73469D01*
X25541Y73352D01*
X25270Y73211D01*
X25012Y73047D01*
X24770Y72861D01*
X24545Y72655D01*
X24339Y72430D01*
X24153Y72188D01*
X23989Y71930D01*
X23848Y71659D01*
X23731Y71377D01*
X23639Y71086D01*
X23573Y70788D01*
X23533Y70485D01*
X23520Y70180D01*
X23533Y69875D01*
X23573Y69572D01*
X23639Y69274D01*
X23731Y68983D01*
X23848Y68701D01*
X23989Y68430D01*
X24153Y68172D01*
X24339Y67930D01*
X24545Y67705D01*
X24770Y67499D01*
X25012Y67313D01*
X25270Y67149D01*
X25541Y67008D01*
X25823Y66891D01*
X26114Y66799D01*
X26412Y66733D01*
X26715Y66693D01*
X27020Y66680D01*
X27020Y139680D02*
X39020Y139680D01*
X39325Y139693D01*
X39628Y139733D01*
X39926Y139799D01*
X40217Y139891D01*
X40499Y140008D01*
X40770Y140149D01*
X41028Y140313D01*
X41270Y140499D01*
X41495Y140705D01*
X41701Y140930D01*
X41887Y141172D01*
X42051Y141430D01*
X42192Y141701D01*
X42309Y141983D01*
X42401Y142274D01*
X42467Y142572D01*
X42507Y142875D01*
X42520Y143180D01*
X42507Y143485D01*
X42467Y143788D01*
X42401Y144086D01*
X42309Y144377D01*
X42192Y144659D01*
X42051Y144930D01*
X41887Y145188D01*
X41701Y145430D01*
X41495Y145655D01*
X41270Y145861D01*
X41028Y146047D01*
X40770Y146211D01*
X40499Y146352D01*
X40217Y146469D01*
X39926Y146561D01*
X39628Y146627D01*
X39325Y146667D01*
X39020Y146680D01*
X27020Y146680D01*
X26715Y146667D01*
X26412Y146627D01*
X26114Y146561D01*
X25823Y146469D01*
X25541Y146352D01*
X25270Y146211D01*
X25012Y146047D01*
X24770Y145861D01*
X24545Y145655D01*
X24339Y145430D01*
X24153Y145188D01*
X23989Y144930D01*
X23848Y144659D01*
X23731Y144377D01*
X23639Y144086D01*
X23573Y143788D01*
X23533Y143485D01*
X23520Y143180D01*
X23533Y142875D01*
X23573Y142572D01*
X23639Y142274D01*
X23731Y141983D01*
X23848Y141701D01*
X23989Y141430D01*
X24153Y141172D01*
X24339Y140930D01*
X24545Y140705D01*
X24770Y140499D01*
X25012Y140313D01*
X25270Y140149D01*
X25541Y140008D01*
X25823Y139891D01*
X26114Y139799D01*
X26412Y139733D01*
X26715Y139693D01*
X27020Y139680D01*
X72073Y674972D02*
X71998Y673638D01*
X71848Y672310D01*
X71624Y670993D01*
X71327Y669690D01*
X70957Y668406D01*
X70516Y667145D01*
X70004Y665910D01*
X69424Y664706D01*
X68778Y663537D01*
X68067Y662405D01*
X67294Y661316D01*
X66461Y660271D01*
X65570Y659274D01*
X64626Y658330D01*
X63629Y657439D01*
X62585Y656606D01*
X61495Y655833D01*
X60363Y655122D01*
X59194Y654476D01*
X57990Y653896D01*
X56755Y653384D01*
X55494Y652943D01*
X54210Y652573D01*
X52907Y652276D01*
X51590Y652052D01*
X50262Y651902D01*
X48928Y651828D01*
X47592Y651828D01*
X46258Y651902D01*
X44930Y652052D01*
X43613Y652276D01*
X42310Y652573D01*
X41026Y652943D01*
X39765Y653384D01*
X38530Y653896D01*
X37326Y654476D01*
X36157Y655122D01*
X35025Y655833D01*
X33936Y656606D01*
X32891Y657439D01*
X31894Y658330D01*
X30950Y659274D01*
X30059Y660271D01*
X29226Y661316D01*
X28453Y662405D01*
X27742Y663537D01*
X27096Y664706D01*
X26516Y665910D01*
X26004Y667145D01*
X25563Y668406D01*
X25193Y669690D01*
X24896Y670993D01*
X24672Y672310D01*
X24522Y673638D01*
X24448Y674972D01*
X24448Y676308D01*
X24522Y677642D01*
X24672Y678970D01*
X24896Y680287D01*
X25193Y681590D01*
X25563Y682874D01*
X26004Y684135D01*
X26516Y685370D01*
X27096Y686574D01*
X27742Y687743D01*
X28453Y688875D01*
X29226Y689965D01*
X30059Y691009D01*
X30950Y692006D01*
X31894Y692950D01*
X32891Y693841D01*
X33936Y694674D01*
X35025Y695447D01*
X36157Y696158D01*
X37326Y696804D01*
X38530Y697384D01*
X39765Y697896D01*
X41026Y698337D01*
X42310Y698707D01*
X43613Y699004D01*
X44930Y699228D01*
X46258Y699378D01*
X47592Y699453D01*
X48928Y699453D01*
X50262Y699378D01*
X51590Y699228D01*
X52907Y699004D01*
X54210Y698707D01*
X55494Y698337D01*
X56755Y697896D01*
X57990Y697384D01*
X59194Y696804D01*
X60363Y696158D01*
X61495Y695447D01*
X62585Y694674D01*
X63629Y693841D01*
X64626Y692950D01*
X65570Y692006D01*
X66461Y691009D01*
X67294Y689965D01*
X68067Y688875D01*
X68778Y687743D01*
X69424Y686574D01*
X70004Y685370D01*
X70516Y684135D01*
X70957Y682874D01*
X71327Y681590D01*
X71624Y680287D01*
X71848Y678970D01*
X71998Y677642D01*
X72073Y676308D01*
X72073Y674972D01*
X463233Y674972D02*
X463158Y673638D01*
X463008Y672310D01*
X462784Y670993D01*
X462487Y669690D01*
X462117Y668406D01*
X461676Y667145D01*
X461164Y665910D01*
X460584Y664706D01*
X459938Y663537D01*
X459227Y662405D01*
X458454Y661316D01*
X457621Y660271D01*
X456730Y659274D01*
X455786Y658330D01*
X454789Y657439D01*
X453745Y656606D01*
X452655Y655833D01*
X451523Y655122D01*
X450354Y654476D01*
X449150Y653896D01*
X447915Y653384D01*
X446654Y652943D01*
X445370Y652573D01*
X444067Y652276D01*
X442750Y652052D01*
X441422Y651902D01*
X440088Y651828D01*
X438752Y651828D01*
X437418Y651902D01*
X436090Y652052D01*
X434773Y652276D01*
X433470Y652573D01*
X432186Y652943D01*
X430925Y653384D01*
X429690Y653896D01*
X428486Y654476D01*
X427317Y655122D01*
X426185Y655833D01*
X425096Y656606D01*
X424051Y657439D01*
X423054Y658330D01*
X422110Y659274D01*
X421219Y660271D01*
X420386Y661316D01*
X419613Y662405D01*
X418902Y663537D01*
X418256Y664706D01*
X417676Y665910D01*
X417164Y667145D01*
X416723Y668406D01*
X416353Y669690D01*
X416056Y670993D01*
X415832Y672310D01*
X415682Y673638D01*
X415608Y674972D01*
X415608Y676308D01*
X415682Y677642D01*
X415832Y678970D01*
X416056Y680287D01*
X416353Y681590D01*
X416723Y682874D01*
X417164Y684135D01*
X417676Y685370D01*
X418256Y686574D01*
X418902Y687743D01*
X419613Y688875D01*
X420386Y689965D01*
X421219Y691009D01*
X422110Y692006D01*
X423054Y692950D01*
X424051Y693841D01*
X425096Y694674D01*
X426185Y695447D01*
X427317Y696158D01*
X428486Y696804D01*
X429690Y697384D01*
X430925Y697896D01*
X432186Y698337D01*
X433470Y698707D01*
X434773Y699004D01*
X436090Y699228D01*
X437418Y699378D01*
X438752Y699453D01*
X440088Y699453D01*
X441422Y699378D01*
X442750Y699228D01*
X444067Y699004D01*
X445370Y698707D01*
X446654Y698337D01*
X447915Y697896D01*
X449150Y697384D01*
X450354Y696804D01*
X451523Y696158D01*
X452655Y695447D01*
X453745Y694674D01*
X454789Y693841D01*
X455786Y692950D01*
X456730Y692006D01*
X457621Y691009D01*
X458454Y689965D01*
X459227Y688875D01*
X459938Y687743D01*
X460584Y686574D01*
X461164Y685370D01*
X461676Y684135D01*
X462117Y682874D01*
X462487Y681590D01*
X462784Y680287D01*
X463008Y678970D01*
X463158Y677642D01*
X463233Y676308D01*
X463233Y674972D01*
X72073Y-51468D02*
X71998Y-52802D01*
X71848Y-54130D01*
X71624Y-55447D01*
X71327Y-56750D01*
X70957Y-58034D01*
X70516Y-59295D01*
X70004Y-60530D01*
X69424Y-61734D01*
X68778Y-62903D01*
X68067Y-64035D01*
X67294Y-65125D01*
X66461Y-66169D01*
X65570Y-67166D01*
X64626Y-68110D01*
X63629Y-69001D01*
X62585Y-69834D01*
X61495Y-70607D01*
X60363Y-71318D01*
X59194Y-71964D01*
X57990Y-72544D01*
X56755Y-73056D01*
X55494Y-73497D01*
X54210Y-73867D01*
X52907Y-74164D01*
X51590Y-74388D01*
X50262Y-74538D01*
X48928Y-74613D01*
X47592Y-74613D01*
X46258Y-74538D01*
X44930Y-74388D01*
X43613Y-74164D01*
X42310Y-73867D01*
X41026Y-73497D01*
X39765Y-73056D01*
X38530Y-72544D01*
X37326Y-71964D01*
X36157Y-71318D01*
X35025Y-70607D01*
X33936Y-69834D01*
X32891Y-69001D01*
X31894Y-68110D01*
X30950Y-67166D01*
X30059Y-66169D01*
X29226Y-65125D01*
X28453Y-64035D01*
X27742Y-62903D01*
X27096Y-61734D01*
X26516Y-60530D01*
X26004Y-59295D01*
X25563Y-58034D01*
X25193Y-56750D01*
X24896Y-55447D01*
X24672Y-54130D01*
X24522Y-52802D01*
X24448Y-51468D01*
X24448Y-50132D01*
X24522Y-48798D01*
X24672Y-47470D01*
X24896Y-46153D01*
X25193Y-44850D01*
X25563Y-43566D01*
X26004Y-42305D01*
X26516Y-41070D01*
X27096Y-39866D01*
X27742Y-38697D01*
X28453Y-37565D01*
X29226Y-36476D01*
X30059Y-35431D01*
X30950Y-34434D01*
X31894Y-33490D01*
X32891Y-32599D01*
X33936Y-31766D01*
X35025Y-30993D01*
X36157Y-30282D01*
X37326Y-29636D01*
X38530Y-29056D01*
X39765Y-28544D01*
X41026Y-28103D01*
X42310Y-27733D01*
X43613Y-27436D01*
X44930Y-27212D01*
X46258Y-27062D01*
X47592Y-26988D01*
X48928Y-26988D01*
X50262Y-27062D01*
X51590Y-27212D01*
X52907Y-27436D01*
X54210Y-27733D01*
X55494Y-28103D01*
X56755Y-28544D01*
X57990Y-29056D01*
X59194Y-29636D01*
X60363Y-30282D01*
X61495Y-30993D01*
X62585Y-31766D01*
X63629Y-32599D01*
X64626Y-33490D01*
X65570Y-34434D01*
X66461Y-35431D01*
X67294Y-36476D01*
X68067Y-37565D01*
X68778Y-38697D01*
X69424Y-39866D01*
X70004Y-41070D01*
X70516Y-42305D01*
X70957Y-43566D01*
X71327Y-44850D01*
X71624Y-46153D01*
X71848Y-47470D01*
X71998Y-48798D01*
X72073Y-50132D01*
X72073Y-51468D01*
X463233Y-51468D02*
X463158Y-52802D01*
X463008Y-54130D01*
X462784Y-55447D01*
X462487Y-56750D01*
X462117Y-58034D01*
X461676Y-59295D01*
X461164Y-60530D01*
X460584Y-61734D01*
X459938Y-62903D01*
X459227Y-64035D01*
X458454Y-65125D01*
X457621Y-66169D01*
X456730Y-67166D01*
X455786Y-68110D01*
X454789Y-69001D01*
X453745Y-69834D01*
X452655Y-70607D01*
X451523Y-71318D01*
X450354Y-71964D01*
X449150Y-72544D01*
X447915Y-73056D01*
X446654Y-73497D01*
X445370Y-73867D01*
X444067Y-74164D01*
X442750Y-74388D01*
X441422Y-74538D01*
X440088Y-74613D01*
X438752Y-74613D01*
X437418Y-74538D01*
X436090Y-74388D01*
X434773Y-74164D01*
X433470Y-73867D01*
X432186Y-73497D01*
X430925Y-73056D01*
X429690Y-72544D01*
X428486Y-71964D01*
X427317Y-71318D01*
X426185Y-70607D01*
X425096Y-69834D01*
X424051Y-69001D01*
X423054Y-68110D01*
X422110Y-67166D01*
X421219Y-66169D01*
X420386Y-65125D01*
X419613Y-64035D01*
X418902Y-62903D01*
X418256Y-61734D01*
X417676Y-60530D01*
X417164Y-59295D01*
X416723Y-58034D01*
X416353Y-56750D01*
X416056Y-55447D01*
X415832Y-54130D01*
X415682Y-52802D01*
X415608Y-51468D01*
X415608Y-50132D01*
X415682Y-48798D01*
X415832Y-47470D01*
X416056Y-46153D01*
X416353Y-44850D01*
X416723Y-43566D01*
X417164Y-42305D01*
X417676Y-41070D01*
X418256Y-39866D01*
X418902Y-38697D01*
X419613Y-37565D01*
X420386Y-36476D01*
X421219Y-35431D01*
X422110Y-34434D01*
X423054Y-33490D01*
X424051Y-32599D01*
X425096Y-31766D01*
X426185Y-30993D01*
X427317Y-30282D01*
X428486Y-29636D01*
X429690Y-29056D01*
X430925Y-28544D01*
X432186Y-28103D01*
X433470Y-27733D01*
X434773Y-27436D01*
X436090Y-27212D01*
X437418Y-27062D01*
X438752Y-26988D01*
X440088Y-26988D01*
X441422Y-27062D01*
X442750Y-27212D01*
X444067Y-27436D01*
X445370Y-27733D01*
X446654Y-28103D01*
X447915Y-28544D01*
X449150Y-29056D01*
X450354Y-29636D01*
X451523Y-30282D01*
X452655Y-30993D01*
X453745Y-31766D01*
X454789Y-32599D01*
X455786Y-33490D01*
X456730Y-34434D01*
X457621Y-35431D01*
X458454Y-36476D01*
X459227Y-37565D01*
X459938Y-38697D01*
X460584Y-39866D01*
X461164Y-41070D01*
X461676Y-42305D01*
X462117Y-43566D01*
X462487Y-44850D01*
X462784Y-46153D01*
X463008Y-47470D01*
X463158Y-48798D01*
X463233Y-50132D01*
X463233Y-51468D01*
M02*
