G04 EAGLE Gerber RS-274X export*
G75*
%MOMM*%
%FSLAX34Y34*%
%LPD*%
%INSolderpaste Top*%
%IPPOS*%
%AMOC8*
5,1,8,0,0,1.08239X$1,22.5*%
G01*
%ADD10R,1.000000X1.100000*%
%ADD11R,0.830000X0.630000*%
%ADD12R,1.800000X1.000000*%
%ADD13R,0.800000X0.800000*%
%ADD14C,0.300000*%
%ADD15R,1.550000X1.300000*%
%ADD16R,1.100000X1.000000*%
%ADD17R,0.550000X1.200000*%
%ADD18R,1.900000X1.100000*%
%ADD19R,1.500000X0.500000*%
%ADD20R,0.500000X1.500000*%
%ADD21R,2.489200X1.752600*%
%ADD22R,1.752600X2.489200*%


D10*
X345440Y237880D03*
X345440Y254880D03*
X414020Y303140D03*
X414020Y286140D03*
X264160Y75320D03*
X264160Y92320D03*
X321310Y237880D03*
X321310Y254880D03*
X242570Y92320D03*
X242570Y75320D03*
X394970Y239150D03*
X394970Y256150D03*
X218440Y92320D03*
X218440Y75320D03*
X336550Y120260D03*
X336550Y103260D03*
D11*
X358140Y322510D03*
X358140Y345510D03*
D12*
X373380Y397540D03*
X373380Y369540D03*
D13*
X263405Y635D03*
X248405Y635D03*
X400050Y384690D03*
X400050Y369690D03*
D14*
X381960Y638365D02*
X374960Y638365D01*
X374960Y645365D01*
X381960Y645365D01*
X381960Y638365D01*
X381960Y641215D02*
X374960Y641215D01*
X374960Y644065D02*
X381960Y644065D01*
X381960Y620825D02*
X374960Y620825D01*
X374960Y627825D01*
X381960Y627825D01*
X381960Y620825D01*
X381960Y623675D02*
X374960Y623675D01*
X374960Y626525D02*
X381960Y626525D01*
D15*
X222500Y-50440D03*
X145800Y-50440D03*
X145800Y-5440D03*
X222500Y-5440D03*
X295660Y-5440D03*
X372360Y-5440D03*
X372360Y-50440D03*
X295660Y-50440D03*
D16*
X125095Y11185D03*
X125095Y28185D03*
D10*
X396240Y353940D03*
X396240Y336940D03*
X370840Y575555D03*
X370840Y558555D03*
D16*
X86750Y288290D03*
X103750Y288290D03*
D10*
X116205Y72145D03*
X116205Y89145D03*
X394970Y107560D03*
X394970Y90560D03*
X127000Y143755D03*
X127000Y126755D03*
D16*
X415290Y35950D03*
X415290Y52950D03*
D17*
X371500Y284179D03*
X381000Y284179D03*
X390500Y284179D03*
X390500Y310181D03*
X371500Y310181D03*
D18*
X287570Y54540D03*
X324570Y77540D03*
X287570Y77540D03*
X324570Y54540D03*
D16*
X86750Y506730D03*
X103750Y506730D03*
X86750Y408940D03*
X103750Y408940D03*
X86750Y605790D03*
X103750Y605790D03*
D14*
X51880Y609290D02*
X51880Y602290D01*
X44880Y602290D01*
X44880Y609290D01*
X51880Y609290D01*
X51880Y605140D02*
X44880Y605140D01*
X44880Y607990D02*
X51880Y607990D01*
X69420Y609290D02*
X69420Y602290D01*
X62420Y602290D01*
X62420Y609290D01*
X69420Y609290D01*
X69420Y605140D02*
X62420Y605140D01*
X62420Y607990D02*
X69420Y607990D01*
X51880Y412440D02*
X51880Y405440D01*
X44880Y405440D01*
X44880Y412440D01*
X51880Y412440D01*
X51880Y408290D02*
X44880Y408290D01*
X44880Y411140D02*
X51880Y411140D01*
X69420Y412440D02*
X69420Y405440D01*
X62420Y405440D01*
X62420Y412440D01*
X69420Y412440D01*
X69420Y408290D02*
X62420Y408290D01*
X62420Y411140D02*
X69420Y411140D01*
X51880Y503230D02*
X51880Y510230D01*
X51880Y503230D02*
X44880Y503230D01*
X44880Y510230D01*
X51880Y510230D01*
X51880Y506080D02*
X44880Y506080D01*
X44880Y508930D02*
X51880Y508930D01*
X69420Y510230D02*
X69420Y503230D01*
X62420Y503230D01*
X62420Y510230D01*
X69420Y510230D01*
X69420Y506080D02*
X62420Y506080D01*
X62420Y508930D02*
X69420Y508930D01*
D19*
X201080Y219070D03*
X201080Y211070D03*
X201080Y203070D03*
X201080Y195070D03*
X201080Y187070D03*
X201080Y179070D03*
X201080Y171070D03*
X201080Y163070D03*
X201080Y155070D03*
X201080Y147070D03*
X201080Y139070D03*
D20*
X219080Y121070D03*
X227080Y121070D03*
X235080Y121070D03*
X243080Y121070D03*
X251080Y121070D03*
X259080Y121070D03*
X267080Y121070D03*
X275080Y121070D03*
X283080Y121070D03*
X291080Y121070D03*
X299080Y121070D03*
D19*
X317080Y139070D03*
X317080Y147070D03*
X317080Y155070D03*
X317080Y163070D03*
X317080Y171070D03*
X317080Y179070D03*
X317080Y187070D03*
X317080Y195070D03*
X317080Y203070D03*
X317080Y211070D03*
X317080Y219070D03*
D20*
X299080Y237070D03*
X291080Y237070D03*
X283080Y237070D03*
X275080Y237070D03*
X267080Y237070D03*
X259080Y237070D03*
X251080Y237070D03*
X243080Y237070D03*
X235080Y237070D03*
X227080Y237070D03*
X219080Y237070D03*
D11*
X105410Y147390D03*
X105410Y124390D03*
D10*
X195580Y235340D03*
X195580Y252340D03*
X125095Y-37075D03*
X125095Y-20075D03*
X443865Y52950D03*
X443865Y35950D03*
D21*
X269367Y303530D03*
X313563Y303530D03*
D22*
X425450Y152527D03*
X425450Y196723D03*
M02*
