G04 EAGLE Gerber RS-274X export*
G75*
%MOMM*%
%FSLAX34Y34*%
%LPD*%
%INSoldermask Top*%
%IPPOS*%
%AMOC8*
5,1,8,0,0,1.08239X$1,22.5*%
G01*
%ADD10C,4.965700*%
%ADD11C,5.003200*%
%ADD12R,1.203200X1.303200*%
%ADD13R,1.033200X0.833200*%
%ADD14C,1.511200*%
%ADD15R,2.003200X1.203200*%
%ADD16C,1.727200*%
%ADD17R,1.003200X1.003200*%
%ADD18C,0.505344*%
%ADD19R,1.753200X1.503200*%
%ADD20R,1.303200X1.203200*%
%ADD21R,0.753200X1.403200*%
%ADD22R,2.103200X1.303200*%
%ADD23C,2.828200*%
%ADD24R,1.703200X0.703200*%
%ADD25R,0.703200X1.703200*%
%ADD26C,1.411200*%
%ADD27C,1.411200*%
%ADD28R,1.727200X1.727200*%
%ADD29R,2.692400X1.955800*%
%ADD30R,1.955800X2.692400*%
%ADD31C,1.009600*%
%ADD32C,0.990600*%


D10*
X48260Y675640D03*
X439420Y675640D03*
X48260Y-50800D03*
X439420Y-50800D03*
D11*
X320040Y673100D03*
D12*
X345440Y237880D03*
X345440Y254880D03*
X414020Y303140D03*
X414020Y286140D03*
X264160Y75320D03*
X264160Y92320D03*
X321310Y237880D03*
X321310Y254880D03*
X242570Y92320D03*
X242570Y75320D03*
X394970Y239150D03*
X394970Y256150D03*
X218440Y92320D03*
X218440Y75320D03*
X336550Y120260D03*
X336550Y103260D03*
D13*
X358140Y322510D03*
X358140Y345510D03*
D14*
X359460Y75430D03*
X359460Y100830D03*
X359460Y126230D03*
X359460Y151630D03*
X359460Y177030D03*
X359460Y202430D03*
X156260Y75430D03*
X156260Y100830D03*
X156260Y126230D03*
X156260Y151630D03*
X156260Y177030D03*
X156260Y202430D03*
D15*
X373380Y397540D03*
X373380Y369540D03*
D11*
X189230Y673100D03*
D16*
X99060Y355600D03*
X99060Y381000D03*
X99060Y450850D03*
X99060Y476250D03*
X99060Y549910D03*
X99060Y575310D03*
X99060Y236220D03*
X99060Y261620D03*
D17*
X263405Y635D03*
X248405Y635D03*
X400050Y384690D03*
X400050Y369690D03*
D18*
X381950Y638375D02*
X374970Y638375D01*
X374970Y645355D01*
X381950Y645355D01*
X381950Y638375D01*
X381950Y643175D02*
X374970Y643175D01*
X374970Y620835D02*
X381950Y620835D01*
X374970Y620835D02*
X374970Y627815D01*
X381950Y627815D01*
X381950Y620835D01*
X381950Y625635D02*
X374970Y625635D01*
D19*
X222500Y-50440D03*
X145800Y-50440D03*
X145800Y-5440D03*
X222500Y-5440D03*
X295660Y-5440D03*
X372360Y-5440D03*
X372360Y-50440D03*
X295660Y-50440D03*
D20*
X125095Y11185D03*
X125095Y28185D03*
D12*
X396240Y353940D03*
X396240Y336940D03*
X370840Y575555D03*
X370840Y558555D03*
D20*
X86750Y288290D03*
X103750Y288290D03*
D12*
X116205Y72145D03*
X116205Y89145D03*
X394970Y107560D03*
X394970Y90560D03*
X127000Y143755D03*
X127000Y126755D03*
D20*
X415290Y35950D03*
X415290Y52950D03*
D21*
X371500Y284179D03*
X381000Y284179D03*
X390500Y284179D03*
X390500Y310181D03*
X371500Y310181D03*
D22*
X287570Y54540D03*
X324570Y77540D03*
X287570Y77540D03*
X324570Y54540D03*
D23*
X184110Y499600D03*
X184110Y465600D03*
X318810Y499600D03*
X318810Y465600D03*
X182840Y401810D03*
X182840Y367810D03*
X317540Y401810D03*
X317540Y367810D03*
X185380Y606280D03*
X185380Y572280D03*
X320080Y606280D03*
X320080Y572280D03*
D20*
X86750Y506730D03*
X103750Y506730D03*
X86750Y408940D03*
X103750Y408940D03*
X86750Y605790D03*
X103750Y605790D03*
D18*
X51870Y609280D02*
X51870Y602300D01*
X44890Y602300D01*
X44890Y609280D01*
X51870Y609280D01*
X51870Y607100D02*
X44890Y607100D01*
X69410Y609280D02*
X69410Y602300D01*
X62430Y602300D01*
X62430Y609280D01*
X69410Y609280D01*
X69410Y607100D02*
X62430Y607100D01*
X51870Y412430D02*
X51870Y405450D01*
X44890Y405450D01*
X44890Y412430D01*
X51870Y412430D01*
X51870Y410250D02*
X44890Y410250D01*
X69410Y412430D02*
X69410Y405450D01*
X62430Y405450D01*
X62430Y412430D01*
X69410Y412430D01*
X69410Y410250D02*
X62430Y410250D01*
X51870Y503240D02*
X51870Y510220D01*
X51870Y503240D02*
X44890Y503240D01*
X44890Y510220D01*
X51870Y510220D01*
X51870Y508040D02*
X44890Y508040D01*
X69410Y510220D02*
X69410Y503240D01*
X62430Y503240D01*
X62430Y510220D01*
X69410Y510220D01*
X69410Y508040D02*
X62430Y508040D01*
D24*
X201080Y219070D03*
X201080Y211070D03*
X201080Y203070D03*
X201080Y195070D03*
X201080Y187070D03*
X201080Y179070D03*
X201080Y171070D03*
X201080Y163070D03*
X201080Y155070D03*
X201080Y147070D03*
X201080Y139070D03*
D25*
X219080Y121070D03*
X227080Y121070D03*
X235080Y121070D03*
X243080Y121070D03*
X251080Y121070D03*
X259080Y121070D03*
X267080Y121070D03*
X275080Y121070D03*
X283080Y121070D03*
X291080Y121070D03*
X299080Y121070D03*
D24*
X317080Y139070D03*
X317080Y147070D03*
X317080Y155070D03*
X317080Y163070D03*
X317080Y171070D03*
X317080Y179070D03*
X317080Y187070D03*
X317080Y195070D03*
X317080Y203070D03*
X317080Y211070D03*
X317080Y219070D03*
D25*
X299080Y237070D03*
X291080Y237070D03*
X283080Y237070D03*
X275080Y237070D03*
X267080Y237070D03*
X259080Y237070D03*
X251080Y237070D03*
X243080Y237070D03*
X235080Y237070D03*
X227080Y237070D03*
X219080Y237070D03*
D13*
X105410Y147390D03*
X105410Y124390D03*
D26*
X39060Y143180D02*
X26980Y143180D01*
X26980Y70180D02*
X39060Y70180D01*
D27*
X71520Y98680D03*
X71520Y114680D03*
X83520Y90680D03*
X83520Y106680D03*
X83520Y122680D03*
D12*
X195580Y235340D03*
X195580Y252340D03*
X125095Y-37075D03*
X125095Y-20075D03*
X443865Y52950D03*
X443865Y35950D03*
D28*
X400685Y501142D03*
D16*
X400685Y466090D03*
D29*
X269367Y303530D03*
X313563Y303530D03*
D30*
X425450Y152527D03*
X425450Y196723D03*
D31*
X34290Y408940D03*
X34290Y506730D03*
X34290Y605790D03*
X378460Y666115D03*
X335280Y139700D03*
X187170Y182880D03*
X336550Y218440D03*
X242570Y59690D03*
X417830Y256540D03*
X276860Y92710D03*
X368300Y255270D03*
X185420Y-5080D03*
X303530Y-33020D03*
X400050Y396240D03*
X262890Y254000D03*
X189865Y267335D03*
X334010Y154742D03*
X293370Y154107D03*
X221615Y157480D03*
D32*
X187325Y160655D03*
D31*
X217074Y147264D03*
X334010Y165100D03*
X293370Y163830D03*
X312420Y27940D03*
X312420Y2540D03*
X280670Y105410D03*
X133350Y288290D03*
X225862Y254000D03*
X336550Y203200D03*
X190500Y288290D03*
X247650Y138430D03*
D32*
X247015Y172085D03*
X237490Y294640D03*
X237490Y335280D03*
D31*
X372110Y335280D03*
X361950Y307340D03*
D32*
X185484Y172374D03*
X177800Y213995D03*
D31*
X216309Y187960D03*
X233680Y187960D03*
X362427Y232887D03*
X299085Y211455D03*
M02*
