G04 EAGLE Gerber RS-274X export*
G75*
%MOMM*%
%FSLAX34Y34*%
%LPD*%
%INSoldermask Bottom*%
%IPPOS*%
%AMOC8*
5,1,8,0,0,1.08239X$1,22.5*%
G01*
%ADD10C,4.965700*%
%ADD11C,5.003200*%
%ADD12C,1.511200*%
%ADD13C,1.727200*%
%ADD14C,2.828200*%
%ADD15R,1.203200X1.303200*%
%ADD16C,1.411200*%
%ADD17C,1.411200*%
%ADD18R,1.727200X1.727200*%
%ADD19C,1.009600*%
%ADD20C,0.990600*%


D10*
X48260Y675640D03*
X439420Y675640D03*
X48260Y-50800D03*
X439420Y-50800D03*
D11*
X320040Y673100D03*
D12*
X359460Y75430D03*
X359460Y100830D03*
X359460Y126230D03*
X359460Y151630D03*
X359460Y177030D03*
X359460Y202430D03*
X156260Y75430D03*
X156260Y100830D03*
X156260Y126230D03*
X156260Y151630D03*
X156260Y177030D03*
X156260Y202430D03*
D11*
X189230Y673100D03*
D13*
X99060Y355600D03*
X99060Y381000D03*
X99060Y450850D03*
X99060Y476250D03*
X99060Y549910D03*
X99060Y575310D03*
X99060Y236220D03*
X99060Y261620D03*
D14*
X184110Y499600D03*
X184110Y465600D03*
X318810Y499600D03*
X318810Y465600D03*
X182840Y401810D03*
X182840Y367810D03*
X317540Y401810D03*
X317540Y367810D03*
X185380Y606280D03*
X185380Y572280D03*
X320080Y606280D03*
X320080Y572280D03*
D15*
X281940Y146440D03*
X281940Y163440D03*
X259080Y146440D03*
X259080Y163440D03*
X236220Y146440D03*
X236220Y163440D03*
D16*
X39060Y143180D02*
X26980Y143180D01*
X26980Y70180D02*
X39060Y70180D01*
D17*
X71520Y98680D03*
X71520Y114680D03*
X83520Y90680D03*
X83520Y106680D03*
X83520Y122680D03*
D18*
X400685Y501142D03*
D13*
X400685Y466090D03*
D19*
X34290Y408940D03*
X34290Y506730D03*
X34290Y605790D03*
X378460Y666115D03*
X335280Y139700D03*
X187170Y182880D03*
X336550Y218440D03*
X242570Y59690D03*
X417830Y256540D03*
X276860Y92710D03*
X368300Y255270D03*
X185420Y-5080D03*
X303530Y-33020D03*
X400050Y396240D03*
X262890Y254000D03*
X189865Y267335D03*
X334010Y154742D03*
X293370Y154107D03*
X221615Y157480D03*
D20*
X187325Y160655D03*
D19*
X217074Y147264D03*
X334010Y165100D03*
X293370Y163830D03*
X312420Y27940D03*
X312420Y2540D03*
X280670Y105410D03*
X133350Y288290D03*
X225862Y254000D03*
X336550Y203200D03*
X190500Y288290D03*
X247650Y138430D03*
D20*
X247015Y172085D03*
X237490Y294640D03*
X237490Y335280D03*
D19*
X372110Y335280D03*
X361950Y307340D03*
D20*
X185484Y172374D03*
X177800Y213995D03*
D19*
X216309Y187960D03*
X233680Y187960D03*
X362427Y232887D03*
X299085Y211455D03*
M02*
