%
M48
M72
T01C0.01575
T02C0.03937
T03C0.04000
T04C0.06299
T05C0.11800
T06C0.12598
T07C0.14961
%
T01
X118347Y140001
X130158Y145906
X138032Y145906
X138032Y140001
X155749Y128190
X157717Y100631
X191182Y90788
X224646Y63229
X220709Y47481
X191182Y27796
X181339Y43544
X122284Y63229
X94725Y61261
X134095Y157717
X145906Y163623
X134095Y181339
X141969Y202993
X246300Y145906
T02
X16300Y206300
X16300Y196300
X16300Y186300
X16300Y176300
X16300Y166300
X16300Y156300
X16300Y146300
X16300Y136300
X16300Y126300
X16300Y116300
X16300Y106300
X16300Y96300
X16300Y86300
X16300Y76300
X16300Y66300
X16300Y56300
X16300Y46300
X16300Y36300
X16300Y26300
X16300Y16300
X106300Y16300
X106300Y26300
X106300Y36300
X106300Y46300
X106300Y56300
X106300Y66300
X106300Y76300
X106300Y86300
X106300Y96300
X106300Y106300
X106300Y116300
X106300Y126300
X106300Y136300
X106300Y146300
X106300Y156300
X106300Y166300
X106300Y176300
X106300Y186300
X106300Y196300
X106300Y206300
X160394Y188347
X170237Y188347
X173800Y147619
X183800Y147619
X193800Y147619
X203800Y147619
X198800Y137619
X188800Y137619
X178800Y137619
X168800Y137619
X202520Y188347
X212363Y188347
X246300Y66300
X246300Y56300
X256300Y56300
X256300Y66300
X256300Y46300
X256300Y36300
X246300Y36300
X246300Y46300
X246300Y26300
X256300Y26300
T03
X126300Y132520
X136300Y132520
X146300Y132520
X136300Y112206
X126300Y112206
X126300Y92206
X136300Y92206
X146300Y92206
X146300Y73150
X136300Y73150
X126300Y73150
X126300Y52520
X136300Y52520
X146300Y52520
X156300Y52520
X166300Y52520
X146300Y32520
X136300Y32520
X126300Y32520
T04
X156457Y160788
X216300Y160788
T05
X232796Y174174
X251300Y162363
X251300Y185985
T06
X163800Y172619
X208800Y172619
T07
X31733Y177402
X254174Y122284
X185276Y15985
X33702Y15985
M30
