%
M48
M72
T01C0.01378
T02C0.03000
T03C0.04000
T04C0.14950
%
T01
X236300Y71300
X211300Y76300
X205400Y65400
X205800Y61300
X205800Y56300
X161300Y51300
X156300Y51300
X121300Y31300
X86300Y31300
X116300Y56300
X86300Y86300
X194300Y146300
X211300Y106300
X336300Y76300
T02
X46400Y46300
X56400Y46300
X66400Y46300
X86400Y46300
X86400Y66300
X66400Y66300
X56400Y66300
X46400Y66300
T03
X311300Y11300
X311300Y21300
X311300Y31300
X311300Y41300
X311300Y51300
X311300Y61300
X311300Y71300
X286300Y66300
X286300Y56300
X286300Y46300
X286300Y36300
X281300Y15800
X271300Y15800
X231300Y16300
X221300Y16300
X211300Y16300
X191300Y16300
X181300Y16300
X171300Y16300
X151300Y16300
X141300Y16300
X131300Y16300
X110300Y16300
X100300Y16300
X90300Y16300
X80300Y16300
X60300Y16300
X50300Y16300
X40300Y16300
X14800Y46300
X14800Y56300
X14800Y66300
X11000Y92600
X11000Y102600
X11000Y112600
X81000Y142600
X81000Y152600
X114800Y125300
X124800Y125300
X134800Y125300
X134800Y115300
X124800Y115300
X114800Y115300
X114800Y105300
X124800Y105300
X134800Y105300
X178300Y115300
X188300Y115300
X198300Y115300
X198300Y125300
X188300Y125300
X178300Y125300
X178300Y135300
X188300Y135300
X198300Y135300
X226300Y136300
X226300Y126300
X226300Y116300
X226300Y106300
X226300Y96300
X226300Y86300
X226300Y76300
X226300Y66300
X226300Y56300
X226300Y46300
X226300Y36300
X198300Y70300
X188300Y70300
X178300Y70300
X178300Y80300
X188300Y80300
X198300Y80300
X198300Y90300
X188300Y90300
X178300Y90300
X286300Y86300
X286300Y96300
X286300Y106300
X286300Y116300
X286300Y126300
X286300Y136300
X286300Y146300
X339800Y122300
X339800Y112300
X339800Y102300
X286300Y76300
X226300Y146300
X198300Y155300
X188300Y155300
X178300Y155300
T04
X16300Y16300
X16300Y156300
X336300Y156300
X336300Y16300
M30
