M48
;GenerationSoftware,Autodesk,EAGLE,9.2.2*%
;CreationDate,2019-01-11T16:49:41Z*%
FMAT,2
ICI,OFF
METRIC,TZ,000.000
T11C0.381
T10C0.500
T9C0.600
T8C0.700
T7C0.813
T6C1.020
T5C1.321
T4C2.800
T3C3.000
T2C3.200
T1C4.763
%
G90
M71
T1
X3000Y3000
X33500Y3000
X33500Y85000
X3000Y85000
T2
X13800Y74700
T3
X2007Y54100
T4
X10950Y69900
X7550Y74700
T5
X16600Y66900
T6
X6327Y55600
X6327Y52600
T7
X17216Y47200
X15184Y47200
T8
X5200Y37600
X5200Y44200
X4300Y42850
X4300Y38950
T9
X12478Y10564
X7158Y10564
X9778Y10564
X15178Y10564
X17958Y10564
X20738Y10564
X7158Y30884
X9778Y30884
X12478Y30884
X15178Y30884
X17958Y30884
X20738Y30884
X2400Y37300
X2400Y44500
T10
X10900Y50800
X18400Y50300
X8100Y48900
X2100Y50100
X8600Y60000
X8100Y46900
X12986Y49386
T11
X22900Y76800
X27300Y76800
X27300Y46700
X24800Y16900
X27600Y60900
X30300Y7300
X27600Y30150
X33300Y60200
X23200Y66800
X29900Y75800
X14300Y20200
X27500Y16850
X4200Y69300
X3306Y51506
X1400Y31900
X15300Y17400
X33300Y43100
X16000Y20600
X27700Y26600
X33300Y57600
X33300Y70450
X33506Y12994
X24800Y15300
X33300Y44400
X33300Y29700
X33500Y14600
X28000Y50900
X33300Y73400
X33300Y58900
X23300Y18200
X24500Y22900
X7500Y34500
X13806Y38106
X6195Y32030
X7700Y37300
X5411Y32955
X26350Y36700
X18300Y44400
X12900Y48000
X3800Y22200
X11600Y13450
X17400Y15900
X1400Y33300
X11300Y42300
X23000Y56700
X23800Y78300
X23600Y50300
X22600Y64200
X13900Y21700
X25200Y34100
X33900Y45700
X10500Y19200
X25300Y70300
X32000Y75900
X15600Y22700
X24500Y24700
X28800Y33500
X9314Y23486
X29100Y18800
X24100Y13900
X12200Y20400
X24900Y48300
X30100Y61400
X5500Y59700
X34500Y25800
X27600Y31600
X3400Y25700
X12400Y17200
X19700Y27600
X18300Y42600
X5200Y16000
X19400Y31900
X12000Y28900
X4800Y50800
X2000Y58200
X11071Y85339
X14300Y85900
X29860Y80300
X29200Y66000
X30600Y33500
X32100Y46800
X30700Y19300
X29100Y37000
X31900Y23900
X32000Y9100
X26900Y82000
X27600Y22200
X32000Y52600
X3800Y24000
X4000Y17200
X21250Y26750
X3000Y33300
X5500Y30300
X4400Y7600
X26100Y7300
X7500Y44000
X27600Y34000
X33600Y16600
X33600Y79900
X3200Y65500
X14900Y60700
X16900Y60700
X18900Y60700
X20900Y60700
X14900Y58700
X14900Y56700
X8200Y18600
X14900Y54700
X14900Y52700
X16900Y52700
X16900Y54700
X16900Y56700
X20900Y56700
X18900Y54700
X20900Y54700
X22900Y54700
X16900Y58700
X18900Y58700
X20900Y58700
X22900Y58700
X22900Y60700
X18900Y52700
X20900Y52700
X22900Y52700
X18900Y56700
X19350Y79000
X32100Y66800
M30