G75*
%MOIN*%
%OFA0B0*%
%FSLAX25Y25*%
%IPPOS*%
%LPD*%
%AMOC8*
5,1,8,0,0,1.08239X$1,22.5*
%
%ADD10C,0.00600*%
%ADD11C,0.00000*%
%ADD12C,0.05150*%
%ADD13R,0.05150X0.05150*%
%ADD14C,0.07400*%
%ADD15C,0.09449*%
%ADD16C,0.05937*%
%ADD17C,0.17000*%
%ADD18OC8,0.05937*%
%ADD19R,0.05984X0.02402*%
%ADD20R,0.03543X0.03150*%
%ADD21R,0.04331X0.03937*%
%ADD22R,0.03937X0.04331*%
%ADD23R,0.03150X0.03543*%
%ADD24C,0.01200*%
%ADD25C,0.02775*%
%ADD26C,0.02578*%
D10*
X0015315Y0001300D02*
X0015315Y0253859D01*
X0288346Y0253859D01*
X0288346Y0001300D01*
X0015315Y0001300D01*
D11*
X0021614Y0015080D02*
X0021616Y0015264D01*
X0021623Y0015447D01*
X0021634Y0015630D01*
X0021650Y0015813D01*
X0021670Y0015996D01*
X0021695Y0016178D01*
X0021724Y0016359D01*
X0021758Y0016539D01*
X0021796Y0016719D01*
X0021838Y0016897D01*
X0021885Y0017075D01*
X0021936Y0017251D01*
X0021992Y0017426D01*
X0022051Y0017600D01*
X0022115Y0017772D01*
X0022183Y0017942D01*
X0022256Y0018111D01*
X0022332Y0018278D01*
X0022413Y0018443D01*
X0022497Y0018606D01*
X0022586Y0018767D01*
X0022678Y0018925D01*
X0022774Y0019082D01*
X0022875Y0019236D01*
X0022978Y0019387D01*
X0023086Y0019536D01*
X0023197Y0019682D01*
X0023312Y0019825D01*
X0023430Y0019966D01*
X0023552Y0020103D01*
X0023677Y0020238D01*
X0023805Y0020369D01*
X0023936Y0020497D01*
X0024071Y0020622D01*
X0024208Y0020744D01*
X0024349Y0020862D01*
X0024492Y0020977D01*
X0024638Y0021088D01*
X0024787Y0021196D01*
X0024938Y0021299D01*
X0025092Y0021400D01*
X0025249Y0021496D01*
X0025407Y0021588D01*
X0025568Y0021677D01*
X0025731Y0021761D01*
X0025896Y0021842D01*
X0026063Y0021918D01*
X0026232Y0021991D01*
X0026402Y0022059D01*
X0026574Y0022123D01*
X0026748Y0022182D01*
X0026923Y0022238D01*
X0027099Y0022289D01*
X0027277Y0022336D01*
X0027455Y0022378D01*
X0027635Y0022416D01*
X0027815Y0022450D01*
X0027996Y0022479D01*
X0028178Y0022504D01*
X0028361Y0022524D01*
X0028544Y0022540D01*
X0028727Y0022551D01*
X0028910Y0022558D01*
X0029094Y0022560D01*
X0029278Y0022558D01*
X0029461Y0022551D01*
X0029644Y0022540D01*
X0029827Y0022524D01*
X0030010Y0022504D01*
X0030192Y0022479D01*
X0030373Y0022450D01*
X0030553Y0022416D01*
X0030733Y0022378D01*
X0030911Y0022336D01*
X0031089Y0022289D01*
X0031265Y0022238D01*
X0031440Y0022182D01*
X0031614Y0022123D01*
X0031786Y0022059D01*
X0031956Y0021991D01*
X0032125Y0021918D01*
X0032292Y0021842D01*
X0032457Y0021761D01*
X0032620Y0021677D01*
X0032781Y0021588D01*
X0032939Y0021496D01*
X0033096Y0021400D01*
X0033250Y0021299D01*
X0033401Y0021196D01*
X0033550Y0021088D01*
X0033696Y0020977D01*
X0033839Y0020862D01*
X0033980Y0020744D01*
X0034117Y0020622D01*
X0034252Y0020497D01*
X0034383Y0020369D01*
X0034511Y0020238D01*
X0034636Y0020103D01*
X0034758Y0019966D01*
X0034876Y0019825D01*
X0034991Y0019682D01*
X0035102Y0019536D01*
X0035210Y0019387D01*
X0035313Y0019236D01*
X0035414Y0019082D01*
X0035510Y0018925D01*
X0035602Y0018767D01*
X0035691Y0018606D01*
X0035775Y0018443D01*
X0035856Y0018278D01*
X0035932Y0018111D01*
X0036005Y0017942D01*
X0036073Y0017772D01*
X0036137Y0017600D01*
X0036196Y0017426D01*
X0036252Y0017251D01*
X0036303Y0017075D01*
X0036350Y0016897D01*
X0036392Y0016719D01*
X0036430Y0016539D01*
X0036464Y0016359D01*
X0036493Y0016178D01*
X0036518Y0015996D01*
X0036538Y0015813D01*
X0036554Y0015630D01*
X0036565Y0015447D01*
X0036572Y0015264D01*
X0036574Y0015080D01*
X0036572Y0014896D01*
X0036565Y0014713D01*
X0036554Y0014530D01*
X0036538Y0014347D01*
X0036518Y0014164D01*
X0036493Y0013982D01*
X0036464Y0013801D01*
X0036430Y0013621D01*
X0036392Y0013441D01*
X0036350Y0013263D01*
X0036303Y0013085D01*
X0036252Y0012909D01*
X0036196Y0012734D01*
X0036137Y0012560D01*
X0036073Y0012388D01*
X0036005Y0012218D01*
X0035932Y0012049D01*
X0035856Y0011882D01*
X0035775Y0011717D01*
X0035691Y0011554D01*
X0035602Y0011393D01*
X0035510Y0011235D01*
X0035414Y0011078D01*
X0035313Y0010924D01*
X0035210Y0010773D01*
X0035102Y0010624D01*
X0034991Y0010478D01*
X0034876Y0010335D01*
X0034758Y0010194D01*
X0034636Y0010057D01*
X0034511Y0009922D01*
X0034383Y0009791D01*
X0034252Y0009663D01*
X0034117Y0009538D01*
X0033980Y0009416D01*
X0033839Y0009298D01*
X0033696Y0009183D01*
X0033550Y0009072D01*
X0033401Y0008964D01*
X0033250Y0008861D01*
X0033096Y0008760D01*
X0032939Y0008664D01*
X0032781Y0008572D01*
X0032620Y0008483D01*
X0032457Y0008399D01*
X0032292Y0008318D01*
X0032125Y0008242D01*
X0031956Y0008169D01*
X0031786Y0008101D01*
X0031614Y0008037D01*
X0031440Y0007978D01*
X0031265Y0007922D01*
X0031089Y0007871D01*
X0030911Y0007824D01*
X0030733Y0007782D01*
X0030553Y0007744D01*
X0030373Y0007710D01*
X0030192Y0007681D01*
X0030010Y0007656D01*
X0029827Y0007636D01*
X0029644Y0007620D01*
X0029461Y0007609D01*
X0029278Y0007602D01*
X0029094Y0007600D01*
X0028910Y0007602D01*
X0028727Y0007609D01*
X0028544Y0007620D01*
X0028361Y0007636D01*
X0028178Y0007656D01*
X0027996Y0007681D01*
X0027815Y0007710D01*
X0027635Y0007744D01*
X0027455Y0007782D01*
X0027277Y0007824D01*
X0027099Y0007871D01*
X0026923Y0007922D01*
X0026748Y0007978D01*
X0026574Y0008037D01*
X0026402Y0008101D01*
X0026232Y0008169D01*
X0026063Y0008242D01*
X0025896Y0008318D01*
X0025731Y0008399D01*
X0025568Y0008483D01*
X0025407Y0008572D01*
X0025249Y0008664D01*
X0025092Y0008760D01*
X0024938Y0008861D01*
X0024787Y0008964D01*
X0024638Y0009072D01*
X0024492Y0009183D01*
X0024349Y0009298D01*
X0024208Y0009416D01*
X0024071Y0009538D01*
X0023936Y0009663D01*
X0023805Y0009791D01*
X0023677Y0009922D01*
X0023552Y0010057D01*
X0023430Y0010194D01*
X0023312Y0010335D01*
X0023197Y0010478D01*
X0023086Y0010624D01*
X0022978Y0010773D01*
X0022875Y0010924D01*
X0022774Y0011078D01*
X0022678Y0011235D01*
X0022586Y0011393D01*
X0022497Y0011554D01*
X0022413Y0011717D01*
X0022332Y0011882D01*
X0022256Y0012049D01*
X0022183Y0012218D01*
X0022115Y0012388D01*
X0022051Y0012560D01*
X0021992Y0012734D01*
X0021936Y0012909D01*
X0021885Y0013085D01*
X0021838Y0013263D01*
X0021796Y0013441D01*
X0021758Y0013621D01*
X0021724Y0013801D01*
X0021695Y0013982D01*
X0021670Y0014164D01*
X0021650Y0014347D01*
X0021634Y0014530D01*
X0021623Y0014713D01*
X0021616Y0014896D01*
X0021614Y0015080D01*
X0251240Y0172658D02*
X0251242Y0172816D01*
X0251248Y0172974D01*
X0251258Y0173132D01*
X0251272Y0173290D01*
X0251290Y0173447D01*
X0251311Y0173604D01*
X0251337Y0173760D01*
X0251367Y0173916D01*
X0251400Y0174071D01*
X0251438Y0174224D01*
X0251479Y0174377D01*
X0251524Y0174529D01*
X0251573Y0174680D01*
X0251626Y0174829D01*
X0251682Y0174977D01*
X0251742Y0175123D01*
X0251806Y0175268D01*
X0251874Y0175411D01*
X0251945Y0175553D01*
X0252019Y0175693D01*
X0252097Y0175830D01*
X0252179Y0175966D01*
X0252263Y0176100D01*
X0252352Y0176231D01*
X0252443Y0176360D01*
X0252538Y0176487D01*
X0252635Y0176612D01*
X0252736Y0176734D01*
X0252840Y0176853D01*
X0252947Y0176970D01*
X0253057Y0177084D01*
X0253170Y0177195D01*
X0253285Y0177304D01*
X0253403Y0177409D01*
X0253524Y0177511D01*
X0253647Y0177611D01*
X0253773Y0177707D01*
X0253901Y0177800D01*
X0254031Y0177890D01*
X0254164Y0177976D01*
X0254299Y0178060D01*
X0254435Y0178139D01*
X0254574Y0178216D01*
X0254715Y0178288D01*
X0254857Y0178358D01*
X0255001Y0178423D01*
X0255147Y0178485D01*
X0255294Y0178543D01*
X0255443Y0178598D01*
X0255593Y0178649D01*
X0255744Y0178696D01*
X0255896Y0178739D01*
X0256049Y0178778D01*
X0256204Y0178814D01*
X0256359Y0178845D01*
X0256515Y0178873D01*
X0256671Y0178897D01*
X0256828Y0178917D01*
X0256986Y0178933D01*
X0257143Y0178945D01*
X0257302Y0178953D01*
X0257460Y0178957D01*
X0257618Y0178957D01*
X0257776Y0178953D01*
X0257935Y0178945D01*
X0258092Y0178933D01*
X0258250Y0178917D01*
X0258407Y0178897D01*
X0258563Y0178873D01*
X0258719Y0178845D01*
X0258874Y0178814D01*
X0259029Y0178778D01*
X0259182Y0178739D01*
X0259334Y0178696D01*
X0259485Y0178649D01*
X0259635Y0178598D01*
X0259784Y0178543D01*
X0259931Y0178485D01*
X0260077Y0178423D01*
X0260221Y0178358D01*
X0260363Y0178288D01*
X0260504Y0178216D01*
X0260643Y0178139D01*
X0260779Y0178060D01*
X0260914Y0177976D01*
X0261047Y0177890D01*
X0261177Y0177800D01*
X0261305Y0177707D01*
X0261431Y0177611D01*
X0261554Y0177511D01*
X0261675Y0177409D01*
X0261793Y0177304D01*
X0261908Y0177195D01*
X0262021Y0177084D01*
X0262131Y0176970D01*
X0262238Y0176853D01*
X0262342Y0176734D01*
X0262443Y0176612D01*
X0262540Y0176487D01*
X0262635Y0176360D01*
X0262726Y0176231D01*
X0262815Y0176100D01*
X0262899Y0175966D01*
X0262981Y0175830D01*
X0263059Y0175693D01*
X0263133Y0175553D01*
X0263204Y0175411D01*
X0263272Y0175268D01*
X0263336Y0175123D01*
X0263396Y0174977D01*
X0263452Y0174829D01*
X0263505Y0174680D01*
X0263554Y0174529D01*
X0263599Y0174377D01*
X0263640Y0174224D01*
X0263678Y0174071D01*
X0263711Y0173916D01*
X0263741Y0173760D01*
X0263767Y0173604D01*
X0263788Y0173447D01*
X0263806Y0173290D01*
X0263820Y0173132D01*
X0263830Y0172974D01*
X0263836Y0172816D01*
X0263838Y0172658D01*
X0263836Y0172500D01*
X0263830Y0172342D01*
X0263820Y0172184D01*
X0263806Y0172026D01*
X0263788Y0171869D01*
X0263767Y0171712D01*
X0263741Y0171556D01*
X0263711Y0171400D01*
X0263678Y0171245D01*
X0263640Y0171092D01*
X0263599Y0170939D01*
X0263554Y0170787D01*
X0263505Y0170636D01*
X0263452Y0170487D01*
X0263396Y0170339D01*
X0263336Y0170193D01*
X0263272Y0170048D01*
X0263204Y0169905D01*
X0263133Y0169763D01*
X0263059Y0169623D01*
X0262981Y0169486D01*
X0262899Y0169350D01*
X0262815Y0169216D01*
X0262726Y0169085D01*
X0262635Y0168956D01*
X0262540Y0168829D01*
X0262443Y0168704D01*
X0262342Y0168582D01*
X0262238Y0168463D01*
X0262131Y0168346D01*
X0262021Y0168232D01*
X0261908Y0168121D01*
X0261793Y0168012D01*
X0261675Y0167907D01*
X0261554Y0167805D01*
X0261431Y0167705D01*
X0261305Y0167609D01*
X0261177Y0167516D01*
X0261047Y0167426D01*
X0260914Y0167340D01*
X0260779Y0167256D01*
X0260643Y0167177D01*
X0260504Y0167100D01*
X0260363Y0167028D01*
X0260221Y0166958D01*
X0260077Y0166893D01*
X0259931Y0166831D01*
X0259784Y0166773D01*
X0259635Y0166718D01*
X0259485Y0166667D01*
X0259334Y0166620D01*
X0259182Y0166577D01*
X0259029Y0166538D01*
X0258874Y0166502D01*
X0258719Y0166471D01*
X0258563Y0166443D01*
X0258407Y0166419D01*
X0258250Y0166399D01*
X0258092Y0166383D01*
X0257935Y0166371D01*
X0257776Y0166363D01*
X0257618Y0166359D01*
X0257460Y0166359D01*
X0257302Y0166363D01*
X0257143Y0166371D01*
X0256986Y0166383D01*
X0256828Y0166399D01*
X0256671Y0166419D01*
X0256515Y0166443D01*
X0256359Y0166471D01*
X0256204Y0166502D01*
X0256049Y0166538D01*
X0255896Y0166577D01*
X0255744Y0166620D01*
X0255593Y0166667D01*
X0255443Y0166718D01*
X0255294Y0166773D01*
X0255147Y0166831D01*
X0255001Y0166893D01*
X0254857Y0166958D01*
X0254715Y0167028D01*
X0254574Y0167100D01*
X0254435Y0167177D01*
X0254299Y0167256D01*
X0254164Y0167340D01*
X0254031Y0167426D01*
X0253901Y0167516D01*
X0253773Y0167609D01*
X0253647Y0167705D01*
X0253524Y0167805D01*
X0253403Y0167907D01*
X0253285Y0168012D01*
X0253170Y0168121D01*
X0253057Y0168232D01*
X0252947Y0168346D01*
X0252840Y0168463D01*
X0252736Y0168582D01*
X0252635Y0168704D01*
X0252538Y0168829D01*
X0252443Y0168956D01*
X0252352Y0169085D01*
X0252263Y0169216D01*
X0252179Y0169350D01*
X0252097Y0169486D01*
X0252019Y0169623D01*
X0251945Y0169763D01*
X0251874Y0169905D01*
X0251806Y0170048D01*
X0251742Y0170193D01*
X0251682Y0170339D01*
X0251626Y0170487D01*
X0251573Y0170636D01*
X0251524Y0170787D01*
X0251479Y0170939D01*
X0251438Y0171092D01*
X0251400Y0171245D01*
X0251367Y0171400D01*
X0251337Y0171556D01*
X0251311Y0171712D01*
X0251290Y0171869D01*
X0251272Y0172026D01*
X0251258Y0172184D01*
X0251248Y0172342D01*
X0251242Y0172500D01*
X0251240Y0172658D01*
X0251240Y0217658D02*
X0251242Y0217816D01*
X0251248Y0217974D01*
X0251258Y0218132D01*
X0251272Y0218290D01*
X0251290Y0218447D01*
X0251311Y0218604D01*
X0251337Y0218760D01*
X0251367Y0218916D01*
X0251400Y0219071D01*
X0251438Y0219224D01*
X0251479Y0219377D01*
X0251524Y0219529D01*
X0251573Y0219680D01*
X0251626Y0219829D01*
X0251682Y0219977D01*
X0251742Y0220123D01*
X0251806Y0220268D01*
X0251874Y0220411D01*
X0251945Y0220553D01*
X0252019Y0220693D01*
X0252097Y0220830D01*
X0252179Y0220966D01*
X0252263Y0221100D01*
X0252352Y0221231D01*
X0252443Y0221360D01*
X0252538Y0221487D01*
X0252635Y0221612D01*
X0252736Y0221734D01*
X0252840Y0221853D01*
X0252947Y0221970D01*
X0253057Y0222084D01*
X0253170Y0222195D01*
X0253285Y0222304D01*
X0253403Y0222409D01*
X0253524Y0222511D01*
X0253647Y0222611D01*
X0253773Y0222707D01*
X0253901Y0222800D01*
X0254031Y0222890D01*
X0254164Y0222976D01*
X0254299Y0223060D01*
X0254435Y0223139D01*
X0254574Y0223216D01*
X0254715Y0223288D01*
X0254857Y0223358D01*
X0255001Y0223423D01*
X0255147Y0223485D01*
X0255294Y0223543D01*
X0255443Y0223598D01*
X0255593Y0223649D01*
X0255744Y0223696D01*
X0255896Y0223739D01*
X0256049Y0223778D01*
X0256204Y0223814D01*
X0256359Y0223845D01*
X0256515Y0223873D01*
X0256671Y0223897D01*
X0256828Y0223917D01*
X0256986Y0223933D01*
X0257143Y0223945D01*
X0257302Y0223953D01*
X0257460Y0223957D01*
X0257618Y0223957D01*
X0257776Y0223953D01*
X0257935Y0223945D01*
X0258092Y0223933D01*
X0258250Y0223917D01*
X0258407Y0223897D01*
X0258563Y0223873D01*
X0258719Y0223845D01*
X0258874Y0223814D01*
X0259029Y0223778D01*
X0259182Y0223739D01*
X0259334Y0223696D01*
X0259485Y0223649D01*
X0259635Y0223598D01*
X0259784Y0223543D01*
X0259931Y0223485D01*
X0260077Y0223423D01*
X0260221Y0223358D01*
X0260363Y0223288D01*
X0260504Y0223216D01*
X0260643Y0223139D01*
X0260779Y0223060D01*
X0260914Y0222976D01*
X0261047Y0222890D01*
X0261177Y0222800D01*
X0261305Y0222707D01*
X0261431Y0222611D01*
X0261554Y0222511D01*
X0261675Y0222409D01*
X0261793Y0222304D01*
X0261908Y0222195D01*
X0262021Y0222084D01*
X0262131Y0221970D01*
X0262238Y0221853D01*
X0262342Y0221734D01*
X0262443Y0221612D01*
X0262540Y0221487D01*
X0262635Y0221360D01*
X0262726Y0221231D01*
X0262815Y0221100D01*
X0262899Y0220966D01*
X0262981Y0220830D01*
X0263059Y0220693D01*
X0263133Y0220553D01*
X0263204Y0220411D01*
X0263272Y0220268D01*
X0263336Y0220123D01*
X0263396Y0219977D01*
X0263452Y0219829D01*
X0263505Y0219680D01*
X0263554Y0219529D01*
X0263599Y0219377D01*
X0263640Y0219224D01*
X0263678Y0219071D01*
X0263711Y0218916D01*
X0263741Y0218760D01*
X0263767Y0218604D01*
X0263788Y0218447D01*
X0263806Y0218290D01*
X0263820Y0218132D01*
X0263830Y0217974D01*
X0263836Y0217816D01*
X0263838Y0217658D01*
X0263836Y0217500D01*
X0263830Y0217342D01*
X0263820Y0217184D01*
X0263806Y0217026D01*
X0263788Y0216869D01*
X0263767Y0216712D01*
X0263741Y0216556D01*
X0263711Y0216400D01*
X0263678Y0216245D01*
X0263640Y0216092D01*
X0263599Y0215939D01*
X0263554Y0215787D01*
X0263505Y0215636D01*
X0263452Y0215487D01*
X0263396Y0215339D01*
X0263336Y0215193D01*
X0263272Y0215048D01*
X0263204Y0214905D01*
X0263133Y0214763D01*
X0263059Y0214623D01*
X0262981Y0214486D01*
X0262899Y0214350D01*
X0262815Y0214216D01*
X0262726Y0214085D01*
X0262635Y0213956D01*
X0262540Y0213829D01*
X0262443Y0213704D01*
X0262342Y0213582D01*
X0262238Y0213463D01*
X0262131Y0213346D01*
X0262021Y0213232D01*
X0261908Y0213121D01*
X0261793Y0213012D01*
X0261675Y0212907D01*
X0261554Y0212805D01*
X0261431Y0212705D01*
X0261305Y0212609D01*
X0261177Y0212516D01*
X0261047Y0212426D01*
X0260914Y0212340D01*
X0260779Y0212256D01*
X0260643Y0212177D01*
X0260504Y0212100D01*
X0260363Y0212028D01*
X0260221Y0211958D01*
X0260077Y0211893D01*
X0259931Y0211831D01*
X0259784Y0211773D01*
X0259635Y0211718D01*
X0259485Y0211667D01*
X0259334Y0211620D01*
X0259182Y0211577D01*
X0259029Y0211538D01*
X0258874Y0211502D01*
X0258719Y0211471D01*
X0258563Y0211443D01*
X0258407Y0211419D01*
X0258250Y0211399D01*
X0258092Y0211383D01*
X0257935Y0211371D01*
X0257776Y0211363D01*
X0257618Y0211359D01*
X0257460Y0211359D01*
X0257302Y0211363D01*
X0257143Y0211371D01*
X0256986Y0211383D01*
X0256828Y0211399D01*
X0256671Y0211419D01*
X0256515Y0211443D01*
X0256359Y0211471D01*
X0256204Y0211502D01*
X0256049Y0211538D01*
X0255896Y0211577D01*
X0255744Y0211620D01*
X0255593Y0211667D01*
X0255443Y0211718D01*
X0255294Y0211773D01*
X0255147Y0211831D01*
X0255001Y0211893D01*
X0254857Y0211958D01*
X0254715Y0212028D01*
X0254574Y0212100D01*
X0254435Y0212177D01*
X0254299Y0212256D01*
X0254164Y0212340D01*
X0254031Y0212426D01*
X0253901Y0212516D01*
X0253773Y0212609D01*
X0253647Y0212705D01*
X0253524Y0212805D01*
X0253403Y0212907D01*
X0253285Y0213012D01*
X0253170Y0213121D01*
X0253057Y0213232D01*
X0252947Y0213346D01*
X0252840Y0213463D01*
X0252736Y0213582D01*
X0252635Y0213704D01*
X0252538Y0213829D01*
X0252443Y0213956D01*
X0252352Y0214085D01*
X0252263Y0214216D01*
X0252179Y0214350D01*
X0252097Y0214486D01*
X0252019Y0214623D01*
X0251945Y0214763D01*
X0251874Y0214905D01*
X0251806Y0215048D01*
X0251742Y0215193D01*
X0251682Y0215339D01*
X0251626Y0215487D01*
X0251573Y0215636D01*
X0251524Y0215787D01*
X0251479Y0215939D01*
X0251438Y0216092D01*
X0251400Y0216245D01*
X0251367Y0216400D01*
X0251337Y0216556D01*
X0251311Y0216712D01*
X0251290Y0216869D01*
X0251272Y0217026D01*
X0251258Y0217184D01*
X0251248Y0217342D01*
X0251242Y0217500D01*
X0251240Y0217658D01*
X0263740Y0241457D02*
X0263742Y0241641D01*
X0263749Y0241824D01*
X0263760Y0242007D01*
X0263776Y0242190D01*
X0263796Y0242373D01*
X0263821Y0242555D01*
X0263850Y0242736D01*
X0263884Y0242916D01*
X0263922Y0243096D01*
X0263964Y0243274D01*
X0264011Y0243452D01*
X0264062Y0243628D01*
X0264118Y0243803D01*
X0264177Y0243977D01*
X0264241Y0244149D01*
X0264309Y0244319D01*
X0264382Y0244488D01*
X0264458Y0244655D01*
X0264539Y0244820D01*
X0264623Y0244983D01*
X0264712Y0245144D01*
X0264804Y0245302D01*
X0264900Y0245459D01*
X0265001Y0245613D01*
X0265104Y0245764D01*
X0265212Y0245913D01*
X0265323Y0246059D01*
X0265438Y0246202D01*
X0265556Y0246343D01*
X0265678Y0246480D01*
X0265803Y0246615D01*
X0265931Y0246746D01*
X0266062Y0246874D01*
X0266197Y0246999D01*
X0266334Y0247121D01*
X0266475Y0247239D01*
X0266618Y0247354D01*
X0266764Y0247465D01*
X0266913Y0247573D01*
X0267064Y0247676D01*
X0267218Y0247777D01*
X0267375Y0247873D01*
X0267533Y0247965D01*
X0267694Y0248054D01*
X0267857Y0248138D01*
X0268022Y0248219D01*
X0268189Y0248295D01*
X0268358Y0248368D01*
X0268528Y0248436D01*
X0268700Y0248500D01*
X0268874Y0248559D01*
X0269049Y0248615D01*
X0269225Y0248666D01*
X0269403Y0248713D01*
X0269581Y0248755D01*
X0269761Y0248793D01*
X0269941Y0248827D01*
X0270122Y0248856D01*
X0270304Y0248881D01*
X0270487Y0248901D01*
X0270670Y0248917D01*
X0270853Y0248928D01*
X0271036Y0248935D01*
X0271220Y0248937D01*
X0271404Y0248935D01*
X0271587Y0248928D01*
X0271770Y0248917D01*
X0271953Y0248901D01*
X0272136Y0248881D01*
X0272318Y0248856D01*
X0272499Y0248827D01*
X0272679Y0248793D01*
X0272859Y0248755D01*
X0273037Y0248713D01*
X0273215Y0248666D01*
X0273391Y0248615D01*
X0273566Y0248559D01*
X0273740Y0248500D01*
X0273912Y0248436D01*
X0274082Y0248368D01*
X0274251Y0248295D01*
X0274418Y0248219D01*
X0274583Y0248138D01*
X0274746Y0248054D01*
X0274907Y0247965D01*
X0275065Y0247873D01*
X0275222Y0247777D01*
X0275376Y0247676D01*
X0275527Y0247573D01*
X0275676Y0247465D01*
X0275822Y0247354D01*
X0275965Y0247239D01*
X0276106Y0247121D01*
X0276243Y0246999D01*
X0276378Y0246874D01*
X0276509Y0246746D01*
X0276637Y0246615D01*
X0276762Y0246480D01*
X0276884Y0246343D01*
X0277002Y0246202D01*
X0277117Y0246059D01*
X0277228Y0245913D01*
X0277336Y0245764D01*
X0277439Y0245613D01*
X0277540Y0245459D01*
X0277636Y0245302D01*
X0277728Y0245144D01*
X0277817Y0244983D01*
X0277901Y0244820D01*
X0277982Y0244655D01*
X0278058Y0244488D01*
X0278131Y0244319D01*
X0278199Y0244149D01*
X0278263Y0243977D01*
X0278322Y0243803D01*
X0278378Y0243628D01*
X0278429Y0243452D01*
X0278476Y0243274D01*
X0278518Y0243096D01*
X0278556Y0242916D01*
X0278590Y0242736D01*
X0278619Y0242555D01*
X0278644Y0242373D01*
X0278664Y0242190D01*
X0278680Y0242007D01*
X0278691Y0241824D01*
X0278698Y0241641D01*
X0278700Y0241457D01*
X0278698Y0241273D01*
X0278691Y0241090D01*
X0278680Y0240907D01*
X0278664Y0240724D01*
X0278644Y0240541D01*
X0278619Y0240359D01*
X0278590Y0240178D01*
X0278556Y0239998D01*
X0278518Y0239818D01*
X0278476Y0239640D01*
X0278429Y0239462D01*
X0278378Y0239286D01*
X0278322Y0239111D01*
X0278263Y0238937D01*
X0278199Y0238765D01*
X0278131Y0238595D01*
X0278058Y0238426D01*
X0277982Y0238259D01*
X0277901Y0238094D01*
X0277817Y0237931D01*
X0277728Y0237770D01*
X0277636Y0237612D01*
X0277540Y0237455D01*
X0277439Y0237301D01*
X0277336Y0237150D01*
X0277228Y0237001D01*
X0277117Y0236855D01*
X0277002Y0236712D01*
X0276884Y0236571D01*
X0276762Y0236434D01*
X0276637Y0236299D01*
X0276509Y0236168D01*
X0276378Y0236040D01*
X0276243Y0235915D01*
X0276106Y0235793D01*
X0275965Y0235675D01*
X0275822Y0235560D01*
X0275676Y0235449D01*
X0275527Y0235341D01*
X0275376Y0235238D01*
X0275222Y0235137D01*
X0275065Y0235041D01*
X0274907Y0234949D01*
X0274746Y0234860D01*
X0274583Y0234776D01*
X0274418Y0234695D01*
X0274251Y0234619D01*
X0274082Y0234546D01*
X0273912Y0234478D01*
X0273740Y0234414D01*
X0273566Y0234355D01*
X0273391Y0234299D01*
X0273215Y0234248D01*
X0273037Y0234201D01*
X0272859Y0234159D01*
X0272679Y0234121D01*
X0272499Y0234087D01*
X0272318Y0234058D01*
X0272136Y0234033D01*
X0271953Y0234013D01*
X0271770Y0233997D01*
X0271587Y0233986D01*
X0271404Y0233979D01*
X0271220Y0233977D01*
X0271036Y0233979D01*
X0270853Y0233986D01*
X0270670Y0233997D01*
X0270487Y0234013D01*
X0270304Y0234033D01*
X0270122Y0234058D01*
X0269941Y0234087D01*
X0269761Y0234121D01*
X0269581Y0234159D01*
X0269403Y0234201D01*
X0269225Y0234248D01*
X0269049Y0234299D01*
X0268874Y0234355D01*
X0268700Y0234414D01*
X0268528Y0234478D01*
X0268358Y0234546D01*
X0268189Y0234619D01*
X0268022Y0234695D01*
X0267857Y0234776D01*
X0267694Y0234860D01*
X0267533Y0234949D01*
X0267375Y0235041D01*
X0267218Y0235137D01*
X0267064Y0235238D01*
X0266913Y0235341D01*
X0266764Y0235449D01*
X0266618Y0235560D01*
X0266475Y0235675D01*
X0266334Y0235793D01*
X0266197Y0235915D01*
X0266062Y0236040D01*
X0265931Y0236168D01*
X0265803Y0236299D01*
X0265678Y0236434D01*
X0265556Y0236571D01*
X0265438Y0236712D01*
X0265323Y0236855D01*
X0265212Y0237001D01*
X0265104Y0237150D01*
X0265001Y0237301D01*
X0264900Y0237455D01*
X0264804Y0237612D01*
X0264712Y0237770D01*
X0264623Y0237931D01*
X0264539Y0238094D01*
X0264458Y0238259D01*
X0264382Y0238426D01*
X0264309Y0238595D01*
X0264241Y0238765D01*
X0264177Y0238937D01*
X0264118Y0239111D01*
X0264062Y0239286D01*
X0264011Y0239462D01*
X0263964Y0239640D01*
X0263922Y0239818D01*
X0263884Y0239998D01*
X0263850Y0240178D01*
X0263821Y0240359D01*
X0263796Y0240541D01*
X0263776Y0240724D01*
X0263760Y0240907D01*
X0263749Y0241090D01*
X0263742Y0241273D01*
X0263740Y0241457D01*
X0025551Y0241457D02*
X0025553Y0241641D01*
X0025560Y0241824D01*
X0025571Y0242007D01*
X0025587Y0242190D01*
X0025607Y0242373D01*
X0025632Y0242555D01*
X0025661Y0242736D01*
X0025695Y0242916D01*
X0025733Y0243096D01*
X0025775Y0243274D01*
X0025822Y0243452D01*
X0025873Y0243628D01*
X0025929Y0243803D01*
X0025988Y0243977D01*
X0026052Y0244149D01*
X0026120Y0244319D01*
X0026193Y0244488D01*
X0026269Y0244655D01*
X0026350Y0244820D01*
X0026434Y0244983D01*
X0026523Y0245144D01*
X0026615Y0245302D01*
X0026711Y0245459D01*
X0026812Y0245613D01*
X0026915Y0245764D01*
X0027023Y0245913D01*
X0027134Y0246059D01*
X0027249Y0246202D01*
X0027367Y0246343D01*
X0027489Y0246480D01*
X0027614Y0246615D01*
X0027742Y0246746D01*
X0027873Y0246874D01*
X0028008Y0246999D01*
X0028145Y0247121D01*
X0028286Y0247239D01*
X0028429Y0247354D01*
X0028575Y0247465D01*
X0028724Y0247573D01*
X0028875Y0247676D01*
X0029029Y0247777D01*
X0029186Y0247873D01*
X0029344Y0247965D01*
X0029505Y0248054D01*
X0029668Y0248138D01*
X0029833Y0248219D01*
X0030000Y0248295D01*
X0030169Y0248368D01*
X0030339Y0248436D01*
X0030511Y0248500D01*
X0030685Y0248559D01*
X0030860Y0248615D01*
X0031036Y0248666D01*
X0031214Y0248713D01*
X0031392Y0248755D01*
X0031572Y0248793D01*
X0031752Y0248827D01*
X0031933Y0248856D01*
X0032115Y0248881D01*
X0032298Y0248901D01*
X0032481Y0248917D01*
X0032664Y0248928D01*
X0032847Y0248935D01*
X0033031Y0248937D01*
X0033215Y0248935D01*
X0033398Y0248928D01*
X0033581Y0248917D01*
X0033764Y0248901D01*
X0033947Y0248881D01*
X0034129Y0248856D01*
X0034310Y0248827D01*
X0034490Y0248793D01*
X0034670Y0248755D01*
X0034848Y0248713D01*
X0035026Y0248666D01*
X0035202Y0248615D01*
X0035377Y0248559D01*
X0035551Y0248500D01*
X0035723Y0248436D01*
X0035893Y0248368D01*
X0036062Y0248295D01*
X0036229Y0248219D01*
X0036394Y0248138D01*
X0036557Y0248054D01*
X0036718Y0247965D01*
X0036876Y0247873D01*
X0037033Y0247777D01*
X0037187Y0247676D01*
X0037338Y0247573D01*
X0037487Y0247465D01*
X0037633Y0247354D01*
X0037776Y0247239D01*
X0037917Y0247121D01*
X0038054Y0246999D01*
X0038189Y0246874D01*
X0038320Y0246746D01*
X0038448Y0246615D01*
X0038573Y0246480D01*
X0038695Y0246343D01*
X0038813Y0246202D01*
X0038928Y0246059D01*
X0039039Y0245913D01*
X0039147Y0245764D01*
X0039250Y0245613D01*
X0039351Y0245459D01*
X0039447Y0245302D01*
X0039539Y0245144D01*
X0039628Y0244983D01*
X0039712Y0244820D01*
X0039793Y0244655D01*
X0039869Y0244488D01*
X0039942Y0244319D01*
X0040010Y0244149D01*
X0040074Y0243977D01*
X0040133Y0243803D01*
X0040189Y0243628D01*
X0040240Y0243452D01*
X0040287Y0243274D01*
X0040329Y0243096D01*
X0040367Y0242916D01*
X0040401Y0242736D01*
X0040430Y0242555D01*
X0040455Y0242373D01*
X0040475Y0242190D01*
X0040491Y0242007D01*
X0040502Y0241824D01*
X0040509Y0241641D01*
X0040511Y0241457D01*
X0040509Y0241273D01*
X0040502Y0241090D01*
X0040491Y0240907D01*
X0040475Y0240724D01*
X0040455Y0240541D01*
X0040430Y0240359D01*
X0040401Y0240178D01*
X0040367Y0239998D01*
X0040329Y0239818D01*
X0040287Y0239640D01*
X0040240Y0239462D01*
X0040189Y0239286D01*
X0040133Y0239111D01*
X0040074Y0238937D01*
X0040010Y0238765D01*
X0039942Y0238595D01*
X0039869Y0238426D01*
X0039793Y0238259D01*
X0039712Y0238094D01*
X0039628Y0237931D01*
X0039539Y0237770D01*
X0039447Y0237612D01*
X0039351Y0237455D01*
X0039250Y0237301D01*
X0039147Y0237150D01*
X0039039Y0237001D01*
X0038928Y0236855D01*
X0038813Y0236712D01*
X0038695Y0236571D01*
X0038573Y0236434D01*
X0038448Y0236299D01*
X0038320Y0236168D01*
X0038189Y0236040D01*
X0038054Y0235915D01*
X0037917Y0235793D01*
X0037776Y0235675D01*
X0037633Y0235560D01*
X0037487Y0235449D01*
X0037338Y0235341D01*
X0037187Y0235238D01*
X0037033Y0235137D01*
X0036876Y0235041D01*
X0036718Y0234949D01*
X0036557Y0234860D01*
X0036394Y0234776D01*
X0036229Y0234695D01*
X0036062Y0234619D01*
X0035893Y0234546D01*
X0035723Y0234478D01*
X0035551Y0234414D01*
X0035377Y0234355D01*
X0035202Y0234299D01*
X0035026Y0234248D01*
X0034848Y0234201D01*
X0034670Y0234159D01*
X0034490Y0234121D01*
X0034310Y0234087D01*
X0034129Y0234058D01*
X0033947Y0234033D01*
X0033764Y0234013D01*
X0033581Y0233997D01*
X0033398Y0233986D01*
X0033215Y0233979D01*
X0033031Y0233977D01*
X0032847Y0233979D01*
X0032664Y0233986D01*
X0032481Y0233997D01*
X0032298Y0234013D01*
X0032115Y0234033D01*
X0031933Y0234058D01*
X0031752Y0234087D01*
X0031572Y0234121D01*
X0031392Y0234159D01*
X0031214Y0234201D01*
X0031036Y0234248D01*
X0030860Y0234299D01*
X0030685Y0234355D01*
X0030511Y0234414D01*
X0030339Y0234478D01*
X0030169Y0234546D01*
X0030000Y0234619D01*
X0029833Y0234695D01*
X0029668Y0234776D01*
X0029505Y0234860D01*
X0029344Y0234949D01*
X0029186Y0235041D01*
X0029029Y0235137D01*
X0028875Y0235238D01*
X0028724Y0235341D01*
X0028575Y0235449D01*
X0028429Y0235560D01*
X0028286Y0235675D01*
X0028145Y0235793D01*
X0028008Y0235915D01*
X0027873Y0236040D01*
X0027742Y0236168D01*
X0027614Y0236299D01*
X0027489Y0236434D01*
X0027367Y0236571D01*
X0027249Y0236712D01*
X0027134Y0236855D01*
X0027023Y0237001D01*
X0026915Y0237150D01*
X0026812Y0237301D01*
X0026711Y0237455D01*
X0026615Y0237612D01*
X0026523Y0237770D01*
X0026434Y0237931D01*
X0026350Y0238094D01*
X0026269Y0238259D01*
X0026193Y0238426D01*
X0026120Y0238595D01*
X0026052Y0238765D01*
X0025988Y0238937D01*
X0025929Y0239111D01*
X0025873Y0239286D01*
X0025822Y0239462D01*
X0025775Y0239640D01*
X0025733Y0239818D01*
X0025695Y0239998D01*
X0025661Y0240178D01*
X0025632Y0240359D01*
X0025607Y0240541D01*
X0025587Y0240724D01*
X0025571Y0240907D01*
X0025560Y0241090D01*
X0025553Y0241273D01*
X0025551Y0241457D01*
X0265709Y0015080D02*
X0265711Y0015264D01*
X0265718Y0015447D01*
X0265729Y0015630D01*
X0265745Y0015813D01*
X0265765Y0015996D01*
X0265790Y0016178D01*
X0265819Y0016359D01*
X0265853Y0016539D01*
X0265891Y0016719D01*
X0265933Y0016897D01*
X0265980Y0017075D01*
X0266031Y0017251D01*
X0266087Y0017426D01*
X0266146Y0017600D01*
X0266210Y0017772D01*
X0266278Y0017942D01*
X0266351Y0018111D01*
X0266427Y0018278D01*
X0266508Y0018443D01*
X0266592Y0018606D01*
X0266681Y0018767D01*
X0266773Y0018925D01*
X0266869Y0019082D01*
X0266970Y0019236D01*
X0267073Y0019387D01*
X0267181Y0019536D01*
X0267292Y0019682D01*
X0267407Y0019825D01*
X0267525Y0019966D01*
X0267647Y0020103D01*
X0267772Y0020238D01*
X0267900Y0020369D01*
X0268031Y0020497D01*
X0268166Y0020622D01*
X0268303Y0020744D01*
X0268444Y0020862D01*
X0268587Y0020977D01*
X0268733Y0021088D01*
X0268882Y0021196D01*
X0269033Y0021299D01*
X0269187Y0021400D01*
X0269344Y0021496D01*
X0269502Y0021588D01*
X0269663Y0021677D01*
X0269826Y0021761D01*
X0269991Y0021842D01*
X0270158Y0021918D01*
X0270327Y0021991D01*
X0270497Y0022059D01*
X0270669Y0022123D01*
X0270843Y0022182D01*
X0271018Y0022238D01*
X0271194Y0022289D01*
X0271372Y0022336D01*
X0271550Y0022378D01*
X0271730Y0022416D01*
X0271910Y0022450D01*
X0272091Y0022479D01*
X0272273Y0022504D01*
X0272456Y0022524D01*
X0272639Y0022540D01*
X0272822Y0022551D01*
X0273005Y0022558D01*
X0273189Y0022560D01*
X0273373Y0022558D01*
X0273556Y0022551D01*
X0273739Y0022540D01*
X0273922Y0022524D01*
X0274105Y0022504D01*
X0274287Y0022479D01*
X0274468Y0022450D01*
X0274648Y0022416D01*
X0274828Y0022378D01*
X0275006Y0022336D01*
X0275184Y0022289D01*
X0275360Y0022238D01*
X0275535Y0022182D01*
X0275709Y0022123D01*
X0275881Y0022059D01*
X0276051Y0021991D01*
X0276220Y0021918D01*
X0276387Y0021842D01*
X0276552Y0021761D01*
X0276715Y0021677D01*
X0276876Y0021588D01*
X0277034Y0021496D01*
X0277191Y0021400D01*
X0277345Y0021299D01*
X0277496Y0021196D01*
X0277645Y0021088D01*
X0277791Y0020977D01*
X0277934Y0020862D01*
X0278075Y0020744D01*
X0278212Y0020622D01*
X0278347Y0020497D01*
X0278478Y0020369D01*
X0278606Y0020238D01*
X0278731Y0020103D01*
X0278853Y0019966D01*
X0278971Y0019825D01*
X0279086Y0019682D01*
X0279197Y0019536D01*
X0279305Y0019387D01*
X0279408Y0019236D01*
X0279509Y0019082D01*
X0279605Y0018925D01*
X0279697Y0018767D01*
X0279786Y0018606D01*
X0279870Y0018443D01*
X0279951Y0018278D01*
X0280027Y0018111D01*
X0280100Y0017942D01*
X0280168Y0017772D01*
X0280232Y0017600D01*
X0280291Y0017426D01*
X0280347Y0017251D01*
X0280398Y0017075D01*
X0280445Y0016897D01*
X0280487Y0016719D01*
X0280525Y0016539D01*
X0280559Y0016359D01*
X0280588Y0016178D01*
X0280613Y0015996D01*
X0280633Y0015813D01*
X0280649Y0015630D01*
X0280660Y0015447D01*
X0280667Y0015264D01*
X0280669Y0015080D01*
X0280667Y0014896D01*
X0280660Y0014713D01*
X0280649Y0014530D01*
X0280633Y0014347D01*
X0280613Y0014164D01*
X0280588Y0013982D01*
X0280559Y0013801D01*
X0280525Y0013621D01*
X0280487Y0013441D01*
X0280445Y0013263D01*
X0280398Y0013085D01*
X0280347Y0012909D01*
X0280291Y0012734D01*
X0280232Y0012560D01*
X0280168Y0012388D01*
X0280100Y0012218D01*
X0280027Y0012049D01*
X0279951Y0011882D01*
X0279870Y0011717D01*
X0279786Y0011554D01*
X0279697Y0011393D01*
X0279605Y0011235D01*
X0279509Y0011078D01*
X0279408Y0010924D01*
X0279305Y0010773D01*
X0279197Y0010624D01*
X0279086Y0010478D01*
X0278971Y0010335D01*
X0278853Y0010194D01*
X0278731Y0010057D01*
X0278606Y0009922D01*
X0278478Y0009791D01*
X0278347Y0009663D01*
X0278212Y0009538D01*
X0278075Y0009416D01*
X0277934Y0009298D01*
X0277791Y0009183D01*
X0277645Y0009072D01*
X0277496Y0008964D01*
X0277345Y0008861D01*
X0277191Y0008760D01*
X0277034Y0008664D01*
X0276876Y0008572D01*
X0276715Y0008483D01*
X0276552Y0008399D01*
X0276387Y0008318D01*
X0276220Y0008242D01*
X0276051Y0008169D01*
X0275881Y0008101D01*
X0275709Y0008037D01*
X0275535Y0007978D01*
X0275360Y0007922D01*
X0275184Y0007871D01*
X0275006Y0007824D01*
X0274828Y0007782D01*
X0274648Y0007744D01*
X0274468Y0007710D01*
X0274287Y0007681D01*
X0274105Y0007656D01*
X0273922Y0007636D01*
X0273739Y0007620D01*
X0273556Y0007609D01*
X0273373Y0007602D01*
X0273189Y0007600D01*
X0273005Y0007602D01*
X0272822Y0007609D01*
X0272639Y0007620D01*
X0272456Y0007636D01*
X0272273Y0007656D01*
X0272091Y0007681D01*
X0271910Y0007710D01*
X0271730Y0007744D01*
X0271550Y0007782D01*
X0271372Y0007824D01*
X0271194Y0007871D01*
X0271018Y0007922D01*
X0270843Y0007978D01*
X0270669Y0008037D01*
X0270497Y0008101D01*
X0270327Y0008169D01*
X0270158Y0008242D01*
X0269991Y0008318D01*
X0269826Y0008399D01*
X0269663Y0008483D01*
X0269502Y0008572D01*
X0269344Y0008664D01*
X0269187Y0008760D01*
X0269033Y0008861D01*
X0268882Y0008964D01*
X0268733Y0009072D01*
X0268587Y0009183D01*
X0268444Y0009298D01*
X0268303Y0009416D01*
X0268166Y0009538D01*
X0268031Y0009663D01*
X0267900Y0009791D01*
X0267772Y0009922D01*
X0267647Y0010057D01*
X0267525Y0010194D01*
X0267407Y0010335D01*
X0267292Y0010478D01*
X0267181Y0010624D01*
X0267073Y0010773D01*
X0266970Y0010924D01*
X0266869Y0011078D01*
X0266773Y0011235D01*
X0266681Y0011393D01*
X0266592Y0011554D01*
X0266508Y0011717D01*
X0266427Y0011882D01*
X0266351Y0012049D01*
X0266278Y0012218D01*
X0266210Y0012388D01*
X0266146Y0012560D01*
X0266087Y0012734D01*
X0266031Y0012909D01*
X0265980Y0013085D01*
X0265933Y0013263D01*
X0265891Y0013441D01*
X0265853Y0013621D01*
X0265819Y0013801D01*
X0265790Y0013982D01*
X0265765Y0014164D01*
X0265745Y0014347D01*
X0265729Y0014530D01*
X0265718Y0014713D01*
X0265711Y0014896D01*
X0265709Y0015080D01*
D12*
X0153189Y0017048D03*
X0145315Y0017048D03*
X0137441Y0017048D03*
X0129567Y0017048D03*
X0080276Y0017048D03*
X0031063Y0050513D03*
X0031063Y0058387D03*
X0031063Y0102678D03*
X0031063Y0146891D03*
D13*
X0031063Y0154765D03*
X0031063Y0110552D03*
X0031063Y0066261D03*
X0072402Y0017048D03*
X0121693Y0017048D03*
D14*
X0232539Y0177658D03*
X0222539Y0182658D03*
X0232539Y0187658D03*
X0222539Y0192658D03*
X0232539Y0197658D03*
X0222539Y0202658D03*
X0232539Y0207658D03*
X0222539Y0212658D03*
D15*
X0245709Y0225001D03*
X0245709Y0165158D03*
D16*
X0273268Y0169095D03*
X0273268Y0178938D03*
X0273268Y0211221D03*
X0273268Y0221064D03*
X0273346Y0094922D03*
X0263346Y0094922D03*
X0263346Y0084922D03*
X0263346Y0074922D03*
X0263346Y0064922D03*
X0263346Y0054922D03*
X0273346Y0054922D03*
X0273346Y0064922D03*
X0273346Y0074922D03*
X0273346Y0084922D03*
D17*
X0058937Y0202993D03*
X0047126Y0184489D03*
X0035315Y0202993D03*
D18*
X0086496Y0204922D03*
X0086496Y0194922D03*
X0086496Y0184922D03*
X0086496Y0174922D03*
X0086496Y0164922D03*
X0086496Y0154922D03*
X0086496Y0144922D03*
X0086496Y0134922D03*
X0086496Y0124922D03*
X0086496Y0114922D03*
X0086496Y0104922D03*
X0086496Y0094922D03*
X0086496Y0084922D03*
X0086496Y0074922D03*
X0086496Y0064922D03*
X0086496Y0054922D03*
X0086496Y0044922D03*
X0176496Y0044922D03*
X0176496Y0054922D03*
X0176496Y0064922D03*
X0176496Y0074922D03*
X0176496Y0084922D03*
X0176496Y0094922D03*
X0176496Y0104922D03*
X0176496Y0114922D03*
X0176496Y0124922D03*
X0176496Y0134922D03*
X0176496Y0144922D03*
X0176496Y0154922D03*
X0176496Y0164922D03*
X0176496Y0174922D03*
X0176496Y0184922D03*
X0176496Y0194922D03*
X0176496Y0204922D03*
X0176496Y0214922D03*
X0176496Y0224922D03*
X0176496Y0234922D03*
X0086496Y0234922D03*
X0086496Y0224922D03*
X0086496Y0214922D03*
D19*
X0213530Y0096202D03*
X0213530Y0091202D03*
X0213530Y0086202D03*
X0213530Y0081202D03*
X0234974Y0081202D03*
X0234974Y0086202D03*
X0234974Y0091202D03*
X0234974Y0096202D03*
D20*
X0204488Y0095670D03*
X0196220Y0091930D03*
X0196220Y0099410D03*
X0196220Y0084410D03*
X0204488Y0080670D03*
X0196220Y0076930D03*
D21*
X0209252Y0069017D03*
X0209252Y0062324D03*
X0224252Y0062324D03*
X0224252Y0069017D03*
X0239252Y0069017D03*
X0239252Y0062324D03*
X0239252Y0107481D03*
X0239252Y0114174D03*
X0224252Y0114174D03*
X0224252Y0107481D03*
X0209252Y0107481D03*
X0209252Y0114174D03*
D22*
X0130866Y0117442D03*
X0124173Y0117442D03*
X0126929Y0152875D03*
X0120236Y0152875D03*
X0061969Y0111536D03*
X0055276Y0111536D03*
D23*
X0119843Y0141064D03*
X0127323Y0141064D03*
X0123583Y0132796D03*
D24*
X0123583Y0118032D01*
X0124173Y0117442D01*
X0099961Y0117442D01*
X0092087Y0109568D01*
X0063937Y0109568D01*
X0061969Y0111536D01*
X0055276Y0111536D02*
X0054291Y0110552D01*
X0031063Y0110552D01*
X0059724Y0094922D02*
X0086496Y0094922D01*
X0059724Y0094922D02*
X0031063Y0066261D01*
X0086496Y0134922D02*
X0109567Y0134922D01*
X0115709Y0141064D01*
X0119646Y0141064D01*
X0119646Y0152284D01*
X0120236Y0152875D01*
X0126929Y0152875D02*
X0127323Y0152481D01*
X0127323Y0141064D01*
X0135197Y0133190D01*
X0135394Y0133190D01*
X0119843Y0141064D02*
X0119646Y0141064D01*
X0126929Y0152875D02*
X0139104Y0168796D01*
X0139724Y0169607D01*
X0139724Y0198150D01*
X0176496Y0234922D01*
X0176496Y0194922D02*
X0210276Y0194922D01*
X0222539Y0182658D01*
X0220039Y0174528D02*
X0229409Y0174528D01*
X0232539Y0177658D01*
X0243661Y0176497D02*
X0243661Y0202087D01*
X0238091Y0207658D01*
X0232539Y0207658D01*
X0209646Y0184922D02*
X0220039Y0174528D01*
X0209646Y0184922D02*
X0176496Y0184922D01*
X0176496Y0164922D02*
X0176732Y0164686D01*
X0231850Y0164686D01*
X0243661Y0176497D01*
X0218935Y0119491D02*
X0172876Y0119491D01*
X0170827Y0117442D01*
X0145236Y0117442D01*
X0130866Y0117442D01*
X0130866Y0018347D01*
X0129567Y0017048D01*
X0137441Y0017048D02*
X0137441Y0050591D01*
X0144252Y0057402D01*
X0149173Y0062324D01*
X0171772Y0084922D01*
X0176496Y0084922D01*
X0186575Y0093820D02*
X0192165Y0099410D01*
X0196220Y0099410D01*
X0201181Y0099410D01*
X0209252Y0107481D01*
X0209252Y0114174D02*
X0202992Y0114174D01*
X0202323Y0113505D01*
X0218935Y0119491D02*
X0224252Y0114174D01*
X0227244Y0114174D01*
X0227913Y0113505D01*
X0227913Y0064292D01*
X0225945Y0062324D01*
X0224252Y0062324D01*
X0224252Y0069017D02*
X0224252Y0081733D01*
X0219783Y0086202D01*
X0213530Y0086202D01*
X0213530Y0091202D02*
X0208957Y0091202D01*
X0204488Y0095670D01*
X0200354Y0089883D02*
X0200354Y0080040D01*
X0197244Y0076930D01*
X0196220Y0076930D01*
X0196220Y0074331D01*
X0198386Y0072166D01*
X0192480Y0068229D02*
X0192480Y0080670D01*
X0196220Y0084410D01*
X0200354Y0089883D02*
X0198307Y0091930D01*
X0196220Y0091930D01*
X0186575Y0093820D02*
X0186575Y0065001D01*
X0176496Y0054922D01*
X0176496Y0044922D02*
X0179016Y0044922D01*
X0192480Y0058387D01*
X0192480Y0068229D01*
X0208465Y0068229D01*
X0209252Y0069017D01*
X0209218Y0069051D01*
X0209252Y0062324D02*
X0209252Y0057442D01*
X0208228Y0056418D01*
X0204488Y0080670D02*
X0205020Y0081202D01*
X0213530Y0081202D01*
X0213530Y0096202D02*
X0213530Y0096759D01*
X0224252Y0107481D01*
X0239252Y0107481D02*
X0239252Y0100480D01*
X0234974Y0096202D01*
X0243248Y0096202D01*
X0254528Y0084922D01*
X0263346Y0084922D01*
X0263346Y0074922D02*
X0250748Y0074922D01*
X0250551Y0075119D01*
X0245354Y0075119D01*
X0239252Y0069017D01*
X0237756Y0076103D02*
X0234974Y0078885D01*
X0234974Y0081202D01*
X0234974Y0086202D02*
X0239469Y0086202D01*
X0250551Y0075119D01*
X0239252Y0062324D02*
X0246654Y0054922D01*
X0263346Y0054922D01*
X0273346Y0054922D01*
X0279094Y0060670D01*
X0279094Y0069174D01*
X0273346Y0074922D01*
X0273346Y0084922D01*
X0279094Y0090670D01*
X0279094Y0101694D01*
X0266614Y0114174D01*
X0239252Y0114174D01*
X0241693Y0091851D02*
X0241043Y0091202D01*
X0234974Y0091202D01*
X0176496Y0074922D02*
X0147677Y0046103D01*
X0147205Y0045631D01*
X0147205Y0032796D01*
X0031063Y0154765D02*
X0041220Y0164922D01*
X0086496Y0164922D01*
D25*
X0198386Y0072166D03*
X0208228Y0056418D03*
X0237756Y0076103D03*
X0241693Y0091851D03*
D26*
X0202323Y0113505D03*
X0145236Y0117442D03*
X0135394Y0133190D03*
X0147205Y0032796D03*
M02*
