G75*
%MOIN*%
%OFA0B0*%
%FSLAX25Y25*%
%IPPOS*%
%LPD*%
%AMOC8*
5,1,8,0,0,1.08239X$1,22.5*
%
%ADD10C,0.00600*%
%ADD11C,0.00000*%
%ADD12C,0.00400*%
%ADD13C,0.00300*%
%ADD14C,0.00500*%
%ADD15C,0.00800*%
%ADD16C,0.02205*%
%ADD17R,0.00120X0.00040*%
%ADD18R,0.00120X0.00040*%
%ADD19R,0.00200X0.00040*%
%ADD20R,0.00200X0.00040*%
%ADD21R,0.00280X0.00040*%
%ADD22R,0.00160X0.00040*%
%ADD23R,0.00120X0.00040*%
%ADD24R,0.00120X0.00040*%
%ADD25R,0.00160X0.00040*%
%ADD26R,0.00080X0.00040*%
%ADD27R,0.00040X0.00040*%
%ADD28R,0.00520X0.00040*%
%ADD29R,0.00840X0.00040*%
%ADD30R,0.01000X0.00040*%
%ADD31R,0.00040X0.00040*%
%ADD32R,0.01480X0.00040*%
%ADD33R,0.01720X0.00040*%
%ADD34R,0.02040X0.00040*%
%ADD35R,0.02200X0.00040*%
%ADD36R,0.02360X0.00040*%
%ADD37R,0.02280X0.00040*%
%ADD38R,0.02360X0.00040*%
%ADD39R,0.02120X0.00040*%
%ADD40R,0.00040X0.00040*%
%ADD41R,0.01680X0.00040*%
%ADD42R,0.00040X0.00040*%
%ADD43R,0.01520X0.00040*%
%ADD44R,0.01160X0.00040*%
%ADD45R,0.00920X0.00040*%
%ADD46R,0.00560X0.00040*%
%ADD47R,0.00320X0.00040*%
%ADD48R,0.00520X0.00040*%
%ADD49R,0.00600X0.00040*%
%ADD50R,0.01440X0.00040*%
%ADD51R,0.01960X0.00040*%
%ADD52R,0.02240X0.00040*%
%ADD53R,0.02760X0.00040*%
%ADD54R,0.03040X0.00040*%
%ADD55R,0.03240X0.00040*%
%ADD56R,0.03320X0.00040*%
%ADD57R,0.03320X0.00040*%
%ADD58R,0.03280X0.00040*%
%ADD59R,0.03040X0.00040*%
%ADD60R,0.02160X0.00040*%
%ADD61R,0.01560X0.00040*%
%ADD62R,0.01320X0.00040*%
%ADD63R,0.00760X0.00040*%
%ADD64R,0.00680X0.00040*%
%ADD65R,0.00280X0.00040*%
%ADD66R,0.00720X0.00040*%
%ADD67R,0.01760X0.00040*%
%ADD68R,0.02840X0.00040*%
%ADD69R,0.03400X0.00040*%
%ADD70R,0.03800X0.00040*%
%ADD71R,0.04200X0.00040*%
%ADD72R,0.04240X0.00040*%
%ADD73R,0.04280X0.00040*%
%ADD74R,0.04280X0.00040*%
%ADD75R,0.04040X0.00040*%
%ADD76R,0.03160X0.00040*%
%ADD77R,0.02840X0.00040*%
%ADD78R,0.02120X0.00040*%
%ADD79R,0.01800X0.00040*%
%ADD80R,0.01120X0.00040*%
%ADD81R,0.00720X0.00040*%
%ADD82R,0.00240X0.00040*%
%ADD83R,0.01440X0.00040*%
%ADD84R,0.01880X0.00040*%
%ADD85R,0.02680X0.00040*%
%ADD86R,0.03080X0.00040*%
%ADD87R,0.03880X0.00040*%
%ADD88R,0.04840X0.00040*%
%ADD89R,0.04960X0.00040*%
%ADD90R,0.04920X0.00040*%
%ADD91R,0.04640X0.00040*%
%ADD92R,0.03840X0.00040*%
%ADD93R,0.01400X0.00040*%
%ADD94R,0.01240X0.00040*%
%ADD95R,0.01400X0.00040*%
%ADD96R,0.01560X0.00040*%
%ADD97R,0.01720X0.00040*%
%ADD98R,0.02160X0.00040*%
%ADD99R,0.00960X0.00040*%
%ADD100R,0.02400X0.00040*%
%ADD101R,0.02440X0.00040*%
%ADD102R,0.02320X0.00040*%
%ADD103R,0.02600X0.00040*%
%ADD104R,0.02840X0.00040*%
%ADD105R,0.05840X0.00040*%
%ADD106R,0.05840X0.00040*%
%ADD107R,0.05880X0.00040*%
%ADD108R,0.05960X0.00040*%
%ADD109R,0.05880X0.00040*%
%ADD110R,0.05280X0.00040*%
%ADD111R,0.04760X0.00040*%
%ADD112R,0.03960X0.00040*%
%ADD113R,0.04000X0.00040*%
%ADD114R,0.04320X0.00040*%
%ADD115R,0.04480X0.00040*%
%ADD116R,0.04520X0.00040*%
%ADD117R,0.04640X0.00040*%
%ADD118R,0.05000X0.00040*%
%ADD119R,0.05080X0.00040*%
%ADD120R,0.05480X0.00040*%
%ADD121R,0.05520X0.00040*%
%ADD122R,0.05680X0.00040*%
%ADD123R,0.05800X0.00040*%
%ADD124R,0.06280X0.00040*%
%ADD125R,0.06240X0.00040*%
%ADD126R,0.00360X0.00040*%
%ADD127R,0.05760X0.00040*%
%ADD128R,0.00400X0.00040*%
%ADD129R,0.05720X0.00040*%
%ADD130R,0.05720X0.00040*%
%ADD131R,0.00440X0.00040*%
%ADD132R,0.00440X0.00040*%
%ADD133R,0.00400X0.00040*%
%ADD134R,0.05720X0.00040*%
%ADD135R,0.00480X0.00040*%
%ADD136R,0.05720X0.00040*%
%ADD137R,0.00440X0.00040*%
%ADD138R,0.00480X0.00040*%
%ADD139R,0.05640X0.00040*%
%ADD140R,0.04720X0.00040*%
%ADD141R,0.04680X0.00040*%
%ADD142R,0.04520X0.00040*%
%ADD143R,0.04440X0.00040*%
%ADD144R,0.00720X0.00040*%
%ADD145R,0.00640X0.00040*%
%ADD146R,0.04080X0.00040*%
%ADD147R,0.03800X0.00040*%
%ADD148R,0.00680X0.00040*%
%ADD149R,0.00520X0.00040*%
%ADD150R,0.03760X0.00040*%
%ADD151R,0.03720X0.00040*%
%ADD152R,0.00320X0.00040*%
%ADD153R,0.02520X0.00040*%
%ADD154R,0.00760X0.00040*%
%ADD155R,0.02080X0.00040*%
%ADD156R,0.01720X0.00040*%
%ADD157R,0.01680X0.00040*%
%ADD158R,0.00840X0.00040*%
%ADD159R,0.01040X0.00040*%
%ADD160R,0.00880X0.00040*%
%ADD161R,0.01000X0.00040*%
%ADD162R,0.01080X0.00040*%
%ADD163R,0.01200X0.00040*%
%ADD164R,0.00640X0.00040*%
%ADD165R,0.00520X0.00040*%
%ADD166R,0.02040X0.00040*%
%ADD167R,0.02000X0.00040*%
%ADD168R,0.00600X0.00040*%
%ADD169R,0.02040X0.00040*%
%ADD170R,0.02480X0.00040*%
%ADD171R,0.02640X0.00040*%
%ADD172R,0.00720X0.00040*%
%ADD173R,0.03120X0.00040*%
%ADD174R,0.03920X0.00040*%
%ADD175R,0.03840X0.00040*%
%ADD176R,0.00080X0.00040*%
%ADD177R,0.01360X0.00040*%
%ADD178R,0.04000X0.00040*%
%ADD179R,0.01480X0.00040*%
%ADD180R,0.00560X0.00040*%
%ADD181R,0.04440X0.00040*%
%ADD182R,0.00360X0.00040*%
%ADD183R,0.04920X0.00040*%
%ADD184R,0.01520X0.00040*%
%ADD185R,0.01600X0.00040*%
%ADD186R,0.04880X0.00040*%
%ADD187R,0.04920X0.00040*%
%ADD188R,0.01640X0.00040*%
%ADD189R,0.05160X0.00040*%
%ADD190R,0.05640X0.00040*%
%ADD191R,0.05480X0.00040*%
%ADD192R,0.00800X0.00040*%
%ADD193R,0.00920X0.00040*%
%ADD194R,0.05240X0.00040*%
%ADD195R,0.00800X0.00040*%
%ADD196R,0.05200X0.00040*%
%ADD197R,0.04760X0.00040*%
%ADD198R,0.01360X0.00040*%
%ADD199R,0.04520X0.00040*%
%ADD200R,0.04360X0.00040*%
%ADD201R,0.04240X0.00040*%
%ADD202R,0.01120X0.00040*%
%ADD203R,0.01160X0.00040*%
%ADD204R,0.00840X0.00040*%
%ADD205R,0.04200X0.00040*%
%ADD206R,0.01920X0.00040*%
%ADD207R,0.02120X0.00040*%
%ADD208R,0.03640X0.00040*%
%ADD209R,0.02880X0.00040*%
%ADD210R,0.00960X0.00040*%
%ADD211R,0.03520X0.00040*%
%ADD212R,0.02400X0.00040*%
%ADD213R,0.02920X0.00040*%
%ADD214R,0.03480X0.00040*%
%ADD215R,0.02520X0.00040*%
%ADD216R,0.03240X0.00040*%
%ADD217R,0.03200X0.00040*%
%ADD218R,0.02720X0.00040*%
%ADD219R,0.02960X0.00040*%
%ADD220R,0.02800X0.00040*%
%ADD221R,0.02920X0.00040*%
%ADD222R,0.00240X0.00040*%
%ADD223R,0.00240X0.00040*%
%ADD224R,0.03120X0.00040*%
%ADD225R,0.00880X0.00040*%
%ADD226R,0.02520X0.00040*%
%ADD227R,0.02040X0.00040*%
%ADD228R,0.02000X0.00040*%
%ADD229R,0.03400X0.00040*%
%ADD230R,0.00320X0.00040*%
%ADD231R,0.02080X0.00040*%
%ADD232R,0.00640X0.00040*%
%ADD233R,0.01320X0.00040*%
%ADD234R,0.04040X0.00040*%
%ADD235R,0.04120X0.00040*%
%ADD236R,0.04440X0.00040*%
%ADD237R,0.03000X0.00040*%
%ADD238R,0.01240X0.00040*%
%ADD239R,0.04600X0.00040*%
%ADD240R,0.03000X0.00040*%
%ADD241R,0.01040X0.00040*%
%ADD242R,0.01120X0.00040*%
%ADD243R,0.01080X0.00040*%
%ADD244R,0.01320X0.00040*%
%ADD245R,0.01280X0.00040*%
%ADD246R,0.00920X0.00040*%
%ADD247R,0.02640X0.00040*%
%ADD248R,0.03720X0.00040*%
%ADD249R,0.02440X0.00040*%
%ADD250R,0.03600X0.00040*%
%ADD251R,0.02240X0.00040*%
%ADD252R,0.01760X0.00040*%
%ADD253R,0.01960X0.00040*%
%ADD254R,0.01640X0.00040*%
%ADD255R,0.02240X0.00040*%
%ADD256R,0.01920X0.00040*%
%ADD257R,0.02640X0.00040*%
%ADD258R,0.01440X0.00040*%
%ADD259R,0.02960X0.00040*%
%ADD260R,0.00440X0.00040*%
%ADD261R,0.03240X0.00040*%
%ADD262R,0.01040X0.00040*%
%ADD263R,0.01840X0.00040*%
%ADD264R,0.00240X0.00040*%
%ADD265R,0.03480X0.00040*%
%ADD266R,0.03560X0.00040*%
%ADD267R,0.02600X0.00040*%
%ADD268R,0.02320X0.00040*%
%ADD269R,0.00920X0.00040*%
%ADD270R,0.00840X0.00040*%
%ADD271R,0.01800X0.00040*%
%ADD272R,0.01240X0.00040*%
%ADD273R,0.01040X0.00040*%
%ADD274R,0.00320X0.00040*%
%ADD275R,0.01720X0.00040*%
%ADD276R,0.02280X0.00040*%
%ADD277R,0.02680X0.00040*%
%ADD278R,0.02440X0.00040*%
%ADD279R,0.01920X0.00040*%
%ADD280R,0.01840X0.00040*%
%ADD281R,0.01880X0.00040*%
%ADD282R,0.03640X0.00040*%
%ADD283R,0.02560X0.00040*%
%ADD284R,0.02640X0.00040*%
%ADD285R,0.01640X0.00040*%
%ADD286R,0.03320X0.00040*%
%ADD287R,0.01640X0.00040*%
%ADD288R,0.04120X0.00040*%
%ADD289R,0.04160X0.00040*%
%ADD290R,0.04560X0.00040*%
%ADD291R,0.04600X0.00040*%
%ADD292R,0.04680X0.00040*%
%ADD293R,0.05000X0.00040*%
%ADD294R,0.05160X0.00040*%
%ADD295R,0.05320X0.00040*%
%ADD296R,0.05320X0.00040*%
%ADD297R,0.05360X0.00040*%
%ADD298R,0.05360X0.00040*%
%ADD299R,0.05400X0.00040*%
%ADD300R,0.05440X0.00040*%
%ADD301R,0.05400X0.00040*%
%ADD302R,0.01520X0.00040*%
%ADD303R,0.05640X0.00040*%
%ADD304R,0.01520X0.00040*%
%ADD305R,0.06120X0.00040*%
%ADD306R,0.04840X0.00040*%
%ADD307R,0.01320X0.00040*%
%ADD308R,0.05040X0.00040*%
%ADD309R,0.06200X0.00040*%
%ADD310R,0.06440X0.00040*%
%ADD311R,0.06480X0.00040*%
%ADD312R,0.06520X0.00040*%
%ADD313R,0.06560X0.00040*%
%ADD314R,0.06600X0.00040*%
%ADD315R,0.02880X0.00040*%
%ADD316R,0.06520X0.00040*%
%ADD317R,0.06600X0.00040*%
%ADD318R,0.03120X0.00040*%
%ADD319R,0.03160X0.00040*%
%ADD320R,0.05800X0.00040*%
%ADD321R,0.07360X0.00040*%
%ADD322R,0.07240X0.00040*%
%ADD323R,0.03360X0.00040*%
%ADD324R,0.07280X0.00040*%
%ADD325R,0.07160X0.00040*%
%ADD326R,0.03440X0.00040*%
%ADD327R,0.07160X0.00040*%
%ADD328R,0.07120X0.00040*%
%ADD329R,0.03520X0.00040*%
%ADD330R,0.03600X0.00040*%
%ADD331R,0.03720X0.00040*%
%ADD332R,0.04400X0.00040*%
%ADD333R,0.03760X0.00040*%
%ADD334R,0.05280X0.00040*%
%ADD335R,0.06040X0.00040*%
%ADD336R,0.03880X0.00040*%
%ADD337R,0.07120X0.00040*%
%ADD338R,0.03920X0.00040*%
%ADD339R,0.07200X0.00040*%
%ADD340R,0.07320X0.00040*%
%ADD341R,0.07440X0.00040*%
%ADD342R,0.08520X0.00040*%
%ADD343R,0.08440X0.00040*%
%ADD344R,0.08480X0.00040*%
%ADD345R,0.03960X0.00040*%
%ADD346R,0.03840X0.00040*%
%ADD347R,0.02520X0.00040*%
%ADD348R,0.03920X0.00040*%
%ADD349R,0.04120X0.00040*%
%ADD350R,0.01280X0.00040*%
%ADD351R,0.03680X0.00040*%
%ADD352R,0.03520X0.00040*%
%ADD353R,0.03560X0.00040*%
%ADD354R,0.03080X0.00040*%
%ADD355R,0.02760X0.00040*%
%ADD356R,0.04160X0.00040*%
%ADD357R,0.04120X0.00040*%
%ADD358R,0.04040X0.00040*%
%ADD359R,0.04040X0.00040*%
%ADD360R,0.01840X0.00040*%
%ADD361R,0.02920X0.00040*%
D10*
X0015315Y0001300D02*
X0015315Y0253859D01*
X0288346Y0253859D01*
X0288346Y0001300D01*
X0015315Y0001300D01*
X0216268Y0078898D02*
X0217952Y0078898D01*
X0232236Y0078898D01*
X0232252Y0083202D02*
X0232252Y0084202D01*
X0232252Y0088202D02*
X0232252Y0089202D01*
X0232252Y0093202D02*
X0232252Y0094202D01*
X0232236Y0098505D02*
X0217952Y0098505D01*
X0216268Y0098505D01*
X0216252Y0094202D02*
X0216252Y0093202D01*
X0216252Y0089202D02*
X0216252Y0088202D01*
X0216252Y0084202D02*
X0216252Y0083202D01*
D11*
X0265709Y0015080D02*
X0265711Y0015264D01*
X0265718Y0015447D01*
X0265729Y0015630D01*
X0265745Y0015813D01*
X0265765Y0015996D01*
X0265790Y0016178D01*
X0265819Y0016359D01*
X0265853Y0016539D01*
X0265891Y0016719D01*
X0265933Y0016897D01*
X0265980Y0017075D01*
X0266031Y0017251D01*
X0266087Y0017426D01*
X0266146Y0017600D01*
X0266210Y0017772D01*
X0266278Y0017942D01*
X0266351Y0018111D01*
X0266427Y0018278D01*
X0266508Y0018443D01*
X0266592Y0018606D01*
X0266681Y0018767D01*
X0266773Y0018925D01*
X0266869Y0019082D01*
X0266970Y0019236D01*
X0267073Y0019387D01*
X0267181Y0019536D01*
X0267292Y0019682D01*
X0267407Y0019825D01*
X0267525Y0019966D01*
X0267647Y0020103D01*
X0267772Y0020238D01*
X0267900Y0020369D01*
X0268031Y0020497D01*
X0268166Y0020622D01*
X0268303Y0020744D01*
X0268444Y0020862D01*
X0268587Y0020977D01*
X0268733Y0021088D01*
X0268882Y0021196D01*
X0269033Y0021299D01*
X0269187Y0021400D01*
X0269344Y0021496D01*
X0269502Y0021588D01*
X0269663Y0021677D01*
X0269826Y0021761D01*
X0269991Y0021842D01*
X0270158Y0021918D01*
X0270327Y0021991D01*
X0270497Y0022059D01*
X0270669Y0022123D01*
X0270843Y0022182D01*
X0271018Y0022238D01*
X0271194Y0022289D01*
X0271372Y0022336D01*
X0271550Y0022378D01*
X0271730Y0022416D01*
X0271910Y0022450D01*
X0272091Y0022479D01*
X0272273Y0022504D01*
X0272456Y0022524D01*
X0272639Y0022540D01*
X0272822Y0022551D01*
X0273005Y0022558D01*
X0273189Y0022560D01*
X0273373Y0022558D01*
X0273556Y0022551D01*
X0273739Y0022540D01*
X0273922Y0022524D01*
X0274105Y0022504D01*
X0274287Y0022479D01*
X0274468Y0022450D01*
X0274648Y0022416D01*
X0274828Y0022378D01*
X0275006Y0022336D01*
X0275184Y0022289D01*
X0275360Y0022238D01*
X0275535Y0022182D01*
X0275709Y0022123D01*
X0275881Y0022059D01*
X0276051Y0021991D01*
X0276220Y0021918D01*
X0276387Y0021842D01*
X0276552Y0021761D01*
X0276715Y0021677D01*
X0276876Y0021588D01*
X0277034Y0021496D01*
X0277191Y0021400D01*
X0277345Y0021299D01*
X0277496Y0021196D01*
X0277645Y0021088D01*
X0277791Y0020977D01*
X0277934Y0020862D01*
X0278075Y0020744D01*
X0278212Y0020622D01*
X0278347Y0020497D01*
X0278478Y0020369D01*
X0278606Y0020238D01*
X0278731Y0020103D01*
X0278853Y0019966D01*
X0278971Y0019825D01*
X0279086Y0019682D01*
X0279197Y0019536D01*
X0279305Y0019387D01*
X0279408Y0019236D01*
X0279509Y0019082D01*
X0279605Y0018925D01*
X0279697Y0018767D01*
X0279786Y0018606D01*
X0279870Y0018443D01*
X0279951Y0018278D01*
X0280027Y0018111D01*
X0280100Y0017942D01*
X0280168Y0017772D01*
X0280232Y0017600D01*
X0280291Y0017426D01*
X0280347Y0017251D01*
X0280398Y0017075D01*
X0280445Y0016897D01*
X0280487Y0016719D01*
X0280525Y0016539D01*
X0280559Y0016359D01*
X0280588Y0016178D01*
X0280613Y0015996D01*
X0280633Y0015813D01*
X0280649Y0015630D01*
X0280660Y0015447D01*
X0280667Y0015264D01*
X0280669Y0015080D01*
X0280667Y0014896D01*
X0280660Y0014713D01*
X0280649Y0014530D01*
X0280633Y0014347D01*
X0280613Y0014164D01*
X0280588Y0013982D01*
X0280559Y0013801D01*
X0280525Y0013621D01*
X0280487Y0013441D01*
X0280445Y0013263D01*
X0280398Y0013085D01*
X0280347Y0012909D01*
X0280291Y0012734D01*
X0280232Y0012560D01*
X0280168Y0012388D01*
X0280100Y0012218D01*
X0280027Y0012049D01*
X0279951Y0011882D01*
X0279870Y0011717D01*
X0279786Y0011554D01*
X0279697Y0011393D01*
X0279605Y0011235D01*
X0279509Y0011078D01*
X0279408Y0010924D01*
X0279305Y0010773D01*
X0279197Y0010624D01*
X0279086Y0010478D01*
X0278971Y0010335D01*
X0278853Y0010194D01*
X0278731Y0010057D01*
X0278606Y0009922D01*
X0278478Y0009791D01*
X0278347Y0009663D01*
X0278212Y0009538D01*
X0278075Y0009416D01*
X0277934Y0009298D01*
X0277791Y0009183D01*
X0277645Y0009072D01*
X0277496Y0008964D01*
X0277345Y0008861D01*
X0277191Y0008760D01*
X0277034Y0008664D01*
X0276876Y0008572D01*
X0276715Y0008483D01*
X0276552Y0008399D01*
X0276387Y0008318D01*
X0276220Y0008242D01*
X0276051Y0008169D01*
X0275881Y0008101D01*
X0275709Y0008037D01*
X0275535Y0007978D01*
X0275360Y0007922D01*
X0275184Y0007871D01*
X0275006Y0007824D01*
X0274828Y0007782D01*
X0274648Y0007744D01*
X0274468Y0007710D01*
X0274287Y0007681D01*
X0274105Y0007656D01*
X0273922Y0007636D01*
X0273739Y0007620D01*
X0273556Y0007609D01*
X0273373Y0007602D01*
X0273189Y0007600D01*
X0273005Y0007602D01*
X0272822Y0007609D01*
X0272639Y0007620D01*
X0272456Y0007636D01*
X0272273Y0007656D01*
X0272091Y0007681D01*
X0271910Y0007710D01*
X0271730Y0007744D01*
X0271550Y0007782D01*
X0271372Y0007824D01*
X0271194Y0007871D01*
X0271018Y0007922D01*
X0270843Y0007978D01*
X0270669Y0008037D01*
X0270497Y0008101D01*
X0270327Y0008169D01*
X0270158Y0008242D01*
X0269991Y0008318D01*
X0269826Y0008399D01*
X0269663Y0008483D01*
X0269502Y0008572D01*
X0269344Y0008664D01*
X0269187Y0008760D01*
X0269033Y0008861D01*
X0268882Y0008964D01*
X0268733Y0009072D01*
X0268587Y0009183D01*
X0268444Y0009298D01*
X0268303Y0009416D01*
X0268166Y0009538D01*
X0268031Y0009663D01*
X0267900Y0009791D01*
X0267772Y0009922D01*
X0267647Y0010057D01*
X0267525Y0010194D01*
X0267407Y0010335D01*
X0267292Y0010478D01*
X0267181Y0010624D01*
X0267073Y0010773D01*
X0266970Y0010924D01*
X0266869Y0011078D01*
X0266773Y0011235D01*
X0266681Y0011393D01*
X0266592Y0011554D01*
X0266508Y0011717D01*
X0266427Y0011882D01*
X0266351Y0012049D01*
X0266278Y0012218D01*
X0266210Y0012388D01*
X0266146Y0012560D01*
X0266087Y0012734D01*
X0266031Y0012909D01*
X0265980Y0013085D01*
X0265933Y0013263D01*
X0265891Y0013441D01*
X0265853Y0013621D01*
X0265819Y0013801D01*
X0265790Y0013982D01*
X0265765Y0014164D01*
X0265745Y0014347D01*
X0265729Y0014530D01*
X0265718Y0014713D01*
X0265711Y0014896D01*
X0265709Y0015080D01*
X0251240Y0172658D02*
X0251242Y0172816D01*
X0251248Y0172974D01*
X0251258Y0173132D01*
X0251272Y0173290D01*
X0251290Y0173447D01*
X0251311Y0173604D01*
X0251337Y0173760D01*
X0251367Y0173916D01*
X0251400Y0174071D01*
X0251438Y0174224D01*
X0251479Y0174377D01*
X0251524Y0174529D01*
X0251573Y0174680D01*
X0251626Y0174829D01*
X0251682Y0174977D01*
X0251742Y0175123D01*
X0251806Y0175268D01*
X0251874Y0175411D01*
X0251945Y0175553D01*
X0252019Y0175693D01*
X0252097Y0175830D01*
X0252179Y0175966D01*
X0252263Y0176100D01*
X0252352Y0176231D01*
X0252443Y0176360D01*
X0252538Y0176487D01*
X0252635Y0176612D01*
X0252736Y0176734D01*
X0252840Y0176853D01*
X0252947Y0176970D01*
X0253057Y0177084D01*
X0253170Y0177195D01*
X0253285Y0177304D01*
X0253403Y0177409D01*
X0253524Y0177511D01*
X0253647Y0177611D01*
X0253773Y0177707D01*
X0253901Y0177800D01*
X0254031Y0177890D01*
X0254164Y0177976D01*
X0254299Y0178060D01*
X0254435Y0178139D01*
X0254574Y0178216D01*
X0254715Y0178288D01*
X0254857Y0178358D01*
X0255001Y0178423D01*
X0255147Y0178485D01*
X0255294Y0178543D01*
X0255443Y0178598D01*
X0255593Y0178649D01*
X0255744Y0178696D01*
X0255896Y0178739D01*
X0256049Y0178778D01*
X0256204Y0178814D01*
X0256359Y0178845D01*
X0256515Y0178873D01*
X0256671Y0178897D01*
X0256828Y0178917D01*
X0256986Y0178933D01*
X0257143Y0178945D01*
X0257302Y0178953D01*
X0257460Y0178957D01*
X0257618Y0178957D01*
X0257776Y0178953D01*
X0257935Y0178945D01*
X0258092Y0178933D01*
X0258250Y0178917D01*
X0258407Y0178897D01*
X0258563Y0178873D01*
X0258719Y0178845D01*
X0258874Y0178814D01*
X0259029Y0178778D01*
X0259182Y0178739D01*
X0259334Y0178696D01*
X0259485Y0178649D01*
X0259635Y0178598D01*
X0259784Y0178543D01*
X0259931Y0178485D01*
X0260077Y0178423D01*
X0260221Y0178358D01*
X0260363Y0178288D01*
X0260504Y0178216D01*
X0260643Y0178139D01*
X0260779Y0178060D01*
X0260914Y0177976D01*
X0261047Y0177890D01*
X0261177Y0177800D01*
X0261305Y0177707D01*
X0261431Y0177611D01*
X0261554Y0177511D01*
X0261675Y0177409D01*
X0261793Y0177304D01*
X0261908Y0177195D01*
X0262021Y0177084D01*
X0262131Y0176970D01*
X0262238Y0176853D01*
X0262342Y0176734D01*
X0262443Y0176612D01*
X0262540Y0176487D01*
X0262635Y0176360D01*
X0262726Y0176231D01*
X0262815Y0176100D01*
X0262899Y0175966D01*
X0262981Y0175830D01*
X0263059Y0175693D01*
X0263133Y0175553D01*
X0263204Y0175411D01*
X0263272Y0175268D01*
X0263336Y0175123D01*
X0263396Y0174977D01*
X0263452Y0174829D01*
X0263505Y0174680D01*
X0263554Y0174529D01*
X0263599Y0174377D01*
X0263640Y0174224D01*
X0263678Y0174071D01*
X0263711Y0173916D01*
X0263741Y0173760D01*
X0263767Y0173604D01*
X0263788Y0173447D01*
X0263806Y0173290D01*
X0263820Y0173132D01*
X0263830Y0172974D01*
X0263836Y0172816D01*
X0263838Y0172658D01*
X0263836Y0172500D01*
X0263830Y0172342D01*
X0263820Y0172184D01*
X0263806Y0172026D01*
X0263788Y0171869D01*
X0263767Y0171712D01*
X0263741Y0171556D01*
X0263711Y0171400D01*
X0263678Y0171245D01*
X0263640Y0171092D01*
X0263599Y0170939D01*
X0263554Y0170787D01*
X0263505Y0170636D01*
X0263452Y0170487D01*
X0263396Y0170339D01*
X0263336Y0170193D01*
X0263272Y0170048D01*
X0263204Y0169905D01*
X0263133Y0169763D01*
X0263059Y0169623D01*
X0262981Y0169486D01*
X0262899Y0169350D01*
X0262815Y0169216D01*
X0262726Y0169085D01*
X0262635Y0168956D01*
X0262540Y0168829D01*
X0262443Y0168704D01*
X0262342Y0168582D01*
X0262238Y0168463D01*
X0262131Y0168346D01*
X0262021Y0168232D01*
X0261908Y0168121D01*
X0261793Y0168012D01*
X0261675Y0167907D01*
X0261554Y0167805D01*
X0261431Y0167705D01*
X0261305Y0167609D01*
X0261177Y0167516D01*
X0261047Y0167426D01*
X0260914Y0167340D01*
X0260779Y0167256D01*
X0260643Y0167177D01*
X0260504Y0167100D01*
X0260363Y0167028D01*
X0260221Y0166958D01*
X0260077Y0166893D01*
X0259931Y0166831D01*
X0259784Y0166773D01*
X0259635Y0166718D01*
X0259485Y0166667D01*
X0259334Y0166620D01*
X0259182Y0166577D01*
X0259029Y0166538D01*
X0258874Y0166502D01*
X0258719Y0166471D01*
X0258563Y0166443D01*
X0258407Y0166419D01*
X0258250Y0166399D01*
X0258092Y0166383D01*
X0257935Y0166371D01*
X0257776Y0166363D01*
X0257618Y0166359D01*
X0257460Y0166359D01*
X0257302Y0166363D01*
X0257143Y0166371D01*
X0256986Y0166383D01*
X0256828Y0166399D01*
X0256671Y0166419D01*
X0256515Y0166443D01*
X0256359Y0166471D01*
X0256204Y0166502D01*
X0256049Y0166538D01*
X0255896Y0166577D01*
X0255744Y0166620D01*
X0255593Y0166667D01*
X0255443Y0166718D01*
X0255294Y0166773D01*
X0255147Y0166831D01*
X0255001Y0166893D01*
X0254857Y0166958D01*
X0254715Y0167028D01*
X0254574Y0167100D01*
X0254435Y0167177D01*
X0254299Y0167256D01*
X0254164Y0167340D01*
X0254031Y0167426D01*
X0253901Y0167516D01*
X0253773Y0167609D01*
X0253647Y0167705D01*
X0253524Y0167805D01*
X0253403Y0167907D01*
X0253285Y0168012D01*
X0253170Y0168121D01*
X0253057Y0168232D01*
X0252947Y0168346D01*
X0252840Y0168463D01*
X0252736Y0168582D01*
X0252635Y0168704D01*
X0252538Y0168829D01*
X0252443Y0168956D01*
X0252352Y0169085D01*
X0252263Y0169216D01*
X0252179Y0169350D01*
X0252097Y0169486D01*
X0252019Y0169623D01*
X0251945Y0169763D01*
X0251874Y0169905D01*
X0251806Y0170048D01*
X0251742Y0170193D01*
X0251682Y0170339D01*
X0251626Y0170487D01*
X0251573Y0170636D01*
X0251524Y0170787D01*
X0251479Y0170939D01*
X0251438Y0171092D01*
X0251400Y0171245D01*
X0251367Y0171400D01*
X0251337Y0171556D01*
X0251311Y0171712D01*
X0251290Y0171869D01*
X0251272Y0172026D01*
X0251258Y0172184D01*
X0251248Y0172342D01*
X0251242Y0172500D01*
X0251240Y0172658D01*
X0251240Y0217658D02*
X0251242Y0217816D01*
X0251248Y0217974D01*
X0251258Y0218132D01*
X0251272Y0218290D01*
X0251290Y0218447D01*
X0251311Y0218604D01*
X0251337Y0218760D01*
X0251367Y0218916D01*
X0251400Y0219071D01*
X0251438Y0219224D01*
X0251479Y0219377D01*
X0251524Y0219529D01*
X0251573Y0219680D01*
X0251626Y0219829D01*
X0251682Y0219977D01*
X0251742Y0220123D01*
X0251806Y0220268D01*
X0251874Y0220411D01*
X0251945Y0220553D01*
X0252019Y0220693D01*
X0252097Y0220830D01*
X0252179Y0220966D01*
X0252263Y0221100D01*
X0252352Y0221231D01*
X0252443Y0221360D01*
X0252538Y0221487D01*
X0252635Y0221612D01*
X0252736Y0221734D01*
X0252840Y0221853D01*
X0252947Y0221970D01*
X0253057Y0222084D01*
X0253170Y0222195D01*
X0253285Y0222304D01*
X0253403Y0222409D01*
X0253524Y0222511D01*
X0253647Y0222611D01*
X0253773Y0222707D01*
X0253901Y0222800D01*
X0254031Y0222890D01*
X0254164Y0222976D01*
X0254299Y0223060D01*
X0254435Y0223139D01*
X0254574Y0223216D01*
X0254715Y0223288D01*
X0254857Y0223358D01*
X0255001Y0223423D01*
X0255147Y0223485D01*
X0255294Y0223543D01*
X0255443Y0223598D01*
X0255593Y0223649D01*
X0255744Y0223696D01*
X0255896Y0223739D01*
X0256049Y0223778D01*
X0256204Y0223814D01*
X0256359Y0223845D01*
X0256515Y0223873D01*
X0256671Y0223897D01*
X0256828Y0223917D01*
X0256986Y0223933D01*
X0257143Y0223945D01*
X0257302Y0223953D01*
X0257460Y0223957D01*
X0257618Y0223957D01*
X0257776Y0223953D01*
X0257935Y0223945D01*
X0258092Y0223933D01*
X0258250Y0223917D01*
X0258407Y0223897D01*
X0258563Y0223873D01*
X0258719Y0223845D01*
X0258874Y0223814D01*
X0259029Y0223778D01*
X0259182Y0223739D01*
X0259334Y0223696D01*
X0259485Y0223649D01*
X0259635Y0223598D01*
X0259784Y0223543D01*
X0259931Y0223485D01*
X0260077Y0223423D01*
X0260221Y0223358D01*
X0260363Y0223288D01*
X0260504Y0223216D01*
X0260643Y0223139D01*
X0260779Y0223060D01*
X0260914Y0222976D01*
X0261047Y0222890D01*
X0261177Y0222800D01*
X0261305Y0222707D01*
X0261431Y0222611D01*
X0261554Y0222511D01*
X0261675Y0222409D01*
X0261793Y0222304D01*
X0261908Y0222195D01*
X0262021Y0222084D01*
X0262131Y0221970D01*
X0262238Y0221853D01*
X0262342Y0221734D01*
X0262443Y0221612D01*
X0262540Y0221487D01*
X0262635Y0221360D01*
X0262726Y0221231D01*
X0262815Y0221100D01*
X0262899Y0220966D01*
X0262981Y0220830D01*
X0263059Y0220693D01*
X0263133Y0220553D01*
X0263204Y0220411D01*
X0263272Y0220268D01*
X0263336Y0220123D01*
X0263396Y0219977D01*
X0263452Y0219829D01*
X0263505Y0219680D01*
X0263554Y0219529D01*
X0263599Y0219377D01*
X0263640Y0219224D01*
X0263678Y0219071D01*
X0263711Y0218916D01*
X0263741Y0218760D01*
X0263767Y0218604D01*
X0263788Y0218447D01*
X0263806Y0218290D01*
X0263820Y0218132D01*
X0263830Y0217974D01*
X0263836Y0217816D01*
X0263838Y0217658D01*
X0263836Y0217500D01*
X0263830Y0217342D01*
X0263820Y0217184D01*
X0263806Y0217026D01*
X0263788Y0216869D01*
X0263767Y0216712D01*
X0263741Y0216556D01*
X0263711Y0216400D01*
X0263678Y0216245D01*
X0263640Y0216092D01*
X0263599Y0215939D01*
X0263554Y0215787D01*
X0263505Y0215636D01*
X0263452Y0215487D01*
X0263396Y0215339D01*
X0263336Y0215193D01*
X0263272Y0215048D01*
X0263204Y0214905D01*
X0263133Y0214763D01*
X0263059Y0214623D01*
X0262981Y0214486D01*
X0262899Y0214350D01*
X0262815Y0214216D01*
X0262726Y0214085D01*
X0262635Y0213956D01*
X0262540Y0213829D01*
X0262443Y0213704D01*
X0262342Y0213582D01*
X0262238Y0213463D01*
X0262131Y0213346D01*
X0262021Y0213232D01*
X0261908Y0213121D01*
X0261793Y0213012D01*
X0261675Y0212907D01*
X0261554Y0212805D01*
X0261431Y0212705D01*
X0261305Y0212609D01*
X0261177Y0212516D01*
X0261047Y0212426D01*
X0260914Y0212340D01*
X0260779Y0212256D01*
X0260643Y0212177D01*
X0260504Y0212100D01*
X0260363Y0212028D01*
X0260221Y0211958D01*
X0260077Y0211893D01*
X0259931Y0211831D01*
X0259784Y0211773D01*
X0259635Y0211718D01*
X0259485Y0211667D01*
X0259334Y0211620D01*
X0259182Y0211577D01*
X0259029Y0211538D01*
X0258874Y0211502D01*
X0258719Y0211471D01*
X0258563Y0211443D01*
X0258407Y0211419D01*
X0258250Y0211399D01*
X0258092Y0211383D01*
X0257935Y0211371D01*
X0257776Y0211363D01*
X0257618Y0211359D01*
X0257460Y0211359D01*
X0257302Y0211363D01*
X0257143Y0211371D01*
X0256986Y0211383D01*
X0256828Y0211399D01*
X0256671Y0211419D01*
X0256515Y0211443D01*
X0256359Y0211471D01*
X0256204Y0211502D01*
X0256049Y0211538D01*
X0255896Y0211577D01*
X0255744Y0211620D01*
X0255593Y0211667D01*
X0255443Y0211718D01*
X0255294Y0211773D01*
X0255147Y0211831D01*
X0255001Y0211893D01*
X0254857Y0211958D01*
X0254715Y0212028D01*
X0254574Y0212100D01*
X0254435Y0212177D01*
X0254299Y0212256D01*
X0254164Y0212340D01*
X0254031Y0212426D01*
X0253901Y0212516D01*
X0253773Y0212609D01*
X0253647Y0212705D01*
X0253524Y0212805D01*
X0253403Y0212907D01*
X0253285Y0213012D01*
X0253170Y0213121D01*
X0253057Y0213232D01*
X0252947Y0213346D01*
X0252840Y0213463D01*
X0252736Y0213582D01*
X0252635Y0213704D01*
X0252538Y0213829D01*
X0252443Y0213956D01*
X0252352Y0214085D01*
X0252263Y0214216D01*
X0252179Y0214350D01*
X0252097Y0214486D01*
X0252019Y0214623D01*
X0251945Y0214763D01*
X0251874Y0214905D01*
X0251806Y0215048D01*
X0251742Y0215193D01*
X0251682Y0215339D01*
X0251626Y0215487D01*
X0251573Y0215636D01*
X0251524Y0215787D01*
X0251479Y0215939D01*
X0251438Y0216092D01*
X0251400Y0216245D01*
X0251367Y0216400D01*
X0251337Y0216556D01*
X0251311Y0216712D01*
X0251290Y0216869D01*
X0251272Y0217026D01*
X0251258Y0217184D01*
X0251248Y0217342D01*
X0251242Y0217500D01*
X0251240Y0217658D01*
X0263740Y0241457D02*
X0263742Y0241641D01*
X0263749Y0241824D01*
X0263760Y0242007D01*
X0263776Y0242190D01*
X0263796Y0242373D01*
X0263821Y0242555D01*
X0263850Y0242736D01*
X0263884Y0242916D01*
X0263922Y0243096D01*
X0263964Y0243274D01*
X0264011Y0243452D01*
X0264062Y0243628D01*
X0264118Y0243803D01*
X0264177Y0243977D01*
X0264241Y0244149D01*
X0264309Y0244319D01*
X0264382Y0244488D01*
X0264458Y0244655D01*
X0264539Y0244820D01*
X0264623Y0244983D01*
X0264712Y0245144D01*
X0264804Y0245302D01*
X0264900Y0245459D01*
X0265001Y0245613D01*
X0265104Y0245764D01*
X0265212Y0245913D01*
X0265323Y0246059D01*
X0265438Y0246202D01*
X0265556Y0246343D01*
X0265678Y0246480D01*
X0265803Y0246615D01*
X0265931Y0246746D01*
X0266062Y0246874D01*
X0266197Y0246999D01*
X0266334Y0247121D01*
X0266475Y0247239D01*
X0266618Y0247354D01*
X0266764Y0247465D01*
X0266913Y0247573D01*
X0267064Y0247676D01*
X0267218Y0247777D01*
X0267375Y0247873D01*
X0267533Y0247965D01*
X0267694Y0248054D01*
X0267857Y0248138D01*
X0268022Y0248219D01*
X0268189Y0248295D01*
X0268358Y0248368D01*
X0268528Y0248436D01*
X0268700Y0248500D01*
X0268874Y0248559D01*
X0269049Y0248615D01*
X0269225Y0248666D01*
X0269403Y0248713D01*
X0269581Y0248755D01*
X0269761Y0248793D01*
X0269941Y0248827D01*
X0270122Y0248856D01*
X0270304Y0248881D01*
X0270487Y0248901D01*
X0270670Y0248917D01*
X0270853Y0248928D01*
X0271036Y0248935D01*
X0271220Y0248937D01*
X0271404Y0248935D01*
X0271587Y0248928D01*
X0271770Y0248917D01*
X0271953Y0248901D01*
X0272136Y0248881D01*
X0272318Y0248856D01*
X0272499Y0248827D01*
X0272679Y0248793D01*
X0272859Y0248755D01*
X0273037Y0248713D01*
X0273215Y0248666D01*
X0273391Y0248615D01*
X0273566Y0248559D01*
X0273740Y0248500D01*
X0273912Y0248436D01*
X0274082Y0248368D01*
X0274251Y0248295D01*
X0274418Y0248219D01*
X0274583Y0248138D01*
X0274746Y0248054D01*
X0274907Y0247965D01*
X0275065Y0247873D01*
X0275222Y0247777D01*
X0275376Y0247676D01*
X0275527Y0247573D01*
X0275676Y0247465D01*
X0275822Y0247354D01*
X0275965Y0247239D01*
X0276106Y0247121D01*
X0276243Y0246999D01*
X0276378Y0246874D01*
X0276509Y0246746D01*
X0276637Y0246615D01*
X0276762Y0246480D01*
X0276884Y0246343D01*
X0277002Y0246202D01*
X0277117Y0246059D01*
X0277228Y0245913D01*
X0277336Y0245764D01*
X0277439Y0245613D01*
X0277540Y0245459D01*
X0277636Y0245302D01*
X0277728Y0245144D01*
X0277817Y0244983D01*
X0277901Y0244820D01*
X0277982Y0244655D01*
X0278058Y0244488D01*
X0278131Y0244319D01*
X0278199Y0244149D01*
X0278263Y0243977D01*
X0278322Y0243803D01*
X0278378Y0243628D01*
X0278429Y0243452D01*
X0278476Y0243274D01*
X0278518Y0243096D01*
X0278556Y0242916D01*
X0278590Y0242736D01*
X0278619Y0242555D01*
X0278644Y0242373D01*
X0278664Y0242190D01*
X0278680Y0242007D01*
X0278691Y0241824D01*
X0278698Y0241641D01*
X0278700Y0241457D01*
X0278698Y0241273D01*
X0278691Y0241090D01*
X0278680Y0240907D01*
X0278664Y0240724D01*
X0278644Y0240541D01*
X0278619Y0240359D01*
X0278590Y0240178D01*
X0278556Y0239998D01*
X0278518Y0239818D01*
X0278476Y0239640D01*
X0278429Y0239462D01*
X0278378Y0239286D01*
X0278322Y0239111D01*
X0278263Y0238937D01*
X0278199Y0238765D01*
X0278131Y0238595D01*
X0278058Y0238426D01*
X0277982Y0238259D01*
X0277901Y0238094D01*
X0277817Y0237931D01*
X0277728Y0237770D01*
X0277636Y0237612D01*
X0277540Y0237455D01*
X0277439Y0237301D01*
X0277336Y0237150D01*
X0277228Y0237001D01*
X0277117Y0236855D01*
X0277002Y0236712D01*
X0276884Y0236571D01*
X0276762Y0236434D01*
X0276637Y0236299D01*
X0276509Y0236168D01*
X0276378Y0236040D01*
X0276243Y0235915D01*
X0276106Y0235793D01*
X0275965Y0235675D01*
X0275822Y0235560D01*
X0275676Y0235449D01*
X0275527Y0235341D01*
X0275376Y0235238D01*
X0275222Y0235137D01*
X0275065Y0235041D01*
X0274907Y0234949D01*
X0274746Y0234860D01*
X0274583Y0234776D01*
X0274418Y0234695D01*
X0274251Y0234619D01*
X0274082Y0234546D01*
X0273912Y0234478D01*
X0273740Y0234414D01*
X0273566Y0234355D01*
X0273391Y0234299D01*
X0273215Y0234248D01*
X0273037Y0234201D01*
X0272859Y0234159D01*
X0272679Y0234121D01*
X0272499Y0234087D01*
X0272318Y0234058D01*
X0272136Y0234033D01*
X0271953Y0234013D01*
X0271770Y0233997D01*
X0271587Y0233986D01*
X0271404Y0233979D01*
X0271220Y0233977D01*
X0271036Y0233979D01*
X0270853Y0233986D01*
X0270670Y0233997D01*
X0270487Y0234013D01*
X0270304Y0234033D01*
X0270122Y0234058D01*
X0269941Y0234087D01*
X0269761Y0234121D01*
X0269581Y0234159D01*
X0269403Y0234201D01*
X0269225Y0234248D01*
X0269049Y0234299D01*
X0268874Y0234355D01*
X0268700Y0234414D01*
X0268528Y0234478D01*
X0268358Y0234546D01*
X0268189Y0234619D01*
X0268022Y0234695D01*
X0267857Y0234776D01*
X0267694Y0234860D01*
X0267533Y0234949D01*
X0267375Y0235041D01*
X0267218Y0235137D01*
X0267064Y0235238D01*
X0266913Y0235341D01*
X0266764Y0235449D01*
X0266618Y0235560D01*
X0266475Y0235675D01*
X0266334Y0235793D01*
X0266197Y0235915D01*
X0266062Y0236040D01*
X0265931Y0236168D01*
X0265803Y0236299D01*
X0265678Y0236434D01*
X0265556Y0236571D01*
X0265438Y0236712D01*
X0265323Y0236855D01*
X0265212Y0237001D01*
X0265104Y0237150D01*
X0265001Y0237301D01*
X0264900Y0237455D01*
X0264804Y0237612D01*
X0264712Y0237770D01*
X0264623Y0237931D01*
X0264539Y0238094D01*
X0264458Y0238259D01*
X0264382Y0238426D01*
X0264309Y0238595D01*
X0264241Y0238765D01*
X0264177Y0238937D01*
X0264118Y0239111D01*
X0264062Y0239286D01*
X0264011Y0239462D01*
X0263964Y0239640D01*
X0263922Y0239818D01*
X0263884Y0239998D01*
X0263850Y0240178D01*
X0263821Y0240359D01*
X0263796Y0240541D01*
X0263776Y0240724D01*
X0263760Y0240907D01*
X0263749Y0241090D01*
X0263742Y0241273D01*
X0263740Y0241457D01*
X0025551Y0241457D02*
X0025553Y0241641D01*
X0025560Y0241824D01*
X0025571Y0242007D01*
X0025587Y0242190D01*
X0025607Y0242373D01*
X0025632Y0242555D01*
X0025661Y0242736D01*
X0025695Y0242916D01*
X0025733Y0243096D01*
X0025775Y0243274D01*
X0025822Y0243452D01*
X0025873Y0243628D01*
X0025929Y0243803D01*
X0025988Y0243977D01*
X0026052Y0244149D01*
X0026120Y0244319D01*
X0026193Y0244488D01*
X0026269Y0244655D01*
X0026350Y0244820D01*
X0026434Y0244983D01*
X0026523Y0245144D01*
X0026615Y0245302D01*
X0026711Y0245459D01*
X0026812Y0245613D01*
X0026915Y0245764D01*
X0027023Y0245913D01*
X0027134Y0246059D01*
X0027249Y0246202D01*
X0027367Y0246343D01*
X0027489Y0246480D01*
X0027614Y0246615D01*
X0027742Y0246746D01*
X0027873Y0246874D01*
X0028008Y0246999D01*
X0028145Y0247121D01*
X0028286Y0247239D01*
X0028429Y0247354D01*
X0028575Y0247465D01*
X0028724Y0247573D01*
X0028875Y0247676D01*
X0029029Y0247777D01*
X0029186Y0247873D01*
X0029344Y0247965D01*
X0029505Y0248054D01*
X0029668Y0248138D01*
X0029833Y0248219D01*
X0030000Y0248295D01*
X0030169Y0248368D01*
X0030339Y0248436D01*
X0030511Y0248500D01*
X0030685Y0248559D01*
X0030860Y0248615D01*
X0031036Y0248666D01*
X0031214Y0248713D01*
X0031392Y0248755D01*
X0031572Y0248793D01*
X0031752Y0248827D01*
X0031933Y0248856D01*
X0032115Y0248881D01*
X0032298Y0248901D01*
X0032481Y0248917D01*
X0032664Y0248928D01*
X0032847Y0248935D01*
X0033031Y0248937D01*
X0033215Y0248935D01*
X0033398Y0248928D01*
X0033581Y0248917D01*
X0033764Y0248901D01*
X0033947Y0248881D01*
X0034129Y0248856D01*
X0034310Y0248827D01*
X0034490Y0248793D01*
X0034670Y0248755D01*
X0034848Y0248713D01*
X0035026Y0248666D01*
X0035202Y0248615D01*
X0035377Y0248559D01*
X0035551Y0248500D01*
X0035723Y0248436D01*
X0035893Y0248368D01*
X0036062Y0248295D01*
X0036229Y0248219D01*
X0036394Y0248138D01*
X0036557Y0248054D01*
X0036718Y0247965D01*
X0036876Y0247873D01*
X0037033Y0247777D01*
X0037187Y0247676D01*
X0037338Y0247573D01*
X0037487Y0247465D01*
X0037633Y0247354D01*
X0037776Y0247239D01*
X0037917Y0247121D01*
X0038054Y0246999D01*
X0038189Y0246874D01*
X0038320Y0246746D01*
X0038448Y0246615D01*
X0038573Y0246480D01*
X0038695Y0246343D01*
X0038813Y0246202D01*
X0038928Y0246059D01*
X0039039Y0245913D01*
X0039147Y0245764D01*
X0039250Y0245613D01*
X0039351Y0245459D01*
X0039447Y0245302D01*
X0039539Y0245144D01*
X0039628Y0244983D01*
X0039712Y0244820D01*
X0039793Y0244655D01*
X0039869Y0244488D01*
X0039942Y0244319D01*
X0040010Y0244149D01*
X0040074Y0243977D01*
X0040133Y0243803D01*
X0040189Y0243628D01*
X0040240Y0243452D01*
X0040287Y0243274D01*
X0040329Y0243096D01*
X0040367Y0242916D01*
X0040401Y0242736D01*
X0040430Y0242555D01*
X0040455Y0242373D01*
X0040475Y0242190D01*
X0040491Y0242007D01*
X0040502Y0241824D01*
X0040509Y0241641D01*
X0040511Y0241457D01*
X0040509Y0241273D01*
X0040502Y0241090D01*
X0040491Y0240907D01*
X0040475Y0240724D01*
X0040455Y0240541D01*
X0040430Y0240359D01*
X0040401Y0240178D01*
X0040367Y0239998D01*
X0040329Y0239818D01*
X0040287Y0239640D01*
X0040240Y0239462D01*
X0040189Y0239286D01*
X0040133Y0239111D01*
X0040074Y0238937D01*
X0040010Y0238765D01*
X0039942Y0238595D01*
X0039869Y0238426D01*
X0039793Y0238259D01*
X0039712Y0238094D01*
X0039628Y0237931D01*
X0039539Y0237770D01*
X0039447Y0237612D01*
X0039351Y0237455D01*
X0039250Y0237301D01*
X0039147Y0237150D01*
X0039039Y0237001D01*
X0038928Y0236855D01*
X0038813Y0236712D01*
X0038695Y0236571D01*
X0038573Y0236434D01*
X0038448Y0236299D01*
X0038320Y0236168D01*
X0038189Y0236040D01*
X0038054Y0235915D01*
X0037917Y0235793D01*
X0037776Y0235675D01*
X0037633Y0235560D01*
X0037487Y0235449D01*
X0037338Y0235341D01*
X0037187Y0235238D01*
X0037033Y0235137D01*
X0036876Y0235041D01*
X0036718Y0234949D01*
X0036557Y0234860D01*
X0036394Y0234776D01*
X0036229Y0234695D01*
X0036062Y0234619D01*
X0035893Y0234546D01*
X0035723Y0234478D01*
X0035551Y0234414D01*
X0035377Y0234355D01*
X0035202Y0234299D01*
X0035026Y0234248D01*
X0034848Y0234201D01*
X0034670Y0234159D01*
X0034490Y0234121D01*
X0034310Y0234087D01*
X0034129Y0234058D01*
X0033947Y0234033D01*
X0033764Y0234013D01*
X0033581Y0233997D01*
X0033398Y0233986D01*
X0033215Y0233979D01*
X0033031Y0233977D01*
X0032847Y0233979D01*
X0032664Y0233986D01*
X0032481Y0233997D01*
X0032298Y0234013D01*
X0032115Y0234033D01*
X0031933Y0234058D01*
X0031752Y0234087D01*
X0031572Y0234121D01*
X0031392Y0234159D01*
X0031214Y0234201D01*
X0031036Y0234248D01*
X0030860Y0234299D01*
X0030685Y0234355D01*
X0030511Y0234414D01*
X0030339Y0234478D01*
X0030169Y0234546D01*
X0030000Y0234619D01*
X0029833Y0234695D01*
X0029668Y0234776D01*
X0029505Y0234860D01*
X0029344Y0234949D01*
X0029186Y0235041D01*
X0029029Y0235137D01*
X0028875Y0235238D01*
X0028724Y0235341D01*
X0028575Y0235449D01*
X0028429Y0235560D01*
X0028286Y0235675D01*
X0028145Y0235793D01*
X0028008Y0235915D01*
X0027873Y0236040D01*
X0027742Y0236168D01*
X0027614Y0236299D01*
X0027489Y0236434D01*
X0027367Y0236571D01*
X0027249Y0236712D01*
X0027134Y0236855D01*
X0027023Y0237001D01*
X0026915Y0237150D01*
X0026812Y0237301D01*
X0026711Y0237455D01*
X0026615Y0237612D01*
X0026523Y0237770D01*
X0026434Y0237931D01*
X0026350Y0238094D01*
X0026269Y0238259D01*
X0026193Y0238426D01*
X0026120Y0238595D01*
X0026052Y0238765D01*
X0025988Y0238937D01*
X0025929Y0239111D01*
X0025873Y0239286D01*
X0025822Y0239462D01*
X0025775Y0239640D01*
X0025733Y0239818D01*
X0025695Y0239998D01*
X0025661Y0240178D01*
X0025632Y0240359D01*
X0025607Y0240541D01*
X0025587Y0240724D01*
X0025571Y0240907D01*
X0025560Y0241090D01*
X0025553Y0241273D01*
X0025551Y0241457D01*
X0021614Y0015080D02*
X0021616Y0015264D01*
X0021623Y0015447D01*
X0021634Y0015630D01*
X0021650Y0015813D01*
X0021670Y0015996D01*
X0021695Y0016178D01*
X0021724Y0016359D01*
X0021758Y0016539D01*
X0021796Y0016719D01*
X0021838Y0016897D01*
X0021885Y0017075D01*
X0021936Y0017251D01*
X0021992Y0017426D01*
X0022051Y0017600D01*
X0022115Y0017772D01*
X0022183Y0017942D01*
X0022256Y0018111D01*
X0022332Y0018278D01*
X0022413Y0018443D01*
X0022497Y0018606D01*
X0022586Y0018767D01*
X0022678Y0018925D01*
X0022774Y0019082D01*
X0022875Y0019236D01*
X0022978Y0019387D01*
X0023086Y0019536D01*
X0023197Y0019682D01*
X0023312Y0019825D01*
X0023430Y0019966D01*
X0023552Y0020103D01*
X0023677Y0020238D01*
X0023805Y0020369D01*
X0023936Y0020497D01*
X0024071Y0020622D01*
X0024208Y0020744D01*
X0024349Y0020862D01*
X0024492Y0020977D01*
X0024638Y0021088D01*
X0024787Y0021196D01*
X0024938Y0021299D01*
X0025092Y0021400D01*
X0025249Y0021496D01*
X0025407Y0021588D01*
X0025568Y0021677D01*
X0025731Y0021761D01*
X0025896Y0021842D01*
X0026063Y0021918D01*
X0026232Y0021991D01*
X0026402Y0022059D01*
X0026574Y0022123D01*
X0026748Y0022182D01*
X0026923Y0022238D01*
X0027099Y0022289D01*
X0027277Y0022336D01*
X0027455Y0022378D01*
X0027635Y0022416D01*
X0027815Y0022450D01*
X0027996Y0022479D01*
X0028178Y0022504D01*
X0028361Y0022524D01*
X0028544Y0022540D01*
X0028727Y0022551D01*
X0028910Y0022558D01*
X0029094Y0022560D01*
X0029278Y0022558D01*
X0029461Y0022551D01*
X0029644Y0022540D01*
X0029827Y0022524D01*
X0030010Y0022504D01*
X0030192Y0022479D01*
X0030373Y0022450D01*
X0030553Y0022416D01*
X0030733Y0022378D01*
X0030911Y0022336D01*
X0031089Y0022289D01*
X0031265Y0022238D01*
X0031440Y0022182D01*
X0031614Y0022123D01*
X0031786Y0022059D01*
X0031956Y0021991D01*
X0032125Y0021918D01*
X0032292Y0021842D01*
X0032457Y0021761D01*
X0032620Y0021677D01*
X0032781Y0021588D01*
X0032939Y0021496D01*
X0033096Y0021400D01*
X0033250Y0021299D01*
X0033401Y0021196D01*
X0033550Y0021088D01*
X0033696Y0020977D01*
X0033839Y0020862D01*
X0033980Y0020744D01*
X0034117Y0020622D01*
X0034252Y0020497D01*
X0034383Y0020369D01*
X0034511Y0020238D01*
X0034636Y0020103D01*
X0034758Y0019966D01*
X0034876Y0019825D01*
X0034991Y0019682D01*
X0035102Y0019536D01*
X0035210Y0019387D01*
X0035313Y0019236D01*
X0035414Y0019082D01*
X0035510Y0018925D01*
X0035602Y0018767D01*
X0035691Y0018606D01*
X0035775Y0018443D01*
X0035856Y0018278D01*
X0035932Y0018111D01*
X0036005Y0017942D01*
X0036073Y0017772D01*
X0036137Y0017600D01*
X0036196Y0017426D01*
X0036252Y0017251D01*
X0036303Y0017075D01*
X0036350Y0016897D01*
X0036392Y0016719D01*
X0036430Y0016539D01*
X0036464Y0016359D01*
X0036493Y0016178D01*
X0036518Y0015996D01*
X0036538Y0015813D01*
X0036554Y0015630D01*
X0036565Y0015447D01*
X0036572Y0015264D01*
X0036574Y0015080D01*
X0036572Y0014896D01*
X0036565Y0014713D01*
X0036554Y0014530D01*
X0036538Y0014347D01*
X0036518Y0014164D01*
X0036493Y0013982D01*
X0036464Y0013801D01*
X0036430Y0013621D01*
X0036392Y0013441D01*
X0036350Y0013263D01*
X0036303Y0013085D01*
X0036252Y0012909D01*
X0036196Y0012734D01*
X0036137Y0012560D01*
X0036073Y0012388D01*
X0036005Y0012218D01*
X0035932Y0012049D01*
X0035856Y0011882D01*
X0035775Y0011717D01*
X0035691Y0011554D01*
X0035602Y0011393D01*
X0035510Y0011235D01*
X0035414Y0011078D01*
X0035313Y0010924D01*
X0035210Y0010773D01*
X0035102Y0010624D01*
X0034991Y0010478D01*
X0034876Y0010335D01*
X0034758Y0010194D01*
X0034636Y0010057D01*
X0034511Y0009922D01*
X0034383Y0009791D01*
X0034252Y0009663D01*
X0034117Y0009538D01*
X0033980Y0009416D01*
X0033839Y0009298D01*
X0033696Y0009183D01*
X0033550Y0009072D01*
X0033401Y0008964D01*
X0033250Y0008861D01*
X0033096Y0008760D01*
X0032939Y0008664D01*
X0032781Y0008572D01*
X0032620Y0008483D01*
X0032457Y0008399D01*
X0032292Y0008318D01*
X0032125Y0008242D01*
X0031956Y0008169D01*
X0031786Y0008101D01*
X0031614Y0008037D01*
X0031440Y0007978D01*
X0031265Y0007922D01*
X0031089Y0007871D01*
X0030911Y0007824D01*
X0030733Y0007782D01*
X0030553Y0007744D01*
X0030373Y0007710D01*
X0030192Y0007681D01*
X0030010Y0007656D01*
X0029827Y0007636D01*
X0029644Y0007620D01*
X0029461Y0007609D01*
X0029278Y0007602D01*
X0029094Y0007600D01*
X0028910Y0007602D01*
X0028727Y0007609D01*
X0028544Y0007620D01*
X0028361Y0007636D01*
X0028178Y0007656D01*
X0027996Y0007681D01*
X0027815Y0007710D01*
X0027635Y0007744D01*
X0027455Y0007782D01*
X0027277Y0007824D01*
X0027099Y0007871D01*
X0026923Y0007922D01*
X0026748Y0007978D01*
X0026574Y0008037D01*
X0026402Y0008101D01*
X0026232Y0008169D01*
X0026063Y0008242D01*
X0025896Y0008318D01*
X0025731Y0008399D01*
X0025568Y0008483D01*
X0025407Y0008572D01*
X0025249Y0008664D01*
X0025092Y0008760D01*
X0024938Y0008861D01*
X0024787Y0008964D01*
X0024638Y0009072D01*
X0024492Y0009183D01*
X0024349Y0009298D01*
X0024208Y0009416D01*
X0024071Y0009538D01*
X0023936Y0009663D01*
X0023805Y0009791D01*
X0023677Y0009922D01*
X0023552Y0010057D01*
X0023430Y0010194D01*
X0023312Y0010335D01*
X0023197Y0010478D01*
X0023086Y0010624D01*
X0022978Y0010773D01*
X0022875Y0010924D01*
X0022774Y0011078D01*
X0022678Y0011235D01*
X0022586Y0011393D01*
X0022497Y0011554D01*
X0022413Y0011717D01*
X0022332Y0011882D01*
X0022256Y0012049D01*
X0022183Y0012218D01*
X0022115Y0012388D01*
X0022051Y0012560D01*
X0021992Y0012734D01*
X0021936Y0012909D01*
X0021885Y0013085D01*
X0021838Y0013263D01*
X0021796Y0013441D01*
X0021758Y0013621D01*
X0021724Y0013801D01*
X0021695Y0013982D01*
X0021670Y0014164D01*
X0021650Y0014347D01*
X0021634Y0014530D01*
X0021623Y0014713D01*
X0021616Y0014896D01*
X0021614Y0015080D01*
D12*
X0216952Y0100992D02*
X0217542Y0100402D01*
X0218722Y0100402D01*
X0219312Y0100992D01*
X0219312Y0103352D01*
X0218722Y0103942D01*
X0217542Y0103942D01*
X0216952Y0103352D01*
X0216952Y0100992D01*
X0217952Y0098505D02*
X0217952Y0078898D01*
X0220577Y0100402D02*
X0220577Y0103942D01*
X0221167Y0102172D02*
X0222937Y0100402D01*
X0224202Y0100402D02*
X0226562Y0100402D01*
X0225382Y0100402D02*
X0225382Y0103942D01*
X0224202Y0102762D01*
X0222937Y0103942D02*
X0220577Y0101582D01*
X0241893Y0145201D02*
X0241893Y0149805D01*
X0244195Y0149805D01*
X0244962Y0149037D01*
X0244962Y0147503D01*
X0244195Y0146735D01*
X0241893Y0146735D01*
X0243428Y0146735D02*
X0244962Y0145201D01*
X0246497Y0145968D02*
X0247264Y0145201D01*
X0248799Y0145201D01*
X0249566Y0145968D01*
X0249566Y0147503D01*
X0248799Y0148270D01*
X0247264Y0148270D01*
X0246497Y0147503D01*
X0246497Y0145968D01*
X0251101Y0145201D02*
X0253403Y0145201D01*
X0254170Y0145968D01*
X0254170Y0147503D01*
X0253403Y0148270D01*
X0251101Y0148270D01*
X0251101Y0149805D02*
X0251101Y0145201D01*
X0255705Y0145968D02*
X0256472Y0145201D01*
X0258007Y0145201D01*
X0258774Y0145968D01*
X0258774Y0147503D01*
X0258007Y0148270D01*
X0256472Y0148270D01*
X0255705Y0147503D01*
X0255705Y0145968D01*
X0260309Y0145968D02*
X0261076Y0145201D01*
X0261843Y0145201D01*
X0262611Y0145968D01*
X0262611Y0149805D01*
X0263378Y0149805D02*
X0261843Y0149805D01*
X0265680Y0148270D02*
X0267214Y0148270D01*
X0267982Y0147503D01*
X0267982Y0145201D01*
X0265680Y0145201D01*
X0264913Y0145968D01*
X0265680Y0146735D01*
X0267982Y0146735D01*
X0269516Y0145968D02*
X0270284Y0145201D01*
X0272586Y0145201D01*
X0274120Y0145201D02*
X0274120Y0149805D01*
X0272586Y0148270D02*
X0270284Y0148270D01*
X0269516Y0147503D01*
X0269516Y0145968D01*
X0274120Y0146735D02*
X0276422Y0148270D01*
X0277957Y0147503D02*
X0278724Y0148270D01*
X0280259Y0148270D01*
X0281026Y0147503D01*
X0281026Y0146735D01*
X0277957Y0146735D01*
X0277957Y0145968D02*
X0277957Y0147503D01*
X0277957Y0145968D02*
X0278724Y0145201D01*
X0280259Y0145201D01*
X0283328Y0145968D02*
X0284096Y0145201D01*
X0283328Y0145968D02*
X0283328Y0149037D01*
X0282561Y0148270D02*
X0284096Y0148270D01*
X0285630Y0147503D02*
X0286398Y0148270D01*
X0288699Y0148270D01*
X0287932Y0146735D02*
X0286398Y0146735D01*
X0285630Y0147503D01*
X0285630Y0145201D02*
X0287932Y0145201D01*
X0288699Y0145968D01*
X0287932Y0146735D01*
X0276422Y0145201D02*
X0274120Y0146735D01*
D13*
X0274738Y0142148D02*
X0274255Y0141664D01*
X0274255Y0141180D01*
X0274738Y0140697D01*
X0275706Y0140697D01*
X0276190Y0140213D01*
X0276190Y0139729D01*
X0275706Y0139245D01*
X0274738Y0139245D01*
X0274255Y0139729D01*
X0274738Y0142148D02*
X0275706Y0142148D01*
X0276190Y0141664D01*
X0277201Y0142148D02*
X0277201Y0139245D01*
X0277201Y0140697D02*
X0277685Y0141180D01*
X0278652Y0141180D01*
X0279136Y0140697D01*
X0279136Y0139245D01*
X0280148Y0139245D02*
X0281115Y0139245D01*
X0280631Y0139245D02*
X0280631Y0141180D01*
X0280148Y0141180D01*
X0280631Y0142148D02*
X0280631Y0142631D01*
X0282112Y0140697D02*
X0282112Y0139729D01*
X0282596Y0139245D01*
X0283563Y0139245D01*
X0284047Y0140213D02*
X0282112Y0140213D01*
X0282112Y0140697D02*
X0282596Y0141180D01*
X0283563Y0141180D01*
X0284047Y0140697D01*
X0284047Y0140213D01*
X0285059Y0139245D02*
X0286026Y0139245D01*
X0285542Y0139245D02*
X0285542Y0142148D01*
X0285059Y0142148D01*
X0287023Y0140697D02*
X0287507Y0141180D01*
X0288958Y0141180D01*
X0288958Y0142148D02*
X0288958Y0139245D01*
X0287507Y0139245D01*
X0287023Y0139729D01*
X0287023Y0140697D01*
X0270297Y0141180D02*
X0268845Y0141180D01*
X0268362Y0140697D01*
X0268362Y0139729D01*
X0268845Y0139245D01*
X0270297Y0139245D01*
X0270297Y0142148D01*
X0267350Y0140697D02*
X0267350Y0140213D01*
X0265415Y0140213D01*
X0265415Y0139729D02*
X0265415Y0140697D01*
X0265899Y0141180D01*
X0266866Y0141180D01*
X0267350Y0140697D01*
X0266866Y0139245D02*
X0265899Y0139245D01*
X0265415Y0139729D01*
X0264404Y0139729D02*
X0264404Y0140697D01*
X0263920Y0141180D01*
X0262469Y0141180D01*
X0262469Y0142148D02*
X0262469Y0139245D01*
X0263920Y0139245D01*
X0264404Y0139729D01*
X0261457Y0139245D02*
X0261457Y0142148D01*
X0260490Y0141180D01*
X0259522Y0142148D01*
X0259522Y0139245D01*
X0255579Y0139245D02*
X0254611Y0139245D01*
X0255095Y0139245D02*
X0255095Y0141180D01*
X0254611Y0141180D01*
X0255095Y0142148D02*
X0255095Y0142631D01*
X0253131Y0142148D02*
X0253131Y0139245D01*
X0253614Y0139245D02*
X0252647Y0139245D01*
X0251635Y0139729D02*
X0251635Y0140697D01*
X0251152Y0141180D01*
X0250184Y0141180D01*
X0249700Y0140697D01*
X0249700Y0139729D01*
X0250184Y0139245D01*
X0251152Y0139245D01*
X0251635Y0139729D01*
X0252647Y0142148D02*
X0253131Y0142148D01*
X0248689Y0141180D02*
X0248689Y0138762D01*
X0248205Y0138278D01*
X0247721Y0138278D01*
X0247238Y0139245D02*
X0248689Y0139245D01*
X0247238Y0139245D02*
X0246754Y0139729D01*
X0246754Y0140697D01*
X0247238Y0141180D01*
X0248689Y0141180D01*
X0245273Y0141180D02*
X0245273Y0139245D01*
X0244789Y0139245D02*
X0245757Y0139245D01*
X0245273Y0141180D02*
X0244789Y0141180D01*
X0243778Y0141180D02*
X0243294Y0140697D01*
X0241843Y0140697D01*
X0241843Y0142148D02*
X0243294Y0142148D01*
X0243778Y0141664D01*
X0243778Y0141180D01*
X0243294Y0140697D02*
X0243778Y0140213D01*
X0243778Y0139729D01*
X0243294Y0139245D01*
X0241843Y0139245D01*
X0241843Y0142148D01*
X0245273Y0142148D02*
X0245273Y0142631D01*
X0248220Y0136242D02*
X0247736Y0135758D01*
X0248220Y0136242D02*
X0249187Y0136242D01*
X0249671Y0135758D01*
X0249671Y0135275D01*
X0249187Y0134791D01*
X0249671Y0134307D01*
X0249671Y0133823D01*
X0249187Y0133340D01*
X0248220Y0133340D01*
X0247736Y0133823D01*
X0248703Y0134791D02*
X0249187Y0134791D01*
X0250682Y0133823D02*
X0251166Y0133823D01*
X0251166Y0133340D01*
X0250682Y0133340D01*
X0250682Y0133823D01*
X0252156Y0133340D02*
X0254091Y0133340D01*
X0253123Y0133340D02*
X0253123Y0136242D01*
X0252156Y0135275D01*
X0243778Y0135275D02*
X0242810Y0133340D01*
X0241843Y0135275D01*
X0219633Y0123765D02*
X0219027Y0124372D01*
X0218420Y0124372D01*
X0217813Y0123765D01*
X0217813Y0121945D01*
X0219027Y0121945D01*
X0219633Y0122552D01*
X0219633Y0123765D01*
X0217813Y0121945D02*
X0216600Y0123159D01*
X0215993Y0124372D01*
X0216600Y0120747D02*
X0217813Y0120747D01*
X0218420Y0120140D01*
X0218420Y0118320D01*
X0218420Y0119533D02*
X0219633Y0120747D01*
X0219633Y0118320D02*
X0215993Y0118320D01*
X0215993Y0120140D01*
X0216600Y0120747D01*
X0204712Y0113641D02*
X0204712Y0112428D01*
X0204106Y0111821D01*
X0204712Y0110623D02*
X0203499Y0109409D01*
X0203499Y0110016D02*
X0203499Y0108196D01*
X0204712Y0108196D02*
X0201072Y0108196D01*
X0201072Y0110016D01*
X0201679Y0110623D01*
X0202892Y0110623D01*
X0203499Y0110016D01*
X0201679Y0111821D02*
X0201072Y0112428D01*
X0201072Y0113641D01*
X0201679Y0114248D01*
X0202285Y0114248D01*
X0202892Y0113641D01*
X0203499Y0114248D01*
X0204106Y0114248D01*
X0204712Y0113641D01*
X0202892Y0113641D02*
X0202892Y0113034D01*
X0230993Y0113694D02*
X0231600Y0113087D01*
X0230993Y0113694D02*
X0230993Y0114907D01*
X0231600Y0115514D01*
X0232207Y0115514D01*
X0234633Y0113087D01*
X0234633Y0115514D01*
X0234633Y0111889D02*
X0233420Y0110675D01*
X0233420Y0111282D02*
X0233420Y0109462D01*
X0234633Y0109462D02*
X0230993Y0109462D01*
X0230993Y0111282D01*
X0231600Y0111889D01*
X0232813Y0111889D01*
X0233420Y0111282D01*
X0233728Y0067122D02*
X0233728Y0064695D01*
X0233728Y0063497D02*
X0232515Y0062283D01*
X0232515Y0062890D02*
X0232515Y0061070D01*
X0233728Y0061070D02*
X0230088Y0061070D01*
X0230088Y0062890D01*
X0230695Y0063497D01*
X0231908Y0063497D01*
X0232515Y0062890D01*
X0231301Y0064695D02*
X0230088Y0065908D01*
X0233728Y0065908D01*
X0222665Y0056672D02*
X0222665Y0055459D01*
X0222058Y0054852D01*
X0220845Y0054852D02*
X0220238Y0056066D01*
X0220238Y0056672D01*
X0220845Y0057279D01*
X0222058Y0057279D01*
X0222665Y0056672D01*
X0220845Y0054852D02*
X0219025Y0054852D01*
X0219025Y0057279D01*
X0219632Y0053654D02*
X0220845Y0053654D01*
X0221452Y0053047D01*
X0221452Y0051227D01*
X0222665Y0051227D02*
X0219025Y0051227D01*
X0219025Y0053047D01*
X0219632Y0053654D01*
X0221452Y0052441D02*
X0222665Y0053654D01*
X0204633Y0061352D02*
X0200993Y0061352D01*
X0200993Y0063172D01*
X0201600Y0063778D01*
X0202813Y0063778D01*
X0203420Y0063172D01*
X0203420Y0061352D01*
X0203420Y0062565D02*
X0204633Y0063778D01*
X0202813Y0064977D02*
X0202813Y0067403D01*
X0204633Y0066797D02*
X0200993Y0066797D01*
X0202813Y0064977D01*
X0239871Y0042935D02*
X0240478Y0041722D01*
X0241691Y0040508D01*
X0241691Y0042328D01*
X0242298Y0042935D01*
X0242905Y0042935D01*
X0243511Y0042328D01*
X0243511Y0041115D01*
X0242905Y0040508D01*
X0241691Y0040508D01*
X0239871Y0039310D02*
X0243511Y0036883D01*
X0243511Y0039310D02*
X0239871Y0036883D01*
X0119129Y0115698D02*
X0118522Y0115092D01*
X0117309Y0115092D01*
X0116702Y0115698D01*
X0119129Y0118125D01*
X0119129Y0115698D01*
X0116702Y0115698D02*
X0116702Y0118125D01*
X0117309Y0118732D01*
X0118522Y0118732D01*
X0119129Y0118125D01*
X0115504Y0115092D02*
X0113077Y0115092D01*
X0111878Y0115092D02*
X0110665Y0116305D01*
X0111272Y0116305D02*
X0109452Y0116305D01*
X0109452Y0115092D02*
X0109452Y0118732D01*
X0111272Y0118732D01*
X0111878Y0118125D01*
X0111878Y0116912D01*
X0111272Y0116305D01*
X0113077Y0117518D02*
X0114290Y0118732D01*
X0114290Y0115092D01*
X0113978Y0150525D02*
X0113978Y0154165D01*
X0112765Y0152952D01*
X0112765Y0150525D02*
X0115192Y0150525D01*
X0111567Y0150525D02*
X0109140Y0150525D01*
X0107941Y0150525D02*
X0106728Y0151738D01*
X0107335Y0151738D02*
X0105515Y0151738D01*
X0105515Y0150525D02*
X0105515Y0154165D01*
X0107335Y0154165D01*
X0107941Y0153558D01*
X0107941Y0152345D01*
X0107335Y0151738D01*
X0109140Y0152952D02*
X0110353Y0154165D01*
X0110353Y0150525D01*
X0060074Y0106921D02*
X0060074Y0106314D01*
X0057647Y0103887D01*
X0057647Y0103281D01*
X0056448Y0103281D02*
X0055235Y0104494D01*
X0055842Y0104494D02*
X0054022Y0104494D01*
X0054022Y0103281D02*
X0054022Y0106921D01*
X0055842Y0106921D01*
X0056448Y0106314D01*
X0056448Y0105101D01*
X0055842Y0104494D01*
X0057647Y0106921D02*
X0060074Y0106921D01*
X0124520Y0225387D02*
X0124520Y0229027D01*
X0125733Y0227814D01*
X0126947Y0229027D01*
X0126947Y0225387D01*
X0128145Y0225387D02*
X0129965Y0225387D01*
X0130572Y0225994D01*
X0130572Y0226600D01*
X0129965Y0227207D01*
X0128145Y0227207D01*
X0128145Y0225387D02*
X0128145Y0229027D01*
X0129965Y0229027D01*
X0130572Y0228420D01*
X0130572Y0227814D01*
X0129965Y0227207D01*
X0131770Y0227207D02*
X0132984Y0227207D01*
X0131770Y0225387D02*
X0134197Y0225387D01*
X0135395Y0225387D02*
X0135395Y0229027D01*
X0137216Y0229027D01*
X0137822Y0228420D01*
X0137822Y0225994D01*
X0137216Y0225387D01*
X0135395Y0225387D01*
X0131770Y0225387D02*
X0131770Y0229027D01*
X0134197Y0229027D01*
D14*
X0146496Y0244922D02*
X0116496Y0244922D01*
X0116496Y0209922D01*
X0146496Y0209922D01*
X0146496Y0244922D01*
X0186496Y0244922D01*
X0186496Y0034922D01*
X0076496Y0034922D01*
X0076496Y0244922D01*
X0116496Y0244922D01*
X0042874Y0166576D02*
X0042874Y0135080D01*
X0019252Y0135080D01*
X0019252Y0166576D01*
X0042874Y0166576D01*
X0042874Y0122363D02*
X0019252Y0122363D01*
X0019252Y0090867D01*
X0042874Y0090867D01*
X0042874Y0122363D01*
X0042874Y0078072D02*
X0019252Y0078072D01*
X0019252Y0038702D01*
X0042874Y0038702D01*
X0042874Y0078072D01*
X0060591Y0028859D02*
X0092087Y0028859D01*
X0092087Y0005237D01*
X0060591Y0005237D01*
X0060591Y0028859D01*
X0109882Y0028859D02*
X0109882Y0005237D01*
X0165000Y0005237D01*
X0165000Y0028859D01*
X0109882Y0028859D01*
X0246569Y0188542D02*
X0246569Y0189176D01*
X0246569Y0188859D02*
X0248154Y0188859D01*
X0248470Y0188542D01*
X0248470Y0188225D01*
X0248154Y0187908D01*
X0248470Y0190118D02*
X0248470Y0191386D01*
X0248470Y0190752D02*
X0246569Y0190752D01*
X0247203Y0190118D01*
D15*
X0237720Y0181158D02*
X0237720Y0174158D01*
X0240197Y0165158D02*
X0218543Y0165158D01*
X0218169Y0165158D02*
X0218169Y0224765D01*
X0218150Y0225001D02*
X0240197Y0225001D01*
X0251220Y0225001D02*
X0277992Y0225001D01*
X0278012Y0225158D02*
X0278012Y0165158D01*
X0277598Y0165158D02*
X0251220Y0165158D01*
X0251811Y0114292D02*
X0284882Y0114292D01*
X0284882Y0098300D01*
X0283701Y0098300D01*
X0283701Y0092477D01*
X0284882Y0092477D01*
X0284882Y0082335D01*
X0284882Y0067509D01*
X0284882Y0035552D01*
X0251811Y0035552D01*
X0251811Y0114292D01*
X0255453Y0109863D02*
X0281240Y0109863D01*
X0281240Y0082335D01*
X0278780Y0082335D02*
X0278780Y0067509D01*
X0284882Y0067509D01*
X0281240Y0067509D02*
X0281240Y0039981D01*
X0255453Y0039981D01*
X0255453Y0109863D01*
X0278780Y0082335D02*
X0284882Y0082335D01*
X0202913Y0083820D02*
X0202913Y0086182D01*
X0199764Y0086182D01*
X0199764Y0090158D02*
X0202913Y0090158D01*
X0202913Y0092520D01*
X0202913Y0098820D02*
X0202913Y0101182D01*
X0199764Y0101182D01*
X0194777Y0102570D02*
X0192683Y0102570D01*
X0193730Y0102570D02*
X0193730Y0105710D01*
X0192683Y0104663D01*
X0191151Y0105186D02*
X0191151Y0103093D01*
X0190628Y0102570D01*
X0189582Y0102570D01*
X0189058Y0103093D01*
X0189058Y0105186D01*
X0189582Y0105710D01*
X0190628Y0105710D01*
X0191151Y0105186D01*
X0190105Y0103617D02*
X0191151Y0102570D01*
X0202913Y0077520D02*
X0202913Y0075158D01*
X0199764Y0075158D01*
X0194777Y0073454D02*
X0194253Y0073977D01*
X0193207Y0073977D01*
X0192683Y0073454D01*
X0191151Y0073454D02*
X0191151Y0071361D01*
X0190628Y0070838D01*
X0189582Y0070838D01*
X0189058Y0071361D01*
X0189058Y0073454D01*
X0189582Y0073977D01*
X0190628Y0073977D01*
X0191151Y0073454D01*
X0190105Y0071884D02*
X0191151Y0070838D01*
X0192683Y0070838D02*
X0194777Y0072931D01*
X0194777Y0073454D01*
X0194777Y0070838D02*
X0192683Y0070838D01*
X0139934Y0032860D02*
X0139934Y0032336D01*
X0139411Y0031813D01*
X0139934Y0031290D01*
X0139934Y0030767D01*
X0139411Y0030243D01*
X0138364Y0030243D01*
X0137841Y0030767D01*
X0138888Y0031813D02*
X0139411Y0031813D01*
X0139934Y0032860D02*
X0139411Y0033383D01*
X0138364Y0033383D01*
X0137841Y0032860D01*
X0136309Y0033383D02*
X0134216Y0030243D01*
X0136309Y0030243D02*
X0134216Y0033383D01*
X0079504Y0033383D02*
X0077411Y0033383D01*
X0077411Y0031813D01*
X0078458Y0032336D01*
X0078981Y0032336D01*
X0079504Y0031813D01*
X0079504Y0030767D01*
X0078981Y0030243D01*
X0077934Y0030243D01*
X0077411Y0030767D01*
X0075879Y0030243D02*
X0073786Y0033383D01*
X0075879Y0033383D02*
X0073786Y0030243D01*
X0048380Y0051536D02*
X0045240Y0053629D01*
X0045240Y0051536D02*
X0048380Y0053629D01*
X0046810Y0055161D02*
X0046810Y0057255D01*
X0048380Y0056731D02*
X0045240Y0056731D01*
X0046810Y0055161D01*
X0048380Y0099765D02*
X0045240Y0101858D01*
X0045763Y0103390D02*
X0045240Y0103913D01*
X0045240Y0104960D01*
X0045763Y0105483D01*
X0046286Y0105483D01*
X0048380Y0103390D01*
X0048380Y0105483D01*
X0048380Y0101858D02*
X0045240Y0099765D01*
X0045240Y0143977D02*
X0048380Y0146070D01*
X0048380Y0147602D02*
X0048380Y0149696D01*
X0048380Y0148649D02*
X0045240Y0148649D01*
X0046286Y0147602D01*
X0045240Y0146070D02*
X0048380Y0143977D01*
X0056181Y0185276D02*
X0058937Y0185276D01*
X0058937Y0193544D01*
X0037677Y0185276D02*
X0016811Y0185276D01*
X0016811Y0220709D01*
X0058937Y0220709D01*
X0058937Y0212442D01*
X0030564Y0222994D02*
X0028471Y0222994D01*
X0029517Y0222994D02*
X0029517Y0226134D01*
X0028471Y0225088D01*
X0026939Y0225611D02*
X0026939Y0224564D01*
X0026415Y0224041D01*
X0024846Y0224041D01*
X0024846Y0222994D02*
X0024846Y0226134D01*
X0026415Y0226134D01*
X0026939Y0225611D01*
X0023314Y0226134D02*
X0022267Y0226134D01*
X0022790Y0226134D02*
X0022790Y0223518D01*
X0022267Y0222994D01*
X0021744Y0222994D01*
X0021220Y0223518D01*
X0112763Y0139097D02*
X0113287Y0139620D01*
X0113810Y0139620D01*
X0114333Y0139097D01*
X0114857Y0139620D01*
X0115380Y0139620D01*
X0115903Y0139097D01*
X0115903Y0138050D01*
X0115380Y0137527D01*
X0114333Y0138573D02*
X0114333Y0139097D01*
X0112763Y0139097D02*
X0112763Y0138050D01*
X0113287Y0137527D01*
X0113287Y0135995D02*
X0115380Y0135995D01*
X0115903Y0135471D01*
X0115903Y0134425D01*
X0115380Y0133902D01*
X0113287Y0133902D01*
X0112763Y0134425D01*
X0112763Y0135471D01*
X0113287Y0135995D01*
X0114857Y0134948D02*
X0115903Y0135995D01*
X0118071Y0137520D02*
X0118071Y0134371D01*
X0120433Y0134371D01*
X0126732Y0134371D02*
X0129094Y0134371D01*
X0129094Y0137520D01*
D16*
X0219957Y0096292D03*
D17*
X0226025Y0131261D03*
X0226025Y0131501D03*
X0226025Y0131541D03*
X0226025Y0131621D03*
X0226025Y0131661D03*
X0226025Y0131701D03*
X0226025Y0131741D03*
X0226025Y0131821D03*
X0226025Y0131861D03*
X0226025Y0131901D03*
X0226025Y0131941D03*
X0226025Y0132021D03*
X0226025Y0132061D03*
X0226025Y0132101D03*
X0226025Y0132141D03*
X0226025Y0132221D03*
X0226025Y0132301D03*
X0226025Y0132461D03*
X0226025Y0133021D03*
X0225985Y0133061D03*
X0226025Y0133101D03*
X0225985Y0133141D03*
X0225985Y0133221D03*
X0226025Y0133261D03*
X0225985Y0133301D03*
X0226025Y0133341D03*
X0226025Y0133421D03*
X0225985Y0133461D03*
X0226025Y0133501D03*
X0225985Y0133541D03*
X0225985Y0134101D03*
X0225985Y0134261D03*
X0225985Y0134341D03*
X0225985Y0134421D03*
X0225985Y0134501D03*
X0225985Y0134541D03*
X0225985Y0134621D03*
X0225985Y0134661D03*
X0225985Y0134701D03*
X0225985Y0134741D03*
X0225985Y0135301D03*
X0225985Y0135461D03*
X0225985Y0135541D03*
X0225985Y0135621D03*
X0225985Y0135701D03*
X0225985Y0135861D03*
X0225985Y0136421D03*
X0225945Y0136461D03*
X0225985Y0136501D03*
X0225945Y0136541D03*
X0225945Y0136621D03*
X0225985Y0136661D03*
X0225945Y0136701D03*
X0225945Y0136861D03*
X0225945Y0136941D03*
X0225985Y0137461D03*
X0225945Y0137501D03*
X0225945Y0137541D03*
X0225945Y0137621D03*
X0225945Y0137661D03*
X0225945Y0137701D03*
X0225945Y0137741D03*
X0225945Y0137821D03*
X0225945Y0137861D03*
X0225945Y0137901D03*
X0225945Y0137941D03*
X0225945Y0138021D03*
X0225945Y0138061D03*
X0225945Y0138101D03*
X0229025Y0134821D03*
X0228945Y0134741D03*
X0228625Y0134341D03*
X0227745Y0133301D03*
X0226745Y0132141D03*
X0226625Y0132021D03*
X0226385Y0131701D03*
X0226345Y0131661D03*
X0226225Y0131541D03*
X0229985Y0135941D03*
X0233585Y0142261D03*
X0233945Y0143661D03*
X0234945Y0143461D03*
X0234825Y0143101D03*
X0234945Y0145541D03*
X0234945Y0145621D03*
X0236785Y0149621D03*
X0236825Y0149661D03*
X0228025Y0149501D03*
X0227945Y0149421D03*
X0227545Y0149021D03*
X0227385Y0148861D03*
X0226745Y0148301D03*
X0227345Y0147861D03*
X0225585Y0147341D03*
X0225585Y0147301D03*
X0224025Y0146301D03*
X0222985Y0146061D03*
X0222625Y0145861D03*
X0219545Y0145501D03*
X0220025Y0150221D03*
X0224025Y0154061D03*
X0224185Y0154141D03*
X0224345Y0154221D03*
X0224545Y0154741D03*
X0224385Y0155061D03*
X0224145Y0155541D03*
X0224945Y0155861D03*
X0224985Y0155821D03*
X0225025Y0155701D03*
X0224945Y0155941D03*
X0224825Y0156221D03*
X0224785Y0156261D03*
X0224785Y0156341D03*
X0224625Y0156661D03*
X0224625Y0156741D03*
X0224545Y0156901D03*
X0224385Y0157221D03*
X0224385Y0157301D03*
X0224345Y0157341D03*
X0224225Y0157621D03*
X0223985Y0158101D03*
X0223825Y0158421D03*
X0223785Y0158461D03*
X0223745Y0158501D03*
X0223625Y0158741D03*
X0223585Y0158821D03*
X0223545Y0158861D03*
X0223425Y0159061D03*
X0223345Y0159221D03*
X0223185Y0159461D03*
X0223145Y0159501D03*
X0223025Y0159701D03*
X0222825Y0159941D03*
X0222785Y0160021D03*
X0222745Y0160061D03*
X0222545Y0160341D03*
X0222425Y0160461D03*
X0222385Y0160501D03*
X0222345Y0160541D03*
X0221345Y0159461D03*
X0221185Y0159621D03*
X0221025Y0159861D03*
X0220945Y0159941D03*
X0220825Y0160061D03*
X0220785Y0160101D03*
X0220625Y0160341D03*
X0220545Y0160421D03*
X0220425Y0160541D03*
X0220345Y0160621D03*
X0221545Y0159221D03*
X0221825Y0158901D03*
X0221985Y0158661D03*
X0222625Y0157861D03*
X0223425Y0156741D03*
X0225185Y0155301D03*
X0225345Y0154821D03*
X0225425Y0154661D03*
X0225745Y0154341D03*
X0226585Y0154141D03*
X0226825Y0154061D03*
X0227145Y0153901D03*
X0227385Y0153741D03*
X0227545Y0153661D03*
X0227145Y0145341D03*
X0226585Y0144061D03*
X0226825Y0143821D03*
X0226985Y0143741D03*
X0227145Y0143661D03*
X0227985Y0144021D03*
X0228225Y0143541D03*
X0228545Y0143621D03*
X0228785Y0143701D03*
X0228825Y0143741D03*
X0228985Y0143821D03*
X0229145Y0143901D03*
X0229425Y0144821D03*
D18*
X0228305Y0144101D03*
X0228665Y0143661D03*
X0227665Y0143541D03*
X0227265Y0143621D03*
X0227065Y0143421D03*
X0226505Y0146541D03*
X0226505Y0146621D03*
X0226265Y0147901D03*
X0227265Y0148741D03*
X0227865Y0149341D03*
X0228265Y0152861D03*
X0228105Y0153101D03*
X0227705Y0153501D03*
X0227305Y0153821D03*
X0226705Y0154101D03*
X0225505Y0154421D03*
X0225465Y0154541D03*
X0225305Y0154941D03*
X0225265Y0155061D03*
X0225105Y0155461D03*
X0225105Y0155541D03*
X0224865Y0156101D03*
X0224705Y0156501D03*
X0224665Y0156621D03*
X0224465Y0157061D03*
X0224465Y0157141D03*
X0224305Y0157461D03*
X0224265Y0157501D03*
X0224065Y0157941D03*
X0223905Y0158261D03*
X0223865Y0158301D03*
X0223705Y0158621D03*
X0223665Y0158661D03*
X0223505Y0158901D03*
X0223465Y0159021D03*
X0223305Y0159261D03*
X0223265Y0159301D03*
X0223105Y0159541D03*
X0222905Y0159821D03*
X0222865Y0159861D03*
X0222705Y0160101D03*
X0222665Y0160141D03*
X0222465Y0160421D03*
X0222265Y0160701D03*
X0221265Y0159541D03*
X0221305Y0159501D03*
X0221665Y0159061D03*
X0221705Y0159021D03*
X0222305Y0158261D03*
X0222865Y0157541D03*
X0224305Y0155221D03*
X0224465Y0154901D03*
X0224465Y0154261D03*
X0220865Y0160021D03*
X0220505Y0160461D03*
X0220465Y0160501D03*
X0220305Y0160661D03*
X0220105Y0160941D03*
X0223705Y0146221D03*
X0222665Y0145901D03*
X0222305Y0145701D03*
X0233865Y0143341D03*
X0233905Y0143461D03*
X0233905Y0143541D03*
X0234865Y0143301D03*
X0234865Y0143221D03*
X0234905Y0143421D03*
X0234905Y0145501D03*
X0236065Y0146421D03*
X0230065Y0136021D03*
X0229905Y0135861D03*
X0229105Y0134901D03*
X0229065Y0134861D03*
X0228065Y0133701D03*
X0227665Y0133221D03*
X0226865Y0132261D03*
X0226705Y0132101D03*
X0226305Y0131621D03*
X0226065Y0131301D03*
D19*
X0226065Y0131341D03*
X0226465Y0131821D03*
X0226505Y0131861D03*
X0226545Y0131901D03*
X0226985Y0132421D03*
X0227025Y0132461D03*
X0227105Y0132541D03*
X0227745Y0133341D03*
X0227825Y0133421D03*
X0227905Y0133501D03*
X0227945Y0133541D03*
X0228065Y0133661D03*
X0228705Y0134461D03*
X0228745Y0134501D03*
X0228785Y0134541D03*
X0228865Y0134621D03*
X0229185Y0135021D03*
X0229705Y0135621D03*
X0229745Y0135661D03*
X0230065Y0136061D03*
X0230145Y0136141D03*
X0232305Y0139701D03*
X0232305Y0139741D03*
X0232265Y0139861D03*
X0232705Y0141461D03*
X0233585Y0142301D03*
X0233585Y0142461D03*
X0233625Y0142501D03*
X0233625Y0142541D03*
X0233665Y0142621D03*
X0233665Y0142701D03*
X0233705Y0142741D03*
X0233905Y0143501D03*
X0234865Y0143341D03*
X0234865Y0143261D03*
X0234825Y0143061D03*
X0234745Y0142501D03*
X0234705Y0142461D03*
X0234665Y0142341D03*
X0234665Y0142301D03*
X0234665Y0142261D03*
X0234625Y0142221D03*
X0234625Y0142141D03*
X0234625Y0142061D03*
X0234585Y0142021D03*
X0234945Y0145661D03*
X0234985Y0145701D03*
X0234945Y0149101D03*
X0227825Y0146301D03*
X0227945Y0145301D03*
X0226505Y0145301D03*
X0226385Y0146301D03*
X0226505Y0146501D03*
X0226745Y0148261D03*
X0227265Y0148701D03*
X0227305Y0148661D03*
X0226305Y0154221D03*
X0225505Y0154461D03*
X0225465Y0154501D03*
X0225425Y0154621D03*
X0225345Y0154861D03*
X0225185Y0155261D03*
X0225105Y0155501D03*
X0225025Y0155661D03*
X0225025Y0155741D03*
X0224945Y0155901D03*
X0224785Y0156301D03*
X0224625Y0156701D03*
X0224465Y0157101D03*
X0224385Y0157261D03*
X0223505Y0156621D03*
X0223465Y0156661D03*
X0223425Y0156701D03*
X0223345Y0156861D03*
X0223305Y0156901D03*
X0223265Y0156941D03*
X0223185Y0157101D03*
X0223145Y0157141D03*
X0223065Y0157261D03*
X0223025Y0157341D03*
X0222945Y0157421D03*
X0222865Y0157501D03*
X0222785Y0157661D03*
X0222745Y0157701D03*
X0222705Y0157741D03*
X0222505Y0158021D03*
X0222465Y0158061D03*
X0222305Y0158301D03*
X0222265Y0158341D03*
X0221825Y0158861D03*
X0221505Y0159261D03*
X0221105Y0159741D03*
X0220705Y0160221D03*
X0220625Y0160301D03*
X0222545Y0160301D03*
X0222625Y0160221D03*
X0223025Y0159661D03*
X0223185Y0159421D03*
X0223505Y0158941D03*
X0223745Y0158541D03*
X0223545Y0156541D03*
X0223585Y0156461D03*
X0223625Y0156421D03*
X0223745Y0156221D03*
X0223825Y0156061D03*
X0223865Y0156021D03*
X0223945Y0155861D03*
X0223985Y0155821D03*
X0224025Y0155741D03*
X0224065Y0155661D03*
X0224105Y0155621D03*
X0224145Y0155501D03*
X0224185Y0155461D03*
X0224225Y0155421D03*
X0224225Y0155341D03*
X0224265Y0155301D03*
X0224305Y0155261D03*
X0224345Y0155141D03*
X0224385Y0155101D03*
X0224385Y0155021D03*
X0224465Y0154941D03*
X0224465Y0154861D03*
X0224505Y0154821D03*
X0224545Y0154701D03*
X0224585Y0154661D03*
X0224625Y0154621D03*
X0224625Y0154541D03*
X0224665Y0154501D03*
X0224665Y0154461D03*
X0224745Y0154341D03*
X0224625Y0154301D03*
X0220425Y0150901D03*
X0220385Y0150861D03*
X0222225Y0145661D03*
X0221945Y0144341D03*
X0220145Y0145261D03*
X0219825Y0145341D03*
X0222145Y0142141D03*
D20*
X0221985Y0145581D03*
X0223545Y0146181D03*
X0227425Y0143581D03*
X0228385Y0143581D03*
X0233625Y0142581D03*
X0233585Y0142381D03*
X0234705Y0142381D03*
X0229665Y0135581D03*
X0228825Y0134581D03*
X0227665Y0133181D03*
X0226945Y0132381D03*
X0226625Y0131981D03*
X0226105Y0131381D03*
X0225985Y0134781D03*
X0225945Y0136981D03*
X0236785Y0149581D03*
X0224705Y0154381D03*
X0224545Y0154781D03*
X0224425Y0154981D03*
X0224305Y0155181D03*
X0224145Y0155581D03*
X0223905Y0155981D03*
X0223785Y0156181D03*
X0223665Y0156381D03*
X0223105Y0157181D03*
X0222985Y0157381D03*
X0222545Y0157981D03*
X0222225Y0158381D03*
X0221905Y0158781D03*
X0223825Y0158381D03*
X0225145Y0155381D03*
X0220225Y0160781D03*
D21*
X0225945Y0154301D03*
X0226745Y0148221D03*
X0226865Y0148021D03*
X0226945Y0147941D03*
X0226305Y0147061D03*
X0226545Y0146741D03*
X0227065Y0146621D03*
X0225545Y0147261D03*
X0229865Y0144941D03*
X0233665Y0142901D03*
X0233665Y0142861D03*
X0234745Y0142541D03*
X0232665Y0141501D03*
X0234985Y0145741D03*
X0234945Y0149061D03*
X0236705Y0149541D03*
X0220425Y0150941D03*
X0225705Y0132461D03*
X0226105Y0131461D03*
X0226105Y0131421D03*
D22*
X0226205Y0131501D03*
X0226405Y0131741D03*
X0226565Y0131941D03*
X0226685Y0132061D03*
X0226805Y0132221D03*
X0226885Y0132301D03*
X0226925Y0132341D03*
X0227045Y0132501D03*
X0227165Y0132621D03*
X0227685Y0133261D03*
X0227885Y0133461D03*
X0228005Y0133621D03*
X0228125Y0133741D03*
X0228685Y0134421D03*
X0228885Y0134661D03*
X0228925Y0134701D03*
X0229125Y0134941D03*
X0229645Y0135541D03*
X0229765Y0135701D03*
X0229805Y0135741D03*
X0229885Y0135821D03*
X0229925Y0135901D03*
X0230125Y0136101D03*
X0232285Y0139821D03*
X0232725Y0141421D03*
X0233565Y0142341D03*
X0233605Y0142421D03*
X0233645Y0142661D03*
X0233885Y0143421D03*
X0233925Y0143621D03*
X0234845Y0143141D03*
X0234685Y0142421D03*
X0234605Y0142101D03*
X0236445Y0148221D03*
X0234445Y0148901D03*
X0225965Y0147621D03*
X0220405Y0150821D03*
X0224685Y0154421D03*
X0225365Y0154741D03*
X0225405Y0154701D03*
X0225325Y0154901D03*
X0225285Y0155021D03*
X0225245Y0155101D03*
X0225245Y0155141D03*
X0225205Y0155221D03*
X0225165Y0155341D03*
X0225125Y0155421D03*
X0225045Y0155621D03*
X0224885Y0156021D03*
X0224885Y0156061D03*
X0224845Y0156141D03*
X0224725Y0156421D03*
X0224725Y0156461D03*
X0224685Y0156541D03*
X0224565Y0156821D03*
X0224565Y0156861D03*
X0224525Y0156941D03*
X0224485Y0157021D03*
X0224325Y0157421D03*
X0224245Y0157541D03*
X0224205Y0157661D03*
X0224165Y0157701D03*
X0224165Y0157741D03*
X0224125Y0157821D03*
X0224085Y0157861D03*
X0224085Y0157901D03*
X0224005Y0158021D03*
X0224005Y0158061D03*
X0223965Y0158141D03*
X0223925Y0158221D03*
X0223845Y0158341D03*
X0223645Y0158701D03*
X0223405Y0159101D03*
X0223365Y0159141D03*
X0223245Y0159341D03*
X0223045Y0159621D03*
X0222965Y0159741D03*
X0222845Y0159901D03*
X0222565Y0160261D03*
X0222285Y0160621D03*
X0221165Y0159661D03*
X0221045Y0159821D03*
X0220965Y0159901D03*
X0220765Y0160141D03*
X0220645Y0160261D03*
X0220285Y0160701D03*
X0220245Y0160741D03*
X0220165Y0160861D03*
X0220125Y0160901D03*
X0221365Y0159421D03*
X0221445Y0159341D03*
X0221485Y0159301D03*
X0221605Y0159141D03*
X0221645Y0159101D03*
X0221765Y0158941D03*
X0221885Y0158821D03*
X0221925Y0158741D03*
X0221965Y0158701D03*
X0222045Y0158621D03*
X0222085Y0158541D03*
X0222125Y0158501D03*
X0222165Y0158461D03*
X0222205Y0158421D03*
X0222365Y0158221D03*
X0222405Y0158141D03*
X0222445Y0158101D03*
X0222565Y0157941D03*
X0222605Y0157901D03*
X0222645Y0157821D03*
X0222805Y0157621D03*
X0222925Y0157461D03*
X0223045Y0157301D03*
X0223085Y0157221D03*
X0223205Y0157061D03*
X0223365Y0156821D03*
X0223565Y0156501D03*
X0223685Y0156341D03*
X0223685Y0156301D03*
X0223725Y0156261D03*
X0223805Y0156141D03*
X0223805Y0156101D03*
X0223925Y0155941D03*
X0223925Y0155901D03*
X0224045Y0155701D03*
X0225965Y0135901D03*
X0225965Y0135821D03*
X0225965Y0135741D03*
X0225965Y0135661D03*
X0225965Y0135501D03*
X0225965Y0135421D03*
X0225965Y0135341D03*
X0226005Y0134461D03*
X0226005Y0134301D03*
X0226005Y0134221D03*
X0226005Y0134141D03*
D23*
X0225985Y0134181D03*
X0225985Y0134581D03*
X0225985Y0135381D03*
X0225985Y0135781D03*
X0225985Y0136581D03*
X0225945Y0136781D03*
X0225745Y0136981D03*
X0225945Y0137581D03*
X0225945Y0137781D03*
X0225945Y0137981D03*
X0228985Y0134781D03*
X0228145Y0133781D03*
X0226785Y0132181D03*
X0226025Y0132181D03*
X0226025Y0131981D03*
X0226025Y0131781D03*
X0226025Y0131581D03*
X0226025Y0132381D03*
X0225985Y0132981D03*
X0226025Y0133181D03*
X0225985Y0133381D03*
X0228945Y0143781D03*
X0222825Y0145981D03*
X0219745Y0145381D03*
X0220385Y0150781D03*
X0224625Y0154581D03*
X0225425Y0154581D03*
X0224225Y0155381D03*
X0224585Y0156781D03*
X0224425Y0157181D03*
X0224145Y0157781D03*
X0223745Y0158581D03*
X0223225Y0159381D03*
X0222945Y0159781D03*
X0222625Y0160181D03*
X0221425Y0159381D03*
X0221745Y0158981D03*
X0222385Y0158181D03*
X0220385Y0160581D03*
X0226985Y0153981D03*
X0227345Y0153781D03*
X0227625Y0153581D03*
X0228025Y0153181D03*
D24*
X0226465Y0154181D03*
X0224905Y0155981D03*
X0223265Y0156981D03*
X0222705Y0157781D03*
X0222065Y0158581D03*
X0220905Y0159981D03*
X0220705Y0160181D03*
X0220065Y0160981D03*
X0222305Y0160581D03*
X0227305Y0148781D03*
X0222465Y0145781D03*
X0223665Y0141381D03*
X0231265Y0136581D03*
X0226265Y0131581D03*
X0236105Y0146381D03*
D25*
X0234925Y0145581D03*
X0234885Y0143381D03*
X0234845Y0143181D03*
X0233885Y0143381D03*
X0233925Y0143581D03*
X0234645Y0142181D03*
X0234565Y0141981D03*
X0232285Y0139781D03*
X0230165Y0136181D03*
X0230005Y0135981D03*
X0229845Y0135781D03*
X0229165Y0134981D03*
X0228645Y0134381D03*
X0227965Y0133581D03*
X0227805Y0133381D03*
X0227125Y0132581D03*
X0226445Y0131781D03*
X0226005Y0134381D03*
X0225965Y0135581D03*
X0225365Y0154781D03*
X0225285Y0154981D03*
X0225205Y0155181D03*
X0225085Y0155581D03*
X0225005Y0155781D03*
X0224845Y0156181D03*
X0224765Y0156381D03*
X0224685Y0156581D03*
X0224525Y0156981D03*
X0224325Y0157381D03*
X0224245Y0157581D03*
X0224045Y0157981D03*
X0223925Y0158181D03*
X0223605Y0158781D03*
X0223485Y0158981D03*
X0223365Y0159181D03*
X0223085Y0159581D03*
X0222805Y0159981D03*
X0222485Y0160381D03*
X0221245Y0159581D03*
X0221085Y0159781D03*
X0221565Y0159181D03*
X0220565Y0160381D03*
X0222845Y0157581D03*
X0223405Y0156781D03*
X0223525Y0156581D03*
X0224005Y0155781D03*
D26*
X0227685Y0153541D03*
X0227805Y0153421D03*
X0227885Y0153341D03*
X0228085Y0153141D03*
X0228125Y0153061D03*
X0228165Y0153021D03*
X0228365Y0152701D03*
X0228405Y0152541D03*
X0228445Y0152461D03*
X0228485Y0152221D03*
X0228525Y0152061D03*
X0228525Y0151821D03*
X0228525Y0151741D03*
X0228245Y0149821D03*
X0228205Y0149741D03*
X0227645Y0149101D03*
X0227605Y0149061D03*
X0227485Y0148941D03*
X0227445Y0148901D03*
X0227365Y0148821D03*
X0226805Y0148341D03*
X0226325Y0147941D03*
X0226205Y0147861D03*
X0226165Y0147821D03*
X0225965Y0147661D03*
X0226485Y0146661D03*
X0226525Y0144141D03*
X0229205Y0143941D03*
X0229725Y0144461D03*
X0229845Y0144701D03*
X0229925Y0144861D03*
X0233925Y0143701D03*
X0233605Y0142221D03*
X0231285Y0136541D03*
X0230125Y0135541D03*
X0225965Y0136741D03*
X0225965Y0136821D03*
X0225965Y0136901D03*
X0226005Y0132421D03*
X0226005Y0132341D03*
X0226005Y0132261D03*
X0222365Y0145741D03*
X0222525Y0145821D03*
X0219605Y0145461D03*
X0219485Y0145541D03*
X0219405Y0145661D03*
X0219325Y0145821D03*
X0219205Y0146141D03*
X0219125Y0146461D03*
X0219085Y0146621D03*
X0219045Y0146701D03*
X0219005Y0147261D03*
X0219005Y0147661D03*
X0219045Y0148061D03*
X0219085Y0148141D03*
X0219205Y0148621D03*
X0219285Y0148861D03*
X0219365Y0149021D03*
X0219405Y0149101D03*
X0219485Y0149261D03*
X0219565Y0149421D03*
X0219685Y0149661D03*
X0219765Y0149821D03*
X0220205Y0150461D03*
X0220245Y0150541D03*
X0220365Y0150701D03*
X0220365Y0150741D03*
X0221125Y0159701D03*
X0220205Y0160821D03*
D27*
X0220065Y0161021D03*
X0220025Y0161061D03*
X0222265Y0160741D03*
X0222265Y0160661D03*
X0222625Y0154221D03*
X0223105Y0154221D03*
X0223545Y0154101D03*
X0223945Y0154021D03*
X0224105Y0154101D03*
X0224825Y0153621D03*
X0225025Y0153661D03*
X0225105Y0153661D03*
X0225265Y0153661D03*
X0225345Y0153661D03*
X0225465Y0153621D03*
X0225625Y0154341D03*
X0226105Y0154261D03*
X0226145Y0154301D03*
X0226265Y0154261D03*
X0226465Y0154221D03*
X0226705Y0154141D03*
X0226905Y0154021D03*
X0227065Y0153941D03*
X0227225Y0153861D03*
X0227465Y0153701D03*
X0227545Y0153621D03*
X0227945Y0153301D03*
X0228025Y0153221D03*
X0228225Y0152941D03*
X0228265Y0152901D03*
X0228265Y0152821D03*
X0228345Y0152741D03*
X0228345Y0152661D03*
X0228425Y0152501D03*
X0228465Y0152421D03*
X0228465Y0152301D03*
X0228505Y0152261D03*
X0228505Y0152141D03*
X0228505Y0152101D03*
X0228505Y0152021D03*
X0228505Y0151941D03*
X0228545Y0151901D03*
X0228505Y0151861D03*
X0228505Y0151701D03*
X0228505Y0151661D03*
X0228505Y0151621D03*
X0228505Y0151541D03*
X0228545Y0151501D03*
X0228505Y0151461D03*
X0228425Y0150341D03*
X0228425Y0150261D03*
X0228345Y0150021D03*
X0228345Y0149941D03*
X0228305Y0149901D03*
X0228265Y0149861D03*
X0228145Y0149661D03*
X0228105Y0149621D03*
X0228025Y0149541D03*
X0227945Y0149301D03*
X0227865Y0149301D03*
X0227705Y0149141D03*
X0227145Y0148661D03*
X0226905Y0148421D03*
X0226505Y0148101D03*
X0226465Y0148061D03*
X0226425Y0148021D03*
X0226065Y0147741D03*
X0226025Y0147701D03*
X0225705Y0147461D03*
X0225665Y0147421D03*
X0226945Y0146301D03*
X0227025Y0146301D03*
X0227105Y0146301D03*
X0227025Y0145341D03*
X0227265Y0145341D03*
X0227265Y0145021D03*
X0227345Y0145021D03*
X0227905Y0145341D03*
X0228465Y0144141D03*
X0228105Y0144021D03*
X0228105Y0143541D03*
X0228145Y0143501D03*
X0228145Y0143421D03*
X0228225Y0143421D03*
X0228065Y0143421D03*
X0228065Y0143501D03*
X0228025Y0143541D03*
X0227945Y0143541D03*
X0227905Y0143501D03*
X0227865Y0143541D03*
X0227825Y0143501D03*
X0227825Y0143421D03*
X0227825Y0143341D03*
X0227905Y0143421D03*
X0227745Y0143501D03*
X0227545Y0143541D03*
X0227625Y0143301D03*
X0227265Y0143661D03*
X0227065Y0143701D03*
X0226745Y0143861D03*
X0226705Y0143901D03*
X0226665Y0143941D03*
X0226545Y0144101D03*
X0227465Y0143941D03*
X0227545Y0143941D03*
X0227625Y0143941D03*
X0228505Y0143461D03*
X0228625Y0143501D03*
X0228745Y0143541D03*
X0228705Y0143101D03*
X0228505Y0143061D03*
X0229025Y0143021D03*
X0229265Y0142941D03*
X0229545Y0142741D03*
X0229625Y0142821D03*
X0230665Y0142341D03*
X0230745Y0142421D03*
X0231025Y0142221D03*
X0231305Y0142101D03*
X0230945Y0144541D03*
X0230625Y0144621D03*
X0230265Y0144661D03*
X0230105Y0144661D03*
X0230025Y0144661D03*
X0229865Y0144741D03*
X0229825Y0144621D03*
X0229745Y0144541D03*
X0229705Y0144501D03*
X0229705Y0144421D03*
X0229625Y0144341D03*
X0229545Y0144261D03*
X0229505Y0144221D03*
X0229425Y0144141D03*
X0229345Y0144061D03*
X0229305Y0144021D03*
X0229065Y0143861D03*
X0229225Y0144741D03*
X0229305Y0144821D03*
X0229945Y0144901D03*
X0230145Y0147261D03*
X0230265Y0147301D03*
X0230465Y0147341D03*
X0231305Y0147541D03*
X0231865Y0147621D03*
X0233905Y0146461D03*
X0234145Y0146541D03*
X0234265Y0146021D03*
X0234545Y0146061D03*
X0234745Y0146101D03*
X0234905Y0145461D03*
X0234865Y0145421D03*
X0235105Y0145341D03*
X0234705Y0144941D03*
X0234625Y0144941D03*
X0234545Y0144941D03*
X0234465Y0144941D03*
X0234305Y0144941D03*
X0233905Y0143741D03*
X0234505Y0141941D03*
X0231945Y0137941D03*
X0229825Y0136621D03*
X0229745Y0136621D03*
X0229665Y0136621D03*
X0229505Y0136141D03*
X0229425Y0136141D03*
X0228825Y0136101D03*
X0228745Y0136101D03*
X0228665Y0136101D03*
X0228305Y0136061D03*
X0228225Y0136061D03*
X0228225Y0136541D03*
X0228305Y0136541D03*
X0228465Y0136541D03*
X0227945Y0136501D03*
X0227865Y0136501D03*
X0227625Y0136021D03*
X0227545Y0136021D03*
X0227465Y0136021D03*
X0227105Y0136461D03*
X0227025Y0136461D03*
X0226945Y0136461D03*
X0226665Y0136421D03*
X0226505Y0136421D03*
X0226425Y0136421D03*
X0226425Y0135941D03*
X0226345Y0135941D03*
X0226265Y0135941D03*
X0225825Y0135901D03*
X0225825Y0135261D03*
X0225745Y0135261D03*
X0226345Y0134821D03*
X0226425Y0134821D03*
X0226505Y0135301D03*
X0226665Y0135301D03*
X0226945Y0135341D03*
X0227025Y0135341D03*
X0227105Y0135341D03*
X0227105Y0134861D03*
X0227025Y0134861D03*
X0226945Y0134861D03*
X0227465Y0134901D03*
X0228065Y0134941D03*
X0228145Y0134941D03*
X0228145Y0135421D03*
X0228225Y0135421D03*
X0228065Y0135421D03*
X0228745Y0135461D03*
X0228825Y0135461D03*
X0228905Y0135461D03*
X0229265Y0135501D03*
X0229345Y0135501D03*
X0229465Y0135061D03*
X0229545Y0135061D03*
X0229025Y0135021D03*
X0229065Y0134341D03*
X0228745Y0133861D03*
X0228665Y0133861D03*
X0228465Y0133821D03*
X0228265Y0134261D03*
X0228105Y0134261D03*
X0227665Y0134221D03*
X0227665Y0133741D03*
X0227145Y0133701D03*
X0227065Y0133701D03*
X0226865Y0133661D03*
X0226705Y0134141D03*
X0226505Y0134101D03*
X0226425Y0134101D03*
X0226345Y0133621D03*
X0226265Y0133621D03*
X0225825Y0134061D03*
X0225545Y0134021D03*
X0225825Y0132941D03*
X0225625Y0132901D03*
X0225905Y0132461D03*
X0226465Y0132541D03*
X0226545Y0132541D03*
X0226465Y0133021D03*
X0226825Y0133061D03*
X0227105Y0133101D03*
X0227465Y0133141D03*
X0227665Y0132701D03*
X0227865Y0132741D03*
X0228105Y0133221D03*
X0229865Y0135541D03*
X0229945Y0135541D03*
X0230025Y0135541D03*
X0228745Y0137141D03*
X0228665Y0137141D03*
X0228305Y0137101D03*
X0228225Y0137101D03*
X0228145Y0137101D03*
X0228065Y0137101D03*
X0227625Y0137541D03*
X0227545Y0137541D03*
X0227465Y0137541D03*
X0227425Y0137661D03*
X0227025Y0137821D03*
X0226745Y0137941D03*
X0226705Y0137501D03*
X0226625Y0137501D03*
X0226545Y0137501D03*
X0226265Y0137461D03*
X0226105Y0137461D03*
X0226705Y0137021D03*
X0226865Y0137021D03*
X0226945Y0137021D03*
X0227225Y0137061D03*
X0227305Y0137061D03*
X0228265Y0139701D03*
X0228065Y0141501D03*
X0227105Y0141741D03*
X0224705Y0142941D03*
X0224625Y0142941D03*
X0224545Y0142941D03*
X0224465Y0142941D03*
X0224305Y0142941D03*
X0224225Y0142941D03*
X0224145Y0142941D03*
X0224065Y0142941D03*
X0223905Y0142941D03*
X0223905Y0143101D03*
X0223825Y0143101D03*
X0223745Y0143101D03*
X0223665Y0143101D03*
X0223505Y0143101D03*
X0224065Y0143101D03*
X0224145Y0143101D03*
X0224225Y0143101D03*
X0224305Y0143101D03*
X0222665Y0142661D03*
X0222105Y0142101D03*
X0221105Y0142221D03*
X0221025Y0142221D03*
X0220945Y0142221D03*
X0220865Y0142221D03*
X0220425Y0142661D03*
X0220425Y0145221D03*
X0220465Y0145261D03*
X0220505Y0145221D03*
X0220545Y0145261D03*
X0220625Y0145261D03*
X0220665Y0145221D03*
X0220705Y0145261D03*
X0220745Y0145221D03*
X0220345Y0145221D03*
X0220305Y0145261D03*
X0220265Y0145221D03*
X0220025Y0145301D03*
X0219945Y0145301D03*
X0219865Y0145301D03*
X0219665Y0145421D03*
X0219345Y0145741D03*
X0219305Y0145861D03*
X0219265Y0145901D03*
X0219265Y0145941D03*
X0219225Y0146021D03*
X0219225Y0146061D03*
X0219225Y0146101D03*
X0219145Y0146421D03*
X0219145Y0146501D03*
X0219105Y0146541D03*
X0219065Y0146661D03*
X0219065Y0146741D03*
X0219025Y0146861D03*
X0219025Y0146901D03*
X0219025Y0146941D03*
X0219025Y0147021D03*
X0219025Y0147101D03*
X0219025Y0147741D03*
X0219025Y0147821D03*
X0219025Y0147861D03*
X0219025Y0147901D03*
X0219025Y0147941D03*
X0219065Y0148021D03*
X0219065Y0148101D03*
X0219105Y0148221D03*
X0219105Y0148261D03*
X0219105Y0148301D03*
X0219145Y0148341D03*
X0219145Y0148421D03*
X0219225Y0148661D03*
X0219265Y0148701D03*
X0219265Y0148741D03*
X0219305Y0148821D03*
X0219305Y0148901D03*
X0219345Y0148941D03*
X0219425Y0149141D03*
X0219465Y0149221D03*
X0219505Y0149341D03*
X0219625Y0149541D03*
X0219665Y0149621D03*
X0219705Y0149701D03*
X0219745Y0149741D03*
X0219825Y0149901D03*
X0219865Y0149941D03*
X0219905Y0150021D03*
X0219905Y0150061D03*
X0219945Y0150101D03*
X0220065Y0150301D03*
X0220105Y0150341D03*
X0220305Y0150621D03*
X0220345Y0150661D03*
X0222665Y0149621D03*
X0224105Y0149461D03*
X0224025Y0146341D03*
X0223945Y0146261D03*
X0223905Y0146301D03*
X0223865Y0146261D03*
X0223825Y0146221D03*
X0223505Y0146141D03*
X0223425Y0146141D03*
X0223065Y0146101D03*
X0222905Y0146021D03*
X0222745Y0145941D03*
X0222105Y0145621D03*
X0221705Y0145541D03*
X0221505Y0145501D03*
X0222625Y0144701D03*
X0222745Y0144741D03*
X0222825Y0144741D03*
X0222905Y0144741D03*
X0223065Y0144741D03*
X0223145Y0144741D03*
X0223225Y0144741D03*
X0223305Y0144741D03*
X0223465Y0144741D03*
X0223545Y0144741D03*
X0223625Y0144741D03*
X0226465Y0145341D03*
X0233505Y0149341D03*
X0233545Y0149461D03*
X0233625Y0149461D03*
X0233465Y0149461D03*
X0233505Y0149661D03*
X0233825Y0149501D03*
X0233905Y0149501D03*
X0233945Y0149701D03*
X0233865Y0149701D03*
X0234425Y0149541D03*
X0234505Y0149541D03*
X0234545Y0149421D03*
X0234625Y0149421D03*
X0234465Y0149421D03*
X0234465Y0149741D03*
X0234825Y0149461D03*
X0234905Y0149461D03*
X0235425Y0149421D03*
X0235505Y0149421D03*
X0235505Y0149501D03*
X0235545Y0149621D03*
X0235465Y0149621D03*
X0235865Y0149541D03*
X0235945Y0149541D03*
X0236025Y0149541D03*
X0236025Y0149461D03*
X0236105Y0149461D03*
X0236105Y0149541D03*
X0236265Y0149461D03*
X0236345Y0149461D03*
X0236865Y0149701D03*
X0236065Y0150141D03*
X0236105Y0151141D03*
X0236025Y0151141D03*
X0235825Y0151741D03*
X0235705Y0151701D03*
X0235265Y0151661D03*
X0235225Y0151541D03*
X0235145Y0151541D03*
X0235065Y0151541D03*
X0235065Y0151461D03*
X0234905Y0151461D03*
X0234825Y0151621D03*
X0234745Y0151621D03*
X0234665Y0151621D03*
X0234705Y0151501D03*
X0234625Y0151501D03*
X0234305Y0151421D03*
X0234225Y0151421D03*
X0234025Y0151461D03*
X0233945Y0151461D03*
X0233865Y0151461D03*
X0233545Y0151541D03*
X0233465Y0151541D03*
X0233505Y0151421D03*
X0233425Y0151421D03*
X0233265Y0151341D03*
X0233105Y0151341D03*
X0232825Y0151301D03*
X0232745Y0151301D03*
X0232665Y0151301D03*
X0232705Y0151501D03*
X0232625Y0151501D03*
X0232305Y0151341D03*
X0232945Y0150701D03*
X0233025Y0150701D03*
X0233305Y0150741D03*
X0233425Y0150621D03*
X0233505Y0150621D03*
X0233945Y0150661D03*
X0234025Y0150661D03*
X0234305Y0150701D03*
X0234265Y0150821D03*
X0234625Y0150861D03*
X0234705Y0150861D03*
X0234905Y0150741D03*
X0235105Y0151661D03*
X0236305Y0151741D03*
X0234465Y0148941D03*
X0235025Y0147661D03*
X0235945Y0146421D03*
X0230945Y0155101D03*
X0230745Y0155141D03*
X0230105Y0155141D03*
X0229865Y0155061D03*
X0229745Y0155021D03*
D28*
X0227265Y0148541D03*
X0227065Y0147061D03*
X0227265Y0144861D03*
X0227465Y0141541D03*
X0227465Y0141461D03*
X0227305Y0141061D03*
X0227265Y0140941D03*
X0227265Y0140861D03*
X0227105Y0140461D03*
X0227065Y0140341D03*
X0227065Y0140301D03*
X0225865Y0140341D03*
X0226105Y0141221D03*
X0223105Y0142861D03*
X0223065Y0142821D03*
X0223105Y0142941D03*
X0223105Y0143021D03*
X0223105Y0143101D03*
X0221065Y0142261D03*
X0221705Y0145461D03*
X0220465Y0151101D03*
X0220505Y0151221D03*
X0234305Y0148301D03*
X0234305Y0148221D03*
X0233265Y0144861D03*
X0233665Y0143261D03*
X0235465Y0143301D03*
X0235505Y0143341D03*
X0236065Y0144061D03*
X0236065Y0144141D03*
X0236065Y0144221D03*
X0236105Y0144261D03*
X0236105Y0144301D03*
X0236105Y0144341D03*
X0232305Y0139261D03*
X0225865Y0132501D03*
D29*
X0225985Y0132541D03*
X0227185Y0147341D03*
X0220585Y0151461D03*
X0235785Y0145941D03*
X0236185Y0145621D03*
D30*
X0235945Y0144581D03*
X0223985Y0143181D03*
X0225185Y0153581D03*
X0226105Y0132581D03*
D31*
X0226265Y0132981D03*
X0226665Y0132581D03*
X0226745Y0132581D03*
X0227865Y0133781D03*
X0227945Y0133781D03*
X0227305Y0134181D03*
X0227225Y0134181D03*
X0227625Y0135381D03*
X0227705Y0135381D03*
X0228425Y0134981D03*
X0228505Y0134981D03*
X0229065Y0136581D03*
X0229145Y0136581D03*
X0229225Y0136581D03*
X0229305Y0136581D03*
X0229865Y0136181D03*
X0229945Y0136181D03*
X0230025Y0136181D03*
X0230825Y0136581D03*
X0230905Y0136581D03*
X0231065Y0136581D03*
X0231145Y0136581D03*
X0227105Y0135981D03*
X0227025Y0135981D03*
X0225825Y0136381D03*
X0225745Y0136381D03*
X0225665Y0136381D03*
X0227145Y0137781D03*
X0227265Y0139981D03*
X0223545Y0141381D03*
X0223465Y0141381D03*
X0223265Y0141981D03*
X0223105Y0141981D03*
X0226505Y0144181D03*
X0227105Y0143981D03*
X0227305Y0143381D03*
X0228065Y0143181D03*
X0228225Y0143581D03*
X0228545Y0143581D03*
X0229465Y0144181D03*
X0229425Y0144781D03*
X0229905Y0144781D03*
X0230745Y0144581D03*
X0231665Y0147581D03*
X0233425Y0146381D03*
X0234065Y0145981D03*
X0234145Y0145981D03*
X0234705Y0146781D03*
X0234905Y0148581D03*
X0234945Y0149581D03*
X0234865Y0149581D03*
X0234745Y0149781D03*
X0234665Y0149781D03*
X0234025Y0149381D03*
X0233945Y0149381D03*
X0233865Y0149381D03*
X0233145Y0150581D03*
X0233065Y0150581D03*
X0233825Y0150781D03*
X0233905Y0150781D03*
X0233945Y0151381D03*
X0233865Y0151381D03*
X0233905Y0151581D03*
X0233825Y0151581D03*
X0234065Y0151581D03*
X0232825Y0151381D03*
X0232745Y0151381D03*
X0232665Y0151381D03*
X0231305Y0154981D03*
X0231225Y0154981D03*
X0230545Y0155181D03*
X0230465Y0155181D03*
X0230305Y0155181D03*
X0227865Y0153381D03*
X0228305Y0152781D03*
X0228425Y0152581D03*
X0228465Y0152381D03*
X0228505Y0152181D03*
X0228545Y0151981D03*
X0228505Y0151781D03*
X0228425Y0150181D03*
X0227545Y0148981D03*
X0227065Y0148581D03*
X0226105Y0147781D03*
X0225625Y0147381D03*
X0224465Y0149581D03*
X0223305Y0149381D03*
X0222705Y0149581D03*
X0220265Y0150581D03*
X0220145Y0150381D03*
X0220025Y0150181D03*
X0219545Y0149381D03*
X0219425Y0149181D03*
X0219265Y0148781D03*
X0219225Y0148581D03*
X0219065Y0148181D03*
X0219025Y0147981D03*
X0219025Y0146781D03*
X0219065Y0146581D03*
X0219225Y0146181D03*
X0219265Y0145981D03*
X0219305Y0145781D03*
X0221825Y0145581D03*
X0222505Y0154181D03*
X0223305Y0154181D03*
X0224265Y0154181D03*
X0225665Y0154381D03*
X0235865Y0150181D03*
D32*
X0236065Y0149821D03*
X0236025Y0149301D03*
X0234825Y0150661D03*
X0236065Y0151501D03*
X0235785Y0144821D03*
X0232065Y0142221D03*
X0227465Y0144101D03*
X0223105Y0144541D03*
X0222505Y0143941D03*
X0223145Y0141621D03*
X0226425Y0137061D03*
X0230625Y0136621D03*
X0226305Y0132621D03*
X0229225Y0150101D03*
X0222945Y0154061D03*
X0221945Y0153141D03*
X0221905Y0153101D03*
X0221865Y0153061D03*
X0221825Y0153021D03*
X0221745Y0152941D03*
X0221705Y0152901D03*
X0221665Y0152861D03*
D33*
X0222665Y0153741D03*
X0233705Y0151501D03*
X0236065Y0149941D03*
X0235105Y0147061D03*
X0227465Y0143101D03*
X0226465Y0132661D03*
D34*
X0226585Y0132701D03*
X0221185Y0143061D03*
X0229185Y0145461D03*
D35*
X0229185Y0145621D03*
X0229105Y0146021D03*
X0229145Y0146061D03*
X0231505Y0140661D03*
X0231545Y0140621D03*
X0229625Y0136541D03*
X0226545Y0139861D03*
X0226705Y0132741D03*
X0225105Y0153221D03*
D36*
X0223665Y0149781D03*
X0228905Y0145181D03*
X0235465Y0148781D03*
X0234385Y0150581D03*
X0226745Y0132781D03*
D37*
X0226745Y0132821D03*
X0226825Y0132901D03*
X0231585Y0142541D03*
X0230665Y0144021D03*
X0228865Y0145021D03*
X0227545Y0144261D03*
X0225385Y0146421D03*
X0225425Y0146461D03*
X0221345Y0143341D03*
X0234225Y0145261D03*
X0235465Y0148661D03*
X0230625Y0154861D03*
D38*
X0235505Y0148821D03*
X0235465Y0148621D03*
X0229145Y0145901D03*
X0229105Y0145861D03*
X0229145Y0145821D03*
X0229185Y0145701D03*
X0228905Y0145101D03*
X0228865Y0146341D03*
X0227545Y0144301D03*
X0227785Y0142941D03*
X0231465Y0140701D03*
X0226745Y0134941D03*
X0227745Y0134101D03*
X0226745Y0132861D03*
D39*
X0226945Y0132941D03*
X0230385Y0136941D03*
X0229185Y0145501D03*
X0229145Y0146101D03*
X0229025Y0146301D03*
X0223625Y0149701D03*
D40*
X0223785Y0149381D03*
X0223385Y0146181D03*
X0219185Y0146381D03*
X0218985Y0147381D03*
X0218985Y0147581D03*
X0218985Y0147781D03*
X0223185Y0141981D03*
X0223385Y0141381D03*
X0224585Y0142581D03*
X0227585Y0143581D03*
X0227985Y0143981D03*
X0229785Y0144581D03*
X0230585Y0147381D03*
X0231585Y0147581D03*
X0232585Y0151381D03*
X0233785Y0151381D03*
X0233985Y0151581D03*
X0236385Y0149581D03*
X0231985Y0154781D03*
X0230385Y0155181D03*
X0228185Y0152981D03*
X0228585Y0141381D03*
X0230985Y0136581D03*
X0228585Y0134981D03*
X0227785Y0135381D03*
X0227185Y0135981D03*
X0225585Y0136381D03*
X0227385Y0134181D03*
X0226185Y0132981D03*
D41*
X0227165Y0132981D03*
X0230565Y0136781D03*
X0221445Y0144181D03*
X0225405Y0146581D03*
X0222445Y0153581D03*
D42*
X0225185Y0153661D03*
X0226185Y0154261D03*
X0227785Y0153461D03*
X0227985Y0153261D03*
X0228385Y0152621D03*
X0228385Y0150141D03*
X0228385Y0150061D03*
X0228185Y0149701D03*
X0227985Y0149461D03*
X0227385Y0147061D03*
X0227985Y0145341D03*
X0227185Y0145021D03*
X0226785Y0144061D03*
X0226585Y0144021D03*
X0227185Y0143421D03*
X0227785Y0143541D03*
X0227985Y0143501D03*
X0227985Y0143421D03*
X0228385Y0143101D03*
X0228585Y0143141D03*
X0229385Y0144101D03*
X0229585Y0144301D03*
X0230185Y0144661D03*
X0230385Y0142541D03*
X0230785Y0142301D03*
X0229785Y0140901D03*
X0228385Y0141421D03*
X0226785Y0141821D03*
X0227385Y0139941D03*
X0227585Y0139901D03*
X0226785Y0137501D03*
X0226785Y0137021D03*
X0227385Y0137061D03*
X0227185Y0136461D03*
X0227785Y0136501D03*
X0228385Y0136541D03*
X0228385Y0136061D03*
X0229185Y0135501D03*
X0229385Y0135061D03*
X0229585Y0136141D03*
X0229585Y0136621D03*
X0228585Y0137141D03*
X0226585Y0136421D03*
X0226185Y0137461D03*
X0226585Y0135301D03*
X0227385Y0134901D03*
X0227985Y0134941D03*
X0228185Y0134261D03*
X0228385Y0133821D03*
X0227585Y0133741D03*
X0227585Y0134221D03*
X0226785Y0134141D03*
X0226785Y0133661D03*
X0226385Y0133021D03*
X0223585Y0142541D03*
X0223785Y0142901D03*
X0223985Y0142941D03*
X0223985Y0143101D03*
X0224385Y0143101D03*
X0224385Y0142941D03*
X0223585Y0143101D03*
X0223385Y0144741D03*
X0222985Y0144741D03*
X0222585Y0144661D03*
X0221785Y0144341D03*
X0221385Y0145461D03*
X0222185Y0145621D03*
X0222985Y0146101D03*
X0223585Y0146221D03*
X0220585Y0145221D03*
X0220385Y0145261D03*
X0219985Y0145261D03*
X0219385Y0145701D03*
X0219185Y0146221D03*
X0219185Y0146261D03*
X0219185Y0146301D03*
X0218985Y0147061D03*
X0218985Y0147141D03*
X0218985Y0147221D03*
X0218985Y0147301D03*
X0218985Y0147341D03*
X0218985Y0147421D03*
X0218985Y0147461D03*
X0218985Y0147501D03*
X0218985Y0147541D03*
X0218985Y0147621D03*
X0218985Y0147701D03*
X0219185Y0148461D03*
X0219185Y0148541D03*
X0219385Y0149061D03*
X0219585Y0149501D03*
X0219785Y0149861D03*
X0219985Y0150141D03*
X0220185Y0150421D03*
X0220185Y0150501D03*
X0223985Y0149421D03*
X0230985Y0147461D03*
X0231185Y0147501D03*
X0233585Y0149341D03*
X0233585Y0149661D03*
X0233985Y0149501D03*
X0234385Y0149741D03*
X0234585Y0149541D03*
X0234985Y0149461D03*
X0235585Y0149421D03*
X0235585Y0149501D03*
X0235785Y0149541D03*
X0236185Y0149541D03*
X0234585Y0148901D03*
X0234385Y0150701D03*
X0234185Y0150821D03*
X0234385Y0151421D03*
X0234585Y0151621D03*
X0234785Y0151501D03*
X0234985Y0151461D03*
X0235185Y0151661D03*
X0233585Y0151421D03*
X0233385Y0151541D03*
X0233185Y0151341D03*
X0232785Y0151501D03*
X0232385Y0151341D03*
X0233385Y0150741D03*
X0231585Y0154941D03*
X0234185Y0145541D03*
X0234385Y0144941D03*
X0234985Y0143501D03*
X0233585Y0142141D03*
X0232785Y0141341D03*
X0222185Y0142101D03*
X0221985Y0142141D03*
X0221385Y0142261D03*
X0221185Y0142221D03*
D43*
X0223125Y0144421D03*
X0223125Y0144461D03*
X0229285Y0150901D03*
X0225125Y0153461D03*
X0222045Y0153221D03*
X0236045Y0149341D03*
X0227285Y0133021D03*
D44*
X0227465Y0133061D03*
X0226145Y0133661D03*
X0224145Y0142621D03*
X0224145Y0142661D03*
X0224145Y0142701D03*
X0224145Y0142741D03*
X0224145Y0142821D03*
X0222465Y0142221D03*
X0221145Y0143941D03*
X0221345Y0145261D03*
X0225465Y0146821D03*
X0226065Y0145261D03*
X0226105Y0145221D03*
X0227305Y0143221D03*
X0235425Y0146101D03*
X0235865Y0144661D03*
X0235905Y0144621D03*
X0236225Y0149421D03*
X0225145Y0153541D03*
X0222905Y0154101D03*
X0220825Y0151941D03*
X0220785Y0151901D03*
D45*
X0220625Y0151541D03*
X0223825Y0143861D03*
X0226345Y0144941D03*
X0226385Y0144901D03*
X0227425Y0144021D03*
X0226025Y0140221D03*
X0221145Y0142301D03*
X0227625Y0133101D03*
X0235545Y0150141D03*
X0236585Y0150141D03*
X0230425Y0155101D03*
D46*
X0227565Y0148101D03*
X0227245Y0147501D03*
X0227165Y0143341D03*
X0226325Y0141861D03*
X0226285Y0141821D03*
X0226245Y0141701D03*
X0226245Y0141621D03*
X0226205Y0141541D03*
X0226165Y0141461D03*
X0226125Y0141341D03*
X0226125Y0141301D03*
X0226045Y0141101D03*
X0225885Y0140301D03*
X0227285Y0141021D03*
X0227365Y0141261D03*
X0227405Y0141341D03*
X0227445Y0141501D03*
X0233645Y0143301D03*
X0235285Y0143141D03*
X0235405Y0143261D03*
X0235645Y0143461D03*
X0235725Y0143541D03*
X0233525Y0145901D03*
X0234325Y0147901D03*
X0234285Y0148261D03*
X0234365Y0148421D03*
X0234525Y0148541D03*
X0227805Y0133141D03*
D47*
X0227965Y0133181D03*
X0226365Y0146981D03*
D48*
X0227385Y0141381D03*
X0227345Y0141181D03*
X0227145Y0140581D03*
X0226025Y0140981D03*
X0232145Y0139981D03*
X0232345Y0139381D03*
X0234945Y0142781D03*
X0235545Y0143381D03*
X0235945Y0143781D03*
X0225825Y0133581D03*
D49*
X0225905Y0133621D03*
X0232145Y0140021D03*
X0232505Y0141741D03*
X0234985Y0142861D03*
X0235025Y0142901D03*
X0235225Y0143101D03*
X0235625Y0143421D03*
X0235705Y0143501D03*
X0235825Y0143621D03*
X0235865Y0143661D03*
X0235905Y0143701D03*
X0235945Y0143741D03*
X0236065Y0144421D03*
X0233505Y0145621D03*
X0233505Y0145701D03*
X0233505Y0145821D03*
X0233505Y0145861D03*
X0233505Y0145941D03*
X0234345Y0147821D03*
X0234305Y0148341D03*
X0235265Y0150501D03*
X0235265Y0150741D03*
X0235265Y0150821D03*
X0236065Y0151701D03*
X0236865Y0150741D03*
X0236865Y0150661D03*
X0230265Y0144621D03*
X0227145Y0145421D03*
X0227225Y0147421D03*
X0227745Y0147861D03*
X0227665Y0147941D03*
X0227625Y0148021D03*
X0227545Y0148141D03*
X0227465Y0148221D03*
X0227425Y0148261D03*
X0227385Y0148301D03*
X0227345Y0148341D03*
X0227305Y0148421D03*
X0227265Y0148501D03*
X0225545Y0147101D03*
X0223105Y0143141D03*
X0223105Y0142741D03*
X0226265Y0141741D03*
X0226265Y0141661D03*
X0226185Y0141501D03*
X0226185Y0141421D03*
X0226105Y0141261D03*
X0226065Y0141141D03*
X0226065Y0141061D03*
X0226025Y0141021D03*
X0226025Y0140941D03*
X0225985Y0140901D03*
X0225985Y0140861D03*
X0225985Y0140821D03*
X0225945Y0140741D03*
X0225945Y0140701D03*
X0225905Y0140661D03*
X0225905Y0140621D03*
X0225865Y0140541D03*
X0225865Y0140501D03*
X0225865Y0140461D03*
X0225825Y0140421D03*
X0220505Y0151261D03*
D50*
X0221485Y0152701D03*
X0226285Y0133701D03*
D51*
X0226545Y0133741D03*
X0230425Y0136901D03*
X0231785Y0142421D03*
X0234065Y0145341D03*
X0235185Y0146541D03*
X0235305Y0146901D03*
X0234545Y0150621D03*
X0228545Y0144861D03*
X0225225Y0146261D03*
X0221225Y0142901D03*
X0221305Y0142741D03*
X0221345Y0142701D03*
D52*
X0226685Y0133781D03*
D53*
X0226945Y0133821D03*
X0226785Y0139741D03*
X0227945Y0142821D03*
X0227585Y0144461D03*
X0228705Y0147261D03*
X0229025Y0147341D03*
X0223705Y0149941D03*
X0230705Y0154701D03*
X0234625Y0146141D03*
X0234425Y0145141D03*
X0221945Y0142501D03*
X0221905Y0142461D03*
D54*
X0227085Y0133861D03*
D55*
X0227185Y0133901D03*
X0230585Y0143621D03*
X0228385Y0146941D03*
X0228385Y0147021D03*
X0224985Y0152661D03*
D56*
X0227185Y0133941D03*
D57*
X0227225Y0133981D03*
X0224945Y0152581D03*
X0230745Y0154381D03*
D58*
X0224965Y0152621D03*
X0230965Y0142941D03*
X0227245Y0134021D03*
D59*
X0227405Y0134061D03*
D60*
X0227925Y0134141D03*
X0231645Y0142501D03*
X0229085Y0146221D03*
X0225125Y0153261D03*
D61*
X0222225Y0153381D03*
X0221985Y0153181D03*
X0229265Y0150581D03*
X0223145Y0144381D03*
X0222425Y0143581D03*
X0223185Y0141781D03*
X0228225Y0134181D03*
D62*
X0228385Y0134221D03*
X0226225Y0134861D03*
X0232145Y0142141D03*
X0235945Y0148501D03*
X0222545Y0143821D03*
X0222545Y0143741D03*
X0222545Y0143661D03*
X0221025Y0152221D03*
X0221145Y0152341D03*
X0221225Y0152421D03*
D63*
X0220585Y0151421D03*
X0225545Y0147021D03*
X0227065Y0146141D03*
X0227145Y0145501D03*
X0224065Y0142501D03*
X0223905Y0142261D03*
X0223745Y0142021D03*
X0228905Y0140141D03*
X0228905Y0140061D03*
X0228865Y0139941D03*
X0228825Y0139901D03*
X0228825Y0139821D03*
X0228785Y0139741D03*
X0228785Y0139701D03*
X0228985Y0140301D03*
X0229025Y0140421D03*
X0229065Y0140541D03*
X0232065Y0140101D03*
X0232465Y0141861D03*
X0232425Y0141901D03*
X0236025Y0144461D03*
X0236265Y0145541D03*
X0236065Y0145701D03*
X0234465Y0147701D03*
X0236745Y0151021D03*
X0236705Y0151061D03*
X0228705Y0134261D03*
D64*
X0228785Y0134301D03*
X0225865Y0135941D03*
X0225945Y0140261D03*
X0229145Y0140821D03*
X0230865Y0140301D03*
X0230865Y0140221D03*
X0230825Y0140101D03*
X0230785Y0140061D03*
X0230785Y0140021D03*
X0230745Y0139941D03*
X0230745Y0139901D03*
X0230745Y0139861D03*
X0230705Y0139821D03*
X0230705Y0139741D03*
X0230665Y0139701D03*
X0230665Y0139661D03*
X0230665Y0139621D03*
X0230625Y0139501D03*
X0230585Y0139461D03*
X0230545Y0139341D03*
X0230545Y0139261D03*
X0230505Y0139141D03*
X0230505Y0139061D03*
X0230465Y0139021D03*
X0232105Y0140061D03*
X0232465Y0141821D03*
X0235025Y0142941D03*
X0236345Y0145261D03*
X0236345Y0145461D03*
X0236745Y0150261D03*
X0236785Y0150341D03*
X0236825Y0150421D03*
X0236865Y0150621D03*
X0236865Y0150701D03*
X0236825Y0150821D03*
X0236825Y0150861D03*
X0236825Y0150901D03*
X0236785Y0150941D03*
X0227665Y0147901D03*
X0227265Y0148461D03*
X0225545Y0147061D03*
X0227145Y0145461D03*
X0227225Y0143301D03*
X0223065Y0142661D03*
X0222705Y0142061D03*
X0220545Y0151341D03*
D65*
X0225945Y0147581D03*
X0226065Y0147381D03*
X0227265Y0144981D03*
X0227105Y0143381D03*
X0234785Y0142581D03*
X0235025Y0145781D03*
X0225705Y0134781D03*
D66*
X0225925Y0134821D03*
X0228845Y0139861D03*
X0228885Y0140021D03*
X0228925Y0140101D03*
X0229045Y0140461D03*
X0229045Y0140501D03*
X0229085Y0140621D03*
X0229085Y0140661D03*
X0229125Y0140701D03*
X0229125Y0140741D03*
X0230485Y0139101D03*
X0235085Y0143021D03*
X0223085Y0142701D03*
X0222685Y0142141D03*
X0222685Y0142101D03*
X0222685Y0142021D03*
D67*
X0223205Y0144221D03*
X0225285Y0146141D03*
X0222965Y0153941D03*
X0235325Y0146621D03*
X0226445Y0134901D03*
D68*
X0226945Y0134981D03*
X0229105Y0147381D03*
X0223705Y0149981D03*
X0231505Y0150581D03*
D69*
X0230745Y0154341D03*
X0224945Y0152541D03*
X0224905Y0152501D03*
X0223945Y0150421D03*
X0228945Y0136461D03*
X0227265Y0135021D03*
D70*
X0227425Y0135061D03*
X0227145Y0139421D03*
X0227185Y0139461D03*
X0228305Y0142501D03*
X0230665Y0143101D03*
X0230465Y0151461D03*
X0230505Y0151501D03*
X0230785Y0153941D03*
X0230785Y0154021D03*
X0224785Y0152061D03*
X0224785Y0152021D03*
X0224185Y0150861D03*
X0224145Y0150821D03*
D71*
X0230745Y0152341D03*
X0230745Y0152421D03*
X0230785Y0152461D03*
X0230785Y0152541D03*
X0230785Y0152621D03*
X0230785Y0152661D03*
X0230785Y0152701D03*
X0230825Y0152821D03*
X0230785Y0152861D03*
X0230825Y0152901D03*
X0230785Y0152941D03*
X0230785Y0153021D03*
X0230825Y0153061D03*
X0230225Y0141501D03*
X0227345Y0139261D03*
X0229585Y0137661D03*
X0227625Y0135101D03*
D72*
X0227645Y0135141D03*
D73*
X0227665Y0135181D03*
X0227665Y0136181D03*
D74*
X0227665Y0135221D03*
X0227345Y0139221D03*
X0230145Y0141541D03*
X0229105Y0147541D03*
D75*
X0230625Y0151821D03*
X0230625Y0151901D03*
X0230665Y0151941D03*
X0230665Y0152021D03*
X0224625Y0151661D03*
X0224545Y0151501D03*
X0224465Y0151341D03*
X0228425Y0142421D03*
X0230345Y0141461D03*
X0229625Y0137621D03*
X0227905Y0135261D03*
D76*
X0228305Y0135301D03*
X0231025Y0142901D03*
X0227625Y0144701D03*
X0229225Y0147421D03*
X0231665Y0149621D03*
X0224985Y0152701D03*
D77*
X0227585Y0144501D03*
X0226785Y0139701D03*
X0228585Y0135341D03*
D78*
X0228905Y0135381D03*
X0229105Y0146181D03*
D79*
X0227505Y0144141D03*
X0227545Y0143061D03*
X0223705Y0143221D03*
X0223225Y0144101D03*
X0223225Y0144141D03*
X0222505Y0143461D03*
X0223625Y0149621D03*
X0222785Y0153821D03*
X0222825Y0153861D03*
X0222865Y0153901D03*
X0235345Y0146861D03*
X0235665Y0144941D03*
X0231865Y0142341D03*
X0229185Y0135421D03*
D80*
X0229525Y0135461D03*
X0232245Y0142101D03*
X0222445Y0142301D03*
X0221245Y0144701D03*
D81*
X0221605Y0145421D03*
X0229165Y0140901D03*
X0229165Y0140861D03*
X0229205Y0140941D03*
X0229005Y0140341D03*
X0228965Y0140261D03*
X0228965Y0140221D03*
X0230605Y0139421D03*
X0230565Y0139301D03*
X0230805Y0140141D03*
X0229765Y0135501D03*
X0236765Y0150301D03*
D82*
X0226525Y0146701D03*
X0223245Y0157021D03*
X0225645Y0135901D03*
D83*
X0226245Y0135981D03*
X0221565Y0152781D03*
D84*
X0225225Y0146221D03*
X0223265Y0144021D03*
X0223705Y0143261D03*
X0221425Y0142661D03*
X0226385Y0139941D03*
X0226465Y0136021D03*
X0230505Y0136861D03*
X0228625Y0144901D03*
X0228665Y0144941D03*
X0228705Y0145061D03*
X0234785Y0146421D03*
X0236065Y0150021D03*
X0236065Y0150101D03*
X0230585Y0154941D03*
D85*
X0225065Y0153021D03*
X0223705Y0149901D03*
X0227865Y0142861D03*
X0231345Y0140821D03*
X0230145Y0137141D03*
X0229345Y0136501D03*
X0226825Y0136061D03*
X0234585Y0146221D03*
D86*
X0228465Y0146861D03*
X0228425Y0146901D03*
X0227625Y0144741D03*
X0227625Y0144661D03*
X0231185Y0140941D03*
X0227065Y0136101D03*
X0223785Y0150101D03*
X0224985Y0152741D03*
X0230705Y0154541D03*
D87*
X0230785Y0153901D03*
X0224745Y0151941D03*
X0224225Y0150941D03*
X0230185Y0147701D03*
X0230585Y0143141D03*
X0230625Y0141341D03*
X0230825Y0141141D03*
X0230825Y0141101D03*
X0230825Y0141061D03*
X0227425Y0136141D03*
D88*
X0227905Y0136221D03*
X0227945Y0136261D03*
X0229665Y0141701D03*
X0230425Y0148261D03*
X0230825Y0149461D03*
X0230825Y0149501D03*
X0230825Y0149541D03*
X0230945Y0151421D03*
X0232505Y0150901D03*
D89*
X0228765Y0142101D03*
X0227605Y0139021D03*
X0227965Y0136301D03*
D90*
X0227985Y0136341D03*
X0228745Y0142141D03*
X0230425Y0148301D03*
D91*
X0228205Y0136381D03*
D92*
X0228645Y0136421D03*
X0224205Y0150901D03*
X0230525Y0151621D03*
D93*
X0236065Y0149781D03*
X0235785Y0144781D03*
X0230065Y0136581D03*
D94*
X0230705Y0136661D03*
X0231905Y0140341D03*
X0230505Y0144461D03*
X0233625Y0144941D03*
X0233865Y0146061D03*
X0235465Y0146061D03*
X0235465Y0146021D03*
X0235945Y0148461D03*
X0235945Y0151661D03*
X0227545Y0147741D03*
X0225665Y0145621D03*
X0224105Y0143421D03*
X0224105Y0143341D03*
X0223145Y0144621D03*
X0220905Y0152061D03*
X0220945Y0152101D03*
D95*
X0221305Y0152541D03*
X0225145Y0153501D03*
X0225665Y0145701D03*
X0227545Y0144061D03*
X0230545Y0144421D03*
X0233825Y0145461D03*
X0235505Y0146741D03*
X0234745Y0149501D03*
X0234305Y0151541D03*
X0233105Y0151461D03*
X0222505Y0143901D03*
X0223105Y0141541D03*
X0223105Y0141501D03*
X0230665Y0136701D03*
D96*
X0230625Y0136741D03*
X0231985Y0142261D03*
X0227425Y0143141D03*
X0225425Y0146661D03*
X0223585Y0149541D03*
X0222145Y0153301D03*
X0222185Y0153341D03*
X0222265Y0153421D03*
X0222305Y0153461D03*
X0222945Y0154021D03*
X0221385Y0144301D03*
X0221425Y0144261D03*
X0222385Y0143541D03*
X0223145Y0141661D03*
X0234865Y0146501D03*
X0235465Y0146701D03*
X0235185Y0147541D03*
X0235945Y0149021D03*
X0235985Y0149141D03*
X0236025Y0149261D03*
X0236065Y0149861D03*
D97*
X0235985Y0151461D03*
X0235745Y0151621D03*
X0235185Y0147621D03*
X0235145Y0147261D03*
X0235185Y0147221D03*
X0235145Y0147141D03*
X0235145Y0147101D03*
X0234825Y0146461D03*
X0230625Y0144261D03*
X0231945Y0142301D03*
X0230545Y0136821D03*
X0226425Y0140141D03*
X0226385Y0140101D03*
X0223225Y0141901D03*
X0223225Y0141941D03*
X0223185Y0144261D03*
X0221425Y0144101D03*
X0221425Y0144021D03*
X0222585Y0153661D03*
X0222625Y0153701D03*
X0225145Y0153421D03*
D98*
X0229205Y0145581D03*
X0227685Y0142981D03*
X0230365Y0136981D03*
D99*
X0226165Y0137021D03*
X0232325Y0142021D03*
X0233645Y0145541D03*
X0235965Y0144541D03*
X0235845Y0147821D03*
X0227085Y0145941D03*
X0227085Y0145901D03*
X0227085Y0145861D03*
X0226285Y0145021D03*
X0225805Y0145421D03*
X0225765Y0145461D03*
X0223885Y0143821D03*
X0223965Y0143141D03*
X0220645Y0151621D03*
X0220685Y0151661D03*
D100*
X0225085Y0153141D03*
X0229165Y0145741D03*
X0234285Y0145221D03*
X0235485Y0148861D03*
X0230285Y0137021D03*
D101*
X0230265Y0137061D03*
X0226625Y0139821D03*
X0227545Y0144341D03*
X0228825Y0146421D03*
X0228745Y0146501D03*
X0228745Y0146541D03*
X0228745Y0146661D03*
X0225305Y0146341D03*
X0230665Y0154821D03*
X0235665Y0151421D03*
D102*
X0235485Y0148741D03*
X0235485Y0148701D03*
X0229125Y0145941D03*
X0228925Y0145221D03*
X0228885Y0145141D03*
X0226845Y0137101D03*
D103*
X0230225Y0137101D03*
X0231385Y0142661D03*
X0230665Y0143861D03*
X0228665Y0146741D03*
X0228705Y0147101D03*
X0228665Y0147221D03*
X0234585Y0146261D03*
X0230665Y0154741D03*
X0225065Y0153061D03*
D104*
X0225065Y0152941D03*
X0230705Y0154661D03*
X0231265Y0140901D03*
X0231305Y0140861D03*
X0227105Y0137141D03*
X0221945Y0142541D03*
D105*
X0228605Y0137181D03*
D106*
X0228605Y0137221D03*
D107*
X0228585Y0137261D03*
X0228625Y0137301D03*
X0228825Y0138221D03*
X0231385Y0149741D03*
D108*
X0228625Y0137421D03*
X0228625Y0137341D03*
D109*
X0228625Y0137381D03*
D110*
X0228965Y0137461D03*
X0230485Y0148821D03*
D111*
X0230425Y0148221D03*
X0230865Y0150741D03*
X0229345Y0137861D03*
X0229225Y0137501D03*
D112*
X0229665Y0137541D03*
X0227225Y0139341D03*
X0224345Y0151101D03*
X0224385Y0151221D03*
X0224425Y0151261D03*
X0224625Y0151621D03*
X0224625Y0151701D03*
X0224665Y0151741D03*
X0230585Y0151741D03*
X0230625Y0151861D03*
X0230785Y0153701D03*
X0230785Y0153821D03*
D113*
X0230605Y0151781D03*
X0224605Y0151581D03*
X0224485Y0151381D03*
X0224365Y0151181D03*
X0229645Y0137581D03*
D114*
X0229525Y0137701D03*
X0230325Y0147901D03*
D115*
X0230365Y0148021D03*
X0229485Y0137741D03*
D116*
X0229465Y0137781D03*
D117*
X0229405Y0137821D03*
X0228645Y0142221D03*
D118*
X0229705Y0141621D03*
X0229345Y0137901D03*
X0229505Y0147661D03*
X0230425Y0148421D03*
D119*
X0230425Y0148461D03*
X0230465Y0148501D03*
X0229385Y0141821D03*
X0229345Y0137941D03*
D120*
X0229345Y0137981D03*
X0228945Y0141981D03*
D121*
X0229325Y0138021D03*
D122*
X0229285Y0138061D03*
X0228085Y0138661D03*
X0227925Y0138861D03*
X0227925Y0138901D03*
D123*
X0228465Y0138461D03*
X0228705Y0138301D03*
X0229225Y0138101D03*
D124*
X0229025Y0138141D03*
D125*
X0229005Y0138181D03*
D126*
X0231985Y0138221D03*
X0232025Y0138341D03*
X0232345Y0139541D03*
X0232225Y0139901D03*
X0232665Y0141541D03*
X0233665Y0142941D03*
X0233665Y0143021D03*
X0233505Y0143501D03*
X0233465Y0143621D03*
X0233305Y0144021D03*
X0233225Y0144261D03*
X0234825Y0142661D03*
X0229865Y0145061D03*
X0227265Y0144941D03*
X0227065Y0146261D03*
X0227065Y0146661D03*
X0226425Y0146901D03*
X0226385Y0146941D03*
X0226345Y0147021D03*
X0226305Y0147101D03*
X0226185Y0147221D03*
X0226145Y0147261D03*
X0226105Y0147301D03*
X0226065Y0147341D03*
X0226025Y0147421D03*
X0225945Y0147541D03*
X0225545Y0147221D03*
X0226825Y0148101D03*
X0226865Y0148061D03*
X0226945Y0147901D03*
X0227025Y0147821D03*
X0227465Y0147301D03*
X0227265Y0148621D03*
X0223185Y0146141D03*
X0220465Y0151021D03*
X0222865Y0154221D03*
X0234345Y0148101D03*
X0234345Y0148021D03*
X0234945Y0149021D03*
X0235985Y0146461D03*
X0235025Y0145901D03*
X0235025Y0145821D03*
X0236065Y0151741D03*
D127*
X0228325Y0138541D03*
X0228765Y0138261D03*
D128*
X0232005Y0138261D03*
X0232005Y0138301D03*
X0232045Y0138421D03*
X0232045Y0138461D03*
X0232085Y0138541D03*
X0232125Y0138661D03*
X0232125Y0138701D03*
X0232205Y0138901D03*
X0232205Y0139941D03*
X0234805Y0142621D03*
X0233565Y0143341D03*
X0233525Y0143461D03*
X0233485Y0143541D03*
X0233445Y0143661D03*
X0233445Y0143701D03*
X0233405Y0143741D03*
X0233365Y0143861D03*
X0233365Y0143901D03*
X0233285Y0144101D03*
X0233285Y0144141D03*
X0233245Y0144221D03*
X0233205Y0144341D03*
X0235045Y0145941D03*
X0234365Y0148061D03*
X0236645Y0149501D03*
X0227045Y0147221D03*
X0227045Y0147141D03*
X0227045Y0146701D03*
D129*
X0227945Y0138941D03*
X0227985Y0138741D03*
X0228025Y0138701D03*
X0228185Y0138621D03*
X0228385Y0138501D03*
X0228545Y0138421D03*
X0228625Y0138341D03*
D130*
X0228585Y0138381D03*
X0228225Y0138581D03*
D131*
X0227025Y0140181D03*
X0232025Y0138381D03*
X0232225Y0138981D03*
X0233465Y0143581D03*
X0235065Y0145981D03*
X0234345Y0147981D03*
X0225545Y0147181D03*
X0223105Y0142981D03*
D132*
X0225945Y0147501D03*
X0226745Y0148141D03*
X0227025Y0147301D03*
X0227065Y0147101D03*
X0227025Y0146741D03*
X0227265Y0144901D03*
X0227105Y0140421D03*
X0232145Y0138821D03*
X0232145Y0138741D03*
X0232105Y0138621D03*
X0232065Y0138501D03*
X0232225Y0139061D03*
X0232265Y0139101D03*
X0232305Y0139221D03*
X0232345Y0139501D03*
X0232625Y0141621D03*
X0233665Y0143061D03*
X0233665Y0143101D03*
X0233665Y0143141D03*
X0233665Y0143221D03*
X0233545Y0143421D03*
X0233345Y0143941D03*
X0233305Y0144061D03*
X0233225Y0144301D03*
X0234865Y0142741D03*
X0234865Y0142701D03*
X0234345Y0148141D03*
X0234465Y0148501D03*
X0236625Y0149461D03*
X0220465Y0151061D03*
D133*
X0227045Y0147181D03*
X0233165Y0144381D03*
X0233245Y0144181D03*
X0233325Y0143981D03*
X0233405Y0143781D03*
X0232325Y0139581D03*
X0232085Y0138581D03*
D134*
X0227905Y0138781D03*
D135*
X0227205Y0140781D03*
X0227285Y0140981D03*
X0232285Y0139181D03*
X0232165Y0138781D03*
X0233245Y0144781D03*
X0236085Y0144181D03*
X0236045Y0143981D03*
D136*
X0227905Y0138821D03*
D137*
X0232185Y0138861D03*
X0233385Y0143821D03*
X0233185Y0144421D03*
X0233185Y0144501D03*
X0234385Y0147941D03*
X0221785Y0145501D03*
D138*
X0223085Y0143061D03*
X0223085Y0142901D03*
X0227325Y0141141D03*
X0227245Y0140901D03*
X0227165Y0140661D03*
X0227125Y0140501D03*
X0227045Y0140261D03*
X0232205Y0138941D03*
X0232245Y0139021D03*
X0232285Y0139141D03*
X0232325Y0139301D03*
X0232325Y0139341D03*
X0232365Y0139461D03*
X0233165Y0144461D03*
X0233245Y0144821D03*
X0233285Y0144901D03*
X0236045Y0144101D03*
X0236005Y0143901D03*
X0236005Y0143861D03*
X0235925Y0146501D03*
X0227005Y0147261D03*
X0220485Y0151141D03*
D139*
X0227945Y0138981D03*
D140*
X0227525Y0139061D03*
D141*
X0227505Y0139101D03*
X0230385Y0148141D03*
D142*
X0227465Y0139141D03*
D143*
X0227385Y0139181D03*
D144*
X0228885Y0139981D03*
X0229085Y0140581D03*
X0230525Y0139181D03*
X0235925Y0145781D03*
D145*
X0236365Y0145421D03*
X0236365Y0145341D03*
X0236365Y0145301D03*
X0236325Y0145221D03*
X0234405Y0147741D03*
X0234365Y0148461D03*
X0236845Y0150461D03*
X0236845Y0150501D03*
X0236845Y0150541D03*
X0227605Y0148061D03*
X0220525Y0151301D03*
X0230845Y0140261D03*
X0230645Y0139541D03*
X0230525Y0139221D03*
D146*
X0227285Y0139301D03*
X0230325Y0143421D03*
X0234925Y0151301D03*
X0230805Y0153501D03*
X0230805Y0153541D03*
D147*
X0227225Y0139581D03*
X0227185Y0139381D03*
D148*
X0230585Y0139381D03*
X0230625Y0139581D03*
X0230705Y0139781D03*
X0230785Y0139981D03*
X0230825Y0140181D03*
X0232505Y0141781D03*
X0235065Y0142981D03*
X0236305Y0145181D03*
X0236785Y0150381D03*
X0227345Y0148381D03*
X0222905Y0154181D03*
X0222665Y0142181D03*
X0222705Y0141981D03*
D149*
X0227185Y0140701D03*
X0227225Y0140741D03*
X0227225Y0140821D03*
X0227185Y0140621D03*
X0227145Y0140541D03*
X0227025Y0140221D03*
X0227345Y0141101D03*
X0227385Y0141221D03*
X0227385Y0141301D03*
X0227425Y0141421D03*
X0232545Y0141661D03*
X0232585Y0141701D03*
X0232385Y0139421D03*
X0234945Y0142821D03*
X0235225Y0143061D03*
X0235385Y0143221D03*
X0235985Y0143821D03*
X0236025Y0143941D03*
X0236025Y0144021D03*
X0233225Y0144661D03*
X0233225Y0144701D03*
X0233225Y0144741D03*
X0233185Y0144621D03*
X0233185Y0144541D03*
X0234345Y0147861D03*
X0227225Y0147461D03*
X0226545Y0146861D03*
X0227025Y0146221D03*
X0225545Y0147141D03*
X0225145Y0153621D03*
X0230425Y0155141D03*
D150*
X0230765Y0154061D03*
X0224805Y0152141D03*
X0224805Y0152101D03*
X0224085Y0150701D03*
X0230445Y0143461D03*
X0230805Y0141221D03*
X0227245Y0139661D03*
X0227245Y0139621D03*
X0227205Y0139501D03*
D151*
X0227225Y0139541D03*
X0230745Y0141301D03*
X0230785Y0141261D03*
X0230425Y0151301D03*
X0230385Y0151341D03*
D152*
X0226245Y0147141D03*
X0232325Y0139661D03*
X0232325Y0139621D03*
D153*
X0226705Y0139781D03*
X0230665Y0154781D03*
D154*
X0225225Y0154381D03*
X0220545Y0151381D03*
X0227185Y0147381D03*
X0227545Y0143981D03*
X0230305Y0144581D03*
X0233625Y0145981D03*
X0229145Y0140781D03*
X0228985Y0140381D03*
X0228945Y0140181D03*
X0228785Y0139781D03*
D155*
X0226485Y0139901D03*
X0229165Y0145421D03*
X0229205Y0145541D03*
X0221245Y0143221D03*
X0221205Y0143141D03*
D156*
X0226345Y0139981D03*
D157*
X0226365Y0140021D03*
X0226365Y0140061D03*
X0223205Y0141861D03*
X0221445Y0144141D03*
X0225325Y0146101D03*
X0230605Y0144301D03*
X0235165Y0147301D03*
X0235165Y0147341D03*
X0222365Y0153501D03*
D158*
X0220625Y0151501D03*
X0223505Y0149421D03*
X0227665Y0147821D03*
X0227065Y0146021D03*
X0224065Y0142541D03*
X0223825Y0142141D03*
X0223025Y0143341D03*
X0232425Y0141941D03*
X0232065Y0140141D03*
X0236025Y0144501D03*
X0236145Y0145661D03*
X0235905Y0145821D03*
X0235825Y0145901D03*
X0234545Y0147661D03*
X0235905Y0148141D03*
X0235905Y0148221D03*
X0236025Y0149621D03*
X0236705Y0150221D03*
D159*
X0226085Y0140181D03*
D160*
X0232045Y0140181D03*
D161*
X0231985Y0140221D03*
X0230385Y0144541D03*
X0227265Y0143261D03*
X0226465Y0144861D03*
X0226265Y0145061D03*
X0227105Y0145661D03*
X0227105Y0145741D03*
X0227105Y0145821D03*
X0225505Y0146941D03*
X0225465Y0146901D03*
X0223545Y0149461D03*
X0220665Y0151701D03*
X0221425Y0145341D03*
X0220985Y0143541D03*
X0221145Y0142341D03*
X0223785Y0143941D03*
X0223825Y0143901D03*
X0223905Y0143741D03*
X0223945Y0143701D03*
X0223985Y0143661D03*
X0224025Y0143621D03*
X0233705Y0146021D03*
X0235705Y0147701D03*
X0235745Y0147741D03*
X0236065Y0149661D03*
D162*
X0236065Y0149701D03*
X0235185Y0149541D03*
X0234225Y0149461D03*
X0234985Y0150701D03*
X0235985Y0148341D03*
X0235985Y0148261D03*
X0235625Y0147661D03*
X0230465Y0144501D03*
X0232265Y0142061D03*
X0231985Y0140261D03*
X0226225Y0145101D03*
X0226225Y0145141D03*
X0225705Y0145501D03*
X0225465Y0146861D03*
X0223185Y0144661D03*
X0221345Y0145061D03*
X0221345Y0145101D03*
X0221345Y0145141D03*
X0221345Y0145221D03*
X0221305Y0145021D03*
X0221305Y0144941D03*
X0221305Y0144901D03*
X0221305Y0144861D03*
X0221265Y0144821D03*
X0221265Y0144741D03*
X0221265Y0144661D03*
X0221225Y0144621D03*
X0221225Y0144541D03*
X0221225Y0144461D03*
X0221185Y0144421D03*
X0221185Y0144341D03*
X0221065Y0143901D03*
X0221065Y0143821D03*
X0221025Y0143741D03*
X0221025Y0143701D03*
X0220985Y0143501D03*
X0222465Y0142341D03*
X0222465Y0142261D03*
X0224185Y0142861D03*
X0220745Y0151821D03*
X0220785Y0151861D03*
X0222905Y0154141D03*
X0230465Y0155061D03*
D163*
X0235965Y0148421D03*
X0227565Y0147701D03*
X0222485Y0142421D03*
X0221165Y0142421D03*
X0231925Y0140301D03*
X0220885Y0152021D03*
D164*
X0233485Y0145741D03*
X0233485Y0145661D03*
X0236285Y0145141D03*
X0230885Y0140341D03*
X0235285Y0150861D03*
X0235285Y0150901D03*
D165*
X0233665Y0143181D03*
X0227105Y0140381D03*
X0225905Y0140381D03*
D166*
X0221305Y0142781D03*
X0229145Y0145381D03*
X0231545Y0140381D03*
D167*
X0231565Y0140421D03*
X0231565Y0140461D03*
X0231565Y0140501D03*
X0231605Y0140541D03*
X0223725Y0143301D03*
X0221285Y0142821D03*
X0221245Y0142861D03*
X0225125Y0153341D03*
D168*
X0227505Y0148181D03*
X0227025Y0146181D03*
X0226145Y0141381D03*
X0226105Y0141181D03*
X0225945Y0140781D03*
X0225905Y0140581D03*
X0223065Y0142781D03*
X0233505Y0145781D03*
X0234385Y0147781D03*
X0234345Y0148381D03*
X0235265Y0150781D03*
X0236865Y0150581D03*
X0236385Y0145381D03*
X0236105Y0144381D03*
X0235785Y0143581D03*
D169*
X0231585Y0140581D03*
D170*
X0231405Y0140741D03*
X0230685Y0143941D03*
X0223645Y0149821D03*
D171*
X0227565Y0144381D03*
X0231365Y0140781D03*
D172*
X0229205Y0140981D03*
X0236765Y0150981D03*
D173*
X0231165Y0140981D03*
D174*
X0230805Y0141021D03*
X0228365Y0142461D03*
X0230205Y0147741D03*
X0230565Y0151661D03*
X0230565Y0151701D03*
X0230765Y0153861D03*
X0224365Y0151141D03*
D175*
X0224765Y0151981D03*
X0230765Y0153981D03*
X0230565Y0141381D03*
X0230845Y0141181D03*
D176*
X0232765Y0141381D03*
X0233605Y0142181D03*
X0229645Y0144381D03*
X0229245Y0143981D03*
X0226885Y0143781D03*
X0226645Y0143981D03*
X0226525Y0146581D03*
X0226365Y0147981D03*
X0226845Y0148381D03*
X0227725Y0149181D03*
X0227925Y0149381D03*
X0228085Y0149581D03*
X0228325Y0149981D03*
X0228525Y0151581D03*
X0219885Y0149981D03*
X0219645Y0149581D03*
X0219125Y0148381D03*
X0219005Y0147181D03*
X0219445Y0145581D03*
D177*
X0222525Y0143861D03*
X0223085Y0141461D03*
X0223085Y0141421D03*
X0223565Y0149501D03*
X0221245Y0152461D03*
X0221445Y0152661D03*
X0235925Y0148541D03*
X0235805Y0144741D03*
D178*
X0230445Y0141421D03*
X0224445Y0151301D03*
X0224525Y0151421D03*
X0224525Y0151461D03*
X0224565Y0151541D03*
D179*
X0221785Y0152981D03*
X0229225Y0150181D03*
X0225625Y0145781D03*
X0223105Y0141581D03*
X0230545Y0144381D03*
X0235505Y0146781D03*
X0235865Y0148581D03*
X0230425Y0154981D03*
D180*
X0234565Y0148581D03*
X0235325Y0143181D03*
X0227485Y0141581D03*
X0226285Y0141781D03*
X0226205Y0141581D03*
X0220485Y0151181D03*
D181*
X0230345Y0147981D03*
X0230025Y0141581D03*
D182*
X0232625Y0141581D03*
X0233545Y0143381D03*
X0234345Y0148181D03*
X0227305Y0148581D03*
X0226745Y0148181D03*
X0227065Y0147781D03*
X0226225Y0147181D03*
X0227145Y0145381D03*
X0223545Y0149381D03*
X0220425Y0150981D03*
X0222105Y0142181D03*
D183*
X0229705Y0141661D03*
D184*
X0223165Y0141701D03*
X0235965Y0149061D03*
X0235965Y0149101D03*
X0236005Y0149221D03*
D185*
X0235165Y0147461D03*
X0233925Y0145421D03*
X0235725Y0144861D03*
X0230605Y0144341D03*
X0225565Y0145821D03*
X0225565Y0145861D03*
X0223165Y0144341D03*
X0223165Y0141741D03*
X0222085Y0153261D03*
D186*
X0230445Y0148341D03*
X0229605Y0141741D03*
D187*
X0229505Y0141781D03*
D188*
X0225385Y0146021D03*
X0223185Y0144301D03*
X0222385Y0143501D03*
X0223185Y0141821D03*
X0235385Y0146661D03*
X0235185Y0147421D03*
X0235185Y0147501D03*
D189*
X0230465Y0148541D03*
X0229305Y0141861D03*
D190*
X0229025Y0141901D03*
X0231305Y0150821D03*
D191*
X0230505Y0149261D03*
X0230505Y0149221D03*
X0228985Y0141941D03*
D192*
X0223845Y0142181D03*
X0223725Y0141981D03*
D193*
X0225825Y0145381D03*
X0232345Y0141981D03*
D194*
X0228865Y0142021D03*
X0230425Y0148621D03*
X0230465Y0148661D03*
X0230465Y0148741D03*
X0230625Y0149301D03*
D195*
X0227045Y0146101D03*
X0227125Y0145541D03*
X0224045Y0142461D03*
X0224005Y0142421D03*
X0223965Y0142341D03*
X0223925Y0142301D03*
X0223885Y0142221D03*
X0223805Y0142101D03*
X0223765Y0142061D03*
X0235845Y0145861D03*
X0236005Y0145741D03*
X0236285Y0145501D03*
D196*
X0228845Y0142061D03*
D197*
X0228705Y0142181D03*
D198*
X0232125Y0142181D03*
X0223125Y0144581D03*
X0221165Y0152381D03*
X0221365Y0152581D03*
D199*
X0230145Y0143341D03*
X0228585Y0142261D03*
D200*
X0228545Y0142301D03*
X0230305Y0143261D03*
X0230345Y0147941D03*
X0230665Y0150661D03*
D201*
X0228485Y0142341D03*
D202*
X0221165Y0142381D03*
D203*
X0222465Y0142381D03*
X0224145Y0142781D03*
X0224145Y0143581D03*
X0225665Y0145581D03*
X0226145Y0145181D03*
X0220865Y0151981D03*
X0235985Y0148381D03*
D204*
X0233585Y0145581D03*
X0223985Y0142381D03*
D205*
X0228465Y0142381D03*
X0230745Y0152381D03*
X0230785Y0152581D03*
X0230785Y0152781D03*
X0230825Y0152981D03*
D206*
X0231805Y0142381D03*
D207*
X0231665Y0142461D03*
X0230665Y0144101D03*
X0229105Y0145341D03*
X0229105Y0146141D03*
X0229065Y0146261D03*
X0235265Y0146941D03*
X0221305Y0143301D03*
X0221265Y0143261D03*
D208*
X0228265Y0142541D03*
X0230505Y0143501D03*
X0230705Y0143061D03*
X0228145Y0146821D03*
X0224065Y0150661D03*
X0224865Y0152261D03*
X0235145Y0151341D03*
D209*
X0235445Y0151381D03*
X0230645Y0143781D03*
X0221925Y0142581D03*
D210*
X0224045Y0142581D03*
X0227085Y0145781D03*
X0235805Y0147781D03*
D211*
X0228205Y0142581D03*
D212*
X0231525Y0142581D03*
X0225085Y0153181D03*
D213*
X0225025Y0152861D03*
X0227585Y0144541D03*
X0221945Y0142621D03*
D214*
X0228185Y0142621D03*
X0230545Y0143541D03*
X0230825Y0143021D03*
X0224905Y0152421D03*
X0224905Y0152461D03*
X0230745Y0154301D03*
D215*
X0225065Y0153101D03*
X0223665Y0149861D03*
X0228705Y0147061D03*
X0231465Y0142621D03*
D216*
X0228105Y0142661D03*
X0227625Y0144821D03*
X0223825Y0150221D03*
X0223865Y0150261D03*
X0230705Y0154461D03*
X0230745Y0154421D03*
D217*
X0230605Y0143661D03*
X0228085Y0142701D03*
D218*
X0231325Y0142701D03*
D219*
X0231165Y0142821D03*
X0230645Y0143741D03*
X0228005Y0142741D03*
D220*
X0230645Y0143821D03*
X0231285Y0142741D03*
D221*
X0231185Y0142781D03*
X0227985Y0142781D03*
D222*
X0233685Y0142781D03*
D223*
X0233685Y0142821D03*
X0221885Y0145541D03*
D224*
X0231085Y0142861D03*
X0230725Y0154501D03*
D225*
X0236605Y0151141D03*
X0236645Y0151101D03*
X0235925Y0148101D03*
X0235925Y0148061D03*
X0227045Y0146061D03*
X0224285Y0142901D03*
D226*
X0227825Y0142901D03*
X0228745Y0146701D03*
X0228945Y0147301D03*
X0234585Y0146301D03*
D227*
X0234145Y0145301D03*
X0230665Y0144141D03*
X0229105Y0145301D03*
X0227625Y0143021D03*
X0225225Y0146301D03*
X0223625Y0149661D03*
X0225105Y0153301D03*
X0230625Y0154901D03*
X0235705Y0148941D03*
X0235665Y0148901D03*
X0221225Y0143101D03*
X0221225Y0143021D03*
X0221225Y0142941D03*
D228*
X0221205Y0142981D03*
D229*
X0230545Y0143581D03*
X0230905Y0142981D03*
D230*
X0233685Y0142981D03*
X0226925Y0147981D03*
D231*
X0221245Y0143181D03*
D232*
X0223125Y0143181D03*
X0227645Y0147981D03*
X0236845Y0150781D03*
D233*
X0227345Y0143181D03*
X0222545Y0143781D03*
D234*
X0230465Y0143181D03*
X0230265Y0147781D03*
D235*
X0230385Y0143221D03*
X0230825Y0153421D03*
X0230785Y0153461D03*
D236*
X0230225Y0143301D03*
D237*
X0221905Y0143381D03*
X0230705Y0154581D03*
D238*
X0225465Y0146781D03*
X0224105Y0143381D03*
D239*
X0229225Y0147581D03*
X0230065Y0143381D03*
D240*
X0230625Y0143701D03*
X0227625Y0144621D03*
X0221945Y0143421D03*
X0223785Y0150061D03*
X0225025Y0152821D03*
D241*
X0220725Y0151741D03*
X0221405Y0145301D03*
X0221205Y0144501D03*
X0221045Y0143861D03*
X0221005Y0143661D03*
X0221005Y0143621D03*
X0220965Y0143461D03*
X0223205Y0144701D03*
D242*
X0224165Y0143541D03*
X0224165Y0143501D03*
X0224165Y0143461D03*
X0236005Y0148301D03*
D243*
X0221385Y0145181D03*
X0221265Y0144781D03*
X0221225Y0144581D03*
X0221185Y0144381D03*
X0221025Y0143781D03*
X0220985Y0143581D03*
D244*
X0222505Y0143621D03*
X0225665Y0145661D03*
X0225465Y0146741D03*
X0221065Y0152261D03*
X0221105Y0152301D03*
X0221305Y0152501D03*
X0230465Y0155021D03*
X0236065Y0149741D03*
D245*
X0236045Y0151541D03*
X0235845Y0144701D03*
X0222525Y0143701D03*
X0220965Y0152141D03*
D246*
X0220665Y0151581D03*
X0227065Y0145981D03*
X0226305Y0144981D03*
X0223905Y0143781D03*
X0235905Y0147981D03*
D247*
X0230685Y0143901D03*
D248*
X0222385Y0143981D03*
X0224825Y0152181D03*
D249*
X0225345Y0146381D03*
X0228745Y0146581D03*
X0228825Y0146381D03*
X0229145Y0145781D03*
X0230705Y0143981D03*
D250*
X0224005Y0150541D03*
X0224845Y0152301D03*
X0230765Y0154221D03*
X0222365Y0144061D03*
D251*
X0230685Y0144061D03*
D252*
X0235165Y0147181D03*
X0223205Y0144181D03*
D253*
X0227545Y0144181D03*
X0230665Y0144181D03*
X0235225Y0146981D03*
D254*
X0235465Y0146821D03*
X0235705Y0144901D03*
X0236065Y0149901D03*
X0229225Y0149621D03*
X0225425Y0146621D03*
X0225345Y0146061D03*
X0225465Y0145941D03*
X0225505Y0145901D03*
X0221425Y0144221D03*
X0222425Y0153541D03*
X0222505Y0153621D03*
D255*
X0223605Y0149741D03*
X0227525Y0144221D03*
D256*
X0230645Y0144221D03*
X0236085Y0150061D03*
D257*
X0227565Y0144421D03*
D258*
X0225645Y0145741D03*
X0225445Y0146701D03*
X0223125Y0144501D03*
X0221405Y0152621D03*
X0221525Y0152741D03*
X0221605Y0152821D03*
X0233965Y0146101D03*
D259*
X0227605Y0144581D03*
D260*
X0233185Y0144581D03*
D261*
X0228345Y0146981D03*
X0227665Y0144781D03*
D262*
X0221325Y0144981D03*
X0220725Y0151781D03*
D263*
X0225285Y0146181D03*
X0228685Y0144981D03*
D264*
X0229845Y0144981D03*
D265*
X0234785Y0144981D03*
D266*
X0234785Y0145021D03*
X0234825Y0145061D03*
X0234825Y0145101D03*
X0230025Y0147621D03*
X0229345Y0147501D03*
D267*
X0234385Y0145181D03*
D268*
X0229165Y0145661D03*
X0228965Y0145261D03*
D269*
X0227105Y0145621D03*
X0227105Y0145701D03*
X0225905Y0145301D03*
X0225865Y0145341D03*
X0235865Y0147861D03*
X0235865Y0147901D03*
X0235905Y0147941D03*
X0235905Y0148021D03*
D270*
X0235905Y0148181D03*
X0236665Y0150181D03*
X0235745Y0145981D03*
X0236225Y0145581D03*
X0227705Y0147781D03*
X0227105Y0145581D03*
X0225505Y0146981D03*
X0221545Y0145381D03*
D271*
X0225145Y0153381D03*
X0236065Y0149981D03*
X0234025Y0145381D03*
D272*
X0233785Y0145501D03*
X0227585Y0147621D03*
D273*
X0225685Y0145541D03*
D274*
X0226005Y0147461D03*
X0227005Y0147861D03*
X0235005Y0145861D03*
D275*
X0225465Y0145981D03*
X0222705Y0153781D03*
D276*
X0229105Y0145981D03*
X0234625Y0146381D03*
D277*
X0234625Y0146181D03*
D278*
X0234585Y0146341D03*
X0228785Y0146461D03*
X0228785Y0146621D03*
D279*
X0225365Y0146501D03*
D280*
X0225365Y0146541D03*
X0235165Y0147021D03*
D281*
X0235265Y0146581D03*
X0235745Y0148981D03*
D282*
X0228185Y0146781D03*
D283*
X0228685Y0147141D03*
D284*
X0228685Y0147181D03*
D285*
X0235145Y0147381D03*
D286*
X0229265Y0147461D03*
X0223905Y0150341D03*
D287*
X0223585Y0149581D03*
X0235185Y0147581D03*
D288*
X0230265Y0147821D03*
X0230665Y0152061D03*
X0230705Y0152101D03*
D289*
X0230685Y0152141D03*
X0230725Y0152221D03*
X0230725Y0152261D03*
X0230725Y0152301D03*
X0230765Y0152501D03*
X0230805Y0152741D03*
X0230805Y0153101D03*
X0230805Y0153141D03*
X0230805Y0153221D03*
X0230805Y0153261D03*
X0230805Y0153301D03*
X0230805Y0153341D03*
X0230285Y0147861D03*
D290*
X0230365Y0148061D03*
D291*
X0230385Y0148101D03*
D292*
X0230425Y0148181D03*
D293*
X0230465Y0148381D03*
D294*
X0230425Y0148581D03*
D295*
X0230465Y0148701D03*
D296*
X0230465Y0148781D03*
D297*
X0230485Y0148861D03*
X0230485Y0148901D03*
X0230485Y0148941D03*
D298*
X0230485Y0148981D03*
D299*
X0230505Y0149021D03*
X0230505Y0149061D03*
X0230505Y0149101D03*
X0230745Y0149341D03*
X0231105Y0149701D03*
D300*
X0230485Y0149141D03*
D301*
X0230505Y0149181D03*
D302*
X0236005Y0149181D03*
D303*
X0230985Y0149381D03*
D304*
X0236045Y0149381D03*
D305*
X0231345Y0149421D03*
D306*
X0230825Y0149581D03*
D307*
X0235665Y0149581D03*
D308*
X0232525Y0150101D03*
X0230925Y0149661D03*
D309*
X0231505Y0149781D03*
D310*
X0231665Y0149821D03*
X0231705Y0150501D03*
D311*
X0231685Y0149861D03*
D312*
X0231705Y0149901D03*
D313*
X0231725Y0149941D03*
D314*
X0231745Y0149981D03*
D315*
X0225045Y0152901D03*
X0223725Y0150021D03*
D316*
X0231745Y0150021D03*
D317*
X0231745Y0150061D03*
X0231745Y0150141D03*
D318*
X0223805Y0150141D03*
D319*
X0223825Y0150181D03*
D320*
X0232905Y0150181D03*
D321*
X0232085Y0150221D03*
D322*
X0232105Y0150261D03*
D323*
X0223885Y0150301D03*
D324*
X0232045Y0150301D03*
D325*
X0232065Y0150341D03*
X0232025Y0150461D03*
X0232105Y0150941D03*
D326*
X0223925Y0150381D03*
D327*
X0232025Y0150381D03*
D328*
X0232005Y0150421D03*
X0232005Y0150541D03*
D329*
X0230765Y0154261D03*
X0224005Y0150501D03*
X0223965Y0150461D03*
D330*
X0224045Y0150581D03*
X0230765Y0154181D03*
D331*
X0224105Y0150741D03*
X0224065Y0150621D03*
D332*
X0230685Y0150621D03*
X0230685Y0150701D03*
D333*
X0224125Y0150781D03*
D334*
X0231125Y0150781D03*
D335*
X0231545Y0150861D03*
D336*
X0230545Y0151581D03*
X0224265Y0150981D03*
D337*
X0232085Y0150981D03*
D338*
X0224725Y0151861D03*
X0224725Y0151901D03*
X0224685Y0151821D03*
X0224325Y0151061D03*
X0224285Y0151021D03*
D339*
X0232125Y0151021D03*
X0232125Y0151061D03*
D340*
X0232185Y0151101D03*
D341*
X0232245Y0151141D03*
D342*
X0232785Y0151181D03*
D343*
X0232785Y0151221D03*
D344*
X0232765Y0151261D03*
D345*
X0230545Y0151381D03*
X0230785Y0153781D03*
D346*
X0230485Y0151541D03*
D347*
X0235385Y0151581D03*
D348*
X0224685Y0151781D03*
D349*
X0230665Y0151981D03*
X0230705Y0152181D03*
D350*
X0221005Y0152181D03*
D351*
X0224845Y0152221D03*
X0230765Y0154101D03*
X0230765Y0154141D03*
D352*
X0224885Y0152341D03*
D353*
X0224865Y0152381D03*
D354*
X0225025Y0152781D03*
D355*
X0225065Y0152981D03*
D356*
X0230805Y0153181D03*
D357*
X0230785Y0153381D03*
D358*
X0230785Y0153581D03*
D359*
X0230785Y0153621D03*
X0230785Y0153661D03*
X0230785Y0153741D03*
D360*
X0223005Y0153981D03*
D361*
X0230705Y0154621D03*
M02*
