%
M48
M72
T01C0.01378
T02C0.01575
T03C0.03150
T04C0.03937
T05C0.06299
T06C0.11800
T07C0.12598
T08C0.14961
%
T01
X135394Y133190
X145236Y117442
X202323Y113505
X147205Y32796
T02
X198386Y72166
X208228Y56418
X237756Y76103
X241693Y91851
T03
X31063Y154765
X31063Y146891
X31063Y110552
X31063Y102678
X31063Y66261
X31063Y58387
X31063Y50513
X72402Y17048
X80276Y17048
X121693Y17048
X129567Y17048
X137441Y17048
X145315Y17048
X153189Y17048
T04
X86496Y234922
X86496Y224922
X86496Y214922
X86496Y204922
X86496Y194922
X86496Y184922
X86496Y174922
X86496Y164922
X86496Y154922
X86496Y144922
X86496Y134922
X86496Y124922
X86496Y114922
X86496Y104922
X86496Y94922
X86496Y84922
X86496Y74922
X86496Y64922
X86496Y54922
X86496Y44922
X176496Y44922
X176496Y54922
X176496Y64922
X176496Y74922
X176496Y84922
X176496Y94922
X176496Y104922
X176496Y114922
X176496Y124922
X176496Y134922
X176496Y144922
X176496Y154922
X176496Y164922
X176496Y174922
X176496Y184922
X176496Y194922
X176496Y204922
X176496Y214922
X176496Y224922
X176496Y234922
X222539Y212658
X232539Y207658
X222539Y202658
X232539Y197658
X222539Y192658
X232539Y187658
X222539Y182658
X232539Y177658
X273268Y169095
X273268Y178938
X273268Y211221
X273268Y221064
X263346Y94922
X263346Y84922
X263346Y74922
X263346Y64922
X263346Y54922
X273346Y54922
X273346Y64922
X273346Y74922
X273346Y84922
X273346Y94922
T05
X245709Y225001
X245709Y165158
T06
X35315Y202993
X47126Y184489
X58937Y202993
T07
X257539Y217658
X257539Y172658
T08
X33031Y241457
X271220Y241457
X273189Y15080
X29094Y15080
M30
