%
M48
M72
T01C0.02559
T02C0.04000
T03C0.14950
%
T01
X166300Y150560
T02
X21300Y135560
X21300Y125560
X21300Y115560
X21300Y105560
X21300Y95560
X21300Y85560
X21300Y75560
X21300Y65560
X21300Y55560
X21300Y45560
X21300Y35560
X21300Y25560
X81300Y25560
X81300Y35560
X81300Y45560
X81300Y55560
X81300Y65560
X81300Y75560
X81300Y85560
X81300Y95560
X81300Y105560
X81300Y115560
X81300Y125560
X81300Y135560
X115300Y129060
X125300Y129060
X135300Y129060
X135300Y113560
X125300Y113560
X115300Y113560
X115300Y98060
X125300Y98060
X135300Y98060
X145300Y98060
X166300Y95560
X176300Y95560
X186300Y95560
X186300Y105560
X176300Y105560
X166300Y105560
X166300Y85560
X176300Y85560
X186300Y85560
X186300Y60560
X176300Y60560
X166300Y60560
X166300Y50560
X176300Y50560
X186300Y50560
X186300Y40560
X176300Y40560
X166300Y40560
X166300Y20560
X176300Y20560
X186300Y20560
X229800Y50560
X239800Y50560
X249800Y50560
X249800Y60560
X239800Y60560
X229800Y60560
X229800Y70560
X239800Y70560
X249800Y70560
X136300Y20560
X126300Y20560
X116300Y20560
X116300Y35560
X126300Y35560
X136300Y35560
X136300Y50560
X126300Y50560
X116300Y50560
X115800Y65560
X125800Y65560
X125800Y83060
X115800Y83060
X160800Y133560
X170800Y133560
X181300Y155560
X191300Y155560
X201300Y155560
X211300Y155560
X221300Y155560
X231300Y155560
X241300Y155560
X241300Y131060
X231300Y131060
X125300Y143560
X115300Y143560
T03
X16300Y163560
X51300Y23060
X254800Y16060
X256300Y164560
M30
