G04 EAGLE Gerber X2 export*
%TF.Part,Single*%
%TF.FileFunction,Copper,L2,Bot,Mixed*%
%TF.FilePolarity,Positive*%
%TF.GenerationSoftware,Autodesk,EAGLE,9.1.1*%
%TF.CreationDate,2018-08-07T16:54:33Z*%
G75*
%MOMM*%
%FSLAX34Y34*%
%LPD*%
%AMOC8*
5,1,8,0,0,1.08239X$1,22.5*%
G01*
%ADD10R,1.300000X1.500000*%
%ADD11C,1.879600*%
%ADD12C,2.400000*%
%ADD13C,1.508000*%
%ADD14C,4.318000*%
%ADD15P,1.632244X8X22.500000*%
%ADD16R,1.000000X1.100000*%
%ADD17C,1.158000*%
%ADD18C,0.304800*%
%ADD19C,0.704800*%
%ADD20C,0.654800*%

G36*
X533420Y11942D02*
X533420Y11942D01*
X533439Y11940D01*
X533541Y11962D01*
X533643Y11979D01*
X533660Y11988D01*
X533680Y11992D01*
X533769Y12045D01*
X533860Y12094D01*
X533874Y12108D01*
X533891Y12118D01*
X533958Y12197D01*
X534030Y12272D01*
X534038Y12290D01*
X534051Y12305D01*
X534090Y12401D01*
X534133Y12495D01*
X534135Y12515D01*
X534143Y12533D01*
X534161Y12700D01*
X534161Y304039D01*
X685800Y304039D01*
X685820Y304042D01*
X685839Y304040D01*
X685941Y304062D01*
X686043Y304079D01*
X686060Y304088D01*
X686080Y304092D01*
X686169Y304145D01*
X686260Y304194D01*
X686274Y304208D01*
X686291Y304218D01*
X686358Y304297D01*
X686430Y304372D01*
X686438Y304390D01*
X686451Y304405D01*
X686490Y304501D01*
X686533Y304595D01*
X686535Y304615D01*
X686543Y304633D01*
X686561Y304800D01*
X686561Y425572D01*
X686550Y425643D01*
X686548Y425714D01*
X686530Y425763D01*
X686522Y425815D01*
X686488Y425878D01*
X686463Y425945D01*
X686431Y425986D01*
X686406Y426032D01*
X686355Y426081D01*
X686310Y426137D01*
X686266Y426166D01*
X686228Y426201D01*
X686163Y426232D01*
X686103Y426270D01*
X686052Y426283D01*
X686005Y426305D01*
X685934Y426313D01*
X685864Y426330D01*
X685812Y426326D01*
X685761Y426332D01*
X685690Y426317D01*
X685619Y426311D01*
X685571Y426291D01*
X685520Y426280D01*
X685459Y426243D01*
X685393Y426215D01*
X685337Y426170D01*
X685309Y426154D01*
X685294Y426136D01*
X685262Y426110D01*
X625772Y366620D01*
X623763Y364611D01*
X464078Y364611D01*
X463988Y364597D01*
X463897Y364589D01*
X463867Y364577D01*
X463835Y364572D01*
X463755Y364529D01*
X463671Y364493D01*
X463639Y364467D01*
X463618Y364456D01*
X463596Y364433D01*
X463540Y364388D01*
X436063Y336911D01*
X426778Y336911D01*
X426688Y336897D01*
X426597Y336889D01*
X426567Y336877D01*
X426535Y336872D01*
X426455Y336829D01*
X426371Y336793D01*
X426339Y336767D01*
X426318Y336756D01*
X426296Y336733D01*
X426240Y336688D01*
X418504Y328952D01*
X418492Y328936D01*
X418477Y328924D01*
X418421Y328836D01*
X418360Y328753D01*
X418354Y328734D01*
X418344Y328717D01*
X418318Y328616D01*
X418288Y328517D01*
X418288Y328497D01*
X418284Y328478D01*
X418292Y328375D01*
X418294Y328272D01*
X418301Y328253D01*
X418303Y328233D01*
X418343Y328138D01*
X418379Y328041D01*
X418391Y328025D01*
X418399Y328007D01*
X418465Y327924D01*
X418465Y320405D01*
X413155Y315095D01*
X405645Y315095D01*
X400335Y320405D01*
X400335Y327915D01*
X405645Y333225D01*
X413163Y333225D01*
X413232Y333180D01*
X413315Y333120D01*
X413334Y333114D01*
X413351Y333104D01*
X413452Y333078D01*
X413550Y333048D01*
X413570Y333048D01*
X413590Y333044D01*
X413693Y333052D01*
X413796Y333054D01*
X413815Y333061D01*
X413835Y333063D01*
X413930Y333103D01*
X414027Y333139D01*
X414043Y333151D01*
X414061Y333159D01*
X414192Y333264D01*
X421928Y341000D01*
X423937Y343009D01*
X433222Y343009D01*
X433312Y343023D01*
X433403Y343031D01*
X433433Y343043D01*
X433465Y343048D01*
X433545Y343091D01*
X433629Y343127D01*
X433661Y343153D01*
X433682Y343164D01*
X433704Y343187D01*
X433760Y343232D01*
X435740Y345212D01*
X435782Y345270D01*
X435831Y345322D01*
X435853Y345369D01*
X435884Y345411D01*
X435905Y345480D01*
X435935Y345545D01*
X435941Y345597D01*
X435956Y345647D01*
X435954Y345718D01*
X435962Y345789D01*
X435951Y345840D01*
X435950Y345892D01*
X435925Y345960D01*
X435910Y346030D01*
X435883Y346075D01*
X435865Y346123D01*
X435820Y346179D01*
X435784Y346241D01*
X435744Y346275D01*
X435712Y346315D01*
X435651Y346354D01*
X435597Y346401D01*
X435548Y346420D01*
X435505Y346448D01*
X435435Y346466D01*
X435369Y346493D01*
X435297Y346501D01*
X435266Y346509D01*
X435243Y346507D01*
X435202Y346511D01*
X419226Y346511D01*
X419206Y346508D01*
X419187Y346510D01*
X419085Y346488D01*
X418983Y346472D01*
X418966Y346462D01*
X418946Y346458D01*
X418857Y346405D01*
X418766Y346356D01*
X418752Y346342D01*
X418735Y346332D01*
X418668Y346253D01*
X418596Y346178D01*
X418588Y346160D01*
X418575Y346145D01*
X418536Y346049D01*
X418493Y345955D01*
X418491Y345935D01*
X418483Y345917D01*
X418472Y345812D01*
X413155Y340495D01*
X405645Y340495D01*
X400335Y345805D01*
X400335Y353315D01*
X405645Y358625D01*
X413155Y358625D01*
X418470Y353309D01*
X418488Y353229D01*
X418504Y353127D01*
X418514Y353110D01*
X418518Y353090D01*
X418571Y353001D01*
X418620Y352910D01*
X418634Y352896D01*
X418644Y352879D01*
X418723Y352812D01*
X418798Y352740D01*
X418816Y352732D01*
X418831Y352719D01*
X418927Y352680D01*
X419021Y352637D01*
X419041Y352635D01*
X419059Y352627D01*
X419226Y352609D01*
X432822Y352609D01*
X432912Y352623D01*
X433003Y352631D01*
X433033Y352643D01*
X433065Y352648D01*
X433145Y352691D01*
X433229Y352727D01*
X433261Y352753D01*
X433282Y352764D01*
X433304Y352787D01*
X433360Y352832D01*
X458737Y378209D01*
X618422Y378209D01*
X618512Y378223D01*
X618603Y378231D01*
X618633Y378243D01*
X618665Y378248D01*
X618745Y378291D01*
X618829Y378327D01*
X618861Y378353D01*
X618882Y378364D01*
X618904Y378387D01*
X618960Y378432D01*
X671728Y431200D01*
X671781Y431274D01*
X671841Y431343D01*
X671853Y431373D01*
X671872Y431400D01*
X671899Y431487D01*
X671933Y431571D01*
X671937Y431612D01*
X671944Y431635D01*
X671943Y431667D01*
X671951Y431738D01*
X671951Y468582D01*
X671937Y468672D01*
X671929Y468763D01*
X671917Y468793D01*
X671912Y468825D01*
X671869Y468905D01*
X671833Y468989D01*
X671807Y469021D01*
X671796Y469042D01*
X671773Y469064D01*
X671728Y469120D01*
X658960Y481888D01*
X658886Y481941D01*
X658817Y482001D01*
X658787Y482013D01*
X658760Y482032D01*
X658673Y482059D01*
X658589Y482093D01*
X658548Y482097D01*
X658525Y482104D01*
X658493Y482103D01*
X658422Y482111D01*
X650786Y482111D01*
X650766Y482108D01*
X650747Y482110D01*
X650645Y482088D01*
X650543Y482072D01*
X650526Y482062D01*
X650506Y482058D01*
X650417Y482005D01*
X650326Y481956D01*
X650312Y481942D01*
X650295Y481932D01*
X650228Y481853D01*
X650156Y481778D01*
X650148Y481760D01*
X650135Y481745D01*
X650096Y481649D01*
X650053Y481555D01*
X650051Y481535D01*
X650043Y481517D01*
X650025Y481350D01*
X650025Y479028D01*
X649132Y478135D01*
X637868Y478135D01*
X636975Y479028D01*
X636975Y491292D01*
X637868Y492185D01*
X649132Y492185D01*
X650025Y491292D01*
X650025Y488970D01*
X650028Y488950D01*
X650026Y488931D01*
X650048Y488829D01*
X650064Y488727D01*
X650074Y488710D01*
X650078Y488690D01*
X650131Y488601D01*
X650180Y488510D01*
X650194Y488496D01*
X650204Y488479D01*
X650283Y488412D01*
X650358Y488340D01*
X650376Y488332D01*
X650391Y488319D01*
X650487Y488280D01*
X650581Y488237D01*
X650601Y488235D01*
X650619Y488227D01*
X650786Y488209D01*
X661263Y488209D01*
X678049Y471423D01*
X678049Y429358D01*
X678060Y429287D01*
X678062Y429216D01*
X678080Y429167D01*
X678088Y429115D01*
X678122Y429052D01*
X678147Y428985D01*
X678179Y428944D01*
X678204Y428898D01*
X678256Y428849D01*
X678300Y428793D01*
X678344Y428764D01*
X678382Y428729D01*
X678447Y428698D01*
X678507Y428660D01*
X678558Y428647D01*
X678605Y428625D01*
X678676Y428617D01*
X678746Y428600D01*
X678798Y428604D01*
X678849Y428598D01*
X678920Y428613D01*
X678991Y428619D01*
X679039Y428639D01*
X679090Y428650D01*
X679151Y428687D01*
X679217Y428715D01*
X679273Y428760D01*
X679301Y428776D01*
X679316Y428794D01*
X679348Y428820D01*
X681728Y431200D01*
X681781Y431274D01*
X681841Y431343D01*
X681853Y431373D01*
X681872Y431400D01*
X681899Y431487D01*
X681933Y431571D01*
X681937Y431612D01*
X681944Y431635D01*
X681943Y431667D01*
X681951Y431738D01*
X681951Y508582D01*
X681937Y508672D01*
X681929Y508763D01*
X681917Y508793D01*
X681912Y508825D01*
X681869Y508905D01*
X681833Y508989D01*
X681807Y509021D01*
X681796Y509042D01*
X681773Y509064D01*
X681728Y509120D01*
X678960Y511888D01*
X678886Y511941D01*
X678817Y512001D01*
X678787Y512013D01*
X678760Y512032D01*
X678673Y512059D01*
X678589Y512093D01*
X678548Y512097D01*
X678525Y512104D01*
X678493Y512103D01*
X678422Y512111D01*
X650786Y512111D01*
X650766Y512108D01*
X650747Y512110D01*
X650645Y512088D01*
X650543Y512072D01*
X650526Y512062D01*
X650506Y512058D01*
X650417Y512005D01*
X650326Y511956D01*
X650312Y511942D01*
X650295Y511932D01*
X650228Y511853D01*
X650156Y511778D01*
X650148Y511760D01*
X650135Y511745D01*
X650096Y511649D01*
X650053Y511555D01*
X650051Y511535D01*
X650043Y511517D01*
X650025Y511350D01*
X650025Y509028D01*
X649132Y508135D01*
X637868Y508135D01*
X636975Y509028D01*
X636975Y521292D01*
X637868Y522185D01*
X649132Y522185D01*
X650025Y521292D01*
X650025Y518970D01*
X650028Y518950D01*
X650026Y518931D01*
X650048Y518829D01*
X650064Y518727D01*
X650074Y518710D01*
X650078Y518690D01*
X650131Y518601D01*
X650180Y518510D01*
X650194Y518496D01*
X650204Y518479D01*
X650283Y518412D01*
X650358Y518340D01*
X650376Y518332D01*
X650391Y518319D01*
X650487Y518280D01*
X650581Y518237D01*
X650601Y518235D01*
X650619Y518227D01*
X650786Y518209D01*
X681263Y518209D01*
X685262Y514210D01*
X685320Y514168D01*
X685372Y514119D01*
X685419Y514097D01*
X685461Y514066D01*
X685530Y514045D01*
X685595Y514015D01*
X685647Y514009D01*
X685697Y513994D01*
X685768Y513996D01*
X685839Y513988D01*
X685890Y513999D01*
X685942Y514000D01*
X686010Y514025D01*
X686080Y514040D01*
X686124Y514067D01*
X686173Y514085D01*
X686229Y514130D01*
X686291Y514166D01*
X686325Y514206D01*
X686365Y514238D01*
X686404Y514299D01*
X686451Y514353D01*
X686470Y514402D01*
X686498Y514445D01*
X686516Y514515D01*
X686543Y514581D01*
X686551Y514653D01*
X686559Y514684D01*
X686557Y514707D01*
X686561Y514748D01*
X686561Y647700D01*
X686558Y647720D01*
X686560Y647739D01*
X686538Y647841D01*
X686522Y647943D01*
X686512Y647960D01*
X686508Y647980D01*
X686455Y648069D01*
X686406Y648160D01*
X686392Y648174D01*
X686382Y648191D01*
X686303Y648258D01*
X686228Y648330D01*
X686210Y648338D01*
X686195Y648351D01*
X686099Y648390D01*
X686005Y648433D01*
X685985Y648435D01*
X685967Y648443D01*
X685800Y648461D01*
X12700Y648461D01*
X12680Y648458D01*
X12661Y648460D01*
X12559Y648438D01*
X12457Y648422D01*
X12440Y648412D01*
X12420Y648408D01*
X12331Y648355D01*
X12240Y648306D01*
X12226Y648292D01*
X12209Y648282D01*
X12142Y648203D01*
X12071Y648128D01*
X12062Y648110D01*
X12049Y648095D01*
X12010Y647999D01*
X11967Y647905D01*
X11965Y647885D01*
X11957Y647867D01*
X11939Y647700D01*
X11939Y12700D01*
X11942Y12680D01*
X11940Y12661D01*
X11962Y12559D01*
X11979Y12457D01*
X11988Y12440D01*
X11992Y12420D01*
X12045Y12331D01*
X12094Y12240D01*
X12108Y12226D01*
X12118Y12209D01*
X12197Y12142D01*
X12272Y12071D01*
X12290Y12062D01*
X12305Y12049D01*
X12401Y12010D01*
X12495Y11967D01*
X12515Y11965D01*
X12533Y11957D01*
X12700Y11939D01*
X533400Y11939D01*
X533420Y11942D01*
G37*
G36*
X685820Y11942D02*
X685820Y11942D01*
X685839Y11940D01*
X685941Y11962D01*
X686043Y11979D01*
X686060Y11988D01*
X686080Y11992D01*
X686169Y12045D01*
X686260Y12094D01*
X686274Y12108D01*
X686291Y12118D01*
X686358Y12197D01*
X686430Y12272D01*
X686438Y12290D01*
X686451Y12305D01*
X686490Y12401D01*
X686533Y12495D01*
X686535Y12515D01*
X686543Y12533D01*
X686561Y12700D01*
X686561Y299720D01*
X686560Y299728D01*
X686560Y299731D01*
X686558Y299740D01*
X686560Y299759D01*
X686538Y299861D01*
X686522Y299963D01*
X686512Y299980D01*
X686508Y300000D01*
X686455Y300089D01*
X686406Y300180D01*
X686392Y300194D01*
X686382Y300211D01*
X686303Y300278D01*
X686228Y300350D01*
X686210Y300358D01*
X686195Y300371D01*
X686099Y300410D01*
X686005Y300453D01*
X685985Y300455D01*
X685967Y300463D01*
X685800Y300481D01*
X541020Y300481D01*
X541000Y300478D01*
X540981Y300480D01*
X540879Y300458D01*
X540777Y300442D01*
X540760Y300432D01*
X540740Y300428D01*
X540651Y300375D01*
X540560Y300326D01*
X540546Y300312D01*
X540529Y300302D01*
X540462Y300223D01*
X540391Y300148D01*
X540382Y300130D01*
X540369Y300115D01*
X540330Y300019D01*
X540287Y299925D01*
X540285Y299905D01*
X540277Y299887D01*
X540259Y299720D01*
X540259Y12700D01*
X540262Y12680D01*
X540260Y12661D01*
X540282Y12559D01*
X540299Y12457D01*
X540308Y12440D01*
X540312Y12420D01*
X540365Y12331D01*
X540414Y12240D01*
X540428Y12226D01*
X540438Y12209D01*
X540517Y12142D01*
X540592Y12071D01*
X540610Y12062D01*
X540625Y12049D01*
X540721Y12010D01*
X540815Y11967D01*
X540835Y11965D01*
X540853Y11957D01*
X541020Y11939D01*
X685800Y11939D01*
X685820Y11942D01*
G37*
%LPC*%
G36*
X323545Y22845D02*
X323545Y22845D01*
X320857Y23959D01*
X318799Y26017D01*
X317685Y28705D01*
X317685Y31615D01*
X318799Y34303D01*
X320857Y36361D01*
X321481Y36620D01*
X321581Y36682D01*
X321681Y36741D01*
X321685Y36746D01*
X321690Y36749D01*
X321765Y36839D01*
X321841Y36928D01*
X321843Y36934D01*
X321847Y36939D01*
X321889Y37048D01*
X321933Y37156D01*
X321934Y37164D01*
X321935Y37169D01*
X321936Y37187D01*
X321951Y37323D01*
X321951Y39182D01*
X321937Y39272D01*
X321929Y39363D01*
X321917Y39393D01*
X321912Y39425D01*
X321869Y39505D01*
X321833Y39589D01*
X321807Y39621D01*
X321796Y39642D01*
X321773Y39664D01*
X321728Y39720D01*
X290401Y71047D01*
X290401Y340132D01*
X290387Y340222D01*
X290379Y340313D01*
X290367Y340343D01*
X290362Y340375D01*
X290319Y340455D01*
X290283Y340539D01*
X290257Y340571D01*
X290246Y340592D01*
X290223Y340614D01*
X290178Y340670D01*
X226951Y403897D01*
X226951Y493582D01*
X226937Y493672D01*
X226929Y493763D01*
X226917Y493793D01*
X226912Y493825D01*
X226869Y493905D01*
X226833Y493989D01*
X226807Y494021D01*
X226796Y494042D01*
X226773Y494064D01*
X226728Y494120D01*
X208960Y511888D01*
X208886Y511941D01*
X208817Y512001D01*
X208787Y512013D01*
X208760Y512032D01*
X208673Y512059D01*
X208589Y512093D01*
X208548Y512097D01*
X208525Y512104D01*
X208493Y512103D01*
X208422Y512111D01*
X185306Y512111D01*
X185235Y512100D01*
X185164Y512098D01*
X185115Y512080D01*
X185063Y512072D01*
X185000Y512038D01*
X184933Y512013D01*
X184892Y511981D01*
X184846Y511956D01*
X184797Y511904D01*
X184741Y511860D01*
X184712Y511816D01*
X184676Y511778D01*
X184646Y511713D01*
X184608Y511653D01*
X184595Y511602D01*
X184573Y511555D01*
X184565Y511484D01*
X184547Y511414D01*
X184552Y511362D01*
X184546Y511311D01*
X184561Y511240D01*
X184567Y511169D01*
X184587Y511121D01*
X184598Y511070D01*
X184635Y511009D01*
X184663Y510943D01*
X184708Y510887D01*
X184724Y510859D01*
X184742Y510844D01*
X184768Y510812D01*
X189865Y505715D01*
X189865Y498205D01*
X184555Y492895D01*
X177045Y492895D01*
X171735Y498205D01*
X171735Y505715D01*
X176832Y510812D01*
X176874Y510870D01*
X176924Y510922D01*
X176945Y510969D01*
X176976Y511011D01*
X176997Y511080D01*
X177027Y511145D01*
X177033Y511197D01*
X177048Y511247D01*
X177046Y511318D01*
X177054Y511389D01*
X177043Y511440D01*
X177042Y511492D01*
X177017Y511560D01*
X177002Y511630D01*
X176975Y511675D01*
X176957Y511723D01*
X176913Y511779D01*
X176876Y511841D01*
X176836Y511875D01*
X176804Y511915D01*
X176743Y511954D01*
X176689Y512001D01*
X176641Y512020D01*
X176597Y512048D01*
X176527Y512066D01*
X176461Y512093D01*
X176389Y512101D01*
X176358Y512109D01*
X176335Y512107D01*
X176294Y512111D01*
X168737Y512111D01*
X161660Y519188D01*
X161586Y519241D01*
X161517Y519301D01*
X161487Y519313D01*
X161460Y519332D01*
X161373Y519359D01*
X161289Y519393D01*
X161248Y519397D01*
X161225Y519404D01*
X161193Y519403D01*
X161122Y519411D01*
X134676Y519411D01*
X134656Y519408D01*
X134637Y519410D01*
X134535Y519388D01*
X134433Y519372D01*
X134416Y519362D01*
X134396Y519358D01*
X134307Y519305D01*
X134216Y519256D01*
X134202Y519242D01*
X134185Y519232D01*
X134118Y519153D01*
X134046Y519078D01*
X134038Y519060D01*
X134025Y519045D01*
X133986Y518949D01*
X133943Y518855D01*
X133941Y518835D01*
X133933Y518817D01*
X133915Y518650D01*
X133915Y517862D01*
X130396Y509367D01*
X123893Y502864D01*
X115398Y499345D01*
X106202Y499345D01*
X97707Y502864D01*
X91204Y509367D01*
X87685Y517862D01*
X87685Y527058D01*
X91204Y535553D01*
X97707Y542056D01*
X106202Y545575D01*
X115398Y545575D01*
X123893Y542056D01*
X130396Y535553D01*
X133915Y527058D01*
X133915Y526270D01*
X133918Y526250D01*
X133916Y526231D01*
X133938Y526129D01*
X133954Y526027D01*
X133964Y526010D01*
X133968Y525990D01*
X134021Y525901D01*
X134070Y525810D01*
X134084Y525796D01*
X134094Y525779D01*
X134173Y525712D01*
X134248Y525640D01*
X134266Y525632D01*
X134281Y525619D01*
X134377Y525580D01*
X134471Y525537D01*
X134491Y525535D01*
X134509Y525527D01*
X134676Y525509D01*
X158890Y525509D01*
X158910Y525512D01*
X158929Y525510D01*
X159031Y525532D01*
X159133Y525548D01*
X159150Y525558D01*
X159170Y525562D01*
X159259Y525615D01*
X159350Y525664D01*
X159364Y525678D01*
X159381Y525688D01*
X159448Y525767D01*
X159520Y525842D01*
X159528Y525860D01*
X159541Y525875D01*
X159580Y525971D01*
X159623Y526065D01*
X159625Y526085D01*
X159633Y526103D01*
X159651Y526270D01*
X159651Y575623D01*
X165237Y581209D01*
X170974Y581209D01*
X170994Y581212D01*
X171013Y581210D01*
X171115Y581232D01*
X171217Y581248D01*
X171234Y581258D01*
X171254Y581262D01*
X171343Y581315D01*
X171434Y581364D01*
X171448Y581378D01*
X171465Y581388D01*
X171532Y581467D01*
X171604Y581542D01*
X171612Y581560D01*
X171625Y581575D01*
X171664Y581671D01*
X171707Y581765D01*
X171709Y581785D01*
X171717Y581803D01*
X171728Y581908D01*
X177045Y587225D01*
X184555Y587225D01*
X189865Y581915D01*
X189865Y574405D01*
X184555Y569095D01*
X177045Y569095D01*
X171730Y574411D01*
X171712Y574491D01*
X171696Y574593D01*
X171686Y574610D01*
X171682Y574630D01*
X171629Y574719D01*
X171580Y574810D01*
X171566Y574824D01*
X171556Y574841D01*
X171477Y574908D01*
X171402Y574980D01*
X171384Y574988D01*
X171369Y575001D01*
X171273Y575040D01*
X171179Y575083D01*
X171159Y575085D01*
X171141Y575093D01*
X170974Y575111D01*
X168078Y575111D01*
X167988Y575097D01*
X167897Y575089D01*
X167867Y575077D01*
X167835Y575072D01*
X167755Y575029D01*
X167671Y574993D01*
X167639Y574967D01*
X167618Y574956D01*
X167596Y574933D01*
X167540Y574888D01*
X165972Y573320D01*
X165919Y573246D01*
X165859Y573177D01*
X165847Y573147D01*
X165828Y573120D01*
X165801Y573033D01*
X165767Y572949D01*
X165763Y572908D01*
X165756Y572885D01*
X165757Y572853D01*
X165749Y572782D01*
X165749Y524038D01*
X165763Y523948D01*
X165771Y523857D01*
X165783Y523827D01*
X165788Y523795D01*
X165831Y523715D01*
X165867Y523631D01*
X165893Y523599D01*
X165904Y523578D01*
X165927Y523556D01*
X165972Y523500D01*
X171040Y518432D01*
X171114Y518379D01*
X171183Y518319D01*
X171213Y518307D01*
X171240Y518288D01*
X171327Y518261D01*
X171411Y518227D01*
X171452Y518223D01*
X171475Y518216D01*
X171507Y518217D01*
X171578Y518209D01*
X175294Y518209D01*
X175365Y518220D01*
X175436Y518222D01*
X175485Y518240D01*
X175537Y518248D01*
X175600Y518282D01*
X175667Y518307D01*
X175708Y518339D01*
X175754Y518364D01*
X175803Y518416D01*
X175859Y518460D01*
X175888Y518504D01*
X175924Y518542D01*
X175954Y518607D01*
X175992Y518667D01*
X176005Y518718D01*
X176027Y518765D01*
X176035Y518836D01*
X176053Y518906D01*
X176048Y518958D01*
X176054Y519009D01*
X176039Y519080D01*
X176033Y519151D01*
X176013Y519199D01*
X176002Y519250D01*
X175965Y519311D01*
X175937Y519377D01*
X175892Y519433D01*
X175876Y519461D01*
X175858Y519476D01*
X175832Y519508D01*
X171735Y523605D01*
X171735Y531115D01*
X177045Y536425D01*
X184555Y536425D01*
X189865Y531115D01*
X189865Y523605D01*
X185768Y519508D01*
X185726Y519450D01*
X185676Y519398D01*
X185655Y519351D01*
X185624Y519309D01*
X185603Y519240D01*
X185573Y519175D01*
X185567Y519123D01*
X185552Y519073D01*
X185554Y519002D01*
X185546Y518931D01*
X185557Y518880D01*
X185558Y518828D01*
X185583Y518760D01*
X185598Y518690D01*
X185625Y518645D01*
X185643Y518597D01*
X185687Y518541D01*
X185724Y518479D01*
X185764Y518445D01*
X185796Y518405D01*
X185857Y518366D01*
X185911Y518319D01*
X185959Y518300D01*
X186003Y518272D01*
X186073Y518254D01*
X186139Y518227D01*
X186211Y518219D01*
X186242Y518211D01*
X186265Y518213D01*
X186306Y518209D01*
X211263Y518209D01*
X233049Y496423D01*
X233049Y406738D01*
X233063Y406648D01*
X233071Y406557D01*
X233083Y406527D01*
X233088Y406495D01*
X233131Y406415D01*
X233167Y406331D01*
X233193Y406299D01*
X233204Y406278D01*
X233227Y406256D01*
X233272Y406200D01*
X329290Y310182D01*
X329364Y310129D01*
X329433Y310069D01*
X329463Y310057D01*
X329490Y310038D01*
X329577Y310011D01*
X329661Y309977D01*
X329702Y309973D01*
X329725Y309966D01*
X329757Y309967D01*
X329828Y309959D01*
X331988Y309959D01*
X334799Y307148D01*
X334799Y303172D01*
X331988Y300361D01*
X328012Y300361D01*
X325201Y303172D01*
X325201Y305332D01*
X325187Y305422D01*
X325179Y305513D01*
X325167Y305543D01*
X325162Y305575D01*
X325119Y305655D01*
X325083Y305739D01*
X325057Y305771D01*
X325046Y305792D01*
X325023Y305814D01*
X324978Y305870D01*
X297798Y333050D01*
X297740Y333092D01*
X297688Y333141D01*
X297641Y333163D01*
X297599Y333194D01*
X297530Y333215D01*
X297465Y333245D01*
X297413Y333251D01*
X297363Y333266D01*
X297292Y333264D01*
X297221Y333272D01*
X297170Y333261D01*
X297118Y333260D01*
X297050Y333235D01*
X296980Y333220D01*
X296935Y333193D01*
X296887Y333175D01*
X296831Y333130D01*
X296769Y333094D01*
X296735Y333054D01*
X296695Y333022D01*
X296656Y332961D01*
X296609Y332907D01*
X296590Y332858D01*
X296562Y332815D01*
X296544Y332745D01*
X296517Y332679D01*
X296509Y332607D01*
X296501Y332576D01*
X296503Y332553D01*
X296499Y332512D01*
X296499Y73888D01*
X296513Y73798D01*
X296521Y73707D01*
X296533Y73677D01*
X296538Y73645D01*
X296581Y73565D01*
X296617Y73481D01*
X296643Y73449D01*
X296654Y73428D01*
X296677Y73406D01*
X296722Y73350D01*
X328049Y42023D01*
X328049Y37323D01*
X328067Y37209D01*
X328085Y37092D01*
X328087Y37087D01*
X328088Y37080D01*
X328143Y36977D01*
X328196Y36873D01*
X328201Y36869D01*
X328204Y36863D01*
X328289Y36782D01*
X328372Y36701D01*
X328378Y36697D01*
X328382Y36694D01*
X328399Y36686D01*
X328519Y36620D01*
X329143Y36361D01*
X331201Y34303D01*
X332315Y31615D01*
X332315Y28705D01*
X331201Y26017D01*
X329143Y23959D01*
X326455Y22845D01*
X323545Y22845D01*
G37*
%LPD*%
%LPC*%
G36*
X513737Y432111D02*
X513737Y432111D01*
X500449Y445399D01*
X500398Y445436D01*
X499340Y446508D01*
X499338Y446510D01*
X499336Y446512D01*
X498443Y447406D01*
X498451Y448666D01*
X498451Y448668D01*
X498451Y448671D01*
X498451Y450134D01*
X498455Y450145D01*
X498454Y450177D01*
X498462Y450244D01*
X498885Y512869D01*
X498884Y512878D01*
X498884Y512881D01*
X498882Y512891D01*
X498884Y512913D01*
X498863Y513012D01*
X498847Y513112D01*
X498837Y513132D01*
X498832Y513154D01*
X498780Y513241D01*
X498733Y513330D01*
X498717Y513346D01*
X498706Y513365D01*
X498629Y513431D01*
X498556Y513501D01*
X498536Y513510D01*
X498519Y513525D01*
X498425Y513563D01*
X498334Y513606D01*
X498311Y513608D01*
X498291Y513617D01*
X498124Y513635D01*
X494868Y513635D01*
X493975Y514528D01*
X493975Y530792D01*
X494868Y531685D01*
X509132Y531685D01*
X510025Y530792D01*
X510025Y526470D01*
X510028Y526450D01*
X510026Y526431D01*
X510048Y526329D01*
X510064Y526227D01*
X510074Y526210D01*
X510078Y526190D01*
X510131Y526101D01*
X510180Y526010D01*
X510194Y525996D01*
X510204Y525979D01*
X510283Y525912D01*
X510358Y525840D01*
X510376Y525832D01*
X510391Y525819D01*
X510487Y525780D01*
X510581Y525737D01*
X510601Y525735D01*
X510619Y525727D01*
X510786Y525709D01*
X515716Y525709D01*
X515831Y525728D01*
X515947Y525745D01*
X515953Y525747D01*
X515959Y525748D01*
X516062Y525803D01*
X516167Y525856D01*
X516171Y525861D01*
X516177Y525864D01*
X516256Y525948D01*
X516339Y526032D01*
X516342Y526038D01*
X516346Y526042D01*
X516354Y526059D01*
X516420Y526179D01*
X517090Y527797D01*
X520163Y530870D01*
X524177Y532533D01*
X528523Y532533D01*
X532537Y530870D01*
X535610Y527797D01*
X537273Y523783D01*
X537273Y519437D01*
X535610Y515423D01*
X532537Y512350D01*
X528523Y510687D01*
X524177Y510687D01*
X520163Y512350D01*
X517090Y515423D01*
X515550Y519141D01*
X515488Y519241D01*
X515428Y519341D01*
X515424Y519345D01*
X515420Y519350D01*
X515330Y519425D01*
X515241Y519501D01*
X515236Y519503D01*
X515231Y519507D01*
X515122Y519549D01*
X515013Y519593D01*
X515006Y519594D01*
X515001Y519595D01*
X514983Y519596D01*
X514847Y519611D01*
X510786Y519611D01*
X510766Y519608D01*
X510747Y519610D01*
X510645Y519588D01*
X510543Y519572D01*
X510526Y519562D01*
X510506Y519558D01*
X510417Y519505D01*
X510326Y519456D01*
X510312Y519442D01*
X510295Y519432D01*
X510228Y519353D01*
X510156Y519278D01*
X510148Y519260D01*
X510135Y519245D01*
X510096Y519149D01*
X510053Y519055D01*
X510051Y519035D01*
X510043Y519017D01*
X510025Y518850D01*
X510025Y514528D01*
X509132Y513635D01*
X505744Y513635D01*
X505727Y513632D01*
X505710Y513634D01*
X505606Y513613D01*
X505501Y513596D01*
X505486Y513587D01*
X505469Y513584D01*
X505377Y513530D01*
X505284Y513480D01*
X505272Y513468D01*
X505257Y513459D01*
X505187Y513379D01*
X505114Y513302D01*
X505107Y513286D01*
X505096Y513273D01*
X505055Y513175D01*
X505011Y513079D01*
X505009Y513062D01*
X505002Y513046D01*
X504983Y512879D01*
X504559Y450233D01*
X504574Y450140D01*
X504581Y450046D01*
X504593Y450019D01*
X504598Y449990D01*
X504641Y449906D01*
X504678Y449820D01*
X504701Y449791D01*
X504711Y449771D01*
X504735Y449749D01*
X504782Y449689D01*
X516040Y438432D01*
X516114Y438379D01*
X516183Y438319D01*
X516213Y438307D01*
X516240Y438288D01*
X516327Y438261D01*
X516411Y438227D01*
X516452Y438223D01*
X516475Y438216D01*
X516507Y438217D01*
X516578Y438209D01*
X553422Y438209D01*
X553512Y438223D01*
X553603Y438231D01*
X553633Y438243D01*
X553665Y438248D01*
X553745Y438291D01*
X553829Y438327D01*
X553861Y438353D01*
X553882Y438364D01*
X553904Y438387D01*
X553960Y438432D01*
X567705Y452177D01*
X567749Y452237D01*
X567784Y452274D01*
X567792Y452292D01*
X567823Y452330D01*
X567833Y452355D01*
X567849Y452376D01*
X567877Y452469D01*
X567912Y452559D01*
X567915Y452592D01*
X567921Y452611D01*
X567920Y452645D01*
X567928Y452726D01*
X567595Y475385D01*
X567592Y475399D01*
X567594Y475413D01*
X567571Y475520D01*
X567551Y475627D01*
X567545Y475640D01*
X567542Y475654D01*
X567486Y475747D01*
X567433Y475843D01*
X567423Y475853D01*
X567415Y475865D01*
X567333Y475936D01*
X567252Y476010D01*
X567239Y476016D01*
X567228Y476025D01*
X567127Y476066D01*
X567028Y476110D01*
X567014Y476111D01*
X567000Y476117D01*
X566834Y476135D01*
X563368Y476135D01*
X562475Y477028D01*
X562475Y477034D01*
X562460Y477130D01*
X562450Y477227D01*
X562440Y477251D01*
X562436Y477276D01*
X562390Y477362D01*
X562350Y477451D01*
X562333Y477471D01*
X562320Y477494D01*
X562250Y477561D01*
X562184Y477632D01*
X562161Y477645D01*
X562142Y477663D01*
X562054Y477704D01*
X561968Y477751D01*
X561943Y477756D01*
X561919Y477767D01*
X561822Y477777D01*
X561726Y477795D01*
X561700Y477791D01*
X561675Y477794D01*
X561579Y477773D01*
X561483Y477759D01*
X561460Y477747D01*
X561434Y477742D01*
X561350Y477692D01*
X561264Y477647D01*
X561245Y477629D01*
X561223Y477615D01*
X561160Y477541D01*
X561092Y477472D01*
X561076Y477443D01*
X561063Y477428D01*
X561051Y477398D01*
X561011Y477325D01*
X561010Y477323D01*
X557937Y474250D01*
X553923Y472587D01*
X549577Y472587D01*
X545563Y474250D01*
X542490Y477323D01*
X540827Y481337D01*
X540827Y485683D01*
X542490Y489697D01*
X545563Y492770D01*
X549577Y494433D01*
X553923Y494433D01*
X557937Y492770D01*
X561010Y489697D01*
X561011Y489695D01*
X561062Y489612D01*
X561108Y489526D01*
X561126Y489508D01*
X561140Y489486D01*
X561215Y489424D01*
X561286Y489357D01*
X561310Y489346D01*
X561330Y489329D01*
X561421Y489294D01*
X561509Y489253D01*
X561535Y489250D01*
X561559Y489241D01*
X561657Y489237D01*
X561753Y489226D01*
X561779Y489232D01*
X561805Y489231D01*
X561899Y489258D01*
X561994Y489278D01*
X562016Y489292D01*
X562041Y489299D01*
X562121Y489355D01*
X562205Y489405D01*
X562222Y489424D01*
X562243Y489439D01*
X562302Y489518D01*
X562365Y489592D01*
X562375Y489616D01*
X562390Y489637D01*
X562420Y489729D01*
X562457Y489820D01*
X562460Y489852D01*
X562466Y489871D01*
X562466Y489903D01*
X562475Y489986D01*
X562475Y493292D01*
X563368Y494185D01*
X566780Y494185D01*
X566797Y494187D01*
X566813Y494185D01*
X566918Y494207D01*
X567023Y494224D01*
X567038Y494232D01*
X567054Y494235D01*
X567146Y494290D01*
X567241Y494340D01*
X567252Y494351D01*
X567266Y494360D01*
X567336Y494440D01*
X567410Y494518D01*
X567417Y494533D01*
X567428Y494545D01*
X567469Y494644D01*
X567514Y494741D01*
X567515Y494757D01*
X567522Y494772D01*
X567542Y494939D01*
X567937Y537589D01*
X567922Y537683D01*
X567915Y537777D01*
X567904Y537804D01*
X567899Y537833D01*
X567856Y537917D01*
X567818Y538004D01*
X567796Y538032D01*
X567786Y538051D01*
X567762Y538074D01*
X567714Y538135D01*
X505560Y600288D01*
X505486Y600341D01*
X505417Y600401D01*
X505387Y600413D01*
X505360Y600432D01*
X505273Y600459D01*
X505189Y600493D01*
X505148Y600497D01*
X505125Y600504D01*
X505093Y600503D01*
X505022Y600511D01*
X419226Y600511D01*
X419206Y600508D01*
X419187Y600510D01*
X419085Y600488D01*
X418983Y600472D01*
X418966Y600462D01*
X418946Y600458D01*
X418857Y600405D01*
X418766Y600356D01*
X418752Y600342D01*
X418735Y600332D01*
X418668Y600253D01*
X418596Y600178D01*
X418588Y600160D01*
X418575Y600145D01*
X418536Y600049D01*
X418493Y599955D01*
X418491Y599935D01*
X418483Y599917D01*
X418472Y599812D01*
X413155Y594495D01*
X405645Y594495D01*
X400335Y599805D01*
X400335Y607315D01*
X405645Y612625D01*
X413155Y612625D01*
X418470Y607309D01*
X418488Y607229D01*
X418504Y607127D01*
X418514Y607110D01*
X418518Y607090D01*
X418571Y607001D01*
X418620Y606910D01*
X418634Y606896D01*
X418644Y606879D01*
X418723Y606812D01*
X418798Y606740D01*
X418816Y606732D01*
X418831Y606719D01*
X418927Y606680D01*
X419021Y606637D01*
X419041Y606635D01*
X419059Y606627D01*
X419226Y606609D01*
X507863Y606609D01*
X572054Y542417D01*
X572124Y542367D01*
X573162Y541309D01*
X573164Y541308D01*
X573167Y541304D01*
X574060Y540411D01*
X574049Y539151D01*
X574049Y539148D01*
X574049Y539144D01*
X574049Y537695D01*
X574041Y537671D01*
X574042Y537639D01*
X574034Y537574D01*
X573640Y494953D01*
X573643Y494930D01*
X573641Y494907D01*
X573662Y494808D01*
X573677Y494710D01*
X573688Y494689D01*
X573693Y494666D01*
X573744Y494580D01*
X573790Y494491D01*
X573807Y494475D01*
X573819Y494455D01*
X573895Y494390D01*
X573967Y494320D01*
X573988Y494310D01*
X574006Y494295D01*
X574099Y494258D01*
X574189Y494215D01*
X574212Y494212D01*
X574234Y494203D01*
X574401Y494185D01*
X577632Y494185D01*
X578525Y493292D01*
X578525Y477028D01*
X577632Y476135D01*
X574454Y476135D01*
X574429Y476131D01*
X574404Y476134D01*
X574308Y476111D01*
X574212Y476096D01*
X574189Y476084D01*
X574164Y476078D01*
X574081Y476026D01*
X573994Y475980D01*
X573977Y475962D01*
X573955Y475949D01*
X573892Y475873D01*
X573825Y475802D01*
X573814Y475779D01*
X573798Y475759D01*
X573763Y475668D01*
X573721Y475579D01*
X573718Y475554D01*
X573709Y475530D01*
X573693Y475363D01*
X574026Y452750D01*
X574041Y452666D01*
X574048Y452580D01*
X574049Y452577D01*
X574049Y451187D01*
X574049Y451183D01*
X574049Y451176D01*
X574067Y449916D01*
X573175Y449023D01*
X573172Y449019D01*
X573167Y449015D01*
X572199Y448018D01*
X572194Y448016D01*
X572156Y447986D01*
X572133Y447973D01*
X572112Y447950D01*
X572063Y447911D01*
X558272Y434120D01*
X556263Y432111D01*
X513737Y432111D01*
G37*
%LPD*%
%LPC*%
G36*
X405645Y442095D02*
X405645Y442095D01*
X400335Y447405D01*
X400335Y454915D01*
X405645Y460225D01*
X413163Y460225D01*
X413232Y460180D01*
X413315Y460120D01*
X413334Y460114D01*
X413351Y460104D01*
X413452Y460078D01*
X413550Y460048D01*
X413570Y460048D01*
X413590Y460044D01*
X413693Y460052D01*
X413796Y460054D01*
X413815Y460061D01*
X413835Y460063D01*
X413930Y460103D01*
X414027Y460139D01*
X414043Y460151D01*
X414061Y460159D01*
X414192Y460264D01*
X461728Y507800D01*
X461781Y507874D01*
X461841Y507943D01*
X461853Y507973D01*
X461872Y508000D01*
X461899Y508087D01*
X461933Y508171D01*
X461937Y508212D01*
X461944Y508235D01*
X461943Y508267D01*
X461951Y508338D01*
X461951Y531423D01*
X480587Y550059D01*
X515282Y550059D01*
X515396Y550078D01*
X515512Y550095D01*
X515518Y550097D01*
X515524Y550098D01*
X515627Y550153D01*
X515732Y550206D01*
X515736Y550211D01*
X515742Y550214D01*
X515821Y550298D01*
X515904Y550382D01*
X515908Y550388D01*
X515911Y550392D01*
X515919Y550409D01*
X515985Y550529D01*
X517090Y553197D01*
X520163Y556270D01*
X524177Y557933D01*
X528523Y557933D01*
X532537Y556270D01*
X535610Y553197D01*
X537273Y549183D01*
X537273Y544837D01*
X535610Y540823D01*
X532537Y537750D01*
X528523Y536087D01*
X524177Y536087D01*
X520163Y537750D01*
X517090Y540823D01*
X515985Y543491D01*
X515923Y543591D01*
X515863Y543691D01*
X515859Y543695D01*
X515855Y543700D01*
X515765Y543775D01*
X515676Y543851D01*
X515671Y543853D01*
X515666Y543857D01*
X515557Y543899D01*
X515448Y543943D01*
X515441Y543944D01*
X515436Y543945D01*
X515418Y543946D01*
X515282Y543961D01*
X483428Y543961D01*
X483338Y543947D01*
X483247Y543939D01*
X483217Y543927D01*
X483185Y543922D01*
X483105Y543879D01*
X483021Y543843D01*
X482989Y543817D01*
X482968Y543806D01*
X482946Y543783D01*
X482890Y543738D01*
X468272Y529120D01*
X468219Y529046D01*
X468159Y528977D01*
X468147Y528947D01*
X468128Y528920D01*
X468101Y528833D01*
X468067Y528749D01*
X468063Y528708D01*
X468056Y528685D01*
X468057Y528653D01*
X468049Y528582D01*
X468049Y505497D01*
X466040Y503488D01*
X418504Y455952D01*
X418492Y455936D01*
X418477Y455924D01*
X418420Y455836D01*
X418360Y455752D01*
X418354Y455734D01*
X418344Y455717D01*
X418318Y455616D01*
X418288Y455517D01*
X418288Y455497D01*
X418284Y455478D01*
X418292Y455375D01*
X418294Y455272D01*
X418301Y455253D01*
X418303Y455233D01*
X418343Y455138D01*
X418379Y455041D01*
X418391Y455025D01*
X418399Y455007D01*
X418465Y454924D01*
X418465Y447405D01*
X413155Y442095D01*
X405645Y442095D01*
G37*
%LPD*%
%LPC*%
G36*
X33815Y600759D02*
X33815Y600759D01*
X25898Y604039D01*
X19839Y610098D01*
X16559Y618015D01*
X16559Y626585D01*
X19839Y634502D01*
X25898Y640561D01*
X33815Y643841D01*
X42385Y643841D01*
X50302Y640561D01*
X56361Y634502D01*
X59641Y626585D01*
X59641Y618015D01*
X56361Y610098D01*
X50302Y604039D01*
X42385Y600759D01*
X33815Y600759D01*
G37*
%LPD*%
%LPC*%
G36*
X33815Y16559D02*
X33815Y16559D01*
X25898Y19839D01*
X19839Y25898D01*
X16559Y33815D01*
X16559Y42385D01*
X19839Y50302D01*
X25898Y56361D01*
X33815Y59641D01*
X42385Y59641D01*
X50302Y56361D01*
X56361Y50302D01*
X59641Y42385D01*
X59641Y33815D01*
X56361Y25898D01*
X50302Y19839D01*
X42385Y16559D01*
X33815Y16559D01*
G37*
%LPD*%
%LPC*%
G36*
X656115Y600759D02*
X656115Y600759D01*
X648198Y604039D01*
X642139Y610098D01*
X638859Y618015D01*
X638859Y626585D01*
X642139Y634502D01*
X648198Y640561D01*
X656115Y643841D01*
X664685Y643841D01*
X672602Y640561D01*
X678661Y634502D01*
X681941Y626585D01*
X681941Y618015D01*
X678661Y610098D01*
X672602Y604039D01*
X664685Y600759D01*
X656115Y600759D01*
G37*
%LPD*%
%LPC*%
G36*
X656115Y16559D02*
X656115Y16559D01*
X648198Y19839D01*
X642139Y25898D01*
X638859Y33815D01*
X638859Y42385D01*
X642139Y50302D01*
X648198Y56361D01*
X656115Y59641D01*
X664685Y59641D01*
X672602Y56361D01*
X678661Y50302D01*
X681941Y42385D01*
X681941Y33815D01*
X678661Y25898D01*
X672602Y19839D01*
X664685Y16559D01*
X656115Y16559D01*
G37*
%LPD*%
%LPC*%
G36*
X611562Y541169D02*
X611562Y541169D01*
X604747Y543992D01*
X599532Y549207D01*
X596709Y556022D01*
X596709Y563398D01*
X599532Y570213D01*
X604747Y575428D01*
X611562Y578251D01*
X618938Y578251D01*
X625753Y575428D01*
X630968Y570213D01*
X633791Y563398D01*
X633791Y556022D01*
X630968Y549207D01*
X625753Y543992D01*
X618938Y541169D01*
X611562Y541169D01*
G37*
%LPD*%
%LPC*%
G36*
X611562Y426869D02*
X611562Y426869D01*
X604747Y429692D01*
X599532Y434907D01*
X596709Y441722D01*
X596709Y449098D01*
X599532Y455913D01*
X604747Y461128D01*
X611562Y463951D01*
X618938Y463951D01*
X625753Y461128D01*
X630968Y455913D01*
X633791Y449098D01*
X633791Y441722D01*
X630968Y434907D01*
X625753Y429692D01*
X618938Y426869D01*
X611562Y426869D01*
G37*
%LPD*%
%LPC*%
G36*
X653397Y427295D02*
X653397Y427295D01*
X650065Y428675D01*
X647515Y431225D01*
X646083Y434684D01*
X646048Y434740D01*
X646023Y434800D01*
X645971Y434865D01*
X645953Y434893D01*
X645938Y434905D01*
X645918Y434931D01*
X636951Y443897D01*
X636951Y453582D01*
X636937Y453672D01*
X636929Y453763D01*
X636917Y453793D01*
X636912Y453825D01*
X636869Y453905D01*
X636833Y453989D01*
X636807Y454021D01*
X636796Y454042D01*
X636773Y454064D01*
X636728Y454120D01*
X623451Y467397D01*
X623451Y477374D01*
X623448Y477394D01*
X623450Y477413D01*
X623428Y477515D01*
X623412Y477617D01*
X623402Y477634D01*
X623398Y477654D01*
X623345Y477743D01*
X623296Y477834D01*
X623282Y477848D01*
X623272Y477865D01*
X623193Y477932D01*
X623118Y478004D01*
X623100Y478012D01*
X623085Y478025D01*
X622989Y478064D01*
X622895Y478107D01*
X622875Y478109D01*
X622857Y478117D01*
X622690Y478135D01*
X620868Y478135D01*
X619975Y479028D01*
X619975Y491292D01*
X620868Y492185D01*
X632132Y492185D01*
X633025Y491292D01*
X633025Y479028D01*
X632132Y478135D01*
X630310Y478135D01*
X630290Y478132D01*
X630271Y478134D01*
X630169Y478112D01*
X630067Y478096D01*
X630050Y478086D01*
X630030Y478082D01*
X629941Y478029D01*
X629850Y477980D01*
X629836Y477966D01*
X629819Y477956D01*
X629752Y477877D01*
X629680Y477802D01*
X629672Y477784D01*
X629659Y477769D01*
X629620Y477673D01*
X629577Y477579D01*
X629575Y477559D01*
X629567Y477541D01*
X629549Y477374D01*
X629549Y470238D01*
X629563Y470148D01*
X629571Y470057D01*
X629583Y470027D01*
X629588Y469995D01*
X629631Y469915D01*
X629667Y469831D01*
X629693Y469799D01*
X629704Y469778D01*
X629727Y469756D01*
X629754Y469722D01*
X629755Y469720D01*
X629756Y469720D01*
X629772Y469700D01*
X643049Y456423D01*
X643049Y446738D01*
X643063Y446648D01*
X643071Y446557D01*
X643083Y446527D01*
X643088Y446495D01*
X643131Y446415D01*
X643167Y446331D01*
X643193Y446299D01*
X643204Y446278D01*
X643227Y446256D01*
X643272Y446200D01*
X647208Y442264D01*
X647224Y442252D01*
X647236Y442237D01*
X647300Y442196D01*
X647347Y442155D01*
X647373Y442145D01*
X647407Y442120D01*
X647426Y442114D01*
X647443Y442104D01*
X647529Y442082D01*
X647575Y442063D01*
X647601Y442061D01*
X647643Y442048D01*
X647663Y442048D01*
X647682Y442044D01*
X647725Y442047D01*
X647742Y442045D01*
X647750Y442045D01*
X647791Y442052D01*
X647888Y442054D01*
X647907Y442061D01*
X647927Y442063D01*
X647970Y442081D01*
X647993Y442085D01*
X648040Y442110D01*
X648119Y442139D01*
X648135Y442151D01*
X648153Y442159D01*
X648193Y442191D01*
X648210Y442200D01*
X648229Y442220D01*
X648284Y442264D01*
X650065Y444045D01*
X653397Y445425D01*
X657003Y445425D01*
X660335Y444045D01*
X662885Y441495D01*
X664265Y438163D01*
X664265Y434557D01*
X662885Y431225D01*
X660335Y428675D01*
X657003Y427295D01*
X653397Y427295D01*
G37*
%LPD*%
%LPC*%
G36*
X620868Y508135D02*
X620868Y508135D01*
X619975Y509028D01*
X619975Y521292D01*
X620868Y522185D01*
X622690Y522185D01*
X622710Y522188D01*
X622729Y522186D01*
X622831Y522208D01*
X622933Y522224D01*
X622950Y522234D01*
X622970Y522238D01*
X623059Y522291D01*
X623150Y522340D01*
X623164Y522354D01*
X623181Y522364D01*
X623248Y522443D01*
X623320Y522518D01*
X623328Y522536D01*
X623341Y522551D01*
X623380Y522647D01*
X623423Y522741D01*
X623425Y522761D01*
X623433Y522779D01*
X623451Y522946D01*
X623451Y532923D01*
X636937Y546409D01*
X646143Y546409D01*
X646257Y546428D01*
X646374Y546445D01*
X646379Y546447D01*
X646385Y546448D01*
X646488Y546503D01*
X646593Y546556D01*
X646597Y546561D01*
X646603Y546564D01*
X646683Y546648D01*
X646765Y546732D01*
X646769Y546738D01*
X646772Y546742D01*
X646780Y546759D01*
X646846Y546879D01*
X647515Y548495D01*
X650065Y551045D01*
X653397Y552425D01*
X657003Y552425D01*
X660335Y551045D01*
X662885Y548495D01*
X664265Y545163D01*
X664265Y541557D01*
X662885Y538225D01*
X660335Y535675D01*
X657003Y534295D01*
X653397Y534295D01*
X650065Y535675D01*
X647515Y538225D01*
X646846Y539841D01*
X646784Y539941D01*
X646724Y540041D01*
X646720Y540045D01*
X646716Y540050D01*
X646626Y540125D01*
X646537Y540201D01*
X646532Y540203D01*
X646527Y540207D01*
X646418Y540249D01*
X646309Y540293D01*
X646302Y540294D01*
X646297Y540295D01*
X646279Y540296D01*
X646143Y540311D01*
X639778Y540311D01*
X639688Y540297D01*
X639597Y540289D01*
X639567Y540277D01*
X639535Y540272D01*
X639455Y540229D01*
X639371Y540193D01*
X639339Y540167D01*
X639318Y540156D01*
X639296Y540133D01*
X639240Y540088D01*
X629772Y530620D01*
X629719Y530546D01*
X629659Y530477D01*
X629647Y530447D01*
X629628Y530420D01*
X629601Y530333D01*
X629567Y530249D01*
X629563Y530208D01*
X629556Y530185D01*
X629557Y530153D01*
X629549Y530082D01*
X629549Y522946D01*
X629552Y522926D01*
X629550Y522907D01*
X629572Y522805D01*
X629588Y522703D01*
X629598Y522686D01*
X629602Y522666D01*
X629655Y522577D01*
X629704Y522486D01*
X629718Y522472D01*
X629728Y522455D01*
X629807Y522388D01*
X629882Y522316D01*
X629900Y522308D01*
X629915Y522295D01*
X630011Y522256D01*
X630105Y522213D01*
X630125Y522211D01*
X630143Y522203D01*
X630310Y522185D01*
X632132Y522185D01*
X633025Y521292D01*
X633025Y509028D01*
X632132Y508135D01*
X620868Y508135D01*
G37*
%LPD*%
%LPC*%
G36*
X82323Y476983D02*
X82323Y476983D01*
X82323Y499572D01*
X84848Y499287D01*
X85418Y499157D01*
X87491Y498684D01*
X90049Y497789D01*
X92491Y496613D01*
X94786Y495171D01*
X96905Y493481D01*
X98821Y491565D01*
X100511Y489446D01*
X101953Y487151D01*
X103129Y484709D01*
X104024Y482151D01*
X104627Y479508D01*
X104912Y476983D01*
X82323Y476983D01*
G37*
%LPD*%
%LPC*%
G36*
X52323Y523983D02*
X52323Y523983D01*
X52323Y546572D01*
X54848Y546287D01*
X57491Y545684D01*
X60049Y544789D01*
X62491Y543613D01*
X64786Y542171D01*
X66905Y540481D01*
X68821Y538565D01*
X70511Y536446D01*
X71953Y534151D01*
X73129Y531709D01*
X74024Y529151D01*
X74627Y526508D01*
X74912Y523983D01*
X52323Y523983D01*
G37*
%LPD*%
%LPC*%
G36*
X56688Y476983D02*
X56688Y476983D01*
X56973Y479508D01*
X57576Y482151D01*
X58471Y484709D01*
X59647Y487151D01*
X61089Y489446D01*
X62779Y491565D01*
X64695Y493481D01*
X66814Y495171D01*
X69109Y496613D01*
X71551Y497789D01*
X74109Y498684D01*
X76752Y499287D01*
X79277Y499572D01*
X79277Y476983D01*
X56688Y476983D01*
G37*
%LPD*%
%LPC*%
G36*
X26688Y523983D02*
X26688Y523983D01*
X26973Y526508D01*
X27576Y529151D01*
X28471Y531709D01*
X29647Y534151D01*
X31089Y536446D01*
X32779Y538565D01*
X34695Y540481D01*
X36814Y542171D01*
X39109Y543613D01*
X41551Y544789D01*
X44109Y545684D01*
X46752Y546287D01*
X49277Y546572D01*
X49277Y523983D01*
X26688Y523983D01*
G37*
%LPD*%
%LPC*%
G36*
X52323Y520937D02*
X52323Y520937D01*
X74912Y520937D01*
X74627Y518412D01*
X74024Y515769D01*
X73129Y513211D01*
X71953Y510769D01*
X70511Y508474D01*
X68821Y506355D01*
X66905Y504439D01*
X64786Y502749D01*
X62491Y501307D01*
X60049Y500131D01*
X57491Y499236D01*
X54848Y498633D01*
X52323Y498348D01*
X52323Y520937D01*
G37*
%LPD*%
%LPC*%
G36*
X82323Y473937D02*
X82323Y473937D01*
X104912Y473937D01*
X104627Y471412D01*
X104024Y468769D01*
X103129Y466211D01*
X101953Y463769D01*
X100511Y461474D01*
X98821Y459355D01*
X96905Y457439D01*
X94786Y455749D01*
X92491Y454307D01*
X90049Y453131D01*
X87491Y452236D01*
X84848Y451633D01*
X82323Y451348D01*
X82323Y473937D01*
G37*
%LPD*%
%LPC*%
G36*
X76752Y451633D02*
X76752Y451633D01*
X75481Y451923D01*
X74109Y452236D01*
X71551Y453131D01*
X69109Y454307D01*
X66814Y455749D01*
X64695Y457439D01*
X62779Y459355D01*
X61089Y461474D01*
X59647Y463769D01*
X58471Y466211D01*
X57576Y468769D01*
X56973Y471412D01*
X56688Y473937D01*
X79277Y473937D01*
X79277Y451348D01*
X76752Y451633D01*
G37*
%LPD*%
%LPC*%
G36*
X46752Y498633D02*
X46752Y498633D01*
X44615Y499120D01*
X44109Y499236D01*
X41551Y500131D01*
X39109Y501307D01*
X36814Y502749D01*
X34695Y504439D01*
X32779Y506355D01*
X31089Y508474D01*
X29647Y510769D01*
X28471Y513211D01*
X27576Y515769D01*
X26973Y518412D01*
X26688Y520937D01*
X49277Y520937D01*
X49277Y498348D01*
X46752Y498633D01*
G37*
%LPD*%
%LPC*%
G36*
X549577Y497987D02*
X549577Y497987D01*
X545563Y499650D01*
X542490Y502723D01*
X540827Y506737D01*
X540827Y511083D01*
X542490Y515097D01*
X545563Y518170D01*
X549577Y519833D01*
X553923Y519833D01*
X557937Y518170D01*
X561010Y515097D01*
X562673Y511083D01*
X562673Y506737D01*
X561010Y502723D01*
X557937Y499650D01*
X553923Y497987D01*
X549577Y497987D01*
G37*
%LPD*%
%LPC*%
G36*
X524177Y459887D02*
X524177Y459887D01*
X520163Y461550D01*
X517090Y464623D01*
X515427Y468637D01*
X515427Y472983D01*
X517090Y476997D01*
X520163Y480070D01*
X524177Y481733D01*
X528523Y481733D01*
X532537Y480070D01*
X535610Y476997D01*
X537273Y472983D01*
X537273Y468637D01*
X535610Y464623D01*
X532537Y461550D01*
X528523Y459887D01*
X524177Y459887D01*
G37*
%LPD*%
%LPC*%
G36*
X524177Y485287D02*
X524177Y485287D01*
X520163Y486950D01*
X517090Y490023D01*
X515427Y494037D01*
X515427Y498383D01*
X517090Y502397D01*
X520163Y505470D01*
X524177Y507133D01*
X528523Y507133D01*
X532537Y505470D01*
X535610Y502397D01*
X537273Y498383D01*
X537273Y494037D01*
X535610Y490023D01*
X532537Y486950D01*
X528523Y485287D01*
X524177Y485287D01*
G37*
%LPD*%
%LPC*%
G36*
X549577Y447187D02*
X549577Y447187D01*
X545563Y448850D01*
X542490Y451923D01*
X540827Y455937D01*
X540827Y460283D01*
X542490Y464297D01*
X545563Y467370D01*
X549577Y469033D01*
X553923Y469033D01*
X557937Y467370D01*
X561010Y464297D01*
X562673Y460283D01*
X562673Y455937D01*
X561010Y451923D01*
X557937Y448850D01*
X553923Y447187D01*
X549577Y447187D01*
G37*
%LPD*%
%LPC*%
G36*
X549577Y523387D02*
X549577Y523387D01*
X545563Y525050D01*
X542490Y528123D01*
X540827Y532137D01*
X540827Y536483D01*
X542490Y540497D01*
X545563Y543570D01*
X549577Y545233D01*
X553923Y545233D01*
X557937Y543570D01*
X561010Y540497D01*
X562673Y536483D01*
X562673Y532137D01*
X561010Y528123D01*
X557937Y525050D01*
X553923Y523387D01*
X549577Y523387D01*
G37*
%LPD*%
%LPC*%
G36*
X405645Y543695D02*
X405645Y543695D01*
X400335Y549005D01*
X400335Y556515D01*
X405645Y561825D01*
X413155Y561825D01*
X418465Y556515D01*
X418465Y549005D01*
X413155Y543695D01*
X405645Y543695D01*
G37*
%LPD*%
%LPC*%
G36*
X177045Y543695D02*
X177045Y543695D01*
X171735Y549005D01*
X171735Y556515D01*
X177045Y561825D01*
X184555Y561825D01*
X189865Y556515D01*
X189865Y549005D01*
X184555Y543695D01*
X177045Y543695D01*
G37*
%LPD*%
%LPC*%
G36*
X405645Y264295D02*
X405645Y264295D01*
X400335Y269605D01*
X400335Y277115D01*
X405645Y282425D01*
X413155Y282425D01*
X418465Y277115D01*
X418465Y269605D01*
X413155Y264295D01*
X405645Y264295D01*
G37*
%LPD*%
%LPC*%
G36*
X405645Y518295D02*
X405645Y518295D01*
X400335Y523605D01*
X400335Y531115D01*
X405645Y536425D01*
X413155Y536425D01*
X418465Y531115D01*
X418465Y523605D01*
X413155Y518295D01*
X405645Y518295D01*
G37*
%LPD*%
%LPC*%
G36*
X177045Y264295D02*
X177045Y264295D01*
X171735Y269605D01*
X171735Y277115D01*
X177045Y282425D01*
X184555Y282425D01*
X189865Y277115D01*
X189865Y269605D01*
X184555Y264295D01*
X177045Y264295D01*
G37*
%LPD*%
%LPC*%
G36*
X405645Y289695D02*
X405645Y289695D01*
X400335Y295005D01*
X400335Y302515D01*
X405645Y307825D01*
X413155Y307825D01*
X418465Y302515D01*
X418465Y295005D01*
X413155Y289695D01*
X405645Y289695D01*
G37*
%LPD*%
%LPC*%
G36*
X177045Y289695D02*
X177045Y289695D01*
X171735Y295005D01*
X171735Y302515D01*
X177045Y307825D01*
X184555Y307825D01*
X189865Y302515D01*
X189865Y295005D01*
X184555Y289695D01*
X177045Y289695D01*
G37*
%LPD*%
%LPC*%
G36*
X177045Y315095D02*
X177045Y315095D01*
X171735Y320405D01*
X171735Y327915D01*
X177045Y333225D01*
X184555Y333225D01*
X189865Y327915D01*
X189865Y320405D01*
X184555Y315095D01*
X177045Y315095D01*
G37*
%LPD*%
%LPC*%
G36*
X177045Y340495D02*
X177045Y340495D01*
X171735Y345805D01*
X171735Y353315D01*
X177045Y358625D01*
X184555Y358625D01*
X189865Y353315D01*
X189865Y345805D01*
X184555Y340495D01*
X177045Y340495D01*
G37*
%LPD*%
%LPC*%
G36*
X405645Y365895D02*
X405645Y365895D01*
X400335Y371205D01*
X400335Y378715D01*
X405645Y384025D01*
X413155Y384025D01*
X418465Y378715D01*
X418465Y371205D01*
X413155Y365895D01*
X405645Y365895D01*
G37*
%LPD*%
%LPC*%
G36*
X177045Y188095D02*
X177045Y188095D01*
X171735Y193405D01*
X171735Y200915D01*
X177045Y206225D01*
X184555Y206225D01*
X189865Y200915D01*
X189865Y193405D01*
X184555Y188095D01*
X177045Y188095D01*
G37*
%LPD*%
%LPC*%
G36*
X177045Y365895D02*
X177045Y365895D01*
X171735Y371205D01*
X171735Y378715D01*
X177045Y384025D01*
X184555Y384025D01*
X189865Y378715D01*
X189865Y371205D01*
X184555Y365895D01*
X177045Y365895D01*
G37*
%LPD*%
%LPC*%
G36*
X405645Y137295D02*
X405645Y137295D01*
X400335Y142605D01*
X400335Y150115D01*
X405645Y155425D01*
X413155Y155425D01*
X418465Y150115D01*
X418465Y142605D01*
X413155Y137295D01*
X405645Y137295D01*
G37*
%LPD*%
%LPC*%
G36*
X405645Y492895D02*
X405645Y492895D01*
X400335Y498205D01*
X400335Y505715D01*
X405645Y511025D01*
X413155Y511025D01*
X418465Y505715D01*
X418465Y498205D01*
X413155Y492895D01*
X405645Y492895D01*
G37*
%LPD*%
%LPC*%
G36*
X177045Y111895D02*
X177045Y111895D01*
X171735Y117205D01*
X171735Y124715D01*
X177045Y130025D01*
X184555Y130025D01*
X189865Y124715D01*
X189865Y117205D01*
X184555Y111895D01*
X177045Y111895D01*
G37*
%LPD*%
%LPC*%
G36*
X405645Y111895D02*
X405645Y111895D01*
X400335Y117205D01*
X400335Y124715D01*
X405645Y130025D01*
X413155Y130025D01*
X418465Y124715D01*
X418465Y117205D01*
X413155Y111895D01*
X405645Y111895D01*
G37*
%LPD*%
%LPC*%
G36*
X177045Y238895D02*
X177045Y238895D01*
X171735Y244205D01*
X171735Y251715D01*
X177045Y257025D01*
X184555Y257025D01*
X189865Y251715D01*
X189865Y244205D01*
X184555Y238895D01*
X177045Y238895D01*
G37*
%LPD*%
%LPC*%
G36*
X405645Y238895D02*
X405645Y238895D01*
X400335Y244205D01*
X400335Y251715D01*
X405645Y257025D01*
X413155Y257025D01*
X418465Y251715D01*
X418465Y244205D01*
X413155Y238895D01*
X405645Y238895D01*
G37*
%LPD*%
%LPC*%
G36*
X177045Y391295D02*
X177045Y391295D01*
X171735Y396605D01*
X171735Y404115D01*
X177045Y409425D01*
X184555Y409425D01*
X189865Y404115D01*
X189865Y396605D01*
X184555Y391295D01*
X177045Y391295D01*
G37*
%LPD*%
%LPC*%
G36*
X405645Y391295D02*
X405645Y391295D01*
X400335Y396605D01*
X400335Y404115D01*
X405645Y409425D01*
X413155Y409425D01*
X418465Y404115D01*
X418465Y396605D01*
X413155Y391295D01*
X405645Y391295D01*
G37*
%LPD*%
%LPC*%
G36*
X177045Y467495D02*
X177045Y467495D01*
X171735Y472805D01*
X171735Y480315D01*
X177045Y485625D01*
X184555Y485625D01*
X189865Y480315D01*
X189865Y472805D01*
X184555Y467495D01*
X177045Y467495D01*
G37*
%LPD*%
%LPC*%
G36*
X405645Y467495D02*
X405645Y467495D01*
X400335Y472805D01*
X400335Y480315D01*
X405645Y485625D01*
X413155Y485625D01*
X418465Y480315D01*
X418465Y472805D01*
X413155Y467495D01*
X405645Y467495D01*
G37*
%LPD*%
%LPC*%
G36*
X405645Y188095D02*
X405645Y188095D01*
X400335Y193405D01*
X400335Y200915D01*
X405645Y206225D01*
X413155Y206225D01*
X418465Y200915D01*
X418465Y193405D01*
X413155Y188095D01*
X405645Y188095D01*
G37*
%LPD*%
%LPC*%
G36*
X177045Y416695D02*
X177045Y416695D01*
X171735Y422005D01*
X171735Y429515D01*
X177045Y434825D01*
X184555Y434825D01*
X189865Y429515D01*
X189865Y422005D01*
X184555Y416695D01*
X177045Y416695D01*
G37*
%LPD*%
%LPC*%
G36*
X405645Y416695D02*
X405645Y416695D01*
X400335Y422005D01*
X400335Y429515D01*
X405645Y434825D01*
X413155Y434825D01*
X418465Y429515D01*
X418465Y422005D01*
X413155Y416695D01*
X405645Y416695D01*
G37*
%LPD*%
%LPC*%
G36*
X405645Y569095D02*
X405645Y569095D01*
X400335Y574405D01*
X400335Y581915D01*
X405645Y587225D01*
X413155Y587225D01*
X418465Y581915D01*
X418465Y574405D01*
X413155Y569095D01*
X405645Y569095D01*
G37*
%LPD*%
%LPC*%
G36*
X177045Y162695D02*
X177045Y162695D01*
X171735Y168005D01*
X171735Y175515D01*
X177045Y180825D01*
X184555Y180825D01*
X189865Y175515D01*
X189865Y168005D01*
X184555Y162695D01*
X177045Y162695D01*
G37*
%LPD*%
%LPC*%
G36*
X177045Y442095D02*
X177045Y442095D01*
X171735Y447405D01*
X171735Y454915D01*
X177045Y460225D01*
X184555Y460225D01*
X189865Y454915D01*
X189865Y447405D01*
X184555Y442095D01*
X177045Y442095D01*
G37*
%LPD*%
%LPC*%
G36*
X405645Y162695D02*
X405645Y162695D01*
X400335Y168005D01*
X400335Y175515D01*
X405645Y180825D01*
X413155Y180825D01*
X418465Y175515D01*
X418465Y168005D01*
X413155Y162695D01*
X405645Y162695D01*
G37*
%LPD*%
%LPC*%
G36*
X177045Y213495D02*
X177045Y213495D01*
X171735Y218805D01*
X171735Y226315D01*
X177045Y231625D01*
X184555Y231625D01*
X189865Y226315D01*
X189865Y218805D01*
X184555Y213495D01*
X177045Y213495D01*
G37*
%LPD*%
%LPC*%
G36*
X405645Y213495D02*
X405645Y213495D01*
X400335Y218805D01*
X400335Y226315D01*
X405645Y231625D01*
X413155Y231625D01*
X418465Y226315D01*
X418465Y218805D01*
X413155Y213495D01*
X405645Y213495D01*
G37*
%LPD*%
%LPC*%
G36*
X177045Y137295D02*
X177045Y137295D01*
X171735Y142605D01*
X171735Y150115D01*
X177045Y155425D01*
X184555Y155425D01*
X189865Y150115D01*
X189865Y142605D01*
X184555Y137295D01*
X177045Y137295D01*
G37*
%LPD*%
%LPC*%
G36*
X653597Y213495D02*
X653597Y213495D01*
X650265Y214875D01*
X647715Y217425D01*
X646335Y220757D01*
X646335Y224363D01*
X647715Y227695D01*
X650265Y230245D01*
X653597Y231625D01*
X657203Y231625D01*
X660535Y230245D01*
X663085Y227695D01*
X664465Y224363D01*
X664465Y220757D01*
X663085Y217425D01*
X660535Y214875D01*
X657203Y213495D01*
X653597Y213495D01*
G37*
%LPD*%
%LPC*%
G36*
X628197Y213495D02*
X628197Y213495D01*
X624865Y214875D01*
X622315Y217425D01*
X620935Y220757D01*
X620935Y224363D01*
X622315Y227695D01*
X624865Y230245D01*
X628197Y231625D01*
X631803Y231625D01*
X635135Y230245D01*
X637685Y227695D01*
X639065Y224363D01*
X639065Y220757D01*
X637685Y217425D01*
X635135Y214875D01*
X631803Y213495D01*
X628197Y213495D01*
G37*
%LPD*%
%LPC*%
G36*
X653597Y162695D02*
X653597Y162695D01*
X650265Y164075D01*
X647715Y166625D01*
X646335Y169957D01*
X646335Y173563D01*
X647715Y176895D01*
X650265Y179445D01*
X653597Y180825D01*
X657203Y180825D01*
X660535Y179445D01*
X663085Y176895D01*
X664465Y173563D01*
X664465Y169957D01*
X663085Y166625D01*
X660535Y164075D01*
X657203Y162695D01*
X653597Y162695D01*
G37*
%LPD*%
%LPC*%
G36*
X653597Y188095D02*
X653597Y188095D01*
X650265Y189475D01*
X647715Y192025D01*
X646335Y195357D01*
X646335Y198963D01*
X647715Y202295D01*
X650265Y204845D01*
X653597Y206225D01*
X657203Y206225D01*
X660535Y204845D01*
X663085Y202295D01*
X664465Y198963D01*
X664465Y195357D01*
X663085Y192025D01*
X660535Y189475D01*
X657203Y188095D01*
X653597Y188095D01*
G37*
%LPD*%
%LPC*%
G36*
X628197Y188095D02*
X628197Y188095D01*
X624865Y189475D01*
X622315Y192025D01*
X620935Y195357D01*
X620935Y198963D01*
X622315Y202295D01*
X624865Y204845D01*
X628197Y206225D01*
X631803Y206225D01*
X635135Y204845D01*
X637685Y202295D01*
X639065Y198963D01*
X639065Y195357D01*
X637685Y192025D01*
X635135Y189475D01*
X631803Y188095D01*
X628197Y188095D01*
G37*
%LPD*%
%LPC*%
G36*
X628197Y137295D02*
X628197Y137295D01*
X624865Y138675D01*
X622315Y141225D01*
X620935Y144557D01*
X620935Y148163D01*
X622315Y151495D01*
X624865Y154045D01*
X628197Y155425D01*
X631803Y155425D01*
X635135Y154045D01*
X637685Y151495D01*
X639065Y148163D01*
X639065Y144557D01*
X637685Y141225D01*
X635135Y138675D01*
X631803Y137295D01*
X628197Y137295D01*
G37*
%LPD*%
%LPC*%
G36*
X653597Y137295D02*
X653597Y137295D01*
X650265Y138675D01*
X647715Y141225D01*
X646335Y144557D01*
X646335Y148163D01*
X647715Y151495D01*
X650265Y154045D01*
X653597Y155425D01*
X657203Y155425D01*
X660535Y154045D01*
X663085Y151495D01*
X664465Y148163D01*
X664465Y144557D01*
X663085Y141225D01*
X660535Y138675D01*
X657203Y137295D01*
X653597Y137295D01*
G37*
%LPD*%
%LPC*%
G36*
X28545Y232845D02*
X28545Y232845D01*
X25857Y233959D01*
X23799Y236017D01*
X22685Y238705D01*
X22685Y241615D01*
X23799Y244303D01*
X25857Y246361D01*
X28545Y247475D01*
X31455Y247475D01*
X34143Y246361D01*
X36201Y244303D01*
X37315Y241615D01*
X37315Y238705D01*
X36201Y236017D01*
X34143Y233959D01*
X31455Y232845D01*
X28545Y232845D01*
G37*
%LPD*%
%LPC*%
G36*
X486045Y22845D02*
X486045Y22845D01*
X483357Y23959D01*
X481299Y26017D01*
X480185Y28705D01*
X480185Y31615D01*
X481299Y34303D01*
X483357Y36361D01*
X486045Y37475D01*
X488955Y37475D01*
X491643Y36361D01*
X493701Y34303D01*
X494815Y31615D01*
X494815Y28705D01*
X493701Y26017D01*
X491643Y23959D01*
X488955Y22845D01*
X486045Y22845D01*
G37*
%LPD*%
%LPC*%
G36*
X151045Y22845D02*
X151045Y22845D01*
X148357Y23959D01*
X146299Y26017D01*
X145185Y28705D01*
X145185Y31615D01*
X146299Y34303D01*
X148357Y36361D01*
X151045Y37475D01*
X153955Y37475D01*
X156643Y36361D01*
X158701Y34303D01*
X159815Y31615D01*
X159815Y28705D01*
X158701Y26017D01*
X156643Y23959D01*
X153955Y22845D01*
X151045Y22845D01*
G37*
%LPD*%
%LPC*%
G36*
X348545Y22845D02*
X348545Y22845D01*
X345857Y23959D01*
X343799Y26017D01*
X342685Y28705D01*
X342685Y31615D01*
X343799Y34303D01*
X345857Y36361D01*
X348545Y37475D01*
X351455Y37475D01*
X354143Y36361D01*
X356201Y34303D01*
X357315Y31615D01*
X357315Y28705D01*
X356201Y26017D01*
X354143Y23959D01*
X351455Y22845D01*
X348545Y22845D01*
G37*
%LPD*%
%LPC*%
G36*
X28545Y207845D02*
X28545Y207845D01*
X25857Y208959D01*
X23799Y211017D01*
X22685Y213705D01*
X22685Y216615D01*
X23799Y219303D01*
X25857Y221361D01*
X28545Y222475D01*
X31455Y222475D01*
X34143Y221361D01*
X36201Y219303D01*
X37315Y216615D01*
X37315Y213705D01*
X36201Y211017D01*
X34143Y208959D01*
X31455Y207845D01*
X28545Y207845D01*
G37*
%LPD*%
%LPC*%
G36*
X273545Y22845D02*
X273545Y22845D01*
X270857Y23959D01*
X268799Y26017D01*
X267685Y28705D01*
X267685Y31615D01*
X268799Y34303D01*
X270857Y36361D01*
X273545Y37475D01*
X276455Y37475D01*
X279143Y36361D01*
X281201Y34303D01*
X282315Y31615D01*
X282315Y28705D01*
X281201Y26017D01*
X279143Y23959D01*
X276455Y22845D01*
X273545Y22845D01*
G37*
%LPD*%
%LPC*%
G36*
X23545Y360345D02*
X23545Y360345D01*
X20857Y361459D01*
X18799Y363517D01*
X17685Y366205D01*
X17685Y369115D01*
X18799Y371803D01*
X20857Y373861D01*
X23545Y374975D01*
X26455Y374975D01*
X29143Y373861D01*
X31201Y371803D01*
X32315Y369115D01*
X32315Y366205D01*
X31201Y363517D01*
X29143Y361459D01*
X26455Y360345D01*
X23545Y360345D01*
G37*
%LPD*%
%LPC*%
G36*
X298545Y22845D02*
X298545Y22845D01*
X295857Y23959D01*
X293799Y26017D01*
X292685Y28705D01*
X292685Y31615D01*
X293799Y34303D01*
X295857Y36361D01*
X298545Y37475D01*
X301455Y37475D01*
X304143Y36361D01*
X306201Y34303D01*
X307315Y31615D01*
X307315Y28705D01*
X306201Y26017D01*
X304143Y23959D01*
X301455Y22845D01*
X298545Y22845D01*
G37*
%LPD*%
%LPC*%
G36*
X586723Y579883D02*
X586723Y579883D01*
X586723Y592841D01*
X588605Y592543D01*
X590782Y591835D01*
X592821Y590796D01*
X594673Y589451D01*
X596291Y587833D01*
X597636Y585981D01*
X598675Y583942D01*
X599383Y581765D01*
X599681Y579883D01*
X586723Y579883D01*
G37*
%LPD*%
%LPC*%
G36*
X586723Y427883D02*
X586723Y427883D01*
X586723Y440841D01*
X588605Y440543D01*
X590782Y439835D01*
X592821Y438796D01*
X594673Y437451D01*
X596291Y435833D01*
X597636Y433981D01*
X598675Y431942D01*
X599383Y429765D01*
X599681Y427883D01*
X586723Y427883D01*
G37*
%LPD*%
%LPC*%
G36*
X586723Y576837D02*
X586723Y576837D01*
X599681Y576837D01*
X599383Y574955D01*
X598675Y572778D01*
X597636Y570739D01*
X596291Y568887D01*
X594673Y567269D01*
X592821Y565924D01*
X590782Y564885D01*
X588605Y564177D01*
X586723Y563879D01*
X586723Y576837D01*
G37*
%LPD*%
%LPC*%
G36*
X570719Y579883D02*
X570719Y579883D01*
X571017Y581765D01*
X571725Y583942D01*
X572764Y585981D01*
X574109Y587833D01*
X575727Y589451D01*
X577579Y590796D01*
X579618Y591835D01*
X581795Y592543D01*
X583677Y592841D01*
X583677Y579883D01*
X570719Y579883D01*
G37*
%LPD*%
%LPC*%
G36*
X570719Y427883D02*
X570719Y427883D01*
X571017Y429765D01*
X571725Y431942D01*
X572764Y433981D01*
X574109Y435833D01*
X575727Y437451D01*
X577579Y438796D01*
X579618Y439835D01*
X581795Y440543D01*
X583677Y440841D01*
X583677Y427883D01*
X570719Y427883D01*
G37*
%LPD*%
%LPC*%
G36*
X586723Y424837D02*
X586723Y424837D01*
X599681Y424837D01*
X599383Y422955D01*
X598675Y420778D01*
X597636Y418739D01*
X596291Y416887D01*
X594673Y415269D01*
X592821Y413924D01*
X590782Y412885D01*
X588605Y412177D01*
X586723Y411879D01*
X586723Y424837D01*
G37*
%LPD*%
%LPC*%
G36*
X581795Y412177D02*
X581795Y412177D01*
X579618Y412885D01*
X577579Y413924D01*
X575727Y415269D01*
X574109Y416887D01*
X572764Y418739D01*
X571725Y420778D01*
X571017Y422955D01*
X570719Y424837D01*
X583677Y424837D01*
X583677Y411879D01*
X581795Y412177D01*
G37*
%LPD*%
%LPC*%
G36*
X581795Y564177D02*
X581795Y564177D01*
X579618Y564885D01*
X577579Y565924D01*
X575727Y567269D01*
X574109Y568887D01*
X572764Y570739D01*
X571725Y572778D01*
X571017Y574955D01*
X570719Y576837D01*
X583677Y576837D01*
X583677Y563879D01*
X581795Y564177D01*
G37*
%LPD*%
%LPC*%
G36*
X591023Y486683D02*
X591023Y486683D01*
X591023Y495201D01*
X596334Y495201D01*
X596981Y495028D01*
X597560Y494693D01*
X598033Y494220D01*
X598368Y493641D01*
X598541Y492994D01*
X598541Y486683D01*
X591023Y486683D01*
G37*
%LPD*%
%LPC*%
G36*
X484523Y524183D02*
X484523Y524183D01*
X484523Y532701D01*
X489834Y532701D01*
X490481Y532528D01*
X491060Y532193D01*
X491533Y531720D01*
X491868Y531141D01*
X492041Y530494D01*
X492041Y524183D01*
X484523Y524183D01*
G37*
%LPD*%
%LPC*%
G36*
X484523Y512619D02*
X484523Y512619D01*
X484523Y521137D01*
X492041Y521137D01*
X492041Y514826D01*
X491868Y514179D01*
X491533Y513600D01*
X491060Y513127D01*
X490481Y512792D01*
X489834Y512619D01*
X484523Y512619D01*
G37*
%LPD*%
%LPC*%
G36*
X591023Y475119D02*
X591023Y475119D01*
X591023Y483637D01*
X598541Y483637D01*
X598541Y477326D01*
X598368Y476679D01*
X598033Y476100D01*
X597560Y475627D01*
X596981Y475292D01*
X596334Y475119D01*
X591023Y475119D01*
G37*
%LPD*%
%LPC*%
G36*
X580459Y486683D02*
X580459Y486683D01*
X580459Y492994D01*
X580632Y493641D01*
X580967Y494220D01*
X581440Y494693D01*
X582019Y495028D01*
X582666Y495201D01*
X587977Y495201D01*
X587977Y486683D01*
X580459Y486683D01*
G37*
%LPD*%
%LPC*%
G36*
X473959Y524183D02*
X473959Y524183D01*
X473959Y530494D01*
X474132Y531141D01*
X474467Y531720D01*
X474940Y532193D01*
X475519Y532528D01*
X476166Y532701D01*
X481477Y532701D01*
X481477Y524183D01*
X473959Y524183D01*
G37*
%LPD*%
%LPC*%
G36*
X582666Y475119D02*
X582666Y475119D01*
X582019Y475292D01*
X581440Y475627D01*
X580967Y476100D01*
X580632Y476679D01*
X580459Y477326D01*
X580459Y483637D01*
X587977Y483637D01*
X587977Y475119D01*
X582666Y475119D01*
G37*
%LPD*%
%LPC*%
G36*
X476166Y512619D02*
X476166Y512619D01*
X475519Y512792D01*
X474940Y513127D01*
X474467Y513600D01*
X474132Y514179D01*
X473959Y514826D01*
X473959Y521137D01*
X481477Y521137D01*
X481477Y512619D01*
X476166Y512619D01*
G37*
%LPD*%
%LPC*%
G36*
X182323Y605083D02*
X182323Y605083D01*
X182323Y613641D01*
X184976Y613641D01*
X190881Y607736D01*
X190881Y605083D01*
X182323Y605083D01*
G37*
%LPD*%
%LPC*%
G36*
X170719Y605083D02*
X170719Y605083D01*
X170719Y607736D01*
X176624Y613641D01*
X179277Y613641D01*
X179277Y605083D01*
X170719Y605083D01*
G37*
%LPD*%
%LPC*%
G36*
X182323Y593479D02*
X182323Y593479D01*
X182323Y602037D01*
X190881Y602037D01*
X190881Y599384D01*
X184976Y593479D01*
X182323Y593479D01*
G37*
%LPD*%
%LPC*%
G36*
X176624Y593479D02*
X176624Y593479D01*
X170719Y599384D01*
X170719Y602037D01*
X179277Y602037D01*
X179277Y593479D01*
X176624Y593479D01*
G37*
%LPD*%
%LPC*%
G36*
X631523Y249483D02*
X631523Y249483D01*
X631523Y257925D01*
X632361Y257793D01*
X633870Y257302D01*
X635283Y256582D01*
X636567Y255649D01*
X637689Y254527D01*
X638622Y253243D01*
X639342Y251830D01*
X639833Y250320D01*
X639965Y249483D01*
X631523Y249483D01*
G37*
%LPD*%
%LPC*%
G36*
X656923Y249483D02*
X656923Y249483D01*
X656923Y257925D01*
X657761Y257793D01*
X659270Y257302D01*
X660683Y256582D01*
X661967Y255649D01*
X663089Y254527D01*
X664022Y253243D01*
X664742Y251830D01*
X665233Y250320D01*
X665365Y249483D01*
X656923Y249483D01*
G37*
%LPD*%
%LPC*%
G36*
X656723Y462883D02*
X656723Y462883D01*
X656723Y471325D01*
X657561Y471193D01*
X659070Y470702D01*
X660483Y469982D01*
X661767Y469049D01*
X662889Y467927D01*
X663822Y466643D01*
X664542Y465230D01*
X665033Y463721D01*
X665165Y462883D01*
X656723Y462883D01*
G37*
%LPD*%
%LPC*%
G36*
X631523Y173283D02*
X631523Y173283D01*
X631523Y181725D01*
X632361Y181593D01*
X633870Y181102D01*
X635283Y180382D01*
X636567Y179449D01*
X637689Y178327D01*
X638622Y177043D01*
X639342Y175630D01*
X639833Y174121D01*
X639965Y173283D01*
X631523Y173283D01*
G37*
%LPD*%
%LPC*%
G36*
X656723Y569883D02*
X656723Y569883D01*
X656723Y578325D01*
X657561Y578193D01*
X659070Y577702D01*
X660483Y576982D01*
X661767Y576049D01*
X662889Y574927D01*
X663822Y573643D01*
X664542Y572230D01*
X665033Y570721D01*
X665165Y569883D01*
X656723Y569883D01*
G37*
%LPD*%
%LPC*%
G36*
X645435Y249483D02*
X645435Y249483D01*
X645567Y250320D01*
X646058Y251830D01*
X646778Y253243D01*
X647711Y254527D01*
X648833Y255649D01*
X650117Y256582D01*
X651530Y257302D01*
X653039Y257793D01*
X653877Y257925D01*
X653877Y249483D01*
X645435Y249483D01*
G37*
%LPD*%
%LPC*%
G36*
X620035Y249483D02*
X620035Y249483D01*
X620167Y250320D01*
X620658Y251830D01*
X621378Y253243D01*
X622311Y254527D01*
X623433Y255649D01*
X624717Y256582D01*
X626130Y257302D01*
X627639Y257793D01*
X628477Y257925D01*
X628477Y249483D01*
X620035Y249483D01*
G37*
%LPD*%
%LPC*%
G36*
X645235Y569883D02*
X645235Y569883D01*
X645367Y570721D01*
X645858Y572230D01*
X646578Y573643D01*
X647511Y574927D01*
X648633Y576049D01*
X649917Y576982D01*
X651330Y577702D01*
X652839Y578193D01*
X653677Y578325D01*
X653677Y569883D01*
X645235Y569883D01*
G37*
%LPD*%
%LPC*%
G36*
X631523Y246437D02*
X631523Y246437D01*
X639965Y246437D01*
X639833Y245599D01*
X639342Y244090D01*
X638622Y242677D01*
X637689Y241393D01*
X636567Y240271D01*
X635283Y239338D01*
X633870Y238618D01*
X632361Y238127D01*
X631523Y237995D01*
X631523Y246437D01*
G37*
%LPD*%
%LPC*%
G36*
X620035Y173283D02*
X620035Y173283D01*
X620167Y174121D01*
X620658Y175630D01*
X621378Y177043D01*
X622311Y178327D01*
X623433Y179449D01*
X624717Y180382D01*
X626130Y181102D01*
X627639Y181593D01*
X628477Y181725D01*
X628477Y173283D01*
X620035Y173283D01*
G37*
%LPD*%
%LPC*%
G36*
X656923Y246437D02*
X656923Y246437D01*
X665365Y246437D01*
X665233Y245599D01*
X664742Y244090D01*
X664022Y242677D01*
X663089Y241393D01*
X661967Y240271D01*
X660683Y239338D01*
X659270Y238618D01*
X657761Y238127D01*
X656923Y237995D01*
X656923Y246437D01*
G37*
%LPD*%
%LPC*%
G36*
X645235Y462883D02*
X645235Y462883D01*
X645367Y463721D01*
X645858Y465230D01*
X646578Y466643D01*
X647511Y467927D01*
X648633Y469049D01*
X649917Y469982D01*
X651330Y470702D01*
X652839Y471193D01*
X653677Y471325D01*
X653677Y462883D01*
X645235Y462883D01*
G37*
%LPD*%
%LPC*%
G36*
X656723Y566837D02*
X656723Y566837D01*
X665165Y566837D01*
X665033Y565999D01*
X664542Y564490D01*
X663822Y563077D01*
X662889Y561793D01*
X661767Y560671D01*
X660483Y559738D01*
X659070Y559018D01*
X657561Y558527D01*
X656723Y558395D01*
X656723Y566837D01*
G37*
%LPD*%
%LPC*%
G36*
X631523Y170237D02*
X631523Y170237D01*
X639965Y170237D01*
X639833Y169399D01*
X639342Y167890D01*
X638622Y166477D01*
X637689Y165193D01*
X636567Y164071D01*
X635283Y163138D01*
X633870Y162418D01*
X632361Y161927D01*
X631523Y161795D01*
X631523Y170237D01*
G37*
%LPD*%
%LPC*%
G36*
X656723Y459837D02*
X656723Y459837D01*
X665165Y459837D01*
X665033Y458999D01*
X664542Y457490D01*
X663822Y456077D01*
X662889Y454793D01*
X661767Y453671D01*
X660483Y452738D01*
X659070Y452018D01*
X657561Y451527D01*
X656723Y451395D01*
X656723Y459837D01*
G37*
%LPD*%
%LPC*%
G36*
X653039Y238127D02*
X653039Y238127D01*
X651530Y238618D01*
X650117Y239338D01*
X648833Y240271D01*
X647711Y241393D01*
X646778Y242677D01*
X646058Y244090D01*
X645567Y245599D01*
X645435Y246437D01*
X653877Y246437D01*
X653877Y237995D01*
X653039Y238127D01*
G37*
%LPD*%
%LPC*%
G36*
X627639Y161927D02*
X627639Y161927D01*
X626130Y162418D01*
X624717Y163138D01*
X623433Y164071D01*
X622311Y165193D01*
X621378Y166477D01*
X620658Y167890D01*
X620167Y169399D01*
X620035Y170237D01*
X628477Y170237D01*
X628477Y161795D01*
X627639Y161927D01*
G37*
%LPD*%
%LPC*%
G36*
X652839Y558527D02*
X652839Y558527D01*
X651330Y559018D01*
X649917Y559738D01*
X648633Y560671D01*
X647511Y561793D01*
X646578Y563077D01*
X645858Y564490D01*
X645367Y565999D01*
X645235Y566837D01*
X653677Y566837D01*
X653677Y558395D01*
X652839Y558527D01*
G37*
%LPD*%
%LPC*%
G36*
X627639Y238127D02*
X627639Y238127D01*
X626130Y238618D01*
X624717Y239338D01*
X623433Y240271D01*
X622311Y241393D01*
X621378Y242677D01*
X620658Y244090D01*
X620167Y245599D01*
X620035Y246437D01*
X628477Y246437D01*
X628477Y237995D01*
X627639Y238127D01*
G37*
%LPD*%
%LPC*%
G36*
X652839Y451527D02*
X652839Y451527D01*
X651330Y452018D01*
X649917Y452738D01*
X648633Y453671D01*
X647511Y454793D01*
X646578Y456077D01*
X645858Y457490D01*
X645367Y458999D01*
X645235Y459837D01*
X653677Y459837D01*
X653677Y451395D01*
X652839Y451527D01*
G37*
%LPD*%
%LPC*%
G36*
X129023Y31683D02*
X129023Y31683D01*
X129023Y38351D01*
X129930Y38171D01*
X131446Y37543D01*
X132811Y36631D01*
X133971Y35471D01*
X134883Y34106D01*
X135511Y32590D01*
X135691Y31683D01*
X129023Y31683D01*
G37*
%LPD*%
%LPC*%
G36*
X31523Y266683D02*
X31523Y266683D01*
X31523Y273351D01*
X32430Y273171D01*
X33946Y272543D01*
X35311Y271631D01*
X36471Y270471D01*
X37383Y269106D01*
X38011Y267590D01*
X38191Y266683D01*
X31523Y266683D01*
G37*
%LPD*%
%LPC*%
G36*
X26523Y394183D02*
X26523Y394183D01*
X26523Y400851D01*
X27430Y400671D01*
X28946Y400043D01*
X30311Y399131D01*
X31471Y397971D01*
X32383Y396606D01*
X33011Y395090D01*
X33191Y394183D01*
X26523Y394183D01*
G37*
%LPD*%
%LPC*%
G36*
X464023Y31683D02*
X464023Y31683D01*
X464023Y38351D01*
X464930Y38171D01*
X466446Y37543D01*
X467811Y36631D01*
X468971Y35471D01*
X469883Y34106D01*
X470511Y32590D01*
X470691Y31683D01*
X464023Y31683D01*
G37*
%LPD*%
%LPC*%
G36*
X251523Y31683D02*
X251523Y31683D01*
X251523Y38351D01*
X252430Y38171D01*
X253946Y37543D01*
X255311Y36631D01*
X256471Y35471D01*
X257383Y34106D01*
X258011Y32590D01*
X258191Y31683D01*
X251523Y31683D01*
G37*
%LPD*%
%LPC*%
G36*
X26523Y391137D02*
X26523Y391137D01*
X33191Y391137D01*
X33011Y390230D01*
X32383Y388714D01*
X31471Y387349D01*
X30311Y386189D01*
X28946Y385277D01*
X27430Y384649D01*
X26523Y384469D01*
X26523Y391137D01*
G37*
%LPD*%
%LPC*%
G36*
X241809Y31683D02*
X241809Y31683D01*
X241989Y32590D01*
X242617Y34106D01*
X243529Y35471D01*
X244689Y36631D01*
X246054Y37543D01*
X247570Y38171D01*
X248477Y38351D01*
X248477Y31683D01*
X241809Y31683D01*
G37*
%LPD*%
%LPC*%
G36*
X251523Y28637D02*
X251523Y28637D01*
X258191Y28637D01*
X258011Y27730D01*
X257383Y26214D01*
X256471Y24849D01*
X255311Y23689D01*
X253946Y22777D01*
X252430Y22149D01*
X251523Y21969D01*
X251523Y28637D01*
G37*
%LPD*%
%LPC*%
G36*
X464023Y28637D02*
X464023Y28637D01*
X470691Y28637D01*
X470511Y27730D01*
X469883Y26214D01*
X468971Y24849D01*
X467811Y23689D01*
X466446Y22777D01*
X464930Y22149D01*
X464023Y21969D01*
X464023Y28637D01*
G37*
%LPD*%
%LPC*%
G36*
X31523Y263637D02*
X31523Y263637D01*
X38191Y263637D01*
X38011Y262730D01*
X37383Y261214D01*
X36471Y259849D01*
X35311Y258689D01*
X33946Y257777D01*
X32430Y257149D01*
X31523Y256969D01*
X31523Y263637D01*
G37*
%LPD*%
%LPC*%
G36*
X454309Y31683D02*
X454309Y31683D01*
X454489Y32590D01*
X455117Y34106D01*
X456029Y35471D01*
X457189Y36631D01*
X458554Y37543D01*
X460070Y38171D01*
X460977Y38351D01*
X460977Y31683D01*
X454309Y31683D01*
G37*
%LPD*%
%LPC*%
G36*
X21809Y266683D02*
X21809Y266683D01*
X21989Y267590D01*
X22617Y269106D01*
X23529Y270471D01*
X24689Y271631D01*
X26054Y272543D01*
X27570Y273171D01*
X28477Y273351D01*
X28477Y266683D01*
X21809Y266683D01*
G37*
%LPD*%
%LPC*%
G36*
X129023Y28637D02*
X129023Y28637D01*
X135691Y28637D01*
X135511Y27730D01*
X134883Y26214D01*
X133971Y24849D01*
X132811Y23689D01*
X131446Y22777D01*
X129930Y22149D01*
X129023Y21969D01*
X129023Y28637D01*
G37*
%LPD*%
%LPC*%
G36*
X119309Y31683D02*
X119309Y31683D01*
X119489Y32590D01*
X120117Y34106D01*
X121029Y35471D01*
X122189Y36631D01*
X123554Y37543D01*
X125070Y38171D01*
X125977Y38351D01*
X125977Y31683D01*
X119309Y31683D01*
G37*
%LPD*%
%LPC*%
G36*
X16809Y394183D02*
X16809Y394183D01*
X16989Y395090D01*
X17617Y396606D01*
X18529Y397971D01*
X19689Y399131D01*
X21054Y400043D01*
X22570Y400671D01*
X23477Y400851D01*
X23477Y394183D01*
X16809Y394183D01*
G37*
%LPD*%
%LPC*%
G36*
X247570Y22149D02*
X247570Y22149D01*
X246054Y22777D01*
X244689Y23689D01*
X243529Y24849D01*
X242617Y26214D01*
X241989Y27730D01*
X241809Y28637D01*
X248477Y28637D01*
X248477Y21969D01*
X247570Y22149D01*
G37*
%LPD*%
%LPC*%
G36*
X460070Y22149D02*
X460070Y22149D01*
X458554Y22777D01*
X457189Y23689D01*
X456029Y24849D01*
X455117Y26214D01*
X454489Y27730D01*
X454309Y28637D01*
X460977Y28637D01*
X460977Y21969D01*
X460070Y22149D01*
G37*
%LPD*%
%LPC*%
G36*
X27570Y257149D02*
X27570Y257149D01*
X26054Y257777D01*
X24689Y258689D01*
X23529Y259849D01*
X22617Y261214D01*
X21989Y262730D01*
X21809Y263637D01*
X28477Y263637D01*
X28477Y256969D01*
X27570Y257149D01*
G37*
%LPD*%
%LPC*%
G36*
X125070Y22149D02*
X125070Y22149D01*
X123554Y22777D01*
X122189Y23689D01*
X121029Y24849D01*
X120117Y26214D01*
X119489Y27730D01*
X119309Y28637D01*
X125977Y28637D01*
X125977Y21969D01*
X125070Y22149D01*
G37*
%LPD*%
%LPC*%
G36*
X22570Y384649D02*
X22570Y384649D01*
X21054Y385277D01*
X19689Y386189D01*
X18529Y387349D01*
X17617Y388714D01*
X16989Y390230D01*
X16809Y391137D01*
X23477Y391137D01*
X23477Y384469D01*
X22570Y384649D01*
G37*
%LPD*%
%LPC*%
G36*
X655399Y247959D02*
X655399Y247959D01*
X655399Y247961D01*
X655401Y247961D01*
X655401Y247959D01*
X655399Y247959D01*
G37*
%LPD*%
%LPC*%
G36*
X249999Y30159D02*
X249999Y30159D01*
X249999Y30161D01*
X250001Y30161D01*
X250001Y30159D01*
X249999Y30159D01*
G37*
%LPD*%
%LPC*%
G36*
X29999Y265159D02*
X29999Y265159D01*
X29999Y265161D01*
X30001Y265161D01*
X30001Y265159D01*
X29999Y265159D01*
G37*
%LPD*%
%LPC*%
G36*
X50799Y522459D02*
X50799Y522459D01*
X50799Y522461D01*
X50801Y522461D01*
X50801Y522459D01*
X50799Y522459D01*
G37*
%LPD*%
%LPC*%
G36*
X24999Y392659D02*
X24999Y392659D01*
X24999Y392661D01*
X25001Y392661D01*
X25001Y392659D01*
X24999Y392659D01*
G37*
%LPD*%
%LPC*%
G36*
X655199Y568359D02*
X655199Y568359D01*
X655199Y568361D01*
X655201Y568361D01*
X655201Y568359D01*
X655199Y568359D01*
G37*
%LPD*%
%LPC*%
G36*
X585199Y578359D02*
X585199Y578359D01*
X585199Y578361D01*
X585201Y578361D01*
X585201Y578359D01*
X585199Y578359D01*
G37*
%LPD*%
%LPC*%
G36*
X180799Y603559D02*
X180799Y603559D01*
X180799Y603561D01*
X180801Y603561D01*
X180801Y603559D01*
X180799Y603559D01*
G37*
%LPD*%
%LPC*%
G36*
X127499Y30159D02*
X127499Y30159D01*
X127499Y30161D01*
X127501Y30161D01*
X127501Y30159D01*
X127499Y30159D01*
G37*
%LPD*%
%LPC*%
G36*
X629999Y171759D02*
X629999Y171759D01*
X629999Y171761D01*
X630001Y171761D01*
X630001Y171759D01*
X629999Y171759D01*
G37*
%LPD*%
%LPC*%
G36*
X462499Y30159D02*
X462499Y30159D01*
X462499Y30161D01*
X462501Y30161D01*
X462501Y30159D01*
X462499Y30159D01*
G37*
%LPD*%
%LPC*%
G36*
X80799Y475459D02*
X80799Y475459D01*
X80799Y475461D01*
X80801Y475461D01*
X80801Y475459D01*
X80799Y475459D01*
G37*
%LPD*%
%LPC*%
G36*
X655199Y461359D02*
X655199Y461359D01*
X655199Y461361D01*
X655201Y461361D01*
X655201Y461359D01*
X655199Y461359D01*
G37*
%LPD*%
%LPC*%
G36*
X585199Y426359D02*
X585199Y426359D01*
X585199Y426361D01*
X585201Y426361D01*
X585201Y426359D01*
X585199Y426359D01*
G37*
%LPD*%
%LPC*%
G36*
X629999Y247959D02*
X629999Y247959D01*
X629999Y247961D01*
X630001Y247961D01*
X630001Y247959D01*
X629999Y247959D01*
G37*
%LPD*%
%LPC*%
G36*
X482999Y522659D02*
X482999Y522659D01*
X482999Y522661D01*
X483001Y522661D01*
X483001Y522659D01*
X482999Y522659D01*
G37*
%LPD*%
%LPC*%
G36*
X589499Y485159D02*
X589499Y485159D01*
X589499Y485161D01*
X589501Y485161D01*
X589501Y485159D01*
X589499Y485159D01*
G37*
%LPD*%
D10*
X502000Y522660D03*
X483000Y522660D03*
D11*
X526350Y547010D03*
X551750Y534310D03*
X526350Y521610D03*
X526350Y496210D03*
X526350Y470810D03*
X551750Y508910D03*
X551750Y483510D03*
X551750Y458110D03*
D12*
X585200Y426360D03*
X585200Y578360D03*
D13*
X655200Y436360D03*
X655200Y568360D03*
X655200Y543360D03*
X655200Y461360D03*
D14*
X110800Y522460D03*
X50800Y522460D03*
X80800Y475460D03*
D15*
X180800Y603560D03*
X180800Y578160D03*
X180800Y552760D03*
X180800Y527360D03*
X180800Y501960D03*
X180800Y476560D03*
X180800Y451160D03*
X180800Y425760D03*
X180800Y400360D03*
X180800Y374960D03*
X180800Y349560D03*
X180800Y324160D03*
X180800Y298760D03*
X180800Y273360D03*
X180800Y247960D03*
X180800Y222560D03*
X180800Y197160D03*
X180800Y171760D03*
X180800Y146360D03*
X180800Y120960D03*
X409400Y120960D03*
X409400Y146360D03*
X409400Y171760D03*
X409400Y197160D03*
X409400Y222560D03*
X409400Y247960D03*
X409400Y273360D03*
X409400Y298760D03*
X409400Y324160D03*
X409400Y349560D03*
X409400Y374960D03*
X409400Y400360D03*
X409400Y425760D03*
X409400Y451160D03*
X409400Y476560D03*
X409400Y501960D03*
X409400Y527360D03*
X409400Y552760D03*
X409400Y578160D03*
X409400Y603560D03*
D13*
X655400Y146360D03*
X630000Y146360D03*
X655400Y171760D03*
X630000Y171760D03*
X655400Y197160D03*
X630000Y197160D03*
X655400Y222560D03*
X630000Y222560D03*
X655400Y247960D03*
X630000Y247960D03*
D10*
X570500Y485160D03*
X589500Y485160D03*
D16*
X626500Y485160D03*
X643500Y485160D03*
X626500Y515160D03*
X643500Y515160D03*
D17*
X25000Y367660D03*
X25000Y392660D03*
X350000Y30160D03*
X325000Y30160D03*
X300000Y30160D03*
X275000Y30160D03*
X250000Y30160D03*
X30000Y215160D03*
X30000Y240160D03*
X30000Y265160D03*
X487500Y30160D03*
X462500Y30160D03*
X152500Y30160D03*
X127500Y30160D03*
D18*
X409400Y451160D02*
X465000Y506760D01*
X465000Y530160D01*
X481850Y547010D01*
X526350Y547010D01*
D19*
X490000Y150160D03*
X465000Y190160D03*
D20*
X475000Y295160D03*
D18*
X553400Y485160D02*
X570500Y485160D01*
X553400Y485160D02*
X551750Y483510D01*
X570500Y485160D02*
X571000Y539160D01*
X570500Y485160D02*
X571000Y451160D01*
X555000Y435160D01*
X515000Y435160D01*
X506600Y603560D02*
X409400Y603560D01*
X506600Y603560D02*
X571000Y539160D01*
X501500Y448660D02*
X515000Y435160D01*
X501500Y448660D02*
X502000Y522660D01*
X525300Y522660D01*
X526350Y521610D01*
X180800Y578160D02*
X166500Y578160D01*
X162700Y522460D02*
X110800Y522460D01*
X162700Y522460D02*
X170000Y515160D01*
X210000Y515160D01*
X230000Y495160D01*
X230000Y405160D01*
D20*
X330000Y305160D03*
D18*
X162700Y574360D02*
X166500Y578160D01*
X162700Y574360D02*
X162700Y522460D01*
X230000Y405160D02*
X293450Y341710D01*
X330000Y305160D01*
X293450Y341710D02*
X293450Y72310D01*
X325000Y40760D02*
X325000Y30160D01*
X325000Y40760D02*
X293450Y72310D01*
D19*
X575000Y240160D03*
X565000Y200160D03*
D18*
X643500Y515160D02*
X680000Y515160D01*
X685000Y510160D01*
X685000Y430160D01*
X622500Y367660D01*
X425200Y339960D02*
X409400Y324160D01*
X425200Y339960D02*
X434800Y339960D01*
X462500Y367660D02*
X622500Y367660D01*
X462500Y367660D02*
X434800Y339960D01*
X620000Y375160D02*
X675000Y430160D01*
X675000Y470160D01*
X660000Y485160D01*
X643500Y485160D01*
X620000Y375160D02*
X460000Y375160D01*
X434400Y349560D02*
X409400Y349560D01*
X434400Y349560D02*
X460000Y375160D01*
X640000Y445160D02*
X648800Y436360D01*
X655200Y436360D01*
X626500Y468660D02*
X626500Y485160D01*
X640000Y455160D02*
X640000Y445160D01*
X640000Y455160D02*
X626500Y468660D01*
X626500Y515160D02*
X626500Y531660D01*
X638200Y543360D02*
X655200Y543360D01*
X638200Y543360D02*
X626500Y531660D01*
M02*
