G04 EAGLE Gerber X2 export*
%TF.Part,Single*%
%TF.FileFunction,Copper,L1,Top,Mixed*%
%TF.FilePolarity,Positive*%
%TF.GenerationSoftware,Autodesk,EAGLE,9.1.1*%
%TF.CreationDate,2018-08-07T16:54:33Z*%
G75*
%MOMM*%
%FSLAX34Y34*%
%LPD*%
%AMOC8*
5,1,8,0,0,1.08239X$1,22.5*%
G01*
%ADD10C,1.879600*%
%ADD11C,2.400000*%
%ADD12C,1.508000*%
%ADD13C,4.318000*%
%ADD14P,1.632244X8X22.500000*%
%ADD15R,1.520000X0.610000*%
%ADD16R,0.900000X0.800000*%
%ADD17R,1.100000X1.000000*%
%ADD18C,1.158000*%
%ADD19C,0.304800*%
%ADD20C,0.704800*%
%ADD21C,0.654800*%


D10*
X526350Y547010D03*
X551750Y534310D03*
X526350Y521610D03*
X526350Y496210D03*
X526350Y470810D03*
X551750Y508910D03*
X551750Y483510D03*
X551750Y458110D03*
D11*
X585200Y426360D03*
X585200Y578360D03*
D12*
X655200Y436360D03*
X655200Y568360D03*
X655200Y543360D03*
X655200Y461360D03*
D13*
X110800Y522460D03*
X50800Y522460D03*
X80800Y475460D03*
D14*
X180800Y603560D03*
X180800Y578160D03*
X180800Y552760D03*
X180800Y527360D03*
X180800Y501960D03*
X180800Y476560D03*
X180800Y451160D03*
X180800Y425760D03*
X180800Y400360D03*
X180800Y374960D03*
X180800Y349560D03*
X180800Y324160D03*
X180800Y298760D03*
X180800Y273360D03*
X180800Y247960D03*
X180800Y222560D03*
X180800Y197160D03*
X180800Y171760D03*
X180800Y146360D03*
X180800Y120960D03*
X409400Y120960D03*
X409400Y146360D03*
X409400Y171760D03*
X409400Y197160D03*
X409400Y222560D03*
X409400Y247960D03*
X409400Y273360D03*
X409400Y298760D03*
X409400Y324160D03*
X409400Y349560D03*
X409400Y374960D03*
X409400Y400360D03*
X409400Y425760D03*
X409400Y451160D03*
X409400Y476560D03*
X409400Y501960D03*
X409400Y527360D03*
X409400Y552760D03*
X409400Y578160D03*
X409400Y603560D03*
D15*
X503466Y251210D03*
X557934Y251210D03*
X503466Y238510D03*
X503466Y225810D03*
X557934Y238510D03*
X557934Y225810D03*
X503466Y213110D03*
X557934Y213110D03*
D12*
X655400Y146360D03*
X630000Y146360D03*
X655400Y171760D03*
X630000Y171760D03*
X655400Y197160D03*
X630000Y197160D03*
X655400Y222560D03*
X630000Y222560D03*
X655400Y247960D03*
X630000Y247960D03*
D16*
X459500Y259360D03*
X459500Y240360D03*
X480500Y249860D03*
X459500Y221260D03*
X459500Y202260D03*
X480500Y211760D03*
D17*
X568800Y182160D03*
X568800Y165160D03*
X568800Y279860D03*
X568800Y296860D03*
X492600Y296860D03*
X492600Y279860D03*
X492600Y165160D03*
X492600Y182160D03*
X530700Y182160D03*
X530700Y165160D03*
X530700Y279860D03*
X530700Y296860D03*
D18*
X25000Y367660D03*
X25000Y392660D03*
X350000Y30160D03*
X325000Y30160D03*
X300000Y30160D03*
X275000Y30160D03*
X250000Y30160D03*
X30000Y215160D03*
X30000Y240160D03*
X30000Y265160D03*
X487500Y30160D03*
X462500Y30160D03*
X152500Y30160D03*
X127500Y30160D03*
D19*
X409400Y501960D02*
X495200Y501960D01*
X526350Y470810D01*
X493600Y476560D02*
X409400Y476560D01*
X493600Y476560D02*
X520000Y450160D01*
X543800Y450160D01*
X551750Y458110D01*
X580000Y520160D02*
X565850Y534310D01*
X551750Y534310D01*
X580000Y455160D02*
X550000Y425160D01*
X410000Y425160D01*
X409400Y425760D01*
X580000Y455160D02*
X580000Y520160D01*
X492600Y165160D02*
X492600Y152760D01*
X490000Y150160D01*
D20*
X490000Y150160D03*
D19*
X464800Y240360D02*
X459500Y240360D01*
X464800Y240360D02*
X470000Y235160D01*
X470000Y210160D01*
X462100Y202260D02*
X459500Y202260D01*
X462100Y202260D02*
X470000Y210160D01*
X459500Y202260D02*
X459500Y195660D01*
X465000Y190160D01*
D20*
X465000Y190160D03*
D19*
X476700Y296860D02*
X492600Y296860D01*
X476700Y296860D02*
X475000Y295160D01*
D21*
X475000Y295160D03*
D19*
X30000Y215160D02*
X17780Y227380D01*
X368300Y568960D02*
X402900Y603560D01*
X409400Y603560D01*
X25400Y251460D02*
X17780Y243840D01*
X17780Y227380D01*
X25400Y251460D02*
X52070Y251460D01*
X162560Y361950D01*
X228600Y361950D01*
X368300Y501650D01*
X368300Y568960D01*
X450000Y180160D02*
X450000Y155160D01*
X450000Y180160D02*
X490600Y180160D01*
X492600Y182160D01*
X415800Y120960D02*
X409400Y120960D01*
X415800Y120960D02*
X450000Y155160D01*
X450000Y211760D02*
X459500Y221260D01*
X450000Y211760D02*
X450000Y180160D01*
X409400Y171760D02*
X393700Y156060D01*
X393700Y99060D01*
X444000Y73660D02*
X487500Y30160D01*
X444000Y73660D02*
X419100Y73660D01*
X393700Y99060D01*
X350000Y137760D02*
X409400Y197160D01*
X350000Y137760D02*
X350000Y137160D01*
X350000Y30160D01*
X300000Y113160D02*
X409400Y222560D01*
X300000Y113160D02*
X300000Y30160D01*
X530700Y296860D02*
X538300Y296860D01*
X540000Y295160D01*
X540000Y170160D01*
X535000Y165160D02*
X530700Y165160D01*
X535000Y165160D02*
X540000Y170160D01*
D21*
X330000Y305160D03*
D19*
X395000Y305160D01*
X400204Y310364D01*
X517196Y310364D02*
X530700Y296860D01*
X517196Y310364D02*
X400204Y310364D01*
X173000Y240160D02*
X30000Y240160D01*
X173000Y240160D02*
X180800Y247960D01*
X557934Y225810D02*
X569350Y225810D01*
X598000Y197160D02*
X630000Y197160D01*
X597500Y197660D02*
X569350Y225810D01*
X597500Y197660D02*
X598000Y197160D01*
X597500Y197660D02*
X584300Y197660D01*
X568800Y182160D01*
X557934Y251210D02*
X568800Y262076D01*
X568800Y279860D01*
X578950Y251210D02*
X557934Y251210D01*
X607600Y222560D02*
X630000Y222560D01*
X607600Y222560D02*
X578950Y251210D01*
X459500Y259360D02*
X449200Y259360D01*
X472100Y259360D02*
X492600Y279860D01*
X472100Y259360D02*
X459500Y259360D01*
X435000Y171960D02*
X409400Y146360D01*
X435000Y171960D02*
X435000Y245160D01*
X449200Y259360D01*
X568800Y165160D02*
X587600Y146360D01*
X630000Y146360D01*
X655400Y146360D01*
X670000Y160960D01*
X670000Y182560D02*
X655400Y197160D01*
X670000Y182560D02*
X670000Y160960D01*
X655400Y197160D02*
X655400Y222560D01*
X670000Y237160D01*
X670000Y265160D01*
X638300Y296860D01*
X568800Y296860D01*
X83100Y425760D02*
X25000Y367660D01*
X83100Y425760D02*
X180800Y425760D01*
X557934Y213110D02*
X557934Y207226D01*
X565000Y200160D01*
X557934Y238510D02*
X573350Y238510D01*
X575000Y240160D01*
D20*
X575000Y240160D03*
X565000Y200160D03*
D19*
X491850Y238510D02*
X480500Y249860D01*
X491850Y238510D02*
X503466Y238510D01*
X481850Y213110D02*
X480500Y211760D01*
X481850Y213110D02*
X503466Y213110D01*
X503466Y225810D02*
X519350Y225810D01*
X530700Y214460D02*
X530700Y182160D01*
X530700Y214460D02*
X519350Y225810D01*
X503466Y252626D02*
X530700Y279860D01*
X503466Y252626D02*
X503466Y251210D01*
X409400Y247960D02*
X191600Y30160D01*
X152500Y30160D01*
M02*
