M48
;GenerationSoftware,Autodesk,EAGLE,9.1.1*%
;CreationDate,2018-08-07T16:54:33Z*%
FMAT,2
ICI,OFF
METRIC,TZ,000.000
T8C0.350
T7C0.400
T6C0.650
T5C1.000
T4C1.600
T3C2.997
T2C3.200
T1C3.800
%
G90
M71
T1
X66040Y3810
X3810Y62230
X3810Y3810
X66040Y62230
T2
X61525Y44541
X61525Y55971
T3
X8080Y47546
X5080Y52246
X11080Y52246
T4
X58520Y57836
X58520Y42636
T5
X63000Y19716
X52635Y54701
X55175Y53431
X52635Y52161
X52635Y49621
X52635Y47081
X55175Y50891
X55175Y48351
X55175Y45811
X65540Y22256
X63000Y22256
X65520Y43636
X65520Y56836
X65520Y54336
X65520Y46136
X65540Y24796
X63000Y24796
X18080Y17176
X18080Y60356
X18080Y57816
X18080Y55276
X18080Y52736
X18080Y50196
X18080Y47656
X18080Y45116
X18080Y42576
X18080Y40036
X18080Y37496
X18080Y34956
X18080Y32416
X18080Y29876
X18080Y27336
X18080Y24796
X18080Y22256
X18080Y19716
X65540Y19716
X18080Y14636
X18080Y12096
X40940Y12096
X40940Y14636
X40940Y17176
X40940Y19716
X40940Y22256
X40940Y24796
X40940Y27336
X40940Y29876
X40940Y32416
X40940Y34956
X40940Y37496
X40940Y40036
X40940Y42576
X40940Y45116
X40940Y47656
X40940Y50196
X40940Y52736
X40940Y55276
X40940Y57816
X40940Y60356
X65540Y14636
X63000Y14636
X65540Y17176
X63000Y17176
T6
X12750Y3016
X2500Y36766
X2500Y39266
X35000Y3016
X32500Y3016
X30000Y3016
X27500Y3016
X25000Y3016
X3000Y21516
X3000Y24016
X3000Y26516
X48750Y3016
X46250Y3016
X15250Y3016
T7
X56500Y20016
X57500Y24016
X46500Y19016
X49000Y15016
T8
X33000Y30516
X47500Y29516
M30