G04 EAGLE Gerber X2 export*
%TF.Part,Single*%
%TF.FileFunction,Legend,Bot,1*%
%TF.FilePolarity,Positive*%
%TF.GenerationSoftware,Autodesk,EAGLE,9.1.1*%
%TF.CreationDate,2018-08-07T16:54:33Z*%
G75*
%MOMM*%
%FSLAX34Y34*%
%LPD*%
%AMOC8*
5,1,8,0,0,1.08239X$1,22.5*%
G01*
%ADD10C,0.076200*%
%ADD11C,0.203200*%


D10*
X494845Y541541D02*
X496386Y543082D01*
X499468Y543082D01*
X501009Y541541D01*
X501009Y535377D01*
X499468Y533836D01*
X496386Y533836D01*
X494845Y535377D01*
X491801Y540000D02*
X488719Y543082D01*
X488719Y533836D01*
X491801Y533836D02*
X485637Y533836D01*
D11*
X564910Y467000D02*
X564910Y449220D01*
D10*
X585521Y468721D02*
X587062Y470262D01*
X590144Y470262D01*
X591685Y468721D01*
X591685Y462557D01*
X590144Y461016D01*
X587062Y461016D01*
X585521Y462557D01*
X582477Y461016D02*
X576313Y461016D01*
X582477Y461016D02*
X576313Y467180D01*
X576313Y468721D01*
X577854Y470262D01*
X580936Y470262D01*
X582477Y468721D01*
X616685Y479191D02*
X616685Y488437D01*
X612062Y488437D01*
X610521Y486896D01*
X610521Y483814D01*
X612062Y482273D01*
X616685Y482273D01*
X613603Y482273D02*
X610521Y479191D01*
X607477Y488437D02*
X601313Y488437D01*
X601313Y486896D01*
X607477Y480732D01*
X607477Y479191D01*
X616685Y509191D02*
X616685Y518437D01*
X612062Y518437D01*
X610521Y516896D01*
X610521Y513814D01*
X612062Y512273D01*
X616685Y512273D01*
X613603Y512273D02*
X610521Y509191D01*
X607477Y516896D02*
X605936Y518437D01*
X602854Y518437D01*
X601313Y516896D01*
X601313Y515355D01*
X602854Y513814D01*
X601313Y512273D01*
X601313Y510732D01*
X602854Y509191D01*
X605936Y509191D01*
X607477Y510732D01*
X607477Y512273D01*
X605936Y513814D01*
X607477Y515355D01*
X607477Y516896D01*
X605936Y513814D02*
X602854Y513814D01*
M02*
