G04 EAGLE Gerber X2 export*
%TF.Part,Single*%
%TF.FileFunction,Soldermask,Top,1*%
%TF.FilePolarity,Negative*%
%TF.GenerationSoftware,Autodesk,EAGLE,9.1.1*%
%TF.CreationDate,2018-08-07T16:54:33Z*%
G75*
%MOMM*%
%FSLAX34Y34*%
%LPD*%
%AMOC8*
5,1,8,0,0,1.08239X$1,22.5*%
G01*
%ADD10C,3.901600*%
%ADD11C,1.981200*%
%ADD12C,2.501600*%
%ADD13C,1.609600*%
%ADD14C,3.301600*%
%ADD15C,4.419600*%
%ADD16P,1.742215X8X22.500000*%
%ADD17R,1.625600X0.711200*%
%ADD18R,1.001600X0.901600*%
%ADD19R,1.201600X1.101600*%
%ADD20C,1.259600*%


D10*
X38100Y622300D03*
X38100Y38100D03*
X660400Y622300D03*
X660400Y38100D03*
D11*
X526350Y547010D03*
X551750Y534310D03*
X526350Y521610D03*
X526350Y496210D03*
X526350Y470810D03*
X551750Y508910D03*
X551750Y483510D03*
X551750Y458110D03*
D12*
X585200Y426360D03*
X585200Y578360D03*
D13*
X655200Y436360D03*
X655200Y568360D03*
X655200Y543360D03*
X655200Y461360D03*
D14*
X615250Y445410D03*
X615250Y559710D03*
D15*
X110800Y522460D03*
X50800Y522460D03*
X80800Y475460D03*
D16*
X180800Y603560D03*
X180800Y578160D03*
X180800Y552760D03*
X180800Y527360D03*
X180800Y501960D03*
X180800Y476560D03*
X180800Y451160D03*
X180800Y425760D03*
X180800Y400360D03*
X180800Y374960D03*
X180800Y349560D03*
X180800Y324160D03*
X180800Y298760D03*
X180800Y273360D03*
X180800Y247960D03*
X180800Y222560D03*
X180800Y197160D03*
X180800Y171760D03*
X180800Y146360D03*
X180800Y120960D03*
X409400Y120960D03*
X409400Y146360D03*
X409400Y171760D03*
X409400Y197160D03*
X409400Y222560D03*
X409400Y247960D03*
X409400Y273360D03*
X409400Y298760D03*
X409400Y324160D03*
X409400Y349560D03*
X409400Y374960D03*
X409400Y400360D03*
X409400Y425760D03*
X409400Y451160D03*
X409400Y476560D03*
X409400Y501960D03*
X409400Y527360D03*
X409400Y552760D03*
X409400Y578160D03*
X409400Y603560D03*
D17*
X503522Y251210D03*
X503522Y238510D03*
X503522Y225810D03*
X503522Y213110D03*
X557878Y213110D03*
X557878Y225810D03*
X557878Y238510D03*
X557878Y251210D03*
D13*
X655400Y146360D03*
X630000Y146360D03*
X655400Y171760D03*
X630000Y171760D03*
X655400Y197160D03*
X630000Y197160D03*
X655400Y222560D03*
X630000Y222560D03*
X655400Y247960D03*
X630000Y247960D03*
D18*
X459500Y259360D03*
X459500Y240360D03*
X480500Y249860D03*
X459500Y221260D03*
X459500Y202260D03*
X480500Y211760D03*
D19*
X568800Y182160D03*
X568800Y165160D03*
X568800Y279860D03*
X568800Y296860D03*
X492600Y296860D03*
X492600Y279860D03*
X492600Y165160D03*
X492600Y182160D03*
X530700Y182160D03*
X530700Y165160D03*
X530700Y279860D03*
X530700Y296860D03*
D20*
X25000Y367660D03*
X25000Y392660D03*
X350000Y30160D03*
X325000Y30160D03*
X300000Y30160D03*
X275000Y30160D03*
X250000Y30160D03*
X30000Y215160D03*
X30000Y240160D03*
X30000Y265160D03*
X487500Y30160D03*
X462500Y30160D03*
X152500Y30160D03*
X127500Y30160D03*
M02*
