M48
;GenerationSoftware,Autodesk,EAGLE,9.3.0*%
;CreationDate,2019-02-12T00:33:34Z*%
FMAT,2
ICI,OFF
METRIC,TZ,000.000
T5C0.550
T4C0.813
T3C1.000
T2C1.016
T1C3.797
%
G90
M71
T1
X3810Y43180
X3810Y3810
X85090Y43180
X85090Y3810
T2
X57150Y25400
X78740Y8890
X78740Y6350
X73660Y6223
X73660Y8763
X2464Y27000
X2464Y29540
X20244Y42240
X20244Y39700
X20320Y7620
X22860Y7620
X25400Y7620
X83820Y26670
X83820Y29210
X83820Y31750
X50038Y21336
X83820Y38100
X83820Y35560
X20320Y3302
X22860Y3302
X57150Y40640
X57150Y38100
X57150Y35560
X57150Y33020
X57150Y30480
X57150Y27940
X25400Y3302
X57150Y22860
X57150Y20320
X57150Y17780
X57150Y15240
X57150Y12700
X72390Y12700
X72390Y15240
X72390Y17780
X72390Y20320
X72390Y22860
X72390Y25400
X72390Y27940
X72390Y30480
X72390Y33020
X72390Y35560
X72390Y38100
X72390Y40640
X68199Y7620
X65659Y7620
X63119Y7620
X50038Y32766
X47498Y32766
X44958Y32766
X50038Y35306
X47498Y35306
X44958Y35306
X50038Y37846
X47498Y37846
X44958Y37846
X2464Y32080
X47498Y21336
X44958Y21336
X50038Y23876
X47498Y23876
X44958Y23876
X50038Y26416
X47498Y26416
X44958Y26416
X38100Y7620
X35560Y7620
X33020Y7620
X48260Y7620
X45720Y7620
X43180Y7620
X58420Y7620
X55880Y7620
X53340Y7620
X28829Y30226
X31369Y30226
X33909Y30226
X28829Y32766
X31369Y32766
X33909Y32766
X28829Y35306
X31369Y35306
X33909Y35306
X50038Y42926
X47498Y42926
X44958Y42926
X14986Y7620
X12446Y7620
X9906Y7620
X78740Y21590
X78740Y19050
X78740Y16510
X78740Y13970
X78740Y11430
T3
X41656Y2032
X44704Y2032
T4
X14986Y17272
X17018Y17272
T5
X78486Y43688
X44704Y40386
X17272Y5334
X27432Y5334
X49022Y40640
X35560Y15240
X8890Y20320
X58420Y43180
X69850Y25400
X39370Y29210
X53340Y30480
X53340Y12700
X52070Y20320
X59690Y19050
X78486Y40132
X76200Y26670
X52070Y15240
X32258Y18034
M30