M48
;GenerationSoftware,Autodesk,EAGLE,9.2.2*%
;CreationDate,2019-02-21T16:51:38Z*%
FMAT,2
ICI,OFF
METRIC,TZ,000.000
T9C0.381
T8C0.400
T7C0.700
T6C0.800
T5C0.965
T4C1.016
T3C1.750
T2C2.800
T1C4.763
%
G90
M71
T1
X4826Y-5080
X43942Y-5080
X43942Y67564
X4826Y67564
T2
X18923Y67310
X32004Y67310
T3
X32008Y57228
X32008Y60628
X18538Y57228
X18538Y60628
X31754Y36781
X31754Y40181
X18284Y36781
X18284Y40181
X31881Y46560
X31881Y49960
X18411Y46560
X18411Y49960
T4
X9906Y26162
X9906Y23622
X9906Y57531
X9906Y54991
X9906Y47625
X9906Y45085
X9906Y38100
X9906Y35560
T5
X40069Y46609
X40069Y50114
T6
X15626Y20243
X15626Y17703
X15626Y15163
X15626Y12623
X15626Y10083
X15626Y7543
X35946Y20243
X35946Y17703
X35946Y15163
X35946Y12623
X35946Y10083
X35946Y7543
T7
X8352Y12268
X8352Y10668
X8352Y9068
X7152Y11468
X7152Y9868
X3302Y7018
X3302Y14318
T8
X29337Y16383
X31242Y2794
X13335Y28829
X31242Y254
X28067Y10541
X29908Y21146
X36243Y23289
X23368Y18796
X21631Y18796
X3429Y40894
X33655Y20320
X22586Y25400
X33401Y16510
X21707Y14726
X19050Y28829
X22161Y15748
X29337Y15411
X33401Y15474
X18987Y26733
X26289Y25400
X40005Y39624
X30353Y-3302
X18542Y-508
X36830Y25527
X27686Y9271
X41783Y25654
X24257Y5969
X33655Y21844
X18717Y18288
X33528Y13970
X37846Y66612
X3429Y60579
X3429Y50673
X36195Y30734
X37211Y33528
X24765Y13843
T9
X23749Y29464
X24701Y17209
X23749Y33528
X18733Y16065
X18548Y17237
X17780Y21400
M30