G04 EAGLE Gerber RS-274X export*
G75*
%MOMM*%
%FSLAX34Y34*%
%LPD*%
%INTop Copper*%
%IPPOS*%
%AMOC8*
5,1,8,0,0,1.08239X$1,22.5*%
G01*
%ADD10C,1.879600*%
%ADD11R,0.630000X0.830000*%
%ADD12R,0.900000X1.000000*%
%ADD13R,1.000000X1.100000*%
%ADD14R,0.800000X0.800000*%
%ADD15R,1.100000X1.000000*%
%ADD16C,1.270000*%
%ADD17R,1.000000X0.700000*%
%ADD18R,0.700000X1.000000*%
%ADD19P,1.429621X8X202.500000*%
%ADD20C,1.320800*%
%ADD21C,0.304800*%
%ADD22C,0.406400*%
%ADD23C,0.956400*%
%ADD24C,1.500000*%


D10*
X571500Y406400D03*
X571500Y381000D03*
X571500Y355600D03*
X571500Y330200D03*
X571500Y304800D03*
X571500Y279400D03*
X571500Y254000D03*
X571500Y228600D03*
X571500Y203200D03*
X571500Y177800D03*
X571500Y152400D03*
X571500Y127000D03*
X723900Y127000D03*
X723900Y152400D03*
X723900Y177800D03*
X723900Y203200D03*
X723900Y228600D03*
X723900Y254000D03*
X723900Y279400D03*
X723900Y304800D03*
X723900Y330200D03*
X723900Y355600D03*
X723900Y381000D03*
X723900Y406400D03*
X681990Y76200D03*
X656590Y76200D03*
X631190Y76200D03*
X500380Y327660D03*
X474980Y327660D03*
X449580Y327660D03*
X500380Y353060D03*
X474980Y353060D03*
X449580Y353060D03*
X500380Y378460D03*
X474980Y378460D03*
X449580Y378460D03*
X500380Y213360D03*
X474980Y213360D03*
X449580Y213360D03*
X500380Y238760D03*
X474980Y238760D03*
X449580Y238760D03*
X500380Y264160D03*
X474980Y264160D03*
X449580Y264160D03*
X381000Y76200D03*
X355600Y76200D03*
X330200Y76200D03*
X482600Y76200D03*
X457200Y76200D03*
X431800Y76200D03*
X584200Y76200D03*
X558800Y76200D03*
X533400Y76200D03*
X288290Y302260D03*
X313690Y302260D03*
X339090Y302260D03*
X288290Y327660D03*
X313690Y327660D03*
X339090Y327660D03*
X288290Y353060D03*
X313690Y353060D03*
X339090Y353060D03*
X500380Y429260D03*
X474980Y429260D03*
X449580Y429260D03*
X149860Y76200D03*
X124460Y76200D03*
X99060Y76200D03*
X787400Y215900D03*
X787400Y190500D03*
X787400Y165100D03*
X787400Y139700D03*
X787400Y114300D03*
X787400Y88900D03*
X787400Y63500D03*
X736600Y62230D03*
X736600Y87630D03*
D11*
X868750Y215900D03*
X845750Y215900D03*
X868750Y177800D03*
X845750Y177800D03*
X868750Y139700D03*
X845750Y139700D03*
D10*
X24638Y270002D03*
X24638Y295402D03*
X24638Y320802D03*
X202438Y422402D03*
X202438Y397002D03*
D12*
X764360Y437260D03*
X764360Y421260D03*
X805360Y421260D03*
X805360Y437260D03*
D13*
X763660Y358140D03*
X780660Y358140D03*
X286140Y167640D03*
X303140Y167640D03*
D14*
X495300Y132200D03*
X495300Y147200D03*
D13*
X447920Y139700D03*
X430920Y139700D03*
D15*
X203200Y237100D03*
X203200Y220100D03*
D16*
X137160Y226060D03*
D15*
X50800Y173600D03*
X50800Y156600D03*
D17*
X229300Y165100D03*
X253300Y155600D03*
X253300Y174600D03*
D10*
X203200Y76200D03*
X228600Y76200D03*
X254000Y76200D03*
D16*
X50800Y203200D03*
X50800Y114300D03*
X208280Y185420D03*
D11*
X755580Y325120D03*
X778580Y325120D03*
D16*
X127000Y25400D03*
D18*
X787400Y304100D03*
X777900Y280100D03*
X796900Y280100D03*
D16*
X853440Y96520D03*
D10*
X838200Y266700D03*
X838200Y292100D03*
X838200Y317500D03*
X838200Y381000D03*
X838200Y355600D03*
D13*
X778900Y246380D03*
X795900Y246380D03*
D19*
X149860Y172720D03*
D20*
X170180Y172720D03*
D10*
X203200Y33020D03*
X228600Y33020D03*
X254000Y33020D03*
D21*
X482600Y76200D02*
X495300Y88900D01*
X495300Y132200D01*
D22*
X796900Y280100D02*
X834300Y317500D01*
X838200Y317500D01*
D23*
X322580Y180340D03*
D22*
X315840Y180340D02*
X303140Y167640D01*
X315840Y180340D02*
X322580Y180340D01*
D24*
X416560Y20320D03*
D23*
X784860Y436880D03*
D21*
X784860Y437260D02*
X764360Y437260D01*
X784860Y437260D02*
X784860Y436880D01*
X805360Y436880D01*
X805360Y437260D01*
D24*
X447040Y20320D03*
D22*
X292100Y266700D02*
X313690Y288290D01*
X571754Y63246D02*
X643636Y63246D01*
D21*
X127000Y25400D02*
X124460Y27940D01*
D22*
X124460Y53340D01*
X124460Y76200D01*
X203200Y237100D02*
X232800Y266700D01*
X292100Y266700D01*
X474980Y327660D02*
X474980Y353060D01*
X474980Y378460D01*
X474980Y238760D02*
X474980Y213360D01*
X313690Y302260D02*
X313690Y327660D01*
X313690Y302260D02*
X313690Y288290D01*
X313690Y327660D02*
X313690Y353060D01*
X364490Y403860D01*
X447040Y403860D01*
D23*
X447040Y403860D03*
D21*
X375380Y63500D02*
X375634Y63246D01*
D22*
X375380Y63500D02*
X368300Y63500D01*
X375634Y63246D02*
X444246Y63246D01*
X368300Y63500D02*
X355600Y76200D01*
X470154Y63246D02*
X545846Y63246D01*
X558800Y76200D01*
X457200Y76200D02*
X444246Y63246D01*
X457200Y76200D02*
X470154Y63246D01*
X558800Y76200D02*
X571754Y63246D01*
D23*
X172720Y53340D03*
X274320Y53340D03*
D22*
X332740Y53340D02*
X355600Y76200D01*
X332740Y53340D02*
X274320Y53340D01*
X172720Y53340D02*
X124460Y53340D01*
X643636Y63246D02*
X656590Y76200D01*
D21*
X462534Y251206D02*
X449580Y264160D01*
X505535Y251206D02*
X515441Y241300D01*
X505535Y251206D02*
X462534Y251206D01*
X533400Y241300D02*
X571500Y203200D01*
X533400Y241300D02*
X515441Y241300D01*
D23*
X490220Y406400D03*
D22*
X477520Y406400D01*
X418220Y152400D02*
X430920Y139700D01*
D23*
X355600Y152400D03*
D22*
X418220Y152400D01*
X355600Y127000D02*
X291846Y63246D01*
X355600Y127000D02*
X355600Y152400D01*
D23*
X88900Y203200D03*
D22*
X88900Y231140D01*
X24638Y295402D01*
D23*
X584200Y431800D03*
D21*
X291592Y63500D02*
X291846Y63246D01*
X259620Y63500D02*
X259366Y63246D01*
D22*
X259620Y63500D02*
X291592Y63500D01*
X259366Y63246D02*
X243840Y63246D01*
X241554Y63246D01*
X228600Y76200D01*
X88900Y203200D02*
X50800Y203200D01*
X584200Y431800D02*
X647700Y368300D01*
X698500Y317500D01*
X774700Y101600D02*
X787400Y88900D01*
X774700Y101600D02*
X711200Y101600D01*
X698500Y114300D01*
X698500Y254000D01*
X698500Y317500D01*
X50800Y203200D02*
X50800Y173600D01*
X850900Y311880D02*
X851154Y312134D01*
X850900Y311880D02*
X850900Y304800D01*
X851154Y312134D02*
X851154Y368046D01*
X838200Y381000D01*
X850900Y304800D02*
X838200Y292100D01*
X838200Y381000D02*
X803520Y381000D01*
X794190Y371670D01*
X780660Y358140D01*
X780660Y327200D01*
X778580Y325120D01*
X701040Y421640D02*
X647700Y368300D01*
X701040Y421640D02*
X736600Y421640D01*
X786570Y371670D01*
X794190Y371670D01*
X243840Y63246D02*
X228600Y48006D01*
X228600Y33020D01*
D23*
X698500Y254000D03*
X393700Y292100D03*
D22*
X462534Y391414D02*
X477520Y406400D01*
X462534Y391414D02*
X444214Y391414D01*
X393700Y340900D01*
X393700Y292100D01*
X393700Y340900D02*
X381540Y353060D01*
X339090Y353060D01*
D21*
X203200Y83820D02*
X203200Y76200D01*
X236220Y116840D02*
X279400Y116840D01*
X335280Y172720D01*
X566420Y172720D02*
X571500Y177800D01*
X236220Y116840D02*
X203200Y83820D01*
X335280Y172720D02*
X566420Y172720D01*
X491490Y285750D02*
X449580Y327660D01*
X491490Y285750D02*
X509323Y285750D01*
X515673Y279400D02*
X571500Y279400D01*
X515673Y279400D02*
X509323Y285750D01*
X462534Y340106D02*
X449580Y353060D01*
X462534Y340106D02*
X462534Y322505D01*
X494717Y290322D02*
X511217Y290322D01*
X517567Y283972D01*
X494717Y290322D02*
X462534Y322505D01*
X550672Y283972D02*
X571500Y304800D01*
X550672Y283972D02*
X517567Y283972D01*
D23*
X533400Y304800D03*
X533400Y127000D03*
D21*
X533400Y76200D01*
X533400Y304800D02*
X533400Y378639D01*
X457379Y429260D02*
X449580Y429260D01*
X495225Y416814D02*
X533400Y378639D01*
X469825Y416814D02*
X457379Y429260D01*
X469825Y416814D02*
X495225Y416814D01*
X605790Y101600D02*
X631190Y76200D01*
X605790Y101600D02*
X571500Y101600D01*
X520700Y152400D01*
D23*
X520700Y152400D03*
X520700Y203200D03*
D21*
X507821Y203200D02*
X505535Y200914D01*
X507821Y203200D02*
X520700Y203200D01*
X505535Y200914D02*
X462026Y200914D01*
X449580Y213360D01*
X358140Y302260D02*
X339090Y302260D01*
X505535Y276606D02*
X515441Y266700D01*
X505535Y276606D02*
X383794Y276606D01*
X358140Y302260D01*
X533400Y266700D02*
X571500Y228600D01*
X533400Y266700D02*
X515441Y266700D01*
X359918Y306832D02*
X339090Y327660D01*
X359918Y306832D02*
X360034Y306832D01*
X385688Y281178D02*
X507429Y281178D01*
X517335Y271272D01*
X385688Y281178D02*
X360034Y306832D01*
X554228Y271272D02*
X571500Y254000D01*
X554228Y271272D02*
X517335Y271272D01*
X99060Y76200D02*
X60960Y114300D01*
X50800Y114300D01*
X50800Y156600D01*
X187960Y165100D02*
X229300Y165100D01*
X187960Y165100D02*
X99060Y76200D01*
X787400Y165100D02*
X838200Y215900D01*
X845750Y215900D01*
X787400Y165100D02*
X749300Y203200D01*
X723900Y203200D01*
X723900Y177800D02*
X749300Y177800D01*
X787400Y139700D01*
X825500Y177800D01*
X845750Y177800D01*
X749300Y152400D02*
X723900Y152400D01*
X749300Y152400D02*
X787400Y114300D01*
X812800Y139700D01*
X845750Y139700D01*
X224536Y444500D02*
X202438Y422402D01*
X558800Y444500D02*
X596900Y406400D01*
X558800Y444500D02*
X224536Y444500D01*
D23*
X596900Y190500D03*
D21*
X596900Y406400D01*
X868750Y177800D02*
X868750Y139700D01*
X868750Y177800D02*
X868750Y215900D01*
X868750Y139700D02*
X838235Y109185D01*
X804996Y75946D01*
X782245Y75946D01*
X768529Y62230D01*
X723900Y228600D02*
X856050Y228600D01*
X868750Y215900D01*
X768529Y62230D02*
X736600Y62230D01*
X840775Y109185D02*
X853440Y96520D01*
X840775Y109185D02*
X838235Y109185D01*
X761120Y355600D02*
X763660Y358140D01*
X761120Y355600D02*
X723900Y355600D01*
X764360Y421260D02*
X787400Y421260D01*
X805360Y421260D01*
X787400Y421260D02*
X784860Y418720D01*
X784860Y401320D01*
D23*
X784860Y401320D03*
D22*
X203200Y220100D02*
X171890Y188790D01*
X170180Y187080D01*
X170180Y172720D01*
X171890Y191330D02*
X137160Y226060D01*
X171890Y191330D02*
X171890Y188790D01*
X455420Y147200D02*
X495300Y147200D01*
X455420Y147200D02*
X447920Y139700D01*
D21*
X317460Y238760D02*
X253300Y174600D01*
X317460Y238760D02*
X449580Y238760D01*
X253300Y174600D02*
X242480Y185420D01*
X208280Y185420D01*
D22*
X750500Y330200D02*
X755580Y325120D01*
X750500Y330200D02*
X723900Y330200D01*
D23*
X762000Y266700D03*
D21*
X775400Y280100D02*
X777900Y280100D01*
X775400Y280100D02*
X762000Y266700D01*
X736600Y87630D02*
X688161Y87630D01*
X574294Y190246D02*
X574040Y190500D01*
X585545Y190246D02*
X688161Y87630D01*
X585545Y190246D02*
X574294Y190246D01*
X274100Y155600D02*
X253300Y155600D01*
X274100Y155600D02*
X286140Y167640D01*
X309000Y190500D01*
X574040Y190500D01*
X838200Y354900D02*
X838200Y355600D01*
X838200Y354900D02*
X787400Y304100D01*
X731520Y246380D02*
X723900Y254000D01*
X731520Y246380D02*
X778900Y246380D01*
X795900Y246380D02*
X817880Y246380D01*
X838200Y266700D01*
X215900Y45720D02*
X203200Y33020D01*
X215900Y45720D02*
X215900Y86360D01*
X238760Y109220D01*
X284480Y109220D02*
X337820Y162560D01*
X561340Y162560D02*
X571500Y152400D01*
X284480Y109220D02*
X238760Y109220D01*
X337820Y162560D02*
X561340Y162560D01*
M02*
