G04 EAGLE Gerber RS-274X export*
G75*
%MOMM*%
%FSLAX34Y34*%
%LPD*%
%IN*%
%IPPOS*%
%AMOC8*
5,1,8,0,0,1.08239X$1,22.5*%
G01*
%ADD10C,0.254000*%


D10*
X0Y25400D02*
X97Y23186D01*
X386Y20989D01*
X865Y18826D01*
X1532Y16713D01*
X2380Y14666D01*
X3403Y12700D01*
X4594Y10831D01*
X5942Y9073D01*
X7440Y7440D01*
X9073Y5942D01*
X10831Y4594D01*
X12700Y3403D01*
X14666Y2380D01*
X16713Y1532D01*
X18826Y865D01*
X20989Y386D01*
X23186Y97D01*
X25400Y0D01*
X863600Y0D01*
X865814Y97D01*
X868011Y386D01*
X870174Y865D01*
X872287Y1532D01*
X874335Y2380D01*
X876300Y3403D01*
X878169Y4594D01*
X879927Y5942D01*
X881561Y7440D01*
X883058Y9073D01*
X884406Y10831D01*
X885597Y12700D01*
X886620Y14666D01*
X887468Y16713D01*
X888135Y18826D01*
X888614Y20989D01*
X888903Y23186D01*
X889000Y25400D01*
X889000Y444500D01*
X888903Y446714D01*
X888614Y448911D01*
X888135Y451074D01*
X887468Y453187D01*
X886620Y455235D01*
X885597Y457200D01*
X884406Y459069D01*
X883058Y460827D01*
X881561Y462461D01*
X879927Y463958D01*
X878169Y465306D01*
X876300Y466497D01*
X874335Y467520D01*
X872287Y468368D01*
X870174Y469035D01*
X868011Y469514D01*
X865814Y469803D01*
X863600Y469900D01*
X25400Y469900D01*
X23186Y469803D01*
X20989Y469514D01*
X18826Y469035D01*
X16713Y468368D01*
X14666Y467520D01*
X12700Y466497D01*
X10831Y465306D01*
X9073Y463958D01*
X7440Y462461D01*
X5942Y460827D01*
X4594Y459069D01*
X3403Y457200D01*
X2380Y455235D01*
X1532Y453187D01*
X865Y451074D01*
X386Y448911D01*
X97Y446714D01*
X0Y444500D01*
X0Y25400D01*
X57087Y431226D02*
X57017Y430081D01*
X56879Y428942D01*
X56672Y427813D01*
X56398Y426699D01*
X56056Y425604D01*
X55649Y424531D01*
X55178Y423485D01*
X54645Y422469D01*
X54052Y421487D01*
X53400Y420542D01*
X52692Y419639D01*
X51931Y418780D01*
X51120Y417969D01*
X50261Y417208D01*
X49358Y416500D01*
X48413Y415849D01*
X47431Y415255D01*
X46415Y414722D01*
X45369Y414251D01*
X44296Y413844D01*
X43201Y413503D01*
X42087Y413228D01*
X40958Y413021D01*
X39819Y412883D01*
X38674Y412814D01*
X37526Y412814D01*
X36381Y412883D01*
X35242Y413021D01*
X34113Y413228D01*
X32999Y413503D01*
X31904Y413844D01*
X30831Y414251D01*
X29785Y414722D01*
X28769Y415255D01*
X27787Y415849D01*
X26842Y416500D01*
X25939Y417208D01*
X25080Y417969D01*
X24269Y418780D01*
X23508Y419639D01*
X22800Y420542D01*
X22149Y421487D01*
X21555Y422469D01*
X21022Y423485D01*
X20551Y424531D01*
X20144Y425604D01*
X19803Y426699D01*
X19528Y427813D01*
X19321Y428942D01*
X19183Y430081D01*
X19114Y431226D01*
X19114Y432374D01*
X19183Y433519D01*
X19321Y434658D01*
X19528Y435787D01*
X19803Y436901D01*
X20144Y437996D01*
X20551Y439069D01*
X21022Y440115D01*
X21555Y441131D01*
X22149Y442113D01*
X22800Y443058D01*
X23508Y443961D01*
X24269Y444820D01*
X25080Y445631D01*
X25939Y446392D01*
X26842Y447100D01*
X27787Y447752D01*
X28769Y448345D01*
X29785Y448878D01*
X30831Y449349D01*
X31904Y449756D01*
X32999Y450098D01*
X34113Y450372D01*
X35242Y450579D01*
X36381Y450717D01*
X37526Y450787D01*
X38674Y450787D01*
X39819Y450717D01*
X40958Y450579D01*
X42087Y450372D01*
X43201Y450098D01*
X44296Y449756D01*
X45369Y449349D01*
X46415Y448878D01*
X47431Y448345D01*
X48413Y447752D01*
X49358Y447100D01*
X50261Y446392D01*
X51120Y445631D01*
X51931Y444820D01*
X52692Y443961D01*
X53400Y443058D01*
X54052Y442113D01*
X54645Y441131D01*
X55178Y440115D01*
X55649Y439069D01*
X56056Y437996D01*
X56398Y436901D01*
X56672Y435787D01*
X56879Y434658D01*
X57017Y433519D01*
X57087Y432374D01*
X57087Y431226D01*
X57087Y37526D02*
X57017Y36381D01*
X56879Y35242D01*
X56672Y34113D01*
X56398Y32999D01*
X56056Y31904D01*
X55649Y30831D01*
X55178Y29785D01*
X54645Y28769D01*
X54052Y27787D01*
X53400Y26842D01*
X52692Y25939D01*
X51931Y25080D01*
X51120Y24269D01*
X50261Y23508D01*
X49358Y22800D01*
X48413Y22149D01*
X47431Y21555D01*
X46415Y21022D01*
X45369Y20551D01*
X44296Y20144D01*
X43201Y19803D01*
X42087Y19528D01*
X40958Y19321D01*
X39819Y19183D01*
X38674Y19114D01*
X37526Y19114D01*
X36381Y19183D01*
X35242Y19321D01*
X34113Y19528D01*
X32999Y19803D01*
X31904Y20144D01*
X30831Y20551D01*
X29785Y21022D01*
X28769Y21555D01*
X27787Y22149D01*
X26842Y22800D01*
X25939Y23508D01*
X25080Y24269D01*
X24269Y25080D01*
X23508Y25939D01*
X22800Y26842D01*
X22149Y27787D01*
X21555Y28769D01*
X21022Y29785D01*
X20551Y30831D01*
X20144Y31904D01*
X19803Y32999D01*
X19528Y34113D01*
X19321Y35242D01*
X19183Y36381D01*
X19114Y37526D01*
X19114Y38674D01*
X19183Y39819D01*
X19321Y40958D01*
X19528Y42087D01*
X19803Y43201D01*
X20144Y44296D01*
X20551Y45369D01*
X21022Y46415D01*
X21555Y47431D01*
X22149Y48413D01*
X22800Y49358D01*
X23508Y50261D01*
X24269Y51120D01*
X25080Y51931D01*
X25939Y52692D01*
X26842Y53400D01*
X27787Y54052D01*
X28769Y54645D01*
X29785Y55178D01*
X30831Y55649D01*
X31904Y56056D01*
X32999Y56398D01*
X34113Y56672D01*
X35242Y56879D01*
X36381Y57017D01*
X37526Y57087D01*
X38674Y57087D01*
X39819Y57017D01*
X40958Y56879D01*
X42087Y56672D01*
X43201Y56398D01*
X44296Y56056D01*
X45369Y55649D01*
X46415Y55178D01*
X47431Y54645D01*
X48413Y54052D01*
X49358Y53400D01*
X50261Y52692D01*
X51120Y51931D01*
X51931Y51120D01*
X52692Y50261D01*
X53400Y49358D01*
X54052Y48413D01*
X54645Y47431D01*
X55178Y46415D01*
X55649Y45369D01*
X56056Y44296D01*
X56398Y43201D01*
X56672Y42087D01*
X56879Y40958D01*
X57017Y39819D01*
X57087Y38674D01*
X57087Y37526D01*
X869887Y431226D02*
X869817Y430081D01*
X869679Y428942D01*
X869472Y427813D01*
X869198Y426699D01*
X868856Y425604D01*
X868449Y424531D01*
X867978Y423485D01*
X867445Y422469D01*
X866852Y421487D01*
X866200Y420542D01*
X865492Y419639D01*
X864731Y418780D01*
X863920Y417969D01*
X863061Y417208D01*
X862158Y416500D01*
X861213Y415849D01*
X860231Y415255D01*
X859215Y414722D01*
X858169Y414251D01*
X857096Y413844D01*
X856001Y413503D01*
X854887Y413228D01*
X853758Y413021D01*
X852619Y412883D01*
X851474Y412814D01*
X850326Y412814D01*
X849181Y412883D01*
X848042Y413021D01*
X846913Y413228D01*
X845799Y413503D01*
X844704Y413844D01*
X843631Y414251D01*
X842585Y414722D01*
X841569Y415255D01*
X840587Y415849D01*
X839642Y416500D01*
X838739Y417208D01*
X837880Y417969D01*
X837069Y418780D01*
X836308Y419639D01*
X835600Y420542D01*
X834949Y421487D01*
X834355Y422469D01*
X833822Y423485D01*
X833351Y424531D01*
X832944Y425604D01*
X832603Y426699D01*
X832328Y427813D01*
X832121Y428942D01*
X831983Y430081D01*
X831914Y431226D01*
X831914Y432374D01*
X831983Y433519D01*
X832121Y434658D01*
X832328Y435787D01*
X832603Y436901D01*
X832944Y437996D01*
X833351Y439069D01*
X833822Y440115D01*
X834355Y441131D01*
X834949Y442113D01*
X835600Y443058D01*
X836308Y443961D01*
X837069Y444820D01*
X837880Y445631D01*
X838739Y446392D01*
X839642Y447100D01*
X840587Y447752D01*
X841569Y448345D01*
X842585Y448878D01*
X843631Y449349D01*
X844704Y449756D01*
X845799Y450098D01*
X846913Y450372D01*
X848042Y450579D01*
X849181Y450717D01*
X850326Y450787D01*
X851474Y450787D01*
X852619Y450717D01*
X853758Y450579D01*
X854887Y450372D01*
X856001Y450098D01*
X857096Y449756D01*
X858169Y449349D01*
X859215Y448878D01*
X860231Y448345D01*
X861213Y447752D01*
X862158Y447100D01*
X863061Y446392D01*
X863920Y445631D01*
X864731Y444820D01*
X865492Y443961D01*
X866200Y443058D01*
X866852Y442113D01*
X867445Y441131D01*
X867978Y440115D01*
X868449Y439069D01*
X868856Y437996D01*
X869198Y436901D01*
X869472Y435787D01*
X869679Y434658D01*
X869817Y433519D01*
X869887Y432374D01*
X869887Y431226D01*
X869887Y37526D02*
X869817Y36381D01*
X869679Y35242D01*
X869472Y34113D01*
X869198Y32999D01*
X868856Y31904D01*
X868449Y30831D01*
X867978Y29785D01*
X867445Y28769D01*
X866852Y27787D01*
X866200Y26842D01*
X865492Y25939D01*
X864731Y25080D01*
X863920Y24269D01*
X863061Y23508D01*
X862158Y22800D01*
X861213Y22149D01*
X860231Y21555D01*
X859215Y21022D01*
X858169Y20551D01*
X857096Y20144D01*
X856001Y19803D01*
X854887Y19528D01*
X853758Y19321D01*
X852619Y19183D01*
X851474Y19114D01*
X850326Y19114D01*
X849181Y19183D01*
X848042Y19321D01*
X846913Y19528D01*
X845799Y19803D01*
X844704Y20144D01*
X843631Y20551D01*
X842585Y21022D01*
X841569Y21555D01*
X840587Y22149D01*
X839642Y22800D01*
X838739Y23508D01*
X837880Y24269D01*
X837069Y25080D01*
X836308Y25939D01*
X835600Y26842D01*
X834949Y27787D01*
X834355Y28769D01*
X833822Y29785D01*
X833351Y30831D01*
X832944Y31904D01*
X832603Y32999D01*
X832328Y34113D01*
X832121Y35242D01*
X831983Y36381D01*
X831914Y37526D01*
X831914Y38674D01*
X831983Y39819D01*
X832121Y40958D01*
X832328Y42087D01*
X832603Y43201D01*
X832944Y44296D01*
X833351Y45369D01*
X833822Y46415D01*
X834355Y47431D01*
X834949Y48413D01*
X835600Y49358D01*
X836308Y50261D01*
X837069Y51120D01*
X837880Y51931D01*
X838739Y52692D01*
X839642Y53400D01*
X840587Y54052D01*
X841569Y54645D01*
X842585Y55178D01*
X843631Y55649D01*
X844704Y56056D01*
X845799Y56398D01*
X846913Y56672D01*
X848042Y56879D01*
X849181Y57017D01*
X850326Y57087D01*
X851474Y57087D01*
X852619Y57017D01*
X853758Y56879D01*
X854887Y56672D01*
X856001Y56398D01*
X857096Y56056D01*
X858169Y55649D01*
X859215Y55178D01*
X860231Y54645D01*
X861213Y54052D01*
X862158Y53400D01*
X863061Y52692D01*
X863920Y51931D01*
X864731Y51120D01*
X865492Y50261D01*
X866200Y49358D01*
X866852Y48413D01*
X867445Y47431D01*
X867978Y46415D01*
X868449Y45369D01*
X868856Y44296D01*
X869198Y43201D01*
X869472Y42087D01*
X869679Y40958D01*
X869817Y39819D01*
X869887Y38674D01*
X869887Y37526D01*
M02*
