G04 EAGLE Gerber RS-274X export*
G75*
%MOMM*%
%FSLAX34Y34*%
%LPD*%
%INSilkscreen Bottom*%
%IPPOS*%
%AMOC8*
5,1,8,0,0,1.08239X$1,22.5*%
G01*
%ADD10C,0.076200*%
%ADD11C,0.203200*%
%ADD12R,0.965200X1.676400*%
%ADD13C,0.101600*%
%ADD14C,0.127000*%


D10*
X257785Y297109D02*
X257787Y297020D01*
X257793Y296932D01*
X257802Y296844D01*
X257815Y296756D01*
X257832Y296669D01*
X257852Y296583D01*
X257877Y296498D01*
X257904Y296413D01*
X257936Y296330D01*
X257970Y296249D01*
X258009Y296169D01*
X258050Y296091D01*
X258095Y296014D01*
X258143Y295940D01*
X258194Y295867D01*
X258248Y295797D01*
X258306Y295730D01*
X258366Y295664D01*
X258428Y295602D01*
X258494Y295542D01*
X258561Y295484D01*
X258631Y295430D01*
X258704Y295379D01*
X258778Y295331D01*
X258855Y295286D01*
X258933Y295245D01*
X259013Y295206D01*
X259094Y295172D01*
X259177Y295140D01*
X259262Y295113D01*
X259347Y295088D01*
X259433Y295068D01*
X259520Y295051D01*
X259608Y295038D01*
X259696Y295029D01*
X259784Y295023D01*
X259873Y295021D01*
X260002Y295023D01*
X260131Y295029D01*
X260260Y295038D01*
X260388Y295051D01*
X260516Y295068D01*
X260643Y295089D01*
X260770Y295113D01*
X260896Y295141D01*
X261021Y295173D01*
X261145Y295208D01*
X261268Y295247D01*
X261390Y295290D01*
X261510Y295336D01*
X261629Y295386D01*
X261747Y295439D01*
X261863Y295495D01*
X261977Y295555D01*
X262090Y295618D01*
X262200Y295685D01*
X262309Y295754D01*
X262415Y295827D01*
X262520Y295903D01*
X262622Y295982D01*
X262722Y296064D01*
X262819Y296148D01*
X262914Y296236D01*
X263006Y296326D01*
X262744Y302331D02*
X262742Y302420D01*
X262736Y302508D01*
X262727Y302596D01*
X262714Y302684D01*
X262697Y302771D01*
X262677Y302857D01*
X262652Y302942D01*
X262625Y303027D01*
X262593Y303110D01*
X262559Y303191D01*
X262520Y303271D01*
X262479Y303349D01*
X262434Y303426D01*
X262386Y303500D01*
X262335Y303573D01*
X262281Y303643D01*
X262223Y303710D01*
X262163Y303776D01*
X262101Y303838D01*
X262035Y303898D01*
X261968Y303956D01*
X261898Y304010D01*
X261825Y304061D01*
X261751Y304109D01*
X261674Y304154D01*
X261596Y304195D01*
X261516Y304234D01*
X261435Y304268D01*
X261352Y304300D01*
X261267Y304327D01*
X261182Y304352D01*
X261096Y304372D01*
X261009Y304389D01*
X260921Y304402D01*
X260833Y304411D01*
X260745Y304417D01*
X260656Y304419D01*
X260536Y304417D01*
X260416Y304412D01*
X260297Y304402D01*
X260177Y304390D01*
X260058Y304373D01*
X259940Y304353D01*
X259822Y304329D01*
X259706Y304302D01*
X259590Y304271D01*
X259475Y304237D01*
X259361Y304199D01*
X259248Y304157D01*
X259137Y304112D01*
X259027Y304064D01*
X258919Y304013D01*
X258812Y303958D01*
X258707Y303900D01*
X258604Y303838D01*
X258503Y303774D01*
X258403Y303706D01*
X258306Y303636D01*
X261700Y300504D02*
X261778Y300552D01*
X261854Y300604D01*
X261927Y300658D01*
X261998Y300716D01*
X262067Y300777D01*
X262133Y300841D01*
X262196Y300908D01*
X262256Y300977D01*
X262313Y301049D01*
X262367Y301123D01*
X262417Y301200D01*
X262465Y301279D01*
X262508Y301359D01*
X262549Y301442D01*
X262585Y301526D01*
X262618Y301611D01*
X262647Y301698D01*
X262673Y301787D01*
X262695Y301876D01*
X262712Y301966D01*
X262726Y302056D01*
X262736Y302148D01*
X262742Y302239D01*
X262744Y302331D01*
X258828Y298936D02*
X258750Y298888D01*
X258674Y298836D01*
X258601Y298782D01*
X258530Y298724D01*
X258461Y298663D01*
X258395Y298599D01*
X258332Y298532D01*
X258272Y298463D01*
X258215Y298391D01*
X258161Y298317D01*
X258111Y298240D01*
X258063Y298161D01*
X258020Y298081D01*
X257979Y297998D01*
X257943Y297914D01*
X257910Y297829D01*
X257881Y297742D01*
X257855Y297653D01*
X257833Y297564D01*
X257816Y297474D01*
X257802Y297384D01*
X257792Y297292D01*
X257786Y297201D01*
X257784Y297109D01*
X258829Y298937D02*
X261700Y300503D01*
X253844Y304419D02*
X253844Y295021D01*
X249667Y295021D01*
X246764Y295021D02*
X243631Y304419D01*
X240498Y295021D01*
X241281Y297371D02*
X245980Y297371D01*
X237620Y304419D02*
X234487Y295021D01*
X231354Y304419D01*
X227631Y295021D02*
X223454Y295021D01*
X227631Y295021D02*
X227631Y304419D01*
X223454Y304419D01*
X224499Y300242D02*
X227631Y300242D01*
X215152Y302331D02*
X212542Y304419D01*
X212542Y295021D01*
X215152Y295021D02*
X209931Y295021D01*
X257785Y321239D02*
X257787Y321150D01*
X257793Y321062D01*
X257802Y320974D01*
X257815Y320886D01*
X257832Y320799D01*
X257852Y320713D01*
X257877Y320628D01*
X257904Y320543D01*
X257936Y320460D01*
X257970Y320379D01*
X258009Y320299D01*
X258050Y320221D01*
X258095Y320144D01*
X258143Y320070D01*
X258194Y319997D01*
X258248Y319927D01*
X258306Y319860D01*
X258366Y319794D01*
X258428Y319732D01*
X258494Y319672D01*
X258561Y319614D01*
X258631Y319560D01*
X258704Y319509D01*
X258778Y319461D01*
X258855Y319416D01*
X258933Y319375D01*
X259013Y319336D01*
X259094Y319302D01*
X259177Y319270D01*
X259262Y319243D01*
X259347Y319218D01*
X259433Y319198D01*
X259520Y319181D01*
X259608Y319168D01*
X259696Y319159D01*
X259784Y319153D01*
X259873Y319151D01*
X260002Y319153D01*
X260131Y319159D01*
X260260Y319168D01*
X260388Y319181D01*
X260516Y319198D01*
X260643Y319219D01*
X260770Y319243D01*
X260896Y319271D01*
X261021Y319303D01*
X261145Y319338D01*
X261268Y319377D01*
X261390Y319420D01*
X261510Y319466D01*
X261629Y319516D01*
X261747Y319569D01*
X261863Y319625D01*
X261977Y319685D01*
X262090Y319748D01*
X262200Y319815D01*
X262309Y319884D01*
X262415Y319957D01*
X262520Y320033D01*
X262622Y320112D01*
X262722Y320194D01*
X262819Y320278D01*
X262914Y320366D01*
X263006Y320456D01*
X262744Y326461D02*
X262742Y326550D01*
X262736Y326638D01*
X262727Y326726D01*
X262714Y326814D01*
X262697Y326901D01*
X262677Y326987D01*
X262652Y327072D01*
X262625Y327157D01*
X262593Y327240D01*
X262559Y327321D01*
X262520Y327401D01*
X262479Y327479D01*
X262434Y327556D01*
X262386Y327630D01*
X262335Y327703D01*
X262281Y327773D01*
X262223Y327840D01*
X262163Y327906D01*
X262101Y327968D01*
X262035Y328028D01*
X261968Y328086D01*
X261898Y328140D01*
X261825Y328191D01*
X261751Y328239D01*
X261674Y328284D01*
X261596Y328325D01*
X261516Y328364D01*
X261435Y328398D01*
X261352Y328430D01*
X261267Y328457D01*
X261182Y328482D01*
X261096Y328502D01*
X261009Y328519D01*
X260921Y328532D01*
X260833Y328541D01*
X260745Y328547D01*
X260656Y328549D01*
X260536Y328547D01*
X260416Y328542D01*
X260297Y328532D01*
X260177Y328520D01*
X260058Y328503D01*
X259940Y328483D01*
X259822Y328459D01*
X259706Y328432D01*
X259590Y328401D01*
X259475Y328367D01*
X259361Y328329D01*
X259248Y328287D01*
X259137Y328242D01*
X259027Y328194D01*
X258919Y328143D01*
X258812Y328088D01*
X258707Y328030D01*
X258604Y327968D01*
X258503Y327904D01*
X258403Y327836D01*
X258306Y327766D01*
X261700Y324634D02*
X261778Y324682D01*
X261854Y324734D01*
X261927Y324788D01*
X261998Y324846D01*
X262067Y324907D01*
X262133Y324971D01*
X262196Y325038D01*
X262256Y325107D01*
X262313Y325179D01*
X262367Y325253D01*
X262417Y325330D01*
X262465Y325409D01*
X262508Y325489D01*
X262549Y325572D01*
X262585Y325656D01*
X262618Y325741D01*
X262647Y325828D01*
X262673Y325917D01*
X262695Y326006D01*
X262712Y326096D01*
X262726Y326186D01*
X262736Y326278D01*
X262742Y326369D01*
X262744Y326461D01*
X258828Y323066D02*
X258750Y323018D01*
X258674Y322966D01*
X258601Y322912D01*
X258530Y322854D01*
X258461Y322793D01*
X258395Y322729D01*
X258332Y322662D01*
X258272Y322593D01*
X258215Y322521D01*
X258161Y322447D01*
X258111Y322370D01*
X258063Y322291D01*
X258020Y322211D01*
X257979Y322128D01*
X257943Y322044D01*
X257910Y321959D01*
X257881Y321872D01*
X257855Y321783D01*
X257833Y321694D01*
X257816Y321604D01*
X257802Y321514D01*
X257792Y321422D01*
X257786Y321331D01*
X257784Y321239D01*
X258829Y323067D02*
X261700Y324633D01*
X253844Y328549D02*
X253844Y319151D01*
X249667Y319151D01*
X246764Y319151D02*
X243631Y328549D01*
X240498Y319151D01*
X241281Y321501D02*
X245980Y321501D01*
X237620Y328549D02*
X234487Y319151D01*
X231354Y328549D01*
X227631Y319151D02*
X223454Y319151D01*
X227631Y319151D02*
X227631Y328549D01*
X223454Y328549D01*
X224499Y324372D02*
X227631Y324372D01*
X212281Y328550D02*
X212186Y328548D01*
X212092Y328542D01*
X211998Y328533D01*
X211904Y328520D01*
X211811Y328503D01*
X211719Y328482D01*
X211627Y328457D01*
X211537Y328429D01*
X211448Y328397D01*
X211360Y328362D01*
X211274Y328323D01*
X211189Y328281D01*
X211106Y328235D01*
X211025Y328186D01*
X210946Y328134D01*
X210869Y328079D01*
X210795Y328020D01*
X210723Y327959D01*
X210653Y327895D01*
X210586Y327828D01*
X210522Y327758D01*
X210461Y327686D01*
X210402Y327612D01*
X210347Y327535D01*
X210295Y327456D01*
X210246Y327375D01*
X210200Y327292D01*
X210158Y327207D01*
X210119Y327121D01*
X210084Y327033D01*
X210052Y326944D01*
X210024Y326854D01*
X209999Y326762D01*
X209978Y326670D01*
X209961Y326577D01*
X209948Y326483D01*
X209939Y326389D01*
X209933Y326295D01*
X209931Y326200D01*
X212281Y328549D02*
X212389Y328547D01*
X212498Y328541D01*
X212606Y328531D01*
X212713Y328518D01*
X212820Y328500D01*
X212927Y328479D01*
X213032Y328454D01*
X213137Y328425D01*
X213240Y328393D01*
X213342Y328356D01*
X213443Y328316D01*
X213542Y328273D01*
X213640Y328226D01*
X213736Y328175D01*
X213830Y328121D01*
X213922Y328064D01*
X214012Y328003D01*
X214100Y327939D01*
X214185Y327873D01*
X214268Y327803D01*
X214348Y327730D01*
X214426Y327654D01*
X214501Y327576D01*
X214573Y327495D01*
X214642Y327411D01*
X214708Y327325D01*
X214771Y327237D01*
X214830Y327146D01*
X214887Y327054D01*
X214940Y326959D01*
X214989Y326862D01*
X215035Y326764D01*
X215078Y326665D01*
X215117Y326563D01*
X215152Y326461D01*
X210714Y324372D02*
X210645Y324441D01*
X210579Y324512D01*
X210515Y324585D01*
X210454Y324661D01*
X210396Y324740D01*
X210342Y324820D01*
X210290Y324903D01*
X210242Y324987D01*
X210196Y325073D01*
X210155Y325161D01*
X210116Y325251D01*
X210081Y325342D01*
X210050Y325434D01*
X210022Y325527D01*
X209998Y325621D01*
X209978Y325716D01*
X209961Y325812D01*
X209948Y325909D01*
X209939Y326006D01*
X209933Y326103D01*
X209931Y326200D01*
X210714Y324372D02*
X215152Y319151D01*
X209931Y319151D01*
X257785Y347909D02*
X257787Y347820D01*
X257793Y347732D01*
X257802Y347644D01*
X257815Y347556D01*
X257832Y347469D01*
X257852Y347383D01*
X257877Y347298D01*
X257904Y347213D01*
X257936Y347130D01*
X257970Y347049D01*
X258009Y346969D01*
X258050Y346891D01*
X258095Y346814D01*
X258143Y346740D01*
X258194Y346667D01*
X258248Y346597D01*
X258306Y346530D01*
X258366Y346464D01*
X258428Y346402D01*
X258494Y346342D01*
X258561Y346284D01*
X258631Y346230D01*
X258704Y346179D01*
X258778Y346131D01*
X258855Y346086D01*
X258933Y346045D01*
X259013Y346006D01*
X259094Y345972D01*
X259177Y345940D01*
X259262Y345913D01*
X259347Y345888D01*
X259433Y345868D01*
X259520Y345851D01*
X259608Y345838D01*
X259696Y345829D01*
X259784Y345823D01*
X259873Y345821D01*
X260002Y345823D01*
X260131Y345829D01*
X260260Y345838D01*
X260388Y345851D01*
X260516Y345868D01*
X260643Y345889D01*
X260770Y345913D01*
X260896Y345941D01*
X261021Y345973D01*
X261145Y346008D01*
X261268Y346047D01*
X261390Y346090D01*
X261510Y346136D01*
X261629Y346186D01*
X261747Y346239D01*
X261863Y346295D01*
X261977Y346355D01*
X262090Y346418D01*
X262200Y346485D01*
X262309Y346554D01*
X262415Y346627D01*
X262520Y346703D01*
X262622Y346782D01*
X262722Y346864D01*
X262819Y346948D01*
X262914Y347036D01*
X263006Y347126D01*
X262744Y353131D02*
X262742Y353220D01*
X262736Y353308D01*
X262727Y353396D01*
X262714Y353484D01*
X262697Y353571D01*
X262677Y353657D01*
X262652Y353742D01*
X262625Y353827D01*
X262593Y353910D01*
X262559Y353991D01*
X262520Y354071D01*
X262479Y354149D01*
X262434Y354226D01*
X262386Y354300D01*
X262335Y354373D01*
X262281Y354443D01*
X262223Y354510D01*
X262163Y354576D01*
X262101Y354638D01*
X262035Y354698D01*
X261968Y354756D01*
X261898Y354810D01*
X261825Y354861D01*
X261751Y354909D01*
X261674Y354954D01*
X261596Y354995D01*
X261516Y355034D01*
X261435Y355068D01*
X261352Y355100D01*
X261267Y355127D01*
X261182Y355152D01*
X261096Y355172D01*
X261009Y355189D01*
X260921Y355202D01*
X260833Y355211D01*
X260745Y355217D01*
X260656Y355219D01*
X260536Y355217D01*
X260416Y355212D01*
X260297Y355202D01*
X260177Y355190D01*
X260058Y355173D01*
X259940Y355153D01*
X259822Y355129D01*
X259706Y355102D01*
X259590Y355071D01*
X259475Y355037D01*
X259361Y354999D01*
X259248Y354957D01*
X259137Y354912D01*
X259027Y354864D01*
X258919Y354813D01*
X258812Y354758D01*
X258707Y354700D01*
X258604Y354638D01*
X258503Y354574D01*
X258403Y354506D01*
X258306Y354436D01*
X261700Y351304D02*
X261778Y351352D01*
X261854Y351404D01*
X261927Y351458D01*
X261998Y351516D01*
X262067Y351577D01*
X262133Y351641D01*
X262196Y351708D01*
X262256Y351777D01*
X262313Y351849D01*
X262367Y351923D01*
X262417Y352000D01*
X262465Y352079D01*
X262508Y352159D01*
X262549Y352242D01*
X262585Y352326D01*
X262618Y352411D01*
X262647Y352498D01*
X262673Y352587D01*
X262695Y352676D01*
X262712Y352766D01*
X262726Y352856D01*
X262736Y352948D01*
X262742Y353039D01*
X262744Y353131D01*
X258828Y349736D02*
X258750Y349688D01*
X258674Y349636D01*
X258601Y349582D01*
X258530Y349524D01*
X258461Y349463D01*
X258395Y349399D01*
X258332Y349332D01*
X258272Y349263D01*
X258215Y349191D01*
X258161Y349117D01*
X258111Y349040D01*
X258063Y348961D01*
X258020Y348881D01*
X257979Y348798D01*
X257943Y348714D01*
X257910Y348629D01*
X257881Y348542D01*
X257855Y348453D01*
X257833Y348364D01*
X257816Y348274D01*
X257802Y348184D01*
X257792Y348092D01*
X257786Y348001D01*
X257784Y347909D01*
X258829Y349737D02*
X261700Y351303D01*
X253844Y355219D02*
X253844Y345821D01*
X249667Y345821D01*
X246764Y345821D02*
X243631Y355219D01*
X240498Y345821D01*
X241281Y348171D02*
X245980Y348171D01*
X237620Y355219D02*
X234487Y345821D01*
X231354Y355219D01*
X227631Y345821D02*
X223454Y345821D01*
X227631Y345821D02*
X227631Y355219D01*
X223454Y355219D01*
X224499Y351042D02*
X227631Y351042D01*
X215152Y345821D02*
X212542Y345821D01*
X212441Y345823D01*
X212340Y345829D01*
X212239Y345839D01*
X212139Y345852D01*
X212039Y345870D01*
X211940Y345891D01*
X211842Y345917D01*
X211745Y345946D01*
X211649Y345978D01*
X211555Y346015D01*
X211462Y346055D01*
X211370Y346099D01*
X211281Y346146D01*
X211193Y346197D01*
X211107Y346251D01*
X211024Y346308D01*
X210942Y346368D01*
X210864Y346432D01*
X210787Y346498D01*
X210714Y346568D01*
X210643Y346640D01*
X210575Y346715D01*
X210510Y346793D01*
X210448Y346873D01*
X210389Y346955D01*
X210333Y347040D01*
X210281Y347127D01*
X210232Y347215D01*
X210186Y347306D01*
X210145Y347398D01*
X210106Y347492D01*
X210072Y347587D01*
X210041Y347683D01*
X210014Y347781D01*
X209990Y347879D01*
X209971Y347979D01*
X209955Y348079D01*
X209943Y348179D01*
X209935Y348280D01*
X209931Y348381D01*
X209931Y348483D01*
X209935Y348584D01*
X209943Y348685D01*
X209955Y348785D01*
X209971Y348885D01*
X209990Y348985D01*
X210014Y349083D01*
X210041Y349181D01*
X210072Y349277D01*
X210106Y349372D01*
X210145Y349466D01*
X210186Y349558D01*
X210232Y349649D01*
X210281Y349738D01*
X210333Y349824D01*
X210389Y349909D01*
X210448Y349991D01*
X210510Y350071D01*
X210575Y350149D01*
X210643Y350224D01*
X210714Y350296D01*
X210787Y350366D01*
X210864Y350432D01*
X210942Y350496D01*
X211024Y350556D01*
X211107Y350613D01*
X211193Y350667D01*
X211281Y350718D01*
X211370Y350765D01*
X211462Y350809D01*
X211555Y350849D01*
X211649Y350886D01*
X211745Y350918D01*
X211842Y350947D01*
X211940Y350973D01*
X212039Y350994D01*
X212139Y351012D01*
X212239Y351025D01*
X212340Y351035D01*
X212441Y351041D01*
X212542Y351043D01*
X212019Y355219D02*
X215152Y355219D01*
X212019Y355219D02*
X211929Y355217D01*
X211840Y355211D01*
X211750Y355202D01*
X211661Y355188D01*
X211573Y355171D01*
X211486Y355150D01*
X211399Y355125D01*
X211314Y355096D01*
X211230Y355064D01*
X211148Y355029D01*
X211067Y354989D01*
X210988Y354947D01*
X210911Y354901D01*
X210836Y354851D01*
X210763Y354799D01*
X210692Y354743D01*
X210624Y354685D01*
X210559Y354623D01*
X210496Y354559D01*
X210436Y354492D01*
X210379Y354423D01*
X210325Y354351D01*
X210274Y354277D01*
X210226Y354201D01*
X210182Y354123D01*
X210141Y354043D01*
X210103Y353961D01*
X210069Y353878D01*
X210039Y353793D01*
X210012Y353707D01*
X209989Y353621D01*
X209970Y353533D01*
X209955Y353444D01*
X209943Y353355D01*
X209935Y353266D01*
X209931Y353176D01*
X209931Y353086D01*
X209935Y352996D01*
X209943Y352907D01*
X209955Y352818D01*
X209970Y352729D01*
X209989Y352641D01*
X210012Y352555D01*
X210039Y352469D01*
X210069Y352384D01*
X210103Y352301D01*
X210141Y352219D01*
X210182Y352139D01*
X210226Y352061D01*
X210274Y351985D01*
X210325Y351911D01*
X210379Y351839D01*
X210436Y351770D01*
X210496Y351703D01*
X210559Y351639D01*
X210624Y351577D01*
X210692Y351519D01*
X210763Y351463D01*
X210836Y351411D01*
X210911Y351361D01*
X210988Y351315D01*
X211067Y351273D01*
X211148Y351233D01*
X211230Y351198D01*
X211314Y351166D01*
X211399Y351137D01*
X211486Y351112D01*
X211573Y351091D01*
X211661Y351074D01*
X211750Y351060D01*
X211840Y351051D01*
X211929Y351045D01*
X212019Y351043D01*
X212019Y351042D02*
X214108Y351042D01*
D11*
X190640Y263300D02*
X88760Y263300D01*
D12*
X173736Y255778D03*
X156718Y255778D03*
X139700Y255778D03*
X122682Y255778D03*
X105664Y255778D03*
D10*
X195961Y237645D02*
X205359Y237645D01*
X195961Y236601D02*
X195961Y238689D01*
X205359Y238689D02*
X205359Y236601D01*
X195961Y244413D02*
X195961Y246501D01*
X195961Y244413D02*
X195963Y244324D01*
X195969Y244236D01*
X195978Y244148D01*
X195991Y244060D01*
X196008Y243973D01*
X196028Y243887D01*
X196053Y243802D01*
X196080Y243717D01*
X196112Y243634D01*
X196146Y243553D01*
X196185Y243473D01*
X196226Y243395D01*
X196271Y243318D01*
X196319Y243244D01*
X196370Y243171D01*
X196424Y243101D01*
X196482Y243034D01*
X196542Y242968D01*
X196604Y242906D01*
X196670Y242846D01*
X196737Y242788D01*
X196807Y242734D01*
X196880Y242683D01*
X196954Y242635D01*
X197031Y242590D01*
X197109Y242549D01*
X197189Y242510D01*
X197270Y242476D01*
X197353Y242444D01*
X197438Y242417D01*
X197523Y242392D01*
X197609Y242372D01*
X197696Y242355D01*
X197784Y242342D01*
X197872Y242333D01*
X197960Y242327D01*
X198049Y242325D01*
X198049Y242324D02*
X203271Y242324D01*
X203271Y242325D02*
X203362Y242327D01*
X203453Y242333D01*
X203544Y242343D01*
X203634Y242357D01*
X203723Y242374D01*
X203811Y242396D01*
X203899Y242422D01*
X203985Y242451D01*
X204070Y242484D01*
X204153Y242521D01*
X204235Y242561D01*
X204315Y242605D01*
X204393Y242652D01*
X204469Y242703D01*
X204542Y242756D01*
X204613Y242813D01*
X204682Y242874D01*
X204747Y242937D01*
X204810Y243002D01*
X204870Y243071D01*
X204928Y243142D01*
X204981Y243215D01*
X205032Y243291D01*
X205079Y243369D01*
X205123Y243449D01*
X205163Y243531D01*
X205200Y243614D01*
X205233Y243699D01*
X205262Y243785D01*
X205288Y243873D01*
X205310Y243961D01*
X205327Y244050D01*
X205341Y244140D01*
X205351Y244231D01*
X205357Y244322D01*
X205359Y244413D01*
X205359Y246501D01*
X203271Y249970D02*
X205359Y252580D01*
X195961Y252580D01*
X195961Y249970D02*
X195961Y255191D01*
X80899Y236601D02*
X71501Y236601D01*
X71501Y241822D02*
X80899Y236601D01*
X80899Y241822D02*
X71501Y241822D01*
X71501Y248112D02*
X71501Y250201D01*
X71501Y248112D02*
X71503Y248023D01*
X71509Y247935D01*
X71518Y247847D01*
X71531Y247759D01*
X71548Y247672D01*
X71568Y247586D01*
X71593Y247501D01*
X71620Y247416D01*
X71652Y247333D01*
X71686Y247252D01*
X71725Y247172D01*
X71766Y247094D01*
X71811Y247017D01*
X71859Y246943D01*
X71910Y246870D01*
X71964Y246800D01*
X72022Y246733D01*
X72082Y246667D01*
X72144Y246605D01*
X72210Y246545D01*
X72277Y246487D01*
X72347Y246433D01*
X72420Y246382D01*
X72494Y246334D01*
X72571Y246289D01*
X72649Y246248D01*
X72729Y246209D01*
X72810Y246175D01*
X72893Y246143D01*
X72978Y246116D01*
X73063Y246091D01*
X73149Y246071D01*
X73236Y246054D01*
X73324Y246041D01*
X73412Y246032D01*
X73500Y246026D01*
X73589Y246024D01*
X78811Y246024D01*
X78811Y246025D02*
X78902Y246027D01*
X78993Y246033D01*
X79084Y246043D01*
X79174Y246057D01*
X79263Y246074D01*
X79351Y246096D01*
X79439Y246122D01*
X79525Y246151D01*
X79610Y246184D01*
X79693Y246221D01*
X79775Y246261D01*
X79855Y246305D01*
X79933Y246352D01*
X80009Y246403D01*
X80082Y246456D01*
X80153Y246513D01*
X80222Y246574D01*
X80287Y246637D01*
X80350Y246702D01*
X80410Y246771D01*
X80468Y246842D01*
X80521Y246915D01*
X80572Y246991D01*
X80619Y247069D01*
X80663Y247149D01*
X80703Y247231D01*
X80740Y247314D01*
X80773Y247399D01*
X80802Y247485D01*
X80828Y247573D01*
X80850Y247661D01*
X80867Y247750D01*
X80881Y247840D01*
X80891Y247931D01*
X80897Y248022D01*
X80899Y248113D01*
X80899Y248112D02*
X80899Y250201D01*
X80899Y254106D02*
X71501Y254106D01*
X80899Y254106D02*
X80899Y256716D01*
X80897Y256817D01*
X80891Y256918D01*
X80881Y257019D01*
X80868Y257119D01*
X80850Y257219D01*
X80829Y257318D01*
X80803Y257416D01*
X80774Y257513D01*
X80742Y257609D01*
X80705Y257703D01*
X80665Y257796D01*
X80621Y257888D01*
X80574Y257977D01*
X80523Y258065D01*
X80469Y258151D01*
X80412Y258234D01*
X80352Y258316D01*
X80288Y258394D01*
X80222Y258471D01*
X80152Y258544D01*
X80080Y258615D01*
X80005Y258683D01*
X79927Y258748D01*
X79847Y258810D01*
X79765Y258869D01*
X79680Y258925D01*
X79594Y258977D01*
X79505Y259026D01*
X79414Y259072D01*
X79322Y259113D01*
X79228Y259152D01*
X79133Y259186D01*
X79037Y259217D01*
X78939Y259244D01*
X78841Y259268D01*
X78741Y259287D01*
X78641Y259303D01*
X78541Y259315D01*
X78440Y259323D01*
X78339Y259327D01*
X78237Y259327D01*
X78136Y259323D01*
X78035Y259315D01*
X77935Y259303D01*
X77835Y259287D01*
X77735Y259268D01*
X77637Y259244D01*
X77539Y259217D01*
X77443Y259186D01*
X77348Y259152D01*
X77254Y259113D01*
X77162Y259072D01*
X77071Y259026D01*
X76983Y258977D01*
X76896Y258925D01*
X76811Y258869D01*
X76729Y258810D01*
X76649Y258748D01*
X76571Y258683D01*
X76496Y258615D01*
X76424Y258544D01*
X76354Y258471D01*
X76288Y258394D01*
X76224Y258316D01*
X76164Y258234D01*
X76107Y258151D01*
X76053Y258065D01*
X76002Y257977D01*
X75955Y257888D01*
X75911Y257796D01*
X75871Y257703D01*
X75834Y257609D01*
X75802Y257513D01*
X75773Y257416D01*
X75747Y257318D01*
X75726Y257219D01*
X75708Y257119D01*
X75695Y257019D01*
X75685Y256918D01*
X75679Y256817D01*
X75677Y256716D01*
X75678Y256716D02*
X75678Y254106D01*
X71501Y262814D02*
X71501Y265946D01*
X71503Y266035D01*
X71509Y266123D01*
X71518Y266211D01*
X71531Y266299D01*
X71548Y266386D01*
X71568Y266472D01*
X71593Y266557D01*
X71620Y266642D01*
X71652Y266725D01*
X71686Y266806D01*
X71725Y266886D01*
X71766Y266964D01*
X71811Y267041D01*
X71859Y267115D01*
X71910Y267188D01*
X71964Y267258D01*
X72022Y267325D01*
X72082Y267391D01*
X72144Y267453D01*
X72210Y267513D01*
X72277Y267571D01*
X72347Y267625D01*
X72420Y267676D01*
X72494Y267724D01*
X72571Y267769D01*
X72649Y267810D01*
X72729Y267849D01*
X72810Y267883D01*
X72893Y267915D01*
X72978Y267942D01*
X73063Y267967D01*
X73149Y267987D01*
X73236Y268004D01*
X73324Y268017D01*
X73412Y268026D01*
X73500Y268032D01*
X73589Y268034D01*
X73589Y268035D02*
X74634Y268035D01*
X74634Y268034D02*
X74723Y268032D01*
X74811Y268026D01*
X74899Y268017D01*
X74987Y268004D01*
X75074Y267987D01*
X75160Y267967D01*
X75245Y267942D01*
X75330Y267915D01*
X75413Y267883D01*
X75494Y267849D01*
X75574Y267810D01*
X75652Y267769D01*
X75729Y267724D01*
X75803Y267676D01*
X75876Y267625D01*
X75946Y267571D01*
X76013Y267513D01*
X76079Y267453D01*
X76141Y267391D01*
X76201Y267325D01*
X76259Y267258D01*
X76313Y267188D01*
X76364Y267115D01*
X76412Y267041D01*
X76457Y266964D01*
X76498Y266886D01*
X76537Y266806D01*
X76571Y266725D01*
X76603Y266642D01*
X76630Y266557D01*
X76655Y266472D01*
X76675Y266386D01*
X76692Y266299D01*
X76705Y266211D01*
X76714Y266123D01*
X76720Y266035D01*
X76722Y265946D01*
X76722Y262814D01*
X80899Y262814D01*
X80899Y268035D01*
X75678Y274046D02*
X75678Y277179D01*
X75678Y274046D02*
X75680Y273957D01*
X75686Y273869D01*
X75695Y273781D01*
X75708Y273693D01*
X75725Y273606D01*
X75745Y273520D01*
X75770Y273435D01*
X75797Y273350D01*
X75829Y273267D01*
X75863Y273186D01*
X75902Y273106D01*
X75943Y273028D01*
X75988Y272951D01*
X76036Y272877D01*
X76087Y272804D01*
X76141Y272734D01*
X76199Y272667D01*
X76259Y272601D01*
X76321Y272539D01*
X76387Y272479D01*
X76454Y272421D01*
X76524Y272367D01*
X76597Y272316D01*
X76671Y272268D01*
X76748Y272223D01*
X76826Y272182D01*
X76906Y272143D01*
X76987Y272109D01*
X77070Y272077D01*
X77155Y272050D01*
X77240Y272025D01*
X77326Y272005D01*
X77413Y271988D01*
X77501Y271975D01*
X77589Y271966D01*
X77677Y271960D01*
X77766Y271958D01*
X78288Y271958D01*
X78288Y271957D02*
X78389Y271959D01*
X78490Y271965D01*
X78591Y271975D01*
X78691Y271988D01*
X78791Y272006D01*
X78890Y272027D01*
X78988Y272053D01*
X79085Y272082D01*
X79181Y272114D01*
X79275Y272151D01*
X79368Y272191D01*
X79460Y272235D01*
X79549Y272282D01*
X79637Y272333D01*
X79723Y272387D01*
X79806Y272444D01*
X79888Y272504D01*
X79966Y272568D01*
X80043Y272634D01*
X80116Y272704D01*
X80187Y272776D01*
X80255Y272851D01*
X80320Y272929D01*
X80382Y273009D01*
X80441Y273091D01*
X80497Y273176D01*
X80549Y273263D01*
X80598Y273351D01*
X80644Y273442D01*
X80685Y273534D01*
X80724Y273628D01*
X80758Y273723D01*
X80789Y273819D01*
X80816Y273917D01*
X80840Y274015D01*
X80859Y274115D01*
X80875Y274215D01*
X80887Y274315D01*
X80895Y274416D01*
X80899Y274517D01*
X80899Y274619D01*
X80895Y274720D01*
X80887Y274821D01*
X80875Y274921D01*
X80859Y275021D01*
X80840Y275121D01*
X80816Y275219D01*
X80789Y275317D01*
X80758Y275413D01*
X80724Y275508D01*
X80685Y275602D01*
X80644Y275694D01*
X80598Y275785D01*
X80549Y275873D01*
X80497Y275960D01*
X80441Y276045D01*
X80382Y276127D01*
X80320Y276207D01*
X80255Y276285D01*
X80187Y276360D01*
X80116Y276432D01*
X80043Y276502D01*
X79966Y276568D01*
X79888Y276632D01*
X79806Y276692D01*
X79723Y276749D01*
X79637Y276803D01*
X79549Y276854D01*
X79460Y276901D01*
X79368Y276945D01*
X79275Y276985D01*
X79181Y277022D01*
X79085Y277054D01*
X78988Y277083D01*
X78890Y277109D01*
X78791Y277130D01*
X78691Y277148D01*
X78591Y277161D01*
X78490Y277171D01*
X78389Y277177D01*
X78288Y277179D01*
X75678Y277179D01*
X75552Y277177D01*
X75426Y277171D01*
X75300Y277162D01*
X75175Y277149D01*
X75050Y277131D01*
X74925Y277111D01*
X74801Y277086D01*
X74678Y277058D01*
X74556Y277026D01*
X74435Y276990D01*
X74315Y276951D01*
X74197Y276908D01*
X74080Y276861D01*
X73964Y276811D01*
X73849Y276757D01*
X73737Y276701D01*
X73626Y276640D01*
X73517Y276577D01*
X73410Y276510D01*
X73305Y276440D01*
X73202Y276366D01*
X73102Y276290D01*
X73004Y276211D01*
X72908Y276129D01*
X72815Y276043D01*
X72724Y275956D01*
X72637Y275865D01*
X72551Y275772D01*
X72469Y275676D01*
X72390Y275578D01*
X72314Y275478D01*
X72240Y275375D01*
X72170Y275270D01*
X72103Y275163D01*
X72040Y275054D01*
X71979Y274943D01*
X71923Y274831D01*
X71869Y274716D01*
X71819Y274600D01*
X71772Y274483D01*
X71729Y274365D01*
X71690Y274245D01*
X71654Y274124D01*
X71622Y274002D01*
X71594Y273879D01*
X71569Y273755D01*
X71549Y273630D01*
X71531Y273505D01*
X71518Y273380D01*
X71509Y273254D01*
X71503Y273128D01*
X71501Y273002D01*
X78811Y281102D02*
X80899Y283712D01*
X71501Y283712D01*
X71501Y281102D02*
X71501Y286323D01*
X71501Y290246D02*
X71501Y293378D01*
X71503Y293467D01*
X71509Y293555D01*
X71518Y293643D01*
X71531Y293731D01*
X71548Y293818D01*
X71568Y293904D01*
X71593Y293989D01*
X71620Y294074D01*
X71652Y294157D01*
X71686Y294238D01*
X71725Y294318D01*
X71766Y294396D01*
X71811Y294473D01*
X71859Y294547D01*
X71910Y294620D01*
X71964Y294690D01*
X72022Y294757D01*
X72082Y294823D01*
X72144Y294885D01*
X72210Y294945D01*
X72277Y295003D01*
X72347Y295057D01*
X72420Y295108D01*
X72494Y295156D01*
X72571Y295201D01*
X72649Y295242D01*
X72729Y295281D01*
X72810Y295315D01*
X72893Y295347D01*
X72978Y295374D01*
X73063Y295399D01*
X73149Y295419D01*
X73236Y295436D01*
X73324Y295449D01*
X73412Y295458D01*
X73500Y295464D01*
X73589Y295466D01*
X73589Y295467D02*
X74634Y295467D01*
X74634Y295466D02*
X74723Y295464D01*
X74811Y295458D01*
X74899Y295449D01*
X74987Y295436D01*
X75074Y295419D01*
X75160Y295399D01*
X75245Y295374D01*
X75330Y295347D01*
X75413Y295315D01*
X75494Y295281D01*
X75574Y295242D01*
X75652Y295201D01*
X75729Y295156D01*
X75803Y295108D01*
X75876Y295057D01*
X75946Y295003D01*
X76013Y294945D01*
X76079Y294885D01*
X76141Y294823D01*
X76201Y294757D01*
X76259Y294690D01*
X76313Y294620D01*
X76364Y294547D01*
X76412Y294473D01*
X76457Y294396D01*
X76498Y294318D01*
X76537Y294238D01*
X76571Y294157D01*
X76603Y294074D01*
X76630Y293989D01*
X76655Y293904D01*
X76675Y293818D01*
X76692Y293731D01*
X76705Y293643D01*
X76714Y293555D01*
X76720Y293467D01*
X76722Y293378D01*
X76722Y290246D01*
X80899Y290246D01*
X80899Y295467D01*
X78811Y299390D02*
X80899Y302000D01*
X71501Y302000D01*
X71501Y299390D02*
X71501Y304611D01*
X71501Y308838D02*
X80899Y308838D01*
X80899Y311449D01*
X80897Y311549D01*
X80891Y311649D01*
X80882Y311748D01*
X80868Y311848D01*
X80851Y311946D01*
X80830Y312044D01*
X80806Y312141D01*
X80777Y312237D01*
X80745Y312332D01*
X80710Y312425D01*
X80671Y312517D01*
X80628Y312608D01*
X80582Y312696D01*
X80532Y312783D01*
X80480Y312868D01*
X80424Y312951D01*
X80365Y313032D01*
X80302Y313110D01*
X80237Y313186D01*
X80169Y313260D01*
X80099Y313330D01*
X80025Y313398D01*
X79949Y313463D01*
X79871Y313526D01*
X79790Y313585D01*
X79707Y313641D01*
X79622Y313693D01*
X79535Y313743D01*
X79447Y313789D01*
X79356Y313832D01*
X79264Y313871D01*
X79171Y313906D01*
X79076Y313938D01*
X78980Y313967D01*
X78883Y313991D01*
X78785Y314012D01*
X78687Y314029D01*
X78587Y314043D01*
X78488Y314052D01*
X78388Y314058D01*
X78288Y314060D01*
X78288Y314059D02*
X74112Y314059D01*
X74112Y314060D02*
X74012Y314058D01*
X73912Y314052D01*
X73813Y314043D01*
X73713Y314029D01*
X73615Y314012D01*
X73517Y313991D01*
X73420Y313967D01*
X73324Y313938D01*
X73229Y313906D01*
X73136Y313871D01*
X73044Y313832D01*
X72953Y313789D01*
X72865Y313743D01*
X72778Y313693D01*
X72693Y313641D01*
X72610Y313585D01*
X72529Y313526D01*
X72451Y313463D01*
X72375Y313398D01*
X72301Y313330D01*
X72231Y313260D01*
X72163Y313186D01*
X72098Y313110D01*
X72035Y313032D01*
X71976Y312951D01*
X71920Y312868D01*
X71868Y312783D01*
X71818Y312696D01*
X71772Y312608D01*
X71729Y312517D01*
X71690Y312425D01*
X71655Y312332D01*
X71623Y312237D01*
X71594Y312141D01*
X71570Y312044D01*
X71549Y311946D01*
X71532Y311848D01*
X71518Y311748D01*
X71509Y311649D01*
X71503Y311549D01*
X71501Y311449D01*
X71501Y308838D01*
X71501Y321115D02*
X71503Y321204D01*
X71509Y321292D01*
X71518Y321380D01*
X71531Y321468D01*
X71548Y321555D01*
X71568Y321641D01*
X71593Y321726D01*
X71620Y321811D01*
X71652Y321894D01*
X71686Y321975D01*
X71725Y322055D01*
X71766Y322133D01*
X71811Y322210D01*
X71859Y322284D01*
X71910Y322357D01*
X71964Y322427D01*
X72022Y322494D01*
X72082Y322560D01*
X72144Y322622D01*
X72210Y322682D01*
X72277Y322740D01*
X72347Y322794D01*
X72420Y322845D01*
X72494Y322893D01*
X72571Y322938D01*
X72649Y322979D01*
X72729Y323018D01*
X72810Y323052D01*
X72893Y323084D01*
X72978Y323111D01*
X73063Y323136D01*
X73149Y323156D01*
X73236Y323173D01*
X73324Y323186D01*
X73412Y323195D01*
X73500Y323201D01*
X73589Y323203D01*
X71501Y321115D02*
X71503Y320986D01*
X71509Y320857D01*
X71518Y320728D01*
X71531Y320600D01*
X71548Y320472D01*
X71569Y320345D01*
X71593Y320218D01*
X71621Y320092D01*
X71653Y319967D01*
X71688Y319843D01*
X71727Y319720D01*
X71770Y319598D01*
X71816Y319478D01*
X71866Y319359D01*
X71919Y319241D01*
X71975Y319125D01*
X72035Y319011D01*
X72098Y318898D01*
X72165Y318788D01*
X72234Y318679D01*
X72307Y318573D01*
X72383Y318468D01*
X72462Y318366D01*
X72544Y318267D01*
X72628Y318169D01*
X72716Y318074D01*
X72806Y317982D01*
X78811Y318244D02*
X78900Y318246D01*
X78988Y318252D01*
X79076Y318261D01*
X79164Y318274D01*
X79251Y318291D01*
X79337Y318311D01*
X79422Y318336D01*
X79507Y318363D01*
X79590Y318395D01*
X79671Y318429D01*
X79751Y318468D01*
X79829Y318509D01*
X79906Y318554D01*
X79980Y318602D01*
X80053Y318653D01*
X80123Y318707D01*
X80190Y318765D01*
X80256Y318825D01*
X80318Y318887D01*
X80378Y318953D01*
X80436Y319020D01*
X80490Y319090D01*
X80541Y319163D01*
X80589Y319237D01*
X80634Y319314D01*
X80675Y319392D01*
X80714Y319472D01*
X80748Y319553D01*
X80780Y319636D01*
X80807Y319721D01*
X80832Y319806D01*
X80852Y319892D01*
X80869Y319979D01*
X80882Y320067D01*
X80891Y320155D01*
X80897Y320243D01*
X80899Y320332D01*
X80897Y320452D01*
X80892Y320572D01*
X80882Y320692D01*
X80870Y320811D01*
X80853Y320930D01*
X80833Y321048D01*
X80809Y321166D01*
X80782Y321282D01*
X80751Y321398D01*
X80717Y321513D01*
X80679Y321627D01*
X80637Y321740D01*
X80592Y321851D01*
X80544Y321961D01*
X80493Y322069D01*
X80438Y322176D01*
X80380Y322281D01*
X80318Y322384D01*
X80254Y322485D01*
X80186Y322585D01*
X80116Y322682D01*
X76984Y319287D02*
X77032Y319209D01*
X77084Y319133D01*
X77138Y319060D01*
X77196Y318989D01*
X77257Y318920D01*
X77321Y318854D01*
X77388Y318791D01*
X77457Y318731D01*
X77529Y318674D01*
X77603Y318620D01*
X77680Y318570D01*
X77759Y318522D01*
X77839Y318479D01*
X77922Y318438D01*
X78006Y318402D01*
X78091Y318369D01*
X78178Y318340D01*
X78267Y318314D01*
X78356Y318292D01*
X78446Y318275D01*
X78536Y318261D01*
X78628Y318251D01*
X78719Y318245D01*
X78811Y318243D01*
X75416Y322159D02*
X75368Y322237D01*
X75316Y322313D01*
X75262Y322386D01*
X75204Y322457D01*
X75143Y322526D01*
X75079Y322592D01*
X75012Y322655D01*
X74943Y322715D01*
X74871Y322772D01*
X74797Y322826D01*
X74720Y322876D01*
X74641Y322924D01*
X74561Y322967D01*
X74478Y323008D01*
X74394Y323044D01*
X74309Y323077D01*
X74222Y323106D01*
X74133Y323132D01*
X74044Y323154D01*
X73954Y323171D01*
X73864Y323185D01*
X73772Y323195D01*
X73681Y323201D01*
X73589Y323203D01*
X75417Y322159D02*
X76983Y319288D01*
X71501Y326821D02*
X71501Y329954D01*
X71503Y330043D01*
X71509Y330131D01*
X71518Y330219D01*
X71531Y330307D01*
X71548Y330394D01*
X71568Y330480D01*
X71593Y330565D01*
X71620Y330650D01*
X71652Y330733D01*
X71686Y330814D01*
X71725Y330894D01*
X71766Y330972D01*
X71811Y331049D01*
X71859Y331123D01*
X71910Y331196D01*
X71964Y331266D01*
X72022Y331333D01*
X72082Y331399D01*
X72144Y331461D01*
X72210Y331521D01*
X72277Y331579D01*
X72347Y331633D01*
X72420Y331684D01*
X72494Y331732D01*
X72571Y331777D01*
X72649Y331818D01*
X72729Y331857D01*
X72810Y331891D01*
X72893Y331923D01*
X72978Y331950D01*
X73063Y331975D01*
X73149Y331995D01*
X73236Y332012D01*
X73324Y332025D01*
X73412Y332034D01*
X73500Y332040D01*
X73589Y332042D01*
X73589Y332043D02*
X74634Y332043D01*
X74634Y332042D02*
X74723Y332040D01*
X74811Y332034D01*
X74899Y332025D01*
X74987Y332012D01*
X75074Y331995D01*
X75160Y331975D01*
X75245Y331950D01*
X75330Y331923D01*
X75413Y331891D01*
X75494Y331857D01*
X75574Y331818D01*
X75652Y331777D01*
X75729Y331732D01*
X75803Y331684D01*
X75876Y331633D01*
X75946Y331579D01*
X76013Y331521D01*
X76079Y331461D01*
X76141Y331399D01*
X76201Y331333D01*
X76259Y331266D01*
X76313Y331196D01*
X76364Y331123D01*
X76412Y331049D01*
X76457Y330972D01*
X76498Y330894D01*
X76537Y330814D01*
X76571Y330733D01*
X76603Y330650D01*
X76630Y330565D01*
X76655Y330480D01*
X76675Y330394D01*
X76692Y330307D01*
X76705Y330219D01*
X76714Y330131D01*
X76720Y330043D01*
X76722Y329954D01*
X76722Y326821D01*
X80899Y326821D01*
X80899Y332043D01*
X79594Y336748D02*
X79427Y336669D01*
X79258Y336594D01*
X79087Y336523D01*
X78915Y336456D01*
X78741Y336394D01*
X78565Y336335D01*
X78389Y336281D01*
X78211Y336231D01*
X78031Y336185D01*
X77851Y336143D01*
X77670Y336106D01*
X77488Y336073D01*
X77306Y336044D01*
X77122Y336020D01*
X76938Y336000D01*
X76754Y335985D01*
X76570Y335974D01*
X76385Y335967D01*
X76200Y335965D01*
X79594Y336748D02*
X79674Y336778D01*
X79753Y336811D01*
X79830Y336848D01*
X79906Y336888D01*
X79980Y336931D01*
X80052Y336977D01*
X80121Y337027D01*
X80189Y337079D01*
X80254Y337135D01*
X80317Y337193D01*
X80376Y337255D01*
X80434Y337318D01*
X80488Y337385D01*
X80539Y337453D01*
X80587Y337524D01*
X80632Y337597D01*
X80674Y337671D01*
X80712Y337748D01*
X80747Y337826D01*
X80779Y337905D01*
X80807Y337986D01*
X80831Y338068D01*
X80852Y338152D01*
X80869Y338235D01*
X80882Y338320D01*
X80891Y338405D01*
X80897Y338490D01*
X80899Y338576D01*
X80897Y338662D01*
X80891Y338747D01*
X80882Y338832D01*
X80869Y338917D01*
X80852Y339000D01*
X80831Y339084D01*
X80807Y339166D01*
X80779Y339247D01*
X80747Y339326D01*
X80712Y339404D01*
X80674Y339481D01*
X80632Y339555D01*
X80587Y339628D01*
X80539Y339699D01*
X80488Y339767D01*
X80434Y339834D01*
X80376Y339897D01*
X80317Y339959D01*
X80254Y340017D01*
X80189Y340073D01*
X80121Y340125D01*
X80052Y340175D01*
X79980Y340221D01*
X79906Y340264D01*
X79830Y340304D01*
X79753Y340341D01*
X79674Y340374D01*
X79594Y340404D01*
X79427Y340483D01*
X79258Y340558D01*
X79087Y340629D01*
X78915Y340696D01*
X78741Y340758D01*
X78565Y340817D01*
X78389Y340871D01*
X78211Y340921D01*
X78031Y340967D01*
X77851Y341009D01*
X77670Y341046D01*
X77488Y341079D01*
X77306Y341108D01*
X77122Y341132D01*
X76938Y341152D01*
X76754Y341167D01*
X76570Y341178D01*
X76385Y341185D01*
X76200Y341187D01*
X76200Y335965D02*
X76015Y335967D01*
X75830Y335974D01*
X75646Y335985D01*
X75462Y336000D01*
X75278Y336020D01*
X75094Y336044D01*
X74912Y336073D01*
X74730Y336106D01*
X74549Y336143D01*
X74369Y336185D01*
X74189Y336231D01*
X74011Y336281D01*
X73835Y336335D01*
X73659Y336394D01*
X73485Y336456D01*
X73313Y336523D01*
X73142Y336594D01*
X72973Y336669D01*
X72806Y336748D01*
X72726Y336778D01*
X72647Y336811D01*
X72570Y336848D01*
X72494Y336888D01*
X72420Y336931D01*
X72348Y336977D01*
X72279Y337027D01*
X72211Y337080D01*
X72146Y337135D01*
X72083Y337194D01*
X72024Y337255D01*
X71966Y337318D01*
X71912Y337385D01*
X71861Y337453D01*
X71813Y337524D01*
X71768Y337597D01*
X71726Y337671D01*
X71688Y337748D01*
X71653Y337826D01*
X71621Y337905D01*
X71593Y337986D01*
X71569Y338068D01*
X71548Y338152D01*
X71531Y338235D01*
X71518Y338320D01*
X71509Y338405D01*
X71503Y338490D01*
X71501Y338576D01*
X72806Y340404D02*
X72973Y340483D01*
X73142Y340558D01*
X73313Y340629D01*
X73485Y340696D01*
X73659Y340758D01*
X73835Y340817D01*
X74011Y340871D01*
X74189Y340921D01*
X74369Y340967D01*
X74549Y341009D01*
X74730Y341046D01*
X74912Y341079D01*
X75094Y341108D01*
X75278Y341132D01*
X75462Y341152D01*
X75646Y341167D01*
X75830Y341178D01*
X76015Y341185D01*
X76200Y341187D01*
X72806Y340404D02*
X72726Y340374D01*
X72647Y340341D01*
X72570Y340304D01*
X72494Y340264D01*
X72420Y340221D01*
X72348Y340175D01*
X72279Y340125D01*
X72211Y340073D01*
X72146Y340017D01*
X72083Y339959D01*
X72024Y339897D01*
X71966Y339834D01*
X71912Y339767D01*
X71861Y339699D01*
X71813Y339628D01*
X71768Y339555D01*
X71726Y339481D01*
X71688Y339404D01*
X71653Y339326D01*
X71621Y339247D01*
X71593Y339166D01*
X71569Y339084D01*
X71548Y339000D01*
X71531Y338917D01*
X71518Y338832D01*
X71509Y338747D01*
X71503Y338662D01*
X71501Y338576D01*
X73589Y336488D02*
X78811Y340664D01*
X80899Y345471D02*
X71501Y345471D01*
X80899Y345471D02*
X80899Y348082D01*
X80897Y348183D01*
X80891Y348284D01*
X80881Y348385D01*
X80868Y348485D01*
X80850Y348585D01*
X80829Y348684D01*
X80803Y348782D01*
X80774Y348879D01*
X80742Y348975D01*
X80705Y349069D01*
X80665Y349162D01*
X80621Y349254D01*
X80574Y349343D01*
X80523Y349431D01*
X80469Y349517D01*
X80412Y349600D01*
X80352Y349682D01*
X80288Y349760D01*
X80222Y349837D01*
X80152Y349910D01*
X80080Y349981D01*
X80005Y350049D01*
X79927Y350114D01*
X79847Y350176D01*
X79765Y350235D01*
X79680Y350291D01*
X79594Y350343D01*
X79505Y350392D01*
X79414Y350438D01*
X79322Y350479D01*
X79228Y350518D01*
X79133Y350552D01*
X79037Y350583D01*
X78939Y350610D01*
X78841Y350634D01*
X78741Y350653D01*
X78641Y350669D01*
X78541Y350681D01*
X78440Y350689D01*
X78339Y350693D01*
X78237Y350693D01*
X78136Y350689D01*
X78035Y350681D01*
X77935Y350669D01*
X77835Y350653D01*
X77735Y350634D01*
X77637Y350610D01*
X77539Y350583D01*
X77443Y350552D01*
X77348Y350518D01*
X77254Y350479D01*
X77162Y350438D01*
X77071Y350392D01*
X76983Y350343D01*
X76896Y350291D01*
X76811Y350235D01*
X76729Y350176D01*
X76649Y350114D01*
X76571Y350049D01*
X76496Y349981D01*
X76424Y349910D01*
X76354Y349837D01*
X76288Y349760D01*
X76224Y349682D01*
X76164Y349600D01*
X76107Y349517D01*
X76053Y349431D01*
X76002Y349343D01*
X75955Y349254D01*
X75911Y349162D01*
X75871Y349069D01*
X75834Y348975D01*
X75802Y348879D01*
X75773Y348782D01*
X75747Y348684D01*
X75726Y348585D01*
X75708Y348485D01*
X75695Y348385D01*
X75685Y348284D01*
X75679Y348183D01*
X75677Y348082D01*
X75678Y348082D02*
X75678Y345471D01*
X75678Y348604D02*
X71501Y350692D01*
X73589Y354558D02*
X80899Y356647D01*
X73589Y354558D02*
X73589Y359779D01*
X75678Y358213D02*
X71501Y358213D01*
X76722Y367662D02*
X76722Y369228D01*
X71501Y369228D01*
X71501Y366095D01*
X71503Y366006D01*
X71509Y365918D01*
X71518Y365830D01*
X71531Y365742D01*
X71548Y365655D01*
X71568Y365569D01*
X71593Y365484D01*
X71620Y365399D01*
X71652Y365316D01*
X71686Y365235D01*
X71725Y365155D01*
X71766Y365077D01*
X71811Y365000D01*
X71859Y364926D01*
X71910Y364853D01*
X71964Y364783D01*
X72022Y364716D01*
X72082Y364650D01*
X72144Y364588D01*
X72210Y364528D01*
X72277Y364470D01*
X72347Y364416D01*
X72420Y364365D01*
X72494Y364317D01*
X72571Y364272D01*
X72649Y364231D01*
X72729Y364192D01*
X72810Y364158D01*
X72893Y364126D01*
X72978Y364099D01*
X73063Y364074D01*
X73149Y364054D01*
X73236Y364037D01*
X73324Y364024D01*
X73412Y364015D01*
X73500Y364009D01*
X73589Y364007D01*
X78811Y364007D01*
X78902Y364009D01*
X78993Y364015D01*
X79084Y364025D01*
X79174Y364039D01*
X79263Y364056D01*
X79351Y364078D01*
X79439Y364104D01*
X79525Y364133D01*
X79610Y364166D01*
X79693Y364203D01*
X79775Y364243D01*
X79855Y364287D01*
X79933Y364334D01*
X80009Y364385D01*
X80082Y364438D01*
X80153Y364495D01*
X80222Y364556D01*
X80287Y364619D01*
X80350Y364684D01*
X80410Y364753D01*
X80468Y364824D01*
X80521Y364897D01*
X80572Y364973D01*
X80619Y365051D01*
X80663Y365131D01*
X80703Y365213D01*
X80740Y365296D01*
X80773Y365381D01*
X80802Y365467D01*
X80828Y365555D01*
X80850Y365643D01*
X80867Y365732D01*
X80881Y365822D01*
X80891Y365913D01*
X80897Y366004D01*
X80899Y366095D01*
X80899Y369228D01*
D13*
X111139Y193548D02*
X113736Y193548D01*
X113835Y193550D01*
X113935Y193556D01*
X114034Y193565D01*
X114132Y193578D01*
X114230Y193595D01*
X114328Y193616D01*
X114424Y193641D01*
X114519Y193669D01*
X114613Y193701D01*
X114706Y193736D01*
X114798Y193775D01*
X114888Y193818D01*
X114976Y193863D01*
X115063Y193913D01*
X115147Y193965D01*
X115230Y194021D01*
X115310Y194079D01*
X115388Y194141D01*
X115463Y194206D01*
X115536Y194274D01*
X115606Y194344D01*
X115674Y194417D01*
X115739Y194492D01*
X115801Y194570D01*
X115859Y194650D01*
X115915Y194733D01*
X115967Y194817D01*
X116017Y194904D01*
X116062Y194992D01*
X116105Y195082D01*
X116144Y195174D01*
X116179Y195267D01*
X116211Y195361D01*
X116239Y195456D01*
X116264Y195552D01*
X116285Y195650D01*
X116302Y195748D01*
X116315Y195846D01*
X116324Y195945D01*
X116330Y196045D01*
X116332Y196144D01*
X116332Y202636D01*
X116330Y202735D01*
X116324Y202835D01*
X116315Y202934D01*
X116302Y203032D01*
X116285Y203130D01*
X116264Y203228D01*
X116239Y203324D01*
X116211Y203419D01*
X116179Y203513D01*
X116144Y203606D01*
X116105Y203698D01*
X116062Y203788D01*
X116017Y203876D01*
X115967Y203963D01*
X115915Y204047D01*
X115859Y204130D01*
X115801Y204210D01*
X115739Y204288D01*
X115674Y204363D01*
X115606Y204436D01*
X115536Y204506D01*
X115463Y204574D01*
X115388Y204639D01*
X115310Y204701D01*
X115230Y204759D01*
X115147Y204815D01*
X115063Y204867D01*
X114976Y204917D01*
X114888Y204962D01*
X114798Y205005D01*
X114706Y205044D01*
X114613Y205079D01*
X114519Y205111D01*
X114424Y205139D01*
X114328Y205164D01*
X114230Y205185D01*
X114132Y205202D01*
X114034Y205215D01*
X113935Y205224D01*
X113835Y205230D01*
X113736Y205232D01*
X111139Y205232D01*
X103204Y205232D02*
X103097Y205230D01*
X102991Y205224D01*
X102885Y205214D01*
X102779Y205201D01*
X102673Y205183D01*
X102569Y205162D01*
X102465Y205137D01*
X102362Y205108D01*
X102261Y205076D01*
X102161Y205039D01*
X102062Y204999D01*
X101964Y204956D01*
X101868Y204909D01*
X101774Y204858D01*
X101682Y204804D01*
X101592Y204747D01*
X101504Y204687D01*
X101419Y204623D01*
X101336Y204556D01*
X101255Y204486D01*
X101177Y204414D01*
X101101Y204338D01*
X101029Y204260D01*
X100959Y204179D01*
X100892Y204096D01*
X100828Y204011D01*
X100768Y203923D01*
X100711Y203833D01*
X100657Y203741D01*
X100606Y203647D01*
X100559Y203551D01*
X100516Y203453D01*
X100476Y203354D01*
X100439Y203254D01*
X100407Y203153D01*
X100378Y203050D01*
X100353Y202946D01*
X100332Y202842D01*
X100314Y202736D01*
X100301Y202630D01*
X100291Y202524D01*
X100285Y202418D01*
X100283Y202311D01*
X103204Y205232D02*
X103325Y205230D01*
X103446Y205224D01*
X103566Y205214D01*
X103687Y205201D01*
X103806Y205183D01*
X103926Y205162D01*
X104044Y205137D01*
X104161Y205108D01*
X104278Y205075D01*
X104393Y205039D01*
X104507Y204998D01*
X104620Y204955D01*
X104732Y204907D01*
X104841Y204856D01*
X104949Y204801D01*
X105056Y204743D01*
X105160Y204682D01*
X105262Y204617D01*
X105362Y204549D01*
X105460Y204478D01*
X105556Y204404D01*
X105649Y204327D01*
X105739Y204246D01*
X105827Y204163D01*
X105912Y204077D01*
X105995Y203988D01*
X106074Y203897D01*
X106151Y203803D01*
X106224Y203707D01*
X106294Y203609D01*
X106361Y203508D01*
X106425Y203405D01*
X106486Y203300D01*
X106543Y203193D01*
X106596Y203085D01*
X106646Y202975D01*
X106692Y202863D01*
X106735Y202750D01*
X106774Y202635D01*
X101257Y200039D02*
X101178Y200117D01*
X101102Y200197D01*
X101029Y200280D01*
X100959Y200366D01*
X100892Y200453D01*
X100828Y200544D01*
X100768Y200636D01*
X100710Y200730D01*
X100656Y200827D01*
X100606Y200925D01*
X100559Y201025D01*
X100515Y201126D01*
X100475Y201229D01*
X100439Y201334D01*
X100407Y201439D01*
X100378Y201546D01*
X100353Y201653D01*
X100331Y201762D01*
X100314Y201871D01*
X100300Y201980D01*
X100291Y202090D01*
X100285Y202201D01*
X100283Y202311D01*
X101256Y200039D02*
X106774Y193548D01*
X100283Y193548D01*
X803289Y298958D02*
X805886Y298958D01*
X805985Y298960D01*
X806085Y298966D01*
X806184Y298975D01*
X806282Y298988D01*
X806380Y299005D01*
X806478Y299026D01*
X806574Y299051D01*
X806669Y299079D01*
X806763Y299111D01*
X806856Y299146D01*
X806948Y299185D01*
X807038Y299228D01*
X807126Y299273D01*
X807213Y299323D01*
X807297Y299375D01*
X807380Y299431D01*
X807460Y299489D01*
X807538Y299551D01*
X807613Y299616D01*
X807686Y299684D01*
X807756Y299754D01*
X807824Y299827D01*
X807889Y299902D01*
X807951Y299980D01*
X808009Y300060D01*
X808065Y300143D01*
X808117Y300227D01*
X808167Y300314D01*
X808212Y300402D01*
X808255Y300492D01*
X808294Y300584D01*
X808329Y300677D01*
X808361Y300771D01*
X808389Y300866D01*
X808414Y300962D01*
X808435Y301060D01*
X808452Y301158D01*
X808465Y301256D01*
X808474Y301355D01*
X808480Y301455D01*
X808482Y301554D01*
X808482Y308046D01*
X808480Y308145D01*
X808474Y308245D01*
X808465Y308344D01*
X808452Y308442D01*
X808435Y308540D01*
X808414Y308638D01*
X808389Y308734D01*
X808361Y308829D01*
X808329Y308923D01*
X808294Y309016D01*
X808255Y309108D01*
X808212Y309198D01*
X808167Y309286D01*
X808117Y309373D01*
X808065Y309457D01*
X808009Y309540D01*
X807951Y309620D01*
X807889Y309698D01*
X807824Y309773D01*
X807756Y309846D01*
X807686Y309916D01*
X807613Y309984D01*
X807538Y310049D01*
X807460Y310111D01*
X807380Y310169D01*
X807297Y310225D01*
X807213Y310277D01*
X807126Y310327D01*
X807038Y310372D01*
X806948Y310415D01*
X806856Y310454D01*
X806763Y310489D01*
X806669Y310521D01*
X806574Y310549D01*
X806478Y310574D01*
X806380Y310595D01*
X806282Y310612D01*
X806184Y310625D01*
X806085Y310634D01*
X805985Y310640D01*
X805886Y310642D01*
X803289Y310642D01*
X798924Y298958D02*
X795678Y298958D01*
X795565Y298960D01*
X795452Y298966D01*
X795339Y298976D01*
X795226Y298990D01*
X795114Y299007D01*
X795003Y299029D01*
X794893Y299054D01*
X794783Y299084D01*
X794675Y299117D01*
X794568Y299154D01*
X794462Y299194D01*
X794358Y299239D01*
X794255Y299287D01*
X794154Y299338D01*
X794055Y299393D01*
X793958Y299451D01*
X793863Y299513D01*
X793770Y299578D01*
X793680Y299646D01*
X793592Y299717D01*
X793506Y299792D01*
X793423Y299869D01*
X793343Y299949D01*
X793266Y300032D01*
X793191Y300118D01*
X793120Y300206D01*
X793052Y300296D01*
X792987Y300389D01*
X792925Y300484D01*
X792867Y300581D01*
X792812Y300680D01*
X792761Y300781D01*
X792713Y300884D01*
X792668Y300988D01*
X792628Y301094D01*
X792591Y301201D01*
X792558Y301309D01*
X792528Y301419D01*
X792503Y301529D01*
X792481Y301640D01*
X792464Y301752D01*
X792450Y301865D01*
X792440Y301978D01*
X792434Y302091D01*
X792432Y302204D01*
X792434Y302317D01*
X792440Y302430D01*
X792450Y302543D01*
X792464Y302656D01*
X792481Y302768D01*
X792503Y302879D01*
X792528Y302989D01*
X792558Y303099D01*
X792591Y303207D01*
X792628Y303314D01*
X792668Y303420D01*
X792713Y303524D01*
X792761Y303627D01*
X792812Y303728D01*
X792867Y303827D01*
X792925Y303924D01*
X792987Y304019D01*
X793052Y304112D01*
X793120Y304202D01*
X793191Y304290D01*
X793266Y304376D01*
X793343Y304459D01*
X793423Y304539D01*
X793506Y304616D01*
X793592Y304691D01*
X793680Y304762D01*
X793770Y304830D01*
X793863Y304895D01*
X793958Y304957D01*
X794055Y305015D01*
X794154Y305070D01*
X794255Y305121D01*
X794358Y305169D01*
X794462Y305214D01*
X794568Y305254D01*
X794675Y305291D01*
X794783Y305324D01*
X794893Y305354D01*
X795003Y305379D01*
X795114Y305401D01*
X795226Y305418D01*
X795339Y305432D01*
X795452Y305442D01*
X795565Y305448D01*
X795678Y305450D01*
X795029Y310642D02*
X798924Y310642D01*
X795029Y310642D02*
X794928Y310640D01*
X794828Y310634D01*
X794728Y310624D01*
X794628Y310611D01*
X794529Y310593D01*
X794430Y310572D01*
X794333Y310547D01*
X794236Y310518D01*
X794141Y310485D01*
X794047Y310449D01*
X793955Y310409D01*
X793864Y310366D01*
X793775Y310319D01*
X793688Y310269D01*
X793602Y310215D01*
X793519Y310158D01*
X793439Y310098D01*
X793360Y310035D01*
X793284Y309968D01*
X793211Y309899D01*
X793141Y309827D01*
X793073Y309753D01*
X793008Y309676D01*
X792947Y309596D01*
X792888Y309514D01*
X792833Y309430D01*
X792781Y309344D01*
X792732Y309256D01*
X792687Y309166D01*
X792645Y309074D01*
X792607Y308981D01*
X792573Y308886D01*
X792542Y308791D01*
X792515Y308694D01*
X792492Y308596D01*
X792472Y308497D01*
X792457Y308397D01*
X792445Y308297D01*
X792437Y308197D01*
X792433Y308096D01*
X792433Y307996D01*
X792437Y307895D01*
X792445Y307795D01*
X792457Y307695D01*
X792472Y307595D01*
X792492Y307496D01*
X792515Y307398D01*
X792542Y307301D01*
X792573Y307206D01*
X792607Y307111D01*
X792645Y307018D01*
X792687Y306926D01*
X792732Y306836D01*
X792781Y306748D01*
X792833Y306662D01*
X792888Y306578D01*
X792947Y306496D01*
X793008Y306416D01*
X793073Y306339D01*
X793141Y306265D01*
X793211Y306193D01*
X793284Y306124D01*
X793360Y306057D01*
X793439Y305994D01*
X793519Y305934D01*
X793602Y305877D01*
X793688Y305823D01*
X793775Y305773D01*
X793864Y305726D01*
X793955Y305683D01*
X794047Y305643D01*
X794141Y305607D01*
X794236Y305574D01*
X794333Y305545D01*
X794430Y305520D01*
X794529Y305499D01*
X794628Y305481D01*
X794728Y305468D01*
X794828Y305458D01*
X794928Y305452D01*
X795029Y305450D01*
X795029Y305449D02*
X797626Y305449D01*
D10*
X692221Y342011D02*
X690132Y342011D01*
X692221Y342011D02*
X692310Y342013D01*
X692398Y342019D01*
X692486Y342028D01*
X692574Y342041D01*
X692661Y342058D01*
X692747Y342078D01*
X692832Y342103D01*
X692917Y342130D01*
X693000Y342162D01*
X693081Y342196D01*
X693161Y342235D01*
X693239Y342276D01*
X693316Y342321D01*
X693390Y342369D01*
X693463Y342420D01*
X693533Y342474D01*
X693600Y342532D01*
X693666Y342592D01*
X693728Y342654D01*
X693788Y342720D01*
X693846Y342787D01*
X693900Y342857D01*
X693951Y342930D01*
X693999Y343004D01*
X694044Y343081D01*
X694085Y343159D01*
X694124Y343239D01*
X694158Y343320D01*
X694190Y343403D01*
X694217Y343488D01*
X694242Y343573D01*
X694262Y343659D01*
X694279Y343746D01*
X694292Y343834D01*
X694301Y343922D01*
X694307Y344010D01*
X694309Y344099D01*
X694309Y349321D01*
X694307Y349410D01*
X694301Y349498D01*
X694292Y349586D01*
X694279Y349674D01*
X694262Y349761D01*
X694242Y349847D01*
X694217Y349932D01*
X694190Y350017D01*
X694158Y350100D01*
X694124Y350181D01*
X694085Y350261D01*
X694044Y350339D01*
X693999Y350416D01*
X693951Y350490D01*
X693900Y350563D01*
X693846Y350633D01*
X693788Y350700D01*
X693728Y350766D01*
X693666Y350828D01*
X693600Y350888D01*
X693533Y350946D01*
X693463Y351000D01*
X693390Y351051D01*
X693316Y351099D01*
X693239Y351144D01*
X693161Y351185D01*
X693081Y351224D01*
X693000Y351258D01*
X692917Y351290D01*
X692832Y351317D01*
X692747Y351342D01*
X692661Y351362D01*
X692574Y351379D01*
X692486Y351392D01*
X692398Y351401D01*
X692310Y351407D01*
X692221Y351409D01*
X690132Y351409D01*
X684575Y351409D02*
X686663Y344099D01*
X681442Y344099D01*
X683009Y342011D02*
X683009Y346188D01*
D13*
X210811Y184658D02*
X208214Y184658D01*
X210811Y184658D02*
X210910Y184660D01*
X211010Y184666D01*
X211109Y184675D01*
X211207Y184688D01*
X211305Y184705D01*
X211403Y184726D01*
X211499Y184751D01*
X211594Y184779D01*
X211688Y184811D01*
X211781Y184846D01*
X211873Y184885D01*
X211963Y184928D01*
X212051Y184973D01*
X212138Y185023D01*
X212222Y185075D01*
X212305Y185131D01*
X212385Y185189D01*
X212463Y185251D01*
X212538Y185316D01*
X212611Y185384D01*
X212681Y185454D01*
X212749Y185527D01*
X212814Y185602D01*
X212876Y185680D01*
X212934Y185760D01*
X212990Y185843D01*
X213042Y185927D01*
X213092Y186014D01*
X213137Y186102D01*
X213180Y186192D01*
X213219Y186284D01*
X213254Y186377D01*
X213286Y186471D01*
X213314Y186566D01*
X213339Y186662D01*
X213360Y186760D01*
X213377Y186858D01*
X213390Y186956D01*
X213399Y187055D01*
X213405Y187155D01*
X213407Y187254D01*
X213407Y193746D01*
X213405Y193845D01*
X213399Y193945D01*
X213390Y194044D01*
X213377Y194142D01*
X213360Y194240D01*
X213339Y194338D01*
X213314Y194434D01*
X213286Y194529D01*
X213254Y194623D01*
X213219Y194716D01*
X213180Y194808D01*
X213137Y194898D01*
X213092Y194986D01*
X213042Y195073D01*
X212990Y195157D01*
X212934Y195240D01*
X212876Y195320D01*
X212814Y195398D01*
X212749Y195473D01*
X212681Y195546D01*
X212611Y195616D01*
X212538Y195684D01*
X212463Y195749D01*
X212385Y195811D01*
X212305Y195869D01*
X212222Y195925D01*
X212138Y195977D01*
X212051Y196027D01*
X211963Y196072D01*
X211873Y196115D01*
X211781Y196154D01*
X211688Y196189D01*
X211594Y196221D01*
X211499Y196249D01*
X211403Y196274D01*
X211305Y196295D01*
X211207Y196312D01*
X211109Y196325D01*
X211010Y196334D01*
X210910Y196340D01*
X210811Y196342D01*
X208214Y196342D01*
X203849Y184658D02*
X199954Y184658D01*
X199855Y184660D01*
X199755Y184666D01*
X199656Y184675D01*
X199558Y184688D01*
X199460Y184705D01*
X199362Y184726D01*
X199266Y184751D01*
X199171Y184779D01*
X199077Y184811D01*
X198984Y184846D01*
X198892Y184885D01*
X198802Y184928D01*
X198714Y184973D01*
X198627Y185023D01*
X198543Y185075D01*
X198460Y185131D01*
X198380Y185189D01*
X198302Y185251D01*
X198227Y185316D01*
X198154Y185384D01*
X198084Y185454D01*
X198016Y185527D01*
X197951Y185602D01*
X197889Y185680D01*
X197831Y185760D01*
X197775Y185843D01*
X197723Y185927D01*
X197673Y186014D01*
X197628Y186102D01*
X197585Y186192D01*
X197546Y186284D01*
X197511Y186377D01*
X197479Y186471D01*
X197451Y186566D01*
X197426Y186662D01*
X197405Y186760D01*
X197388Y186858D01*
X197375Y186956D01*
X197366Y187055D01*
X197360Y187155D01*
X197358Y187254D01*
X197358Y188553D01*
X197360Y188652D01*
X197366Y188752D01*
X197375Y188851D01*
X197388Y188949D01*
X197405Y189047D01*
X197426Y189145D01*
X197451Y189241D01*
X197479Y189336D01*
X197511Y189430D01*
X197546Y189523D01*
X197585Y189615D01*
X197628Y189705D01*
X197673Y189793D01*
X197723Y189880D01*
X197775Y189964D01*
X197831Y190047D01*
X197889Y190127D01*
X197951Y190205D01*
X198016Y190280D01*
X198084Y190353D01*
X198154Y190423D01*
X198227Y190491D01*
X198302Y190556D01*
X198380Y190618D01*
X198460Y190676D01*
X198543Y190732D01*
X198627Y190784D01*
X198714Y190834D01*
X198802Y190879D01*
X198892Y190922D01*
X198984Y190961D01*
X199077Y190996D01*
X199171Y191028D01*
X199266Y191056D01*
X199362Y191081D01*
X199460Y191102D01*
X199558Y191119D01*
X199656Y191132D01*
X199755Y191141D01*
X199855Y191147D01*
X199954Y191149D01*
X203849Y191149D01*
X203849Y196342D01*
X197358Y196342D01*
D14*
X676150Y288925D02*
X705610Y288925D01*
X705610Y269875D02*
X676150Y269875D01*
X705610Y269875D02*
X705610Y288925D01*
X676150Y288925D02*
X676150Y269875D01*
D10*
X691176Y293751D02*
X691087Y293753D01*
X690999Y293759D01*
X690911Y293768D01*
X690823Y293781D01*
X690736Y293798D01*
X690650Y293818D01*
X690565Y293843D01*
X690480Y293870D01*
X690397Y293902D01*
X690316Y293936D01*
X690236Y293975D01*
X690158Y294016D01*
X690081Y294061D01*
X690007Y294109D01*
X689934Y294160D01*
X689864Y294214D01*
X689797Y294272D01*
X689731Y294332D01*
X689669Y294394D01*
X689609Y294460D01*
X689551Y294527D01*
X689497Y294597D01*
X689446Y294670D01*
X689398Y294744D01*
X689353Y294821D01*
X689312Y294899D01*
X689273Y294979D01*
X689239Y295060D01*
X689207Y295143D01*
X689180Y295228D01*
X689155Y295313D01*
X689135Y295399D01*
X689118Y295486D01*
X689105Y295574D01*
X689096Y295662D01*
X689090Y295750D01*
X689088Y295839D01*
X691176Y293751D02*
X691305Y293753D01*
X691434Y293759D01*
X691563Y293768D01*
X691691Y293781D01*
X691819Y293798D01*
X691946Y293819D01*
X692073Y293843D01*
X692199Y293871D01*
X692324Y293903D01*
X692448Y293938D01*
X692571Y293977D01*
X692693Y294020D01*
X692813Y294066D01*
X692932Y294116D01*
X693050Y294169D01*
X693166Y294225D01*
X693280Y294285D01*
X693393Y294348D01*
X693503Y294415D01*
X693612Y294484D01*
X693718Y294557D01*
X693823Y294633D01*
X693925Y294712D01*
X694025Y294794D01*
X694122Y294878D01*
X694217Y294966D01*
X694309Y295056D01*
X694048Y301061D02*
X694046Y301150D01*
X694040Y301238D01*
X694031Y301326D01*
X694018Y301414D01*
X694001Y301501D01*
X693981Y301587D01*
X693956Y301672D01*
X693929Y301757D01*
X693897Y301840D01*
X693863Y301921D01*
X693824Y302001D01*
X693783Y302079D01*
X693738Y302156D01*
X693690Y302230D01*
X693639Y302303D01*
X693585Y302373D01*
X693527Y302440D01*
X693467Y302506D01*
X693405Y302568D01*
X693339Y302628D01*
X693272Y302686D01*
X693202Y302740D01*
X693129Y302791D01*
X693055Y302839D01*
X692978Y302884D01*
X692900Y302925D01*
X692820Y302964D01*
X692739Y302998D01*
X692656Y303030D01*
X692571Y303057D01*
X692486Y303082D01*
X692400Y303102D01*
X692313Y303119D01*
X692225Y303132D01*
X692137Y303141D01*
X692049Y303147D01*
X691960Y303149D01*
X691840Y303147D01*
X691720Y303142D01*
X691601Y303132D01*
X691481Y303120D01*
X691362Y303103D01*
X691244Y303083D01*
X691126Y303059D01*
X691010Y303032D01*
X690894Y303001D01*
X690779Y302967D01*
X690665Y302929D01*
X690552Y302887D01*
X690441Y302842D01*
X690331Y302794D01*
X690223Y302743D01*
X690116Y302688D01*
X690011Y302630D01*
X689908Y302568D01*
X689807Y302504D01*
X689707Y302436D01*
X689610Y302366D01*
X693004Y299234D02*
X693082Y299282D01*
X693158Y299334D01*
X693231Y299388D01*
X693302Y299446D01*
X693371Y299507D01*
X693437Y299571D01*
X693500Y299638D01*
X693560Y299707D01*
X693617Y299779D01*
X693671Y299853D01*
X693721Y299930D01*
X693769Y300009D01*
X693812Y300089D01*
X693853Y300172D01*
X693889Y300256D01*
X693922Y300341D01*
X693951Y300428D01*
X693977Y300517D01*
X693999Y300606D01*
X694016Y300696D01*
X694030Y300786D01*
X694040Y300878D01*
X694046Y300969D01*
X694048Y301061D01*
X690132Y297666D02*
X690054Y297618D01*
X689978Y297566D01*
X689905Y297512D01*
X689834Y297454D01*
X689765Y297393D01*
X689699Y297329D01*
X689636Y297262D01*
X689576Y297193D01*
X689519Y297121D01*
X689465Y297047D01*
X689415Y296970D01*
X689367Y296891D01*
X689324Y296811D01*
X689283Y296728D01*
X689247Y296644D01*
X689214Y296559D01*
X689185Y296472D01*
X689159Y296383D01*
X689137Y296294D01*
X689120Y296204D01*
X689106Y296114D01*
X689096Y296022D01*
X689090Y295931D01*
X689088Y295839D01*
X690132Y297667D02*
X693004Y299233D01*
X685034Y298972D02*
X682423Y298972D01*
X682423Y298973D02*
X682322Y298971D01*
X682221Y298965D01*
X682120Y298955D01*
X682020Y298942D01*
X681920Y298924D01*
X681821Y298903D01*
X681723Y298877D01*
X681626Y298848D01*
X681530Y298816D01*
X681436Y298779D01*
X681343Y298739D01*
X681251Y298695D01*
X681162Y298648D01*
X681074Y298597D01*
X680988Y298543D01*
X680905Y298486D01*
X680823Y298426D01*
X680745Y298362D01*
X680668Y298296D01*
X680595Y298226D01*
X680524Y298154D01*
X680456Y298079D01*
X680391Y298001D01*
X680329Y297921D01*
X680270Y297839D01*
X680214Y297754D01*
X680162Y297668D01*
X680113Y297579D01*
X680067Y297488D01*
X680026Y297396D01*
X679987Y297302D01*
X679953Y297207D01*
X679922Y297111D01*
X679895Y297013D01*
X679871Y296915D01*
X679852Y296815D01*
X679836Y296715D01*
X679824Y296615D01*
X679816Y296514D01*
X679812Y296413D01*
X679812Y296311D01*
X679816Y296210D01*
X679824Y296109D01*
X679836Y296009D01*
X679852Y295909D01*
X679871Y295809D01*
X679895Y295711D01*
X679922Y295613D01*
X679953Y295517D01*
X679987Y295422D01*
X680026Y295328D01*
X680067Y295236D01*
X680113Y295145D01*
X680162Y295057D01*
X680214Y294970D01*
X680270Y294885D01*
X680329Y294803D01*
X680391Y294723D01*
X680456Y294645D01*
X680524Y294570D01*
X680595Y294498D01*
X680668Y294428D01*
X680745Y294362D01*
X680823Y294298D01*
X680905Y294238D01*
X680988Y294181D01*
X681074Y294127D01*
X681162Y294076D01*
X681251Y294029D01*
X681343Y293985D01*
X681436Y293945D01*
X681530Y293908D01*
X681626Y293876D01*
X681723Y293847D01*
X681821Y293821D01*
X681920Y293800D01*
X682020Y293782D01*
X682120Y293769D01*
X682221Y293759D01*
X682322Y293753D01*
X682423Y293751D01*
X685034Y293751D01*
X685034Y303149D01*
X682423Y303149D01*
X682333Y303147D01*
X682244Y303141D01*
X682154Y303132D01*
X682065Y303118D01*
X681977Y303101D01*
X681890Y303080D01*
X681803Y303055D01*
X681718Y303026D01*
X681634Y302994D01*
X681552Y302959D01*
X681471Y302919D01*
X681392Y302877D01*
X681315Y302831D01*
X681240Y302781D01*
X681167Y302729D01*
X681096Y302673D01*
X681028Y302615D01*
X680963Y302553D01*
X680900Y302489D01*
X680840Y302422D01*
X680783Y302353D01*
X680729Y302281D01*
X680678Y302207D01*
X680630Y302131D01*
X680586Y302053D01*
X680545Y301973D01*
X680507Y301891D01*
X680473Y301808D01*
X680443Y301723D01*
X680416Y301637D01*
X680393Y301551D01*
X680374Y301463D01*
X680359Y301374D01*
X680347Y301285D01*
X680339Y301196D01*
X680335Y301106D01*
X680335Y301016D01*
X680339Y300926D01*
X680347Y300837D01*
X680359Y300748D01*
X680374Y300659D01*
X680393Y300571D01*
X680416Y300485D01*
X680443Y300399D01*
X680473Y300314D01*
X680507Y300231D01*
X680545Y300149D01*
X680586Y300069D01*
X680630Y299991D01*
X680678Y299915D01*
X680729Y299841D01*
X680783Y299769D01*
X680840Y299700D01*
X680900Y299633D01*
X680963Y299569D01*
X681028Y299507D01*
X681096Y299449D01*
X681167Y299393D01*
X681240Y299341D01*
X681315Y299291D01*
X681392Y299245D01*
X681471Y299203D01*
X681552Y299163D01*
X681634Y299128D01*
X681718Y299096D01*
X681803Y299067D01*
X681890Y299042D01*
X681977Y299021D01*
X682065Y299004D01*
X682154Y298990D01*
X682244Y298981D01*
X682333Y298975D01*
X682423Y298973D01*
X676326Y301061D02*
X673715Y303149D01*
X673715Y293751D01*
X671105Y293751D02*
X676326Y293751D01*
M02*
