G04 EAGLE Gerber RS-274X export*
G75*
%MOMM*%
%FSLAX34Y34*%
%LPD*%
%INSoldermask Top*%
%IPPOS*%
%AMOC8*
5,1,8,0,0,1.08239X$1,22.5*%
G01*
%ADD10C,4.000500*%
%ADD11C,2.082800*%
%ADD12R,0.833200X1.033200*%
%ADD13R,1.103200X1.203200*%
%ADD14R,1.203200X1.303200*%
%ADD15R,1.003200X1.003200*%
%ADD16R,1.303200X1.203200*%
%ADD17C,1.473200*%
%ADD18R,1.203200X0.903200*%
%ADD19R,0.903200X1.203200*%
%ADD20P,1.649562X8X202.500000*%
%ADD21C,1.524000*%
%ADD22C,1.159600*%
%ADD23C,1.703200*%


D10*
X38100Y431800D03*
X38100Y38100D03*
X850900Y431800D03*
X850900Y38100D03*
D11*
X571500Y406400D03*
X571500Y381000D03*
X571500Y355600D03*
X571500Y330200D03*
X571500Y304800D03*
X571500Y279400D03*
X571500Y254000D03*
X571500Y228600D03*
X571500Y203200D03*
X571500Y177800D03*
X571500Y152400D03*
X571500Y127000D03*
X723900Y127000D03*
X723900Y152400D03*
X723900Y177800D03*
X723900Y203200D03*
X723900Y228600D03*
X723900Y254000D03*
X723900Y279400D03*
X723900Y304800D03*
X723900Y330200D03*
X723900Y355600D03*
X723900Y381000D03*
X723900Y406400D03*
X681990Y76200D03*
X656590Y76200D03*
X631190Y76200D03*
X500380Y327660D03*
X474980Y327660D03*
X449580Y327660D03*
X500380Y353060D03*
X474980Y353060D03*
X449580Y353060D03*
X500380Y378460D03*
X474980Y378460D03*
X449580Y378460D03*
X500380Y213360D03*
X474980Y213360D03*
X449580Y213360D03*
X500380Y238760D03*
X474980Y238760D03*
X449580Y238760D03*
X500380Y264160D03*
X474980Y264160D03*
X449580Y264160D03*
X381000Y76200D03*
X355600Y76200D03*
X330200Y76200D03*
X482600Y76200D03*
X457200Y76200D03*
X431800Y76200D03*
X584200Y76200D03*
X558800Y76200D03*
X533400Y76200D03*
X288290Y302260D03*
X313690Y302260D03*
X339090Y302260D03*
X288290Y327660D03*
X313690Y327660D03*
X339090Y327660D03*
X288290Y353060D03*
X313690Y353060D03*
X339090Y353060D03*
X500380Y429260D03*
X474980Y429260D03*
X449580Y429260D03*
X149860Y76200D03*
X124460Y76200D03*
X99060Y76200D03*
X787400Y215900D03*
X787400Y190500D03*
X787400Y165100D03*
X787400Y139700D03*
X787400Y114300D03*
X787400Y88900D03*
X787400Y63500D03*
X736600Y62230D03*
X736600Y87630D03*
D12*
X868750Y215900D03*
X845750Y215900D03*
X868750Y177800D03*
X845750Y177800D03*
X868750Y139700D03*
X845750Y139700D03*
D11*
X24638Y270002D03*
X24638Y295402D03*
X24638Y320802D03*
X202438Y422402D03*
X202438Y397002D03*
D13*
X764360Y437260D03*
X764360Y421260D03*
X805360Y421260D03*
X805360Y437260D03*
D14*
X763660Y358140D03*
X780660Y358140D03*
X286140Y167640D03*
X303140Y167640D03*
D15*
X495300Y132200D03*
X495300Y147200D03*
D14*
X447920Y139700D03*
X430920Y139700D03*
D16*
X203200Y237100D03*
X203200Y220100D03*
D17*
X137160Y226060D03*
D16*
X50800Y173600D03*
X50800Y156600D03*
D18*
X229300Y165100D03*
X253300Y155600D03*
X253300Y174600D03*
D11*
X203200Y76200D03*
X228600Y76200D03*
X254000Y76200D03*
D17*
X50800Y203200D03*
X50800Y114300D03*
X208280Y185420D03*
D12*
X755580Y325120D03*
X778580Y325120D03*
D17*
X127000Y25400D03*
D19*
X787400Y304100D03*
X777900Y280100D03*
X796900Y280100D03*
D17*
X853440Y96520D03*
D11*
X838200Y266700D03*
X838200Y292100D03*
X838200Y317500D03*
X838200Y381000D03*
X838200Y355600D03*
D14*
X778900Y246380D03*
X795900Y246380D03*
D20*
X149860Y172720D03*
D21*
X170180Y172720D03*
D11*
X203200Y33020D03*
X228600Y33020D03*
X254000Y33020D03*
D22*
X322580Y180340D03*
D23*
X416560Y20320D03*
D22*
X784860Y436880D03*
D23*
X447040Y20320D03*
D22*
X447040Y403860D03*
X172720Y53340D03*
X274320Y53340D03*
X490220Y406400D03*
X355600Y152400D03*
X88900Y203200D03*
X584200Y431800D03*
X698500Y254000D03*
X393700Y292100D03*
X533400Y304800D03*
X533400Y127000D03*
X520700Y152400D03*
X520700Y203200D03*
X596900Y190500D03*
X784860Y401320D03*
X762000Y266700D03*
M02*
