G04 EAGLE Gerber RS-274X export*
G75*
%MOMM*%
%FSLAX34Y34*%
%LPD*%
%INTop Copper*%
%IPPOS*%
%AMOC8*
5,1,8,0,0,1.08239X$1,22.5*%
G01*
%ADD10R,0.800000X0.800000*%
%ADD11R,10.410000X10.800000*%
%ADD12R,2.159000X1.066800*%
%ADD13R,1.530000X1.530000*%
%ADD14C,1.530000*%
%ADD15R,0.500000X1.500000*%
%ADD16R,1.500000X0.500000*%
%ADD17C,1.108000*%
%ADD18R,1.400000X1.200000*%
%ADD19R,3.302000X1.778000*%
%ADD20R,0.635000X1.270000*%
%ADD21R,0.660400X1.270000*%
%ADD22R,2.700000X1.000000*%
%ADD23R,1.700000X0.600000*%
%ADD24R,1.000000X2.700000*%
%ADD25R,0.600000X1.700000*%
%ADD26C,1.270000*%
%ADD27P,2.336880X8X22.500000*%
%ADD28R,1.270000X0.635000*%
%ADD29R,1.270000X0.660400*%
%ADD30R,1.500000X0.900000*%
%ADD31R,1.100000X1.000000*%
%ADD32C,4.216000*%
%ADD33C,3.816000*%
%ADD34P,1.429621X8X22.500000*%
%ADD35C,1.320800*%
%ADD36R,1.350000X0.400000*%
%ADD37R,1.400000X1.600000*%
%ADD38R,1.300000X2.300000*%
%ADD39R,1.900000X1.800000*%
%ADD40R,2.286000X2.794000*%
%ADD41R,1.803000X1.600000*%
%ADD42C,0.304800*%
%ADD43C,0.787400*%
%ADD44C,0.203200*%
%ADD45C,0.508000*%
%ADD46C,0.406400*%
%ADD47C,1.016000*%
%ADD48C,0.906400*%


D10*
X31280Y611690D03*
X16280Y611690D03*
X15360Y474500D03*
X30360Y474500D03*
X31390Y345500D03*
X16390Y345500D03*
D11*
X192520Y567640D03*
D12*
X109208Y601676D03*
X109208Y584658D03*
X109208Y567640D03*
X109208Y550622D03*
X109208Y533604D03*
D13*
X63270Y526000D03*
D14*
X63270Y556000D03*
D15*
X78490Y152860D03*
X86490Y152860D03*
X94490Y152860D03*
X102490Y152860D03*
X110490Y152860D03*
X118490Y152860D03*
X126490Y152860D03*
X134490Y152860D03*
X142490Y152860D03*
X150490Y152860D03*
X158490Y152860D03*
D16*
X176490Y170860D03*
X176490Y178860D03*
X176490Y186860D03*
X176490Y194860D03*
X176490Y202860D03*
X176490Y210860D03*
X176490Y218860D03*
X176490Y226860D03*
X176490Y234860D03*
X176490Y242860D03*
X176490Y250860D03*
D15*
X158490Y268860D03*
X150490Y268860D03*
X142490Y268860D03*
X134490Y268860D03*
X126490Y268860D03*
X118490Y268860D03*
X110490Y268860D03*
X102490Y268860D03*
X94490Y268860D03*
X86490Y268860D03*
X78490Y268860D03*
D16*
X60490Y250860D03*
X60490Y242860D03*
X60490Y234860D03*
X60490Y226860D03*
X60490Y218860D03*
X60490Y210860D03*
X60490Y202860D03*
X60490Y194860D03*
X60490Y186860D03*
X60490Y178860D03*
X60490Y170860D03*
D17*
X71583Y105640D03*
X97783Y105640D03*
X124783Y105640D03*
X151783Y105640D03*
X179583Y105640D03*
X207383Y105640D03*
X71583Y308840D03*
X97783Y308840D03*
X124783Y308840D03*
X151783Y308840D03*
X179583Y308840D03*
X207383Y308840D03*
D18*
X228000Y198000D03*
X228000Y214000D03*
X206000Y214000D03*
X206000Y198000D03*
D19*
X169591Y377000D03*
X110409Y377000D03*
D20*
X32000Y638000D03*
X19000Y638000D03*
D21*
X32000Y675000D03*
X19000Y675000D03*
D22*
X345000Y517500D03*
X345000Y620000D03*
D23*
X313000Y539000D03*
X313000Y551500D03*
X313000Y564000D03*
X313000Y576500D03*
X313000Y589000D03*
X313000Y601500D03*
D22*
X345000Y662500D03*
X345000Y765000D03*
D23*
X313000Y684000D03*
X313000Y696500D03*
X313000Y709000D03*
X313000Y721500D03*
X313000Y734000D03*
X313000Y746500D03*
D24*
X277500Y860000D03*
X175000Y860000D03*
D25*
X256000Y828000D03*
X243500Y828000D03*
X231000Y828000D03*
X218500Y828000D03*
X206000Y828000D03*
X193500Y828000D03*
D22*
X345000Y371500D03*
X345000Y474000D03*
D23*
X313000Y393000D03*
X313000Y405500D03*
X313000Y418000D03*
X313000Y430500D03*
X313000Y443000D03*
X313000Y455500D03*
D22*
X345000Y226500D03*
X345000Y329000D03*
D23*
X313000Y248000D03*
X313000Y260500D03*
X313000Y273000D03*
X313000Y285500D03*
X313000Y298000D03*
X313000Y310500D03*
D22*
X345000Y84500D03*
X345000Y187000D03*
D23*
X313000Y106000D03*
X313000Y118500D03*
X313000Y131000D03*
X313000Y143500D03*
X313000Y156000D03*
X313000Y168500D03*
D26*
X155000Y636000D03*
X190000Y636000D03*
X75000Y345000D03*
D27*
X172000Y669000D03*
D28*
X91000Y848000D03*
X91000Y861000D03*
D29*
X128000Y848000D03*
X128000Y861000D03*
D10*
X154000Y851500D03*
X154000Y866500D03*
X336500Y786000D03*
X351500Y786000D03*
X336500Y641000D03*
X351500Y641000D03*
X336500Y495000D03*
X351500Y495000D03*
X336500Y350000D03*
X351500Y350000D03*
X335500Y208000D03*
X350500Y208000D03*
D30*
X260500Y388500D03*
X260500Y421500D03*
X211500Y388500D03*
X211500Y421500D03*
D31*
X247500Y455000D03*
X230500Y455000D03*
D10*
X288500Y73000D03*
X273500Y73000D03*
D32*
X138000Y747000D03*
D33*
X75500Y747000D03*
X109500Y699000D03*
D34*
X172160Y472000D03*
D35*
X151840Y472000D03*
D36*
X42700Y423400D03*
X42700Y416900D03*
X42700Y410400D03*
X42700Y403900D03*
X42700Y397400D03*
D37*
X40450Y442400D03*
X40450Y378400D03*
D38*
X15950Y372900D03*
X15950Y447900D03*
D39*
X15950Y421900D03*
X15950Y398900D03*
D40*
X83540Y651000D03*
X124460Y651000D03*
D41*
X106000Y460780D03*
X106000Y489220D03*
D42*
X321500Y222000D02*
X335500Y208000D01*
X321500Y222000D02*
X276000Y222000D01*
D43*
X276000Y222000D03*
D42*
X60490Y242860D02*
X40860Y242860D01*
X38000Y240000D01*
D43*
X38000Y240000D03*
D42*
X46860Y178860D02*
X60490Y178860D01*
X46860Y178860D02*
X40000Y172000D01*
D43*
X40000Y172000D03*
D42*
X159850Y267500D02*
X212500Y267500D01*
X159175Y268175D02*
X158490Y268860D01*
D43*
X212500Y267500D03*
D42*
X159850Y267500D02*
X159175Y268175D01*
X110490Y152860D02*
X110490Y142990D01*
X97500Y130000D01*
D43*
X276000Y340000D03*
D42*
X286000Y350000D02*
X336500Y350000D01*
X286000Y350000D02*
X276000Y340000D01*
X313500Y455000D02*
X313000Y455500D01*
X313000Y168500D02*
X333500Y168500D01*
X336000Y166000D01*
D43*
X336000Y166000D03*
X336000Y799000D03*
D42*
X32000Y675000D02*
X32000Y655000D01*
D43*
X32000Y655000D03*
X149000Y607000D03*
X169000Y607000D03*
X189000Y607000D03*
X209000Y607000D03*
X149000Y587000D03*
X149000Y567000D03*
X149000Y547000D03*
X149000Y527000D03*
X169000Y527000D03*
X169000Y547000D03*
X169000Y567000D03*
X209000Y567000D03*
X230000Y567000D03*
X189000Y547000D03*
X209000Y547000D03*
X229000Y547000D03*
X169000Y587000D03*
X189000Y587000D03*
X209000Y587000D03*
X229000Y587000D03*
X229000Y607000D03*
X189000Y527000D03*
X209000Y527000D03*
X229000Y527000D03*
D42*
X336500Y786000D02*
X336000Y786500D01*
X336000Y799000D01*
X211500Y450000D02*
X211500Y421500D01*
X285000Y455000D02*
X313500Y455000D01*
D44*
X109208Y567640D02*
X107848Y569000D01*
D43*
X189000Y567000D03*
D42*
X191520Y566640D02*
X157000Y566640D01*
X156000Y567640D01*
X191520Y566640D02*
X192520Y567640D01*
X189640Y567640D01*
X189000Y567000D01*
X193500Y790000D02*
X193500Y828000D01*
D43*
X193500Y790000D03*
D42*
X177500Y828000D02*
X154000Y851500D01*
X177500Y828000D02*
X193500Y828000D01*
X150500Y848000D02*
X128000Y848000D01*
X150500Y848000D02*
X154000Y851500D01*
D45*
X109568Y568000D02*
X109208Y567640D01*
X156000Y567640D01*
D42*
X97500Y130000D02*
X97500Y105923D01*
X97783Y105640D01*
X71583Y308840D02*
X71583Y328417D01*
X52000Y348000D02*
X52000Y364000D01*
X52000Y348000D02*
X71583Y328417D01*
X110909Y376500D02*
X110409Y377000D01*
X194000Y522000D02*
X189000Y527000D01*
D43*
X229000Y768000D03*
X273000Y768000D03*
D42*
X229000Y768000D01*
D43*
X273000Y467000D03*
D42*
X285000Y455000D01*
X246500Y301500D02*
X212500Y267500D01*
X118000Y179000D02*
X73000Y179000D01*
X72860Y178860D02*
X60490Y178860D01*
X72860Y178860D02*
X73000Y179000D01*
X275000Y168500D02*
X313000Y168500D01*
X275000Y168500D02*
X248000Y168500D01*
X248000Y169000D01*
D43*
X248000Y169000D03*
D42*
X189500Y472000D02*
X172160Y472000D01*
X189500Y472000D02*
X211500Y450000D01*
D45*
X172160Y472000D02*
X172160Y523840D01*
X169000Y527000D01*
D42*
X133860Y194860D02*
X118000Y179000D01*
X133860Y194860D02*
X176490Y194860D01*
D43*
X276000Y609000D03*
D42*
X283500Y601500D01*
X313000Y601500D01*
X303000Y73000D02*
X288500Y73000D01*
D43*
X303000Y73000D03*
X276000Y301500D03*
D42*
X246500Y301500D01*
X229000Y768000D02*
X207000Y790000D01*
X193500Y790000D01*
X216500Y455000D02*
X211500Y450000D01*
X216500Y455000D02*
X230500Y455000D01*
X242500Y467000D01*
X273000Y467000D01*
X302000Y496000D01*
X335500Y496000D01*
X336500Y495000D01*
X313000Y601500D02*
X313500Y602000D01*
X333000Y602000D01*
D43*
X333000Y602000D03*
D42*
X276000Y609000D02*
X276000Y619000D01*
X232000Y663000D01*
X232000Y668000D01*
D43*
X232000Y668000D03*
D42*
X308000Y641000D02*
X336500Y641000D01*
X308000Y641000D02*
X276000Y609000D01*
X313000Y746500D02*
X301500Y758000D01*
D43*
X299000Y758000D03*
D42*
X301500Y758000D01*
X286500Y301500D02*
X276000Y301500D01*
X295500Y310500D02*
X313000Y310500D01*
X295500Y310500D02*
X286500Y301500D01*
D43*
X143000Y202000D03*
D42*
X141000Y202000D02*
X133860Y194860D01*
X141000Y202000D02*
X143000Y202000D01*
D43*
X275000Y168500D03*
D42*
X97783Y105640D02*
X97783Y97217D01*
X128000Y67000D01*
X176000Y84000D02*
X276000Y84000D01*
X159000Y67000D02*
X128000Y67000D01*
X159000Y67000D02*
X176000Y84000D01*
X276000Y84000D02*
X287000Y73000D01*
X288500Y73000D01*
X143860Y242860D02*
X60490Y242860D01*
X143860Y242860D02*
X159000Y258000D01*
X159000Y268000D01*
X159175Y268175D01*
D46*
X98409Y364000D02*
X110909Y376500D01*
D42*
X15360Y470640D02*
X15360Y474500D01*
D45*
X108848Y568000D02*
X109208Y567640D01*
X108848Y568000D02*
X93000Y568000D01*
X82000Y557000D01*
X82000Y536000D01*
X72000Y526000D01*
X63270Y526000D01*
D42*
X40000Y647000D02*
X32000Y655000D01*
D46*
X15950Y421900D02*
X15950Y398900D01*
X15950Y421900D02*
X15950Y439000D01*
X24000Y442400D02*
X40450Y442400D01*
X24000Y442400D02*
X15550Y442400D01*
X17550Y440400D01*
X19350Y378400D02*
X40450Y378400D01*
X19350Y378400D02*
X14950Y374000D01*
X40450Y378400D02*
X54850Y364000D01*
X98409Y364000D01*
D42*
X40450Y378400D02*
X40450Y395150D01*
X42700Y397400D01*
X40450Y354560D02*
X31390Y345500D01*
X40450Y354560D02*
X40450Y378400D01*
D46*
X15950Y473910D02*
X15360Y474500D01*
X15950Y473910D02*
X15950Y447900D01*
X15360Y474500D02*
X35860Y495000D01*
X55000Y495000D01*
X64000Y504000D01*
X64000Y525270D01*
X63270Y526000D01*
D42*
X15950Y447900D02*
X15950Y439000D01*
X21450Y442400D02*
X15950Y447900D01*
X21450Y442400D02*
X24000Y442400D01*
X15950Y398900D02*
X15950Y372900D01*
X21450Y378400D01*
X40450Y378400D01*
X31280Y611690D02*
X40000Y620410D01*
X40000Y647000D01*
D43*
X42000Y693000D03*
D42*
X24000Y693000D01*
X176350Y179000D02*
X176490Y178860D01*
X19000Y688000D02*
X24000Y693000D01*
X19000Y688000D02*
X19000Y675000D01*
D43*
X153000Y174000D03*
D42*
X158000Y179000D01*
X176350Y179000D01*
D43*
X333000Y431000D03*
D42*
X332500Y430500D01*
X313000Y430500D01*
D43*
X160000Y206000D03*
D42*
X160000Y213000D01*
X165860Y218860D01*
X176490Y218860D01*
X306500Y143500D02*
X313000Y143500D01*
X313000Y285500D02*
X296500Y285500D01*
D43*
X277000Y266000D03*
X333000Y576000D03*
D42*
X296500Y285500D02*
X277000Y266000D01*
X313000Y285500D02*
X324500Y285500D01*
X330500Y279500D01*
X338000Y280000D02*
X343000Y285000D01*
X343000Y298000D01*
X331000Y280000D02*
X330956Y279998D01*
X330913Y279992D01*
X330871Y279983D01*
X330829Y279970D01*
X330789Y279953D01*
X330750Y279933D01*
X330713Y279910D01*
X330679Y279883D01*
X330646Y279854D01*
X330617Y279821D01*
X330590Y279787D01*
X330567Y279750D01*
X330547Y279711D01*
X330530Y279671D01*
X330517Y279629D01*
X330508Y279587D01*
X330502Y279544D01*
X330500Y279500D01*
X331000Y280000D02*
X338000Y280000D01*
X293000Y157000D02*
X306500Y143500D01*
X293000Y157000D02*
X252000Y157000D01*
X248000Y153000D01*
X282000Y730500D02*
X282000Y821000D01*
X259000Y844000D01*
X225000Y844000D01*
X219000Y838000D01*
X219000Y828500D01*
D43*
X333000Y704500D03*
X335061Y129939D03*
D42*
X321500Y143500D02*
X313000Y143500D01*
X343000Y298000D02*
X320000Y321000D01*
X288000Y321000D01*
X280000Y329000D01*
X250000Y329000D01*
X241000Y338000D01*
X313000Y576500D02*
X331500Y576500D01*
X333000Y576000D01*
X333000Y704500D02*
X333000Y712500D01*
X324000Y721500D01*
X313000Y721500D01*
X291000Y721500D01*
X282000Y730500D01*
D43*
X248000Y153000D03*
D42*
X321500Y143500D02*
X335061Y129939D01*
X241000Y338000D02*
X241000Y347000D01*
X266378Y355000D02*
X275000Y363622D01*
X275000Y403000D01*
X302500Y430500D01*
X313000Y430500D01*
X249000Y355000D02*
X241000Y347000D01*
X249000Y355000D02*
X266378Y355000D01*
X218500Y828000D02*
X219000Y828500D01*
D43*
X333000Y444000D03*
D42*
X314000Y444000D01*
X313000Y443000D01*
X313000Y298000D02*
X296000Y298000D01*
X332000Y298000D02*
X333000Y297000D01*
D43*
X333000Y297000D03*
X335000Y146000D03*
D42*
X327000Y154000D01*
X315000Y154000D01*
X313000Y156000D01*
D43*
X280000Y509000D03*
D42*
X280000Y565000D01*
D43*
X333000Y734000D03*
X333000Y589000D03*
D42*
X313000Y589000D01*
X313000Y734000D02*
X333000Y734000D01*
X313000Y589000D02*
X304000Y589000D01*
X280000Y565000D01*
X194106Y233572D02*
X187394Y226860D01*
X194106Y233572D02*
X216572Y233572D01*
X187394Y226860D02*
X176490Y226860D01*
X216572Y233572D02*
X263500Y280500D01*
X307000Y734000D02*
X313000Y734000D01*
X307000Y734000D02*
X289000Y752000D01*
X289000Y824000D02*
X261000Y852000D01*
X223000Y852000D01*
X289000Y824000D02*
X289000Y752000D01*
X313000Y298000D02*
X332000Y298000D01*
X278500Y280500D02*
X263500Y280500D01*
X278500Y280500D02*
X296000Y298000D01*
X206000Y835000D02*
X223000Y852000D01*
X206000Y835000D02*
X206000Y828000D01*
X201140Y202860D02*
X206000Y198000D01*
X201140Y202860D02*
X176490Y202860D01*
X222000Y182000D02*
X233000Y182000D01*
X222000Y182000D02*
X206000Y198000D01*
D43*
X233000Y182000D03*
D42*
X228000Y214000D02*
X215000Y227000D01*
X190000Y219000D02*
X190000Y215000D01*
X228000Y214000D02*
X243000Y229000D01*
X245000Y229000D01*
D43*
X245000Y229000D03*
D42*
X198000Y227000D02*
X190000Y219000D01*
X198000Y227000D02*
X215000Y227000D01*
X185860Y210860D02*
X176490Y210860D01*
X185860Y210860D02*
X190000Y215000D01*
D43*
X75000Y345000D03*
X138061Y381061D03*
D42*
X138061Y369061D01*
X114000Y345000D02*
X75000Y345000D01*
X114000Y345000D02*
X138061Y369061D01*
X97783Y322217D02*
X75000Y345000D01*
X97783Y322217D02*
X97783Y308840D01*
D47*
X63270Y556000D02*
X70000Y562730D01*
X70000Y637462D02*
X83540Y651000D01*
X70000Y637462D02*
X70000Y562730D01*
D43*
X61946Y320301D03*
D46*
X25794Y287843D02*
X25794Y163464D01*
X55595Y137794D01*
X86794Y137794D01*
X94490Y145490D01*
X94490Y152860D01*
X61946Y320301D02*
X58252Y320301D01*
X25794Y287843D01*
D43*
X77000Y373000D03*
D42*
X64548Y402763D02*
X56763Y410548D01*
X64548Y385452D02*
X77000Y373000D01*
X64548Y385452D02*
X64548Y402763D01*
X56763Y410548D02*
X42848Y410548D01*
X42700Y410400D01*
D43*
X54114Y329554D03*
D46*
X21504Y291455D02*
X20206Y290456D01*
X102490Y143587D02*
X91109Y132206D01*
X102490Y143587D02*
X102490Y152860D01*
X20206Y146566D02*
X20206Y290456D01*
X20206Y146566D02*
X37456Y131707D01*
X44160Y132206D01*
X91109Y132206D01*
X54114Y324065D02*
X54114Y329554D01*
X54114Y324065D02*
X21504Y291455D01*
D48*
X86000Y600000D03*
D45*
X109208Y601676D02*
X109208Y584658D01*
D48*
X109000Y508000D03*
D45*
X152000Y489000D02*
X152000Y472160D01*
X151840Y472000D01*
X152000Y489000D02*
X133000Y508000D01*
X109000Y508000D01*
X109208Y601676D02*
X87676Y601676D01*
X86000Y600000D01*
X109208Y601676D02*
X109208Y635748D01*
X124460Y651000D01*
D46*
X139460Y636000D01*
X155000Y636000D01*
D43*
X263500Y367000D03*
D42*
X230500Y400000D01*
X193591Y400000D01*
X193091Y400500D02*
X169591Y377000D01*
X193091Y400500D02*
X193591Y400000D01*
X193091Y400500D02*
X172000Y421591D01*
X172000Y433000D01*
X183000Y444000D01*
D43*
X183000Y444000D03*
X129000Y480000D03*
D42*
X109780Y460780D02*
X106000Y460780D01*
D46*
X109780Y460780D02*
X129000Y480000D01*
D48*
X81000Y469000D03*
D45*
X35860Y469000D01*
X30360Y474500D01*
D42*
X50140Y186860D02*
X60490Y186860D01*
X47000Y190000D02*
X47000Y219000D01*
X47000Y190000D02*
X50140Y186860D01*
X47000Y219000D02*
X44000Y222000D01*
X38000Y222000D01*
D43*
X38000Y222000D03*
X116000Y134500D03*
D42*
X118490Y136990D01*
X118490Y152860D01*
X176490Y161490D02*
X176490Y170860D01*
X176490Y161490D02*
X174000Y159000D01*
D43*
X174000Y159000D03*
X18000Y334000D03*
D42*
X16390Y335610D01*
X16390Y345500D01*
X107000Y423000D02*
X113000Y423000D01*
X107000Y423000D02*
X80000Y450000D01*
D43*
X113000Y423000D03*
D42*
X80000Y450000D02*
X70000Y450000D01*
X56000Y436000D01*
X56000Y432250D01*
X47150Y423400D01*
X42700Y423400D01*
X60490Y194860D02*
X73140Y194860D01*
X82000Y186000D01*
D43*
X82000Y186000D03*
X238000Y783000D03*
D42*
X243500Y829000D02*
X244000Y829500D01*
X243500Y829000D02*
X243500Y828000D01*
X244000Y829500D02*
X244000Y789000D01*
X238000Y783000D01*
D43*
X236000Y503000D03*
D42*
X256000Y518000D02*
X256000Y617000D01*
X256000Y518000D02*
X241000Y503000D01*
X236000Y503000D01*
D43*
X226000Y642000D03*
D42*
X231000Y642000D02*
X256000Y617000D01*
X231000Y642000D02*
X226000Y642000D01*
D43*
X139000Y217000D03*
X252000Y341000D03*
D42*
X313000Y405500D02*
X313500Y406000D01*
X346000Y450000D02*
X339000Y457000D01*
D43*
X339000Y457000D03*
D42*
X137140Y218860D02*
X139000Y217000D01*
X137140Y218860D02*
X60490Y218860D01*
X346000Y425000D02*
X346000Y450000D01*
X282000Y358000D02*
X265000Y341000D01*
X252000Y341000D01*
X282000Y358000D02*
X282000Y381000D01*
X307000Y406000D01*
X313500Y406000D01*
X313000Y405500D02*
X326500Y405500D01*
X346000Y425000D01*
X102860Y202860D02*
X60490Y202860D01*
X102860Y202860D02*
X102860Y194140D01*
X105000Y192000D01*
D43*
X105000Y192000D03*
X250000Y707000D03*
D42*
X313500Y697000D02*
X341000Y697000D01*
X313500Y697000D02*
X313000Y696500D01*
X347000Y703000D02*
X347000Y732000D01*
D43*
X320000Y759000D03*
D42*
X347000Y732000D01*
X313000Y696500D02*
X260500Y696500D01*
X250000Y707000D01*
X341000Y697000D02*
X347000Y703000D01*
X155860Y226860D02*
X60490Y226860D01*
X155860Y226860D02*
X156000Y227000D01*
D43*
X156000Y227000D03*
X245000Y247000D03*
D42*
X288500Y260500D02*
X313000Y260500D01*
X288500Y260500D02*
X275000Y247000D01*
X245000Y247000D01*
X313000Y260500D02*
X334500Y260500D01*
X349000Y275000D01*
X349000Y300000D02*
X322000Y327000D01*
X349000Y300000D02*
X349000Y275000D01*
X322000Y327000D02*
X294000Y327000D01*
X288000Y333000D01*
X288000Y335000D01*
D43*
X288000Y335000D03*
D42*
X93140Y234860D02*
X60490Y234860D01*
D43*
X93140Y234860D03*
D42*
X300000Y177000D02*
X338000Y177000D01*
X348000Y167000D01*
X339500Y118500D02*
X313000Y118500D01*
X348000Y127000D02*
X348000Y167000D01*
X348000Y127000D02*
X339500Y118500D01*
D43*
X291000Y188000D03*
D42*
X291000Y186000D01*
X300000Y177000D01*
D43*
X241000Y139000D03*
D42*
X261500Y118500D01*
X313000Y118500D01*
X122000Y204000D02*
X115140Y210860D01*
D43*
X122000Y204000D03*
X249000Y483000D03*
D42*
X275000Y483000D02*
X294500Y502500D01*
X275000Y483000D02*
X249000Y483000D01*
X313000Y551500D02*
X340500Y551500D01*
X344000Y555000D01*
X304000Y611000D02*
X301000Y614000D01*
D43*
X301000Y614000D03*
D42*
X344000Y605000D02*
X344000Y555000D01*
X344000Y605000D02*
X338000Y611000D01*
X304000Y611000D01*
X115140Y210860D02*
X60490Y210860D01*
X312500Y551000D02*
X313000Y551500D01*
X312500Y551000D02*
X307000Y551000D01*
X294500Y538500D01*
X294500Y502500D01*
D43*
X55000Y597000D03*
D42*
X30970Y597000D02*
X16280Y611690D01*
X30970Y597000D02*
X55000Y597000D01*
X124783Y105640D02*
X137423Y93000D01*
X150490Y142510D02*
X150490Y152860D01*
X150490Y142510D02*
X162000Y131000D01*
X162000Y99000D01*
X156000Y93000D01*
X137423Y93000D01*
X158490Y147860D02*
X181000Y147860D01*
X158490Y147860D02*
X158490Y152860D01*
X259000Y193878D02*
X259000Y218000D01*
X323000Y230000D02*
X331000Y238000D01*
D43*
X345000Y258000D03*
X276000Y316000D03*
D42*
X214543Y316000D02*
X207383Y308840D01*
X259000Y193878D02*
X233561Y168439D01*
X259000Y218000D02*
X271000Y230000D01*
X201579Y168439D02*
X181000Y147860D01*
X201579Y168439D02*
X233561Y168439D01*
X331000Y238000D02*
X338000Y238000D01*
X345000Y245000D02*
X345000Y258000D01*
X345000Y245000D02*
X338000Y238000D01*
X323000Y230000D02*
X271000Y230000D01*
X276000Y316000D02*
X214543Y316000D01*
X83140Y170860D02*
X60490Y170860D01*
X83140Y170860D02*
X86500Y167500D01*
X86490Y167490D01*
X86490Y152860D01*
D43*
X34000Y257000D03*
D42*
X54350Y257000D01*
X60490Y250860D01*
X241500Y449000D02*
X247500Y455000D01*
X241500Y449000D02*
X241500Y407500D01*
X260500Y388500D01*
X127000Y153370D02*
X126490Y152860D01*
D43*
X124000Y172000D03*
D42*
X127000Y167000D02*
X127000Y153370D01*
X124000Y172000D02*
X138860Y186860D01*
X176490Y186860D01*
D43*
X197000Y276000D03*
D42*
X92860Y170860D02*
X83140Y170860D01*
X92860Y170860D02*
X93000Y171000D01*
X150490Y262000D02*
X150490Y268860D01*
D43*
X183000Y426000D03*
D42*
X242000Y407000D02*
X260500Y388500D01*
X242000Y407000D02*
X205000Y407000D01*
X124000Y172000D02*
X123000Y171000D01*
X93000Y171000D01*
D43*
X52000Y160000D03*
D42*
X192592Y280408D02*
X197000Y276000D01*
X150490Y262000D02*
X139350Y250860D01*
X60490Y170860D02*
X60490Y168490D01*
X52000Y160000D01*
X123000Y171000D02*
X127000Y167000D01*
X139350Y250860D02*
X60490Y250860D01*
D43*
X194000Y319000D03*
D42*
X205000Y407000D02*
X186000Y426000D01*
X183000Y426000D01*
X150490Y275171D02*
X150490Y268860D01*
X150490Y275171D02*
X155728Y280408D01*
X156000Y280408D01*
X192592Y280408D01*
X165000Y289408D02*
X156000Y280408D01*
X165000Y289408D02*
X165000Y313000D01*
X171000Y319000D01*
X194000Y319000D01*
X102038Y292000D02*
X102038Y269312D01*
X102490Y268860D01*
X192985Y357000D02*
X212000Y376015D01*
X212000Y388000D02*
X211500Y388500D01*
X212000Y388000D02*
X212000Y376015D01*
X138000Y357000D02*
X111000Y330000D01*
X138000Y357000D02*
X192985Y357000D01*
X111000Y300962D02*
X102038Y292000D01*
X111000Y300962D02*
X111000Y330000D01*
D43*
X120000Y289000D03*
D42*
X127000Y282000D01*
X127000Y269370D01*
X126490Y268860D01*
D43*
X46000Y509000D03*
D42*
X117819Y853387D02*
X128000Y861000D01*
D43*
X20000Y582000D03*
X110711Y853387D03*
D42*
X117819Y853387D01*
X45000Y557000D02*
X45000Y510000D01*
X46000Y509000D01*
X45000Y557000D02*
X20000Y582000D01*
D43*
X143000Y859000D03*
D42*
X150500Y866500D02*
X154000Y866500D01*
X150500Y866500D02*
X143000Y859000D01*
X340500Y775000D02*
X351500Y786000D01*
D43*
X298602Y803000D03*
D42*
X301015Y800587D01*
X301015Y800107D01*
X326122Y775000D01*
X340500Y775000D01*
D43*
X292000Y660000D03*
D42*
X341500Y651000D02*
X351500Y641000D01*
X341500Y651000D02*
X301000Y651000D01*
X292000Y660000D01*
X351500Y350000D02*
X340500Y339000D01*
X310000Y339000D01*
X306000Y335000D01*
D43*
X306000Y335000D03*
X321000Y468000D03*
D42*
X321000Y475000D02*
X331000Y485000D01*
X321000Y475000D02*
X321000Y468000D01*
X341500Y485000D02*
X351500Y495000D01*
X341500Y485000D02*
X331000Y485000D01*
D43*
X307000Y193000D03*
D42*
X313000Y199000D02*
X348500Y199000D01*
X313000Y199000D02*
X307000Y193000D01*
X350500Y201000D02*
X350500Y208000D01*
X350500Y201000D02*
X348500Y199000D01*
D43*
X291000Y370000D03*
D42*
X313000Y392000D02*
X313000Y393000D01*
X313000Y392000D02*
X291000Y370000D01*
D43*
X319000Y239000D03*
D42*
X319000Y242000D02*
X313000Y248000D01*
X319000Y242000D02*
X319000Y239000D01*
D43*
X320000Y91000D03*
D42*
X320000Y99000D02*
X313000Y106000D01*
X320000Y99000D02*
X320000Y91000D01*
D43*
X269000Y820000D03*
D42*
X264000Y820000D01*
X256000Y828000D01*
D43*
X321000Y668000D03*
D42*
X321000Y676000D01*
X313000Y684000D01*
D43*
X320000Y526000D03*
D42*
X320000Y532000D02*
X313000Y539000D01*
X320000Y532000D02*
X320000Y526000D01*
D45*
X109208Y550622D02*
X108830Y551000D01*
D48*
X81000Y489000D03*
D45*
X264000Y512000D02*
X264000Y619000D01*
D48*
X184000Y503000D03*
X129860Y493860D03*
D45*
X231000Y652000D02*
X231000Y653000D01*
X207000Y653000D01*
X190000Y636000D01*
X231000Y652000D02*
X264000Y619000D01*
X245000Y493000D02*
X226000Y493000D01*
X216000Y503000D01*
X184000Y503000D01*
X245000Y493000D02*
X264000Y512000D01*
X128000Y526000D02*
X122000Y520000D01*
X128000Y526000D02*
X128000Y540000D01*
X117000Y551000D01*
X108830Y551000D01*
X90000Y520000D02*
X81000Y511000D01*
X90000Y520000D02*
X122000Y520000D01*
X231000Y653000D02*
X138000Y746000D01*
X138000Y747000D01*
X81000Y511000D02*
X81000Y489000D01*
X105780Y489000D01*
X106000Y489220D01*
X125220Y489220D01*
X129860Y493860D01*
D42*
X142490Y152860D02*
X142490Y143510D01*
X143000Y143000D01*
X143000Y114423D01*
X151783Y105640D01*
X153943Y80000D02*
X131000Y80000D01*
X134490Y131490D02*
X134490Y152860D01*
X134490Y131490D02*
X114500Y111500D01*
X153943Y80000D02*
X179583Y105640D01*
X114500Y111500D02*
X114500Y96500D01*
X131000Y80000D01*
X30000Y315000D02*
X30000Y334000D01*
X30000Y315000D02*
X13000Y298000D01*
X13000Y131000D01*
D43*
X30000Y334000D03*
X55000Y303000D03*
D42*
X55000Y275000D01*
X44000Y100000D02*
X44000Y76000D01*
X44000Y100000D02*
X13000Y131000D01*
X73000Y257000D02*
X131000Y257000D01*
X135000Y261000D01*
X135000Y268350D02*
X134490Y268860D01*
X73000Y257000D02*
X55000Y275000D01*
X135000Y268350D02*
X135000Y261000D01*
D43*
X44000Y76000D03*
X261000Y73000D03*
D42*
X273500Y73000D01*
D43*
X76000Y440000D03*
D42*
X76000Y433190D02*
X59763Y416952D01*
X76000Y433190D02*
X76000Y440000D01*
X59763Y416952D02*
X42752Y416952D01*
X42700Y416900D01*
M02*
