G04 EAGLE Gerber RS-274X export*
G75*
%MOMM*%
%FSLAX34Y34*%
%LPD*%
%IN*%
%IPPOS*%
%AMOC8*
5,1,8,0,0,1.08239X$1,22.5*%
G01*
%ADD10C,0.254000*%


D10*
X0Y8000D02*
X30Y7303D01*
X122Y6611D01*
X273Y5929D01*
X482Y5264D01*
X750Y4619D01*
X1072Y4000D01*
X1447Y3411D01*
X1872Y2858D01*
X2343Y2343D01*
X2858Y1872D01*
X3411Y1447D01*
X4000Y1072D01*
X4619Y750D01*
X5264Y482D01*
X5929Y273D01*
X6611Y122D01*
X7303Y30D01*
X8000Y0D01*
X357000Y0D01*
X357697Y30D01*
X358389Y122D01*
X359071Y273D01*
X359736Y482D01*
X360381Y750D01*
X361000Y1072D01*
X361589Y1447D01*
X362142Y1872D01*
X362657Y2343D01*
X363128Y2858D01*
X363553Y3411D01*
X363928Y4000D01*
X364250Y4619D01*
X364518Y5264D01*
X364727Y5929D01*
X364878Y6611D01*
X364970Y7303D01*
X365000Y8000D01*
X365000Y872000D01*
X364970Y872697D01*
X364878Y873389D01*
X364727Y874071D01*
X364518Y874736D01*
X364250Y875381D01*
X363928Y876000D01*
X363553Y876589D01*
X363128Y877142D01*
X362657Y877657D01*
X362142Y878128D01*
X361589Y878553D01*
X361000Y878928D01*
X360381Y879250D01*
X359736Y879518D01*
X359071Y879727D01*
X358389Y879878D01*
X357697Y879970D01*
X357000Y880000D01*
X142000Y880000D01*
X137697Y877437D01*
X133186Y875259D01*
X128503Y873483D01*
X123683Y872121D01*
X118763Y871185D01*
X113780Y870681D01*
X108772Y870613D01*
X103777Y870982D01*
X98833Y871785D01*
X93978Y873016D01*
X89248Y874665D01*
X84681Y876720D01*
X80310Y879166D01*
X79000Y880000D01*
X8000Y880000D01*
X7303Y879970D01*
X6611Y879878D01*
X5929Y879727D01*
X5264Y879518D01*
X4619Y879250D01*
X4000Y878928D01*
X3411Y878553D01*
X2858Y878128D01*
X2343Y877657D01*
X1872Y877142D01*
X1447Y876589D01*
X1072Y876000D01*
X750Y875381D01*
X482Y874736D01*
X273Y874071D01*
X122Y873389D01*
X30Y872697D01*
X0Y872000D01*
X0Y693000D01*
X2856Y686413D01*
X5127Y679603D01*
X6796Y672620D01*
X7850Y665519D01*
X8281Y658352D01*
X8086Y651176D01*
X7266Y644043D01*
X5827Y637010D01*
X3781Y630128D01*
X1143Y623451D01*
X0Y621000D01*
X0Y8000D01*
X53813Y29332D02*
X53738Y27998D01*
X53588Y26670D01*
X53364Y25353D01*
X53067Y24050D01*
X52697Y22766D01*
X52256Y21505D01*
X51744Y20270D01*
X51164Y19066D01*
X50518Y17897D01*
X49807Y16765D01*
X49034Y15676D01*
X48201Y14631D01*
X47310Y13634D01*
X46366Y12690D01*
X45369Y11799D01*
X44325Y10966D01*
X43235Y10193D01*
X42103Y9482D01*
X40934Y8836D01*
X39730Y8256D01*
X38495Y7744D01*
X37234Y7303D01*
X35950Y6933D01*
X34647Y6636D01*
X33330Y6412D01*
X32002Y6262D01*
X30668Y6188D01*
X29332Y6188D01*
X27998Y6262D01*
X26670Y6412D01*
X25353Y6636D01*
X24050Y6933D01*
X22766Y7303D01*
X21505Y7744D01*
X20270Y8256D01*
X19066Y8836D01*
X17897Y9482D01*
X16765Y10193D01*
X15676Y10966D01*
X14631Y11799D01*
X13634Y12690D01*
X12690Y13634D01*
X11799Y14631D01*
X10966Y15676D01*
X10193Y16765D01*
X9482Y17897D01*
X8836Y19066D01*
X8256Y20270D01*
X7744Y21505D01*
X7303Y22766D01*
X6933Y24050D01*
X6636Y25353D01*
X6412Y26670D01*
X6262Y27998D01*
X6188Y29332D01*
X6188Y30668D01*
X6262Y32002D01*
X6412Y33330D01*
X6636Y34647D01*
X6933Y35950D01*
X7303Y37234D01*
X7744Y38495D01*
X8256Y39730D01*
X8836Y40934D01*
X9482Y42103D01*
X10193Y43235D01*
X10966Y44325D01*
X11799Y45369D01*
X12690Y46366D01*
X13634Y47310D01*
X14631Y48201D01*
X15676Y49034D01*
X16765Y49807D01*
X17897Y50518D01*
X19066Y51164D01*
X20270Y51744D01*
X21505Y52256D01*
X22766Y52697D01*
X24050Y53067D01*
X25353Y53364D01*
X26670Y53588D01*
X27998Y53738D01*
X29332Y53813D01*
X30668Y53813D01*
X32002Y53738D01*
X33330Y53588D01*
X34647Y53364D01*
X35950Y53067D01*
X37234Y52697D01*
X38495Y52256D01*
X39730Y51744D01*
X40934Y51164D01*
X42103Y50518D01*
X43235Y49807D01*
X44325Y49034D01*
X45369Y48201D01*
X46366Y47310D01*
X47310Y46366D01*
X48201Y45369D01*
X49034Y44325D01*
X49807Y43235D01*
X50518Y42103D01*
X51164Y40934D01*
X51744Y39730D01*
X52256Y38495D01*
X52697Y37234D01*
X53067Y35950D01*
X53364Y34647D01*
X53588Y33330D01*
X53738Y32002D01*
X53813Y30668D01*
X53813Y29332D01*
X358813Y29332D02*
X358738Y27998D01*
X358588Y26670D01*
X358364Y25353D01*
X358067Y24050D01*
X357697Y22766D01*
X357256Y21505D01*
X356744Y20270D01*
X356164Y19066D01*
X355518Y17897D01*
X354807Y16765D01*
X354034Y15676D01*
X353201Y14631D01*
X352310Y13634D01*
X351366Y12690D01*
X350369Y11799D01*
X349325Y10966D01*
X348235Y10193D01*
X347103Y9482D01*
X345934Y8836D01*
X344730Y8256D01*
X343495Y7744D01*
X342234Y7303D01*
X340950Y6933D01*
X339647Y6636D01*
X338330Y6412D01*
X337002Y6262D01*
X335668Y6188D01*
X334332Y6188D01*
X332998Y6262D01*
X331670Y6412D01*
X330353Y6636D01*
X329050Y6933D01*
X327766Y7303D01*
X326505Y7744D01*
X325270Y8256D01*
X324066Y8836D01*
X322897Y9482D01*
X321765Y10193D01*
X320676Y10966D01*
X319631Y11799D01*
X318634Y12690D01*
X317690Y13634D01*
X316799Y14631D01*
X315966Y15676D01*
X315193Y16765D01*
X314482Y17897D01*
X313836Y19066D01*
X313256Y20270D01*
X312744Y21505D01*
X312303Y22766D01*
X311933Y24050D01*
X311636Y25353D01*
X311412Y26670D01*
X311262Y27998D01*
X311188Y29332D01*
X311188Y30668D01*
X311262Y32002D01*
X311412Y33330D01*
X311636Y34647D01*
X311933Y35950D01*
X312303Y37234D01*
X312744Y38495D01*
X313256Y39730D01*
X313836Y40934D01*
X314482Y42103D01*
X315193Y43235D01*
X315966Y44325D01*
X316799Y45369D01*
X317690Y46366D01*
X318634Y47310D01*
X319631Y48201D01*
X320676Y49034D01*
X321765Y49807D01*
X322897Y50518D01*
X324066Y51164D01*
X325270Y51744D01*
X326505Y52256D01*
X327766Y52697D01*
X329050Y53067D01*
X330353Y53364D01*
X331670Y53588D01*
X332998Y53738D01*
X334332Y53813D01*
X335668Y53813D01*
X337002Y53738D01*
X338330Y53588D01*
X339647Y53364D01*
X340950Y53067D01*
X342234Y52697D01*
X343495Y52256D01*
X344730Y51744D01*
X345934Y51164D01*
X347103Y50518D01*
X348235Y49807D01*
X349325Y49034D01*
X350369Y48201D01*
X351366Y47310D01*
X352310Y46366D01*
X353201Y45369D01*
X354034Y44325D01*
X354807Y43235D01*
X355518Y42103D01*
X356164Y40934D01*
X356744Y39730D01*
X357256Y38495D01*
X357697Y37234D01*
X358067Y35950D01*
X358364Y34647D01*
X358588Y33330D01*
X358738Y32002D01*
X358813Y30668D01*
X358813Y29332D01*
X358813Y849332D02*
X358738Y847998D01*
X358588Y846670D01*
X358364Y845353D01*
X358067Y844050D01*
X357697Y842766D01*
X357256Y841505D01*
X356744Y840270D01*
X356164Y839066D01*
X355518Y837897D01*
X354807Y836765D01*
X354034Y835676D01*
X353201Y834631D01*
X352310Y833634D01*
X351366Y832690D01*
X350369Y831799D01*
X349325Y830966D01*
X348235Y830193D01*
X347103Y829482D01*
X345934Y828836D01*
X344730Y828256D01*
X343495Y827744D01*
X342234Y827303D01*
X340950Y826933D01*
X339647Y826636D01*
X338330Y826412D01*
X337002Y826262D01*
X335668Y826188D01*
X334332Y826188D01*
X332998Y826262D01*
X331670Y826412D01*
X330353Y826636D01*
X329050Y826933D01*
X327766Y827303D01*
X326505Y827744D01*
X325270Y828256D01*
X324066Y828836D01*
X322897Y829482D01*
X321765Y830193D01*
X320676Y830966D01*
X319631Y831799D01*
X318634Y832690D01*
X317690Y833634D01*
X316799Y834631D01*
X315966Y835676D01*
X315193Y836765D01*
X314482Y837897D01*
X313836Y839066D01*
X313256Y840270D01*
X312744Y841505D01*
X312303Y842766D01*
X311933Y844050D01*
X311636Y845353D01*
X311412Y846670D01*
X311262Y847998D01*
X311188Y849332D01*
X311188Y850668D01*
X311262Y852002D01*
X311412Y853330D01*
X311636Y854647D01*
X311933Y855950D01*
X312303Y857234D01*
X312744Y858495D01*
X313256Y859730D01*
X313836Y860934D01*
X314482Y862103D01*
X315193Y863235D01*
X315966Y864325D01*
X316799Y865369D01*
X317690Y866366D01*
X318634Y867310D01*
X319631Y868201D01*
X320676Y869034D01*
X321765Y869807D01*
X322897Y870518D01*
X324066Y871164D01*
X325270Y871744D01*
X326505Y872256D01*
X327766Y872697D01*
X329050Y873067D01*
X330353Y873364D01*
X331670Y873588D01*
X332998Y873738D01*
X334332Y873813D01*
X335668Y873813D01*
X337002Y873738D01*
X338330Y873588D01*
X339647Y873364D01*
X340950Y873067D01*
X342234Y872697D01*
X343495Y872256D01*
X344730Y871744D01*
X345934Y871164D01*
X347103Y870518D01*
X348235Y869807D01*
X349325Y869034D01*
X350369Y868201D01*
X351366Y867310D01*
X352310Y866366D01*
X353201Y865369D01*
X354034Y864325D01*
X354807Y863235D01*
X355518Y862103D01*
X356164Y860934D01*
X356744Y859730D01*
X357256Y858495D01*
X357697Y857234D01*
X358067Y855950D01*
X358364Y854647D01*
X358588Y853330D01*
X358738Y852002D01*
X358813Y850668D01*
X358813Y849332D01*
X53813Y849332D02*
X53738Y847998D01*
X53588Y846670D01*
X53364Y845353D01*
X53067Y844050D01*
X52697Y842766D01*
X52256Y841505D01*
X51744Y840270D01*
X51164Y839066D01*
X50518Y837897D01*
X49807Y836765D01*
X49034Y835676D01*
X48201Y834631D01*
X47310Y833634D01*
X46366Y832690D01*
X45369Y831799D01*
X44325Y830966D01*
X43235Y830193D01*
X42103Y829482D01*
X40934Y828836D01*
X39730Y828256D01*
X38495Y827744D01*
X37234Y827303D01*
X35950Y826933D01*
X34647Y826636D01*
X33330Y826412D01*
X32002Y826262D01*
X30668Y826188D01*
X29332Y826188D01*
X27998Y826262D01*
X26670Y826412D01*
X25353Y826636D01*
X24050Y826933D01*
X22766Y827303D01*
X21505Y827744D01*
X20270Y828256D01*
X19066Y828836D01*
X17897Y829482D01*
X16765Y830193D01*
X15676Y830966D01*
X14631Y831799D01*
X13634Y832690D01*
X12690Y833634D01*
X11799Y834631D01*
X10966Y835676D01*
X10193Y836765D01*
X9482Y837897D01*
X8836Y839066D01*
X8256Y840270D01*
X7744Y841505D01*
X7303Y842766D01*
X6933Y844050D01*
X6636Y845353D01*
X6412Y846670D01*
X6262Y847998D01*
X6188Y849332D01*
X6188Y850668D01*
X6262Y852002D01*
X6412Y853330D01*
X6636Y854647D01*
X6933Y855950D01*
X7303Y857234D01*
X7744Y858495D01*
X8256Y859730D01*
X8836Y860934D01*
X9482Y862103D01*
X10193Y863235D01*
X10966Y864325D01*
X11799Y865369D01*
X12690Y866366D01*
X13634Y867310D01*
X14631Y868201D01*
X15676Y869034D01*
X16765Y869807D01*
X17897Y870518D01*
X19066Y871164D01*
X20270Y871744D01*
X21505Y872256D01*
X22766Y872697D01*
X24050Y873067D01*
X25353Y873364D01*
X26670Y873588D01*
X27998Y873738D01*
X29332Y873813D01*
X30668Y873813D01*
X32002Y873738D01*
X33330Y873588D01*
X34647Y873364D01*
X35950Y873067D01*
X37234Y872697D01*
X38495Y872256D01*
X39730Y871744D01*
X40934Y871164D01*
X42103Y870518D01*
X43235Y869807D01*
X44325Y869034D01*
X45369Y868201D01*
X46366Y867310D01*
X47310Y866366D01*
X48201Y865369D01*
X49034Y864325D01*
X49807Y863235D01*
X50518Y862103D01*
X51164Y860934D01*
X51744Y859730D01*
X52256Y858495D01*
X52697Y857234D01*
X53067Y855950D01*
X53364Y854647D01*
X53588Y853330D01*
X53738Y852002D01*
X53813Y850668D01*
X53813Y849332D01*
X19534Y526000D02*
X18466Y526076D01*
X17405Y526229D01*
X16358Y526457D01*
X15330Y526759D01*
X14326Y527133D01*
X13351Y527578D01*
X12411Y528092D01*
X11510Y528671D01*
X10652Y529313D01*
X9842Y530015D01*
X9085Y530772D01*
X8383Y531582D01*
X7741Y532440D01*
X7162Y533341D01*
X6648Y534281D01*
X6203Y535256D01*
X5829Y536260D01*
X5527Y537288D01*
X5299Y538335D01*
X5146Y539396D01*
X5070Y540464D01*
X5070Y541536D01*
X5146Y542604D01*
X5299Y543665D01*
X5527Y544712D01*
X5829Y545740D01*
X6203Y546744D01*
X6648Y547719D01*
X7162Y548659D01*
X7741Y549560D01*
X8383Y550418D01*
X9085Y551228D01*
X9842Y551985D01*
X10652Y552687D01*
X11510Y553329D01*
X12411Y553908D01*
X13351Y554422D01*
X14326Y554867D01*
X15330Y555241D01*
X16358Y555543D01*
X17405Y555771D01*
X18466Y555924D01*
X19534Y556000D01*
X20606Y556000D01*
X21674Y555924D01*
X22735Y555771D01*
X23782Y555543D01*
X24810Y555241D01*
X25814Y554867D01*
X26789Y554422D01*
X27729Y553908D01*
X28630Y553329D01*
X29488Y552687D01*
X30298Y551985D01*
X31055Y551228D01*
X31757Y550418D01*
X32399Y549560D01*
X32978Y548659D01*
X33492Y547719D01*
X33937Y546744D01*
X34311Y545740D01*
X34613Y544712D01*
X34841Y543665D01*
X34994Y542604D01*
X35070Y541536D01*
X35070Y540464D01*
X34994Y539396D01*
X34841Y538335D01*
X34613Y537288D01*
X34311Y536260D01*
X33937Y535256D01*
X33492Y534281D01*
X32978Y533341D01*
X32399Y532440D01*
X31757Y531582D01*
X31055Y530772D01*
X30298Y530015D01*
X29488Y529313D01*
X28630Y528671D01*
X27729Y528092D01*
X26789Y527578D01*
X25814Y527133D01*
X24810Y526759D01*
X23782Y526457D01*
X22735Y526229D01*
X21674Y526076D01*
X20606Y526000D01*
X19534Y526000D01*
M02*
