G04 EAGLE Gerber RS-274X export*
G75*
%MOMM*%
%FSLAX34Y34*%
%LPD*%
%INSilkscreen Bottom*%
%IPPOS*%
%AMOC8*
5,1,8,0,0,1.08239X$1,22.5*%
G01*
%ADD10C,0.076200*%
%ADD11C,0.203200*%
%ADD12R,2.450000X0.675000*%
%ADD13C,0.254000*%
%ADD14C,0.200000*%


D10*
X47521Y189925D02*
X47521Y188288D01*
X47523Y188210D01*
X47528Y188132D01*
X47538Y188055D01*
X47551Y187978D01*
X47567Y187902D01*
X47587Y187827D01*
X47611Y187753D01*
X47638Y187680D01*
X47669Y187608D01*
X47703Y187538D01*
X47740Y187470D01*
X47781Y187403D01*
X47825Y187338D01*
X47871Y187276D01*
X47921Y187216D01*
X47973Y187158D01*
X48028Y187103D01*
X48086Y187051D01*
X48146Y187001D01*
X48208Y186955D01*
X48273Y186911D01*
X48340Y186870D01*
X48408Y186833D01*
X48478Y186799D01*
X48550Y186768D01*
X48623Y186741D01*
X48697Y186717D01*
X48772Y186697D01*
X48848Y186681D01*
X48925Y186668D01*
X49002Y186658D01*
X49080Y186653D01*
X49158Y186651D01*
X53250Y186651D01*
X53328Y186653D01*
X53406Y186658D01*
X53483Y186668D01*
X53560Y186681D01*
X53636Y186697D01*
X53711Y186717D01*
X53785Y186741D01*
X53858Y186768D01*
X53930Y186799D01*
X54000Y186833D01*
X54069Y186870D01*
X54135Y186911D01*
X54200Y186955D01*
X54262Y187001D01*
X54322Y187051D01*
X54380Y187103D01*
X54435Y187158D01*
X54487Y187216D01*
X54537Y187276D01*
X54583Y187338D01*
X54627Y187403D01*
X54668Y187470D01*
X54705Y187538D01*
X54739Y187608D01*
X54770Y187680D01*
X54797Y187753D01*
X54821Y187827D01*
X54841Y187902D01*
X54857Y187978D01*
X54870Y188055D01*
X54880Y188132D01*
X54885Y188210D01*
X54887Y188288D01*
X54887Y189925D01*
X53250Y192770D02*
X54887Y194816D01*
X47521Y194816D01*
X47521Y192770D02*
X47521Y196862D01*
X49567Y200085D02*
X49656Y200087D01*
X49745Y200093D01*
X49834Y200103D01*
X49922Y200116D01*
X50010Y200133D01*
X50097Y200155D01*
X50182Y200180D01*
X50267Y200208D01*
X50350Y200241D01*
X50432Y200277D01*
X50512Y200316D01*
X50590Y200359D01*
X50666Y200405D01*
X50741Y200455D01*
X50813Y200508D01*
X50882Y200564D01*
X50949Y200623D01*
X51014Y200684D01*
X51075Y200749D01*
X51134Y200816D01*
X51190Y200885D01*
X51243Y200957D01*
X51293Y201032D01*
X51339Y201108D01*
X51382Y201186D01*
X51421Y201266D01*
X51457Y201348D01*
X51490Y201431D01*
X51518Y201516D01*
X51543Y201601D01*
X51565Y201688D01*
X51582Y201776D01*
X51595Y201864D01*
X51605Y201953D01*
X51611Y202042D01*
X51613Y202131D01*
X51611Y202220D01*
X51605Y202309D01*
X51595Y202398D01*
X51582Y202486D01*
X51565Y202574D01*
X51543Y202661D01*
X51518Y202746D01*
X51490Y202831D01*
X51457Y202914D01*
X51421Y202996D01*
X51382Y203076D01*
X51339Y203154D01*
X51293Y203230D01*
X51243Y203305D01*
X51190Y203377D01*
X51134Y203446D01*
X51075Y203513D01*
X51014Y203578D01*
X50949Y203639D01*
X50882Y203698D01*
X50813Y203754D01*
X50741Y203807D01*
X50666Y203857D01*
X50590Y203903D01*
X50512Y203946D01*
X50432Y203985D01*
X50350Y204021D01*
X50267Y204054D01*
X50182Y204082D01*
X50097Y204107D01*
X50010Y204129D01*
X49922Y204146D01*
X49834Y204159D01*
X49745Y204169D01*
X49656Y204175D01*
X49567Y204177D01*
X49478Y204175D01*
X49389Y204169D01*
X49300Y204159D01*
X49212Y204146D01*
X49124Y204129D01*
X49037Y204107D01*
X48952Y204082D01*
X48867Y204054D01*
X48784Y204021D01*
X48702Y203985D01*
X48622Y203946D01*
X48544Y203903D01*
X48468Y203857D01*
X48393Y203807D01*
X48321Y203754D01*
X48252Y203698D01*
X48185Y203639D01*
X48120Y203578D01*
X48059Y203513D01*
X48000Y203446D01*
X47944Y203377D01*
X47891Y203305D01*
X47841Y203230D01*
X47795Y203154D01*
X47752Y203076D01*
X47713Y202996D01*
X47677Y202914D01*
X47644Y202831D01*
X47616Y202746D01*
X47591Y202661D01*
X47569Y202574D01*
X47552Y202486D01*
X47539Y202398D01*
X47529Y202309D01*
X47523Y202220D01*
X47521Y202131D01*
X47523Y202042D01*
X47529Y201953D01*
X47539Y201864D01*
X47552Y201776D01*
X47569Y201688D01*
X47591Y201601D01*
X47616Y201516D01*
X47644Y201431D01*
X47677Y201348D01*
X47713Y201266D01*
X47752Y201186D01*
X47795Y201108D01*
X47841Y201032D01*
X47891Y200957D01*
X47944Y200885D01*
X48000Y200816D01*
X48059Y200749D01*
X48120Y200684D01*
X48185Y200623D01*
X48252Y200564D01*
X48321Y200508D01*
X48393Y200455D01*
X48468Y200405D01*
X48544Y200359D01*
X48622Y200316D01*
X48702Y200277D01*
X48784Y200241D01*
X48867Y200208D01*
X48952Y200180D01*
X49037Y200155D01*
X49124Y200133D01*
X49212Y200116D01*
X49300Y200103D01*
X49389Y200093D01*
X49478Y200087D01*
X49567Y200085D01*
X53250Y200494D02*
X53329Y200496D01*
X53408Y200502D01*
X53487Y200511D01*
X53565Y200524D01*
X53642Y200542D01*
X53718Y200562D01*
X53793Y200587D01*
X53867Y200615D01*
X53940Y200646D01*
X54011Y200682D01*
X54080Y200720D01*
X54147Y200762D01*
X54212Y200807D01*
X54275Y200855D01*
X54336Y200906D01*
X54393Y200960D01*
X54449Y201016D01*
X54501Y201075D01*
X54551Y201137D01*
X54597Y201201D01*
X54641Y201267D01*
X54681Y201335D01*
X54717Y201405D01*
X54751Y201477D01*
X54781Y201551D01*
X54807Y201625D01*
X54830Y201701D01*
X54848Y201778D01*
X54864Y201855D01*
X54875Y201934D01*
X54883Y202012D01*
X54887Y202091D01*
X54887Y202171D01*
X54883Y202250D01*
X54875Y202328D01*
X54864Y202407D01*
X54848Y202484D01*
X54830Y202561D01*
X54807Y202637D01*
X54781Y202711D01*
X54751Y202785D01*
X54717Y202857D01*
X54681Y202927D01*
X54641Y202995D01*
X54597Y203061D01*
X54551Y203125D01*
X54501Y203187D01*
X54449Y203246D01*
X54393Y203302D01*
X54336Y203356D01*
X54275Y203407D01*
X54212Y203455D01*
X54147Y203500D01*
X54080Y203542D01*
X54011Y203580D01*
X53940Y203616D01*
X53867Y203647D01*
X53793Y203675D01*
X53718Y203700D01*
X53642Y203720D01*
X53565Y203738D01*
X53487Y203751D01*
X53408Y203760D01*
X53329Y203766D01*
X53250Y203768D01*
X53171Y203766D01*
X53092Y203760D01*
X53013Y203751D01*
X52935Y203738D01*
X52858Y203720D01*
X52782Y203700D01*
X52707Y203675D01*
X52633Y203647D01*
X52560Y203616D01*
X52489Y203580D01*
X52420Y203542D01*
X52353Y203500D01*
X52288Y203455D01*
X52225Y203407D01*
X52164Y203356D01*
X52107Y203302D01*
X52051Y203246D01*
X51999Y203187D01*
X51949Y203125D01*
X51903Y203061D01*
X51859Y202995D01*
X51819Y202927D01*
X51783Y202857D01*
X51749Y202785D01*
X51719Y202711D01*
X51693Y202637D01*
X51670Y202561D01*
X51652Y202484D01*
X51636Y202407D01*
X51625Y202328D01*
X51617Y202250D01*
X51613Y202171D01*
X51613Y202091D01*
X51617Y202012D01*
X51625Y201934D01*
X51636Y201855D01*
X51652Y201778D01*
X51670Y201701D01*
X51693Y201625D01*
X51719Y201551D01*
X51749Y201477D01*
X51783Y201405D01*
X51819Y201335D01*
X51859Y201267D01*
X51903Y201201D01*
X51949Y201137D01*
X51999Y201075D01*
X52051Y201016D01*
X52107Y200960D01*
X52164Y200906D01*
X52225Y200855D01*
X52288Y200807D01*
X52353Y200762D01*
X52420Y200720D01*
X52489Y200682D01*
X52560Y200646D01*
X52633Y200615D01*
X52707Y200587D01*
X52782Y200562D01*
X52858Y200542D01*
X52935Y200524D01*
X53013Y200511D01*
X53092Y200502D01*
X53171Y200496D01*
X53250Y200494D01*
X109571Y531098D02*
X109571Y532735D01*
X109571Y531098D02*
X109573Y531020D01*
X109578Y530942D01*
X109588Y530865D01*
X109601Y530788D01*
X109617Y530712D01*
X109637Y530637D01*
X109661Y530563D01*
X109688Y530490D01*
X109719Y530418D01*
X109753Y530348D01*
X109790Y530280D01*
X109831Y530213D01*
X109875Y530148D01*
X109921Y530086D01*
X109971Y530026D01*
X110023Y529968D01*
X110078Y529913D01*
X110136Y529861D01*
X110196Y529811D01*
X110258Y529765D01*
X110323Y529721D01*
X110390Y529680D01*
X110458Y529643D01*
X110528Y529609D01*
X110600Y529578D01*
X110673Y529551D01*
X110747Y529527D01*
X110822Y529507D01*
X110898Y529491D01*
X110975Y529478D01*
X111052Y529468D01*
X111130Y529463D01*
X111208Y529461D01*
X115300Y529461D01*
X115378Y529463D01*
X115456Y529468D01*
X115533Y529478D01*
X115610Y529491D01*
X115686Y529507D01*
X115761Y529527D01*
X115835Y529551D01*
X115908Y529578D01*
X115980Y529609D01*
X116050Y529643D01*
X116119Y529680D01*
X116185Y529721D01*
X116250Y529765D01*
X116312Y529811D01*
X116372Y529861D01*
X116430Y529913D01*
X116485Y529968D01*
X116537Y530026D01*
X116587Y530086D01*
X116633Y530148D01*
X116677Y530213D01*
X116718Y530280D01*
X116755Y530348D01*
X116789Y530418D01*
X116820Y530490D01*
X116847Y530563D01*
X116871Y530637D01*
X116891Y530712D01*
X116907Y530788D01*
X116920Y530865D01*
X116930Y530942D01*
X116935Y531020D01*
X116937Y531098D01*
X116937Y532735D01*
X116938Y537831D02*
X116936Y537916D01*
X116930Y538001D01*
X116920Y538085D01*
X116907Y538169D01*
X116889Y538253D01*
X116868Y538335D01*
X116843Y538416D01*
X116814Y538496D01*
X116781Y538575D01*
X116745Y538652D01*
X116705Y538727D01*
X116662Y538801D01*
X116616Y538872D01*
X116566Y538941D01*
X116513Y539008D01*
X116457Y539072D01*
X116398Y539133D01*
X116337Y539192D01*
X116273Y539248D01*
X116206Y539301D01*
X116137Y539351D01*
X116066Y539397D01*
X115992Y539440D01*
X115917Y539480D01*
X115840Y539516D01*
X115761Y539549D01*
X115681Y539578D01*
X115600Y539603D01*
X115518Y539624D01*
X115434Y539642D01*
X115350Y539655D01*
X115266Y539665D01*
X115181Y539671D01*
X115096Y539673D01*
X116937Y537831D02*
X116935Y537735D01*
X116929Y537639D01*
X116919Y537544D01*
X116906Y537449D01*
X116888Y537354D01*
X116867Y537261D01*
X116842Y537168D01*
X116813Y537077D01*
X116781Y536986D01*
X116745Y536897D01*
X116705Y536810D01*
X116662Y536724D01*
X116616Y536640D01*
X116566Y536558D01*
X116512Y536478D01*
X116456Y536401D01*
X116396Y536326D01*
X116334Y536253D01*
X116268Y536183D01*
X116200Y536115D01*
X116129Y536050D01*
X116056Y535989D01*
X115980Y535930D01*
X115901Y535874D01*
X115821Y535822D01*
X115738Y535773D01*
X115654Y535727D01*
X115568Y535685D01*
X115480Y535647D01*
X115391Y535612D01*
X115300Y535580D01*
X113664Y539058D02*
X113723Y539118D01*
X113785Y539175D01*
X113849Y539230D01*
X113916Y539281D01*
X113985Y539330D01*
X114055Y539376D01*
X114128Y539419D01*
X114202Y539459D01*
X114278Y539495D01*
X114356Y539528D01*
X114435Y539558D01*
X114515Y539585D01*
X114596Y539608D01*
X114678Y539627D01*
X114760Y539643D01*
X114844Y539656D01*
X114928Y539665D01*
X115012Y539670D01*
X115096Y539672D01*
X113663Y539058D02*
X109571Y535580D01*
X109571Y539672D01*
X115096Y546988D02*
X115181Y546986D01*
X115266Y546980D01*
X115350Y546970D01*
X115434Y546957D01*
X115518Y546939D01*
X115600Y546918D01*
X115681Y546893D01*
X115761Y546864D01*
X115840Y546831D01*
X115917Y546795D01*
X115992Y546755D01*
X116066Y546712D01*
X116137Y546666D01*
X116206Y546616D01*
X116273Y546563D01*
X116337Y546507D01*
X116398Y546448D01*
X116457Y546387D01*
X116513Y546323D01*
X116566Y546256D01*
X116616Y546187D01*
X116662Y546116D01*
X116705Y546042D01*
X116745Y545967D01*
X116781Y545890D01*
X116814Y545811D01*
X116843Y545731D01*
X116868Y545650D01*
X116889Y545568D01*
X116907Y545484D01*
X116920Y545400D01*
X116930Y545316D01*
X116936Y545231D01*
X116938Y545146D01*
X116937Y545146D02*
X116935Y545050D01*
X116929Y544954D01*
X116919Y544859D01*
X116906Y544764D01*
X116888Y544669D01*
X116867Y544576D01*
X116842Y544483D01*
X116813Y544392D01*
X116781Y544301D01*
X116745Y544212D01*
X116705Y544125D01*
X116662Y544039D01*
X116616Y543955D01*
X116566Y543873D01*
X116512Y543793D01*
X116456Y543716D01*
X116396Y543641D01*
X116334Y543568D01*
X116268Y543498D01*
X116200Y543430D01*
X116129Y543365D01*
X116056Y543304D01*
X115980Y543245D01*
X115901Y543189D01*
X115821Y543137D01*
X115738Y543088D01*
X115654Y543042D01*
X115568Y543000D01*
X115480Y542962D01*
X115391Y542927D01*
X115300Y542895D01*
X113664Y546374D02*
X113723Y546434D01*
X113785Y546491D01*
X113849Y546546D01*
X113916Y546597D01*
X113985Y546646D01*
X114055Y546692D01*
X114128Y546735D01*
X114202Y546775D01*
X114278Y546811D01*
X114356Y546844D01*
X114435Y546874D01*
X114515Y546901D01*
X114596Y546924D01*
X114678Y546943D01*
X114760Y546959D01*
X114844Y546972D01*
X114928Y546981D01*
X115012Y546986D01*
X115096Y546988D01*
X113663Y546374D02*
X109571Y542895D01*
X109571Y546988D01*
X200213Y203491D02*
X200213Y201855D01*
X200215Y201777D01*
X200220Y201699D01*
X200230Y201622D01*
X200243Y201545D01*
X200259Y201469D01*
X200279Y201394D01*
X200303Y201320D01*
X200330Y201247D01*
X200361Y201175D01*
X200395Y201105D01*
X200432Y201037D01*
X200473Y200970D01*
X200517Y200905D01*
X200563Y200843D01*
X200613Y200783D01*
X200665Y200725D01*
X200720Y200670D01*
X200778Y200618D01*
X200838Y200568D01*
X200900Y200522D01*
X200965Y200478D01*
X201032Y200437D01*
X201100Y200400D01*
X201170Y200366D01*
X201242Y200335D01*
X201315Y200308D01*
X201389Y200284D01*
X201464Y200264D01*
X201540Y200248D01*
X201617Y200235D01*
X201694Y200225D01*
X201772Y200220D01*
X201850Y200218D01*
X205942Y200218D01*
X206020Y200220D01*
X206098Y200225D01*
X206175Y200235D01*
X206252Y200248D01*
X206328Y200264D01*
X206403Y200284D01*
X206477Y200308D01*
X206550Y200335D01*
X206622Y200366D01*
X206692Y200400D01*
X206761Y200437D01*
X206827Y200478D01*
X206892Y200522D01*
X206954Y200568D01*
X207014Y200618D01*
X207072Y200670D01*
X207127Y200725D01*
X207179Y200783D01*
X207229Y200843D01*
X207275Y200905D01*
X207319Y200970D01*
X207360Y201037D01*
X207397Y201105D01*
X207431Y201175D01*
X207462Y201247D01*
X207489Y201320D01*
X207513Y201394D01*
X207533Y201469D01*
X207549Y201545D01*
X207562Y201622D01*
X207572Y201699D01*
X207577Y201777D01*
X207579Y201855D01*
X207579Y203491D01*
X200213Y206337D02*
X200213Y208383D01*
X200215Y208472D01*
X200221Y208561D01*
X200231Y208650D01*
X200244Y208738D01*
X200261Y208826D01*
X200283Y208913D01*
X200308Y208998D01*
X200336Y209083D01*
X200369Y209166D01*
X200405Y209248D01*
X200444Y209328D01*
X200487Y209406D01*
X200533Y209482D01*
X200583Y209557D01*
X200636Y209629D01*
X200692Y209698D01*
X200751Y209765D01*
X200812Y209830D01*
X200877Y209891D01*
X200944Y209950D01*
X201013Y210006D01*
X201085Y210059D01*
X201160Y210109D01*
X201236Y210155D01*
X201314Y210198D01*
X201394Y210237D01*
X201476Y210273D01*
X201559Y210306D01*
X201644Y210334D01*
X201729Y210359D01*
X201816Y210381D01*
X201904Y210398D01*
X201992Y210411D01*
X202081Y210421D01*
X202170Y210427D01*
X202259Y210429D01*
X202348Y210427D01*
X202437Y210421D01*
X202526Y210411D01*
X202614Y210398D01*
X202702Y210381D01*
X202789Y210359D01*
X202874Y210334D01*
X202959Y210306D01*
X203042Y210273D01*
X203124Y210237D01*
X203204Y210198D01*
X203282Y210155D01*
X203358Y210109D01*
X203433Y210059D01*
X203505Y210006D01*
X203574Y209950D01*
X203641Y209891D01*
X203706Y209830D01*
X203767Y209765D01*
X203826Y209698D01*
X203882Y209629D01*
X203935Y209557D01*
X203985Y209482D01*
X204031Y209406D01*
X204074Y209328D01*
X204113Y209248D01*
X204149Y209166D01*
X204182Y209083D01*
X204210Y208998D01*
X204235Y208913D01*
X204257Y208826D01*
X204274Y208738D01*
X204287Y208650D01*
X204297Y208561D01*
X204303Y208472D01*
X204305Y208383D01*
X207579Y208792D02*
X207579Y206337D01*
X207579Y208792D02*
X207577Y208871D01*
X207571Y208950D01*
X207562Y209029D01*
X207549Y209107D01*
X207531Y209184D01*
X207511Y209260D01*
X207486Y209335D01*
X207458Y209409D01*
X207427Y209482D01*
X207391Y209553D01*
X207353Y209622D01*
X207311Y209689D01*
X207266Y209754D01*
X207218Y209817D01*
X207167Y209878D01*
X207113Y209935D01*
X207057Y209991D01*
X206998Y210043D01*
X206936Y210093D01*
X206872Y210139D01*
X206806Y210183D01*
X206738Y210223D01*
X206668Y210259D01*
X206596Y210293D01*
X206522Y210323D01*
X206448Y210349D01*
X206372Y210372D01*
X206295Y210390D01*
X206218Y210406D01*
X206139Y210417D01*
X206061Y210425D01*
X205982Y210429D01*
X205902Y210429D01*
X205823Y210425D01*
X205745Y210417D01*
X205666Y210406D01*
X205589Y210390D01*
X205512Y210372D01*
X205436Y210349D01*
X205362Y210323D01*
X205288Y210293D01*
X205216Y210259D01*
X205146Y210223D01*
X205078Y210183D01*
X205012Y210139D01*
X204948Y210093D01*
X204886Y210043D01*
X204827Y209991D01*
X204771Y209935D01*
X204717Y209878D01*
X204666Y209817D01*
X204618Y209754D01*
X204573Y209689D01*
X204531Y209622D01*
X204493Y209553D01*
X204457Y209482D01*
X204426Y209409D01*
X204398Y209335D01*
X204373Y209260D01*
X204353Y209184D01*
X204335Y209107D01*
X204322Y209029D01*
X204313Y208950D01*
X204307Y208871D01*
X204305Y208792D01*
X204305Y207155D01*
X142762Y142271D02*
X141125Y142271D01*
X142762Y142271D02*
X142840Y142273D01*
X142918Y142278D01*
X142995Y142288D01*
X143072Y142301D01*
X143148Y142317D01*
X143223Y142337D01*
X143297Y142361D01*
X143370Y142388D01*
X143442Y142419D01*
X143512Y142453D01*
X143581Y142490D01*
X143647Y142531D01*
X143712Y142575D01*
X143774Y142621D01*
X143834Y142671D01*
X143892Y142723D01*
X143947Y142778D01*
X143999Y142836D01*
X144049Y142896D01*
X144095Y142958D01*
X144139Y143023D01*
X144180Y143090D01*
X144217Y143158D01*
X144251Y143228D01*
X144282Y143300D01*
X144309Y143373D01*
X144333Y143447D01*
X144353Y143522D01*
X144369Y143598D01*
X144382Y143675D01*
X144392Y143752D01*
X144397Y143830D01*
X144399Y143908D01*
X144399Y148000D01*
X144397Y148078D01*
X144392Y148156D01*
X144382Y148233D01*
X144369Y148310D01*
X144353Y148386D01*
X144333Y148461D01*
X144309Y148535D01*
X144282Y148608D01*
X144251Y148680D01*
X144217Y148750D01*
X144180Y148819D01*
X144139Y148885D01*
X144095Y148950D01*
X144049Y149012D01*
X143999Y149072D01*
X143947Y149130D01*
X143892Y149185D01*
X143834Y149237D01*
X143774Y149287D01*
X143712Y149333D01*
X143647Y149377D01*
X143581Y149418D01*
X143512Y149455D01*
X143442Y149489D01*
X143370Y149520D01*
X143297Y149547D01*
X143223Y149571D01*
X143148Y149591D01*
X143072Y149607D01*
X142995Y149620D01*
X142918Y149630D01*
X142840Y149635D01*
X142762Y149637D01*
X141125Y149637D01*
X138280Y148000D02*
X136234Y149637D01*
X136234Y142271D01*
X138280Y142271D02*
X134188Y142271D01*
X129328Y145545D02*
X126873Y145545D01*
X129328Y145545D02*
X129406Y145547D01*
X129484Y145552D01*
X129561Y145562D01*
X129638Y145575D01*
X129714Y145591D01*
X129789Y145611D01*
X129863Y145635D01*
X129936Y145662D01*
X130008Y145693D01*
X130078Y145727D01*
X130147Y145764D01*
X130213Y145805D01*
X130278Y145849D01*
X130340Y145895D01*
X130400Y145945D01*
X130458Y145997D01*
X130513Y146052D01*
X130565Y146110D01*
X130615Y146170D01*
X130661Y146232D01*
X130705Y146297D01*
X130746Y146364D01*
X130783Y146432D01*
X130817Y146502D01*
X130848Y146574D01*
X130875Y146647D01*
X130899Y146721D01*
X130919Y146796D01*
X130935Y146872D01*
X130948Y146949D01*
X130958Y147026D01*
X130963Y147104D01*
X130965Y147182D01*
X130965Y147591D01*
X130963Y147680D01*
X130957Y147769D01*
X130947Y147858D01*
X130934Y147946D01*
X130917Y148034D01*
X130895Y148121D01*
X130870Y148206D01*
X130842Y148291D01*
X130809Y148374D01*
X130773Y148456D01*
X130734Y148536D01*
X130691Y148614D01*
X130645Y148690D01*
X130595Y148765D01*
X130542Y148837D01*
X130486Y148906D01*
X130427Y148973D01*
X130366Y149038D01*
X130301Y149099D01*
X130234Y149158D01*
X130165Y149214D01*
X130093Y149267D01*
X130018Y149317D01*
X129942Y149363D01*
X129864Y149406D01*
X129784Y149445D01*
X129702Y149481D01*
X129619Y149514D01*
X129534Y149542D01*
X129449Y149567D01*
X129362Y149589D01*
X129274Y149606D01*
X129186Y149619D01*
X129097Y149629D01*
X129008Y149635D01*
X128919Y149637D01*
X128830Y149635D01*
X128741Y149629D01*
X128652Y149619D01*
X128564Y149606D01*
X128476Y149589D01*
X128389Y149567D01*
X128304Y149542D01*
X128219Y149514D01*
X128136Y149481D01*
X128054Y149445D01*
X127974Y149406D01*
X127896Y149363D01*
X127820Y149317D01*
X127745Y149267D01*
X127673Y149214D01*
X127604Y149158D01*
X127537Y149099D01*
X127472Y149038D01*
X127411Y148973D01*
X127352Y148906D01*
X127296Y148837D01*
X127243Y148765D01*
X127193Y148690D01*
X127147Y148614D01*
X127104Y148536D01*
X127065Y148456D01*
X127029Y148374D01*
X126996Y148291D01*
X126968Y148206D01*
X126943Y148121D01*
X126921Y148034D01*
X126904Y147946D01*
X126891Y147858D01*
X126881Y147769D01*
X126875Y147680D01*
X126873Y147591D01*
X126873Y145545D01*
X126872Y145545D02*
X126874Y145433D01*
X126880Y145322D01*
X126889Y145210D01*
X126902Y145099D01*
X126920Y144989D01*
X126940Y144879D01*
X126965Y144770D01*
X126993Y144662D01*
X127025Y144555D01*
X127061Y144449D01*
X127100Y144344D01*
X127143Y144241D01*
X127189Y144139D01*
X127239Y144039D01*
X127292Y143940D01*
X127349Y143844D01*
X127408Y143749D01*
X127471Y143657D01*
X127537Y143567D01*
X127606Y143479D01*
X127678Y143393D01*
X127753Y143310D01*
X127831Y143230D01*
X127911Y143152D01*
X127994Y143077D01*
X128080Y143005D01*
X128168Y142936D01*
X128258Y142870D01*
X128350Y142807D01*
X128445Y142748D01*
X128541Y142691D01*
X128640Y142638D01*
X128740Y142588D01*
X128842Y142542D01*
X128945Y142499D01*
X129050Y142460D01*
X129156Y142424D01*
X129263Y142392D01*
X129371Y142364D01*
X129480Y142339D01*
X129590Y142319D01*
X129700Y142301D01*
X129811Y142288D01*
X129923Y142279D01*
X130034Y142273D01*
X130146Y142271D01*
X175814Y246083D02*
X177451Y246083D01*
X177529Y246085D01*
X177607Y246090D01*
X177684Y246100D01*
X177761Y246113D01*
X177837Y246129D01*
X177912Y246149D01*
X177986Y246173D01*
X178059Y246200D01*
X178131Y246231D01*
X178201Y246265D01*
X178270Y246302D01*
X178336Y246343D01*
X178401Y246387D01*
X178463Y246433D01*
X178523Y246483D01*
X178581Y246535D01*
X178636Y246590D01*
X178688Y246648D01*
X178738Y246708D01*
X178784Y246770D01*
X178828Y246835D01*
X178869Y246902D01*
X178906Y246970D01*
X178940Y247040D01*
X178971Y247112D01*
X178998Y247185D01*
X179022Y247259D01*
X179042Y247334D01*
X179058Y247410D01*
X179071Y247487D01*
X179081Y247564D01*
X179086Y247642D01*
X179088Y247720D01*
X179088Y251812D01*
X179086Y251890D01*
X179081Y251968D01*
X179071Y252045D01*
X179058Y252122D01*
X179042Y252198D01*
X179022Y252273D01*
X178998Y252347D01*
X178971Y252420D01*
X178940Y252492D01*
X178906Y252562D01*
X178869Y252631D01*
X178828Y252697D01*
X178784Y252762D01*
X178738Y252824D01*
X178688Y252884D01*
X178636Y252942D01*
X178581Y252997D01*
X178523Y253049D01*
X178463Y253099D01*
X178401Y253145D01*
X178336Y253189D01*
X178270Y253230D01*
X178201Y253267D01*
X178131Y253301D01*
X178059Y253332D01*
X177986Y253359D01*
X177912Y253383D01*
X177837Y253403D01*
X177761Y253419D01*
X177684Y253432D01*
X177607Y253442D01*
X177529Y253447D01*
X177451Y253449D01*
X175814Y253449D01*
X172968Y251812D02*
X170922Y253449D01*
X170922Y246083D01*
X172968Y246083D02*
X168876Y246083D01*
X165653Y252631D02*
X165653Y253449D01*
X161561Y253449D01*
X163607Y246083D01*
X141135Y320313D02*
X139499Y320313D01*
X141135Y320313D02*
X141213Y320315D01*
X141291Y320320D01*
X141368Y320330D01*
X141445Y320343D01*
X141521Y320359D01*
X141596Y320379D01*
X141670Y320403D01*
X141743Y320430D01*
X141815Y320461D01*
X141885Y320495D01*
X141954Y320532D01*
X142020Y320573D01*
X142085Y320617D01*
X142147Y320663D01*
X142207Y320713D01*
X142265Y320765D01*
X142320Y320820D01*
X142372Y320878D01*
X142422Y320938D01*
X142468Y321000D01*
X142512Y321065D01*
X142553Y321132D01*
X142590Y321200D01*
X142624Y321270D01*
X142655Y321342D01*
X142682Y321415D01*
X142706Y321489D01*
X142726Y321564D01*
X142742Y321640D01*
X142755Y321717D01*
X142765Y321794D01*
X142770Y321872D01*
X142772Y321950D01*
X142772Y326042D01*
X142770Y326120D01*
X142765Y326198D01*
X142755Y326275D01*
X142742Y326352D01*
X142726Y326428D01*
X142706Y326503D01*
X142682Y326577D01*
X142655Y326650D01*
X142624Y326722D01*
X142590Y326792D01*
X142553Y326861D01*
X142512Y326927D01*
X142468Y326992D01*
X142422Y327054D01*
X142372Y327114D01*
X142320Y327172D01*
X142265Y327227D01*
X142207Y327279D01*
X142147Y327329D01*
X142085Y327375D01*
X142020Y327419D01*
X141954Y327460D01*
X141885Y327497D01*
X141815Y327531D01*
X141743Y327562D01*
X141670Y327589D01*
X141596Y327613D01*
X141521Y327633D01*
X141445Y327649D01*
X141368Y327662D01*
X141291Y327672D01*
X141213Y327677D01*
X141135Y327679D01*
X139499Y327679D01*
X136653Y320313D02*
X134198Y320313D01*
X134118Y320315D01*
X134038Y320321D01*
X133958Y320331D01*
X133879Y320344D01*
X133800Y320362D01*
X133723Y320383D01*
X133647Y320409D01*
X133572Y320438D01*
X133498Y320470D01*
X133426Y320506D01*
X133356Y320546D01*
X133289Y320589D01*
X133223Y320635D01*
X133160Y320685D01*
X133099Y320737D01*
X133040Y320792D01*
X132985Y320851D01*
X132933Y320911D01*
X132883Y320975D01*
X132837Y321040D01*
X132794Y321108D01*
X132754Y321178D01*
X132718Y321250D01*
X132686Y321324D01*
X132657Y321398D01*
X132632Y321475D01*
X132610Y321552D01*
X132592Y321631D01*
X132579Y321710D01*
X132569Y321789D01*
X132563Y321870D01*
X132561Y321950D01*
X132561Y322768D01*
X132563Y322846D01*
X132568Y322924D01*
X132578Y323001D01*
X132591Y323078D01*
X132607Y323154D01*
X132627Y323229D01*
X132651Y323303D01*
X132678Y323376D01*
X132709Y323448D01*
X132743Y323518D01*
X132780Y323587D01*
X132821Y323653D01*
X132865Y323718D01*
X132911Y323780D01*
X132961Y323840D01*
X133013Y323898D01*
X133068Y323953D01*
X133126Y324005D01*
X133186Y324055D01*
X133248Y324101D01*
X133313Y324145D01*
X133380Y324186D01*
X133448Y324223D01*
X133518Y324257D01*
X133590Y324288D01*
X133663Y324315D01*
X133737Y324339D01*
X133812Y324359D01*
X133888Y324375D01*
X133965Y324388D01*
X134042Y324398D01*
X134120Y324403D01*
X134198Y324405D01*
X136653Y324405D01*
X136653Y327679D01*
X132561Y327679D01*
X203939Y329583D02*
X205575Y329583D01*
X205653Y329585D01*
X205731Y329590D01*
X205808Y329600D01*
X205885Y329613D01*
X205961Y329629D01*
X206036Y329649D01*
X206110Y329673D01*
X206183Y329700D01*
X206255Y329731D01*
X206325Y329765D01*
X206394Y329802D01*
X206460Y329843D01*
X206525Y329887D01*
X206587Y329933D01*
X206647Y329983D01*
X206705Y330035D01*
X206760Y330090D01*
X206812Y330148D01*
X206862Y330208D01*
X206908Y330270D01*
X206952Y330335D01*
X206993Y330402D01*
X207030Y330470D01*
X207064Y330540D01*
X207095Y330612D01*
X207122Y330685D01*
X207146Y330759D01*
X207166Y330834D01*
X207182Y330910D01*
X207195Y330987D01*
X207205Y331064D01*
X207210Y331142D01*
X207212Y331220D01*
X207212Y335312D01*
X207210Y335390D01*
X207205Y335468D01*
X207195Y335545D01*
X207182Y335622D01*
X207166Y335698D01*
X207146Y335773D01*
X207122Y335847D01*
X207095Y335920D01*
X207064Y335992D01*
X207030Y336062D01*
X206993Y336131D01*
X206952Y336197D01*
X206908Y336262D01*
X206862Y336324D01*
X206812Y336384D01*
X206760Y336442D01*
X206705Y336497D01*
X206647Y336549D01*
X206587Y336599D01*
X206525Y336645D01*
X206460Y336689D01*
X206394Y336730D01*
X206325Y336767D01*
X206255Y336801D01*
X206183Y336832D01*
X206110Y336859D01*
X206036Y336883D01*
X205961Y336903D01*
X205885Y336919D01*
X205808Y336932D01*
X205731Y336942D01*
X205653Y336947D01*
X205575Y336949D01*
X203939Y336949D01*
X201093Y333675D02*
X198638Y333675D01*
X198558Y333673D01*
X198478Y333667D01*
X198398Y333657D01*
X198319Y333644D01*
X198240Y333626D01*
X198163Y333605D01*
X198087Y333579D01*
X198012Y333550D01*
X197938Y333518D01*
X197866Y333482D01*
X197796Y333442D01*
X197729Y333399D01*
X197663Y333353D01*
X197600Y333303D01*
X197539Y333251D01*
X197480Y333196D01*
X197425Y333137D01*
X197373Y333077D01*
X197323Y333013D01*
X197277Y332947D01*
X197234Y332880D01*
X197194Y332810D01*
X197158Y332738D01*
X197126Y332664D01*
X197097Y332590D01*
X197071Y332513D01*
X197050Y332436D01*
X197032Y332357D01*
X197019Y332278D01*
X197009Y332198D01*
X197003Y332118D01*
X197001Y332038D01*
X197001Y331629D01*
X197003Y331540D01*
X197009Y331451D01*
X197019Y331362D01*
X197032Y331274D01*
X197049Y331186D01*
X197071Y331099D01*
X197096Y331014D01*
X197124Y330929D01*
X197157Y330846D01*
X197193Y330764D01*
X197232Y330684D01*
X197275Y330606D01*
X197321Y330530D01*
X197371Y330455D01*
X197424Y330383D01*
X197480Y330314D01*
X197539Y330247D01*
X197600Y330182D01*
X197665Y330121D01*
X197732Y330062D01*
X197801Y330006D01*
X197873Y329953D01*
X197948Y329903D01*
X198024Y329857D01*
X198102Y329814D01*
X198182Y329775D01*
X198264Y329739D01*
X198347Y329706D01*
X198432Y329678D01*
X198517Y329653D01*
X198604Y329631D01*
X198692Y329614D01*
X198780Y329601D01*
X198869Y329591D01*
X198958Y329585D01*
X199047Y329583D01*
X199136Y329585D01*
X199225Y329591D01*
X199314Y329601D01*
X199402Y329614D01*
X199490Y329631D01*
X199577Y329653D01*
X199662Y329678D01*
X199747Y329706D01*
X199830Y329739D01*
X199912Y329775D01*
X199992Y329814D01*
X200070Y329857D01*
X200146Y329903D01*
X200221Y329953D01*
X200293Y330006D01*
X200362Y330062D01*
X200429Y330121D01*
X200494Y330182D01*
X200555Y330247D01*
X200614Y330314D01*
X200670Y330383D01*
X200723Y330455D01*
X200773Y330530D01*
X200819Y330606D01*
X200862Y330684D01*
X200901Y330764D01*
X200937Y330846D01*
X200970Y330929D01*
X200998Y331014D01*
X201023Y331099D01*
X201045Y331186D01*
X201062Y331274D01*
X201075Y331362D01*
X201085Y331451D01*
X201091Y331540D01*
X201093Y331629D01*
X201093Y333675D01*
X201091Y333787D01*
X201085Y333898D01*
X201076Y334010D01*
X201063Y334121D01*
X201045Y334231D01*
X201025Y334341D01*
X201000Y334450D01*
X200972Y334558D01*
X200940Y334665D01*
X200904Y334771D01*
X200865Y334876D01*
X200822Y334979D01*
X200776Y335081D01*
X200726Y335181D01*
X200673Y335280D01*
X200616Y335376D01*
X200557Y335471D01*
X200494Y335563D01*
X200428Y335653D01*
X200359Y335741D01*
X200287Y335827D01*
X200212Y335910D01*
X200134Y335990D01*
X200054Y336068D01*
X199971Y336143D01*
X199885Y336215D01*
X199797Y336284D01*
X199707Y336350D01*
X199615Y336413D01*
X199520Y336472D01*
X199424Y336529D01*
X199325Y336582D01*
X199225Y336632D01*
X199123Y336678D01*
X199020Y336721D01*
X198915Y336760D01*
X198809Y336796D01*
X198702Y336828D01*
X198594Y336856D01*
X198485Y336881D01*
X198375Y336901D01*
X198265Y336919D01*
X198154Y336932D01*
X198042Y336941D01*
X197931Y336947D01*
X197819Y336949D01*
X166622Y429751D02*
X164985Y429751D01*
X166622Y429751D02*
X166700Y429753D01*
X166778Y429758D01*
X166855Y429768D01*
X166932Y429781D01*
X167008Y429797D01*
X167083Y429817D01*
X167157Y429841D01*
X167230Y429868D01*
X167302Y429899D01*
X167372Y429933D01*
X167441Y429970D01*
X167507Y430011D01*
X167572Y430055D01*
X167634Y430101D01*
X167694Y430151D01*
X167752Y430203D01*
X167807Y430258D01*
X167859Y430316D01*
X167909Y430376D01*
X167955Y430438D01*
X167999Y430503D01*
X168040Y430570D01*
X168077Y430638D01*
X168111Y430708D01*
X168142Y430780D01*
X168169Y430853D01*
X168193Y430927D01*
X168213Y431002D01*
X168229Y431078D01*
X168242Y431155D01*
X168252Y431232D01*
X168257Y431310D01*
X168259Y431388D01*
X168259Y435480D01*
X168257Y435558D01*
X168252Y435636D01*
X168242Y435713D01*
X168229Y435790D01*
X168213Y435866D01*
X168193Y435941D01*
X168169Y436015D01*
X168142Y436088D01*
X168111Y436160D01*
X168077Y436230D01*
X168040Y436299D01*
X167999Y436365D01*
X167955Y436430D01*
X167909Y436492D01*
X167859Y436552D01*
X167807Y436610D01*
X167752Y436665D01*
X167694Y436717D01*
X167634Y436767D01*
X167572Y436813D01*
X167507Y436857D01*
X167441Y436898D01*
X167372Y436935D01*
X167302Y436969D01*
X167230Y437000D01*
X167157Y437027D01*
X167083Y437051D01*
X167008Y437071D01*
X166932Y437087D01*
X166855Y437100D01*
X166778Y437110D01*
X166700Y437115D01*
X166622Y437117D01*
X164985Y437117D01*
X159889Y437118D02*
X159804Y437116D01*
X159719Y437110D01*
X159635Y437100D01*
X159551Y437087D01*
X159467Y437069D01*
X159385Y437048D01*
X159304Y437023D01*
X159224Y436994D01*
X159145Y436961D01*
X159068Y436925D01*
X158993Y436885D01*
X158919Y436842D01*
X158848Y436796D01*
X158779Y436746D01*
X158712Y436693D01*
X158648Y436637D01*
X158587Y436578D01*
X158528Y436517D01*
X158472Y436453D01*
X158419Y436386D01*
X158369Y436317D01*
X158323Y436246D01*
X158280Y436172D01*
X158240Y436097D01*
X158204Y436020D01*
X158171Y435941D01*
X158142Y435861D01*
X158117Y435780D01*
X158096Y435698D01*
X158078Y435614D01*
X158065Y435530D01*
X158055Y435446D01*
X158049Y435361D01*
X158047Y435276D01*
X159889Y437117D02*
X159985Y437115D01*
X160081Y437109D01*
X160176Y437099D01*
X160271Y437086D01*
X160366Y437068D01*
X160459Y437047D01*
X160552Y437022D01*
X160643Y436993D01*
X160734Y436961D01*
X160823Y436925D01*
X160910Y436885D01*
X160996Y436842D01*
X161080Y436796D01*
X161162Y436746D01*
X161242Y436692D01*
X161319Y436636D01*
X161394Y436576D01*
X161467Y436514D01*
X161537Y436448D01*
X161605Y436380D01*
X161670Y436309D01*
X161731Y436236D01*
X161790Y436160D01*
X161846Y436081D01*
X161898Y436001D01*
X161947Y435918D01*
X161993Y435834D01*
X162035Y435748D01*
X162073Y435660D01*
X162108Y435571D01*
X162140Y435480D01*
X158662Y433844D02*
X158602Y433903D01*
X158545Y433965D01*
X158490Y434029D01*
X158439Y434096D01*
X158390Y434165D01*
X158344Y434235D01*
X158301Y434308D01*
X158261Y434382D01*
X158225Y434458D01*
X158192Y434536D01*
X158162Y434615D01*
X158135Y434695D01*
X158112Y434776D01*
X158093Y434858D01*
X158077Y434940D01*
X158064Y435024D01*
X158055Y435108D01*
X158050Y435192D01*
X158048Y435276D01*
X158662Y433843D02*
X162140Y429751D01*
X158048Y429751D01*
X154824Y433434D02*
X154822Y433587D01*
X154816Y433740D01*
X154807Y433892D01*
X154793Y434045D01*
X154776Y434197D01*
X154755Y434348D01*
X154730Y434499D01*
X154701Y434649D01*
X154669Y434799D01*
X154632Y434947D01*
X154592Y435095D01*
X154549Y435242D01*
X154501Y435387D01*
X154450Y435531D01*
X154396Y435674D01*
X154337Y435816D01*
X154276Y435955D01*
X154210Y436094D01*
X154211Y436094D02*
X154185Y436164D01*
X154155Y436233D01*
X154123Y436301D01*
X154086Y436367D01*
X154047Y436431D01*
X154004Y436493D01*
X153959Y436552D01*
X153910Y436610D01*
X153859Y436664D01*
X153805Y436717D01*
X153748Y436766D01*
X153689Y436813D01*
X153628Y436856D01*
X153565Y436897D01*
X153500Y436934D01*
X153433Y436969D01*
X153364Y436999D01*
X153294Y437027D01*
X153223Y437050D01*
X153151Y437071D01*
X153078Y437087D01*
X153004Y437100D01*
X152929Y437110D01*
X152854Y437115D01*
X152779Y437117D01*
X152704Y437115D01*
X152629Y437110D01*
X152554Y437100D01*
X152480Y437087D01*
X152407Y437071D01*
X152335Y437050D01*
X152264Y437027D01*
X152194Y436999D01*
X152125Y436969D01*
X152058Y436934D01*
X151993Y436897D01*
X151930Y436856D01*
X151869Y436813D01*
X151810Y436766D01*
X151753Y436717D01*
X151699Y436664D01*
X151648Y436610D01*
X151600Y436552D01*
X151554Y436493D01*
X151511Y436431D01*
X151472Y436367D01*
X151436Y436301D01*
X151403Y436234D01*
X151373Y436164D01*
X151347Y436094D01*
X151282Y435956D01*
X151220Y435816D01*
X151162Y435674D01*
X151107Y435531D01*
X151056Y435387D01*
X151008Y435242D01*
X150965Y435095D01*
X150925Y434948D01*
X150888Y434799D01*
X150856Y434649D01*
X150827Y434499D01*
X150802Y434348D01*
X150781Y434197D01*
X150764Y434045D01*
X150750Y433892D01*
X150741Y433740D01*
X150735Y433587D01*
X150733Y433434D01*
X154825Y433434D02*
X154823Y433281D01*
X154817Y433128D01*
X154808Y432975D01*
X154794Y432823D01*
X154777Y432671D01*
X154756Y432520D01*
X154731Y432369D01*
X154702Y432218D01*
X154670Y432069D01*
X154633Y431920D01*
X154593Y431773D01*
X154550Y431626D01*
X154502Y431481D01*
X154451Y431336D01*
X154396Y431194D01*
X154338Y431052D01*
X154276Y430912D01*
X154211Y430774D01*
X154185Y430704D01*
X154155Y430634D01*
X154123Y430567D01*
X154086Y430501D01*
X154047Y430437D01*
X154004Y430375D01*
X153958Y430316D01*
X153910Y430258D01*
X153859Y430204D01*
X153805Y430151D01*
X153748Y430102D01*
X153689Y430055D01*
X153628Y430012D01*
X153565Y429971D01*
X153500Y429934D01*
X153433Y429899D01*
X153364Y429869D01*
X153294Y429841D01*
X153223Y429818D01*
X153151Y429797D01*
X153078Y429781D01*
X153004Y429768D01*
X152929Y429758D01*
X152854Y429753D01*
X152779Y429751D01*
X151347Y430774D02*
X151282Y430912D01*
X151220Y431052D01*
X151162Y431194D01*
X151107Y431337D01*
X151056Y431481D01*
X151008Y431626D01*
X150965Y431773D01*
X150925Y431921D01*
X150888Y432069D01*
X150856Y432219D01*
X150827Y432369D01*
X150802Y432520D01*
X150781Y432671D01*
X150764Y432823D01*
X150750Y432976D01*
X150741Y433128D01*
X150735Y433281D01*
X150733Y433434D01*
X151347Y430774D02*
X151373Y430703D01*
X151403Y430634D01*
X151436Y430567D01*
X151472Y430501D01*
X151511Y430437D01*
X151554Y430375D01*
X151600Y430316D01*
X151648Y430258D01*
X151699Y430204D01*
X151753Y430151D01*
X151810Y430102D01*
X151869Y430055D01*
X151930Y430012D01*
X151993Y429971D01*
X152058Y429934D01*
X152125Y429899D01*
X152194Y429869D01*
X152264Y429841D01*
X152335Y429818D01*
X152407Y429797D01*
X152480Y429781D01*
X152554Y429768D01*
X152629Y429758D01*
X152704Y429753D01*
X152779Y429751D01*
X154416Y431388D02*
X151142Y435480D01*
X223651Y375425D02*
X223651Y373788D01*
X223653Y373710D01*
X223658Y373632D01*
X223668Y373555D01*
X223681Y373478D01*
X223697Y373402D01*
X223717Y373327D01*
X223741Y373253D01*
X223768Y373180D01*
X223799Y373108D01*
X223833Y373038D01*
X223870Y372970D01*
X223911Y372903D01*
X223955Y372838D01*
X224001Y372776D01*
X224051Y372716D01*
X224103Y372658D01*
X224158Y372603D01*
X224216Y372551D01*
X224276Y372501D01*
X224338Y372455D01*
X224403Y372411D01*
X224470Y372370D01*
X224538Y372333D01*
X224608Y372299D01*
X224680Y372268D01*
X224753Y372241D01*
X224827Y372217D01*
X224902Y372197D01*
X224978Y372181D01*
X225055Y372168D01*
X225132Y372158D01*
X225210Y372153D01*
X225288Y372151D01*
X229380Y372151D01*
X229458Y372153D01*
X229536Y372158D01*
X229613Y372168D01*
X229690Y372181D01*
X229766Y372197D01*
X229841Y372217D01*
X229915Y372241D01*
X229988Y372268D01*
X230060Y372299D01*
X230130Y372333D01*
X230199Y372370D01*
X230265Y372411D01*
X230330Y372455D01*
X230392Y372501D01*
X230452Y372551D01*
X230510Y372603D01*
X230565Y372658D01*
X230617Y372716D01*
X230667Y372776D01*
X230713Y372838D01*
X230757Y372903D01*
X230798Y372970D01*
X230835Y373038D01*
X230869Y373108D01*
X230900Y373180D01*
X230927Y373253D01*
X230951Y373327D01*
X230971Y373402D01*
X230987Y373478D01*
X231000Y373555D01*
X231010Y373632D01*
X231015Y373710D01*
X231017Y373788D01*
X231017Y375425D01*
X231018Y380521D02*
X231016Y380606D01*
X231010Y380691D01*
X231000Y380775D01*
X230987Y380859D01*
X230969Y380943D01*
X230948Y381025D01*
X230923Y381106D01*
X230894Y381186D01*
X230861Y381265D01*
X230825Y381342D01*
X230785Y381417D01*
X230742Y381491D01*
X230696Y381562D01*
X230646Y381631D01*
X230593Y381698D01*
X230537Y381762D01*
X230478Y381823D01*
X230417Y381882D01*
X230353Y381938D01*
X230286Y381991D01*
X230217Y382041D01*
X230146Y382087D01*
X230072Y382130D01*
X229997Y382170D01*
X229920Y382206D01*
X229841Y382239D01*
X229761Y382268D01*
X229680Y382293D01*
X229598Y382314D01*
X229514Y382332D01*
X229430Y382345D01*
X229346Y382355D01*
X229261Y382361D01*
X229176Y382363D01*
X231017Y380521D02*
X231015Y380425D01*
X231009Y380329D01*
X230999Y380234D01*
X230986Y380139D01*
X230968Y380044D01*
X230947Y379951D01*
X230922Y379858D01*
X230893Y379767D01*
X230861Y379676D01*
X230825Y379587D01*
X230785Y379500D01*
X230742Y379414D01*
X230696Y379330D01*
X230646Y379248D01*
X230592Y379168D01*
X230536Y379091D01*
X230476Y379016D01*
X230414Y378943D01*
X230348Y378873D01*
X230280Y378805D01*
X230209Y378740D01*
X230136Y378679D01*
X230060Y378620D01*
X229981Y378564D01*
X229901Y378512D01*
X229818Y378463D01*
X229734Y378417D01*
X229648Y378375D01*
X229560Y378337D01*
X229471Y378302D01*
X229380Y378270D01*
X227744Y381748D02*
X227803Y381808D01*
X227865Y381865D01*
X227929Y381920D01*
X227996Y381971D01*
X228065Y382020D01*
X228135Y382066D01*
X228208Y382109D01*
X228282Y382149D01*
X228358Y382185D01*
X228436Y382218D01*
X228515Y382248D01*
X228595Y382275D01*
X228676Y382298D01*
X228758Y382317D01*
X228840Y382333D01*
X228924Y382346D01*
X229008Y382355D01*
X229092Y382360D01*
X229176Y382362D01*
X227743Y381748D02*
X223651Y378270D01*
X223651Y382362D01*
X229380Y385585D02*
X231017Y387631D01*
X223651Y387631D01*
X223651Y385585D02*
X223651Y389678D01*
X261421Y205485D02*
X261421Y203848D01*
X261423Y203770D01*
X261428Y203692D01*
X261438Y203615D01*
X261451Y203538D01*
X261467Y203462D01*
X261487Y203387D01*
X261511Y203313D01*
X261538Y203240D01*
X261569Y203168D01*
X261603Y203098D01*
X261640Y203030D01*
X261681Y202963D01*
X261725Y202898D01*
X261771Y202836D01*
X261821Y202776D01*
X261873Y202718D01*
X261928Y202663D01*
X261986Y202611D01*
X262046Y202561D01*
X262108Y202515D01*
X262173Y202471D01*
X262240Y202430D01*
X262308Y202393D01*
X262378Y202359D01*
X262450Y202328D01*
X262523Y202301D01*
X262597Y202277D01*
X262672Y202257D01*
X262748Y202241D01*
X262825Y202228D01*
X262902Y202218D01*
X262980Y202213D01*
X263058Y202211D01*
X267150Y202211D01*
X267228Y202213D01*
X267306Y202218D01*
X267383Y202228D01*
X267460Y202241D01*
X267536Y202257D01*
X267611Y202277D01*
X267685Y202301D01*
X267758Y202328D01*
X267830Y202359D01*
X267900Y202393D01*
X267969Y202430D01*
X268035Y202471D01*
X268100Y202515D01*
X268162Y202561D01*
X268222Y202611D01*
X268280Y202663D01*
X268335Y202718D01*
X268387Y202776D01*
X268437Y202836D01*
X268483Y202898D01*
X268527Y202963D01*
X268568Y203030D01*
X268605Y203098D01*
X268639Y203168D01*
X268670Y203240D01*
X268697Y203313D01*
X268721Y203387D01*
X268741Y203462D01*
X268757Y203538D01*
X268770Y203615D01*
X268780Y203692D01*
X268785Y203770D01*
X268787Y203848D01*
X268787Y205485D01*
X268787Y209967D02*
X263058Y208330D01*
X263058Y212422D01*
X264695Y211195D02*
X261421Y211195D01*
D11*
X92860Y456350D02*
X92860Y476950D01*
X118860Y476950D02*
X118860Y456350D01*
D12*
X105860Y473875D03*
D10*
X123571Y459381D02*
X130937Y459381D01*
X130937Y461427D01*
X130935Y461516D01*
X130929Y461605D01*
X130919Y461694D01*
X130906Y461782D01*
X130889Y461870D01*
X130867Y461957D01*
X130842Y462042D01*
X130814Y462127D01*
X130781Y462210D01*
X130745Y462292D01*
X130706Y462372D01*
X130663Y462450D01*
X130617Y462526D01*
X130567Y462601D01*
X130514Y462673D01*
X130458Y462742D01*
X130399Y462809D01*
X130338Y462874D01*
X130273Y462935D01*
X130206Y462994D01*
X130137Y463050D01*
X130065Y463103D01*
X129990Y463153D01*
X129914Y463199D01*
X129836Y463242D01*
X129756Y463281D01*
X129674Y463317D01*
X129591Y463350D01*
X129506Y463378D01*
X129421Y463403D01*
X129334Y463425D01*
X129246Y463442D01*
X129158Y463455D01*
X129069Y463465D01*
X128980Y463471D01*
X128891Y463473D01*
X125617Y463473D01*
X125528Y463471D01*
X125439Y463465D01*
X125350Y463455D01*
X125262Y463442D01*
X125174Y463425D01*
X125087Y463403D01*
X125002Y463378D01*
X124917Y463350D01*
X124834Y463317D01*
X124752Y463281D01*
X124672Y463242D01*
X124594Y463199D01*
X124518Y463153D01*
X124443Y463103D01*
X124371Y463050D01*
X124302Y462994D01*
X124235Y462935D01*
X124170Y462874D01*
X124109Y462809D01*
X124050Y462742D01*
X123994Y462673D01*
X123941Y462601D01*
X123891Y462526D01*
X123845Y462450D01*
X123802Y462372D01*
X123763Y462292D01*
X123727Y462210D01*
X123694Y462127D01*
X123666Y462042D01*
X123641Y461957D01*
X123619Y461870D01*
X123602Y461782D01*
X123589Y461694D01*
X123579Y461605D01*
X123573Y461516D01*
X123571Y461427D01*
X123571Y459381D01*
X129300Y466940D02*
X130937Y468986D01*
X123571Y468986D01*
X123571Y466940D02*
X123571Y471032D01*
X71157Y651783D02*
X71157Y659149D01*
X69111Y659149D01*
X69022Y659147D01*
X68933Y659141D01*
X68844Y659131D01*
X68756Y659118D01*
X68668Y659101D01*
X68581Y659079D01*
X68496Y659054D01*
X68411Y659026D01*
X68328Y658993D01*
X68246Y658957D01*
X68166Y658918D01*
X68088Y658875D01*
X68012Y658829D01*
X67937Y658779D01*
X67865Y658726D01*
X67796Y658670D01*
X67729Y658611D01*
X67664Y658550D01*
X67603Y658485D01*
X67544Y658418D01*
X67488Y658349D01*
X67435Y658277D01*
X67385Y658202D01*
X67339Y658126D01*
X67296Y658048D01*
X67257Y657968D01*
X67221Y657886D01*
X67188Y657803D01*
X67160Y657718D01*
X67135Y657633D01*
X67113Y657546D01*
X67096Y657458D01*
X67083Y657370D01*
X67073Y657281D01*
X67067Y657192D01*
X67065Y657103D01*
X67067Y657014D01*
X67073Y656925D01*
X67083Y656836D01*
X67096Y656748D01*
X67113Y656660D01*
X67135Y656573D01*
X67160Y656488D01*
X67188Y656403D01*
X67221Y656320D01*
X67257Y656238D01*
X67296Y656158D01*
X67339Y656080D01*
X67385Y656004D01*
X67435Y655929D01*
X67488Y655857D01*
X67544Y655788D01*
X67603Y655721D01*
X67664Y655656D01*
X67729Y655595D01*
X67796Y655536D01*
X67865Y655480D01*
X67937Y655427D01*
X68012Y655377D01*
X68088Y655331D01*
X68166Y655288D01*
X68246Y655249D01*
X68328Y655213D01*
X68411Y655180D01*
X68496Y655152D01*
X68581Y655127D01*
X68668Y655105D01*
X68756Y655088D01*
X68844Y655075D01*
X68933Y655065D01*
X69022Y655059D01*
X69111Y655057D01*
X71157Y655057D01*
X68702Y655057D02*
X67065Y651783D01*
X63893Y657512D02*
X61847Y659149D01*
X61847Y651783D01*
X63893Y651783D02*
X59801Y651783D01*
X89381Y384931D02*
X96747Y384931D01*
X96747Y386977D01*
X96745Y387066D01*
X96739Y387155D01*
X96729Y387244D01*
X96716Y387332D01*
X96699Y387420D01*
X96677Y387507D01*
X96652Y387592D01*
X96624Y387677D01*
X96591Y387760D01*
X96555Y387842D01*
X96516Y387922D01*
X96473Y388000D01*
X96427Y388076D01*
X96377Y388151D01*
X96324Y388223D01*
X96268Y388292D01*
X96209Y388359D01*
X96148Y388424D01*
X96083Y388485D01*
X96016Y388544D01*
X95947Y388600D01*
X95875Y388653D01*
X95800Y388703D01*
X95724Y388749D01*
X95646Y388792D01*
X95566Y388831D01*
X95484Y388867D01*
X95401Y388900D01*
X95316Y388928D01*
X95231Y388953D01*
X95144Y388975D01*
X95056Y388992D01*
X94968Y389005D01*
X94879Y389015D01*
X94790Y389021D01*
X94701Y389023D01*
X94612Y389021D01*
X94523Y389015D01*
X94434Y389005D01*
X94346Y388992D01*
X94258Y388975D01*
X94171Y388953D01*
X94086Y388928D01*
X94001Y388900D01*
X93918Y388867D01*
X93836Y388831D01*
X93756Y388792D01*
X93678Y388749D01*
X93602Y388703D01*
X93527Y388653D01*
X93455Y388600D01*
X93386Y388544D01*
X93319Y388485D01*
X93254Y388424D01*
X93193Y388359D01*
X93134Y388292D01*
X93078Y388223D01*
X93025Y388151D01*
X92975Y388076D01*
X92929Y388000D01*
X92886Y387922D01*
X92847Y387842D01*
X92811Y387760D01*
X92778Y387677D01*
X92750Y387592D01*
X92725Y387507D01*
X92703Y387420D01*
X92686Y387332D01*
X92673Y387244D01*
X92663Y387155D01*
X92657Y387066D01*
X92655Y386977D01*
X92655Y384931D01*
X92655Y387386D02*
X89381Y389023D01*
X95110Y392195D02*
X96747Y394241D01*
X89381Y394241D01*
X89381Y392195D02*
X89381Y396287D01*
X89381Y399510D02*
X89381Y401966D01*
X89383Y402046D01*
X89389Y402126D01*
X89399Y402206D01*
X89412Y402285D01*
X89430Y402364D01*
X89451Y402441D01*
X89477Y402517D01*
X89506Y402592D01*
X89538Y402666D01*
X89574Y402738D01*
X89614Y402808D01*
X89657Y402875D01*
X89703Y402941D01*
X89753Y403004D01*
X89805Y403065D01*
X89860Y403124D01*
X89919Y403179D01*
X89979Y403231D01*
X90043Y403281D01*
X90109Y403327D01*
X90176Y403370D01*
X90246Y403410D01*
X90318Y403446D01*
X90392Y403478D01*
X90466Y403507D01*
X90543Y403533D01*
X90620Y403554D01*
X90699Y403572D01*
X90778Y403585D01*
X90858Y403595D01*
X90938Y403601D01*
X91018Y403603D01*
X91018Y403602D02*
X91836Y403602D01*
X91836Y403603D02*
X91914Y403601D01*
X91992Y403596D01*
X92069Y403586D01*
X92146Y403573D01*
X92222Y403557D01*
X92297Y403537D01*
X92371Y403513D01*
X92444Y403486D01*
X92516Y403455D01*
X92586Y403421D01*
X92655Y403384D01*
X92721Y403343D01*
X92786Y403299D01*
X92848Y403253D01*
X92908Y403203D01*
X92966Y403151D01*
X93021Y403096D01*
X93073Y403038D01*
X93123Y402978D01*
X93169Y402916D01*
X93213Y402851D01*
X93254Y402785D01*
X93291Y402716D01*
X93325Y402646D01*
X93356Y402574D01*
X93383Y402501D01*
X93407Y402427D01*
X93427Y402352D01*
X93443Y402276D01*
X93456Y402199D01*
X93466Y402122D01*
X93471Y402044D01*
X93473Y401966D01*
X93473Y399510D01*
X96747Y399510D01*
X96747Y403602D01*
X96617Y412931D02*
X89251Y412931D01*
X96617Y412931D02*
X96617Y414977D01*
X96615Y415066D01*
X96609Y415155D01*
X96599Y415244D01*
X96586Y415332D01*
X96569Y415420D01*
X96547Y415507D01*
X96522Y415592D01*
X96494Y415677D01*
X96461Y415760D01*
X96425Y415842D01*
X96386Y415922D01*
X96343Y416000D01*
X96297Y416076D01*
X96247Y416151D01*
X96194Y416223D01*
X96138Y416292D01*
X96079Y416359D01*
X96018Y416424D01*
X95953Y416485D01*
X95886Y416544D01*
X95817Y416600D01*
X95745Y416653D01*
X95670Y416703D01*
X95594Y416749D01*
X95516Y416792D01*
X95436Y416831D01*
X95354Y416867D01*
X95271Y416900D01*
X95186Y416928D01*
X95101Y416953D01*
X95014Y416975D01*
X94926Y416992D01*
X94838Y417005D01*
X94749Y417015D01*
X94660Y417021D01*
X94571Y417023D01*
X94482Y417021D01*
X94393Y417015D01*
X94304Y417005D01*
X94216Y416992D01*
X94128Y416975D01*
X94041Y416953D01*
X93956Y416928D01*
X93871Y416900D01*
X93788Y416867D01*
X93706Y416831D01*
X93626Y416792D01*
X93548Y416749D01*
X93472Y416703D01*
X93397Y416653D01*
X93325Y416600D01*
X93256Y416544D01*
X93189Y416485D01*
X93124Y416424D01*
X93063Y416359D01*
X93004Y416292D01*
X92948Y416223D01*
X92895Y416151D01*
X92845Y416076D01*
X92799Y416000D01*
X92756Y415922D01*
X92717Y415842D01*
X92681Y415760D01*
X92648Y415677D01*
X92620Y415592D01*
X92595Y415507D01*
X92573Y415420D01*
X92556Y415332D01*
X92543Y415244D01*
X92533Y415155D01*
X92527Y415066D01*
X92525Y414977D01*
X92525Y412931D01*
X92525Y415386D02*
X89251Y417023D01*
X94980Y420195D02*
X96617Y422241D01*
X89251Y422241D01*
X89251Y420195D02*
X89251Y424287D01*
X93343Y427510D02*
X93343Y429966D01*
X93341Y430044D01*
X93336Y430122D01*
X93326Y430199D01*
X93313Y430276D01*
X93297Y430352D01*
X93277Y430427D01*
X93253Y430501D01*
X93226Y430574D01*
X93195Y430646D01*
X93161Y430716D01*
X93124Y430785D01*
X93083Y430851D01*
X93039Y430916D01*
X92993Y430978D01*
X92943Y431038D01*
X92891Y431096D01*
X92836Y431151D01*
X92778Y431203D01*
X92718Y431253D01*
X92656Y431299D01*
X92591Y431343D01*
X92525Y431384D01*
X92456Y431421D01*
X92386Y431455D01*
X92314Y431486D01*
X92241Y431513D01*
X92167Y431537D01*
X92092Y431557D01*
X92016Y431573D01*
X91939Y431586D01*
X91862Y431596D01*
X91784Y431601D01*
X91706Y431603D01*
X91706Y431602D02*
X91297Y431602D01*
X91208Y431600D01*
X91119Y431594D01*
X91030Y431584D01*
X90942Y431571D01*
X90854Y431554D01*
X90767Y431532D01*
X90682Y431507D01*
X90597Y431479D01*
X90514Y431446D01*
X90432Y431410D01*
X90352Y431371D01*
X90274Y431328D01*
X90198Y431282D01*
X90123Y431232D01*
X90051Y431179D01*
X89982Y431123D01*
X89915Y431064D01*
X89850Y431003D01*
X89789Y430938D01*
X89730Y430871D01*
X89674Y430802D01*
X89621Y430730D01*
X89571Y430655D01*
X89525Y430579D01*
X89482Y430501D01*
X89443Y430421D01*
X89407Y430339D01*
X89374Y430256D01*
X89346Y430171D01*
X89321Y430086D01*
X89299Y429999D01*
X89282Y429911D01*
X89269Y429823D01*
X89259Y429734D01*
X89253Y429645D01*
X89251Y429556D01*
X89253Y429467D01*
X89259Y429378D01*
X89269Y429289D01*
X89282Y429201D01*
X89299Y429113D01*
X89321Y429026D01*
X89346Y428941D01*
X89374Y428856D01*
X89407Y428773D01*
X89443Y428691D01*
X89482Y428611D01*
X89525Y428533D01*
X89571Y428457D01*
X89621Y428382D01*
X89674Y428310D01*
X89730Y428241D01*
X89789Y428174D01*
X89850Y428109D01*
X89915Y428048D01*
X89982Y427989D01*
X90051Y427933D01*
X90123Y427880D01*
X90198Y427830D01*
X90274Y427784D01*
X90352Y427741D01*
X90432Y427702D01*
X90514Y427666D01*
X90597Y427633D01*
X90682Y427605D01*
X90767Y427580D01*
X90854Y427558D01*
X90942Y427541D01*
X91030Y427528D01*
X91119Y427518D01*
X91208Y427512D01*
X91297Y427510D01*
X93343Y427510D01*
X93457Y427512D01*
X93571Y427518D01*
X93685Y427528D01*
X93799Y427542D01*
X93912Y427560D01*
X94024Y427582D01*
X94135Y427607D01*
X94245Y427637D01*
X94355Y427670D01*
X94463Y427707D01*
X94569Y427748D01*
X94675Y427793D01*
X94778Y427841D01*
X94880Y427893D01*
X94980Y427949D01*
X95078Y428007D01*
X95174Y428070D01*
X95267Y428135D01*
X95359Y428204D01*
X95447Y428276D01*
X95534Y428351D01*
X95617Y428429D01*
X95698Y428510D01*
X95776Y428593D01*
X95851Y428680D01*
X95923Y428768D01*
X95992Y428860D01*
X96057Y428953D01*
X96119Y429049D01*
X96178Y429147D01*
X96234Y429247D01*
X96286Y429349D01*
X96334Y429452D01*
X96379Y429558D01*
X96420Y429664D01*
X96457Y429772D01*
X96490Y429882D01*
X96520Y429992D01*
X96545Y430103D01*
X96567Y430215D01*
X96585Y430328D01*
X96599Y430442D01*
X96609Y430556D01*
X96615Y430670D01*
X96617Y430784D01*
X63549Y624501D02*
X63549Y631867D01*
X61503Y631867D01*
X61414Y631865D01*
X61325Y631859D01*
X61236Y631849D01*
X61148Y631836D01*
X61060Y631819D01*
X60973Y631797D01*
X60888Y631772D01*
X60803Y631744D01*
X60720Y631711D01*
X60638Y631675D01*
X60558Y631636D01*
X60480Y631593D01*
X60404Y631547D01*
X60329Y631497D01*
X60257Y631444D01*
X60188Y631388D01*
X60121Y631329D01*
X60056Y631268D01*
X59995Y631203D01*
X59936Y631136D01*
X59880Y631067D01*
X59827Y630995D01*
X59777Y630920D01*
X59731Y630844D01*
X59688Y630766D01*
X59649Y630686D01*
X59613Y630604D01*
X59580Y630521D01*
X59552Y630436D01*
X59527Y630351D01*
X59505Y630264D01*
X59488Y630176D01*
X59475Y630088D01*
X59465Y629999D01*
X59459Y629910D01*
X59457Y629821D01*
X59459Y629732D01*
X59465Y629643D01*
X59475Y629554D01*
X59488Y629466D01*
X59505Y629378D01*
X59527Y629291D01*
X59552Y629206D01*
X59580Y629121D01*
X59613Y629038D01*
X59649Y628956D01*
X59688Y628876D01*
X59731Y628798D01*
X59777Y628722D01*
X59827Y628647D01*
X59880Y628575D01*
X59936Y628506D01*
X59995Y628439D01*
X60056Y628374D01*
X60121Y628313D01*
X60188Y628254D01*
X60257Y628198D01*
X60329Y628145D01*
X60404Y628095D01*
X60480Y628049D01*
X60558Y628006D01*
X60638Y627967D01*
X60720Y627931D01*
X60803Y627898D01*
X60888Y627870D01*
X60973Y627845D01*
X61060Y627823D01*
X61148Y627806D01*
X61236Y627793D01*
X61325Y627783D01*
X61414Y627777D01*
X61503Y627775D01*
X63549Y627775D01*
X61094Y627775D02*
X59457Y624501D01*
X56285Y630230D02*
X54239Y631867D01*
X54239Y624501D01*
X56285Y624501D02*
X52193Y624501D01*
X48970Y626138D02*
X47333Y631867D01*
X48970Y626138D02*
X44878Y626138D01*
X46105Y627775D02*
X46105Y624501D01*
X61279Y499597D02*
X61279Y492231D01*
X61279Y499597D02*
X59233Y499597D01*
X59144Y499595D01*
X59055Y499589D01*
X58966Y499579D01*
X58878Y499566D01*
X58790Y499549D01*
X58703Y499527D01*
X58618Y499502D01*
X58533Y499474D01*
X58450Y499441D01*
X58368Y499405D01*
X58288Y499366D01*
X58210Y499323D01*
X58134Y499277D01*
X58059Y499227D01*
X57987Y499174D01*
X57918Y499118D01*
X57851Y499059D01*
X57786Y498998D01*
X57725Y498933D01*
X57666Y498866D01*
X57610Y498797D01*
X57557Y498725D01*
X57507Y498650D01*
X57461Y498574D01*
X57418Y498496D01*
X57379Y498416D01*
X57343Y498334D01*
X57310Y498251D01*
X57282Y498166D01*
X57257Y498081D01*
X57235Y497994D01*
X57218Y497906D01*
X57205Y497818D01*
X57195Y497729D01*
X57189Y497640D01*
X57187Y497551D01*
X57189Y497462D01*
X57195Y497373D01*
X57205Y497284D01*
X57218Y497196D01*
X57235Y497108D01*
X57257Y497021D01*
X57282Y496936D01*
X57310Y496851D01*
X57343Y496768D01*
X57379Y496686D01*
X57418Y496606D01*
X57461Y496528D01*
X57507Y496452D01*
X57557Y496377D01*
X57610Y496305D01*
X57666Y496236D01*
X57725Y496169D01*
X57786Y496104D01*
X57851Y496043D01*
X57918Y495984D01*
X57987Y495928D01*
X58059Y495875D01*
X58134Y495825D01*
X58210Y495779D01*
X58288Y495736D01*
X58368Y495697D01*
X58450Y495661D01*
X58533Y495628D01*
X58618Y495600D01*
X58703Y495575D01*
X58790Y495553D01*
X58878Y495536D01*
X58966Y495523D01*
X59055Y495513D01*
X59144Y495507D01*
X59233Y495505D01*
X61279Y495505D01*
X58824Y495505D02*
X57187Y492231D01*
X49922Y497756D02*
X49924Y497841D01*
X49930Y497926D01*
X49940Y498010D01*
X49953Y498094D01*
X49971Y498178D01*
X49992Y498260D01*
X50017Y498341D01*
X50046Y498421D01*
X50079Y498500D01*
X50115Y498577D01*
X50155Y498652D01*
X50198Y498726D01*
X50244Y498797D01*
X50294Y498866D01*
X50347Y498933D01*
X50403Y498997D01*
X50462Y499058D01*
X50523Y499117D01*
X50587Y499173D01*
X50654Y499226D01*
X50723Y499276D01*
X50794Y499322D01*
X50868Y499365D01*
X50943Y499405D01*
X51020Y499441D01*
X51099Y499474D01*
X51179Y499503D01*
X51260Y499528D01*
X51342Y499549D01*
X51426Y499567D01*
X51510Y499580D01*
X51594Y499590D01*
X51679Y499596D01*
X51764Y499598D01*
X51764Y499597D02*
X51860Y499595D01*
X51956Y499589D01*
X52051Y499579D01*
X52146Y499566D01*
X52241Y499548D01*
X52334Y499527D01*
X52427Y499502D01*
X52518Y499473D01*
X52609Y499441D01*
X52698Y499405D01*
X52785Y499365D01*
X52871Y499322D01*
X52955Y499276D01*
X53037Y499226D01*
X53117Y499172D01*
X53194Y499116D01*
X53269Y499056D01*
X53342Y498994D01*
X53412Y498928D01*
X53480Y498860D01*
X53545Y498789D01*
X53606Y498716D01*
X53665Y498640D01*
X53721Y498561D01*
X53773Y498481D01*
X53822Y498398D01*
X53868Y498314D01*
X53910Y498228D01*
X53948Y498140D01*
X53983Y498051D01*
X54015Y497960D01*
X50537Y496324D02*
X50477Y496383D01*
X50420Y496445D01*
X50365Y496509D01*
X50314Y496576D01*
X50265Y496645D01*
X50219Y496715D01*
X50176Y496788D01*
X50136Y496862D01*
X50100Y496938D01*
X50067Y497016D01*
X50037Y497095D01*
X50010Y497175D01*
X49987Y497256D01*
X49968Y497338D01*
X49952Y497420D01*
X49939Y497504D01*
X49930Y497588D01*
X49925Y497672D01*
X49923Y497756D01*
X50537Y496323D02*
X54015Y492231D01*
X49923Y492231D01*
X34248Y349153D02*
X34248Y341787D01*
X34248Y349153D02*
X32202Y349153D01*
X32113Y349151D01*
X32024Y349145D01*
X31935Y349135D01*
X31847Y349122D01*
X31759Y349105D01*
X31672Y349083D01*
X31587Y349058D01*
X31502Y349030D01*
X31419Y348997D01*
X31337Y348961D01*
X31257Y348922D01*
X31179Y348879D01*
X31103Y348833D01*
X31028Y348783D01*
X30956Y348730D01*
X30887Y348674D01*
X30820Y348615D01*
X30755Y348554D01*
X30694Y348489D01*
X30635Y348422D01*
X30579Y348353D01*
X30526Y348281D01*
X30476Y348206D01*
X30430Y348130D01*
X30387Y348052D01*
X30348Y347972D01*
X30312Y347890D01*
X30279Y347807D01*
X30251Y347722D01*
X30226Y347637D01*
X30204Y347550D01*
X30187Y347462D01*
X30174Y347374D01*
X30164Y347285D01*
X30158Y347196D01*
X30156Y347107D01*
X30158Y347018D01*
X30164Y346929D01*
X30174Y346840D01*
X30187Y346752D01*
X30204Y346664D01*
X30226Y346577D01*
X30251Y346492D01*
X30279Y346407D01*
X30312Y346324D01*
X30348Y346242D01*
X30387Y346162D01*
X30430Y346084D01*
X30476Y346008D01*
X30526Y345933D01*
X30579Y345861D01*
X30635Y345792D01*
X30694Y345725D01*
X30755Y345660D01*
X30820Y345599D01*
X30887Y345540D01*
X30956Y345484D01*
X31028Y345431D01*
X31103Y345381D01*
X31179Y345335D01*
X31257Y345292D01*
X31337Y345253D01*
X31419Y345217D01*
X31502Y345184D01*
X31587Y345156D01*
X31672Y345131D01*
X31759Y345109D01*
X31847Y345092D01*
X31935Y345079D01*
X32024Y345069D01*
X32113Y345063D01*
X32202Y345061D01*
X34248Y345061D01*
X31792Y345061D02*
X30156Y341787D01*
X26984Y347516D02*
X24938Y349153D01*
X24938Y341787D01*
X26984Y341787D02*
X22892Y341787D01*
X19669Y341787D02*
X17622Y341787D01*
X17533Y341789D01*
X17444Y341795D01*
X17355Y341805D01*
X17267Y341818D01*
X17179Y341835D01*
X17092Y341857D01*
X17007Y341882D01*
X16922Y341910D01*
X16839Y341943D01*
X16757Y341979D01*
X16677Y342018D01*
X16599Y342061D01*
X16523Y342107D01*
X16448Y342157D01*
X16376Y342210D01*
X16307Y342266D01*
X16240Y342325D01*
X16175Y342386D01*
X16114Y342451D01*
X16055Y342518D01*
X15999Y342587D01*
X15946Y342659D01*
X15896Y342734D01*
X15850Y342810D01*
X15807Y342888D01*
X15768Y342968D01*
X15732Y343050D01*
X15699Y343133D01*
X15671Y343218D01*
X15646Y343303D01*
X15624Y343390D01*
X15607Y343478D01*
X15594Y343566D01*
X15584Y343655D01*
X15578Y343744D01*
X15576Y343833D01*
X15578Y343922D01*
X15584Y344011D01*
X15594Y344100D01*
X15607Y344188D01*
X15624Y344276D01*
X15646Y344363D01*
X15671Y344448D01*
X15699Y344533D01*
X15732Y344616D01*
X15768Y344698D01*
X15807Y344778D01*
X15850Y344856D01*
X15896Y344932D01*
X15946Y345007D01*
X15999Y345079D01*
X16055Y345148D01*
X16114Y345215D01*
X16175Y345280D01*
X16240Y345341D01*
X16307Y345400D01*
X16376Y345456D01*
X16448Y345509D01*
X16523Y345559D01*
X16599Y345605D01*
X16677Y345648D01*
X16757Y345687D01*
X16839Y345723D01*
X16922Y345756D01*
X17007Y345784D01*
X17092Y345809D01*
X17179Y345831D01*
X17267Y345848D01*
X17355Y345861D01*
X17444Y345871D01*
X17533Y345877D01*
X17622Y345879D01*
X17213Y349153D02*
X19669Y349153D01*
X17213Y349153D02*
X17134Y349151D01*
X17055Y349145D01*
X16976Y349136D01*
X16898Y349123D01*
X16821Y349105D01*
X16745Y349085D01*
X16670Y349060D01*
X16596Y349032D01*
X16523Y349001D01*
X16452Y348965D01*
X16383Y348927D01*
X16316Y348885D01*
X16251Y348840D01*
X16188Y348792D01*
X16127Y348741D01*
X16070Y348687D01*
X16014Y348631D01*
X15962Y348572D01*
X15912Y348510D01*
X15866Y348446D01*
X15822Y348380D01*
X15782Y348312D01*
X15746Y348242D01*
X15712Y348170D01*
X15682Y348096D01*
X15656Y348022D01*
X15633Y347946D01*
X15615Y347869D01*
X15599Y347792D01*
X15588Y347713D01*
X15580Y347635D01*
X15576Y347556D01*
X15576Y347476D01*
X15580Y347397D01*
X15588Y347319D01*
X15599Y347240D01*
X15615Y347163D01*
X15633Y347086D01*
X15656Y347010D01*
X15682Y346936D01*
X15712Y346862D01*
X15746Y346790D01*
X15782Y346720D01*
X15822Y346652D01*
X15866Y346586D01*
X15912Y346522D01*
X15962Y346460D01*
X16014Y346401D01*
X16070Y346345D01*
X16127Y346291D01*
X16188Y346240D01*
X16251Y346192D01*
X16316Y346147D01*
X16383Y346105D01*
X16452Y346067D01*
X16523Y346031D01*
X16596Y346000D01*
X16670Y345972D01*
X16745Y345947D01*
X16821Y345927D01*
X16898Y345909D01*
X16976Y345896D01*
X17055Y345887D01*
X17134Y345881D01*
X17213Y345879D01*
X18850Y345879D01*
D11*
X148280Y374586D02*
X148280Y383174D01*
X173680Y383174D02*
X173680Y374586D01*
X163664Y385968D02*
X158296Y385968D01*
D13*
X176982Y368720D03*
D10*
X180783Y371569D02*
X188149Y369113D01*
X188149Y374024D02*
X180783Y371569D01*
X180783Y377133D02*
X188149Y377133D01*
X188149Y379179D01*
X188147Y379268D01*
X188141Y379357D01*
X188131Y379446D01*
X188118Y379534D01*
X188101Y379622D01*
X188079Y379709D01*
X188054Y379794D01*
X188026Y379879D01*
X187993Y379962D01*
X187957Y380044D01*
X187918Y380124D01*
X187875Y380202D01*
X187829Y380278D01*
X187779Y380353D01*
X187726Y380425D01*
X187670Y380494D01*
X187611Y380561D01*
X187550Y380626D01*
X187485Y380687D01*
X187418Y380746D01*
X187349Y380802D01*
X187277Y380855D01*
X187202Y380905D01*
X187126Y380951D01*
X187048Y380994D01*
X186968Y381033D01*
X186886Y381069D01*
X186803Y381102D01*
X186718Y381130D01*
X186633Y381155D01*
X186546Y381177D01*
X186458Y381194D01*
X186370Y381207D01*
X186281Y381217D01*
X186192Y381223D01*
X186103Y381225D01*
X186014Y381223D01*
X185925Y381217D01*
X185836Y381207D01*
X185748Y381194D01*
X185660Y381177D01*
X185573Y381155D01*
X185488Y381130D01*
X185403Y381102D01*
X185320Y381069D01*
X185238Y381033D01*
X185158Y380994D01*
X185080Y380951D01*
X185004Y380905D01*
X184929Y380855D01*
X184857Y380802D01*
X184788Y380746D01*
X184721Y380687D01*
X184656Y380626D01*
X184595Y380561D01*
X184536Y380494D01*
X184480Y380425D01*
X184427Y380353D01*
X184377Y380278D01*
X184331Y380202D01*
X184288Y380124D01*
X184249Y380044D01*
X184213Y379962D01*
X184180Y379879D01*
X184152Y379794D01*
X184127Y379709D01*
X184105Y379622D01*
X184088Y379534D01*
X184075Y379446D01*
X184065Y379357D01*
X184059Y379268D01*
X184057Y379179D01*
X184057Y377133D01*
X184057Y379588D02*
X180783Y381225D01*
X186308Y388490D02*
X186393Y388488D01*
X186478Y388482D01*
X186562Y388472D01*
X186646Y388459D01*
X186730Y388441D01*
X186812Y388420D01*
X186893Y388395D01*
X186973Y388366D01*
X187052Y388333D01*
X187129Y388297D01*
X187204Y388257D01*
X187278Y388214D01*
X187349Y388168D01*
X187418Y388118D01*
X187485Y388065D01*
X187549Y388009D01*
X187610Y387950D01*
X187669Y387889D01*
X187725Y387825D01*
X187778Y387758D01*
X187828Y387689D01*
X187874Y387618D01*
X187917Y387544D01*
X187957Y387469D01*
X187993Y387392D01*
X188026Y387313D01*
X188055Y387233D01*
X188080Y387152D01*
X188101Y387070D01*
X188119Y386986D01*
X188132Y386902D01*
X188142Y386818D01*
X188148Y386733D01*
X188150Y386648D01*
X188149Y386648D02*
X188147Y386552D01*
X188141Y386456D01*
X188131Y386361D01*
X188118Y386266D01*
X188100Y386171D01*
X188079Y386078D01*
X188054Y385985D01*
X188025Y385894D01*
X187993Y385803D01*
X187957Y385714D01*
X187917Y385627D01*
X187874Y385541D01*
X187828Y385457D01*
X187778Y385375D01*
X187724Y385295D01*
X187668Y385218D01*
X187608Y385143D01*
X187546Y385070D01*
X187480Y385000D01*
X187412Y384932D01*
X187341Y384867D01*
X187268Y384806D01*
X187192Y384747D01*
X187113Y384691D01*
X187033Y384639D01*
X186950Y384590D01*
X186866Y384544D01*
X186780Y384502D01*
X186692Y384464D01*
X186603Y384429D01*
X186512Y384397D01*
X184876Y387875D02*
X184935Y387935D01*
X184997Y387992D01*
X185061Y388047D01*
X185128Y388098D01*
X185197Y388147D01*
X185267Y388193D01*
X185340Y388236D01*
X185414Y388276D01*
X185490Y388312D01*
X185568Y388345D01*
X185647Y388375D01*
X185727Y388402D01*
X185808Y388425D01*
X185890Y388444D01*
X185972Y388460D01*
X186056Y388473D01*
X186140Y388482D01*
X186224Y388487D01*
X186308Y388489D01*
X184875Y387875D02*
X180783Y384397D01*
X180783Y388489D01*
X192435Y144631D02*
X194072Y144631D01*
X194150Y144633D01*
X194228Y144638D01*
X194305Y144648D01*
X194382Y144661D01*
X194458Y144677D01*
X194533Y144697D01*
X194607Y144721D01*
X194680Y144748D01*
X194752Y144779D01*
X194822Y144813D01*
X194891Y144850D01*
X194957Y144891D01*
X195022Y144935D01*
X195084Y144981D01*
X195144Y145031D01*
X195202Y145083D01*
X195257Y145138D01*
X195309Y145196D01*
X195359Y145256D01*
X195405Y145318D01*
X195449Y145383D01*
X195490Y145450D01*
X195527Y145518D01*
X195561Y145588D01*
X195592Y145660D01*
X195619Y145733D01*
X195643Y145807D01*
X195663Y145882D01*
X195679Y145958D01*
X195692Y146035D01*
X195702Y146112D01*
X195707Y146190D01*
X195709Y146268D01*
X195709Y150360D01*
X195707Y150438D01*
X195702Y150516D01*
X195692Y150593D01*
X195679Y150670D01*
X195663Y150746D01*
X195643Y150821D01*
X195619Y150895D01*
X195592Y150968D01*
X195561Y151040D01*
X195527Y151110D01*
X195490Y151179D01*
X195449Y151245D01*
X195405Y151310D01*
X195359Y151372D01*
X195309Y151432D01*
X195257Y151490D01*
X195202Y151545D01*
X195144Y151597D01*
X195084Y151647D01*
X195022Y151693D01*
X194957Y151737D01*
X194891Y151778D01*
X194822Y151815D01*
X194752Y151849D01*
X194680Y151880D01*
X194607Y151907D01*
X194533Y151931D01*
X194458Y151951D01*
X194382Y151967D01*
X194305Y151980D01*
X194228Y151990D01*
X194150Y151995D01*
X194072Y151997D01*
X192435Y151997D01*
X189590Y150360D02*
X187544Y151997D01*
X187544Y144631D01*
X189590Y144631D02*
X185498Y144631D01*
X182275Y148723D02*
X179819Y148723D01*
X179739Y148721D01*
X179659Y148715D01*
X179579Y148705D01*
X179500Y148692D01*
X179421Y148674D01*
X179344Y148653D01*
X179268Y148627D01*
X179193Y148598D01*
X179119Y148566D01*
X179047Y148530D01*
X178977Y148490D01*
X178910Y148447D01*
X178844Y148401D01*
X178781Y148351D01*
X178720Y148299D01*
X178661Y148244D01*
X178606Y148185D01*
X178554Y148125D01*
X178504Y148061D01*
X178458Y147995D01*
X178415Y147928D01*
X178375Y147858D01*
X178339Y147786D01*
X178307Y147712D01*
X178278Y147638D01*
X178252Y147561D01*
X178231Y147484D01*
X178213Y147405D01*
X178200Y147326D01*
X178190Y147246D01*
X178184Y147166D01*
X178182Y147086D01*
X178183Y147086D02*
X178183Y146677D01*
X178185Y146588D01*
X178191Y146499D01*
X178201Y146410D01*
X178214Y146322D01*
X178231Y146234D01*
X178253Y146147D01*
X178278Y146062D01*
X178306Y145977D01*
X178339Y145894D01*
X178375Y145812D01*
X178414Y145732D01*
X178457Y145654D01*
X178503Y145578D01*
X178553Y145503D01*
X178606Y145431D01*
X178662Y145362D01*
X178721Y145295D01*
X178782Y145230D01*
X178847Y145169D01*
X178914Y145110D01*
X178983Y145054D01*
X179055Y145001D01*
X179130Y144951D01*
X179206Y144905D01*
X179284Y144862D01*
X179364Y144823D01*
X179446Y144787D01*
X179529Y144754D01*
X179614Y144726D01*
X179699Y144701D01*
X179786Y144679D01*
X179874Y144662D01*
X179962Y144649D01*
X180051Y144639D01*
X180140Y144633D01*
X180229Y144631D01*
X180318Y144633D01*
X180407Y144639D01*
X180496Y144649D01*
X180584Y144662D01*
X180672Y144679D01*
X180759Y144701D01*
X180844Y144726D01*
X180929Y144754D01*
X181012Y144787D01*
X181094Y144823D01*
X181174Y144862D01*
X181252Y144905D01*
X181328Y144951D01*
X181403Y145001D01*
X181475Y145054D01*
X181544Y145110D01*
X181611Y145169D01*
X181676Y145230D01*
X181737Y145295D01*
X181796Y145362D01*
X181852Y145431D01*
X181905Y145503D01*
X181955Y145578D01*
X182001Y145654D01*
X182044Y145732D01*
X182083Y145812D01*
X182119Y145894D01*
X182152Y145977D01*
X182180Y146062D01*
X182205Y146147D01*
X182227Y146234D01*
X182244Y146322D01*
X182257Y146410D01*
X182267Y146499D01*
X182273Y146588D01*
X182275Y146677D01*
X182275Y148723D01*
X182273Y148835D01*
X182267Y148946D01*
X182258Y149058D01*
X182245Y149169D01*
X182227Y149279D01*
X182207Y149389D01*
X182182Y149498D01*
X182154Y149606D01*
X182122Y149713D01*
X182086Y149819D01*
X182047Y149924D01*
X182004Y150027D01*
X181958Y150129D01*
X181908Y150229D01*
X181855Y150328D01*
X181798Y150424D01*
X181739Y150519D01*
X181676Y150611D01*
X181610Y150701D01*
X181541Y150789D01*
X181469Y150875D01*
X181394Y150958D01*
X181316Y151038D01*
X181236Y151116D01*
X181153Y151191D01*
X181067Y151263D01*
X180979Y151332D01*
X180889Y151398D01*
X180797Y151461D01*
X180702Y151520D01*
X180606Y151577D01*
X180507Y151630D01*
X180407Y151680D01*
X180305Y151726D01*
X180202Y151769D01*
X180097Y151808D01*
X179991Y151844D01*
X179884Y151876D01*
X179776Y151904D01*
X179667Y151929D01*
X179557Y151949D01*
X179447Y151967D01*
X179336Y151980D01*
X179224Y151989D01*
X179113Y151995D01*
X179001Y151997D01*
X60371Y124003D02*
X58734Y124003D01*
X60371Y124003D02*
X60449Y124005D01*
X60527Y124010D01*
X60604Y124020D01*
X60681Y124033D01*
X60757Y124049D01*
X60832Y124069D01*
X60906Y124093D01*
X60979Y124120D01*
X61051Y124151D01*
X61121Y124185D01*
X61190Y124222D01*
X61256Y124263D01*
X61321Y124307D01*
X61383Y124353D01*
X61443Y124403D01*
X61501Y124455D01*
X61556Y124510D01*
X61608Y124568D01*
X61658Y124628D01*
X61704Y124690D01*
X61748Y124755D01*
X61789Y124822D01*
X61826Y124890D01*
X61860Y124960D01*
X61891Y125032D01*
X61918Y125105D01*
X61942Y125179D01*
X61962Y125254D01*
X61978Y125330D01*
X61991Y125407D01*
X62001Y125484D01*
X62006Y125562D01*
X62008Y125640D01*
X62008Y129732D01*
X62006Y129810D01*
X62001Y129888D01*
X61991Y129965D01*
X61978Y130042D01*
X61962Y130118D01*
X61942Y130193D01*
X61918Y130267D01*
X61891Y130340D01*
X61860Y130412D01*
X61826Y130482D01*
X61789Y130551D01*
X61748Y130617D01*
X61704Y130682D01*
X61658Y130744D01*
X61608Y130804D01*
X61556Y130862D01*
X61501Y130917D01*
X61443Y130969D01*
X61383Y131019D01*
X61321Y131065D01*
X61256Y131109D01*
X61190Y131150D01*
X61121Y131187D01*
X61051Y131221D01*
X60979Y131252D01*
X60906Y131279D01*
X60832Y131303D01*
X60757Y131323D01*
X60681Y131339D01*
X60604Y131352D01*
X60527Y131362D01*
X60449Y131367D01*
X60371Y131369D01*
X58734Y131369D01*
X55888Y129732D02*
X53842Y131369D01*
X53842Y124003D01*
X55888Y124003D02*
X51796Y124003D01*
X48573Y124003D02*
X46118Y124003D01*
X46038Y124005D01*
X45958Y124011D01*
X45878Y124021D01*
X45799Y124034D01*
X45720Y124052D01*
X45643Y124073D01*
X45567Y124099D01*
X45492Y124128D01*
X45418Y124160D01*
X45346Y124196D01*
X45276Y124236D01*
X45209Y124279D01*
X45143Y124325D01*
X45080Y124375D01*
X45019Y124427D01*
X44960Y124482D01*
X44905Y124541D01*
X44853Y124601D01*
X44803Y124665D01*
X44757Y124730D01*
X44714Y124798D01*
X44674Y124868D01*
X44638Y124940D01*
X44606Y125014D01*
X44577Y125088D01*
X44552Y125165D01*
X44530Y125242D01*
X44512Y125321D01*
X44499Y125400D01*
X44489Y125479D01*
X44483Y125560D01*
X44481Y125640D01*
X44481Y126458D01*
X44483Y126536D01*
X44488Y126614D01*
X44498Y126691D01*
X44511Y126768D01*
X44527Y126844D01*
X44547Y126919D01*
X44571Y126993D01*
X44598Y127066D01*
X44629Y127138D01*
X44663Y127208D01*
X44700Y127277D01*
X44741Y127343D01*
X44785Y127408D01*
X44831Y127470D01*
X44881Y127530D01*
X44933Y127588D01*
X44988Y127643D01*
X45046Y127695D01*
X45106Y127745D01*
X45168Y127791D01*
X45233Y127835D01*
X45300Y127876D01*
X45368Y127913D01*
X45438Y127947D01*
X45510Y127978D01*
X45583Y128005D01*
X45657Y128029D01*
X45732Y128049D01*
X45808Y128065D01*
X45885Y128078D01*
X45962Y128088D01*
X46040Y128093D01*
X46118Y128095D01*
X48573Y128095D01*
X48573Y131369D01*
X44481Y131369D01*
X10183Y280799D02*
X10183Y282436D01*
X10183Y280799D02*
X10185Y280721D01*
X10190Y280643D01*
X10200Y280566D01*
X10213Y280489D01*
X10229Y280413D01*
X10249Y280338D01*
X10273Y280264D01*
X10300Y280191D01*
X10331Y280119D01*
X10365Y280049D01*
X10402Y279981D01*
X10443Y279914D01*
X10487Y279849D01*
X10533Y279787D01*
X10583Y279727D01*
X10635Y279669D01*
X10690Y279614D01*
X10748Y279562D01*
X10808Y279512D01*
X10870Y279466D01*
X10935Y279422D01*
X11001Y279381D01*
X11070Y279344D01*
X11140Y279310D01*
X11212Y279279D01*
X11285Y279252D01*
X11359Y279228D01*
X11434Y279208D01*
X11510Y279192D01*
X11587Y279179D01*
X11664Y279169D01*
X11742Y279164D01*
X11820Y279162D01*
X11820Y279163D02*
X15912Y279163D01*
X15912Y279162D02*
X15990Y279164D01*
X16068Y279169D01*
X16145Y279179D01*
X16222Y279192D01*
X16298Y279208D01*
X16373Y279228D01*
X16447Y279252D01*
X16520Y279279D01*
X16592Y279310D01*
X16662Y279344D01*
X16731Y279381D01*
X16797Y279422D01*
X16862Y279466D01*
X16924Y279512D01*
X16984Y279562D01*
X17042Y279614D01*
X17097Y279669D01*
X17149Y279727D01*
X17199Y279787D01*
X17245Y279849D01*
X17289Y279914D01*
X17330Y279981D01*
X17367Y280049D01*
X17401Y280119D01*
X17432Y280191D01*
X17459Y280264D01*
X17483Y280338D01*
X17503Y280413D01*
X17519Y280489D01*
X17532Y280566D01*
X17542Y280643D01*
X17547Y280721D01*
X17549Y280799D01*
X17549Y282436D01*
X15912Y285282D02*
X17549Y287328D01*
X10183Y287328D01*
X10183Y285282D02*
X10183Y289374D01*
X11820Y292597D02*
X17549Y294234D01*
X11820Y292597D02*
X11820Y296689D01*
X13457Y295461D02*
X10183Y295461D01*
X273969Y120903D02*
X275605Y120903D01*
X275683Y120905D01*
X275761Y120910D01*
X275838Y120920D01*
X275915Y120933D01*
X275991Y120949D01*
X276066Y120969D01*
X276140Y120993D01*
X276213Y121020D01*
X276285Y121051D01*
X276355Y121085D01*
X276424Y121122D01*
X276490Y121163D01*
X276555Y121207D01*
X276617Y121253D01*
X276677Y121303D01*
X276735Y121355D01*
X276790Y121410D01*
X276842Y121468D01*
X276892Y121528D01*
X276938Y121590D01*
X276982Y121655D01*
X277023Y121722D01*
X277060Y121790D01*
X277094Y121860D01*
X277125Y121932D01*
X277152Y122005D01*
X277176Y122079D01*
X277196Y122154D01*
X277212Y122230D01*
X277225Y122307D01*
X277235Y122384D01*
X277240Y122462D01*
X277242Y122540D01*
X277242Y126632D01*
X277240Y126710D01*
X277235Y126788D01*
X277225Y126865D01*
X277212Y126942D01*
X277196Y127018D01*
X277176Y127093D01*
X277152Y127167D01*
X277125Y127240D01*
X277094Y127312D01*
X277060Y127382D01*
X277023Y127451D01*
X276982Y127517D01*
X276938Y127582D01*
X276892Y127644D01*
X276842Y127704D01*
X276790Y127762D01*
X276735Y127817D01*
X276677Y127869D01*
X276617Y127919D01*
X276555Y127965D01*
X276490Y128009D01*
X276424Y128050D01*
X276355Y128087D01*
X276285Y128121D01*
X276213Y128152D01*
X276140Y128179D01*
X276066Y128203D01*
X275991Y128223D01*
X275915Y128239D01*
X275838Y128252D01*
X275761Y128262D01*
X275683Y128267D01*
X275605Y128269D01*
X273969Y128269D01*
X271123Y128269D02*
X271123Y127451D01*
X271123Y128269D02*
X267031Y128269D01*
X269077Y120903D01*
X291731Y282668D02*
X291731Y284305D01*
X291731Y282668D02*
X291733Y282590D01*
X291738Y282512D01*
X291748Y282435D01*
X291761Y282358D01*
X291777Y282282D01*
X291797Y282207D01*
X291821Y282133D01*
X291848Y282060D01*
X291879Y281988D01*
X291913Y281918D01*
X291950Y281850D01*
X291991Y281783D01*
X292035Y281718D01*
X292081Y281656D01*
X292131Y281596D01*
X292183Y281538D01*
X292238Y281483D01*
X292296Y281431D01*
X292356Y281381D01*
X292418Y281335D01*
X292483Y281291D01*
X292550Y281250D01*
X292618Y281213D01*
X292688Y281179D01*
X292760Y281148D01*
X292833Y281121D01*
X292907Y281097D01*
X292982Y281077D01*
X293058Y281061D01*
X293135Y281048D01*
X293212Y281038D01*
X293290Y281033D01*
X293368Y281031D01*
X297460Y281031D01*
X297538Y281033D01*
X297616Y281038D01*
X297693Y281048D01*
X297770Y281061D01*
X297846Y281077D01*
X297921Y281097D01*
X297995Y281121D01*
X298068Y281148D01*
X298140Y281179D01*
X298210Y281213D01*
X298279Y281250D01*
X298345Y281291D01*
X298410Y281335D01*
X298472Y281381D01*
X298532Y281431D01*
X298590Y281483D01*
X298645Y281538D01*
X298697Y281596D01*
X298747Y281656D01*
X298793Y281718D01*
X298837Y281783D01*
X298878Y281850D01*
X298915Y281918D01*
X298949Y281988D01*
X298980Y282060D01*
X299007Y282133D01*
X299031Y282207D01*
X299051Y282282D01*
X299067Y282358D01*
X299080Y282435D01*
X299090Y282512D01*
X299095Y282590D01*
X299097Y282668D01*
X299097Y284305D01*
X293777Y287150D02*
X293866Y287152D01*
X293955Y287158D01*
X294044Y287168D01*
X294132Y287181D01*
X294220Y287198D01*
X294307Y287220D01*
X294392Y287245D01*
X294477Y287273D01*
X294560Y287306D01*
X294642Y287342D01*
X294722Y287381D01*
X294800Y287424D01*
X294876Y287470D01*
X294951Y287520D01*
X295023Y287573D01*
X295092Y287629D01*
X295159Y287688D01*
X295224Y287749D01*
X295285Y287814D01*
X295344Y287881D01*
X295400Y287950D01*
X295453Y288022D01*
X295503Y288097D01*
X295549Y288173D01*
X295592Y288251D01*
X295631Y288331D01*
X295667Y288413D01*
X295700Y288496D01*
X295728Y288581D01*
X295753Y288666D01*
X295775Y288753D01*
X295792Y288841D01*
X295805Y288929D01*
X295815Y289018D01*
X295821Y289107D01*
X295823Y289196D01*
X295821Y289285D01*
X295815Y289374D01*
X295805Y289463D01*
X295792Y289551D01*
X295775Y289639D01*
X295753Y289726D01*
X295728Y289811D01*
X295700Y289896D01*
X295667Y289979D01*
X295631Y290061D01*
X295592Y290141D01*
X295549Y290219D01*
X295503Y290295D01*
X295453Y290370D01*
X295400Y290442D01*
X295344Y290511D01*
X295285Y290578D01*
X295224Y290643D01*
X295159Y290704D01*
X295092Y290763D01*
X295023Y290819D01*
X294951Y290872D01*
X294876Y290922D01*
X294800Y290968D01*
X294722Y291011D01*
X294642Y291050D01*
X294560Y291086D01*
X294477Y291119D01*
X294392Y291147D01*
X294307Y291172D01*
X294220Y291194D01*
X294132Y291211D01*
X294044Y291224D01*
X293955Y291234D01*
X293866Y291240D01*
X293777Y291242D01*
X293688Y291240D01*
X293599Y291234D01*
X293510Y291224D01*
X293422Y291211D01*
X293334Y291194D01*
X293247Y291172D01*
X293162Y291147D01*
X293077Y291119D01*
X292994Y291086D01*
X292912Y291050D01*
X292832Y291011D01*
X292754Y290968D01*
X292678Y290922D01*
X292603Y290872D01*
X292531Y290819D01*
X292462Y290763D01*
X292395Y290704D01*
X292330Y290643D01*
X292269Y290578D01*
X292210Y290511D01*
X292154Y290442D01*
X292101Y290370D01*
X292051Y290295D01*
X292005Y290219D01*
X291962Y290141D01*
X291923Y290061D01*
X291887Y289979D01*
X291854Y289896D01*
X291826Y289811D01*
X291801Y289726D01*
X291779Y289639D01*
X291762Y289551D01*
X291749Y289463D01*
X291739Y289374D01*
X291733Y289285D01*
X291731Y289196D01*
X291733Y289107D01*
X291739Y289018D01*
X291749Y288929D01*
X291762Y288841D01*
X291779Y288753D01*
X291801Y288666D01*
X291826Y288581D01*
X291854Y288496D01*
X291887Y288413D01*
X291923Y288331D01*
X291962Y288251D01*
X292005Y288173D01*
X292051Y288097D01*
X292101Y288022D01*
X292154Y287950D01*
X292210Y287881D01*
X292269Y287814D01*
X292330Y287749D01*
X292395Y287688D01*
X292462Y287629D01*
X292531Y287573D01*
X292603Y287520D01*
X292678Y287470D01*
X292754Y287424D01*
X292832Y287381D01*
X292912Y287342D01*
X292994Y287306D01*
X293077Y287273D01*
X293162Y287245D01*
X293247Y287220D01*
X293334Y287198D01*
X293422Y287181D01*
X293510Y287168D01*
X293599Y287158D01*
X293688Y287152D01*
X293777Y287150D01*
X297460Y287559D02*
X297539Y287561D01*
X297618Y287567D01*
X297697Y287576D01*
X297775Y287589D01*
X297852Y287607D01*
X297928Y287627D01*
X298003Y287652D01*
X298077Y287680D01*
X298150Y287711D01*
X298221Y287747D01*
X298290Y287785D01*
X298357Y287827D01*
X298422Y287872D01*
X298485Y287920D01*
X298546Y287971D01*
X298603Y288025D01*
X298659Y288081D01*
X298711Y288140D01*
X298761Y288202D01*
X298807Y288266D01*
X298851Y288332D01*
X298891Y288400D01*
X298927Y288470D01*
X298961Y288542D01*
X298991Y288616D01*
X299017Y288690D01*
X299040Y288766D01*
X299058Y288843D01*
X299074Y288920D01*
X299085Y288999D01*
X299093Y289077D01*
X299097Y289156D01*
X299097Y289236D01*
X299093Y289315D01*
X299085Y289393D01*
X299074Y289472D01*
X299058Y289549D01*
X299040Y289626D01*
X299017Y289702D01*
X298991Y289776D01*
X298961Y289850D01*
X298927Y289922D01*
X298891Y289992D01*
X298851Y290060D01*
X298807Y290126D01*
X298761Y290190D01*
X298711Y290252D01*
X298659Y290311D01*
X298603Y290367D01*
X298546Y290421D01*
X298485Y290472D01*
X298422Y290520D01*
X298357Y290565D01*
X298290Y290607D01*
X298221Y290645D01*
X298150Y290681D01*
X298077Y290712D01*
X298003Y290740D01*
X297928Y290765D01*
X297852Y290785D01*
X297775Y290803D01*
X297697Y290816D01*
X297618Y290825D01*
X297539Y290831D01*
X297460Y290833D01*
X297381Y290831D01*
X297302Y290825D01*
X297223Y290816D01*
X297145Y290803D01*
X297068Y290785D01*
X296992Y290765D01*
X296917Y290740D01*
X296843Y290712D01*
X296770Y290681D01*
X296699Y290645D01*
X296630Y290607D01*
X296563Y290565D01*
X296498Y290520D01*
X296435Y290472D01*
X296374Y290421D01*
X296317Y290367D01*
X296261Y290311D01*
X296209Y290252D01*
X296159Y290190D01*
X296113Y290126D01*
X296069Y290060D01*
X296029Y289992D01*
X295993Y289922D01*
X295959Y289850D01*
X295929Y289776D01*
X295903Y289702D01*
X295880Y289626D01*
X295862Y289549D01*
X295846Y289472D01*
X295835Y289393D01*
X295827Y289315D01*
X295823Y289236D01*
X295823Y289156D01*
X295827Y289077D01*
X295835Y288999D01*
X295846Y288920D01*
X295862Y288843D01*
X295880Y288766D01*
X295903Y288690D01*
X295929Y288616D01*
X295959Y288542D01*
X295993Y288470D01*
X296029Y288400D01*
X296069Y288332D01*
X296113Y288266D01*
X296159Y288202D01*
X296209Y288140D01*
X296261Y288081D01*
X296317Y288025D01*
X296374Y287971D01*
X296435Y287920D01*
X296498Y287872D01*
X296563Y287827D01*
X296630Y287785D01*
X296699Y287747D01*
X296770Y287711D01*
X296843Y287680D01*
X296917Y287652D01*
X296992Y287627D01*
X297068Y287607D01*
X297145Y287589D01*
X297223Y287576D01*
X297302Y287567D01*
X297381Y287561D01*
X297460Y287559D01*
X275605Y409903D02*
X273969Y409903D01*
X275605Y409903D02*
X275683Y409905D01*
X275761Y409910D01*
X275838Y409920D01*
X275915Y409933D01*
X275991Y409949D01*
X276066Y409969D01*
X276140Y409993D01*
X276213Y410020D01*
X276285Y410051D01*
X276355Y410085D01*
X276424Y410122D01*
X276490Y410163D01*
X276555Y410207D01*
X276617Y410253D01*
X276677Y410303D01*
X276735Y410355D01*
X276790Y410410D01*
X276842Y410468D01*
X276892Y410528D01*
X276938Y410590D01*
X276982Y410655D01*
X277023Y410722D01*
X277060Y410790D01*
X277094Y410860D01*
X277125Y410932D01*
X277152Y411005D01*
X277176Y411079D01*
X277196Y411154D01*
X277212Y411230D01*
X277225Y411307D01*
X277235Y411384D01*
X277240Y411462D01*
X277242Y411540D01*
X277242Y415632D01*
X277240Y415710D01*
X277235Y415788D01*
X277225Y415865D01*
X277212Y415942D01*
X277196Y416018D01*
X277176Y416093D01*
X277152Y416167D01*
X277125Y416240D01*
X277094Y416312D01*
X277060Y416382D01*
X277023Y416451D01*
X276982Y416517D01*
X276938Y416582D01*
X276892Y416644D01*
X276842Y416704D01*
X276790Y416762D01*
X276735Y416817D01*
X276677Y416869D01*
X276617Y416919D01*
X276555Y416965D01*
X276490Y417009D01*
X276424Y417050D01*
X276355Y417087D01*
X276285Y417121D01*
X276213Y417152D01*
X276140Y417179D01*
X276066Y417203D01*
X275991Y417223D01*
X275915Y417239D01*
X275838Y417252D01*
X275761Y417262D01*
X275683Y417267D01*
X275605Y417269D01*
X273969Y417269D01*
X269486Y413177D02*
X267031Y413177D01*
X269486Y413177D02*
X269564Y413179D01*
X269642Y413184D01*
X269719Y413194D01*
X269796Y413207D01*
X269872Y413223D01*
X269947Y413243D01*
X270021Y413267D01*
X270094Y413294D01*
X270166Y413325D01*
X270236Y413359D01*
X270305Y413396D01*
X270371Y413437D01*
X270436Y413481D01*
X270498Y413527D01*
X270558Y413577D01*
X270616Y413629D01*
X270671Y413684D01*
X270723Y413742D01*
X270773Y413802D01*
X270819Y413864D01*
X270863Y413929D01*
X270904Y413996D01*
X270941Y414064D01*
X270975Y414134D01*
X271006Y414206D01*
X271033Y414279D01*
X271057Y414353D01*
X271077Y414428D01*
X271093Y414504D01*
X271106Y414581D01*
X271116Y414658D01*
X271121Y414736D01*
X271123Y414814D01*
X271123Y415223D01*
X271121Y415312D01*
X271115Y415401D01*
X271105Y415490D01*
X271092Y415578D01*
X271075Y415666D01*
X271053Y415753D01*
X271028Y415838D01*
X271000Y415923D01*
X270967Y416006D01*
X270931Y416088D01*
X270892Y416168D01*
X270849Y416246D01*
X270803Y416322D01*
X270753Y416397D01*
X270700Y416469D01*
X270644Y416538D01*
X270585Y416605D01*
X270524Y416670D01*
X270459Y416731D01*
X270392Y416790D01*
X270323Y416846D01*
X270251Y416899D01*
X270176Y416949D01*
X270100Y416995D01*
X270022Y417038D01*
X269942Y417077D01*
X269860Y417113D01*
X269777Y417146D01*
X269692Y417174D01*
X269607Y417199D01*
X269520Y417221D01*
X269432Y417238D01*
X269344Y417251D01*
X269255Y417261D01*
X269166Y417267D01*
X269077Y417269D01*
X268988Y417267D01*
X268899Y417261D01*
X268810Y417251D01*
X268722Y417238D01*
X268634Y417221D01*
X268547Y417199D01*
X268462Y417174D01*
X268377Y417146D01*
X268294Y417113D01*
X268212Y417077D01*
X268132Y417038D01*
X268054Y416995D01*
X267978Y416949D01*
X267903Y416899D01*
X267831Y416846D01*
X267762Y416790D01*
X267695Y416731D01*
X267630Y416670D01*
X267569Y416605D01*
X267510Y416538D01*
X267454Y416469D01*
X267401Y416397D01*
X267351Y416322D01*
X267305Y416246D01*
X267262Y416168D01*
X267223Y416088D01*
X267187Y416006D01*
X267154Y415923D01*
X267126Y415838D01*
X267101Y415753D01*
X267079Y415666D01*
X267062Y415578D01*
X267049Y415490D01*
X267039Y415401D01*
X267033Y415312D01*
X267031Y415223D01*
X267031Y413177D01*
X267033Y413065D01*
X267039Y412954D01*
X267048Y412842D01*
X267061Y412731D01*
X267079Y412621D01*
X267099Y412511D01*
X267124Y412402D01*
X267152Y412294D01*
X267184Y412187D01*
X267220Y412081D01*
X267259Y411976D01*
X267302Y411873D01*
X267348Y411771D01*
X267398Y411671D01*
X267451Y411572D01*
X267508Y411476D01*
X267567Y411381D01*
X267630Y411289D01*
X267696Y411199D01*
X267765Y411111D01*
X267837Y411025D01*
X267912Y410942D01*
X267990Y410862D01*
X268070Y410784D01*
X268153Y410709D01*
X268239Y410637D01*
X268327Y410568D01*
X268417Y410502D01*
X268509Y410439D01*
X268604Y410380D01*
X268700Y410323D01*
X268799Y410270D01*
X268899Y410220D01*
X269001Y410174D01*
X269104Y410131D01*
X269209Y410092D01*
X269315Y410056D01*
X269422Y410024D01*
X269530Y409996D01*
X269639Y409971D01*
X269749Y409951D01*
X269859Y409933D01*
X269970Y409920D01*
X270082Y409911D01*
X270193Y409905D01*
X270305Y409903D01*
X221921Y784753D02*
X220284Y784753D01*
X221921Y784753D02*
X221999Y784755D01*
X222077Y784760D01*
X222154Y784770D01*
X222231Y784783D01*
X222307Y784799D01*
X222382Y784819D01*
X222456Y784843D01*
X222529Y784870D01*
X222601Y784901D01*
X222671Y784935D01*
X222740Y784972D01*
X222806Y785013D01*
X222871Y785057D01*
X222933Y785103D01*
X222993Y785153D01*
X223051Y785205D01*
X223106Y785260D01*
X223158Y785318D01*
X223208Y785378D01*
X223254Y785440D01*
X223298Y785505D01*
X223339Y785572D01*
X223376Y785640D01*
X223410Y785710D01*
X223441Y785782D01*
X223468Y785855D01*
X223492Y785929D01*
X223512Y786004D01*
X223528Y786080D01*
X223541Y786157D01*
X223551Y786234D01*
X223556Y786312D01*
X223558Y786390D01*
X223558Y790482D01*
X223556Y790560D01*
X223551Y790638D01*
X223541Y790715D01*
X223528Y790792D01*
X223512Y790868D01*
X223492Y790943D01*
X223468Y791017D01*
X223441Y791090D01*
X223410Y791162D01*
X223376Y791232D01*
X223339Y791301D01*
X223298Y791367D01*
X223254Y791432D01*
X223208Y791494D01*
X223158Y791554D01*
X223106Y791612D01*
X223051Y791667D01*
X222993Y791719D01*
X222933Y791769D01*
X222871Y791815D01*
X222806Y791859D01*
X222740Y791900D01*
X222671Y791937D01*
X222601Y791971D01*
X222529Y792002D01*
X222456Y792029D01*
X222382Y792053D01*
X222307Y792073D01*
X222231Y792089D01*
X222154Y792102D01*
X222077Y792112D01*
X221999Y792117D01*
X221921Y792119D01*
X220284Y792119D01*
X217438Y790482D02*
X215392Y792119D01*
X215392Y784753D01*
X217438Y784753D02*
X213346Y784753D01*
X210123Y788436D02*
X210121Y788589D01*
X210115Y788742D01*
X210106Y788894D01*
X210092Y789047D01*
X210075Y789199D01*
X210054Y789350D01*
X210029Y789501D01*
X210000Y789651D01*
X209968Y789801D01*
X209931Y789949D01*
X209891Y790097D01*
X209848Y790244D01*
X209800Y790389D01*
X209749Y790533D01*
X209695Y790676D01*
X209636Y790818D01*
X209575Y790957D01*
X209509Y791096D01*
X209483Y791166D01*
X209453Y791235D01*
X209421Y791303D01*
X209384Y791369D01*
X209345Y791433D01*
X209302Y791495D01*
X209257Y791554D01*
X209208Y791612D01*
X209157Y791666D01*
X209103Y791719D01*
X209046Y791768D01*
X208987Y791815D01*
X208926Y791858D01*
X208863Y791899D01*
X208798Y791936D01*
X208731Y791971D01*
X208662Y792001D01*
X208592Y792029D01*
X208521Y792052D01*
X208449Y792073D01*
X208376Y792089D01*
X208302Y792102D01*
X208227Y792112D01*
X208152Y792117D01*
X208077Y792119D01*
X208002Y792117D01*
X207927Y792112D01*
X207852Y792102D01*
X207778Y792089D01*
X207705Y792073D01*
X207633Y792052D01*
X207562Y792029D01*
X207492Y792001D01*
X207423Y791971D01*
X207356Y791936D01*
X207291Y791899D01*
X207228Y791858D01*
X207167Y791815D01*
X207108Y791768D01*
X207051Y791719D01*
X206997Y791666D01*
X206946Y791612D01*
X206898Y791554D01*
X206852Y791495D01*
X206809Y791433D01*
X206770Y791369D01*
X206734Y791303D01*
X206701Y791236D01*
X206671Y791166D01*
X206645Y791096D01*
X206580Y790958D01*
X206518Y790818D01*
X206460Y790676D01*
X206405Y790533D01*
X206354Y790389D01*
X206306Y790244D01*
X206263Y790097D01*
X206223Y789950D01*
X206186Y789801D01*
X206154Y789651D01*
X206125Y789501D01*
X206100Y789350D01*
X206079Y789199D01*
X206062Y789047D01*
X206048Y788894D01*
X206039Y788742D01*
X206033Y788589D01*
X206031Y788436D01*
X210124Y788436D02*
X210122Y788283D01*
X210116Y788130D01*
X210107Y787977D01*
X210093Y787825D01*
X210076Y787673D01*
X210055Y787522D01*
X210030Y787371D01*
X210001Y787220D01*
X209969Y787071D01*
X209932Y786922D01*
X209892Y786775D01*
X209849Y786628D01*
X209801Y786483D01*
X209750Y786338D01*
X209695Y786196D01*
X209637Y786054D01*
X209575Y785914D01*
X209510Y785776D01*
X209509Y785776D02*
X209483Y785706D01*
X209453Y785636D01*
X209421Y785569D01*
X209384Y785503D01*
X209345Y785439D01*
X209302Y785377D01*
X209256Y785318D01*
X209208Y785260D01*
X209157Y785206D01*
X209103Y785153D01*
X209046Y785104D01*
X208987Y785057D01*
X208926Y785014D01*
X208863Y784973D01*
X208798Y784936D01*
X208731Y784901D01*
X208662Y784871D01*
X208592Y784843D01*
X208521Y784820D01*
X208449Y784799D01*
X208376Y784783D01*
X208302Y784770D01*
X208227Y784760D01*
X208152Y784755D01*
X208077Y784753D01*
X206645Y785776D02*
X206580Y785914D01*
X206518Y786054D01*
X206460Y786196D01*
X206405Y786339D01*
X206354Y786483D01*
X206306Y786628D01*
X206263Y786775D01*
X206223Y786923D01*
X206186Y787071D01*
X206154Y787221D01*
X206125Y787371D01*
X206100Y787522D01*
X206079Y787673D01*
X206062Y787825D01*
X206048Y787978D01*
X206039Y788130D01*
X206033Y788283D01*
X206031Y788436D01*
X206645Y785776D02*
X206671Y785705D01*
X206701Y785636D01*
X206734Y785569D01*
X206770Y785503D01*
X206809Y785439D01*
X206852Y785377D01*
X206898Y785318D01*
X206946Y785260D01*
X206997Y785206D01*
X207051Y785153D01*
X207108Y785104D01*
X207167Y785057D01*
X207228Y785014D01*
X207291Y784973D01*
X207356Y784936D01*
X207423Y784901D01*
X207492Y784871D01*
X207562Y784843D01*
X207633Y784820D01*
X207705Y784799D01*
X207778Y784783D01*
X207852Y784770D01*
X207927Y784760D01*
X208002Y784755D01*
X208077Y784753D01*
X209714Y786390D02*
X206440Y790482D01*
X276284Y700903D02*
X277921Y700903D01*
X277999Y700905D01*
X278077Y700910D01*
X278154Y700920D01*
X278231Y700933D01*
X278307Y700949D01*
X278382Y700969D01*
X278456Y700993D01*
X278529Y701020D01*
X278601Y701051D01*
X278671Y701085D01*
X278740Y701122D01*
X278806Y701163D01*
X278871Y701207D01*
X278933Y701253D01*
X278993Y701303D01*
X279051Y701355D01*
X279106Y701410D01*
X279158Y701468D01*
X279208Y701528D01*
X279254Y701590D01*
X279298Y701655D01*
X279339Y701722D01*
X279376Y701790D01*
X279410Y701860D01*
X279441Y701932D01*
X279468Y702005D01*
X279492Y702079D01*
X279512Y702154D01*
X279528Y702230D01*
X279541Y702307D01*
X279551Y702384D01*
X279556Y702462D01*
X279558Y702540D01*
X279558Y706632D01*
X279556Y706710D01*
X279551Y706788D01*
X279541Y706865D01*
X279528Y706942D01*
X279512Y707018D01*
X279492Y707093D01*
X279468Y707167D01*
X279441Y707240D01*
X279410Y707312D01*
X279376Y707382D01*
X279339Y707451D01*
X279298Y707517D01*
X279254Y707582D01*
X279208Y707644D01*
X279158Y707704D01*
X279106Y707762D01*
X279051Y707817D01*
X278993Y707869D01*
X278933Y707919D01*
X278871Y707965D01*
X278806Y708009D01*
X278740Y708050D01*
X278671Y708087D01*
X278601Y708121D01*
X278529Y708152D01*
X278456Y708179D01*
X278382Y708203D01*
X278307Y708223D01*
X278231Y708239D01*
X278154Y708252D01*
X278077Y708262D01*
X277999Y708267D01*
X277921Y708269D01*
X276284Y708269D01*
X273438Y706632D02*
X271392Y708269D01*
X271392Y700903D01*
X273438Y700903D02*
X269346Y700903D01*
X266123Y706632D02*
X264077Y708269D01*
X264077Y700903D01*
X266123Y700903D02*
X262031Y700903D01*
X275284Y555903D02*
X276921Y555903D01*
X276999Y555905D01*
X277077Y555910D01*
X277154Y555920D01*
X277231Y555933D01*
X277307Y555949D01*
X277382Y555969D01*
X277456Y555993D01*
X277529Y556020D01*
X277601Y556051D01*
X277671Y556085D01*
X277740Y556122D01*
X277806Y556163D01*
X277871Y556207D01*
X277933Y556253D01*
X277993Y556303D01*
X278051Y556355D01*
X278106Y556410D01*
X278158Y556468D01*
X278208Y556528D01*
X278254Y556590D01*
X278298Y556655D01*
X278339Y556722D01*
X278376Y556790D01*
X278410Y556860D01*
X278441Y556932D01*
X278468Y557005D01*
X278492Y557079D01*
X278512Y557154D01*
X278528Y557230D01*
X278541Y557307D01*
X278551Y557384D01*
X278556Y557462D01*
X278558Y557540D01*
X278558Y561632D01*
X278556Y561710D01*
X278551Y561788D01*
X278541Y561865D01*
X278528Y561942D01*
X278512Y562018D01*
X278492Y562093D01*
X278468Y562167D01*
X278441Y562240D01*
X278410Y562312D01*
X278376Y562382D01*
X278339Y562451D01*
X278298Y562517D01*
X278254Y562582D01*
X278208Y562644D01*
X278158Y562704D01*
X278106Y562762D01*
X278051Y562817D01*
X277993Y562869D01*
X277933Y562919D01*
X277871Y562965D01*
X277806Y563009D01*
X277740Y563050D01*
X277671Y563087D01*
X277601Y563121D01*
X277529Y563152D01*
X277456Y563179D01*
X277382Y563203D01*
X277307Y563223D01*
X277231Y563239D01*
X277154Y563252D01*
X277077Y563262D01*
X276999Y563267D01*
X276921Y563269D01*
X275284Y563269D01*
X272438Y561632D02*
X270392Y563269D01*
X270392Y555903D01*
X272438Y555903D02*
X268346Y555903D01*
X261031Y561428D02*
X261033Y561513D01*
X261039Y561598D01*
X261049Y561682D01*
X261062Y561766D01*
X261080Y561850D01*
X261101Y561932D01*
X261126Y562013D01*
X261155Y562093D01*
X261188Y562172D01*
X261224Y562249D01*
X261264Y562324D01*
X261307Y562398D01*
X261353Y562469D01*
X261403Y562538D01*
X261456Y562605D01*
X261512Y562669D01*
X261571Y562730D01*
X261632Y562789D01*
X261696Y562845D01*
X261763Y562898D01*
X261832Y562948D01*
X261903Y562994D01*
X261977Y563037D01*
X262052Y563077D01*
X262129Y563113D01*
X262208Y563146D01*
X262288Y563175D01*
X262369Y563200D01*
X262451Y563221D01*
X262535Y563239D01*
X262619Y563252D01*
X262703Y563262D01*
X262788Y563268D01*
X262873Y563270D01*
X262873Y563269D02*
X262969Y563267D01*
X263065Y563261D01*
X263160Y563251D01*
X263255Y563238D01*
X263350Y563220D01*
X263443Y563199D01*
X263536Y563174D01*
X263627Y563145D01*
X263718Y563113D01*
X263807Y563077D01*
X263894Y563037D01*
X263980Y562994D01*
X264064Y562948D01*
X264146Y562898D01*
X264226Y562844D01*
X264303Y562788D01*
X264378Y562728D01*
X264451Y562666D01*
X264521Y562600D01*
X264589Y562532D01*
X264654Y562461D01*
X264715Y562388D01*
X264774Y562312D01*
X264830Y562233D01*
X264882Y562153D01*
X264931Y562070D01*
X264977Y561986D01*
X265019Y561900D01*
X265057Y561812D01*
X265092Y561723D01*
X265124Y561632D01*
X261645Y559996D02*
X261585Y560055D01*
X261528Y560117D01*
X261473Y560181D01*
X261422Y560248D01*
X261373Y560317D01*
X261327Y560387D01*
X261284Y560460D01*
X261244Y560534D01*
X261208Y560610D01*
X261175Y560688D01*
X261145Y560767D01*
X261118Y560847D01*
X261095Y560928D01*
X261076Y561010D01*
X261060Y561092D01*
X261047Y561176D01*
X261038Y561260D01*
X261033Y561344D01*
X261031Y561428D01*
X261645Y559995D02*
X265123Y555903D01*
X261031Y555903D01*
D14*
X98500Y627000D02*
X98500Y643000D01*
X127500Y643000D02*
X127500Y627000D01*
X127500Y643000D02*
X118500Y643000D01*
X117500Y627000D02*
X108500Y627000D01*
X107500Y643000D02*
X98500Y643000D01*
D10*
X118569Y611573D02*
X118569Y608299D01*
X118569Y611573D02*
X118567Y611662D01*
X118561Y611751D01*
X118551Y611840D01*
X118538Y611928D01*
X118521Y612016D01*
X118499Y612103D01*
X118474Y612188D01*
X118446Y612273D01*
X118413Y612356D01*
X118377Y612438D01*
X118338Y612518D01*
X118295Y612596D01*
X118249Y612672D01*
X118199Y612747D01*
X118146Y612819D01*
X118090Y612888D01*
X118031Y612955D01*
X117970Y613020D01*
X117905Y613081D01*
X117838Y613140D01*
X117769Y613196D01*
X117697Y613249D01*
X117622Y613299D01*
X117546Y613345D01*
X117468Y613388D01*
X117388Y613427D01*
X117306Y613463D01*
X117223Y613496D01*
X117138Y613524D01*
X117053Y613549D01*
X116966Y613571D01*
X116878Y613588D01*
X116790Y613601D01*
X116701Y613611D01*
X116612Y613617D01*
X116523Y613619D01*
X116434Y613617D01*
X116345Y613611D01*
X116256Y613601D01*
X116168Y613588D01*
X116080Y613571D01*
X115993Y613549D01*
X115908Y613524D01*
X115823Y613496D01*
X115740Y613463D01*
X115658Y613427D01*
X115578Y613388D01*
X115500Y613345D01*
X115424Y613299D01*
X115349Y613249D01*
X115277Y613196D01*
X115208Y613140D01*
X115141Y613081D01*
X115076Y613020D01*
X115015Y612955D01*
X114956Y612888D01*
X114900Y612819D01*
X114847Y612747D01*
X114797Y612672D01*
X114751Y612596D01*
X114708Y612518D01*
X114669Y612438D01*
X114633Y612356D01*
X114600Y612273D01*
X114572Y612188D01*
X114547Y612103D01*
X114525Y612016D01*
X114508Y611928D01*
X114495Y611840D01*
X114485Y611751D01*
X114479Y611662D01*
X114477Y611573D01*
X114476Y611573D02*
X114476Y608299D01*
X114477Y608299D02*
X114479Y608210D01*
X114485Y608121D01*
X114495Y608032D01*
X114508Y607944D01*
X114525Y607856D01*
X114547Y607769D01*
X114572Y607684D01*
X114600Y607599D01*
X114633Y607516D01*
X114669Y607434D01*
X114708Y607354D01*
X114751Y607276D01*
X114797Y607200D01*
X114847Y607125D01*
X114900Y607053D01*
X114956Y606984D01*
X115015Y606917D01*
X115076Y606852D01*
X115141Y606791D01*
X115208Y606732D01*
X115277Y606676D01*
X115349Y606623D01*
X115424Y606573D01*
X115500Y606527D01*
X115578Y606484D01*
X115658Y606445D01*
X115740Y606409D01*
X115823Y606376D01*
X115908Y606348D01*
X115993Y606323D01*
X116080Y606301D01*
X116168Y606284D01*
X116256Y606271D01*
X116345Y606261D01*
X116434Y606255D01*
X116523Y606253D01*
X116612Y606255D01*
X116701Y606261D01*
X116790Y606271D01*
X116878Y606284D01*
X116966Y606301D01*
X117053Y606323D01*
X117138Y606348D01*
X117223Y606376D01*
X117306Y606409D01*
X117388Y606445D01*
X117468Y606484D01*
X117546Y606527D01*
X117622Y606573D01*
X117697Y606623D01*
X117769Y606676D01*
X117838Y606732D01*
X117905Y606791D01*
X117970Y606852D01*
X118031Y606917D01*
X118090Y606984D01*
X118146Y607053D01*
X118199Y607125D01*
X118249Y607200D01*
X118295Y607276D01*
X118338Y607354D01*
X118377Y607434D01*
X118413Y607516D01*
X118446Y607599D01*
X118474Y607684D01*
X118499Y607769D01*
X118521Y607856D01*
X118538Y607944D01*
X118551Y608032D01*
X118561Y608121D01*
X118567Y608210D01*
X118569Y608299D01*
X115295Y607890D02*
X113658Y606253D01*
X111473Y611982D02*
X109427Y613619D01*
X109427Y606253D01*
X111473Y606253D02*
X107381Y606253D01*
D11*
X219500Y439250D02*
X219500Y418650D01*
X193500Y418650D02*
X193500Y439250D01*
D12*
X206500Y421725D03*
D10*
X224431Y423981D02*
X231797Y423981D01*
X231797Y426027D01*
X231795Y426116D01*
X231789Y426205D01*
X231779Y426294D01*
X231766Y426382D01*
X231749Y426470D01*
X231727Y426557D01*
X231702Y426642D01*
X231674Y426727D01*
X231641Y426810D01*
X231605Y426892D01*
X231566Y426972D01*
X231523Y427050D01*
X231477Y427126D01*
X231427Y427201D01*
X231374Y427273D01*
X231318Y427342D01*
X231259Y427409D01*
X231198Y427474D01*
X231133Y427535D01*
X231066Y427594D01*
X230997Y427650D01*
X230925Y427703D01*
X230850Y427753D01*
X230774Y427799D01*
X230696Y427842D01*
X230616Y427881D01*
X230534Y427917D01*
X230451Y427950D01*
X230366Y427978D01*
X230281Y428003D01*
X230194Y428025D01*
X230106Y428042D01*
X230018Y428055D01*
X229929Y428065D01*
X229840Y428071D01*
X229751Y428073D01*
X226477Y428073D01*
X226388Y428071D01*
X226299Y428065D01*
X226210Y428055D01*
X226122Y428042D01*
X226034Y428025D01*
X225947Y428003D01*
X225862Y427978D01*
X225777Y427950D01*
X225694Y427917D01*
X225612Y427881D01*
X225532Y427842D01*
X225454Y427799D01*
X225378Y427753D01*
X225303Y427703D01*
X225231Y427650D01*
X225162Y427594D01*
X225095Y427535D01*
X225030Y427474D01*
X224969Y427409D01*
X224910Y427342D01*
X224854Y427273D01*
X224801Y427201D01*
X224751Y427126D01*
X224705Y427050D01*
X224662Y426972D01*
X224623Y426892D01*
X224587Y426810D01*
X224554Y426727D01*
X224526Y426642D01*
X224501Y426557D01*
X224479Y426470D01*
X224462Y426382D01*
X224449Y426294D01*
X224439Y426205D01*
X224433Y426116D01*
X224431Y426027D01*
X224431Y423981D01*
X231798Y433791D02*
X231796Y433876D01*
X231790Y433961D01*
X231780Y434045D01*
X231767Y434129D01*
X231749Y434213D01*
X231728Y434295D01*
X231703Y434376D01*
X231674Y434456D01*
X231641Y434535D01*
X231605Y434612D01*
X231565Y434687D01*
X231522Y434761D01*
X231476Y434832D01*
X231426Y434901D01*
X231373Y434968D01*
X231317Y435032D01*
X231258Y435093D01*
X231197Y435152D01*
X231133Y435208D01*
X231066Y435261D01*
X230997Y435311D01*
X230926Y435357D01*
X230852Y435400D01*
X230777Y435440D01*
X230700Y435476D01*
X230621Y435509D01*
X230541Y435538D01*
X230460Y435563D01*
X230378Y435584D01*
X230294Y435602D01*
X230210Y435615D01*
X230126Y435625D01*
X230041Y435631D01*
X229956Y435633D01*
X231797Y433791D02*
X231795Y433695D01*
X231789Y433599D01*
X231779Y433504D01*
X231766Y433409D01*
X231748Y433314D01*
X231727Y433221D01*
X231702Y433128D01*
X231673Y433037D01*
X231641Y432946D01*
X231605Y432857D01*
X231565Y432770D01*
X231522Y432684D01*
X231476Y432600D01*
X231426Y432518D01*
X231372Y432438D01*
X231316Y432361D01*
X231256Y432286D01*
X231194Y432213D01*
X231128Y432143D01*
X231060Y432075D01*
X230989Y432010D01*
X230916Y431949D01*
X230840Y431890D01*
X230761Y431834D01*
X230681Y431782D01*
X230598Y431733D01*
X230514Y431687D01*
X230428Y431645D01*
X230340Y431607D01*
X230251Y431572D01*
X230160Y431540D01*
X228524Y435018D02*
X228583Y435078D01*
X228645Y435135D01*
X228709Y435190D01*
X228776Y435241D01*
X228845Y435290D01*
X228915Y435336D01*
X228988Y435379D01*
X229062Y435419D01*
X229138Y435455D01*
X229216Y435488D01*
X229295Y435518D01*
X229375Y435545D01*
X229456Y435568D01*
X229538Y435587D01*
X229620Y435603D01*
X229704Y435616D01*
X229788Y435625D01*
X229872Y435630D01*
X229956Y435632D01*
X228523Y435018D02*
X224431Y431540D01*
X224431Y435632D01*
X68387Y261269D02*
X68387Y253903D01*
X68387Y261269D02*
X66341Y261269D01*
X66252Y261267D01*
X66163Y261261D01*
X66074Y261251D01*
X65986Y261238D01*
X65898Y261221D01*
X65811Y261199D01*
X65726Y261174D01*
X65641Y261146D01*
X65558Y261113D01*
X65476Y261077D01*
X65396Y261038D01*
X65318Y260995D01*
X65242Y260949D01*
X65167Y260899D01*
X65095Y260846D01*
X65026Y260790D01*
X64959Y260731D01*
X64894Y260670D01*
X64833Y260605D01*
X64774Y260538D01*
X64718Y260469D01*
X64665Y260397D01*
X64615Y260322D01*
X64569Y260246D01*
X64526Y260168D01*
X64487Y260088D01*
X64451Y260006D01*
X64418Y259923D01*
X64390Y259838D01*
X64365Y259753D01*
X64343Y259666D01*
X64326Y259578D01*
X64313Y259490D01*
X64303Y259401D01*
X64297Y259312D01*
X64295Y259223D01*
X64297Y259134D01*
X64303Y259045D01*
X64313Y258956D01*
X64326Y258868D01*
X64343Y258780D01*
X64365Y258693D01*
X64390Y258608D01*
X64418Y258523D01*
X64451Y258440D01*
X64487Y258358D01*
X64526Y258278D01*
X64569Y258200D01*
X64615Y258124D01*
X64665Y258049D01*
X64718Y257977D01*
X64774Y257908D01*
X64833Y257841D01*
X64894Y257776D01*
X64959Y257715D01*
X65026Y257656D01*
X65095Y257600D01*
X65167Y257547D01*
X65242Y257497D01*
X65318Y257451D01*
X65396Y257408D01*
X65476Y257369D01*
X65558Y257333D01*
X65641Y257300D01*
X65726Y257272D01*
X65811Y257247D01*
X65898Y257225D01*
X65986Y257208D01*
X66074Y257195D01*
X66163Y257185D01*
X66252Y257179D01*
X66341Y257177D01*
X68387Y257177D01*
X65932Y257177D02*
X64295Y253903D01*
X61123Y255540D02*
X59486Y261269D01*
X61123Y255540D02*
X57031Y255540D01*
X58259Y257177D02*
X58259Y253903D01*
X170731Y800031D02*
X178097Y800031D01*
X178097Y802077D01*
X178095Y802166D01*
X178089Y802255D01*
X178079Y802344D01*
X178066Y802432D01*
X178049Y802520D01*
X178027Y802607D01*
X178002Y802692D01*
X177974Y802777D01*
X177941Y802860D01*
X177905Y802942D01*
X177866Y803022D01*
X177823Y803100D01*
X177777Y803176D01*
X177727Y803251D01*
X177674Y803323D01*
X177618Y803392D01*
X177559Y803459D01*
X177498Y803524D01*
X177433Y803585D01*
X177366Y803644D01*
X177297Y803700D01*
X177225Y803753D01*
X177150Y803803D01*
X177074Y803849D01*
X176996Y803892D01*
X176916Y803931D01*
X176834Y803967D01*
X176751Y804000D01*
X176666Y804028D01*
X176581Y804053D01*
X176494Y804075D01*
X176406Y804092D01*
X176318Y804105D01*
X176229Y804115D01*
X176140Y804121D01*
X176051Y804123D01*
X175962Y804121D01*
X175873Y804115D01*
X175784Y804105D01*
X175696Y804092D01*
X175608Y804075D01*
X175521Y804053D01*
X175436Y804028D01*
X175351Y804000D01*
X175268Y803967D01*
X175186Y803931D01*
X175106Y803892D01*
X175028Y803849D01*
X174952Y803803D01*
X174877Y803753D01*
X174805Y803700D01*
X174736Y803644D01*
X174669Y803585D01*
X174604Y803524D01*
X174543Y803459D01*
X174484Y803392D01*
X174428Y803323D01*
X174375Y803251D01*
X174325Y803176D01*
X174279Y803100D01*
X174236Y803022D01*
X174197Y802942D01*
X174161Y802860D01*
X174128Y802777D01*
X174100Y802692D01*
X174075Y802607D01*
X174053Y802520D01*
X174036Y802432D01*
X174023Y802344D01*
X174013Y802255D01*
X174007Y802166D01*
X174005Y802077D01*
X174005Y800031D01*
X174005Y802486D02*
X170731Y804123D01*
X177279Y807295D02*
X178097Y807295D01*
X178097Y811387D01*
X170731Y809341D01*
X306387Y773269D02*
X306387Y765903D01*
X306387Y773269D02*
X304341Y773269D01*
X304252Y773267D01*
X304163Y773261D01*
X304074Y773251D01*
X303986Y773238D01*
X303898Y773221D01*
X303811Y773199D01*
X303726Y773174D01*
X303641Y773146D01*
X303558Y773113D01*
X303476Y773077D01*
X303396Y773038D01*
X303318Y772995D01*
X303242Y772949D01*
X303167Y772899D01*
X303095Y772846D01*
X303026Y772790D01*
X302959Y772731D01*
X302894Y772670D01*
X302833Y772605D01*
X302774Y772538D01*
X302718Y772469D01*
X302665Y772397D01*
X302615Y772322D01*
X302569Y772246D01*
X302526Y772168D01*
X302487Y772088D01*
X302451Y772006D01*
X302418Y771923D01*
X302390Y771838D01*
X302365Y771753D01*
X302343Y771666D01*
X302326Y771578D01*
X302313Y771490D01*
X302303Y771401D01*
X302297Y771312D01*
X302295Y771223D01*
X302297Y771134D01*
X302303Y771045D01*
X302313Y770956D01*
X302326Y770868D01*
X302343Y770780D01*
X302365Y770693D01*
X302390Y770608D01*
X302418Y770523D01*
X302451Y770440D01*
X302487Y770358D01*
X302526Y770278D01*
X302569Y770200D01*
X302615Y770124D01*
X302665Y770049D01*
X302718Y769977D01*
X302774Y769908D01*
X302833Y769841D01*
X302894Y769776D01*
X302959Y769715D01*
X303026Y769656D01*
X303095Y769600D01*
X303167Y769547D01*
X303242Y769497D01*
X303318Y769451D01*
X303396Y769408D01*
X303476Y769369D01*
X303558Y769333D01*
X303641Y769300D01*
X303726Y769272D01*
X303811Y769247D01*
X303898Y769225D01*
X303986Y769208D01*
X304074Y769195D01*
X304163Y769185D01*
X304252Y769179D01*
X304341Y769177D01*
X306387Y769177D01*
X303932Y769177D02*
X302295Y765903D01*
X299123Y767949D02*
X299121Y768038D01*
X299115Y768127D01*
X299105Y768216D01*
X299092Y768304D01*
X299075Y768392D01*
X299053Y768479D01*
X299028Y768564D01*
X299000Y768649D01*
X298967Y768732D01*
X298931Y768814D01*
X298892Y768894D01*
X298849Y768972D01*
X298803Y769048D01*
X298753Y769123D01*
X298700Y769195D01*
X298644Y769264D01*
X298585Y769331D01*
X298524Y769396D01*
X298459Y769457D01*
X298392Y769516D01*
X298323Y769572D01*
X298251Y769625D01*
X298176Y769675D01*
X298100Y769721D01*
X298022Y769764D01*
X297942Y769803D01*
X297860Y769839D01*
X297777Y769872D01*
X297692Y769900D01*
X297607Y769925D01*
X297520Y769947D01*
X297432Y769964D01*
X297344Y769977D01*
X297255Y769987D01*
X297166Y769993D01*
X297077Y769995D01*
X296988Y769993D01*
X296899Y769987D01*
X296810Y769977D01*
X296722Y769964D01*
X296634Y769947D01*
X296547Y769925D01*
X296462Y769900D01*
X296377Y769872D01*
X296294Y769839D01*
X296212Y769803D01*
X296132Y769764D01*
X296054Y769721D01*
X295978Y769675D01*
X295903Y769625D01*
X295831Y769572D01*
X295762Y769516D01*
X295695Y769457D01*
X295630Y769396D01*
X295569Y769331D01*
X295510Y769264D01*
X295454Y769195D01*
X295401Y769123D01*
X295351Y769048D01*
X295305Y768972D01*
X295262Y768894D01*
X295223Y768814D01*
X295187Y768732D01*
X295154Y768649D01*
X295126Y768564D01*
X295101Y768479D01*
X295079Y768392D01*
X295062Y768304D01*
X295049Y768216D01*
X295039Y768127D01*
X295033Y768038D01*
X295031Y767949D01*
X295033Y767860D01*
X295039Y767771D01*
X295049Y767682D01*
X295062Y767594D01*
X295079Y767506D01*
X295101Y767419D01*
X295126Y767334D01*
X295154Y767249D01*
X295187Y767166D01*
X295223Y767084D01*
X295262Y767004D01*
X295305Y766926D01*
X295351Y766850D01*
X295401Y766775D01*
X295454Y766703D01*
X295510Y766634D01*
X295569Y766567D01*
X295630Y766502D01*
X295695Y766441D01*
X295762Y766382D01*
X295831Y766326D01*
X295903Y766273D01*
X295978Y766223D01*
X296054Y766177D01*
X296132Y766134D01*
X296212Y766095D01*
X296294Y766059D01*
X296377Y766026D01*
X296462Y765998D01*
X296547Y765973D01*
X296634Y765951D01*
X296722Y765934D01*
X296810Y765921D01*
X296899Y765911D01*
X296988Y765905D01*
X297077Y765903D01*
X297166Y765905D01*
X297255Y765911D01*
X297344Y765921D01*
X297432Y765934D01*
X297520Y765951D01*
X297607Y765973D01*
X297692Y765998D01*
X297777Y766026D01*
X297860Y766059D01*
X297942Y766095D01*
X298022Y766134D01*
X298100Y766177D01*
X298176Y766223D01*
X298251Y766273D01*
X298323Y766326D01*
X298392Y766382D01*
X298459Y766441D01*
X298524Y766502D01*
X298585Y766567D01*
X298644Y766634D01*
X298700Y766703D01*
X298753Y766775D01*
X298803Y766850D01*
X298849Y766926D01*
X298892Y767004D01*
X298931Y767084D01*
X298967Y767166D01*
X299000Y767249D01*
X299028Y767334D01*
X299053Y767419D01*
X299075Y767506D01*
X299092Y767594D01*
X299105Y767682D01*
X299115Y767771D01*
X299121Y767860D01*
X299123Y767949D01*
X298714Y771632D02*
X298712Y771711D01*
X298706Y771790D01*
X298697Y771869D01*
X298684Y771947D01*
X298666Y772024D01*
X298646Y772100D01*
X298621Y772175D01*
X298593Y772249D01*
X298562Y772322D01*
X298526Y772393D01*
X298488Y772462D01*
X298446Y772529D01*
X298401Y772594D01*
X298353Y772657D01*
X298302Y772718D01*
X298248Y772775D01*
X298192Y772831D01*
X298133Y772883D01*
X298071Y772933D01*
X298007Y772979D01*
X297941Y773023D01*
X297873Y773063D01*
X297803Y773099D01*
X297731Y773133D01*
X297657Y773163D01*
X297583Y773189D01*
X297507Y773212D01*
X297430Y773230D01*
X297353Y773246D01*
X297274Y773257D01*
X297196Y773265D01*
X297117Y773269D01*
X297037Y773269D01*
X296958Y773265D01*
X296880Y773257D01*
X296801Y773246D01*
X296724Y773230D01*
X296647Y773212D01*
X296571Y773189D01*
X296497Y773163D01*
X296423Y773133D01*
X296351Y773099D01*
X296281Y773063D01*
X296213Y773023D01*
X296147Y772979D01*
X296083Y772933D01*
X296021Y772883D01*
X295962Y772831D01*
X295906Y772775D01*
X295852Y772718D01*
X295801Y772657D01*
X295753Y772594D01*
X295708Y772529D01*
X295666Y772462D01*
X295628Y772393D01*
X295592Y772322D01*
X295561Y772249D01*
X295533Y772175D01*
X295508Y772100D01*
X295488Y772024D01*
X295470Y771947D01*
X295457Y771869D01*
X295448Y771790D01*
X295442Y771711D01*
X295440Y771632D01*
X295442Y771553D01*
X295448Y771474D01*
X295457Y771395D01*
X295470Y771317D01*
X295488Y771240D01*
X295508Y771164D01*
X295533Y771089D01*
X295561Y771015D01*
X295592Y770942D01*
X295628Y770871D01*
X295666Y770802D01*
X295708Y770735D01*
X295753Y770670D01*
X295801Y770607D01*
X295852Y770546D01*
X295906Y770489D01*
X295962Y770433D01*
X296021Y770381D01*
X296083Y770331D01*
X296147Y770285D01*
X296213Y770241D01*
X296281Y770201D01*
X296351Y770165D01*
X296423Y770131D01*
X296497Y770101D01*
X296571Y770075D01*
X296647Y770052D01*
X296724Y770034D01*
X296801Y770018D01*
X296880Y770007D01*
X296958Y769999D01*
X297037Y769995D01*
X297117Y769995D01*
X297196Y769999D01*
X297274Y770007D01*
X297353Y770018D01*
X297430Y770034D01*
X297507Y770052D01*
X297583Y770075D01*
X297657Y770101D01*
X297731Y770131D01*
X297803Y770165D01*
X297873Y770201D01*
X297941Y770241D01*
X298007Y770285D01*
X298071Y770331D01*
X298133Y770381D01*
X298192Y770433D01*
X298248Y770489D01*
X298302Y770546D01*
X298353Y770607D01*
X298401Y770670D01*
X298446Y770735D01*
X298488Y770802D01*
X298526Y770871D01*
X298562Y770942D01*
X298593Y771015D01*
X298621Y771089D01*
X298646Y771164D01*
X298666Y771240D01*
X298684Y771317D01*
X298697Y771395D01*
X298706Y771474D01*
X298712Y771553D01*
X298714Y771632D01*
X306387Y628269D02*
X306387Y620903D01*
X306387Y628269D02*
X304341Y628269D01*
X304252Y628267D01*
X304163Y628261D01*
X304074Y628251D01*
X303986Y628238D01*
X303898Y628221D01*
X303811Y628199D01*
X303726Y628174D01*
X303641Y628146D01*
X303558Y628113D01*
X303476Y628077D01*
X303396Y628038D01*
X303318Y627995D01*
X303242Y627949D01*
X303167Y627899D01*
X303095Y627846D01*
X303026Y627790D01*
X302959Y627731D01*
X302894Y627670D01*
X302833Y627605D01*
X302774Y627538D01*
X302718Y627469D01*
X302665Y627397D01*
X302615Y627322D01*
X302569Y627246D01*
X302526Y627168D01*
X302487Y627088D01*
X302451Y627006D01*
X302418Y626923D01*
X302390Y626838D01*
X302365Y626753D01*
X302343Y626666D01*
X302326Y626578D01*
X302313Y626490D01*
X302303Y626401D01*
X302297Y626312D01*
X302295Y626223D01*
X302297Y626134D01*
X302303Y626045D01*
X302313Y625956D01*
X302326Y625868D01*
X302343Y625780D01*
X302365Y625693D01*
X302390Y625608D01*
X302418Y625523D01*
X302451Y625440D01*
X302487Y625358D01*
X302526Y625278D01*
X302569Y625200D01*
X302615Y625124D01*
X302665Y625049D01*
X302718Y624977D01*
X302774Y624908D01*
X302833Y624841D01*
X302894Y624776D01*
X302959Y624715D01*
X303026Y624656D01*
X303095Y624600D01*
X303167Y624547D01*
X303242Y624497D01*
X303318Y624451D01*
X303396Y624408D01*
X303476Y624369D01*
X303558Y624333D01*
X303641Y624300D01*
X303726Y624272D01*
X303811Y624247D01*
X303898Y624225D01*
X303986Y624208D01*
X304074Y624195D01*
X304163Y624185D01*
X304252Y624179D01*
X304341Y624177D01*
X306387Y624177D01*
X303932Y624177D02*
X302295Y620903D01*
X297486Y624177D02*
X295031Y624177D01*
X297486Y624177D02*
X297564Y624179D01*
X297642Y624184D01*
X297719Y624194D01*
X297796Y624207D01*
X297872Y624223D01*
X297947Y624243D01*
X298021Y624267D01*
X298094Y624294D01*
X298166Y624325D01*
X298236Y624359D01*
X298305Y624396D01*
X298371Y624437D01*
X298436Y624481D01*
X298498Y624527D01*
X298558Y624577D01*
X298616Y624629D01*
X298671Y624684D01*
X298723Y624742D01*
X298773Y624802D01*
X298819Y624864D01*
X298863Y624929D01*
X298904Y624996D01*
X298941Y625064D01*
X298975Y625134D01*
X299006Y625206D01*
X299033Y625279D01*
X299057Y625353D01*
X299077Y625428D01*
X299093Y625504D01*
X299106Y625581D01*
X299116Y625658D01*
X299121Y625736D01*
X299123Y625814D01*
X299123Y626223D01*
X299121Y626312D01*
X299115Y626401D01*
X299105Y626490D01*
X299092Y626578D01*
X299075Y626666D01*
X299053Y626753D01*
X299028Y626838D01*
X299000Y626923D01*
X298967Y627006D01*
X298931Y627088D01*
X298892Y627168D01*
X298849Y627246D01*
X298803Y627322D01*
X298753Y627397D01*
X298700Y627469D01*
X298644Y627538D01*
X298585Y627605D01*
X298524Y627670D01*
X298459Y627731D01*
X298392Y627790D01*
X298323Y627846D01*
X298251Y627899D01*
X298176Y627949D01*
X298100Y627995D01*
X298022Y628038D01*
X297942Y628077D01*
X297860Y628113D01*
X297777Y628146D01*
X297692Y628174D01*
X297607Y628199D01*
X297520Y628221D01*
X297432Y628238D01*
X297344Y628251D01*
X297255Y628261D01*
X297166Y628267D01*
X297077Y628269D01*
X296988Y628267D01*
X296899Y628261D01*
X296810Y628251D01*
X296722Y628238D01*
X296634Y628221D01*
X296547Y628199D01*
X296462Y628174D01*
X296377Y628146D01*
X296294Y628113D01*
X296212Y628077D01*
X296132Y628038D01*
X296054Y627995D01*
X295978Y627949D01*
X295903Y627899D01*
X295831Y627846D01*
X295762Y627790D01*
X295695Y627731D01*
X295630Y627670D01*
X295569Y627605D01*
X295510Y627538D01*
X295454Y627469D01*
X295401Y627397D01*
X295351Y627322D01*
X295305Y627246D01*
X295262Y627168D01*
X295223Y627088D01*
X295187Y627006D01*
X295154Y626923D01*
X295126Y626838D01*
X295101Y626753D01*
X295079Y626666D01*
X295062Y626578D01*
X295049Y626490D01*
X295039Y626401D01*
X295033Y626312D01*
X295031Y626223D01*
X295031Y624177D01*
X295033Y624065D01*
X295039Y623954D01*
X295048Y623842D01*
X295061Y623731D01*
X295079Y623621D01*
X295099Y623511D01*
X295124Y623402D01*
X295152Y623294D01*
X295184Y623187D01*
X295220Y623081D01*
X295259Y622976D01*
X295302Y622873D01*
X295348Y622771D01*
X295398Y622671D01*
X295451Y622572D01*
X295508Y622476D01*
X295567Y622381D01*
X295630Y622289D01*
X295696Y622199D01*
X295765Y622111D01*
X295837Y622025D01*
X295912Y621942D01*
X295990Y621862D01*
X296070Y621784D01*
X296153Y621709D01*
X296239Y621637D01*
X296327Y621568D01*
X296417Y621502D01*
X296509Y621439D01*
X296604Y621380D01*
X296700Y621323D01*
X296799Y621270D01*
X296899Y621220D01*
X297001Y621174D01*
X297104Y621131D01*
X297209Y621092D01*
X297315Y621056D01*
X297422Y621024D01*
X297530Y620996D01*
X297639Y620971D01*
X297749Y620951D01*
X297859Y620933D01*
X297970Y620920D01*
X298082Y620911D01*
X298193Y620905D01*
X298305Y620903D01*
X310702Y482269D02*
X310702Y474903D01*
X310702Y482269D02*
X308656Y482269D01*
X308567Y482267D01*
X308478Y482261D01*
X308389Y482251D01*
X308301Y482238D01*
X308213Y482221D01*
X308126Y482199D01*
X308041Y482174D01*
X307956Y482146D01*
X307873Y482113D01*
X307791Y482077D01*
X307711Y482038D01*
X307633Y481995D01*
X307557Y481949D01*
X307482Y481899D01*
X307410Y481846D01*
X307341Y481790D01*
X307274Y481731D01*
X307209Y481670D01*
X307148Y481605D01*
X307089Y481538D01*
X307033Y481469D01*
X306980Y481397D01*
X306930Y481322D01*
X306884Y481246D01*
X306841Y481168D01*
X306802Y481088D01*
X306766Y481006D01*
X306733Y480923D01*
X306705Y480838D01*
X306680Y480753D01*
X306658Y480666D01*
X306641Y480578D01*
X306628Y480490D01*
X306618Y480401D01*
X306612Y480312D01*
X306610Y480223D01*
X306612Y480134D01*
X306618Y480045D01*
X306628Y479956D01*
X306641Y479868D01*
X306658Y479780D01*
X306680Y479693D01*
X306705Y479608D01*
X306733Y479523D01*
X306766Y479440D01*
X306802Y479358D01*
X306841Y479278D01*
X306884Y479200D01*
X306930Y479124D01*
X306980Y479049D01*
X307033Y478977D01*
X307089Y478908D01*
X307148Y478841D01*
X307209Y478776D01*
X307274Y478715D01*
X307341Y478656D01*
X307410Y478600D01*
X307482Y478547D01*
X307557Y478497D01*
X307633Y478451D01*
X307711Y478408D01*
X307791Y478369D01*
X307873Y478333D01*
X307956Y478300D01*
X308041Y478272D01*
X308126Y478247D01*
X308213Y478225D01*
X308301Y478208D01*
X308389Y478195D01*
X308478Y478185D01*
X308567Y478179D01*
X308656Y478177D01*
X310702Y478177D01*
X308247Y478177D02*
X306610Y474903D01*
X303438Y480632D02*
X301392Y482269D01*
X301392Y474903D01*
X303438Y474903D02*
X299346Y474903D01*
X296123Y478586D02*
X296121Y478739D01*
X296115Y478892D01*
X296106Y479044D01*
X296092Y479197D01*
X296075Y479349D01*
X296054Y479500D01*
X296029Y479651D01*
X296000Y479801D01*
X295968Y479951D01*
X295931Y480099D01*
X295891Y480247D01*
X295848Y480394D01*
X295800Y480539D01*
X295749Y480683D01*
X295695Y480826D01*
X295636Y480968D01*
X295575Y481107D01*
X295509Y481246D01*
X295483Y481316D01*
X295453Y481385D01*
X295421Y481453D01*
X295384Y481519D01*
X295345Y481583D01*
X295302Y481645D01*
X295257Y481704D01*
X295208Y481762D01*
X295157Y481816D01*
X295103Y481869D01*
X295046Y481918D01*
X294987Y481965D01*
X294926Y482008D01*
X294863Y482049D01*
X294798Y482086D01*
X294731Y482121D01*
X294662Y482151D01*
X294592Y482179D01*
X294521Y482202D01*
X294449Y482223D01*
X294376Y482239D01*
X294302Y482252D01*
X294227Y482262D01*
X294152Y482267D01*
X294077Y482269D01*
X294002Y482267D01*
X293927Y482262D01*
X293852Y482252D01*
X293778Y482239D01*
X293705Y482223D01*
X293633Y482202D01*
X293562Y482179D01*
X293492Y482151D01*
X293423Y482121D01*
X293356Y482086D01*
X293291Y482049D01*
X293228Y482008D01*
X293167Y481965D01*
X293108Y481918D01*
X293051Y481869D01*
X292997Y481816D01*
X292946Y481762D01*
X292898Y481704D01*
X292852Y481645D01*
X292809Y481583D01*
X292770Y481519D01*
X292734Y481453D01*
X292701Y481386D01*
X292671Y481316D01*
X292645Y481246D01*
X292580Y481108D01*
X292518Y480968D01*
X292460Y480826D01*
X292405Y480683D01*
X292354Y480539D01*
X292306Y480394D01*
X292263Y480247D01*
X292223Y480100D01*
X292186Y479951D01*
X292154Y479801D01*
X292125Y479651D01*
X292100Y479500D01*
X292079Y479349D01*
X292062Y479197D01*
X292048Y479044D01*
X292039Y478892D01*
X292033Y478739D01*
X292031Y478586D01*
X296124Y478586D02*
X296122Y478433D01*
X296116Y478280D01*
X296107Y478127D01*
X296093Y477975D01*
X296076Y477823D01*
X296055Y477672D01*
X296030Y477521D01*
X296001Y477370D01*
X295969Y477221D01*
X295932Y477072D01*
X295892Y476925D01*
X295849Y476778D01*
X295801Y476633D01*
X295750Y476488D01*
X295695Y476346D01*
X295637Y476204D01*
X295575Y476064D01*
X295510Y475926D01*
X295509Y475926D02*
X295483Y475856D01*
X295453Y475786D01*
X295421Y475719D01*
X295384Y475653D01*
X295345Y475589D01*
X295302Y475527D01*
X295256Y475468D01*
X295208Y475410D01*
X295157Y475356D01*
X295103Y475303D01*
X295046Y475254D01*
X294987Y475207D01*
X294926Y475164D01*
X294863Y475123D01*
X294798Y475086D01*
X294731Y475051D01*
X294662Y475021D01*
X294592Y474993D01*
X294521Y474970D01*
X294449Y474949D01*
X294376Y474933D01*
X294302Y474920D01*
X294227Y474910D01*
X294152Y474905D01*
X294077Y474903D01*
X292645Y475926D02*
X292580Y476064D01*
X292518Y476204D01*
X292460Y476346D01*
X292405Y476489D01*
X292354Y476633D01*
X292306Y476778D01*
X292263Y476925D01*
X292223Y477073D01*
X292186Y477221D01*
X292154Y477371D01*
X292125Y477521D01*
X292100Y477672D01*
X292079Y477823D01*
X292062Y477975D01*
X292048Y478128D01*
X292039Y478280D01*
X292033Y478433D01*
X292031Y478586D01*
X292645Y475926D02*
X292671Y475855D01*
X292701Y475786D01*
X292734Y475719D01*
X292770Y475653D01*
X292809Y475589D01*
X292852Y475527D01*
X292898Y475468D01*
X292946Y475410D01*
X292997Y475356D01*
X293051Y475303D01*
X293108Y475254D01*
X293167Y475207D01*
X293228Y475164D01*
X293291Y475123D01*
X293356Y475086D01*
X293423Y475051D01*
X293492Y475021D01*
X293562Y474993D01*
X293633Y474970D01*
X293705Y474949D01*
X293778Y474933D01*
X293852Y474920D01*
X293927Y474910D01*
X294002Y474905D01*
X294077Y474903D01*
X295714Y476540D02*
X292440Y480632D01*
X317731Y342031D02*
X325097Y342031D01*
X325097Y344077D01*
X325095Y344166D01*
X325089Y344255D01*
X325079Y344344D01*
X325066Y344432D01*
X325049Y344520D01*
X325027Y344607D01*
X325002Y344692D01*
X324974Y344777D01*
X324941Y344860D01*
X324905Y344942D01*
X324866Y345022D01*
X324823Y345100D01*
X324777Y345176D01*
X324727Y345251D01*
X324674Y345323D01*
X324618Y345392D01*
X324559Y345459D01*
X324498Y345524D01*
X324433Y345585D01*
X324366Y345644D01*
X324297Y345700D01*
X324225Y345753D01*
X324150Y345803D01*
X324074Y345849D01*
X323996Y345892D01*
X323916Y345931D01*
X323834Y345967D01*
X323751Y346000D01*
X323666Y346028D01*
X323581Y346053D01*
X323494Y346075D01*
X323406Y346092D01*
X323318Y346105D01*
X323229Y346115D01*
X323140Y346121D01*
X323051Y346123D01*
X322962Y346121D01*
X322873Y346115D01*
X322784Y346105D01*
X322696Y346092D01*
X322608Y346075D01*
X322521Y346053D01*
X322436Y346028D01*
X322351Y346000D01*
X322268Y345967D01*
X322186Y345931D01*
X322106Y345892D01*
X322028Y345849D01*
X321952Y345803D01*
X321877Y345753D01*
X321805Y345700D01*
X321736Y345644D01*
X321669Y345585D01*
X321604Y345524D01*
X321543Y345459D01*
X321484Y345392D01*
X321428Y345323D01*
X321375Y345251D01*
X321325Y345176D01*
X321279Y345100D01*
X321236Y345022D01*
X321197Y344942D01*
X321161Y344860D01*
X321128Y344777D01*
X321100Y344692D01*
X321075Y344607D01*
X321053Y344520D01*
X321036Y344432D01*
X321023Y344344D01*
X321013Y344255D01*
X321007Y344166D01*
X321005Y344077D01*
X321005Y342031D01*
X321005Y344486D02*
X317731Y346123D01*
X323460Y349295D02*
X325097Y351341D01*
X317731Y351341D01*
X317731Y349295D02*
X317731Y353387D01*
X323460Y356610D02*
X325097Y358656D01*
X317731Y358656D01*
X317731Y356610D02*
X317731Y360702D01*
X306969Y229097D02*
X306969Y221731D01*
X306969Y229097D02*
X304923Y229097D01*
X304834Y229095D01*
X304745Y229089D01*
X304656Y229079D01*
X304568Y229066D01*
X304480Y229049D01*
X304393Y229027D01*
X304308Y229002D01*
X304223Y228974D01*
X304140Y228941D01*
X304058Y228905D01*
X303978Y228866D01*
X303900Y228823D01*
X303824Y228777D01*
X303749Y228727D01*
X303677Y228674D01*
X303608Y228618D01*
X303541Y228559D01*
X303476Y228498D01*
X303415Y228433D01*
X303356Y228366D01*
X303300Y228297D01*
X303247Y228225D01*
X303197Y228150D01*
X303151Y228074D01*
X303108Y227996D01*
X303069Y227916D01*
X303033Y227834D01*
X303000Y227751D01*
X302972Y227666D01*
X302947Y227581D01*
X302925Y227494D01*
X302908Y227406D01*
X302895Y227318D01*
X302885Y227229D01*
X302879Y227140D01*
X302877Y227051D01*
X302879Y226962D01*
X302885Y226873D01*
X302895Y226784D01*
X302908Y226696D01*
X302925Y226608D01*
X302947Y226521D01*
X302972Y226436D01*
X303000Y226351D01*
X303033Y226268D01*
X303069Y226186D01*
X303108Y226106D01*
X303151Y226028D01*
X303197Y225952D01*
X303247Y225877D01*
X303300Y225805D01*
X303356Y225736D01*
X303415Y225669D01*
X303476Y225604D01*
X303541Y225543D01*
X303608Y225484D01*
X303677Y225428D01*
X303749Y225375D01*
X303824Y225325D01*
X303900Y225279D01*
X303978Y225236D01*
X304058Y225197D01*
X304140Y225161D01*
X304223Y225128D01*
X304308Y225100D01*
X304393Y225075D01*
X304480Y225053D01*
X304568Y225036D01*
X304656Y225023D01*
X304745Y225013D01*
X304834Y225007D01*
X304923Y225005D01*
X306969Y225005D01*
X304514Y225005D02*
X302877Y221731D01*
X299705Y227460D02*
X297659Y229097D01*
X297659Y221731D01*
X299705Y221731D02*
X295613Y221731D01*
X288297Y227256D02*
X288299Y227341D01*
X288305Y227426D01*
X288315Y227510D01*
X288328Y227594D01*
X288346Y227678D01*
X288367Y227760D01*
X288392Y227841D01*
X288421Y227921D01*
X288454Y228000D01*
X288490Y228077D01*
X288530Y228152D01*
X288573Y228226D01*
X288619Y228297D01*
X288669Y228366D01*
X288722Y228433D01*
X288778Y228497D01*
X288837Y228558D01*
X288898Y228617D01*
X288962Y228673D01*
X289029Y228726D01*
X289098Y228776D01*
X289169Y228822D01*
X289243Y228865D01*
X289318Y228905D01*
X289395Y228941D01*
X289474Y228974D01*
X289554Y229003D01*
X289635Y229028D01*
X289717Y229049D01*
X289801Y229067D01*
X289885Y229080D01*
X289969Y229090D01*
X290054Y229096D01*
X290139Y229098D01*
X290139Y229097D02*
X290235Y229095D01*
X290331Y229089D01*
X290426Y229079D01*
X290521Y229066D01*
X290616Y229048D01*
X290709Y229027D01*
X290802Y229002D01*
X290893Y228973D01*
X290984Y228941D01*
X291073Y228905D01*
X291160Y228865D01*
X291246Y228822D01*
X291330Y228776D01*
X291412Y228726D01*
X291492Y228672D01*
X291569Y228616D01*
X291644Y228556D01*
X291717Y228494D01*
X291787Y228428D01*
X291855Y228360D01*
X291920Y228289D01*
X291981Y228216D01*
X292040Y228140D01*
X292096Y228061D01*
X292148Y227981D01*
X292197Y227898D01*
X292243Y227814D01*
X292285Y227728D01*
X292323Y227640D01*
X292358Y227551D01*
X292390Y227460D01*
X288911Y225824D02*
X288851Y225883D01*
X288794Y225945D01*
X288739Y226009D01*
X288688Y226076D01*
X288639Y226145D01*
X288593Y226215D01*
X288550Y226288D01*
X288510Y226362D01*
X288474Y226438D01*
X288441Y226516D01*
X288411Y226595D01*
X288384Y226675D01*
X288361Y226756D01*
X288342Y226838D01*
X288326Y226920D01*
X288313Y227004D01*
X288304Y227088D01*
X288299Y227172D01*
X288297Y227256D01*
X288911Y225823D02*
X292390Y221731D01*
X288298Y221731D01*
X277554Y373253D02*
X277554Y380619D01*
X274280Y380619D01*
X274280Y377345D02*
X277554Y377345D01*
X271473Y379801D02*
X271473Y380619D01*
X267381Y380619D01*
X269427Y373253D01*
X277554Y236119D02*
X277554Y228753D01*
X277554Y236119D02*
X274280Y236119D01*
X274280Y232845D02*
X277554Y232845D01*
X271473Y230799D02*
X271471Y230888D01*
X271465Y230977D01*
X271455Y231066D01*
X271442Y231154D01*
X271425Y231242D01*
X271403Y231329D01*
X271378Y231414D01*
X271350Y231499D01*
X271317Y231582D01*
X271281Y231664D01*
X271242Y231744D01*
X271199Y231822D01*
X271153Y231898D01*
X271103Y231973D01*
X271050Y232045D01*
X270994Y232114D01*
X270935Y232181D01*
X270874Y232246D01*
X270809Y232307D01*
X270742Y232366D01*
X270673Y232422D01*
X270601Y232475D01*
X270526Y232525D01*
X270450Y232571D01*
X270372Y232614D01*
X270292Y232653D01*
X270210Y232689D01*
X270127Y232722D01*
X270042Y232750D01*
X269957Y232775D01*
X269870Y232797D01*
X269782Y232814D01*
X269694Y232827D01*
X269605Y232837D01*
X269516Y232843D01*
X269427Y232845D01*
X269338Y232843D01*
X269249Y232837D01*
X269160Y232827D01*
X269072Y232814D01*
X268984Y232797D01*
X268897Y232775D01*
X268812Y232750D01*
X268727Y232722D01*
X268644Y232689D01*
X268562Y232653D01*
X268482Y232614D01*
X268404Y232571D01*
X268328Y232525D01*
X268253Y232475D01*
X268181Y232422D01*
X268112Y232366D01*
X268045Y232307D01*
X267980Y232246D01*
X267919Y232181D01*
X267860Y232114D01*
X267804Y232045D01*
X267751Y231973D01*
X267701Y231898D01*
X267655Y231822D01*
X267612Y231744D01*
X267573Y231664D01*
X267537Y231582D01*
X267504Y231499D01*
X267476Y231414D01*
X267451Y231329D01*
X267429Y231242D01*
X267412Y231154D01*
X267399Y231066D01*
X267389Y230977D01*
X267383Y230888D01*
X267381Y230799D01*
X267383Y230710D01*
X267389Y230621D01*
X267399Y230532D01*
X267412Y230444D01*
X267429Y230356D01*
X267451Y230269D01*
X267476Y230184D01*
X267504Y230099D01*
X267537Y230016D01*
X267573Y229934D01*
X267612Y229854D01*
X267655Y229776D01*
X267701Y229700D01*
X267751Y229625D01*
X267804Y229553D01*
X267860Y229484D01*
X267919Y229417D01*
X267980Y229352D01*
X268045Y229291D01*
X268112Y229232D01*
X268181Y229176D01*
X268253Y229123D01*
X268328Y229073D01*
X268404Y229027D01*
X268482Y228984D01*
X268562Y228945D01*
X268644Y228909D01*
X268727Y228876D01*
X268812Y228848D01*
X268897Y228823D01*
X268984Y228801D01*
X269072Y228784D01*
X269160Y228771D01*
X269249Y228761D01*
X269338Y228755D01*
X269427Y228753D01*
X269516Y228755D01*
X269605Y228761D01*
X269694Y228771D01*
X269782Y228784D01*
X269870Y228801D01*
X269957Y228823D01*
X270042Y228848D01*
X270127Y228876D01*
X270210Y228909D01*
X270292Y228945D01*
X270372Y228984D01*
X270450Y229027D01*
X270526Y229073D01*
X270601Y229123D01*
X270673Y229176D01*
X270742Y229232D01*
X270809Y229291D01*
X270874Y229352D01*
X270935Y229417D01*
X270994Y229484D01*
X271050Y229553D01*
X271103Y229625D01*
X271153Y229700D01*
X271199Y229776D01*
X271242Y229854D01*
X271281Y229934D01*
X271317Y230016D01*
X271350Y230099D01*
X271378Y230184D01*
X271403Y230269D01*
X271425Y230356D01*
X271442Y230444D01*
X271455Y230532D01*
X271465Y230621D01*
X271471Y230710D01*
X271473Y230799D01*
X271064Y234482D02*
X271062Y234561D01*
X271056Y234640D01*
X271047Y234719D01*
X271034Y234797D01*
X271016Y234874D01*
X270996Y234950D01*
X270971Y235025D01*
X270943Y235099D01*
X270912Y235172D01*
X270876Y235243D01*
X270838Y235312D01*
X270796Y235379D01*
X270751Y235444D01*
X270703Y235507D01*
X270652Y235568D01*
X270598Y235625D01*
X270542Y235681D01*
X270483Y235733D01*
X270421Y235783D01*
X270357Y235829D01*
X270291Y235873D01*
X270223Y235913D01*
X270153Y235949D01*
X270081Y235983D01*
X270007Y236013D01*
X269933Y236039D01*
X269857Y236062D01*
X269780Y236080D01*
X269703Y236096D01*
X269624Y236107D01*
X269546Y236115D01*
X269467Y236119D01*
X269387Y236119D01*
X269308Y236115D01*
X269230Y236107D01*
X269151Y236096D01*
X269074Y236080D01*
X268997Y236062D01*
X268921Y236039D01*
X268847Y236013D01*
X268773Y235983D01*
X268701Y235949D01*
X268631Y235913D01*
X268563Y235873D01*
X268497Y235829D01*
X268433Y235783D01*
X268371Y235733D01*
X268312Y235681D01*
X268256Y235625D01*
X268202Y235568D01*
X268151Y235507D01*
X268103Y235444D01*
X268058Y235379D01*
X268016Y235312D01*
X267978Y235243D01*
X267942Y235172D01*
X267911Y235099D01*
X267883Y235025D01*
X267858Y234950D01*
X267838Y234874D01*
X267820Y234797D01*
X267807Y234719D01*
X267798Y234640D01*
X267792Y234561D01*
X267790Y234482D01*
X267792Y234403D01*
X267798Y234324D01*
X267807Y234245D01*
X267820Y234167D01*
X267838Y234090D01*
X267858Y234014D01*
X267883Y233939D01*
X267911Y233865D01*
X267942Y233792D01*
X267978Y233721D01*
X268016Y233652D01*
X268058Y233585D01*
X268103Y233520D01*
X268151Y233457D01*
X268202Y233396D01*
X268256Y233339D01*
X268312Y233283D01*
X268371Y233231D01*
X268433Y233181D01*
X268497Y233135D01*
X268563Y233091D01*
X268631Y233051D01*
X268701Y233015D01*
X268773Y232981D01*
X268847Y232951D01*
X268921Y232925D01*
X268997Y232902D01*
X269074Y232884D01*
X269151Y232868D01*
X269230Y232857D01*
X269308Y232849D01*
X269387Y232845D01*
X269467Y232845D01*
X269546Y232849D01*
X269624Y232857D01*
X269703Y232868D01*
X269780Y232884D01*
X269857Y232902D01*
X269933Y232925D01*
X270007Y232951D01*
X270081Y232981D01*
X270153Y233015D01*
X270223Y233051D01*
X270291Y233091D01*
X270357Y233135D01*
X270421Y233181D01*
X270483Y233231D01*
X270542Y233283D01*
X270598Y233339D01*
X270652Y233396D01*
X270703Y233457D01*
X270751Y233520D01*
X270796Y233585D01*
X270838Y233652D01*
X270876Y233721D01*
X270912Y233792D01*
X270943Y233865D01*
X270971Y233939D01*
X270996Y234014D01*
X271016Y234090D01*
X271034Y234167D01*
X271047Y234245D01*
X271056Y234324D01*
X271062Y234403D01*
X271064Y234482D01*
X276554Y92619D02*
X276554Y85253D01*
X276554Y92619D02*
X273280Y92619D01*
X273280Y89345D02*
X276554Y89345D01*
X268836Y88527D02*
X266381Y88527D01*
X268836Y88527D02*
X268914Y88529D01*
X268992Y88534D01*
X269069Y88544D01*
X269146Y88557D01*
X269222Y88573D01*
X269297Y88593D01*
X269371Y88617D01*
X269444Y88644D01*
X269516Y88675D01*
X269586Y88709D01*
X269655Y88746D01*
X269721Y88787D01*
X269786Y88831D01*
X269848Y88877D01*
X269908Y88927D01*
X269966Y88979D01*
X270021Y89034D01*
X270073Y89092D01*
X270123Y89152D01*
X270169Y89214D01*
X270213Y89279D01*
X270254Y89346D01*
X270291Y89414D01*
X270325Y89484D01*
X270356Y89556D01*
X270383Y89629D01*
X270407Y89703D01*
X270427Y89778D01*
X270443Y89854D01*
X270456Y89931D01*
X270466Y90008D01*
X270471Y90086D01*
X270473Y90164D01*
X270473Y90573D01*
X270471Y90662D01*
X270465Y90751D01*
X270455Y90840D01*
X270442Y90928D01*
X270425Y91016D01*
X270403Y91103D01*
X270378Y91188D01*
X270350Y91273D01*
X270317Y91356D01*
X270281Y91438D01*
X270242Y91518D01*
X270199Y91596D01*
X270153Y91672D01*
X270103Y91747D01*
X270050Y91819D01*
X269994Y91888D01*
X269935Y91955D01*
X269874Y92020D01*
X269809Y92081D01*
X269742Y92140D01*
X269673Y92196D01*
X269601Y92249D01*
X269526Y92299D01*
X269450Y92345D01*
X269372Y92388D01*
X269292Y92427D01*
X269210Y92463D01*
X269127Y92496D01*
X269042Y92524D01*
X268957Y92549D01*
X268870Y92571D01*
X268782Y92588D01*
X268694Y92601D01*
X268605Y92611D01*
X268516Y92617D01*
X268427Y92619D01*
X268338Y92617D01*
X268249Y92611D01*
X268160Y92601D01*
X268072Y92588D01*
X267984Y92571D01*
X267897Y92549D01*
X267812Y92524D01*
X267727Y92496D01*
X267644Y92463D01*
X267562Y92427D01*
X267482Y92388D01*
X267404Y92345D01*
X267328Y92299D01*
X267253Y92249D01*
X267181Y92196D01*
X267112Y92140D01*
X267045Y92081D01*
X266980Y92020D01*
X266919Y91955D01*
X266860Y91888D01*
X266804Y91819D01*
X266751Y91747D01*
X266701Y91672D01*
X266655Y91596D01*
X266612Y91518D01*
X266573Y91438D01*
X266537Y91356D01*
X266504Y91273D01*
X266476Y91188D01*
X266451Y91103D01*
X266429Y91016D01*
X266412Y90928D01*
X266399Y90840D01*
X266389Y90751D01*
X266383Y90662D01*
X266381Y90573D01*
X266381Y88527D01*
X266383Y88415D01*
X266389Y88304D01*
X266398Y88192D01*
X266411Y88081D01*
X266429Y87971D01*
X266449Y87861D01*
X266474Y87752D01*
X266502Y87644D01*
X266534Y87537D01*
X266570Y87431D01*
X266609Y87326D01*
X266652Y87223D01*
X266698Y87121D01*
X266748Y87021D01*
X266801Y86922D01*
X266858Y86826D01*
X266917Y86731D01*
X266980Y86639D01*
X267046Y86549D01*
X267115Y86461D01*
X267187Y86375D01*
X267262Y86292D01*
X267340Y86212D01*
X267420Y86134D01*
X267503Y86059D01*
X267589Y85987D01*
X267677Y85918D01*
X267767Y85852D01*
X267859Y85789D01*
X267954Y85730D01*
X268050Y85673D01*
X268149Y85620D01*
X268249Y85570D01*
X268351Y85524D01*
X268454Y85481D01*
X268559Y85442D01*
X268665Y85406D01*
X268772Y85374D01*
X268880Y85346D01*
X268989Y85321D01*
X269099Y85301D01*
X269209Y85283D01*
X269320Y85270D01*
X269432Y85261D01*
X269543Y85255D01*
X269655Y85253D01*
X264554Y784753D02*
X264554Y792119D01*
X261280Y792119D01*
X261280Y788845D02*
X264554Y788845D01*
X258473Y786390D02*
X256836Y792119D01*
X258473Y786390D02*
X254381Y786390D01*
X255609Y788027D02*
X255609Y784753D01*
X276554Y670619D02*
X276554Y663253D01*
X276554Y670619D02*
X273280Y670619D01*
X273280Y667345D02*
X276554Y667345D01*
X270473Y663253D02*
X268018Y663253D01*
X267938Y663255D01*
X267858Y663261D01*
X267778Y663271D01*
X267699Y663284D01*
X267620Y663302D01*
X267543Y663323D01*
X267467Y663349D01*
X267392Y663378D01*
X267318Y663410D01*
X267246Y663446D01*
X267176Y663486D01*
X267109Y663529D01*
X267043Y663575D01*
X266980Y663625D01*
X266919Y663677D01*
X266860Y663732D01*
X266805Y663791D01*
X266753Y663851D01*
X266703Y663915D01*
X266657Y663980D01*
X266614Y664048D01*
X266574Y664118D01*
X266538Y664190D01*
X266506Y664264D01*
X266477Y664338D01*
X266452Y664415D01*
X266430Y664492D01*
X266412Y664571D01*
X266399Y664650D01*
X266389Y664729D01*
X266383Y664810D01*
X266381Y664890D01*
X266381Y665708D01*
X266383Y665786D01*
X266388Y665864D01*
X266398Y665941D01*
X266411Y666018D01*
X266427Y666094D01*
X266447Y666169D01*
X266471Y666243D01*
X266498Y666316D01*
X266529Y666388D01*
X266563Y666458D01*
X266600Y666527D01*
X266641Y666593D01*
X266685Y666658D01*
X266731Y666720D01*
X266781Y666780D01*
X266833Y666838D01*
X266888Y666893D01*
X266946Y666945D01*
X267006Y666995D01*
X267068Y667041D01*
X267133Y667085D01*
X267200Y667126D01*
X267268Y667163D01*
X267338Y667197D01*
X267410Y667228D01*
X267483Y667255D01*
X267557Y667279D01*
X267632Y667299D01*
X267708Y667315D01*
X267785Y667328D01*
X267862Y667338D01*
X267940Y667343D01*
X268018Y667345D01*
X270473Y667345D01*
X270473Y670619D01*
X266381Y670619D01*
X277554Y526619D02*
X277554Y519253D01*
X277554Y526619D02*
X274280Y526619D01*
X274280Y523345D02*
X277554Y523345D01*
X271473Y523345D02*
X269018Y523345D01*
X268938Y523343D01*
X268858Y523337D01*
X268778Y523327D01*
X268699Y523314D01*
X268620Y523296D01*
X268543Y523275D01*
X268467Y523249D01*
X268392Y523220D01*
X268318Y523188D01*
X268246Y523152D01*
X268176Y523112D01*
X268109Y523069D01*
X268043Y523023D01*
X267980Y522973D01*
X267919Y522921D01*
X267860Y522866D01*
X267805Y522807D01*
X267753Y522747D01*
X267703Y522683D01*
X267657Y522617D01*
X267614Y522550D01*
X267574Y522480D01*
X267538Y522408D01*
X267506Y522334D01*
X267477Y522260D01*
X267451Y522183D01*
X267430Y522106D01*
X267412Y522027D01*
X267399Y521948D01*
X267389Y521868D01*
X267383Y521788D01*
X267381Y521708D01*
X267381Y521299D01*
X267383Y521210D01*
X267389Y521121D01*
X267399Y521032D01*
X267412Y520944D01*
X267429Y520856D01*
X267451Y520769D01*
X267476Y520684D01*
X267504Y520599D01*
X267537Y520516D01*
X267573Y520434D01*
X267612Y520354D01*
X267655Y520276D01*
X267701Y520200D01*
X267751Y520125D01*
X267804Y520053D01*
X267860Y519984D01*
X267919Y519917D01*
X267980Y519852D01*
X268045Y519791D01*
X268112Y519732D01*
X268181Y519676D01*
X268253Y519623D01*
X268328Y519573D01*
X268404Y519527D01*
X268482Y519484D01*
X268562Y519445D01*
X268644Y519409D01*
X268727Y519376D01*
X268812Y519348D01*
X268897Y519323D01*
X268984Y519301D01*
X269072Y519284D01*
X269160Y519271D01*
X269249Y519261D01*
X269338Y519255D01*
X269427Y519253D01*
X269516Y519255D01*
X269605Y519261D01*
X269694Y519271D01*
X269782Y519284D01*
X269870Y519301D01*
X269957Y519323D01*
X270042Y519348D01*
X270127Y519376D01*
X270210Y519409D01*
X270292Y519445D01*
X270372Y519484D01*
X270450Y519527D01*
X270526Y519573D01*
X270601Y519623D01*
X270673Y519676D01*
X270742Y519732D01*
X270809Y519791D01*
X270874Y519852D01*
X270935Y519917D01*
X270994Y519984D01*
X271050Y520053D01*
X271103Y520125D01*
X271153Y520200D01*
X271199Y520276D01*
X271242Y520354D01*
X271281Y520434D01*
X271317Y520516D01*
X271350Y520599D01*
X271378Y520684D01*
X271403Y520769D01*
X271425Y520856D01*
X271442Y520944D01*
X271455Y521032D01*
X271465Y521121D01*
X271471Y521210D01*
X271473Y521299D01*
X271473Y523345D01*
X271471Y523457D01*
X271465Y523568D01*
X271456Y523680D01*
X271443Y523791D01*
X271425Y523901D01*
X271405Y524011D01*
X271380Y524120D01*
X271352Y524228D01*
X271320Y524335D01*
X271284Y524441D01*
X271245Y524546D01*
X271202Y524649D01*
X271156Y524751D01*
X271106Y524851D01*
X271053Y524950D01*
X270996Y525046D01*
X270937Y525141D01*
X270874Y525233D01*
X270808Y525323D01*
X270739Y525411D01*
X270667Y525497D01*
X270592Y525580D01*
X270514Y525660D01*
X270434Y525738D01*
X270351Y525813D01*
X270265Y525885D01*
X270177Y525954D01*
X270087Y526020D01*
X269995Y526083D01*
X269900Y526142D01*
X269804Y526199D01*
X269705Y526252D01*
X269605Y526302D01*
X269503Y526348D01*
X269400Y526391D01*
X269295Y526430D01*
X269189Y526466D01*
X269082Y526498D01*
X268974Y526526D01*
X268865Y526551D01*
X268755Y526571D01*
X268645Y526589D01*
X268534Y526602D01*
X268422Y526611D01*
X268311Y526617D01*
X268199Y526619D01*
X227747Y483381D02*
X220381Y483381D01*
X227747Y483381D02*
X227747Y486655D01*
X224473Y486655D02*
X224473Y483381D01*
X220381Y489461D02*
X220381Y491507D01*
X220383Y491596D01*
X220389Y491685D01*
X220399Y491774D01*
X220412Y491862D01*
X220429Y491950D01*
X220451Y492037D01*
X220476Y492122D01*
X220504Y492207D01*
X220537Y492290D01*
X220573Y492372D01*
X220612Y492452D01*
X220655Y492530D01*
X220701Y492606D01*
X220751Y492681D01*
X220804Y492753D01*
X220860Y492822D01*
X220919Y492889D01*
X220980Y492954D01*
X221045Y493015D01*
X221112Y493074D01*
X221181Y493130D01*
X221253Y493183D01*
X221328Y493233D01*
X221404Y493279D01*
X221482Y493322D01*
X221562Y493361D01*
X221644Y493397D01*
X221727Y493430D01*
X221812Y493458D01*
X221897Y493483D01*
X221984Y493505D01*
X222072Y493522D01*
X222160Y493535D01*
X222249Y493545D01*
X222338Y493551D01*
X222427Y493553D01*
X222516Y493551D01*
X222605Y493545D01*
X222694Y493535D01*
X222782Y493522D01*
X222870Y493505D01*
X222957Y493483D01*
X223042Y493458D01*
X223127Y493430D01*
X223210Y493397D01*
X223292Y493361D01*
X223372Y493322D01*
X223450Y493279D01*
X223526Y493233D01*
X223601Y493183D01*
X223673Y493130D01*
X223742Y493074D01*
X223809Y493015D01*
X223874Y492954D01*
X223935Y492889D01*
X223994Y492822D01*
X224050Y492753D01*
X224103Y492681D01*
X224153Y492606D01*
X224199Y492530D01*
X224242Y492452D01*
X224281Y492372D01*
X224317Y492290D01*
X224350Y492207D01*
X224378Y492122D01*
X224403Y492037D01*
X224425Y491950D01*
X224442Y491862D01*
X224455Y491774D01*
X224465Y491685D01*
X224471Y491596D01*
X224473Y491507D01*
X227747Y491917D02*
X227747Y489461D01*
X227747Y491917D02*
X227745Y491996D01*
X227739Y492075D01*
X227730Y492154D01*
X227717Y492232D01*
X227699Y492309D01*
X227679Y492385D01*
X227654Y492460D01*
X227626Y492534D01*
X227595Y492607D01*
X227559Y492678D01*
X227521Y492747D01*
X227479Y492814D01*
X227434Y492879D01*
X227386Y492942D01*
X227335Y493003D01*
X227281Y493060D01*
X227225Y493116D01*
X227166Y493168D01*
X227104Y493218D01*
X227040Y493264D01*
X226974Y493308D01*
X226906Y493348D01*
X226836Y493384D01*
X226764Y493418D01*
X226690Y493448D01*
X226616Y493474D01*
X226540Y493497D01*
X226463Y493515D01*
X226386Y493531D01*
X226307Y493542D01*
X226229Y493550D01*
X226150Y493554D01*
X226070Y493554D01*
X225991Y493550D01*
X225913Y493542D01*
X225834Y493531D01*
X225757Y493515D01*
X225680Y493497D01*
X225604Y493474D01*
X225530Y493448D01*
X225456Y493418D01*
X225384Y493384D01*
X225314Y493348D01*
X225246Y493308D01*
X225180Y493264D01*
X225116Y493218D01*
X225054Y493168D01*
X224995Y493116D01*
X224939Y493060D01*
X224885Y493003D01*
X224834Y492942D01*
X224786Y492879D01*
X224741Y492814D01*
X224699Y492747D01*
X224661Y492678D01*
X224625Y492607D01*
X224594Y492534D01*
X224566Y492460D01*
X224541Y492385D01*
X224521Y492309D01*
X224503Y492232D01*
X224490Y492154D01*
X224481Y492075D01*
X224475Y491996D01*
X224473Y491917D01*
X224473Y490280D01*
X220387Y60269D02*
X220387Y52903D01*
X220387Y60269D02*
X218341Y60269D01*
X218252Y60267D01*
X218163Y60261D01*
X218074Y60251D01*
X217986Y60238D01*
X217898Y60221D01*
X217811Y60199D01*
X217726Y60174D01*
X217641Y60146D01*
X217558Y60113D01*
X217476Y60077D01*
X217396Y60038D01*
X217318Y59995D01*
X217242Y59949D01*
X217167Y59899D01*
X217095Y59846D01*
X217026Y59790D01*
X216959Y59731D01*
X216894Y59670D01*
X216833Y59605D01*
X216774Y59538D01*
X216718Y59469D01*
X216665Y59397D01*
X216615Y59322D01*
X216569Y59246D01*
X216526Y59168D01*
X216487Y59088D01*
X216451Y59006D01*
X216418Y58923D01*
X216390Y58838D01*
X216365Y58753D01*
X216343Y58666D01*
X216326Y58578D01*
X216313Y58490D01*
X216303Y58401D01*
X216297Y58312D01*
X216295Y58223D01*
X216297Y58134D01*
X216303Y58045D01*
X216313Y57956D01*
X216326Y57868D01*
X216343Y57780D01*
X216365Y57693D01*
X216390Y57608D01*
X216418Y57523D01*
X216451Y57440D01*
X216487Y57358D01*
X216526Y57278D01*
X216569Y57200D01*
X216615Y57124D01*
X216665Y57049D01*
X216718Y56977D01*
X216774Y56908D01*
X216833Y56841D01*
X216894Y56776D01*
X216959Y56715D01*
X217026Y56656D01*
X217095Y56600D01*
X217167Y56547D01*
X217242Y56497D01*
X217318Y56451D01*
X217396Y56408D01*
X217476Y56369D01*
X217558Y56333D01*
X217641Y56300D01*
X217726Y56272D01*
X217811Y56247D01*
X217898Y56225D01*
X217986Y56208D01*
X218074Y56195D01*
X218163Y56185D01*
X218252Y56179D01*
X218341Y56177D01*
X220387Y56177D01*
X217932Y56177D02*
X216295Y52903D01*
X213123Y52903D02*
X211077Y52903D01*
X210988Y52905D01*
X210899Y52911D01*
X210810Y52921D01*
X210722Y52934D01*
X210634Y52951D01*
X210547Y52973D01*
X210462Y52998D01*
X210377Y53026D01*
X210294Y53059D01*
X210212Y53095D01*
X210132Y53134D01*
X210054Y53177D01*
X209978Y53223D01*
X209903Y53273D01*
X209831Y53326D01*
X209762Y53382D01*
X209695Y53441D01*
X209630Y53502D01*
X209569Y53567D01*
X209510Y53634D01*
X209454Y53703D01*
X209401Y53775D01*
X209351Y53850D01*
X209305Y53926D01*
X209262Y54004D01*
X209223Y54084D01*
X209187Y54166D01*
X209154Y54249D01*
X209126Y54334D01*
X209101Y54419D01*
X209079Y54506D01*
X209062Y54594D01*
X209049Y54682D01*
X209039Y54771D01*
X209033Y54860D01*
X209031Y54949D01*
X209033Y55038D01*
X209039Y55127D01*
X209049Y55216D01*
X209062Y55304D01*
X209079Y55392D01*
X209101Y55479D01*
X209126Y55564D01*
X209154Y55649D01*
X209187Y55732D01*
X209223Y55814D01*
X209262Y55894D01*
X209305Y55972D01*
X209351Y56048D01*
X209401Y56123D01*
X209454Y56195D01*
X209510Y56264D01*
X209569Y56331D01*
X209630Y56396D01*
X209695Y56457D01*
X209762Y56516D01*
X209831Y56572D01*
X209903Y56625D01*
X209978Y56675D01*
X210054Y56721D01*
X210132Y56764D01*
X210212Y56803D01*
X210294Y56839D01*
X210377Y56872D01*
X210462Y56900D01*
X210547Y56925D01*
X210634Y56947D01*
X210722Y56964D01*
X210810Y56977D01*
X210899Y56987D01*
X210988Y56993D01*
X211077Y56995D01*
X210668Y60269D02*
X213123Y60269D01*
X210668Y60269D02*
X210589Y60267D01*
X210510Y60261D01*
X210431Y60252D01*
X210353Y60239D01*
X210276Y60221D01*
X210200Y60201D01*
X210125Y60176D01*
X210051Y60148D01*
X209978Y60117D01*
X209907Y60081D01*
X209838Y60043D01*
X209771Y60001D01*
X209706Y59956D01*
X209643Y59908D01*
X209582Y59857D01*
X209525Y59803D01*
X209469Y59747D01*
X209417Y59688D01*
X209367Y59626D01*
X209321Y59562D01*
X209277Y59496D01*
X209237Y59428D01*
X209201Y59358D01*
X209167Y59286D01*
X209137Y59212D01*
X209111Y59138D01*
X209088Y59062D01*
X209070Y58985D01*
X209054Y58908D01*
X209043Y58829D01*
X209035Y58751D01*
X209031Y58672D01*
X209031Y58592D01*
X209035Y58513D01*
X209043Y58435D01*
X209054Y58356D01*
X209070Y58279D01*
X209088Y58202D01*
X209111Y58126D01*
X209137Y58052D01*
X209167Y57978D01*
X209201Y57906D01*
X209237Y57836D01*
X209277Y57768D01*
X209321Y57702D01*
X209367Y57638D01*
X209417Y57576D01*
X209469Y57517D01*
X209525Y57461D01*
X209582Y57407D01*
X209643Y57356D01*
X209706Y57308D01*
X209771Y57263D01*
X209838Y57221D01*
X209907Y57183D01*
X209978Y57147D01*
X210051Y57116D01*
X210125Y57088D01*
X210200Y57063D01*
X210276Y57043D01*
X210353Y57025D01*
X210431Y57012D01*
X210510Y57003D01*
X210589Y56997D01*
X210668Y56995D01*
X212305Y56995D01*
X313387Y721903D02*
X313387Y729269D01*
X311341Y729269D01*
X311252Y729267D01*
X311163Y729261D01*
X311074Y729251D01*
X310986Y729238D01*
X310898Y729221D01*
X310811Y729199D01*
X310726Y729174D01*
X310641Y729146D01*
X310558Y729113D01*
X310476Y729077D01*
X310396Y729038D01*
X310318Y728995D01*
X310242Y728949D01*
X310167Y728899D01*
X310095Y728846D01*
X310026Y728790D01*
X309959Y728731D01*
X309894Y728670D01*
X309833Y728605D01*
X309774Y728538D01*
X309718Y728469D01*
X309665Y728397D01*
X309615Y728322D01*
X309569Y728246D01*
X309526Y728168D01*
X309487Y728088D01*
X309451Y728006D01*
X309418Y727923D01*
X309390Y727838D01*
X309365Y727753D01*
X309343Y727666D01*
X309326Y727578D01*
X309313Y727490D01*
X309303Y727401D01*
X309297Y727312D01*
X309295Y727223D01*
X309297Y727134D01*
X309303Y727045D01*
X309313Y726956D01*
X309326Y726868D01*
X309343Y726780D01*
X309365Y726693D01*
X309390Y726608D01*
X309418Y726523D01*
X309451Y726440D01*
X309487Y726358D01*
X309526Y726278D01*
X309569Y726200D01*
X309615Y726124D01*
X309665Y726049D01*
X309718Y725977D01*
X309774Y725908D01*
X309833Y725841D01*
X309894Y725776D01*
X309959Y725715D01*
X310026Y725656D01*
X310095Y725600D01*
X310167Y725547D01*
X310242Y725497D01*
X310318Y725451D01*
X310396Y725408D01*
X310476Y725369D01*
X310558Y725333D01*
X310641Y725300D01*
X310726Y725272D01*
X310811Y725247D01*
X310898Y725225D01*
X310986Y725208D01*
X311074Y725195D01*
X311163Y725185D01*
X311252Y725179D01*
X311341Y725177D01*
X313387Y725177D01*
X310932Y725177D02*
X309295Y721903D01*
X306123Y721903D02*
X303668Y721903D01*
X303588Y721905D01*
X303508Y721911D01*
X303428Y721921D01*
X303349Y721934D01*
X303270Y721952D01*
X303193Y721973D01*
X303117Y721999D01*
X303042Y722028D01*
X302968Y722060D01*
X302896Y722096D01*
X302826Y722136D01*
X302759Y722179D01*
X302693Y722225D01*
X302630Y722275D01*
X302569Y722327D01*
X302510Y722382D01*
X302455Y722441D01*
X302403Y722501D01*
X302353Y722565D01*
X302307Y722630D01*
X302264Y722698D01*
X302224Y722768D01*
X302188Y722840D01*
X302156Y722914D01*
X302127Y722988D01*
X302102Y723065D01*
X302080Y723142D01*
X302062Y723221D01*
X302049Y723300D01*
X302039Y723379D01*
X302033Y723460D01*
X302031Y723540D01*
X302031Y724358D01*
X302033Y724436D01*
X302038Y724514D01*
X302048Y724591D01*
X302061Y724668D01*
X302077Y724744D01*
X302097Y724819D01*
X302121Y724893D01*
X302148Y724966D01*
X302179Y725038D01*
X302213Y725108D01*
X302250Y725177D01*
X302291Y725243D01*
X302335Y725308D01*
X302381Y725370D01*
X302431Y725430D01*
X302483Y725488D01*
X302538Y725543D01*
X302596Y725595D01*
X302656Y725645D01*
X302718Y725691D01*
X302783Y725735D01*
X302850Y725776D01*
X302918Y725813D01*
X302988Y725847D01*
X303060Y725878D01*
X303133Y725905D01*
X303207Y725929D01*
X303282Y725949D01*
X303358Y725965D01*
X303435Y725978D01*
X303512Y725988D01*
X303590Y725993D01*
X303668Y725995D01*
X306123Y725995D01*
X306123Y729269D01*
X302031Y729269D01*
X312387Y693269D02*
X312387Y685903D01*
X312387Y693269D02*
X310341Y693269D01*
X310252Y693267D01*
X310163Y693261D01*
X310074Y693251D01*
X309986Y693238D01*
X309898Y693221D01*
X309811Y693199D01*
X309726Y693174D01*
X309641Y693146D01*
X309558Y693113D01*
X309476Y693077D01*
X309396Y693038D01*
X309318Y692995D01*
X309242Y692949D01*
X309167Y692899D01*
X309095Y692846D01*
X309026Y692790D01*
X308959Y692731D01*
X308894Y692670D01*
X308833Y692605D01*
X308774Y692538D01*
X308718Y692469D01*
X308665Y692397D01*
X308615Y692322D01*
X308569Y692246D01*
X308526Y692168D01*
X308487Y692088D01*
X308451Y692006D01*
X308418Y691923D01*
X308390Y691838D01*
X308365Y691753D01*
X308343Y691666D01*
X308326Y691578D01*
X308313Y691490D01*
X308303Y691401D01*
X308297Y691312D01*
X308295Y691223D01*
X308297Y691134D01*
X308303Y691045D01*
X308313Y690956D01*
X308326Y690868D01*
X308343Y690780D01*
X308365Y690693D01*
X308390Y690608D01*
X308418Y690523D01*
X308451Y690440D01*
X308487Y690358D01*
X308526Y690278D01*
X308569Y690200D01*
X308615Y690124D01*
X308665Y690049D01*
X308718Y689977D01*
X308774Y689908D01*
X308833Y689841D01*
X308894Y689776D01*
X308959Y689715D01*
X309026Y689656D01*
X309095Y689600D01*
X309167Y689547D01*
X309242Y689497D01*
X309318Y689451D01*
X309396Y689408D01*
X309476Y689369D01*
X309558Y689333D01*
X309641Y689300D01*
X309726Y689272D01*
X309811Y689247D01*
X309898Y689225D01*
X309986Y689208D01*
X310074Y689195D01*
X310163Y689185D01*
X310252Y689179D01*
X310341Y689177D01*
X312387Y689177D01*
X309932Y689177D02*
X308295Y685903D01*
X305123Y689995D02*
X302668Y689995D01*
X302588Y689993D01*
X302508Y689987D01*
X302428Y689977D01*
X302349Y689964D01*
X302270Y689946D01*
X302193Y689925D01*
X302117Y689899D01*
X302042Y689870D01*
X301968Y689838D01*
X301896Y689802D01*
X301826Y689762D01*
X301759Y689719D01*
X301693Y689673D01*
X301630Y689623D01*
X301569Y689571D01*
X301510Y689516D01*
X301455Y689457D01*
X301403Y689397D01*
X301353Y689333D01*
X301307Y689267D01*
X301264Y689200D01*
X301224Y689130D01*
X301188Y689058D01*
X301156Y688984D01*
X301127Y688910D01*
X301101Y688833D01*
X301080Y688756D01*
X301062Y688677D01*
X301049Y688598D01*
X301039Y688518D01*
X301033Y688438D01*
X301031Y688358D01*
X301031Y687949D01*
X301033Y687860D01*
X301039Y687771D01*
X301049Y687682D01*
X301062Y687594D01*
X301079Y687506D01*
X301101Y687419D01*
X301126Y687334D01*
X301154Y687249D01*
X301187Y687166D01*
X301223Y687084D01*
X301262Y687004D01*
X301305Y686926D01*
X301351Y686850D01*
X301401Y686775D01*
X301454Y686703D01*
X301510Y686634D01*
X301569Y686567D01*
X301630Y686502D01*
X301695Y686441D01*
X301762Y686382D01*
X301831Y686326D01*
X301903Y686273D01*
X301978Y686223D01*
X302054Y686177D01*
X302132Y686134D01*
X302212Y686095D01*
X302294Y686059D01*
X302377Y686026D01*
X302462Y685998D01*
X302547Y685973D01*
X302634Y685951D01*
X302722Y685934D01*
X302810Y685921D01*
X302899Y685911D01*
X302988Y685905D01*
X303077Y685903D01*
X303166Y685905D01*
X303255Y685911D01*
X303344Y685921D01*
X303432Y685934D01*
X303520Y685951D01*
X303607Y685973D01*
X303692Y685998D01*
X303777Y686026D01*
X303860Y686059D01*
X303942Y686095D01*
X304022Y686134D01*
X304100Y686177D01*
X304176Y686223D01*
X304251Y686273D01*
X304323Y686326D01*
X304392Y686382D01*
X304459Y686441D01*
X304524Y686502D01*
X304585Y686567D01*
X304644Y686634D01*
X304700Y686703D01*
X304753Y686775D01*
X304803Y686850D01*
X304849Y686926D01*
X304892Y687004D01*
X304931Y687084D01*
X304967Y687166D01*
X305000Y687249D01*
X305028Y687334D01*
X305053Y687419D01*
X305075Y687506D01*
X305092Y687594D01*
X305105Y687682D01*
X305115Y687771D01*
X305121Y687860D01*
X305123Y687949D01*
X305123Y689995D01*
X305121Y690107D01*
X305115Y690218D01*
X305106Y690330D01*
X305093Y690441D01*
X305075Y690551D01*
X305055Y690661D01*
X305030Y690770D01*
X305002Y690878D01*
X304970Y690985D01*
X304934Y691091D01*
X304895Y691196D01*
X304852Y691299D01*
X304806Y691401D01*
X304756Y691501D01*
X304703Y691600D01*
X304646Y691696D01*
X304587Y691791D01*
X304524Y691883D01*
X304458Y691973D01*
X304389Y692061D01*
X304317Y692147D01*
X304242Y692230D01*
X304164Y692310D01*
X304084Y692388D01*
X304001Y692463D01*
X303915Y692535D01*
X303827Y692604D01*
X303737Y692670D01*
X303645Y692733D01*
X303550Y692792D01*
X303454Y692849D01*
X303355Y692902D01*
X303255Y692952D01*
X303153Y692998D01*
X303050Y693041D01*
X302945Y693080D01*
X302839Y693116D01*
X302732Y693148D01*
X302624Y693176D01*
X302515Y693201D01*
X302405Y693221D01*
X302295Y693239D01*
X302184Y693252D01*
X302072Y693261D01*
X301961Y693267D01*
X301849Y693269D01*
M02*
