G04 EAGLE Gerber RS-274X export*
G75*
%MOMM*%
%FSLAX34Y34*%
%LPD*%
%INSoldermask Bottom*%
%IPPOS*%
%AMOC8*
5,1,8,0,0,1.08239X$1,22.5*%
G01*
%ADD10C,4.965700*%
%ADD11R,1.203200X1.303200*%
%ADD12R,1.303200X1.203200*%
%ADD13R,2.603200X2.003200*%
%ADD14R,1.733200X1.733200*%
%ADD15C,1.733200*%
%ADD16C,3.203200*%
%ADD17R,0.753200X1.403200*%
%ADD18C,1.311200*%
%ADD19P,2.556822X8X22.500000*%
%ADD20R,0.903200X1.203200*%
%ADD21C,0.903200*%
%ADD22R,2.703200X2.703200*%
%ADD23C,1.411200*%
%ADD24C,4.419200*%
%ADD25C,4.019200*%
%ADD26P,1.649562X8X22.500000*%
%ADD27C,1.524000*%
%ADD28C,0.990600*%
%ADD29C,1.109600*%


D10*
X30000Y30000D03*
X335000Y30000D03*
X335000Y850000D03*
X30000Y850000D03*
D11*
X35210Y203880D03*
X35210Y186880D03*
X95840Y528930D03*
X95840Y545930D03*
X249310Y214960D03*
X249310Y197960D03*
D12*
X128070Y129460D03*
X145070Y129460D03*
X178970Y266820D03*
X161970Y266820D03*
X145970Y339590D03*
X128970Y339590D03*
X210530Y349320D03*
X193530Y349320D03*
X151210Y416980D03*
X168210Y416980D03*
D11*
X210920Y371620D03*
X210920Y388620D03*
X220690Y197680D03*
X220690Y214680D03*
D13*
X105860Y486850D03*
X105860Y446350D03*
D14*
X63270Y526000D03*
D15*
X63270Y556000D03*
D16*
X20070Y541000D03*
D11*
X74730Y672120D03*
X57730Y672120D03*
X77600Y394650D03*
X60600Y394650D03*
X77600Y422520D03*
X60600Y422520D03*
X64080Y612770D03*
X47080Y612770D03*
X63810Y479500D03*
X46810Y479500D03*
X45221Y345944D03*
X62221Y345944D03*
D17*
X170480Y365879D03*
X160980Y365879D03*
X151480Y365879D03*
X151480Y391881D03*
X170480Y391881D03*
D12*
X179760Y132100D03*
X196760Y132100D03*
X61050Y142900D03*
X44050Y142900D03*
D11*
X29720Y279780D03*
X29720Y296780D03*
D18*
X71583Y105640D03*
X97783Y105640D03*
X124783Y105640D03*
X151783Y105640D03*
X179583Y105640D03*
X207383Y105640D03*
X71583Y308840D03*
X97783Y308840D03*
X124783Y308840D03*
X151783Y308840D03*
X179583Y308840D03*
X207383Y308840D03*
D12*
X263500Y141000D03*
X280500Y141000D03*
X263500Y285000D03*
X280500Y285000D03*
X263500Y430000D03*
X280500Y430000D03*
X222500Y805000D03*
X205500Y805000D03*
X262500Y721000D03*
X279500Y721000D03*
X262500Y576000D03*
X279500Y576000D03*
D19*
X166000Y669000D03*
D20*
X113000Y647000D03*
X122500Y623000D03*
X103500Y623000D03*
D13*
X206500Y408750D03*
X206500Y449250D03*
D11*
X53500Y274000D03*
X70500Y274000D03*
D12*
X158000Y797500D03*
X158000Y814500D03*
D11*
X292500Y786000D03*
X309500Y786000D03*
X291500Y641000D03*
X308500Y641000D03*
X293500Y495000D03*
X310500Y495000D03*
X288500Y351000D03*
X305500Y351000D03*
X289500Y208000D03*
X306500Y208000D03*
X280500Y393000D03*
X263500Y393000D03*
X280500Y248000D03*
X263500Y248000D03*
X280500Y106000D03*
X263500Y106000D03*
X268500Y804000D03*
X251500Y804000D03*
X279500Y684000D03*
X262500Y684000D03*
X280500Y539000D03*
X263500Y539000D03*
D12*
X207000Y480500D03*
X207000Y497500D03*
D11*
X222500Y73000D03*
X205500Y73000D03*
D21*
X43000Y428500D03*
X43000Y389500D03*
D22*
X24000Y373000D03*
X24000Y445000D03*
D23*
X52000Y442000D02*
X52000Y454080D01*
X52000Y376000D02*
X52000Y363920D01*
D24*
X138000Y747000D03*
D25*
X75500Y747000D03*
X109500Y699000D03*
D26*
X172160Y472000D03*
D27*
X151840Y472000D03*
D11*
X298500Y741000D03*
X315500Y741000D03*
X298500Y705000D03*
X315500Y705000D03*
D28*
X276000Y222000D03*
X38000Y240000D03*
X40000Y172000D03*
X212500Y267500D03*
X276000Y340000D03*
X336000Y166000D03*
X336000Y799000D03*
X32000Y655000D03*
X149000Y607000D03*
X169000Y607000D03*
X189000Y607000D03*
X209000Y607000D03*
X149000Y587000D03*
X149000Y567000D03*
X149000Y547000D03*
X149000Y527000D03*
X169000Y527000D03*
X169000Y547000D03*
X169000Y567000D03*
X209000Y567000D03*
X230000Y567000D03*
X189000Y547000D03*
X209000Y547000D03*
X229000Y547000D03*
X169000Y587000D03*
X189000Y587000D03*
X209000Y587000D03*
X229000Y587000D03*
X229000Y607000D03*
X189000Y527000D03*
X209000Y527000D03*
X229000Y527000D03*
D29*
X21000Y501000D03*
D28*
X189000Y567000D03*
X193500Y790000D03*
X229000Y768000D03*
X273000Y768000D03*
X273000Y467000D03*
X248000Y169000D03*
X276000Y609000D03*
X303000Y73000D03*
X276000Y301500D03*
X333000Y602000D03*
X232000Y668000D03*
X299000Y758000D03*
X143000Y202000D03*
X275000Y168500D03*
X42000Y693000D03*
X33061Y515061D03*
X14000Y319000D03*
X153000Y174000D03*
X333000Y431000D03*
X160000Y206000D03*
X277000Y266000D03*
X333000Y576000D03*
X333000Y704500D03*
X335061Y129939D03*
X248000Y153000D03*
X333000Y444000D03*
X333000Y297000D03*
X335000Y146000D03*
X280000Y509000D03*
X333000Y734000D03*
X333000Y589000D03*
X233000Y182000D03*
X245000Y229000D03*
X75000Y345000D03*
X138061Y381061D03*
X61946Y320301D03*
X77000Y373000D03*
X54114Y329554D03*
D29*
X86000Y600000D03*
X109000Y508000D03*
D28*
X263500Y367000D03*
X183000Y444000D03*
X129000Y480000D03*
D29*
X81000Y469000D03*
D28*
X38000Y222000D03*
X116000Y134500D03*
X174000Y159000D03*
X14000Y333000D03*
X113000Y423000D03*
X82000Y186000D03*
X238000Y783000D03*
X236000Y503000D03*
X226000Y642000D03*
X139000Y217000D03*
X252000Y341000D03*
X339000Y457000D03*
X105000Y192000D03*
X253000Y703000D03*
X320000Y759000D03*
X156000Y227000D03*
X245000Y247000D03*
X288000Y335000D03*
X93140Y234860D03*
X291000Y188000D03*
X241000Y139000D03*
X122000Y204000D03*
X249000Y483000D03*
X301000Y614000D03*
X55000Y597000D03*
X345000Y258000D03*
X276000Y316000D03*
X34000Y257000D03*
X124000Y172000D03*
X197000Y276000D03*
X183000Y426000D03*
X52000Y160000D03*
X194000Y319000D03*
X120000Y289000D03*
X48000Y508000D03*
X20000Y582000D03*
X110711Y853387D03*
X143000Y859000D03*
X298602Y803000D03*
X292000Y660000D03*
X306000Y335000D03*
X321000Y468000D03*
X307000Y193000D03*
X291000Y370000D03*
X319000Y239000D03*
X320000Y91000D03*
X269000Y820000D03*
X321000Y668000D03*
X320000Y526000D03*
D29*
X81000Y489000D03*
X184000Y503000D03*
X129860Y493860D03*
D28*
X30000Y333000D03*
X55000Y303000D03*
X44000Y76000D03*
X261000Y73000D03*
X75000Y440000D03*
M02*
