G75*
%MOIN*%
%OFA0B0*%
%FSLAX25Y25*%
%IPPOS*%
%LPD*%
%AMOC8*
5,1,8,0,0,1.08239X$1,22.5*
%
%ADD10R,0.04331X0.03937*%
%ADD11R,0.03937X0.04331*%
%ADD12OC8,0.06300*%
%ADD13C,0.06300*%
%ADD14C,0.06000*%
%ADD15C,0.04724*%
%ADD16R,0.04724X0.04724*%
%ADD17C,0.06000*%
%ADD18OC8,0.07600*%
%ADD19R,0.12992X0.12992*%
%ADD20C,0.12992*%
%ADD21C,0.06500*%
%ADD22C,0.01772*%
%ADD23R,0.06040X0.13760*%
%ADD24C,0.13583*%
%ADD25C,0.05433*%
%ADD26R,0.09100X0.08900*%
D10*
X0005984Y0047008D03*
X0012677Y0047008D03*
X0012520Y0055591D03*
X0005827Y0055591D03*
X0047717Y0076880D03*
X0054409Y0076880D03*
X0051654Y0068524D03*
X0058346Y0068524D03*
X0058346Y0060000D03*
X0051654Y0060000D03*
X0051654Y0050000D03*
X0058346Y0050000D03*
X0072008Y0078681D03*
X0078701Y0078681D03*
X0013465Y0114921D03*
X0006772Y0114921D03*
X0006181Y0123504D03*
X0012874Y0123504D03*
X0012874Y0181850D03*
X0006181Y0181850D03*
X0006575Y0190709D03*
X0013268Y0190709D03*
X0060512Y0016142D03*
X0060512Y0009449D03*
X0129724Y0007835D03*
X0129724Y0014528D03*
X0305236Y0178691D03*
X0311929Y0178691D03*
X0312402Y0187165D03*
X0305709Y0187165D03*
D11*
X0120630Y0014646D03*
X0120630Y0007953D03*
X0111417Y0007756D03*
X0111417Y0014449D03*
X0095000Y0049154D03*
X0095000Y0055846D03*
X0085000Y0055846D03*
X0085000Y0049154D03*
X0075000Y0049154D03*
X0075000Y0055846D03*
X0079154Y0062500D03*
X0085846Y0062500D03*
X0085846Y0070531D03*
X0079154Y0070531D03*
X0075000Y0086122D03*
X0075000Y0092815D03*
X0085000Y0092815D03*
X0085000Y0086122D03*
X0099764Y0078937D03*
X0106457Y0078937D03*
X0065000Y0084154D03*
X0065000Y0090846D03*
X0054803Y0085010D03*
X0048110Y0085010D03*
X0065000Y0055846D03*
X0065000Y0049154D03*
X0051417Y0015827D03*
X0051417Y0009134D03*
X0042520Y0009055D03*
X0042520Y0015748D03*
X0012480Y0037913D03*
X0005787Y0037913D03*
X0006535Y0106496D03*
X0013228Y0106496D03*
X0013150Y0172756D03*
X0006457Y0172756D03*
D12*
X0152283Y0070701D03*
X0152913Y0105346D03*
X0166693Y0037866D03*
X0200157Y0028299D03*
D13*
X0200157Y0014299D03*
X0166693Y0023866D03*
X0152283Y0056701D03*
X0152913Y0091346D03*
D14*
X0015402Y0224055D02*
X0009402Y0224055D01*
X0009402Y0234055D02*
X0015402Y0234055D01*
X0015402Y0244055D02*
X0009402Y0244055D01*
X0009402Y0254055D02*
X0015402Y0254055D01*
X0326331Y0208661D02*
X0332331Y0208661D01*
X0332331Y0198661D02*
X0326331Y0198661D01*
X0326331Y0188661D02*
X0332331Y0188661D01*
X0332331Y0178661D02*
X0326331Y0178661D01*
D15*
X0253150Y0264488D03*
D16*
X0253150Y0272362D03*
D17*
X0306811Y0055276D03*
X0316811Y0055276D03*
X0326811Y0055276D03*
X0326811Y0045276D03*
X0316811Y0045276D03*
X0306811Y0045276D03*
X0306811Y0035276D03*
X0316811Y0035276D03*
X0326811Y0035276D03*
X0326811Y0025276D03*
X0316811Y0025276D03*
X0306811Y0025276D03*
X0306811Y0015276D03*
X0316811Y0015276D03*
X0326811Y0015276D03*
D18*
X0252677Y0110433D03*
D19*
X0310886Y0228622D03*
X0310846Y0247323D03*
D20*
X0325846Y0247323D03*
X0325886Y0228622D03*
D21*
X0234252Y0267992D03*
X0224252Y0267992D03*
X0214252Y0267992D03*
X0204252Y0267992D03*
X0194252Y0267992D03*
X0184252Y0267992D03*
X0174252Y0267992D03*
X0164252Y0267992D03*
X0154252Y0267992D03*
X0144252Y0267992D03*
X0134252Y0267992D03*
X0124252Y0267992D03*
X0114252Y0267992D03*
X0104252Y0267992D03*
X0094252Y0267992D03*
X0084252Y0267992D03*
X0074252Y0267992D03*
X0064252Y0267992D03*
X0054252Y0267992D03*
X0044252Y0267992D03*
X0044252Y0277992D03*
X0054252Y0277992D03*
X0064252Y0277992D03*
X0074252Y0277992D03*
X0084252Y0277992D03*
X0094252Y0277992D03*
X0104252Y0277992D03*
X0114252Y0277992D03*
X0124252Y0277992D03*
X0134252Y0277992D03*
X0144252Y0277992D03*
X0154252Y0277992D03*
X0164252Y0277992D03*
X0174252Y0277992D03*
X0184252Y0277992D03*
X0194252Y0277992D03*
X0204252Y0277992D03*
X0214252Y0277992D03*
X0224252Y0277992D03*
X0234252Y0277992D03*
X0234252Y0138228D03*
X0234252Y0128228D03*
X0224252Y0128228D03*
X0214252Y0128228D03*
X0204252Y0128228D03*
X0194252Y0128228D03*
X0184252Y0128228D03*
X0174252Y0128228D03*
X0164252Y0128228D03*
X0154252Y0128228D03*
X0144252Y0128228D03*
X0134252Y0128228D03*
X0124252Y0128228D03*
X0114252Y0128228D03*
X0104252Y0128228D03*
X0094252Y0128228D03*
X0084252Y0128228D03*
X0074252Y0128228D03*
X0064252Y0128228D03*
X0054252Y0128228D03*
X0044252Y0128228D03*
X0044252Y0138228D03*
X0054252Y0138228D03*
X0064252Y0138228D03*
X0074252Y0138228D03*
X0084252Y0138228D03*
X0094252Y0138228D03*
X0104252Y0138228D03*
X0114252Y0138228D03*
X0124252Y0138228D03*
X0134252Y0138228D03*
X0144252Y0138228D03*
X0154252Y0138228D03*
X0164252Y0138228D03*
X0174252Y0138228D03*
X0184252Y0138228D03*
X0194252Y0138228D03*
X0204252Y0138228D03*
X0214252Y0138228D03*
X0224252Y0138228D03*
D22*
X0243671Y0042598D02*
X0249399Y0042598D01*
X0249399Y0037874D02*
X0243671Y0037874D01*
X0243671Y0033150D02*
X0249399Y0033150D01*
D23*
X0246525Y0037864D03*
D24*
X0010492Y0018268D03*
X0027500Y0012500D03*
X0079232Y0012500D03*
X0095000Y0012500D03*
X0146732Y0012500D03*
X0010492Y0070000D03*
X0010000Y0085768D03*
X0010000Y0137500D03*
X0010000Y0153268D03*
X0010000Y0205000D03*
D25*
X0020669Y0192913D03*
X0020669Y0183071D03*
X0020669Y0175197D03*
X0020669Y0165354D03*
X0020669Y0125413D03*
X0020669Y0115571D03*
X0020669Y0107697D03*
X0020669Y0097854D03*
X0021161Y0057913D03*
X0021161Y0048071D03*
X0021161Y0040197D03*
X0021161Y0030354D03*
X0039587Y0023169D03*
X0049429Y0023169D03*
X0057303Y0023169D03*
X0067146Y0023169D03*
X0107087Y0023169D03*
X0116929Y0023169D03*
X0124803Y0023169D03*
X0134646Y0023169D03*
D26*
X0281520Y0218504D03*
X0297220Y0218504D03*
M02*
