G75*
%MOIN*%
%OFA0B0*%
%FSLAX25Y25*%
%IPPOS*%
%LPD*%
%AMOC8*
5,1,8,0,0,1.08239X$1,22.5*
%
%ADD10R,0.04331X0.03937*%
%ADD11R,0.03937X0.04331*%
%ADD12OC8,0.06300*%
%ADD13C,0.06300*%
%ADD14C,0.06000*%
%ADD15C,0.04724*%
%ADD16R,0.04724X0.04724*%
%ADD17C,0.06000*%
%ADD18OC8,0.07600*%
%ADD19R,0.12992X0.12992*%
%ADD20C,0.12992*%
%ADD21C,0.06500*%
%ADD22C,0.01772*%
%ADD23C,0.01000*%
%ADD24C,0.13583*%
%ADD25C,0.05433*%
%ADD26R,0.09100X0.08900*%
%ADD27C,0.01181*%
%ADD28C,0.02362*%
%ADD29C,0.02362*%
%ADD30C,0.00787*%
D10*
X0005984Y0047008D03*
X0012677Y0047008D03*
X0012520Y0055591D03*
X0005827Y0055591D03*
X0047717Y0076880D03*
X0054409Y0076880D03*
X0051654Y0068524D03*
X0058346Y0068524D03*
X0058346Y0060000D03*
X0051654Y0060000D03*
X0051654Y0050000D03*
X0058346Y0050000D03*
X0072008Y0078681D03*
X0078701Y0078681D03*
X0013465Y0114921D03*
X0006772Y0114921D03*
X0006181Y0123504D03*
X0012874Y0123504D03*
X0012874Y0181850D03*
X0006181Y0181850D03*
X0006575Y0190709D03*
X0013268Y0190709D03*
X0060512Y0016142D03*
X0060512Y0009449D03*
X0129724Y0007835D03*
X0129724Y0014528D03*
X0305236Y0178691D03*
X0311929Y0178691D03*
X0312402Y0187165D03*
X0305709Y0187165D03*
D11*
X0120630Y0014646D03*
X0120630Y0007953D03*
X0111417Y0007756D03*
X0111417Y0014449D03*
X0095000Y0049154D03*
X0095000Y0055846D03*
X0085000Y0055846D03*
X0085000Y0049154D03*
X0075000Y0049154D03*
X0075000Y0055846D03*
X0079154Y0062500D03*
X0085846Y0062500D03*
X0085846Y0070531D03*
X0079154Y0070531D03*
X0075000Y0086122D03*
X0075000Y0092815D03*
X0085000Y0092815D03*
X0085000Y0086122D03*
X0099764Y0078937D03*
X0106457Y0078937D03*
X0065000Y0084154D03*
X0065000Y0090846D03*
X0054803Y0085010D03*
X0048110Y0085010D03*
X0065000Y0055846D03*
X0065000Y0049154D03*
X0051417Y0015827D03*
X0051417Y0009134D03*
X0042520Y0009055D03*
X0042520Y0015748D03*
X0012480Y0037913D03*
X0005787Y0037913D03*
X0006535Y0106496D03*
X0013228Y0106496D03*
X0013150Y0172756D03*
X0006457Y0172756D03*
D12*
X0152283Y0070701D03*
X0152913Y0105346D03*
X0166693Y0037866D03*
X0200157Y0028299D03*
D13*
X0200157Y0014299D03*
X0166693Y0023866D03*
X0152283Y0056701D03*
X0152913Y0091346D03*
D14*
X0015402Y0224055D02*
X0009402Y0224055D01*
X0009402Y0234055D02*
X0015402Y0234055D01*
X0015402Y0244055D02*
X0009402Y0244055D01*
X0009402Y0254055D02*
X0015402Y0254055D01*
X0326331Y0208661D02*
X0332331Y0208661D01*
X0332331Y0198661D02*
X0326331Y0198661D01*
X0326331Y0188661D02*
X0332331Y0188661D01*
X0332331Y0178661D02*
X0326331Y0178661D01*
D15*
X0253150Y0264488D03*
D16*
X0253150Y0272362D03*
D17*
X0306811Y0055276D03*
X0316811Y0055276D03*
X0326811Y0055276D03*
X0326811Y0045276D03*
X0316811Y0045276D03*
X0306811Y0045276D03*
X0306811Y0035276D03*
X0316811Y0035276D03*
X0326811Y0035276D03*
X0326811Y0025276D03*
X0316811Y0025276D03*
X0306811Y0025276D03*
X0306811Y0015276D03*
X0316811Y0015276D03*
X0326811Y0015276D03*
D18*
X0252677Y0110433D03*
D19*
X0310886Y0228622D03*
X0310846Y0247323D03*
D20*
X0325846Y0247323D03*
X0325886Y0228622D03*
D21*
X0234252Y0267992D03*
X0224252Y0267992D03*
X0214252Y0267992D03*
X0204252Y0267992D03*
X0194252Y0267992D03*
X0184252Y0267992D03*
X0174252Y0267992D03*
X0164252Y0267992D03*
X0154252Y0267992D03*
X0144252Y0267992D03*
X0134252Y0267992D03*
X0124252Y0267992D03*
X0114252Y0267992D03*
X0104252Y0267992D03*
X0094252Y0267992D03*
X0084252Y0267992D03*
X0074252Y0267992D03*
X0064252Y0267992D03*
X0054252Y0267992D03*
X0044252Y0267992D03*
X0044252Y0277992D03*
X0054252Y0277992D03*
X0064252Y0277992D03*
X0074252Y0277992D03*
X0084252Y0277992D03*
X0094252Y0277992D03*
X0104252Y0277992D03*
X0114252Y0277992D03*
X0124252Y0277992D03*
X0134252Y0277992D03*
X0144252Y0277992D03*
X0154252Y0277992D03*
X0164252Y0277992D03*
X0174252Y0277992D03*
X0184252Y0277992D03*
X0194252Y0277992D03*
X0204252Y0277992D03*
X0214252Y0277992D03*
X0224252Y0277992D03*
X0234252Y0277992D03*
X0234252Y0138228D03*
X0234252Y0128228D03*
X0224252Y0128228D03*
X0214252Y0128228D03*
X0204252Y0128228D03*
X0194252Y0128228D03*
X0184252Y0128228D03*
X0174252Y0128228D03*
X0164252Y0128228D03*
X0154252Y0128228D03*
X0144252Y0128228D03*
X0134252Y0128228D03*
X0124252Y0128228D03*
X0114252Y0128228D03*
X0104252Y0128228D03*
X0094252Y0128228D03*
X0084252Y0128228D03*
X0074252Y0128228D03*
X0064252Y0128228D03*
X0054252Y0128228D03*
X0044252Y0128228D03*
X0044252Y0138228D03*
X0054252Y0138228D03*
X0064252Y0138228D03*
X0074252Y0138228D03*
X0084252Y0138228D03*
X0094252Y0138228D03*
X0104252Y0138228D03*
X0114252Y0138228D03*
X0124252Y0138228D03*
X0134252Y0138228D03*
X0144252Y0138228D03*
X0154252Y0138228D03*
X0164252Y0138228D03*
X0174252Y0138228D03*
X0184252Y0138228D03*
X0194252Y0138228D03*
X0204252Y0138228D03*
X0214252Y0138228D03*
X0224252Y0138228D03*
D22*
X0243671Y0042598D02*
X0249399Y0042598D01*
X0249399Y0037874D02*
X0243671Y0037874D01*
X0243671Y0033150D02*
X0249399Y0033150D01*
D23*
X0250535Y0033150D02*
X0246535Y0033150D01*
X0242535Y0033150D01*
X0242535Y0037874D02*
X0246535Y0037874D01*
X0250535Y0037874D01*
X0250535Y0042598D02*
X0246535Y0042598D01*
X0242535Y0042598D01*
D24*
X0146732Y0012500D03*
X0095000Y0012500D03*
X0079232Y0012500D03*
X0027500Y0012500D03*
X0010492Y0018268D03*
X0010492Y0070000D03*
X0010000Y0085768D03*
X0010000Y0137500D03*
X0010000Y0153268D03*
X0010000Y0205000D03*
D25*
X0020669Y0192913D03*
X0020669Y0183071D03*
X0020669Y0175197D03*
X0020669Y0165354D03*
X0020669Y0125413D03*
X0020669Y0115571D03*
X0020669Y0107697D03*
X0020669Y0097854D03*
X0021161Y0057913D03*
X0021161Y0048071D03*
X0021161Y0040197D03*
X0021161Y0030354D03*
X0039587Y0023169D03*
X0049429Y0023169D03*
X0057303Y0023169D03*
X0067146Y0023169D03*
X0107087Y0023169D03*
X0116929Y0023169D03*
X0124803Y0023169D03*
X0134646Y0023169D03*
D26*
X0281520Y0218504D03*
X0297220Y0218504D03*
D27*
X0010000Y0018268D02*
X0005787Y0022480D01*
X0005787Y0037913D01*
X0005787Y0046811D01*
X0005984Y0047008D01*
X0005984Y0055433D01*
X0005827Y0055591D01*
X0005827Y0065827D01*
X0010000Y0070000D01*
X0010492Y0070000D01*
X0010000Y0085768D02*
X0006535Y0089232D01*
X0006535Y0106496D01*
X0006772Y0106732D01*
X0006772Y0114921D01*
X0006181Y0115512D01*
X0006181Y0123504D01*
X0006181Y0133681D01*
X0010000Y0137500D01*
X0012874Y0123504D02*
X0012874Y0115512D01*
X0013465Y0114921D01*
X0013465Y0106732D01*
X0013228Y0106496D01*
X0013228Y0100945D01*
X0016319Y0097854D01*
X0020669Y0097854D01*
X0043307Y0097441D02*
X0043307Y0089813D01*
X0048110Y0085010D01*
X0048110Y0077274D01*
X0047717Y0076880D01*
X0054409Y0076880D02*
X0055640Y0078110D01*
X0056457Y0078110D01*
X0059055Y0080709D01*
X0059055Y0083661D01*
X0054803Y0085010D02*
X0054803Y0087421D01*
X0053396Y0088829D01*
X0065000Y0090846D02*
X0065000Y0096496D01*
X0066929Y0098425D01*
X0075000Y0092815D02*
X0077067Y0092815D01*
X0082431Y0098179D01*
X0081059Y0100394D02*
X0081453Y0100787D01*
X0083656Y0100787D01*
X0085039Y0099404D01*
X0085045Y0099409D01*
X0105315Y0099409D01*
X0098425Y0104331D02*
X0098425Y0118110D01*
X0092512Y0121317D02*
X0207423Y0121317D01*
X0238189Y0090551D01*
X0231791Y0090551D02*
X0231791Y0079232D01*
X0242126Y0068898D01*
X0246063Y0070866D02*
X0250000Y0070866D01*
X0261811Y0082677D01*
X0261811Y0179134D01*
X0248031Y0192913D01*
X0248031Y0224409D01*
X0253445Y0229823D01*
X0263780Y0234252D02*
X0263780Y0208661D01*
X0271654Y0200787D01*
X0327205Y0200787D01*
X0329331Y0198661D01*
X0327362Y0206693D02*
X0329331Y0208661D01*
X0327362Y0206693D02*
X0273622Y0206693D01*
X0267717Y0212598D01*
X0267717Y0242126D01*
X0247039Y0262803D01*
X0180110Y0262803D01*
X0179134Y0263780D01*
X0179134Y0273110D01*
X0174252Y0277992D01*
X0169291Y0281496D02*
X0171260Y0283465D01*
X0179134Y0283465D01*
X0181102Y0281496D01*
X0181102Y0281142D01*
X0184252Y0277992D01*
X0169291Y0281496D02*
X0169291Y0261811D01*
X0173228Y0257874D01*
X0242126Y0257874D01*
X0244094Y0255906D01*
X0244094Y0253937D01*
X0263780Y0234252D01*
X0273622Y0229823D02*
X0294783Y0229823D01*
X0302411Y0237451D01*
X0333169Y0237451D01*
X0334892Y0239173D01*
X0334892Y0253691D01*
X0333415Y0255167D01*
X0314715Y0196850D02*
X0314715Y0192913D01*
X0313730Y0191929D01*
X0306102Y0191929D01*
X0305709Y0191535D01*
X0305709Y0187165D01*
X0305236Y0186693D01*
X0305236Y0178691D01*
X0311929Y0178691D02*
X0311929Y0180197D01*
X0318898Y0187165D01*
X0320827Y0187165D01*
X0329331Y0178661D01*
X0318898Y0187165D02*
X0312402Y0187165D01*
X0309055Y0169291D02*
X0273622Y0133858D01*
X0257874Y0086614D02*
X0247293Y0086614D01*
X0250000Y0066929D02*
X0287402Y0066929D01*
X0299213Y0055118D01*
X0299213Y0015748D01*
X0306811Y0015748D01*
X0306811Y0015276D01*
X0311533Y0012149D02*
X0307259Y0007874D01*
X0257874Y0007874D01*
X0253937Y0033150D02*
X0246535Y0033150D01*
X0246535Y0037874D02*
X0238661Y0037874D01*
X0238189Y0037402D01*
X0246535Y0042598D02*
X0257874Y0042598D01*
X0257874Y0042323D01*
X0253937Y0036417D02*
X0253937Y0033150D01*
X0263780Y0049213D02*
X0281496Y0049213D01*
X0281496Y0045276D01*
X0285433Y0053150D02*
X0285433Y0057087D01*
X0259843Y0057087D01*
X0259843Y0055118D01*
X0226378Y0047244D02*
X0224163Y0045030D01*
X0128445Y0045030D01*
X0125984Y0047490D01*
X0125984Y0065699D01*
X0120079Y0069390D02*
X0118504Y0067815D01*
X0118504Y0056108D01*
X0117120Y0054724D01*
X0107874Y0054724D01*
X0098425Y0045276D01*
X0089813Y0045276D01*
X0085000Y0049154D02*
X0080709Y0044862D01*
X0080709Y0041339D01*
X0074803Y0041339D02*
X0074803Y0048957D01*
X0075000Y0049154D01*
X0075000Y0055846D02*
X0075000Y0060827D01*
X0069882Y0065945D01*
X0073819Y0065945D02*
X0077264Y0062500D01*
X0079154Y0062500D01*
X0085000Y0056654D01*
X0085000Y0055846D01*
X0095000Y0055846D01*
X0100394Y0055118D02*
X0100394Y0051181D01*
X0098425Y0049213D01*
X0095059Y0049213D01*
X0095000Y0049154D01*
X0102362Y0057087D02*
X0116142Y0057087D01*
X0114419Y0059793D02*
X0103593Y0059793D01*
X0100394Y0062992D01*
X0100394Y0059055D02*
X0102362Y0057087D01*
X0103839Y0066929D02*
X0110236Y0066929D01*
X0100394Y0066929D02*
X0090276Y0066929D01*
X0085846Y0062500D01*
X0085846Y0070531D02*
X0100059Y0070531D01*
X0100394Y0070866D01*
X0097598Y0076772D02*
X0099764Y0078937D01*
X0097598Y0076772D02*
X0086614Y0076772D01*
X0085000Y0078498D02*
X0085000Y0086122D01*
X0085000Y0086969D01*
X0090551Y0092520D01*
X0085000Y0092815D02*
X0085000Y0097407D01*
X0085039Y0097447D01*
X0085039Y0099404D01*
X0081059Y0100394D02*
X0079970Y0100394D01*
X0075000Y0086122D02*
X0075000Y0081181D01*
X0072500Y0078681D01*
X0072008Y0078681D01*
X0072008Y0075945D01*
X0069882Y0073819D01*
X0073819Y0073819D02*
X0077106Y0070531D01*
X0079154Y0070531D01*
X0084252Y0075630D01*
X0084252Y0077750D01*
X0085000Y0078498D01*
X0079724Y0079705D02*
X0079724Y0084646D01*
X0079724Y0079705D02*
X0078701Y0078681D01*
X0085000Y0085321D02*
X0085000Y0086122D01*
X0106457Y0078937D02*
X0121604Y0078937D01*
X0123524Y0077018D01*
X0120079Y0069390D02*
X0137303Y0069390D01*
X0141732Y0064961D01*
X0112205Y0090551D02*
X0110236Y0090551D01*
X0108268Y0088583D01*
X0108268Y0080748D01*
X0106457Y0078937D01*
X0065945Y0073819D02*
X0065000Y0074764D01*
X0065000Y0084154D01*
X0065827Y0070000D02*
X0065945Y0069882D01*
X0064587Y0068524D01*
X0058346Y0068524D01*
X0065000Y0065000D02*
X0065945Y0065945D01*
X0060000Y0060000D01*
X0058346Y0060000D01*
X0065000Y0055846D02*
X0065000Y0065000D01*
X0065000Y0055846D02*
X0059154Y0050000D01*
X0058346Y0050000D01*
X0064961Y0049114D02*
X0065000Y0049154D01*
X0064961Y0049114D02*
X0064961Y0041339D01*
X0051654Y0050000D02*
X0048504Y0053150D01*
X0041339Y0053150D01*
X0041339Y0059055D02*
X0042283Y0060000D01*
X0051654Y0060000D01*
X0051654Y0068524D02*
X0047618Y0068524D01*
X0045276Y0070866D01*
X0041339Y0074803D01*
X0045276Y0070866D02*
X0046142Y0070000D01*
X0012520Y0055591D02*
X0012520Y0047165D01*
X0012677Y0047008D01*
X0012677Y0038110D01*
X0012480Y0037913D01*
X0012480Y0032795D01*
X0014921Y0030354D01*
X0021161Y0030354D01*
X0010492Y0018268D02*
X0010000Y0018268D01*
X0027500Y0012500D02*
X0030945Y0009055D01*
X0042520Y0009055D01*
X0042598Y0009134D01*
X0051417Y0009134D01*
X0051732Y0009449D01*
X0060512Y0009449D01*
X0076181Y0009449D01*
X0079232Y0012500D01*
X0067146Y0017933D02*
X0067146Y0023169D01*
X0067146Y0017933D02*
X0065354Y0016142D01*
X0060512Y0016142D01*
X0060197Y0015827D01*
X0051417Y0015827D01*
X0051339Y0015748D01*
X0042520Y0015748D01*
X0095000Y0012500D02*
X0099744Y0007756D01*
X0111417Y0007756D01*
X0111614Y0007953D01*
X0120630Y0007953D01*
X0120748Y0007835D01*
X0129724Y0007835D01*
X0142067Y0007835D01*
X0146732Y0012500D01*
X0134646Y0019449D02*
X0134646Y0023169D01*
X0134646Y0019449D02*
X0129724Y0014528D01*
X0129606Y0014646D01*
X0120630Y0014646D01*
X0120433Y0014449D01*
X0111417Y0014449D01*
X0092512Y0121317D02*
X0089321Y0124508D01*
X0089321Y0133297D01*
X0094252Y0138228D01*
X0020669Y0165354D02*
X0015748Y0165354D01*
X0013150Y0167953D01*
X0013150Y0172756D01*
X0012874Y0173031D01*
X0012874Y0181850D01*
X0013268Y0182244D01*
X0013268Y0190709D01*
X0006575Y0190709D02*
X0006181Y0190315D01*
X0006181Y0181850D01*
X0006457Y0181575D01*
X0006457Y0172756D01*
X0006457Y0156811D01*
X0010000Y0153268D01*
X0006575Y0190709D02*
X0006575Y0201575D01*
X0010000Y0205000D01*
X0293307Y0086614D02*
X0299213Y0086614D01*
X0307087Y0066929D02*
X0307087Y0062992D01*
X0311533Y0058545D01*
X0311533Y0012149D01*
D28*
X0281496Y0045276D03*
X0289370Y0051181D03*
X0285433Y0053150D03*
X0307087Y0066929D03*
X0299213Y0086614D03*
X0293307Y0086614D03*
X0273622Y0108268D03*
X0265748Y0098425D03*
X0257874Y0086614D03*
X0247293Y0086614D03*
X0238189Y0090551D03*
X0231791Y0090551D03*
X0220472Y0082677D03*
X0210630Y0082677D03*
X0210630Y0076772D03*
X0196850Y0078740D03*
X0187008Y0082677D03*
X0177165Y0082677D03*
X0167323Y0082677D03*
X0141732Y0064961D03*
X0129675Y0073573D03*
X0129675Y0077018D03*
X0126476Y0075295D03*
X0123524Y0073573D03*
X0123524Y0077018D03*
X0123031Y0085630D03*
X0125984Y0087598D03*
X0115650Y0089321D03*
X0112205Y0090551D03*
X0108268Y0094488D03*
X0105315Y0099409D03*
X0098425Y0104331D03*
X0094488Y0104331D03*
X0102362Y0114173D03*
X0098425Y0118110D03*
X0082431Y0098179D03*
X0079970Y0100394D03*
X0078740Y0087598D03*
X0079724Y0084646D03*
X0086614Y0076772D03*
X0073819Y0073819D03*
X0073819Y0069882D03*
X0069882Y0069882D03*
X0069882Y0073819D03*
X0065945Y0073819D03*
X0065945Y0069882D03*
X0065945Y0065945D03*
X0069882Y0065945D03*
X0073819Y0065945D03*
X0054134Y0056102D03*
X0041339Y0053150D03*
X0041339Y0059055D03*
X0033465Y0059055D03*
X0033465Y0043307D03*
X0039370Y0034449D03*
X0062992Y0029528D03*
X0064961Y0041339D03*
X0074803Y0041339D03*
X0080709Y0041339D03*
X0089813Y0045276D03*
X0100394Y0055118D03*
X0100394Y0059055D03*
X0100394Y0062992D03*
X0106299Y0063976D03*
X0103839Y0066929D03*
X0100394Y0066929D03*
X0100394Y0070866D03*
X0110236Y0066929D03*
X0114419Y0059793D03*
X0116142Y0057087D03*
X0117126Y0050197D03*
X0120571Y0050197D03*
X0118848Y0046998D03*
X0117126Y0044045D03*
X0120571Y0044045D03*
X0128445Y0045030D03*
X0135827Y0039370D03*
X0145669Y0033465D03*
X0125984Y0031496D03*
X0107283Y0046260D03*
X0106299Y0049213D03*
X0094488Y0031496D03*
X0125984Y0065699D03*
X0120079Y0069390D03*
X0111220Y0081693D03*
X0090551Y0092520D03*
X0066929Y0098425D03*
X0066929Y0104331D03*
X0053396Y0088829D03*
X0059055Y0083661D03*
X0043307Y0097441D03*
X0028297Y0112205D03*
X0024114Y0104331D03*
X0041339Y0074803D03*
X0025591Y0143701D03*
X0025591Y0187008D03*
X0037402Y0206693D03*
X0135827Y0104331D03*
X0171260Y0110236D03*
X0192913Y0100394D03*
X0210630Y0102362D03*
X0228346Y0106299D03*
X0250000Y0074803D03*
X0246063Y0070866D03*
X0242126Y0068898D03*
X0250000Y0066929D03*
X0253937Y0070866D03*
X0260335Y0064469D03*
X0259843Y0055118D03*
X0263780Y0049213D03*
X0257874Y0042323D03*
X0253937Y0036417D03*
X0258612Y0035679D03*
X0258612Y0032480D03*
X0258612Y0029281D03*
X0258612Y0026329D03*
X0272638Y0013780D03*
X0257874Y0007874D03*
X0240157Y0007874D03*
X0225886Y0028543D03*
X0216535Y0027559D03*
X0236220Y0029528D03*
X0238189Y0037402D03*
X0226378Y0047244D03*
X0234252Y0066929D03*
X0265748Y0078740D03*
X0281496Y0127953D03*
X0273622Y0133858D03*
X0273622Y0167323D03*
X0265748Y0167323D03*
X0251969Y0196850D03*
X0251969Y0200787D03*
X0251969Y0204724D03*
X0251969Y0208661D03*
X0251969Y0212598D03*
X0253445Y0229823D03*
X0273622Y0229823D03*
X0314715Y0196850D03*
X0316929Y0212598D03*
X0333415Y0255167D03*
X0331447Y0271161D03*
X0324803Y0283465D03*
X0315945Y0272392D03*
X0175197Y0013780D03*
X0159449Y0013780D03*
D29*
X0281520Y0218504D02*
X0289394Y0226378D01*
X0299213Y0226378D01*
X0301457Y0228622D01*
X0310886Y0228622D01*
X0319154Y0221890D02*
X0325886Y0228622D01*
X0319154Y0221890D02*
X0319154Y0221392D01*
X0316265Y0218504D01*
X0297220Y0218504D01*
D30*
X0329331Y0188661D02*
X0334961Y0188661D01*
X0336614Y0187008D01*
X0336614Y0173228D01*
X0332677Y0169291D01*
X0309055Y0169291D01*
M02*
