%
M48
M72
T01C0.0138
T02C0.0315
T03C0.0320
T04C0.0362
T05C0.0400
T06C0.0866
T07C0.0906
%
T01
X3937Y3445
X3346Y4331
X4134Y5315
X4134Y5906
X3346Y5906
X4134Y7480
X5340Y8883
X5906Y8366
X6594Y7382
X6594Y6988
X6988Y6988
X6988Y7382
X7382Y7382
X7382Y6988
X7382Y6594
X6988Y6594
X6594Y6594
X5413Y5610
X6496Y4134
X7480Y4134
X8071Y4134
X8981Y4528
X10039Y5512
X10039Y5906
X10039Y6299
X10630Y6398
X10384Y6693
X10039Y6693
X10039Y7087
X11024Y6693
X11467Y5906
X11614Y5635
X11713Y5020
X12057Y5020
X11885Y4700
X12057Y4405
X11713Y4405
X12598Y3937
X12598Y3150
X13583Y3937
X14567Y3346
X15945Y1378
X17520Y1378
X21654Y2756
X22441Y2953
X23622Y2953
X23819Y3740
X22638Y4724
X23425Y6693
X24213Y6890
X24606Y7087
X25000Y7480
X25394Y7087
X25000Y6693
X26033Y6447
X25984Y5512
X26378Y4921
X25787Y4232
X25394Y3642
X25861Y3568
X25861Y3248
X25861Y2928
X25861Y2633
X27264Y1378
X25787Y787
X24016Y787
X28150Y4528
X28937Y5118
X28543Y5315
X30709Y6693
X29921Y8661
X29331Y8661
X27362Y10827
X26575Y9843
X25787Y8661
X24729Y8661
X23819Y9055
X23179Y9055
X22047Y8268
X21063Y8268
X21063Y7677
X19685Y7874
X18701Y8268
X17717Y8268
X16732Y8268
X14173Y6496
X12968Y7357
X12672Y7530
X12968Y7702
X12352Y7702
X12352Y7357
X12008Y6939
X12598Y6373
X11122Y8169
X11565Y8932
X11220Y9055
X10827Y9449
X10531Y9941
X9843Y10433
X9449Y10433
X10236Y11417
X9843Y11811
X8243Y9818
X7997Y10039
X7874Y8760
X7972Y8465
X8661Y7677
X9055Y9252
X6693Y9843
X6693Y10433
X4331Y9744
X2830Y11220
X2411Y10433
X2559Y14370
X2559Y18701
X3740Y20669
X13583Y10433
X12598Y8760
X12229Y8637
X10630Y4921
X10679Y4626
X9449Y3150
X6299Y2953
X17126Y11024
X19291Y10039
X21063Y10236
X22835Y10630
X26575Y7874
X28150Y12795
X27362Y13386
X27362Y16732
X26575Y16732
X25197Y19685
X25197Y20079
X25197Y20472
X25197Y20866
X25197Y21260
X25344Y22982
X27362Y22982
X31471Y19685
X31693Y21260
X33342Y25517
X33145Y27116
X32480Y28346
X31594Y27239
T02
X25315Y27236
X25315Y26449
T03
X15291Y10535
X15291Y9135
X15228Y7070
X15228Y5670
X16669Y3787
X16669Y2387
X20016Y2830
X20016Y1430
T04
X13465Y2317
X12480Y2317
X11693Y2317
X10709Y2317
X6715Y2317
X5730Y2317
X4943Y2317
X3959Y2317
X2116Y3035
X2116Y4020
X2116Y4807
X2116Y5791
X2067Y9785
X2067Y10770
X2067Y11557
X2067Y12541
X2067Y16535
X2067Y17520
X2067Y18307
X2067Y19291
T05
X1240Y22406
X1240Y23406
X1240Y24406
X1240Y25406
X4425Y26799
X5425Y26799
X6425Y26799
X7425Y26799
X8425Y26799
X9425Y26799
X10425Y26799
X11425Y26799
X12425Y26799
X13425Y26799
X14425Y26799
X15425Y26799
X16425Y26799
X17425Y26799
X18425Y26799
X19425Y26799
X20425Y26799
X21425Y26799
X22425Y26799
X23425Y26799
X23425Y27799
X22425Y27799
X21425Y27799
X20425Y27799
X19425Y27799
X18425Y27799
X17425Y27799
X16425Y27799
X15425Y27799
X14425Y27799
X13425Y27799
X12425Y27799
X11425Y27799
X10425Y27799
X9425Y27799
X8425Y27799
X7425Y27799
X6425Y27799
X5425Y27799
X4425Y27799
X4425Y13823
X5425Y13823
X5425Y12823
X4425Y12823
X6425Y12823
X6425Y13823
X7425Y13823
X8425Y13823
X8425Y12823
X7425Y12823
X9425Y12823
X9425Y13823
X10425Y13823
X11425Y13823
X11425Y12823
X10425Y12823
X12425Y12823
X12425Y13823
X13425Y13823
X14425Y13823
X14425Y12823
X13425Y12823
X15425Y12823
X15425Y13823
X16425Y13823
X17425Y13823
X17425Y12823
X16425Y12823
X18425Y12823
X19425Y12823
X19425Y13823
X18425Y13823
X20425Y13823
X20425Y12823
X21425Y12823
X22425Y12823
X22425Y13823
X21425Y13823
X23425Y13823
X23425Y12823
X25268Y11043
X30681Y5528
X31681Y5528
X32681Y5528
X32681Y4528
X31681Y4528
X30681Y4528
X30681Y3528
X31681Y3528
X32681Y3528
X32681Y2528
X31681Y2528
X30681Y2528
X30681Y1528
X31681Y1528
X32681Y1528
X32933Y17866
X32933Y18866
X32933Y19866
X32933Y20866
T06
X32589Y22862
X31089Y22862
X31085Y24732
X32585Y24732
T07
X1049Y1827
X2750Y1250
X7923Y1250
X9500Y1250
X14673Y1250
X1049Y7000
X1000Y8577
X1000Y13750
X1000Y15327
X1000Y20500
M30
