%
M48
M72
T01C0.01378
T02C0.03150
T03C0.03200
T04C0.03622
T05C0.04000
T06C0.08661
T07C0.09055
%
T01
X39370Y34449
X33465Y43307
X41339Y53150
X41339Y59055
X33465Y59055
X41339Y74803
X53396Y88829
X59055Y83661
X65945Y73819
X69882Y73819
X73819Y73819
X73819Y69882
X69882Y69882
X65945Y69882
X65945Y65945
X69882Y65945
X73819Y65945
X86614Y76772
X79724Y84646
X78740Y87598
X82431Y98179
X79970Y100394
X66929Y98425
X66929Y104331
X43307Y97441
X28297Y112205
X24114Y104331
X25591Y143701
X25591Y187008
X37402Y206693
X98425Y118110
X102362Y114173
X98425Y104331
X94488Y104331
X105315Y99409
X108268Y94488
X112205Y90551
X115650Y89321
X123031Y85630
X125984Y87598
X123524Y77018
X126476Y75295
X123524Y73573
X129675Y73573
X129675Y77018
X120079Y69390
X125984Y65699
X116142Y57087
X114419Y59793
X110236Y66929
X106299Y63976
X103839Y66929
X100394Y66929
X100394Y70866
X100394Y62992
X100394Y59055
X100394Y55118
X106299Y49213
X107283Y46260
X117126Y44045
X118848Y46998
X120571Y44045
X120571Y50197
X117126Y50197
X128445Y45030
X135827Y39370
X145669Y33465
X125984Y31496
X94488Y31496
X89813Y45276
X80709Y41339
X74803Y41339
X64961Y41339
X62992Y29528
X54134Y56102
X90551Y92520
X111220Y81693
X135827Y104331
X167323Y82677
X177165Y82677
X187008Y82677
X196850Y78740
X210630Y76772
X210630Y82677
X220472Y82677
X231791Y90551
X238189Y90551
X247293Y86614
X257874Y86614
X265748Y78740
X253937Y70866
X250000Y66929
X246063Y70866
X242126Y68898
X234252Y66929
X250000Y74803
X260335Y64469
X259843Y55118
X263780Y49213
X257874Y42323
X253937Y36417
X258612Y35679
X258612Y32480
X258612Y29281
X258612Y26329
X272638Y13780
X257874Y7874
X240157Y7874
X225886Y28543
X216535Y27559
X236220Y29528
X238189Y37402
X226378Y47244
X175197Y13780
X159449Y13780
X141732Y64961
X171260Y110236
X192913Y100394
X210630Y102362
X228346Y106299
X265748Y98425
X273622Y108268
X281496Y127953
X273622Y133858
X273622Y167323
X265748Y167323
X251969Y196850
X251969Y200787
X251969Y204724
X251969Y208661
X251969Y212598
X253445Y229823
X273622Y229823
X314715Y196850
X316929Y212598
X333415Y255167
X331447Y271161
X324803Y283465
X315945Y272392
X299213Y86614
X293307Y86614
X307087Y66929
X289370Y51181
X285433Y53150
X281496Y45276
T02
X253150Y264488
X253150Y272362
T03
X152913Y105346
X152913Y91346
X152283Y70701
X152283Y56701
X166693Y37866
X166693Y23866
X200157Y28299
X200157Y14299
T04
X134646Y23169
X124803Y23169
X116929Y23169
X107087Y23169
X67146Y23169
X57303Y23169
X49429Y23169
X39587Y23169
X21161Y30354
X21161Y40197
X21161Y48071
X21161Y57913
X20669Y97854
X20669Y107697
X20669Y115571
X20669Y125413
X20669Y165354
X20669Y175197
X20669Y183071
X20669Y192913
T05
X12402Y224055
X12402Y234055
X12402Y244055
X12402Y254055
X44252Y267992
X54252Y267992
X64252Y267992
X74252Y267992
X84252Y267992
X94252Y267992
X104252Y267992
X114252Y267992
X124252Y267992
X134252Y267992
X144252Y267992
X154252Y267992
X164252Y267992
X174252Y267992
X184252Y267992
X194252Y267992
X204252Y267992
X214252Y267992
X224252Y267992
X234252Y267992
X234252Y277992
X224252Y277992
X214252Y277992
X204252Y277992
X194252Y277992
X184252Y277992
X174252Y277992
X164252Y277992
X154252Y277992
X144252Y277992
X134252Y277992
X124252Y277992
X114252Y277992
X104252Y277992
X94252Y277992
X84252Y277992
X74252Y277992
X64252Y277992
X54252Y277992
X44252Y277992
X44252Y138228
X54252Y138228
X54252Y128228
X44252Y128228
X64252Y128228
X74252Y128228
X84252Y128228
X94252Y128228
X104252Y128228
X114252Y128228
X124252Y128228
X134252Y128228
X144252Y128228
X154252Y128228
X164252Y128228
X174252Y128228
X184252Y128228
X194252Y128228
X204252Y128228
X214252Y128228
X224252Y128228
X234252Y128228
X234252Y138228
X224252Y138228
X214252Y138228
X204252Y138228
X194252Y138228
X184252Y138228
X174252Y138228
X164252Y138228
X154252Y138228
X144252Y138228
X134252Y138228
X124252Y138228
X114252Y138228
X104252Y138228
X94252Y138228
X84252Y138228
X74252Y138228
X64252Y138228
X252677Y110433
X306811Y55276
X316811Y55276
X326811Y55276
X326811Y45276
X316811Y45276
X306811Y45276
X306811Y35276
X316811Y35276
X326811Y35276
X326811Y25276
X316811Y25276
X306811Y25276
X306811Y15276
X316811Y15276
X326811Y15276
X329331Y178661
X329331Y188661
X329331Y198661
X329331Y208661
T06
X325886Y228622
X310886Y228622
X310846Y247323
X325846Y247323
T07
X10492Y18268
X27500Y12500
X79232Y12500
X95000Y12500
X146732Y12500
X10492Y70000
X10000Y85768
X10000Y137500
X10000Y153268
X10000Y205000
M30
