G75*
%MOIN*%
%OFA0B0*%
%FSLAX25Y25*%
%IPPOS*%
%LPD*%
%AMOC8*
5,1,8,0,0,1.08239X$1,22.5*
%
%ADD10C,0.04800*%
%ADD11C,0.06000*%
%ADD12C,0.04724*%
%ADD13C,0.12992*%
%ADD14C,0.13583*%
%ADD15C,0.05433*%
%ADD16C,0.02362*%
%ADD17C,0.01181*%
%ADD18C,0.01600*%
%ADD19C,0.00787*%
D10*
X0152283Y0056701D03*
X0152283Y0070701D03*
X0152913Y0091346D03*
X0152913Y0105346D03*
X0166693Y0037866D03*
X0166693Y0023866D03*
X0200157Y0028299D03*
X0200157Y0014299D03*
D11*
X0306811Y0015276D03*
X0306811Y0025276D03*
X0306811Y0035276D03*
X0306811Y0045276D03*
X0306811Y0055276D03*
X0316811Y0055276D03*
X0326811Y0055276D03*
X0326811Y0045276D03*
X0316811Y0045276D03*
X0316811Y0035276D03*
X0326811Y0035276D03*
X0326811Y0025276D03*
X0316811Y0025276D03*
X0316811Y0015276D03*
X0326811Y0015276D03*
X0252677Y0110433D03*
X0234252Y0128228D03*
X0224252Y0128228D03*
X0214252Y0128228D03*
X0204252Y0128228D03*
X0194252Y0128228D03*
X0184252Y0128228D03*
X0174252Y0128228D03*
X0164252Y0128228D03*
X0154252Y0128228D03*
X0144252Y0128228D03*
X0134252Y0128228D03*
X0124252Y0128228D03*
X0114252Y0128228D03*
X0104252Y0128228D03*
X0094252Y0128228D03*
X0084252Y0128228D03*
X0074252Y0128228D03*
X0064252Y0128228D03*
X0054252Y0128228D03*
X0044252Y0128228D03*
X0044252Y0138228D03*
X0054252Y0138228D03*
X0064252Y0138228D03*
X0074252Y0138228D03*
X0084252Y0138228D03*
X0094252Y0138228D03*
X0104252Y0138228D03*
X0114252Y0138228D03*
X0124252Y0138228D03*
X0134252Y0138228D03*
X0144252Y0138228D03*
X0154252Y0138228D03*
X0164252Y0138228D03*
X0174252Y0138228D03*
X0184252Y0138228D03*
X0194252Y0138228D03*
X0204252Y0138228D03*
X0214252Y0138228D03*
X0224252Y0138228D03*
X0234252Y0138228D03*
X0329331Y0178661D03*
X0329331Y0188661D03*
X0329331Y0198661D03*
X0329331Y0208661D03*
X0234252Y0267992D03*
X0224252Y0267992D03*
X0214252Y0267992D03*
X0204252Y0267992D03*
X0194252Y0267992D03*
X0184252Y0267992D03*
X0174252Y0267992D03*
X0164252Y0267992D03*
X0154252Y0267992D03*
X0144252Y0267992D03*
X0134252Y0267992D03*
X0124252Y0267992D03*
X0114252Y0267992D03*
X0104252Y0267992D03*
X0094252Y0267992D03*
X0084252Y0267992D03*
X0074252Y0267992D03*
X0064252Y0267992D03*
X0054252Y0267992D03*
X0044252Y0267992D03*
X0044252Y0277992D03*
X0054252Y0277992D03*
X0064252Y0277992D03*
X0074252Y0277992D03*
X0084252Y0277992D03*
X0094252Y0277992D03*
X0104252Y0277992D03*
X0114252Y0277992D03*
X0124252Y0277992D03*
X0134252Y0277992D03*
X0144252Y0277992D03*
X0154252Y0277992D03*
X0164252Y0277992D03*
X0174252Y0277992D03*
X0184252Y0277992D03*
X0194252Y0277992D03*
X0204252Y0277992D03*
X0214252Y0277992D03*
X0224252Y0277992D03*
X0234252Y0277992D03*
X0012402Y0254055D03*
X0012402Y0244055D03*
X0012402Y0234055D03*
X0012402Y0224055D03*
D12*
X0253150Y0264488D03*
X0253150Y0272362D03*
D13*
X0310846Y0247323D03*
X0325846Y0247323D03*
X0325886Y0228622D03*
X0310886Y0228622D03*
D14*
X0010492Y0018268D03*
X0027500Y0012500D03*
X0079232Y0012500D03*
X0095000Y0012500D03*
X0146732Y0012500D03*
X0010492Y0070000D03*
X0010000Y0085768D03*
X0010000Y0137500D03*
X0010000Y0153268D03*
X0010000Y0205000D03*
D15*
X0020669Y0192913D03*
X0020669Y0183071D03*
X0020669Y0175197D03*
X0020669Y0165354D03*
X0020669Y0125413D03*
X0020669Y0115571D03*
X0020669Y0107697D03*
X0020669Y0097854D03*
X0021161Y0057913D03*
X0021161Y0048071D03*
X0021161Y0040197D03*
X0021161Y0030354D03*
X0039587Y0023169D03*
X0049429Y0023169D03*
X0057303Y0023169D03*
X0067146Y0023169D03*
X0107087Y0023169D03*
X0116929Y0023169D03*
X0124803Y0023169D03*
X0134646Y0023169D03*
D16*
X0125984Y0031496D03*
X0135827Y0039370D03*
X0128445Y0045030D03*
X0120571Y0044045D03*
X0118848Y0046998D03*
X0117126Y0044045D03*
X0117126Y0050197D03*
X0120571Y0050197D03*
X0116142Y0057087D03*
X0114419Y0059793D03*
X0110236Y0066929D03*
X0106299Y0063976D03*
X0103839Y0066929D03*
X0100394Y0066929D03*
X0100394Y0070866D03*
X0100394Y0062992D03*
X0100394Y0059055D03*
X0100394Y0055118D03*
X0106299Y0049213D03*
X0107283Y0046260D03*
X0089813Y0045276D03*
X0080709Y0041339D03*
X0074803Y0041339D03*
X0064961Y0041339D03*
X0062992Y0029528D03*
X0039370Y0034449D03*
X0033465Y0043307D03*
X0041339Y0053150D03*
X0041339Y0059055D03*
X0033465Y0059055D03*
X0041339Y0074803D03*
X0053396Y0088829D03*
X0059055Y0083661D03*
X0065945Y0073819D03*
X0069882Y0073819D03*
X0073819Y0073819D03*
X0073819Y0069882D03*
X0069882Y0069882D03*
X0065945Y0069882D03*
X0065945Y0065945D03*
X0069882Y0065945D03*
X0073819Y0065945D03*
X0086614Y0076772D03*
X0079724Y0084646D03*
X0078740Y0087598D03*
X0082431Y0098179D03*
X0079970Y0100394D03*
X0066929Y0098425D03*
X0066929Y0104331D03*
X0043307Y0097441D03*
X0028297Y0112205D03*
X0024114Y0104331D03*
X0025591Y0143701D03*
X0025591Y0187008D03*
X0037402Y0206693D03*
X0098425Y0118110D03*
X0102362Y0114173D03*
X0098425Y0104331D03*
X0094488Y0104331D03*
X0105315Y0099409D03*
X0108268Y0094488D03*
X0112205Y0090551D03*
X0115650Y0089321D03*
X0123031Y0085630D03*
X0125984Y0087598D03*
X0123524Y0077018D03*
X0126476Y0075295D03*
X0123524Y0073573D03*
X0129675Y0073573D03*
X0129675Y0077018D03*
X0120079Y0069390D03*
X0125984Y0065699D03*
X0141732Y0064961D03*
X0167323Y0082677D03*
X0177165Y0082677D03*
X0187008Y0082677D03*
X0196850Y0078740D03*
X0210630Y0076772D03*
X0210630Y0082677D03*
X0220472Y0082677D03*
X0231791Y0090551D03*
X0238189Y0090551D03*
X0247293Y0086614D03*
X0257874Y0086614D03*
X0265748Y0078740D03*
X0253937Y0070866D03*
X0250000Y0066929D03*
X0246063Y0070866D03*
X0242126Y0068898D03*
X0234252Y0066929D03*
X0250000Y0074803D03*
X0260335Y0064469D03*
X0259843Y0055118D03*
X0263780Y0049213D03*
X0257874Y0042323D03*
X0253937Y0036417D03*
X0258612Y0035679D03*
X0258612Y0032480D03*
X0258612Y0029281D03*
X0258612Y0026329D03*
X0272638Y0013780D03*
X0257874Y0007874D03*
X0240157Y0007874D03*
X0225886Y0028543D03*
X0216535Y0027559D03*
X0236220Y0029528D03*
X0238189Y0037402D03*
X0226378Y0047244D03*
X0175197Y0013780D03*
X0159449Y0013780D03*
X0145669Y0033465D03*
X0094488Y0031496D03*
X0054134Y0056102D03*
X0090551Y0092520D03*
X0111220Y0081693D03*
X0135827Y0104331D03*
X0171260Y0110236D03*
X0192913Y0100394D03*
X0210630Y0102362D03*
X0228346Y0106299D03*
X0265748Y0098425D03*
X0273622Y0108268D03*
X0281496Y0127953D03*
X0273622Y0133858D03*
X0273622Y0167323D03*
X0265748Y0167323D03*
X0251969Y0196850D03*
X0251969Y0200787D03*
X0251969Y0204724D03*
X0251969Y0208661D03*
X0251969Y0212598D03*
X0253445Y0229823D03*
X0273622Y0229823D03*
X0314715Y0196850D03*
X0316929Y0212598D03*
X0333415Y0255167D03*
X0331447Y0271161D03*
X0324803Y0283465D03*
X0315945Y0272392D03*
X0299213Y0086614D03*
X0293307Y0086614D03*
X0307087Y0066929D03*
X0289370Y0051181D03*
X0285433Y0053150D03*
X0281496Y0045276D03*
D17*
X0267717Y0035433D02*
X0267717Y0029281D01*
X0258612Y0029281D01*
X0258858Y0035433D02*
X0267717Y0035433D01*
X0267717Y0070866D01*
X0301181Y0070866D01*
X0308071Y0077756D01*
X0316811Y0069016D01*
X0316811Y0055276D01*
X0316811Y0045276D01*
X0316811Y0035276D01*
X0316811Y0025276D01*
X0316811Y0015276D01*
X0272638Y0013780D02*
X0272638Y0012795D01*
X0265059Y0005217D01*
X0256485Y0005217D01*
X0253937Y0007764D01*
X0253937Y0007874D01*
X0240157Y0007874D01*
X0225886Y0028543D02*
X0225886Y0046752D01*
X0226378Y0047244D01*
X0242126Y0068898D02*
X0244691Y0068898D01*
X0245085Y0068504D01*
X0248234Y0068504D01*
X0249022Y0069291D01*
X0252362Y0069291D01*
X0253937Y0070866D01*
X0267717Y0070866D01*
X0261811Y0074803D02*
X0265748Y0078740D01*
X0273622Y0086614D01*
X0273622Y0108268D01*
X0308071Y0077756D02*
X0317126Y0086811D01*
X0317126Y0197747D01*
X0316929Y0197944D01*
X0316929Y0212598D01*
X0309055Y0220472D01*
X0299213Y0220472D01*
X0297244Y0222441D01*
X0297244Y0255906D01*
X0316191Y0255906D01*
X0331447Y0271161D01*
X0325846Y0247323D02*
X0325886Y0247283D01*
X0325886Y0228622D01*
X0297244Y0255906D02*
X0293307Y0259843D01*
X0043307Y0259843D01*
X0035433Y0251969D01*
X0035433Y0230315D01*
X0029173Y0224055D01*
X0012402Y0224055D01*
X0102362Y0114173D02*
X0104331Y0112205D01*
X0163386Y0112205D01*
X0165354Y0110236D01*
X0171260Y0110236D01*
X0152913Y0091346D02*
X0117315Y0091346D01*
X0123031Y0085630D01*
X0125984Y0087598D02*
X0130906Y0087598D01*
X0133858Y0084646D01*
X0133858Y0056701D01*
X0152283Y0056701D01*
X0141732Y0064961D02*
X0169291Y0064961D01*
X0183071Y0064961D01*
X0196850Y0078740D01*
X0228346Y0078740D02*
X0232283Y0074803D01*
X0250000Y0074803D01*
X0261811Y0074803D01*
X0228346Y0078740D02*
X0228346Y0106299D01*
X0258612Y0035679D02*
X0258858Y0035433D01*
X0267717Y0029281D02*
X0267717Y0018701D01*
X0272638Y0013780D01*
X0200157Y0014299D02*
X0186488Y0014299D01*
X0171260Y0029528D01*
X0127953Y0029528D01*
X0125984Y0031496D01*
X0125984Y0037402D01*
X0124016Y0039370D01*
X0114173Y0039370D01*
X0112205Y0041339D01*
X0112205Y0044679D01*
X0108262Y0048622D01*
X0106890Y0048622D01*
X0106299Y0049213D01*
X0107283Y0046260D02*
X0107283Y0041339D01*
X0101378Y0035433D01*
X0094488Y0035433D01*
X0102854Y0027067D01*
X0136260Y0027067D01*
X0139461Y0023866D01*
X0166693Y0023866D01*
X0133260Y0056701D02*
X0130102Y0053543D01*
X0104724Y0053543D01*
X0088583Y0037402D01*
X0064961Y0037402D01*
X0059055Y0043307D01*
X0033465Y0043307D01*
X0041339Y0059055D02*
X0047244Y0059055D01*
X0064961Y0041339D01*
X0074803Y0041339D01*
X0080709Y0041339D01*
X0068898Y0035433D02*
X0094488Y0035433D01*
X0107283Y0044291D02*
X0107283Y0046260D01*
X0100394Y0055118D02*
X0099409Y0056102D01*
X0054134Y0056102D01*
X0059055Y0061024D01*
X0059055Y0083661D01*
X0062992Y0087598D01*
X0078740Y0087598D01*
X0080709Y0096457D02*
X0068898Y0096457D01*
X0066929Y0098425D01*
X0066929Y0096457D01*
X0045276Y0074803D01*
X0041339Y0074803D01*
X0041339Y0059055D01*
X0068898Y0035433D02*
X0062992Y0029528D01*
X0120079Y0069390D02*
X0120079Y0078740D01*
X0118110Y0080709D01*
X0112205Y0080709D01*
X0111220Y0081693D01*
X0111220Y0084646D01*
X0115650Y0089075D01*
X0115650Y0089321D01*
X0117315Y0091346D02*
X0098425Y0110236D01*
X0098425Y0112205D01*
X0028297Y0112205D01*
X0080709Y0096457D02*
X0082431Y0098179D01*
X0108268Y0094488D02*
X0108268Y0084646D01*
X0111220Y0081693D01*
X0111220Y0084646D02*
X0111220Y0085138D01*
X0133260Y0056701D02*
X0133858Y0056701D01*
D18*
X0184252Y0128228D02*
X0194252Y0128228D01*
X0204252Y0128228D02*
X0214252Y0128228D01*
X0224252Y0128228D02*
X0234252Y0128228D01*
D19*
X0169291Y0064961D02*
X0151575Y0047244D01*
X0145669Y0047244D01*
X0145669Y0033465D01*
M02*
