G75*
%MOIN*%
%OFA0B0*%
%FSLAX24Y24*%
%IPPOS*%
%LPD*%
%AMOC8*
5,1,8,0,0,1.08239X$1,22.5*
%
%ADD10C,0.0480*%
%ADD11C,0.0600*%
%ADD12C,0.0472*%
%ADD13C,0.1299*%
%ADD14C,0.1358*%
%ADD15C,0.0543*%
%ADD16C,0.0236*%
%ADD17C,0.0118*%
%ADD18C,0.0160*%
%ADD19C,0.0079*%
D10*
X015228Y005670D03*
X015228Y007070D03*
X015291Y009135D03*
X015291Y010535D03*
X016669Y003787D03*
X016669Y002387D03*
X020016Y002830D03*
X020016Y001430D03*
D11*
X030681Y001528D03*
X030681Y002528D03*
X030681Y003528D03*
X030681Y004528D03*
X030681Y005528D03*
X031681Y005528D03*
X032681Y005528D03*
X032681Y004528D03*
X031681Y004528D03*
X031681Y003528D03*
X032681Y003528D03*
X032681Y002528D03*
X031681Y002528D03*
X031681Y001528D03*
X032681Y001528D03*
X025268Y011043D03*
X023425Y012823D03*
X022425Y012823D03*
X021425Y012823D03*
X020425Y012823D03*
X019425Y012823D03*
X018425Y012823D03*
X017425Y012823D03*
X016425Y012823D03*
X015425Y012823D03*
X014425Y012823D03*
X013425Y012823D03*
X012425Y012823D03*
X011425Y012823D03*
X010425Y012823D03*
X009425Y012823D03*
X008425Y012823D03*
X007425Y012823D03*
X006425Y012823D03*
X005425Y012823D03*
X004425Y012823D03*
X004425Y013823D03*
X005425Y013823D03*
X006425Y013823D03*
X007425Y013823D03*
X008425Y013823D03*
X009425Y013823D03*
X010425Y013823D03*
X011425Y013823D03*
X012425Y013823D03*
X013425Y013823D03*
X014425Y013823D03*
X015425Y013823D03*
X016425Y013823D03*
X017425Y013823D03*
X018425Y013823D03*
X019425Y013823D03*
X020425Y013823D03*
X021425Y013823D03*
X022425Y013823D03*
X023425Y013823D03*
X032933Y017866D03*
X032933Y018866D03*
X032933Y019866D03*
X032933Y020866D03*
X023425Y026799D03*
X022425Y026799D03*
X021425Y026799D03*
X020425Y026799D03*
X019425Y026799D03*
X018425Y026799D03*
X017425Y026799D03*
X016425Y026799D03*
X015425Y026799D03*
X014425Y026799D03*
X013425Y026799D03*
X012425Y026799D03*
X011425Y026799D03*
X010425Y026799D03*
X009425Y026799D03*
X008425Y026799D03*
X007425Y026799D03*
X006425Y026799D03*
X005425Y026799D03*
X004425Y026799D03*
X004425Y027799D03*
X005425Y027799D03*
X006425Y027799D03*
X007425Y027799D03*
X008425Y027799D03*
X009425Y027799D03*
X010425Y027799D03*
X011425Y027799D03*
X012425Y027799D03*
X013425Y027799D03*
X014425Y027799D03*
X015425Y027799D03*
X016425Y027799D03*
X017425Y027799D03*
X018425Y027799D03*
X019425Y027799D03*
X020425Y027799D03*
X021425Y027799D03*
X022425Y027799D03*
X023425Y027799D03*
X001240Y025406D03*
X001240Y024406D03*
X001240Y023406D03*
X001240Y022406D03*
D12*
X025315Y026449D03*
X025315Y027236D03*
D13*
X031085Y024732D03*
X032585Y024732D03*
X032589Y022862D03*
X031089Y022862D03*
D14*
X001049Y001827D03*
X002750Y001250D03*
X007923Y001250D03*
X009500Y001250D03*
X014673Y001250D03*
X001049Y007000D03*
X001000Y008577D03*
X001000Y013750D03*
X001000Y015327D03*
X001000Y020500D03*
D15*
X002067Y019291D03*
X002067Y018307D03*
X002067Y017520D03*
X002067Y016535D03*
X002067Y012541D03*
X002067Y011557D03*
X002067Y010770D03*
X002067Y009785D03*
X002116Y005791D03*
X002116Y004807D03*
X002116Y004020D03*
X002116Y003035D03*
X003959Y002317D03*
X004943Y002317D03*
X005730Y002317D03*
X006715Y002317D03*
X010709Y002317D03*
X011693Y002317D03*
X012480Y002317D03*
X013465Y002317D03*
D16*
X012598Y003150D03*
X012598Y003937D03*
X012057Y004405D03*
X011885Y004700D03*
X011713Y004405D03*
X011713Y005020D03*
X012057Y005020D03*
X011614Y005635D03*
X011467Y005906D03*
X010630Y006398D03*
X010384Y006693D03*
X010039Y006693D03*
X010039Y007087D03*
X011024Y006693D03*
X010039Y006299D03*
X010039Y005906D03*
X010039Y005512D03*
X010630Y004921D03*
X010679Y004626D03*
X008981Y004528D03*
X008071Y004134D03*
X007480Y004134D03*
X006496Y004134D03*
X006299Y002953D03*
X003937Y003445D03*
X003346Y004331D03*
X004134Y005315D03*
X004134Y005906D03*
X003346Y005906D03*
X004134Y007480D03*
X005340Y008883D03*
X005906Y008366D03*
X006594Y007382D03*
X006594Y006988D03*
X006988Y006988D03*
X006988Y007382D03*
X007382Y007382D03*
X007382Y006988D03*
X007382Y006594D03*
X006988Y006594D03*
X006594Y006594D03*
X005413Y005610D03*
X007972Y008465D03*
X007874Y008760D03*
X008243Y009818D03*
X007997Y010039D03*
X009055Y009252D03*
X009449Y010433D03*
X009843Y010433D03*
X010531Y009941D03*
X010827Y009449D03*
X011220Y009055D03*
X011565Y008932D03*
X012229Y008637D03*
X012598Y008760D03*
X012352Y007702D03*
X012352Y007357D03*
X012672Y007530D03*
X012968Y007702D03*
X012968Y007357D03*
X012008Y006939D03*
X012598Y006373D03*
X014173Y006496D03*
X016732Y008268D03*
X017717Y008268D03*
X018701Y008268D03*
X019685Y007874D03*
X021063Y007677D03*
X021063Y008268D03*
X022047Y008268D03*
X023179Y009055D03*
X023819Y009055D03*
X024729Y008661D03*
X025787Y008661D03*
X026575Y007874D03*
X025394Y007087D03*
X025000Y007480D03*
X024606Y007087D03*
X024213Y006890D03*
X025000Y006693D03*
X026033Y006447D03*
X025984Y005512D03*
X026378Y004921D03*
X025787Y004232D03*
X025394Y003642D03*
X025861Y003568D03*
X025861Y003248D03*
X025861Y002928D03*
X025861Y002633D03*
X027264Y001378D03*
X025787Y000787D03*
X024016Y000787D03*
X023622Y002953D03*
X023819Y003740D03*
X022638Y004724D03*
X022441Y002953D03*
X021654Y002756D03*
X017520Y001378D03*
X015945Y001378D03*
X014567Y003346D03*
X013583Y003937D03*
X009449Y003150D03*
X008661Y007677D03*
X006693Y009843D03*
X006693Y010433D03*
X004331Y009744D03*
X002830Y011220D03*
X002411Y010433D03*
X002559Y014370D03*
X002559Y018701D03*
X003740Y020669D03*
X009843Y011811D03*
X010236Y011417D03*
X013583Y010433D03*
X011122Y008169D03*
X017126Y011024D03*
X019291Y010039D03*
X021063Y010236D03*
X022835Y010630D03*
X026575Y009843D03*
X027362Y010827D03*
X028150Y012795D03*
X027362Y013386D03*
X027362Y016732D03*
X026575Y016732D03*
X025197Y019685D03*
X025197Y020079D03*
X025197Y020472D03*
X025197Y020866D03*
X025197Y021260D03*
X025344Y022982D03*
X027362Y022982D03*
X031471Y019685D03*
X031693Y021260D03*
X033342Y025517D03*
X033145Y027116D03*
X032480Y028346D03*
X031594Y027239D03*
X029921Y008661D03*
X029331Y008661D03*
X030709Y006693D03*
X028937Y005118D03*
X028543Y005315D03*
X028150Y004528D03*
X023425Y006693D03*
D17*
X023228Y007480D02*
X022835Y007874D01*
X022835Y010630D01*
X023228Y007480D02*
X025000Y007480D01*
X026181Y007480D01*
X026575Y007874D01*
X027362Y008661D01*
X027362Y010827D01*
X030807Y007776D02*
X031681Y006902D01*
X031681Y005528D01*
X031681Y004528D01*
X031681Y003528D01*
X031681Y002528D01*
X031681Y001528D01*
X027264Y001378D02*
X027264Y001280D01*
X026506Y000522D01*
X025648Y000522D01*
X025394Y000776D01*
X025394Y000787D01*
X024016Y000787D01*
X025861Y002928D02*
X026772Y002928D01*
X026772Y001870D01*
X027264Y001378D01*
X026772Y002928D02*
X026772Y003543D01*
X025886Y003543D01*
X025861Y003568D01*
X026772Y003543D02*
X026772Y007087D01*
X030118Y007087D01*
X030807Y007776D01*
X031713Y008681D01*
X031713Y019775D01*
X031693Y019794D01*
X031693Y021260D01*
X030906Y022047D01*
X029921Y022047D01*
X029724Y022244D01*
X029724Y025591D01*
X031619Y025591D01*
X033145Y027116D01*
X032585Y024732D02*
X032589Y024728D01*
X032589Y022862D01*
X029724Y025591D02*
X029331Y025984D01*
X004331Y025984D01*
X003543Y025197D01*
X003543Y023031D01*
X002917Y022406D01*
X001240Y022406D01*
X010236Y011417D02*
X010433Y011220D01*
X016339Y011220D01*
X016535Y011024D01*
X017126Y011024D01*
X015291Y009135D02*
X011731Y009135D01*
X012229Y008637D01*
X012598Y008760D02*
X013091Y008760D01*
X013386Y008465D01*
X013386Y005670D01*
X015228Y005670D01*
X014173Y006496D02*
X016929Y006496D01*
X018307Y006496D01*
X019685Y007874D01*
X024213Y006890D02*
X024469Y006890D01*
X024508Y006850D01*
X024823Y006850D01*
X024902Y006929D01*
X025236Y006929D01*
X025394Y007087D01*
X026772Y007087D01*
X020016Y001430D02*
X018649Y001430D01*
X017126Y002953D01*
X012795Y002953D01*
X012598Y003150D01*
X012598Y003593D01*
X012254Y003937D01*
X011417Y003937D01*
X011220Y004134D01*
X011220Y004468D01*
X010826Y004862D01*
X010689Y004862D01*
X010630Y004921D01*
X010679Y004626D02*
X010679Y004085D01*
X010138Y003543D01*
X009449Y003543D01*
X010285Y002707D01*
X013626Y002707D01*
X013946Y002387D01*
X016669Y002387D01*
X013326Y005670D02*
X013010Y005354D01*
X010472Y005354D01*
X008858Y003740D01*
X006496Y003740D01*
X005906Y004331D01*
X003346Y004331D01*
X004134Y005906D02*
X004724Y005906D01*
X006496Y004134D01*
X007480Y004134D01*
X008071Y004134D01*
X006890Y003543D02*
X009449Y003543D01*
X010039Y005512D02*
X009941Y005610D01*
X005413Y005610D01*
X005906Y006102D01*
X005906Y008366D01*
X006299Y008760D01*
X007874Y008760D01*
X008071Y009646D02*
X006890Y009646D01*
X006693Y009843D01*
X006693Y009646D01*
X004528Y007480D01*
X004134Y007480D01*
X004134Y005906D01*
X006890Y003543D02*
X006299Y002953D01*
X012008Y006939D02*
X012008Y007874D01*
X011811Y008071D01*
X011220Y008071D01*
X011122Y008169D01*
X011122Y008465D01*
X011565Y008907D01*
X011565Y008932D01*
X011731Y009135D02*
X009843Y011024D01*
X009843Y011220D01*
X002830Y011220D01*
X008071Y009646D02*
X008243Y009818D01*
X010827Y009449D02*
X010827Y008465D01*
X011122Y008169D01*
X011122Y008465D02*
X011122Y008514D01*
X013326Y005670D02*
X013386Y005670D01*
D18*
X018425Y012823D02*
X019425Y012823D01*
X020425Y012823D02*
X021425Y012823D01*
X022425Y012823D02*
X023425Y012823D01*
D19*
X016929Y006496D02*
X015157Y004724D01*
X014567Y004724D01*
X014567Y003346D01*
M02*
