G75*
%MOIN*%
%OFA0B0*%
%FSLAX25Y25*%
%IPPOS*%
%LPD*%
%AMOC8*
5,1,8,0,0,1.08239X$1,22.5*
%
%ADD10C,0.01181*%
D10*
X0019528Y0002677D02*
X0323465Y0002677D01*
X0323846Y0002682D01*
X0324226Y0002695D01*
X0324606Y0002718D01*
X0324985Y0002751D01*
X0325363Y0002792D01*
X0325740Y0002842D01*
X0326116Y0002902D01*
X0326491Y0002970D01*
X0326863Y0003048D01*
X0327234Y0003135D01*
X0327602Y0003230D01*
X0327968Y0003335D01*
X0328331Y0003448D01*
X0328692Y0003570D01*
X0329049Y0003700D01*
X0329403Y0003840D01*
X0329754Y0003987D01*
X0330101Y0004144D01*
X0330444Y0004308D01*
X0330783Y0004481D01*
X0331118Y0004662D01*
X0331449Y0004851D01*
X0331774Y0005048D01*
X0332095Y0005252D01*
X0332411Y0005465D01*
X0332721Y0005685D01*
X0333027Y0005912D01*
X0333326Y0006147D01*
X0333620Y0006389D01*
X0333908Y0006637D01*
X0334190Y0006893D01*
X0334465Y0007156D01*
X0334734Y0007425D01*
X0334997Y0007700D01*
X0335253Y0007982D01*
X0335501Y0008270D01*
X0335743Y0008564D01*
X0335978Y0008863D01*
X0336205Y0009169D01*
X0336425Y0009479D01*
X0336638Y0009795D01*
X0336842Y0010116D01*
X0337039Y0010441D01*
X0337228Y0010772D01*
X0337409Y0011107D01*
X0337582Y0011446D01*
X0337746Y0011789D01*
X0337903Y0012136D01*
X0338050Y0012487D01*
X0338190Y0012841D01*
X0338320Y0013198D01*
X0338442Y0013559D01*
X0338555Y0013922D01*
X0338660Y0014288D01*
X0338755Y0014656D01*
X0338842Y0015027D01*
X0338920Y0015399D01*
X0338988Y0015774D01*
X0339048Y0016150D01*
X0339098Y0016527D01*
X0339139Y0016905D01*
X0339172Y0017284D01*
X0339195Y0017664D01*
X0339208Y0018044D01*
X0339213Y0018425D01*
X0339213Y0271477D01*
X0339208Y0271879D01*
X0339194Y0272281D01*
X0339169Y0272682D01*
X0339135Y0273082D01*
X0339092Y0273482D01*
X0339038Y0273880D01*
X0338976Y0274277D01*
X0338903Y0274673D01*
X0338821Y0275066D01*
X0338730Y0275458D01*
X0338629Y0275847D01*
X0338519Y0276233D01*
X0338399Y0276617D01*
X0338270Y0276998D01*
X0338132Y0277375D01*
X0337985Y0277749D01*
X0337829Y0278120D01*
X0337664Y0278486D01*
X0337490Y0278849D01*
X0337308Y0279207D01*
X0337117Y0279560D01*
X0336917Y0279909D01*
X0336709Y0280253D01*
X0336493Y0280592D01*
X0336269Y0280926D01*
X0336036Y0281254D01*
X0335796Y0281576D01*
X0335548Y0281892D01*
X0335293Y0282203D01*
X0335030Y0282507D01*
X0334760Y0282804D01*
X0334483Y0283095D01*
X0334198Y0283380D01*
X0333907Y0283657D01*
X0333610Y0283927D01*
X0333306Y0284190D01*
X0332995Y0284445D01*
X0332679Y0284693D01*
X0332357Y0284933D01*
X0332029Y0285166D01*
X0331695Y0285390D01*
X0331356Y0285606D01*
X0331012Y0285814D01*
X0330663Y0286014D01*
X0330310Y0286205D01*
X0329952Y0286387D01*
X0329589Y0286561D01*
X0329223Y0286726D01*
X0328852Y0286882D01*
X0328478Y0287029D01*
X0328101Y0287167D01*
X0327720Y0287296D01*
X0327336Y0287416D01*
X0326950Y0287526D01*
X0326561Y0287627D01*
X0326169Y0287718D01*
X0325776Y0287800D01*
X0325380Y0287873D01*
X0324983Y0287935D01*
X0324585Y0287989D01*
X0324185Y0288032D01*
X0323785Y0288066D01*
X0323384Y0288091D01*
X0322982Y0288105D01*
X0322580Y0288110D01*
X0014072Y0288110D01*
X0013747Y0288106D01*
X0013423Y0288094D01*
X0013098Y0288075D01*
X0012775Y0288047D01*
X0012452Y0288012D01*
X0012130Y0287969D01*
X0011809Y0287918D01*
X0011489Y0287860D01*
X0011171Y0287793D01*
X0010855Y0287719D01*
X0010541Y0287638D01*
X0010228Y0287549D01*
X0009918Y0287452D01*
X0009610Y0287348D01*
X0009305Y0287236D01*
X0009003Y0287118D01*
X0008704Y0286992D01*
X0008408Y0286858D01*
X0008115Y0286718D01*
X0007825Y0286570D01*
X0007539Y0286416D01*
X0007257Y0286255D01*
X0006979Y0286087D01*
X0006706Y0285912D01*
X0006436Y0285731D01*
X0006171Y0285543D01*
X0005911Y0285349D01*
X0005655Y0285148D01*
X0005404Y0284942D01*
X0005158Y0284729D01*
X0004918Y0284511D01*
X0004683Y0284287D01*
X0004453Y0284057D01*
X0004229Y0283822D01*
X0004011Y0283582D01*
X0003798Y0283336D01*
X0003592Y0283085D01*
X0003391Y0282829D01*
X0003197Y0282569D01*
X0003009Y0282304D01*
X0002828Y0282034D01*
X0002653Y0281761D01*
X0002485Y0281483D01*
X0002324Y0281201D01*
X0002170Y0280915D01*
X0002022Y0280625D01*
X0001882Y0280332D01*
X0001748Y0280036D01*
X0001622Y0279737D01*
X0001504Y0279435D01*
X0001392Y0279130D01*
X0001288Y0278822D01*
X0001191Y0278512D01*
X0001102Y0278199D01*
X0001021Y0277885D01*
X0000947Y0277569D01*
X0000880Y0277251D01*
X0000822Y0276931D01*
X0000771Y0276610D01*
X0000728Y0276288D01*
X0000693Y0275965D01*
X0000665Y0275642D01*
X0000646Y0275317D01*
X0000634Y0274993D01*
X0000630Y0274668D01*
X0000630Y0025961D01*
X0000582Y0025443D01*
X0000548Y0024924D01*
X0000526Y0024404D01*
X0000516Y0023883D01*
X0000520Y0023363D01*
X0000536Y0022843D01*
X0000565Y0022323D01*
X0000607Y0021805D01*
X0000662Y0021287D01*
X0000729Y0020771D01*
X0000809Y0020257D01*
X0000901Y0019744D01*
X0001006Y0019235D01*
X0001124Y0018728D01*
X0001254Y0018224D01*
X0001396Y0017723D01*
X0001550Y0017226D01*
X0001717Y0016733D01*
X0001896Y0016244D01*
X0002086Y0015760D01*
X0002289Y0015281D01*
X0002503Y0014806D01*
X0002729Y0014337D01*
X0002966Y0013874D01*
X0003214Y0013417D01*
X0003474Y0012966D01*
X0003744Y0012521D01*
X0004026Y0012083D01*
X0004318Y0011653D01*
X0004620Y0011229D01*
X0004933Y0010813D01*
X0005256Y0010405D01*
X0005589Y0010005D01*
X0005932Y0009613D01*
X0006284Y0009230D01*
X0006645Y0008856D01*
X0007016Y0008490D01*
X0007395Y0008134D01*
X0007783Y0007787D01*
X0008180Y0007450D01*
X0008584Y0007122D01*
X0008997Y0006805D01*
X0009417Y0006498D01*
X0009844Y0006201D01*
X0010279Y0005915D01*
X0010721Y0005640D01*
X0011169Y0005375D01*
X0011623Y0005122D01*
X0012084Y0004879D01*
X0012550Y0004649D01*
X0013022Y0004429D01*
X0013500Y0004222D01*
X0013982Y0004026D01*
X0014469Y0003842D01*
X0014960Y0003670D01*
X0015455Y0003510D01*
X0015954Y0003362D01*
X0016457Y0003227D01*
X0016962Y0003104D01*
X0017471Y0002993D01*
X0017982Y0002895D01*
X0018495Y0002810D01*
X0019011Y0002737D01*
X0019528Y0002677D01*
X0049906Y0149114D02*
X0230315Y0149114D01*
X0230487Y0149098D01*
X0230660Y0149087D01*
X0230834Y0149079D01*
X0231007Y0149076D01*
X0231180Y0149077D01*
X0231354Y0149082D01*
X0231527Y0149092D01*
X0231700Y0149105D01*
X0231872Y0149123D01*
X0232044Y0149145D01*
X0232215Y0149171D01*
X0232386Y0149201D01*
X0232556Y0149235D01*
X0232725Y0149274D01*
X0232893Y0149316D01*
X0233060Y0149363D01*
X0233226Y0149413D01*
X0233391Y0149468D01*
X0233554Y0149526D01*
X0233716Y0149588D01*
X0233876Y0149655D01*
X0234034Y0149725D01*
X0234191Y0149799D01*
X0234346Y0149876D01*
X0234499Y0149958D01*
X0234650Y0150043D01*
X0234799Y0150132D01*
X0234946Y0150224D01*
X0235090Y0150320D01*
X0235232Y0150419D01*
X0235372Y0150522D01*
X0235509Y0150628D01*
X0235644Y0150737D01*
X0235776Y0150850D01*
X0235905Y0150965D01*
X0236031Y0151084D01*
X0236154Y0151206D01*
X0236275Y0151331D01*
X0236392Y0151458D01*
X0236506Y0151589D01*
X0236617Y0151722D01*
X0236725Y0151858D01*
X0236830Y0151996D01*
X0236931Y0152137D01*
X0237028Y0152280D01*
X0237123Y0152426D01*
X0237213Y0152573D01*
X0237300Y0152723D01*
X0237384Y0152875D01*
X0237463Y0153029D01*
X0237539Y0153185D01*
X0237612Y0153343D01*
X0237680Y0153502D01*
X0237744Y0153663D01*
X0237805Y0153826D01*
X0237862Y0153989D01*
X0237914Y0154155D01*
X0237963Y0154321D01*
X0238007Y0154488D01*
X0238048Y0154657D01*
X0238084Y0154827D01*
X0238117Y0154997D01*
X0238145Y0155168D01*
X0238169Y0155340D01*
X0238189Y0155512D01*
X0238189Y0245728D01*
X0238190Y0245921D01*
X0238186Y0246114D01*
X0238177Y0246307D01*
X0238163Y0246500D01*
X0238145Y0246692D01*
X0238122Y0246884D01*
X0238095Y0247075D01*
X0238063Y0247265D01*
X0238026Y0247455D01*
X0237985Y0247644D01*
X0237939Y0247831D01*
X0237889Y0248018D01*
X0237835Y0248203D01*
X0237775Y0248387D01*
X0237712Y0248569D01*
X0237644Y0248750D01*
X0237571Y0248929D01*
X0237495Y0249107D01*
X0237414Y0249282D01*
X0237329Y0249455D01*
X0237239Y0249627D01*
X0237146Y0249796D01*
X0237048Y0249962D01*
X0236947Y0250127D01*
X0236842Y0250289D01*
X0236732Y0250448D01*
X0236619Y0250605D01*
X0236502Y0250758D01*
X0236382Y0250909D01*
X0236258Y0251057D01*
X0236130Y0251202D01*
X0235999Y0251344D01*
X0235864Y0251483D01*
X0235726Y0251618D01*
X0235585Y0251750D01*
X0235441Y0251878D01*
X0235294Y0252003D01*
X0235144Y0252125D01*
X0234990Y0252242D01*
X0234834Y0252356D01*
X0234676Y0252466D01*
X0234514Y0252573D01*
X0234351Y0252675D01*
X0234184Y0252773D01*
X0234016Y0252868D01*
X0233845Y0252958D01*
X0233672Y0253044D01*
X0233497Y0253126D01*
X0233320Y0253203D01*
X0233142Y0253277D01*
X0232961Y0253346D01*
X0232779Y0253410D01*
X0232596Y0253471D01*
X0232411Y0253526D01*
X0232225Y0253578D01*
X0232037Y0253624D01*
X0231849Y0253667D01*
X0231659Y0253704D01*
X0231469Y0253737D01*
X0231278Y0253766D01*
X0231086Y0253789D01*
X0230894Y0253809D01*
X0230701Y0253823D01*
X0230508Y0253833D01*
X0230315Y0253838D01*
X0230315Y0253839D02*
X0050398Y0253839D01*
X0050185Y0253836D01*
X0049972Y0253829D01*
X0049759Y0253816D01*
X0049546Y0253798D01*
X0049335Y0253775D01*
X0049123Y0253746D01*
X0048913Y0253713D01*
X0048703Y0253675D01*
X0048494Y0253631D01*
X0048287Y0253583D01*
X0048080Y0253529D01*
X0047875Y0253471D01*
X0047672Y0253407D01*
X0047470Y0253339D01*
X0047269Y0253266D01*
X0047071Y0253188D01*
X0046874Y0253105D01*
X0046680Y0253017D01*
X0046488Y0252925D01*
X0046298Y0252828D01*
X0046110Y0252727D01*
X0045925Y0252621D01*
X0045743Y0252511D01*
X0045563Y0252396D01*
X0045386Y0252277D01*
X0045212Y0252154D01*
X0045041Y0252027D01*
X0044873Y0251895D01*
X0044709Y0251760D01*
X0044547Y0251620D01*
X0044389Y0251477D01*
X0044235Y0251330D01*
X0044084Y0251179D01*
X0043937Y0251025D01*
X0043794Y0250867D01*
X0043654Y0250705D01*
X0043519Y0250541D01*
X0043387Y0250373D01*
X0043260Y0250202D01*
X0043137Y0250028D01*
X0043018Y0249851D01*
X0042903Y0249671D01*
X0042793Y0249489D01*
X0042687Y0249304D01*
X0042586Y0249116D01*
X0042489Y0248926D01*
X0042397Y0248734D01*
X0042309Y0248540D01*
X0042226Y0248343D01*
X0042148Y0248145D01*
X0042075Y0247944D01*
X0042007Y0247742D01*
X0041943Y0247539D01*
X0041885Y0247334D01*
X0041831Y0247127D01*
X0041783Y0246920D01*
X0041739Y0246711D01*
X0041701Y0246501D01*
X0041668Y0246291D01*
X0041639Y0246079D01*
X0041616Y0245868D01*
X0041598Y0245655D01*
X0041585Y0245442D01*
X0041578Y0245229D01*
X0041575Y0245016D01*
X0041575Y0155512D01*
X0041575Y0155511D02*
X0041601Y0155331D01*
X0041631Y0155151D01*
X0041666Y0154972D01*
X0041705Y0154794D01*
X0041749Y0154617D01*
X0041797Y0154441D01*
X0041849Y0154267D01*
X0041905Y0154093D01*
X0041966Y0153922D01*
X0042031Y0153751D01*
X0042100Y0153582D01*
X0042173Y0153415D01*
X0042250Y0153250D01*
X0042331Y0153087D01*
X0042416Y0152926D01*
X0042506Y0152767D01*
X0042599Y0152610D01*
X0042695Y0152456D01*
X0042796Y0152304D01*
X0042900Y0152154D01*
X0043008Y0152007D01*
X0043120Y0151863D01*
X0043235Y0151722D01*
X0043353Y0151583D01*
X0043475Y0151448D01*
X0043600Y0151315D01*
X0043728Y0151186D01*
X0043860Y0151059D01*
X0043994Y0150936D01*
X0044132Y0150817D01*
X0044272Y0150700D01*
X0044415Y0150588D01*
X0044561Y0150478D01*
X0044710Y0150373D01*
X0044861Y0150271D01*
X0045015Y0150173D01*
X0045171Y0150078D01*
X0045329Y0149988D01*
X0045489Y0149901D01*
X0045652Y0149818D01*
X0045816Y0149740D01*
X0045982Y0149665D01*
X0046150Y0149594D01*
X0046320Y0149528D01*
X0046491Y0149466D01*
X0046664Y0149408D01*
X0046838Y0149354D01*
X0047014Y0149305D01*
X0047191Y0149260D01*
X0047368Y0149219D01*
X0047547Y0149183D01*
X0047726Y0149151D01*
X0047907Y0149123D01*
X0048087Y0149100D01*
X0048269Y0149081D01*
X0048450Y0149067D01*
X0048632Y0149057D01*
X0048815Y0149052D01*
X0048997Y0149051D01*
X0049179Y0149055D01*
X0049361Y0149063D01*
X0049543Y0149076D01*
X0049725Y0149093D01*
X0049906Y0149114D01*
M02*
