G75*
%MOIN*%
%OFA0B0*%
%FSLAX25Y25*%
%IPPOS*%
%LPD*%
%AMOC8*
5,1,8,0,0,1.08239X$1,22.5*
%
%ADD10C,0.00200*%
%ADD11C,0.00600*%
%ADD12C,0.00400*%
%ADD13C,0.00800*%
%ADD14R,0.06600X0.03800*%
%ADD15C,0.00500*%
%ADD16C,0.00100*%
%ADD17C,0.01000*%
%ADD18C,0.00300*%
%ADD19C,0.01181*%
%ADD20R,0.00180X0.00060*%
%ADD21R,0.00300X0.00060*%
%ADD22R,0.00420X0.00060*%
%ADD23R,0.00240X0.00060*%
%ADD24R,0.00240X0.00060*%
%ADD25R,0.00120X0.00060*%
%ADD26R,0.00060X0.00060*%
%ADD27R,0.00780X0.00060*%
%ADD28R,0.01260X0.00060*%
%ADD29R,0.01500X0.00060*%
%ADD30R,0.02220X0.00060*%
%ADD31R,0.02580X0.00060*%
%ADD32R,0.03060X0.00060*%
%ADD33R,0.03300X0.00060*%
%ADD34R,0.03540X0.00060*%
%ADD35R,0.03420X0.00060*%
%ADD36R,0.03180X0.00060*%
%ADD37R,0.02520X0.00060*%
%ADD38R,0.02280X0.00060*%
%ADD39R,0.01740X0.00060*%
%ADD40R,0.01380X0.00060*%
%ADD41R,0.00840X0.00060*%
%ADD42R,0.00480X0.00060*%
%ADD43R,0.00900X0.00060*%
%ADD44R,0.02160X0.00060*%
%ADD45R,0.02940X0.00060*%
%ADD46R,0.03360X0.00060*%
%ADD47R,0.04140X0.00060*%
%ADD48R,0.04560X0.00060*%
%ADD49R,0.04860X0.00060*%
%ADD50R,0.04980X0.00060*%
%ADD51R,0.04920X0.00060*%
%ADD52R,0.03240X0.00060*%
%ADD53R,0.02340X0.00060*%
%ADD54R,0.01980X0.00060*%
%ADD55R,0.01140X0.00060*%
%ADD56R,0.01020X0.00060*%
%ADD57R,0.01080X0.00060*%
%ADD58R,0.02640X0.00060*%
%ADD59R,0.04260X0.00060*%
%ADD60R,0.05100X0.00060*%
%ADD61R,0.05700X0.00060*%
%ADD62R,0.06300X0.00060*%
%ADD63R,0.06360X0.00060*%
%ADD64R,0.06420X0.00060*%
%ADD65R,0.06060X0.00060*%
%ADD66R,0.04740X0.00060*%
%ADD67R,0.02700X0.00060*%
%ADD68R,0.01680X0.00060*%
%ADD69R,0.00120X0.00060*%
%ADD70R,0.00360X0.00060*%
%ADD71R,0.01020X0.00060*%
%ADD72R,0.02820X0.00060*%
%ADD73R,0.04020X0.00060*%
%ADD74R,0.04620X0.00060*%
%ADD75R,0.05820X0.00060*%
%ADD76R,0.07260X0.00060*%
%ADD77R,0.07440X0.00060*%
%ADD78R,0.07380X0.00060*%
%ADD79R,0.06960X0.00060*%
%ADD80R,0.05760X0.00060*%
%ADD81R,0.02100X0.00060*%
%ADD82R,0.02220X0.00060*%
%ADD83R,0.01860X0.00060*%
%ADD84R,0.01440X0.00060*%
%ADD85R,0.03600X0.00060*%
%ADD86R,0.03660X0.00060*%
%ADD87R,0.03480X0.00060*%
%ADD88R,0.03900X0.00060*%
%ADD89R,0.08760X0.00060*%
%ADD90R,0.08820X0.00060*%
%ADD91R,0.08940X0.00060*%
%ADD92R,0.07920X0.00060*%
%ADD93R,0.07140X0.00060*%
%ADD94R,0.05940X0.00060*%
%ADD95R,0.06000X0.00060*%
%ADD96R,0.06480X0.00060*%
%ADD97R,0.06720X0.00060*%
%ADD98R,0.06780X0.00060*%
%ADD99R,0.07500X0.00060*%
%ADD100R,0.07620X0.00060*%
%ADD101R,0.08220X0.00060*%
%ADD102R,0.08280X0.00060*%
%ADD103R,0.08520X0.00060*%
%ADD104R,0.08700X0.00060*%
%ADD105R,0.09420X0.00060*%
%ADD106R,0.09360X0.00060*%
%ADD107R,0.00540X0.00060*%
%ADD108R,0.08640X0.00060*%
%ADD109R,0.00600X0.00060*%
%ADD110R,0.08580X0.00060*%
%ADD111R,0.00540X0.00060*%
%ADD112R,0.00660X0.00060*%
%ADD113R,0.00720X0.00060*%
%ADD114R,0.08460X0.00060*%
%ADD115R,0.00720X0.00060*%
%ADD116R,0.07080X0.00060*%
%ADD117R,0.07020X0.00060*%
%ADD118R,0.06660X0.00060*%
%ADD119R,0.06420X0.00060*%
%ADD120R,0.00960X0.00060*%
%ADD121R,0.06120X0.00060*%
%ADD122R,0.05640X0.00060*%
%ADD123R,0.05580X0.00060*%
%ADD124R,0.01140X0.00060*%
%ADD125R,0.04140X0.00060*%
%ADD126R,0.03780X0.00060*%
%ADD127R,0.03120X0.00060*%
%ADD128R,0.02820X0.00060*%
%ADD129R,0.01560X0.00060*%
%ADD130R,0.01320X0.00060*%
%ADD131R,0.01620X0.00060*%
%ADD132R,0.00840X0.00060*%
%ADD133R,0.01800X0.00060*%
%ADD134R,0.03000X0.00060*%
%ADD135R,0.03720X0.00060*%
%ADD136R,0.03960X0.00060*%
%ADD137R,0.04620X0.00060*%
%ADD138R,0.04680X0.00060*%
%ADD139R,0.05880X0.00060*%
%ADD140R,0.02040X0.00060*%
%ADD141R,0.02400X0.00060*%
%ADD142R,0.07320X0.00060*%
%ADD143R,0.02340X0.00060*%
%ADD144R,0.02460X0.00060*%
%ADD145R,0.07740X0.00060*%
%ADD146R,0.01200X0.00060*%
%ADD147R,0.07860X0.00060*%
%ADD148R,0.07800X0.00060*%
%ADD149R,0.01620X0.00060*%
%ADD150R,0.02040X0.00060*%
%ADD151R,0.06540X0.00060*%
%ADD152R,0.02880X0.00060*%
%ADD153R,0.02940X0.00060*%
%ADD154R,0.05460X0.00060*%
%ADD155R,0.00420X0.00060*%
%ADD156R,0.04320X0.00060*%
%ADD157R,0.05280X0.00060*%
%ADD158R,0.04380X0.00060*%
%ADD159R,0.05220X0.00060*%
%ADD160R,0.04800X0.00060*%
%ADD161R,0.04080X0.00060*%
%ADD162R,0.04440X0.00060*%
%ADD163R,0.04200X0.00060*%
%ADD164R,0.04020X0.00060*%
%ADD165R,0.03540X0.00060*%
%ADD166R,0.04920X0.00060*%
%ADD167R,0.03240X0.00060*%
%ADD168R,0.03120X0.00060*%
%ADD169R,0.06180X0.00060*%
%ADD170R,0.04500X0.00060*%
%ADD171R,0.06900X0.00060*%
%ADD172R,0.01920X0.00060*%
%ADD173R,0.01440X0.00060*%
%ADD174R,0.03720X0.00060*%
%ADD175R,0.03420X0.00060*%
%ADD176R,0.05400X0.00060*%
%ADD177R,0.02520X0.00060*%
%ADD178R,0.02760X0.00060*%
%ADD179R,0.05340X0.00060*%
%ADD180R,0.05340X0.00060*%
%ADD181R,0.02640X0.00060*%
%ADD182R,0.03840X0.00060*%
%ADD183R,0.06240X0.00060*%
%ADD184R,0.06720X0.00060*%
%ADD185R,0.06840X0.00060*%
%ADD186R,0.07020X0.00060*%
%ADD187R,0.07320X0.00060*%
%ADD188R,0.01740X0.00060*%
%ADD189R,0.07620X0.00060*%
%ADD190R,0.07980X0.00060*%
%ADD191R,0.07920X0.00060*%
%ADD192R,0.08040X0.00060*%
%ADD193R,0.08100X0.00060*%
%ADD194R,0.08160X0.00060*%
%ADD195R,0.08220X0.00060*%
%ADD196R,0.09180X0.00060*%
%ADD197R,0.07560X0.00060*%
%ADD198R,0.09300X0.00060*%
%ADD199R,0.09660X0.00060*%
%ADD200R,0.09720X0.00060*%
%ADD201R,0.09780X0.00060*%
%ADD202R,0.09840X0.00060*%
%ADD203R,0.09900X0.00060*%
%ADD204R,0.11040X0.00060*%
%ADD205R,0.10860X0.00060*%
%ADD206R,0.05040X0.00060*%
%ADD207R,0.10920X0.00060*%
%ADD208R,0.10740X0.00060*%
%ADD209R,0.05160X0.00060*%
%ADD210R,0.10680X0.00060*%
%ADD211R,0.06600X0.00060*%
%ADD212R,0.05640X0.00060*%
%ADD213R,0.09060X0.00060*%
%ADD214R,0.05820X0.00060*%
%ADD215R,0.10800X0.00060*%
%ADD216R,0.10980X0.00060*%
%ADD217R,0.11160X0.00060*%
%ADD218R,0.01320X0.00060*%
%ADD219R,0.12780X0.00060*%
%ADD220R,0.05940X0.00060*%
%ADD221R,0.12660X0.00060*%
%ADD222R,0.12720X0.00060*%
%ADD223R,0.01920X0.00060*%
%ADD224R,0.05520X0.00060*%
%ADD225R,0.06240X0.00060*%
%ADD226R,0.05220X0.00060*%
%ADD227R,0.04740X0.00060*%
%ADD228R,0.06120X0.00060*%
%ADD229R,0.05520X0.00060*%
D10*
X0041572Y0032777D02*
X0041867Y0032482D01*
X0042457Y0032482D01*
X0042752Y0032777D01*
X0043384Y0032482D02*
X0044564Y0032482D01*
X0043974Y0032482D02*
X0043974Y0034252D01*
X0043384Y0033662D01*
X0042752Y0033957D02*
X0042457Y0034252D01*
X0041867Y0034252D01*
X0041572Y0033957D01*
X0041572Y0032777D01*
X0045197Y0032777D02*
X0045492Y0032482D01*
X0046082Y0032482D01*
X0046377Y0032777D01*
X0046377Y0033072D01*
X0046082Y0033367D01*
X0045197Y0033367D01*
X0045197Y0032777D01*
X0045197Y0033367D02*
X0045787Y0033957D01*
X0046377Y0034252D01*
X0025707Y0052354D02*
X0025707Y0052944D01*
X0025412Y0053239D01*
X0025707Y0053871D02*
X0025707Y0055051D01*
X0025707Y0054461D02*
X0023937Y0054461D01*
X0024527Y0053871D01*
X0024232Y0053239D02*
X0023937Y0052944D01*
X0023937Y0052354D01*
X0024232Y0052059D01*
X0025412Y0052059D01*
X0025707Y0052354D01*
X0025412Y0055684D02*
X0025707Y0055979D01*
X0025707Y0056569D01*
X0025412Y0056864D01*
X0025117Y0056864D01*
X0024822Y0056569D01*
X0024822Y0056274D01*
X0024822Y0056569D02*
X0024527Y0056864D01*
X0024232Y0056864D01*
X0023937Y0056569D01*
X0023937Y0055979D01*
X0024232Y0055684D01*
X0025528Y0088023D02*
X0026118Y0088023D01*
X0026413Y0088318D01*
X0027046Y0088023D02*
X0028226Y0089203D01*
X0028226Y0089498D01*
X0027931Y0089793D01*
X0027341Y0089793D01*
X0027046Y0089498D01*
X0026413Y0089498D02*
X0026118Y0089793D01*
X0025528Y0089793D01*
X0025233Y0089498D01*
X0025233Y0088318D01*
X0025528Y0088023D01*
X0027046Y0088023D02*
X0028226Y0088023D01*
X0028858Y0088318D02*
X0029153Y0088023D01*
X0029743Y0088023D01*
X0030038Y0088318D01*
X0030038Y0089498D01*
X0029743Y0089793D01*
X0029153Y0089793D01*
X0028858Y0089498D01*
X0028858Y0089203D01*
X0029153Y0088908D01*
X0030038Y0088908D01*
X0025520Y0097580D02*
X0025815Y0097875D01*
X0025815Y0098465D01*
X0025520Y0098760D01*
X0025520Y0099393D02*
X0025815Y0099688D01*
X0025815Y0100278D01*
X0025520Y0100573D01*
X0025225Y0100573D01*
X0024930Y0100278D01*
X0024930Y0099983D01*
X0024930Y0100278D02*
X0024635Y0100573D01*
X0024340Y0100573D01*
X0024045Y0100278D01*
X0024045Y0099688D01*
X0024340Y0099393D01*
X0024340Y0098760D02*
X0024045Y0098465D01*
X0024045Y0097875D01*
X0024340Y0097580D01*
X0025520Y0097580D01*
X0025520Y0101205D02*
X0024340Y0102385D01*
X0025520Y0102385D01*
X0025815Y0102090D01*
X0025815Y0101500D01*
X0025520Y0101205D01*
X0024340Y0101205D01*
X0024045Y0101500D01*
X0024045Y0102090D01*
X0024340Y0102385D01*
X0044524Y0089429D02*
X0044524Y0088249D01*
X0044819Y0087954D01*
X0045409Y0087954D01*
X0045705Y0088249D01*
X0046337Y0088839D02*
X0047517Y0088839D01*
X0048150Y0088249D02*
X0048445Y0087954D01*
X0049035Y0087954D01*
X0049330Y0088249D01*
X0049330Y0088544D01*
X0049035Y0088839D01*
X0048740Y0088839D01*
X0049035Y0088839D02*
X0049330Y0089134D01*
X0049330Y0089429D01*
X0049035Y0089724D01*
X0048445Y0089724D01*
X0048150Y0089429D01*
X0047222Y0089724D02*
X0046337Y0088839D01*
X0045705Y0089429D02*
X0045409Y0089724D01*
X0044819Y0089724D01*
X0044524Y0089429D01*
X0047222Y0089724D02*
X0047222Y0087954D01*
X0055158Y0096409D02*
X0055158Y0097294D01*
X0055453Y0097589D01*
X0056043Y0097589D01*
X0056338Y0097294D01*
X0056338Y0096409D01*
X0056928Y0096409D02*
X0055158Y0096409D01*
X0056338Y0096999D02*
X0056928Y0097589D01*
X0056928Y0098222D02*
X0055748Y0099402D01*
X0055453Y0099402D01*
X0055158Y0099107D01*
X0055158Y0098517D01*
X0055453Y0098222D01*
X0056928Y0098222D02*
X0056928Y0099402D01*
X0056633Y0100034D02*
X0056928Y0100329D01*
X0056928Y0100919D01*
X0056633Y0101214D01*
X0056338Y0101214D01*
X0056043Y0100919D01*
X0056043Y0100034D01*
X0056633Y0100034D01*
X0056043Y0100034D02*
X0055453Y0100624D01*
X0055158Y0101214D01*
X0063722Y0107600D02*
X0064017Y0107305D01*
X0064607Y0107305D01*
X0064902Y0107600D01*
X0065535Y0107600D02*
X0065830Y0107305D01*
X0066420Y0107305D01*
X0066715Y0107600D01*
X0066715Y0107895D01*
X0066420Y0108190D01*
X0066125Y0108190D01*
X0066420Y0108190D02*
X0066715Y0108485D01*
X0066715Y0108780D01*
X0066420Y0109075D01*
X0065830Y0109075D01*
X0065535Y0108780D01*
X0064902Y0108780D02*
X0064607Y0109075D01*
X0064017Y0109075D01*
X0063722Y0108780D01*
X0063722Y0107600D01*
X0067347Y0107600D02*
X0067347Y0107895D01*
X0067642Y0108190D01*
X0068232Y0108190D01*
X0068527Y0107895D01*
X0068527Y0107600D01*
X0068232Y0107305D01*
X0067642Y0107305D01*
X0067347Y0107600D01*
X0067642Y0108190D02*
X0067347Y0108485D01*
X0067347Y0108780D01*
X0067642Y0109075D01*
X0068232Y0109075D01*
X0068527Y0108780D01*
X0068527Y0108485D01*
X0068232Y0108190D01*
X0086808Y0096614D02*
X0087693Y0096614D01*
X0087988Y0096319D01*
X0087988Y0095729D01*
X0087693Y0095434D01*
X0086808Y0095434D01*
X0086808Y0094844D02*
X0086808Y0096614D01*
X0087398Y0095434D02*
X0087988Y0094844D01*
X0088621Y0094844D02*
X0089801Y0096024D01*
X0089801Y0096319D01*
X0089506Y0096614D01*
X0088916Y0096614D01*
X0088621Y0096319D01*
X0088621Y0094844D02*
X0089801Y0094844D01*
X0090433Y0095139D02*
X0090728Y0094844D01*
X0091318Y0094844D01*
X0091613Y0095139D01*
X0091613Y0095729D01*
X0091318Y0096024D01*
X0091023Y0096024D01*
X0090433Y0095729D01*
X0090433Y0096614D01*
X0091613Y0096614D01*
X0099449Y0090899D02*
X0099449Y0090309D01*
X0099744Y0090014D01*
X0099744Y0089382D02*
X0099449Y0089087D01*
X0099449Y0088497D01*
X0099744Y0088202D01*
X0099744Y0087569D02*
X0100334Y0087569D01*
X0100629Y0087274D01*
X0100629Y0086389D01*
X0101219Y0086389D02*
X0099449Y0086389D01*
X0099449Y0087274D01*
X0099744Y0087569D01*
X0100629Y0086979D02*
X0101219Y0087569D01*
X0101219Y0088202D02*
X0100039Y0089382D01*
X0099744Y0089382D01*
X0101219Y0089382D02*
X0101219Y0088202D01*
X0101219Y0090014D02*
X0100039Y0091195D01*
X0099744Y0091195D01*
X0099449Y0090899D01*
X0101219Y0091195D02*
X0101219Y0090014D01*
X0112443Y0090197D02*
X0113328Y0090197D01*
X0113623Y0089902D01*
X0113623Y0089312D01*
X0113328Y0089017D01*
X0112443Y0089017D01*
X0113033Y0089017D02*
X0113623Y0088427D01*
X0114255Y0088427D02*
X0115435Y0089607D01*
X0115435Y0089902D01*
X0115140Y0090197D01*
X0114550Y0090197D01*
X0114255Y0089902D01*
X0114255Y0088427D02*
X0115435Y0088427D01*
X0116068Y0088427D02*
X0117248Y0088427D01*
X0116658Y0088427D02*
X0116658Y0090197D01*
X0116068Y0089607D01*
X0112443Y0090197D02*
X0112443Y0088427D01*
X0123051Y0099101D02*
X0123051Y0099986D01*
X0123346Y0100281D01*
X0123936Y0100281D01*
X0124231Y0099986D01*
X0124231Y0099101D01*
X0124821Y0099101D02*
X0123051Y0099101D01*
X0124231Y0099691D02*
X0124821Y0100281D01*
X0124821Y0100914D02*
X0123641Y0102094D01*
X0123346Y0102094D01*
X0123051Y0101799D01*
X0123051Y0101209D01*
X0123346Y0100914D01*
X0124821Y0100914D02*
X0124821Y0102094D01*
X0124526Y0102726D02*
X0123346Y0103906D01*
X0124526Y0103906D01*
X0124821Y0103611D01*
X0124821Y0103021D01*
X0124526Y0102726D01*
X0123346Y0102726D01*
X0123051Y0103021D01*
X0123051Y0103611D01*
X0123346Y0103906D01*
X0126969Y0104667D02*
X0127264Y0104372D01*
X0128444Y0104372D01*
X0128739Y0104667D01*
X0128739Y0105257D01*
X0128444Y0105552D01*
X0128739Y0106184D02*
X0127559Y0107364D01*
X0127264Y0107364D01*
X0126969Y0107069D01*
X0126969Y0106479D01*
X0127264Y0106184D01*
X0127264Y0105552D02*
X0126969Y0105257D01*
X0126969Y0104667D01*
X0128739Y0106184D02*
X0128739Y0107364D01*
X0128739Y0107997D02*
X0128444Y0107997D01*
X0127264Y0109177D01*
X0126969Y0109177D01*
X0126969Y0107997D01*
X0096160Y0112186D02*
X0094980Y0112186D01*
X0095865Y0113071D01*
X0095865Y0111301D01*
X0094348Y0111596D02*
X0094053Y0111301D01*
X0093463Y0111301D01*
X0093168Y0111596D01*
X0093168Y0112776D01*
X0093463Y0113071D01*
X0094053Y0113071D01*
X0094348Y0112776D01*
X0092646Y0053547D02*
X0092646Y0051187D01*
X0092941Y0051482D02*
X0093236Y0051777D01*
X0093236Y0052072D01*
X0092941Y0052367D01*
X0092351Y0052367D01*
X0092056Y0052662D01*
X0092056Y0052957D01*
X0092351Y0053252D01*
X0092941Y0053252D01*
X0093236Y0052957D01*
X0093868Y0052662D02*
X0094458Y0053252D01*
X0094458Y0051482D01*
X0093868Y0051482D02*
X0095048Y0051482D01*
X0092941Y0051482D02*
X0092351Y0051482D01*
X0092056Y0051777D01*
X0091423Y0051777D02*
X0091423Y0053252D01*
X0090243Y0053252D02*
X0090243Y0051777D01*
X0090538Y0051482D01*
X0091128Y0051482D01*
X0091423Y0051777D01*
X0092507Y0044695D02*
X0093392Y0044695D01*
X0093687Y0044400D01*
X0093687Y0043810D01*
X0093392Y0043515D01*
X0092507Y0043515D01*
X0093097Y0043515D02*
X0093687Y0042925D01*
X0094319Y0042925D02*
X0095499Y0042925D01*
X0094909Y0042925D02*
X0094909Y0044695D01*
X0094319Y0044105D01*
X0096132Y0043810D02*
X0096722Y0044105D01*
X0097017Y0044105D01*
X0097312Y0043810D01*
X0097312Y0043220D01*
X0097017Y0042925D01*
X0096427Y0042925D01*
X0096132Y0043220D01*
X0096132Y0043810D02*
X0096132Y0044695D01*
X0097312Y0044695D01*
X0092507Y0044695D02*
X0092507Y0042925D01*
X0098756Y0028346D02*
X0098462Y0028051D01*
X0098462Y0026871D01*
X0098756Y0026576D01*
X0099347Y0026576D01*
X0099642Y0026871D01*
X0100274Y0026576D02*
X0101454Y0026576D01*
X0100864Y0026576D02*
X0100864Y0028346D01*
X0100274Y0027756D01*
X0099642Y0028051D02*
X0099347Y0028346D01*
X0098756Y0028346D01*
X0102087Y0028051D02*
X0102087Y0027756D01*
X0102382Y0027461D01*
X0103267Y0027461D01*
X0103267Y0026871D02*
X0103267Y0028051D01*
X0102972Y0028346D01*
X0102382Y0028346D01*
X0102087Y0028051D01*
X0102087Y0026871D02*
X0102382Y0026576D01*
X0102972Y0026576D01*
X0103267Y0026871D01*
X0132147Y0053978D02*
X0132147Y0055748D01*
X0133032Y0055748D01*
X0133327Y0055453D01*
X0133327Y0054863D01*
X0133032Y0054568D01*
X0132147Y0054568D01*
X0132737Y0054568D02*
X0133327Y0053978D01*
X0133960Y0053978D02*
X0135140Y0053978D01*
X0134550Y0053978D02*
X0134550Y0055748D01*
X0133960Y0055158D01*
X0135772Y0054863D02*
X0136952Y0054863D01*
X0136657Y0055748D02*
X0135772Y0054863D01*
X0136657Y0053978D02*
X0136657Y0055748D01*
X0138976Y0045639D02*
X0139271Y0045049D01*
X0139861Y0044459D01*
X0139861Y0045344D01*
X0140156Y0045639D01*
X0140451Y0045639D01*
X0140746Y0045344D01*
X0140746Y0044754D01*
X0140451Y0044459D01*
X0139861Y0044459D01*
X0139566Y0043826D02*
X0139271Y0043826D01*
X0138976Y0043531D01*
X0138976Y0042941D01*
X0139271Y0042646D01*
X0139271Y0042014D02*
X0138976Y0041719D01*
X0138976Y0041129D01*
X0139271Y0040834D01*
X0140451Y0040834D01*
X0140746Y0041129D01*
X0140746Y0041719D01*
X0140451Y0042014D01*
X0140746Y0042646D02*
X0139566Y0043826D01*
X0140746Y0043826D02*
X0140746Y0042646D01*
X0141736Y0038277D02*
X0141146Y0037982D01*
X0140556Y0037392D01*
X0141441Y0037392D01*
X0141736Y0037097D01*
X0141736Y0036802D01*
X0141441Y0036507D01*
X0140851Y0036507D01*
X0140556Y0036802D01*
X0140556Y0037392D01*
X0139923Y0036507D02*
X0138743Y0036507D01*
X0139333Y0036507D02*
X0139333Y0038277D01*
X0138743Y0037687D01*
X0138111Y0037392D02*
X0137816Y0037097D01*
X0136931Y0037097D01*
X0136931Y0036507D02*
X0136931Y0038277D01*
X0137816Y0038277D01*
X0138111Y0037982D01*
X0138111Y0037392D01*
X0137521Y0037097D02*
X0138111Y0036507D01*
X0158414Y0062643D02*
X0159004Y0062643D01*
X0159299Y0062938D01*
X0159932Y0062643D02*
X0161112Y0063823D01*
X0161112Y0064118D01*
X0160817Y0064413D01*
X0160227Y0064413D01*
X0159932Y0064118D01*
X0159299Y0064118D02*
X0159004Y0064413D01*
X0158414Y0064413D01*
X0158119Y0064118D01*
X0158119Y0062938D01*
X0158414Y0062643D01*
X0159932Y0062643D02*
X0161112Y0062643D01*
X0161744Y0062938D02*
X0162039Y0062643D01*
X0162629Y0062643D01*
X0162924Y0062938D01*
X0162924Y0063528D01*
X0162629Y0063823D01*
X0162334Y0063823D01*
X0161744Y0063528D01*
X0161744Y0064413D01*
X0162924Y0064413D01*
X0169232Y0086975D02*
X0170412Y0086975D01*
X0170707Y0087270D01*
X0170707Y0087860D01*
X0170412Y0088155D01*
X0169822Y0088788D02*
X0169822Y0089968D01*
X0169822Y0090600D02*
X0169822Y0091485D01*
X0170117Y0091780D01*
X0170412Y0091780D01*
X0170707Y0091485D01*
X0170707Y0090895D01*
X0170412Y0090600D01*
X0169822Y0090600D01*
X0169232Y0091190D01*
X0168937Y0091780D01*
X0168937Y0089673D02*
X0169822Y0088788D01*
X0169232Y0088155D02*
X0168937Y0087860D01*
X0168937Y0087270D01*
X0169232Y0086975D01*
X0168937Y0089673D02*
X0170707Y0089673D01*
X0179026Y0089673D02*
X0179911Y0088788D01*
X0179911Y0089968D01*
X0179911Y0090600D02*
X0179026Y0090600D01*
X0179026Y0091780D01*
X0179616Y0091485D02*
X0179911Y0091780D01*
X0180501Y0091780D01*
X0180796Y0091485D01*
X0180796Y0090895D01*
X0180501Y0090600D01*
X0179911Y0090600D02*
X0179616Y0091190D01*
X0179616Y0091485D01*
X0179026Y0089673D02*
X0180796Y0089673D01*
X0180501Y0088155D02*
X0180796Y0087860D01*
X0180796Y0087270D01*
X0180501Y0086975D01*
X0179321Y0086975D01*
X0179026Y0087270D01*
X0179026Y0087860D01*
X0179321Y0088155D01*
X0188622Y0087860D02*
X0188622Y0087270D01*
X0188917Y0086975D01*
X0190097Y0086975D01*
X0190392Y0087270D01*
X0190392Y0087860D01*
X0190097Y0088155D01*
X0189507Y0088788D02*
X0189507Y0089968D01*
X0189507Y0090600D02*
X0189507Y0091780D01*
X0188622Y0091485D02*
X0189507Y0090600D01*
X0190392Y0091485D02*
X0188622Y0091485D01*
X0188622Y0089673D02*
X0189507Y0088788D01*
X0188917Y0088155D02*
X0188622Y0087860D01*
X0188622Y0089673D02*
X0190392Y0089673D01*
X0201071Y0092995D02*
X0201366Y0092700D01*
X0201956Y0092700D01*
X0202251Y0092995D01*
X0202251Y0094470D01*
X0202884Y0093585D02*
X0203769Y0094470D01*
X0203769Y0092700D01*
X0204064Y0093585D02*
X0202884Y0093585D01*
X0201071Y0092995D02*
X0201071Y0094470D01*
X0212244Y0092026D02*
X0212539Y0092026D01*
X0213719Y0090846D01*
X0214014Y0090846D01*
X0214014Y0089919D02*
X0212244Y0089919D01*
X0213129Y0089034D01*
X0213129Y0090214D01*
X0212244Y0090846D02*
X0212244Y0092026D01*
X0212539Y0088401D02*
X0212244Y0088106D01*
X0212244Y0087516D01*
X0212539Y0087221D01*
X0213719Y0087221D01*
X0214014Y0087516D01*
X0214014Y0088106D01*
X0213719Y0088401D01*
X0222087Y0088837D02*
X0222382Y0088542D01*
X0223562Y0088542D01*
X0223857Y0088837D01*
X0223857Y0089427D01*
X0223562Y0089722D01*
X0223562Y0090354D02*
X0223857Y0090649D01*
X0223857Y0091239D01*
X0223562Y0091534D01*
X0223267Y0091534D01*
X0222972Y0091239D01*
X0222972Y0090944D01*
X0222972Y0091239D02*
X0222677Y0091534D01*
X0222382Y0091534D01*
X0222087Y0091239D01*
X0222087Y0090649D01*
X0222382Y0090354D01*
X0222382Y0089722D02*
X0222087Y0089427D01*
X0222087Y0088837D01*
X0229461Y0096852D02*
X0229461Y0099212D01*
X0229166Y0098917D02*
X0229756Y0098917D01*
X0230051Y0098622D01*
X0230684Y0098622D02*
X0230684Y0098327D01*
X0230979Y0098032D01*
X0231569Y0098032D01*
X0231864Y0097737D01*
X0231864Y0097442D01*
X0231569Y0097147D01*
X0230979Y0097147D01*
X0230684Y0097442D01*
X0230684Y0097737D01*
X0230979Y0098032D01*
X0231569Y0098032D02*
X0231864Y0098327D01*
X0231864Y0098622D01*
X0231569Y0098917D01*
X0230979Y0098917D01*
X0230684Y0098622D01*
X0230051Y0097737D02*
X0229756Y0098032D01*
X0229166Y0098032D01*
X0228871Y0098327D01*
X0228871Y0098622D01*
X0229166Y0098917D01*
X0228239Y0098917D02*
X0228239Y0097442D01*
X0227944Y0097147D01*
X0227354Y0097147D01*
X0227059Y0097442D01*
X0227059Y0098917D01*
X0228871Y0097442D02*
X0229166Y0097147D01*
X0229756Y0097147D01*
X0230051Y0097442D01*
X0230051Y0097737D01*
X0250430Y0102526D02*
X0250725Y0102231D01*
X0251020Y0102231D01*
X0251315Y0102526D01*
X0251315Y0104001D01*
X0251020Y0104001D02*
X0251610Y0104001D01*
X0252242Y0104001D02*
X0253127Y0104001D01*
X0253422Y0103706D01*
X0253422Y0103116D01*
X0253127Y0102821D01*
X0252242Y0102821D01*
X0252242Y0102231D02*
X0252242Y0104001D01*
X0254055Y0103116D02*
X0254940Y0103116D01*
X0255235Y0102821D01*
X0255235Y0102526D01*
X0254940Y0102231D01*
X0254350Y0102231D01*
X0254055Y0102526D01*
X0254055Y0103116D01*
X0254645Y0103706D01*
X0255235Y0104001D01*
X0264439Y0107078D02*
X0265914Y0107078D01*
X0266209Y0107373D01*
X0266209Y0107963D01*
X0265914Y0108258D01*
X0264439Y0108258D01*
X0264734Y0108891D02*
X0264439Y0109186D01*
X0264439Y0109776D01*
X0264734Y0110071D01*
X0265029Y0110071D01*
X0265324Y0109776D01*
X0265619Y0110071D01*
X0265914Y0110071D01*
X0266209Y0109776D01*
X0266209Y0109186D01*
X0265914Y0108891D01*
X0265324Y0109481D02*
X0265324Y0109776D01*
X0265785Y0083218D02*
X0265785Y0081743D01*
X0265490Y0081448D01*
X0264900Y0081448D01*
X0264605Y0081743D01*
X0264605Y0083218D01*
X0266417Y0082923D02*
X0266417Y0082628D01*
X0266712Y0082333D01*
X0267302Y0082333D01*
X0267597Y0082038D01*
X0267597Y0081743D01*
X0267302Y0081448D01*
X0266712Y0081448D01*
X0266417Y0081743D01*
X0266417Y0082038D01*
X0266712Y0082333D01*
X0267302Y0082333D02*
X0267597Y0082628D01*
X0267597Y0082923D01*
X0267302Y0083218D01*
X0266712Y0083218D01*
X0266417Y0082923D01*
X0268888Y0065698D02*
X0268593Y0065403D01*
X0268593Y0064813D01*
X0268888Y0064518D01*
X0269183Y0064518D01*
X0269478Y0064813D01*
X0269478Y0065698D01*
X0270068Y0065698D02*
X0268888Y0065698D01*
X0270068Y0065698D02*
X0270363Y0065403D01*
X0270363Y0064813D01*
X0270068Y0064518D01*
X0269478Y0063885D02*
X0269478Y0062705D01*
X0268593Y0063590D01*
X0270363Y0063590D01*
X0270068Y0062073D02*
X0270363Y0061778D01*
X0270363Y0061188D01*
X0270068Y0060893D01*
X0268888Y0060893D01*
X0268593Y0061188D01*
X0268593Y0061778D01*
X0268888Y0062073D01*
X0277920Y0063299D02*
X0277920Y0065069D01*
X0278805Y0065069D01*
X0279100Y0064774D01*
X0279100Y0064184D01*
X0278805Y0063889D01*
X0277920Y0063889D01*
X0278510Y0063889D02*
X0279100Y0063299D01*
X0279733Y0064184D02*
X0280913Y0064184D01*
X0281545Y0064774D02*
X0281840Y0065069D01*
X0282430Y0065069D01*
X0282725Y0064774D01*
X0282725Y0064479D01*
X0282430Y0064184D01*
X0282725Y0063889D01*
X0282725Y0063594D01*
X0282430Y0063299D01*
X0281840Y0063299D01*
X0281545Y0063594D01*
X0282135Y0064184D02*
X0282430Y0064184D01*
X0280618Y0065069D02*
X0279733Y0064184D01*
X0280618Y0063299D02*
X0280618Y0065069D01*
X0289922Y0054843D02*
X0289922Y0014843D01*
X0292756Y0014966D02*
X0292756Y0013491D01*
X0293051Y0013196D01*
X0293641Y0013196D01*
X0293936Y0013491D01*
X0293936Y0014966D01*
X0294569Y0014671D02*
X0294864Y0014966D01*
X0295454Y0014966D01*
X0295749Y0014671D01*
X0295749Y0014376D01*
X0294569Y0013196D01*
X0295749Y0013196D01*
X0332187Y0014868D02*
X0332482Y0014573D01*
X0332777Y0014573D01*
X0333072Y0014868D01*
X0333072Y0016343D01*
X0332777Y0016343D02*
X0333367Y0016343D01*
X0333999Y0016343D02*
X0334884Y0016343D01*
X0335179Y0016048D01*
X0335179Y0015458D01*
X0334884Y0015163D01*
X0333999Y0015163D01*
X0333999Y0014573D02*
X0333999Y0016343D01*
X0335812Y0015753D02*
X0336402Y0016343D01*
X0336402Y0014573D01*
X0335812Y0014573D02*
X0336992Y0014573D01*
X0336992Y0024327D02*
X0335812Y0024327D01*
X0336992Y0025507D01*
X0336992Y0025802D01*
X0336697Y0026097D01*
X0336107Y0026097D01*
X0335812Y0025802D01*
X0335179Y0025802D02*
X0335179Y0025212D01*
X0334884Y0024917D01*
X0333999Y0024917D01*
X0333999Y0024327D02*
X0333999Y0026097D01*
X0334884Y0026097D01*
X0335179Y0025802D01*
X0333367Y0026097D02*
X0332777Y0026097D01*
X0333072Y0026097D02*
X0333072Y0024622D01*
X0332777Y0024327D01*
X0332482Y0024327D01*
X0332187Y0024622D01*
X0332482Y0034573D02*
X0332777Y0034573D01*
X0333072Y0034868D01*
X0333072Y0036343D01*
X0332777Y0036343D02*
X0333367Y0036343D01*
X0333999Y0036343D02*
X0334884Y0036343D01*
X0335179Y0036048D01*
X0335179Y0035458D01*
X0334884Y0035163D01*
X0333999Y0035163D01*
X0333999Y0034573D02*
X0333999Y0036343D01*
X0335812Y0036048D02*
X0336107Y0036343D01*
X0336697Y0036343D01*
X0336992Y0036048D01*
X0336992Y0035753D01*
X0336697Y0035458D01*
X0336992Y0035163D01*
X0336992Y0034868D01*
X0336697Y0034573D01*
X0336107Y0034573D01*
X0335812Y0034868D01*
X0336402Y0035458D02*
X0336697Y0035458D01*
X0332482Y0034573D02*
X0332187Y0034868D01*
X0332728Y0044327D02*
X0333023Y0044327D01*
X0333318Y0044622D01*
X0333318Y0046097D01*
X0333023Y0046097D02*
X0333613Y0046097D01*
X0334245Y0046097D02*
X0334245Y0044327D01*
X0334245Y0044917D02*
X0335130Y0044917D01*
X0335425Y0045212D01*
X0335425Y0045802D01*
X0335130Y0046097D01*
X0334245Y0046097D01*
X0336058Y0045212D02*
X0336943Y0046097D01*
X0336943Y0044327D01*
X0337238Y0045212D02*
X0336058Y0045212D01*
X0332728Y0044327D02*
X0332433Y0044622D01*
X0332728Y0054327D02*
X0333023Y0054327D01*
X0333318Y0054622D01*
X0333318Y0056097D01*
X0333023Y0056097D02*
X0333613Y0056097D01*
X0334245Y0056097D02*
X0335130Y0056097D01*
X0335425Y0055802D01*
X0335425Y0055212D01*
X0335130Y0054917D01*
X0334245Y0054917D01*
X0334245Y0054327D02*
X0334245Y0056097D01*
X0336058Y0056097D02*
X0336058Y0055212D01*
X0336648Y0055507D01*
X0336943Y0055507D01*
X0337238Y0055212D01*
X0337238Y0054622D01*
X0336943Y0054327D01*
X0336353Y0054327D01*
X0336058Y0054622D01*
X0336058Y0056097D02*
X0337238Y0056097D01*
X0332728Y0054327D02*
X0332433Y0054622D01*
X0256006Y0006821D02*
X0256006Y0005051D01*
X0255416Y0005051D02*
X0256597Y0005051D01*
X0255416Y0006231D02*
X0256006Y0006821D01*
X0254784Y0006526D02*
X0254784Y0005936D01*
X0254489Y0005641D01*
X0253604Y0005641D01*
X0254194Y0005641D02*
X0254784Y0005051D01*
X0253604Y0005051D02*
X0253604Y0006821D01*
X0254489Y0006821D01*
X0254784Y0006526D01*
X0229343Y0011251D02*
X0229048Y0010956D01*
X0228458Y0010956D01*
X0228163Y0011251D01*
X0227530Y0010956D02*
X0226940Y0011546D01*
X0227235Y0011546D02*
X0226350Y0011546D01*
X0226350Y0010956D02*
X0226350Y0012726D01*
X0227235Y0012726D01*
X0227530Y0012431D01*
X0227530Y0011841D01*
X0227235Y0011546D01*
X0228163Y0012431D02*
X0228458Y0012726D01*
X0229048Y0012726D01*
X0229343Y0012431D01*
X0229343Y0012136D01*
X0229048Y0011841D01*
X0229343Y0011546D01*
X0229343Y0011251D01*
X0229048Y0011841D02*
X0228753Y0011841D01*
X0211231Y0019966D02*
X0210051Y0019966D01*
X0210641Y0019966D02*
X0210641Y0021736D01*
X0210051Y0021146D01*
X0209419Y0021146D02*
X0209419Y0021441D01*
X0209124Y0021736D01*
X0208534Y0021736D01*
X0208239Y0021441D01*
X0207606Y0021441D02*
X0207311Y0021736D01*
X0206721Y0021736D01*
X0206426Y0021441D01*
X0206426Y0020261D01*
X0206721Y0019966D01*
X0207311Y0019966D01*
X0207606Y0020261D01*
X0208239Y0019966D02*
X0209419Y0021146D01*
X0209419Y0019966D02*
X0208239Y0019966D01*
X0217162Y0034135D02*
X0216867Y0034430D01*
X0216867Y0035610D01*
X0217162Y0035905D01*
X0217752Y0035905D01*
X0218047Y0035610D01*
X0218680Y0035905D02*
X0218680Y0035020D01*
X0219270Y0035315D01*
X0219565Y0035315D01*
X0219860Y0035020D01*
X0219860Y0034430D01*
X0219565Y0034135D01*
X0218975Y0034135D01*
X0218680Y0034430D01*
X0218047Y0034430D02*
X0217752Y0034135D01*
X0217162Y0034135D01*
X0218680Y0035905D02*
X0219860Y0035905D01*
X0220492Y0035610D02*
X0220492Y0035315D01*
X0220787Y0035020D01*
X0221672Y0035020D01*
X0221672Y0034430D02*
X0221672Y0035610D01*
X0221377Y0035905D01*
X0220787Y0035905D01*
X0220492Y0035610D01*
X0220492Y0034430D02*
X0220787Y0034135D01*
X0221377Y0034135D01*
X0221672Y0034430D01*
X0223208Y0032223D02*
X0222913Y0031928D01*
X0222913Y0031338D01*
X0223208Y0031043D01*
X0223208Y0030411D02*
X0222913Y0030116D01*
X0222913Y0029526D01*
X0223208Y0029231D01*
X0224388Y0029231D01*
X0224683Y0029526D01*
X0224683Y0030116D01*
X0224388Y0030411D01*
X0224683Y0031043D02*
X0223503Y0032223D01*
X0223208Y0032223D01*
X0224683Y0032223D02*
X0224683Y0031043D01*
X0223493Y0042256D02*
X0222903Y0042256D01*
X0222608Y0042551D01*
X0223788Y0043731D01*
X0223788Y0042551D01*
X0223493Y0042256D01*
X0222608Y0042551D02*
X0222608Y0043731D01*
X0222903Y0044026D01*
X0223493Y0044026D01*
X0223788Y0043731D01*
X0221976Y0044026D02*
X0221386Y0043731D01*
X0220796Y0043141D01*
X0221681Y0043141D01*
X0221976Y0042846D01*
X0221976Y0042551D01*
X0221681Y0042256D01*
X0221091Y0042256D01*
X0220796Y0042551D01*
X0220796Y0043141D01*
X0220163Y0043731D02*
X0219868Y0044026D01*
X0219278Y0044026D01*
X0218983Y0043731D01*
X0218983Y0042551D01*
X0219278Y0042256D01*
X0219868Y0042256D01*
X0220163Y0042551D01*
X0218307Y0060346D02*
X0218307Y0060641D01*
X0219487Y0061821D01*
X0219487Y0062116D01*
X0218307Y0062116D01*
X0217675Y0061821D02*
X0217380Y0062116D01*
X0216790Y0062116D01*
X0216495Y0061821D01*
X0215862Y0061821D02*
X0215862Y0061231D01*
X0215567Y0060936D01*
X0214682Y0060936D01*
X0214682Y0060346D02*
X0214682Y0062116D01*
X0215567Y0062116D01*
X0215862Y0061821D01*
X0215272Y0060936D02*
X0215862Y0060346D01*
X0216495Y0060346D02*
X0217675Y0061526D01*
X0217675Y0061821D01*
X0217675Y0060346D02*
X0216495Y0060346D01*
X0217133Y0070435D02*
X0217133Y0072205D01*
X0216248Y0071320D01*
X0217428Y0071320D01*
X0218061Y0071615D02*
X0218061Y0071910D01*
X0218356Y0072205D01*
X0218946Y0072205D01*
X0219241Y0071910D01*
X0219241Y0071615D01*
X0218946Y0071320D01*
X0218356Y0071320D01*
X0218061Y0071615D01*
X0218356Y0071320D02*
X0218061Y0071025D01*
X0218061Y0070730D01*
X0218356Y0070435D01*
X0218946Y0070435D01*
X0219241Y0070730D01*
X0219241Y0071025D01*
X0218946Y0071320D01*
X0215616Y0071910D02*
X0215321Y0072205D01*
X0214731Y0072205D01*
X0214436Y0071910D01*
X0214436Y0070730D01*
X0214731Y0070435D01*
X0215321Y0070435D01*
X0215616Y0070730D01*
X0177747Y0031579D02*
X0178042Y0031284D01*
X0176862Y0030104D01*
X0177157Y0029809D01*
X0177747Y0029809D01*
X0178042Y0030104D01*
X0178042Y0031284D01*
X0177747Y0031579D02*
X0177157Y0031579D01*
X0176862Y0031284D01*
X0176862Y0030104D01*
X0176230Y0029809D02*
X0175050Y0029809D01*
X0176230Y0030989D01*
X0176230Y0031284D01*
X0175935Y0031579D01*
X0175345Y0031579D01*
X0175050Y0031284D01*
X0174417Y0031284D02*
X0174122Y0031579D01*
X0173532Y0031579D01*
X0173237Y0031284D01*
X0173237Y0030104D01*
X0173532Y0029809D01*
X0174122Y0029809D01*
X0174417Y0030104D01*
X0175922Y0006693D02*
X0175627Y0006398D01*
X0175627Y0005218D01*
X0175922Y0004923D01*
X0176512Y0004923D01*
X0176807Y0005218D01*
X0177439Y0004923D02*
X0178619Y0006103D01*
X0178619Y0006398D01*
X0178324Y0006693D01*
X0177734Y0006693D01*
X0177439Y0006398D01*
X0176807Y0006398D02*
X0176512Y0006693D01*
X0175922Y0006693D01*
X0177439Y0004923D02*
X0178619Y0004923D01*
X0179252Y0004923D02*
X0180432Y0006103D01*
X0180432Y0006398D01*
X0180137Y0006693D01*
X0179547Y0006693D01*
X0179252Y0006398D01*
X0179252Y0004923D02*
X0180432Y0004923D01*
X0164093Y0005218D02*
X0163798Y0004923D01*
X0163208Y0004923D01*
X0162913Y0005218D01*
X0162281Y0004923D02*
X0161101Y0004923D01*
X0162281Y0006103D01*
X0162281Y0006398D01*
X0161986Y0006693D01*
X0161396Y0006693D01*
X0161101Y0006398D01*
X0160468Y0006398D02*
X0160173Y0006693D01*
X0159583Y0006693D01*
X0159288Y0006398D01*
X0159288Y0005218D01*
X0159583Y0004923D01*
X0160173Y0004923D01*
X0160468Y0005218D01*
X0162913Y0006398D02*
X0163208Y0006693D01*
X0163798Y0006693D01*
X0164093Y0006398D01*
X0164093Y0006103D01*
X0163798Y0005808D01*
X0164093Y0005513D01*
X0164093Y0005218D01*
X0163798Y0005808D02*
X0163503Y0005808D01*
X0163417Y0097230D02*
X0163417Y0099000D01*
X0162532Y0098115D01*
X0163712Y0098115D01*
X0161899Y0098410D02*
X0161899Y0098705D01*
X0161604Y0099000D01*
X0161014Y0099000D01*
X0160719Y0098705D01*
X0160086Y0098705D02*
X0159791Y0099000D01*
X0159201Y0099000D01*
X0158906Y0098705D01*
X0158906Y0097525D01*
X0159201Y0097230D01*
X0159791Y0097230D01*
X0160086Y0097525D01*
X0160719Y0097230D02*
X0161899Y0098410D01*
X0161899Y0097230D02*
X0160719Y0097230D01*
X0037926Y0195887D02*
X0037926Y0196182D01*
X0039106Y0197362D01*
X0039106Y0197657D01*
X0037926Y0197657D01*
X0037294Y0197362D02*
X0036999Y0197657D01*
X0036409Y0197657D01*
X0036114Y0197362D01*
X0036114Y0196182D01*
X0036409Y0195887D01*
X0036999Y0195887D01*
X0037294Y0196182D01*
X0031823Y0188799D02*
X0031233Y0188504D01*
X0030643Y0187914D01*
X0031528Y0187914D01*
X0031823Y0187619D01*
X0031823Y0187324D01*
X0031528Y0187029D01*
X0030938Y0187029D01*
X0030643Y0187324D01*
X0030643Y0187914D01*
X0030010Y0187914D02*
X0029715Y0187619D01*
X0028830Y0187619D01*
X0028830Y0187029D02*
X0028830Y0188799D01*
X0029715Y0188799D01*
X0030010Y0188504D01*
X0030010Y0187914D01*
X0029420Y0187619D02*
X0030010Y0187029D01*
X0029843Y0180079D02*
X0030138Y0179784D01*
X0030138Y0179194D01*
X0029843Y0178899D01*
X0028958Y0178899D01*
X0029548Y0178899D02*
X0030138Y0178309D01*
X0030771Y0178309D02*
X0030771Y0178604D01*
X0031951Y0179784D01*
X0031951Y0180079D01*
X0030771Y0180079D01*
X0029843Y0180079D02*
X0028958Y0180079D01*
X0028958Y0178309D01*
X0018163Y0215193D02*
X0017573Y0215783D01*
X0017868Y0215783D02*
X0016983Y0215783D01*
X0016983Y0215193D02*
X0016983Y0216963D01*
X0017868Y0216963D01*
X0018163Y0216668D01*
X0018163Y0216078D01*
X0017868Y0215783D01*
X0016350Y0215193D02*
X0015170Y0215193D01*
X0015170Y0216963D01*
X0016350Y0216963D01*
X0015760Y0216078D02*
X0015170Y0216078D01*
X0014538Y0215488D02*
X0014538Y0216668D01*
X0014243Y0216963D01*
X0013358Y0216963D01*
X0013358Y0215193D01*
X0014243Y0215193D01*
X0014538Y0215488D01*
X0012725Y0215488D02*
X0012725Y0216668D01*
X0012430Y0216963D01*
X0011840Y0216963D01*
X0011545Y0216668D01*
X0011545Y0215488D01*
X0011840Y0215193D01*
X0012430Y0215193D01*
X0012725Y0215488D01*
X0010913Y0215488D02*
X0010618Y0215193D01*
X0010028Y0215193D01*
X0009733Y0215488D01*
X0009733Y0216668D01*
X0010028Y0216963D01*
X0010618Y0216963D01*
X0010913Y0216668D01*
X0009100Y0216963D02*
X0009100Y0215193D01*
X0007920Y0216963D01*
X0007920Y0215193D01*
X0007288Y0215193D02*
X0006108Y0215193D01*
X0006108Y0216963D01*
X0007288Y0216963D01*
X0006698Y0216078D02*
X0006108Y0216078D01*
X0022264Y0134423D02*
X0023444Y0133243D01*
X0023739Y0133538D01*
X0023739Y0134128D01*
X0023444Y0134423D01*
X0022264Y0134423D01*
X0021969Y0134128D01*
X0021969Y0133538D01*
X0022264Y0133243D01*
X0023444Y0133243D01*
X0023739Y0132610D02*
X0023739Y0131430D01*
X0023739Y0132020D02*
X0021969Y0132020D01*
X0022559Y0131430D01*
X0022264Y0130798D02*
X0021969Y0130503D01*
X0021969Y0129913D01*
X0022264Y0129618D01*
X0023444Y0129618D01*
X0023739Y0129913D01*
X0023739Y0130503D01*
X0023444Y0130798D01*
X0252264Y0277391D02*
X0252264Y0277981D01*
X0252264Y0277686D02*
X0253739Y0277686D01*
X0254034Y0277391D01*
X0254034Y0277096D01*
X0253739Y0276801D01*
X0254034Y0278614D02*
X0254034Y0279794D01*
X0254034Y0279204D02*
X0252264Y0279204D01*
X0252854Y0278614D01*
X0309843Y0268467D02*
X0309843Y0267877D01*
X0310138Y0267582D01*
X0310138Y0266949D02*
X0310728Y0266949D01*
X0311023Y0266654D01*
X0311023Y0265769D01*
X0311613Y0265769D02*
X0309843Y0265769D01*
X0309843Y0266654D01*
X0310138Y0266949D01*
X0311023Y0266359D02*
X0311613Y0266949D01*
X0311613Y0267582D02*
X0310433Y0268762D01*
X0310138Y0268762D01*
X0309843Y0268467D01*
X0311613Y0268762D02*
X0311613Y0267582D01*
X0320020Y0269308D02*
X0320020Y0270193D01*
X0320315Y0270488D01*
X0320905Y0270488D01*
X0321200Y0270193D01*
X0321200Y0269308D01*
X0321790Y0269308D02*
X0320020Y0269308D01*
X0321200Y0269898D02*
X0321790Y0270488D01*
X0321790Y0271121D02*
X0320610Y0272301D01*
X0320315Y0272301D01*
X0320020Y0272006D01*
X0320020Y0271416D01*
X0320315Y0271121D01*
X0321790Y0271121D02*
X0321790Y0272301D01*
X0321495Y0272933D02*
X0321790Y0273228D01*
X0321790Y0273818D01*
X0321495Y0274113D01*
X0320315Y0274113D01*
X0320020Y0273818D01*
X0320020Y0273228D01*
X0320315Y0272933D01*
X0320610Y0272933D01*
X0320905Y0273228D01*
X0320905Y0274113D01*
X0323304Y0271998D02*
X0323304Y0270523D01*
X0323599Y0270228D01*
X0324189Y0270228D01*
X0324484Y0270523D01*
X0324484Y0271998D01*
X0325117Y0271408D02*
X0325707Y0271998D01*
X0325707Y0270228D01*
X0325117Y0270228D02*
X0326297Y0270228D01*
X0326929Y0270523D02*
X0328109Y0271703D01*
X0328109Y0270523D01*
X0327814Y0270228D01*
X0327224Y0270228D01*
X0326929Y0270523D01*
X0326929Y0271703D01*
X0327224Y0271998D01*
X0327814Y0271998D01*
X0328109Y0271703D01*
X0328257Y0269137D02*
X0328552Y0269137D01*
X0328847Y0268842D01*
X0328847Y0268252D01*
X0328552Y0267957D01*
X0328257Y0267957D01*
X0327962Y0268252D01*
X0327962Y0268842D01*
X0328257Y0269137D01*
X0327962Y0268842D02*
X0327667Y0269137D01*
X0327372Y0269137D01*
X0327077Y0268842D01*
X0327077Y0268252D01*
X0327372Y0267957D01*
X0327667Y0267957D01*
X0327962Y0268252D01*
X0327667Y0267325D02*
X0327372Y0267325D01*
X0327077Y0267030D01*
X0327077Y0266440D01*
X0327372Y0266145D01*
X0327372Y0265512D02*
X0327962Y0265512D01*
X0328257Y0265217D01*
X0328257Y0264332D01*
X0328847Y0264332D02*
X0327077Y0264332D01*
X0327077Y0265217D01*
X0327372Y0265512D01*
X0328257Y0264922D02*
X0328847Y0265512D01*
X0328847Y0266145D02*
X0327667Y0267325D01*
X0328847Y0267325D02*
X0328847Y0266145D01*
X0334943Y0247628D02*
X0336123Y0245858D01*
X0336755Y0246153D02*
X0337050Y0245858D01*
X0337640Y0245858D01*
X0337935Y0246153D01*
X0337935Y0246743D01*
X0337640Y0247038D01*
X0337345Y0247038D01*
X0336755Y0246743D01*
X0336755Y0247628D01*
X0337935Y0247628D01*
X0336123Y0247628D02*
X0334943Y0245858D01*
X0334736Y0228681D02*
X0335916Y0226911D01*
X0336548Y0227796D02*
X0337728Y0227796D01*
X0337433Y0226911D02*
X0337433Y0228681D01*
X0336548Y0227796D01*
X0335916Y0228681D02*
X0334736Y0226911D01*
X0294428Y0226006D02*
X0293248Y0226006D01*
X0293838Y0226006D02*
X0293838Y0227776D01*
X0293248Y0227186D01*
X0292616Y0227481D02*
X0292616Y0226301D01*
X0292320Y0226006D01*
X0291730Y0226006D01*
X0291435Y0226301D01*
X0291435Y0227481D01*
X0291730Y0227776D01*
X0292320Y0227776D01*
X0292616Y0227481D01*
X0292025Y0226596D02*
X0292616Y0226006D01*
X0298712Y0191625D02*
X0299007Y0191625D01*
X0299302Y0191330D01*
X0299597Y0191625D01*
X0299892Y0191625D01*
X0300187Y0191330D01*
X0300187Y0190740D01*
X0299892Y0190445D01*
X0299892Y0189812D02*
X0300187Y0189517D01*
X0300187Y0188927D01*
X0299892Y0188632D01*
X0298712Y0188632D01*
X0298417Y0188927D01*
X0298417Y0189517D01*
X0298712Y0189812D01*
X0298712Y0190445D02*
X0298417Y0190740D01*
X0298417Y0191330D01*
X0298712Y0191625D01*
X0299302Y0191330D02*
X0299302Y0191035D01*
X0298417Y0188014D02*
X0298417Y0187424D01*
X0298417Y0187719D02*
X0300187Y0187719D01*
X0300187Y0187424D02*
X0300187Y0188014D01*
X0327005Y0172111D02*
X0327595Y0172111D01*
X0327300Y0172111D02*
X0327300Y0170341D01*
X0327005Y0170341D02*
X0327595Y0170341D01*
X0328213Y0170341D02*
X0328213Y0172111D01*
X0328803Y0171521D01*
X0329393Y0172111D01*
X0329393Y0170341D01*
X0330026Y0170636D02*
X0330321Y0170341D01*
X0330911Y0170341D01*
X0331206Y0170636D01*
X0331206Y0172111D01*
X0330026Y0172111D02*
X0330026Y0170636D01*
D11*
X0331831Y0173661D02*
X0326831Y0173661D01*
X0324331Y0176161D01*
X0324331Y0181161D01*
X0326831Y0183661D01*
X0324331Y0186161D01*
X0324331Y0191161D01*
X0326831Y0193661D01*
X0331831Y0193661D01*
X0334331Y0191161D01*
X0334331Y0186161D01*
X0331831Y0183661D01*
X0334331Y0181161D01*
X0334331Y0176161D01*
X0331831Y0173661D01*
X0331831Y0183661D02*
X0326831Y0183661D01*
X0326831Y0193661D02*
X0324331Y0196161D01*
X0324331Y0201161D01*
X0326831Y0203661D01*
X0324331Y0206161D01*
X0324331Y0211161D01*
X0326831Y0213661D01*
X0331831Y0213661D01*
X0334331Y0211161D01*
X0334331Y0206161D01*
X0331831Y0203661D01*
X0334331Y0201161D01*
X0334331Y0196161D01*
X0331831Y0193661D01*
X0331831Y0203661D02*
X0326831Y0203661D01*
X0267338Y0128728D02*
X0267338Y0125792D01*
X0267338Y0127260D02*
X0262934Y0127260D01*
X0264402Y0125792D01*
X0255177Y0115433D02*
X0257677Y0112933D01*
X0257677Y0107933D01*
X0255177Y0105433D01*
X0250177Y0105433D01*
X0247677Y0107933D01*
X0247677Y0112933D01*
X0250177Y0115433D01*
X0255177Y0115433D01*
X0257201Y0077461D02*
X0257201Y0062461D01*
X0275922Y0053343D02*
X0275922Y0016343D01*
X0275924Y0016267D01*
X0275930Y0016191D01*
X0275939Y0016116D01*
X0275953Y0016041D01*
X0275970Y0015967D01*
X0275991Y0015894D01*
X0276015Y0015822D01*
X0276044Y0015751D01*
X0276075Y0015682D01*
X0276110Y0015615D01*
X0276149Y0015550D01*
X0276191Y0015486D01*
X0276236Y0015425D01*
X0276284Y0015366D01*
X0276335Y0015310D01*
X0276389Y0015256D01*
X0276445Y0015205D01*
X0276504Y0015157D01*
X0276565Y0015112D01*
X0276629Y0015070D01*
X0276694Y0015031D01*
X0276761Y0014996D01*
X0276830Y0014965D01*
X0276901Y0014936D01*
X0276973Y0014912D01*
X0277046Y0014891D01*
X0277120Y0014874D01*
X0277195Y0014860D01*
X0277270Y0014851D01*
X0277346Y0014845D01*
X0277422Y0014843D01*
X0281622Y0014843D01*
X0285622Y0014843D01*
X0289822Y0014843D01*
X0289898Y0014845D01*
X0289974Y0014851D01*
X0290049Y0014860D01*
X0290124Y0014874D01*
X0290198Y0014891D01*
X0290271Y0014912D01*
X0290343Y0014936D01*
X0290414Y0014965D01*
X0290483Y0014996D01*
X0290550Y0015031D01*
X0290615Y0015070D01*
X0290679Y0015112D01*
X0290740Y0015157D01*
X0290799Y0015205D01*
X0290855Y0015256D01*
X0290909Y0015310D01*
X0290960Y0015366D01*
X0291008Y0015425D01*
X0291053Y0015486D01*
X0291095Y0015550D01*
X0291134Y0015615D01*
X0291169Y0015682D01*
X0291200Y0015751D01*
X0291229Y0015822D01*
X0291253Y0015894D01*
X0291274Y0015967D01*
X0291291Y0016041D01*
X0291305Y0016116D01*
X0291314Y0016191D01*
X0291320Y0016267D01*
X0291322Y0016343D01*
X0291322Y0053343D01*
X0291320Y0053419D01*
X0291314Y0053495D01*
X0291305Y0053570D01*
X0291291Y0053645D01*
X0291274Y0053719D01*
X0291253Y0053792D01*
X0291229Y0053864D01*
X0291200Y0053935D01*
X0291169Y0054004D01*
X0291134Y0054071D01*
X0291095Y0054136D01*
X0291053Y0054200D01*
X0291008Y0054261D01*
X0290960Y0054320D01*
X0290909Y0054376D01*
X0290855Y0054430D01*
X0290799Y0054481D01*
X0290740Y0054529D01*
X0290679Y0054574D01*
X0290615Y0054616D01*
X0290550Y0054655D01*
X0290483Y0054690D01*
X0290414Y0054721D01*
X0290343Y0054750D01*
X0290271Y0054774D01*
X0290198Y0054795D01*
X0290124Y0054812D01*
X0290049Y0054826D01*
X0289974Y0054835D01*
X0289898Y0054841D01*
X0289822Y0054843D01*
X0277422Y0054843D01*
X0277346Y0054841D01*
X0277270Y0054835D01*
X0277195Y0054826D01*
X0277120Y0054812D01*
X0277046Y0054795D01*
X0276973Y0054774D01*
X0276901Y0054750D01*
X0276830Y0054721D01*
X0276761Y0054690D01*
X0276694Y0054655D01*
X0276629Y0054616D01*
X0276565Y0054574D01*
X0276504Y0054529D01*
X0276445Y0054481D01*
X0276389Y0054430D01*
X0276335Y0054376D01*
X0276284Y0054320D01*
X0276236Y0054261D01*
X0276191Y0054200D01*
X0276149Y0054136D01*
X0276110Y0054071D01*
X0276075Y0054004D01*
X0276044Y0053935D01*
X0276015Y0053864D01*
X0275991Y0053792D01*
X0275970Y0053719D01*
X0275953Y0053645D01*
X0275939Y0053570D01*
X0275930Y0053495D01*
X0275924Y0053419D01*
X0275922Y0053343D01*
X0301811Y0052776D02*
X0301811Y0057776D01*
X0304311Y0060276D01*
X0309311Y0060276D01*
X0311811Y0057776D01*
X0314311Y0060276D01*
X0319311Y0060276D01*
X0321811Y0057776D01*
X0324311Y0060276D01*
X0329311Y0060276D01*
X0331811Y0057776D01*
X0331811Y0052776D01*
X0329311Y0050276D01*
X0324311Y0050276D01*
X0321811Y0052776D01*
X0319311Y0050276D01*
X0314311Y0050276D01*
X0311811Y0052776D01*
X0309311Y0050276D01*
X0304311Y0050276D01*
X0301811Y0052776D01*
X0304311Y0050276D02*
X0301811Y0047776D01*
X0301811Y0042776D01*
X0304311Y0040276D01*
X0309311Y0040276D01*
X0311811Y0042776D01*
X0311811Y0047776D01*
X0309311Y0050276D01*
X0304311Y0050276D01*
X0311811Y0052776D02*
X0311811Y0057776D01*
X0314311Y0050276D02*
X0319311Y0050276D01*
X0321811Y0047776D01*
X0324311Y0050276D01*
X0329311Y0050276D01*
X0331811Y0047776D01*
X0331811Y0042776D01*
X0329311Y0040276D01*
X0324311Y0040276D01*
X0321811Y0042776D01*
X0319311Y0040276D01*
X0314311Y0040276D01*
X0311811Y0042776D01*
X0309311Y0040276D02*
X0311811Y0037776D01*
X0314311Y0040276D01*
X0319311Y0040276D01*
X0321811Y0037776D01*
X0324311Y0040276D01*
X0329311Y0040276D01*
X0331811Y0037776D01*
X0331811Y0032776D01*
X0329311Y0030276D01*
X0324311Y0030276D01*
X0321811Y0032776D01*
X0319311Y0030276D01*
X0314311Y0030276D01*
X0311811Y0032776D01*
X0309311Y0030276D01*
X0304311Y0030276D01*
X0301811Y0032776D01*
X0301811Y0037776D01*
X0304311Y0040276D01*
X0309311Y0040276D01*
X0311811Y0037776D02*
X0311811Y0032776D01*
X0309311Y0030276D02*
X0311811Y0027776D01*
X0314311Y0030276D01*
X0319311Y0030276D01*
X0321811Y0027776D01*
X0324311Y0030276D01*
X0329311Y0030276D01*
X0331811Y0027776D01*
X0331811Y0022776D01*
X0329311Y0020276D01*
X0324311Y0020276D01*
X0321811Y0022776D01*
X0319311Y0020276D01*
X0314311Y0020276D01*
X0311811Y0022776D01*
X0309311Y0020276D01*
X0304311Y0020276D01*
X0301811Y0022776D01*
X0301811Y0027776D01*
X0304311Y0030276D01*
X0309311Y0030276D01*
X0311811Y0027776D02*
X0311811Y0022776D01*
X0309311Y0020276D02*
X0311811Y0017776D01*
X0314311Y0020276D01*
X0319311Y0020276D01*
X0321811Y0017776D01*
X0324311Y0020276D01*
X0329311Y0020276D01*
X0331811Y0017776D01*
X0331811Y0012776D01*
X0329311Y0010276D01*
X0324311Y0010276D01*
X0321811Y0012776D01*
X0319311Y0010276D01*
X0314311Y0010276D01*
X0311811Y0012776D01*
X0309311Y0010276D01*
X0304311Y0010276D01*
X0301811Y0012776D01*
X0301811Y0017776D01*
X0304311Y0020276D01*
X0309311Y0020276D01*
X0311811Y0017776D02*
X0311811Y0012776D01*
X0321811Y0012776D02*
X0321811Y0017776D01*
X0321811Y0022776D02*
X0321811Y0027776D01*
X0321811Y0032776D02*
X0321811Y0037776D01*
X0321811Y0042776D02*
X0321811Y0047776D01*
X0321811Y0052776D02*
X0321811Y0057776D01*
X0314311Y0050276D02*
X0311811Y0047776D01*
X0285622Y0014843D02*
X0285620Y0014931D01*
X0285614Y0015020D01*
X0285604Y0015108D01*
X0285591Y0015195D01*
X0285573Y0015282D01*
X0285552Y0015368D01*
X0285527Y0015453D01*
X0285498Y0015536D01*
X0285465Y0015619D01*
X0285429Y0015699D01*
X0285390Y0015778D01*
X0285347Y0015856D01*
X0285300Y0015931D01*
X0285250Y0016004D01*
X0285197Y0016075D01*
X0285141Y0016144D01*
X0285082Y0016210D01*
X0285020Y0016273D01*
X0284956Y0016333D01*
X0284889Y0016391D01*
X0284819Y0016445D01*
X0284747Y0016497D01*
X0284673Y0016545D01*
X0284596Y0016590D01*
X0284518Y0016631D01*
X0284438Y0016669D01*
X0284357Y0016703D01*
X0284274Y0016734D01*
X0284189Y0016761D01*
X0284104Y0016784D01*
X0284018Y0016803D01*
X0283930Y0016819D01*
X0283843Y0016831D01*
X0283755Y0016839D01*
X0283666Y0016843D01*
X0283578Y0016843D01*
X0283489Y0016839D01*
X0283401Y0016831D01*
X0283314Y0016819D01*
X0283226Y0016803D01*
X0283140Y0016784D01*
X0283055Y0016761D01*
X0282970Y0016734D01*
X0282887Y0016703D01*
X0282806Y0016669D01*
X0282726Y0016631D01*
X0282648Y0016590D01*
X0282571Y0016545D01*
X0282497Y0016497D01*
X0282425Y0016445D01*
X0282355Y0016391D01*
X0282288Y0016333D01*
X0282224Y0016273D01*
X0282162Y0016210D01*
X0282103Y0016144D01*
X0282047Y0016075D01*
X0281994Y0016004D01*
X0281944Y0015931D01*
X0281897Y0015856D01*
X0281854Y0015778D01*
X0281815Y0015699D01*
X0281779Y0015619D01*
X0281746Y0015536D01*
X0281717Y0015453D01*
X0281692Y0015368D01*
X0281671Y0015282D01*
X0281653Y0015195D01*
X0281640Y0015108D01*
X0281630Y0015020D01*
X0281624Y0014931D01*
X0281622Y0014843D01*
X0230201Y0062461D02*
X0230201Y0077461D01*
X0184157Y0021299D02*
X0184162Y0021692D01*
X0184176Y0022084D01*
X0184200Y0022476D01*
X0184234Y0022867D01*
X0184277Y0023258D01*
X0184330Y0023647D01*
X0184393Y0024034D01*
X0184464Y0024420D01*
X0184546Y0024805D01*
X0184636Y0025187D01*
X0184737Y0025566D01*
X0184846Y0025944D01*
X0184965Y0026318D01*
X0185092Y0026689D01*
X0185229Y0027057D01*
X0185375Y0027422D01*
X0185530Y0027783D01*
X0185693Y0028140D01*
X0185865Y0028493D01*
X0186046Y0028841D01*
X0186236Y0029185D01*
X0186433Y0029525D01*
X0186639Y0029859D01*
X0186853Y0030188D01*
X0187076Y0030512D01*
X0187306Y0030830D01*
X0187543Y0031143D01*
X0187789Y0031449D01*
X0188042Y0031750D01*
X0188302Y0032044D01*
X0188569Y0032332D01*
X0188843Y0032613D01*
X0189124Y0032887D01*
X0189412Y0033154D01*
X0189706Y0033414D01*
X0190007Y0033667D01*
X0190313Y0033913D01*
X0190626Y0034150D01*
X0190944Y0034380D01*
X0191268Y0034603D01*
X0191597Y0034817D01*
X0191931Y0035023D01*
X0192271Y0035220D01*
X0192615Y0035410D01*
X0192963Y0035591D01*
X0193316Y0035763D01*
X0193673Y0035926D01*
X0194034Y0036081D01*
X0194399Y0036227D01*
X0194767Y0036364D01*
X0195138Y0036491D01*
X0195512Y0036610D01*
X0195890Y0036719D01*
X0196269Y0036820D01*
X0196651Y0036910D01*
X0197036Y0036992D01*
X0197422Y0037063D01*
X0197809Y0037126D01*
X0198198Y0037179D01*
X0198589Y0037222D01*
X0198980Y0037256D01*
X0199372Y0037280D01*
X0199764Y0037294D01*
X0200157Y0037299D01*
X0200550Y0037294D01*
X0200942Y0037280D01*
X0201334Y0037256D01*
X0201725Y0037222D01*
X0202116Y0037179D01*
X0202505Y0037126D01*
X0202892Y0037063D01*
X0203278Y0036992D01*
X0203663Y0036910D01*
X0204045Y0036820D01*
X0204424Y0036719D01*
X0204802Y0036610D01*
X0205176Y0036491D01*
X0205547Y0036364D01*
X0205915Y0036227D01*
X0206280Y0036081D01*
X0206641Y0035926D01*
X0206998Y0035763D01*
X0207351Y0035591D01*
X0207699Y0035410D01*
X0208043Y0035220D01*
X0208383Y0035023D01*
X0208717Y0034817D01*
X0209046Y0034603D01*
X0209370Y0034380D01*
X0209688Y0034150D01*
X0210001Y0033913D01*
X0210307Y0033667D01*
X0210608Y0033414D01*
X0210902Y0033154D01*
X0211190Y0032887D01*
X0211471Y0032613D01*
X0211745Y0032332D01*
X0212012Y0032044D01*
X0212272Y0031750D01*
X0212525Y0031449D01*
X0212771Y0031143D01*
X0213008Y0030830D01*
X0213238Y0030512D01*
X0213461Y0030188D01*
X0213675Y0029859D01*
X0213881Y0029525D01*
X0214078Y0029185D01*
X0214268Y0028841D01*
X0214449Y0028493D01*
X0214621Y0028140D01*
X0214784Y0027783D01*
X0214939Y0027422D01*
X0215085Y0027057D01*
X0215222Y0026689D01*
X0215349Y0026318D01*
X0215468Y0025944D01*
X0215577Y0025566D01*
X0215678Y0025187D01*
X0215768Y0024805D01*
X0215850Y0024420D01*
X0215921Y0024034D01*
X0215984Y0023647D01*
X0216037Y0023258D01*
X0216080Y0022867D01*
X0216114Y0022476D01*
X0216138Y0022084D01*
X0216152Y0021692D01*
X0216157Y0021299D01*
X0216152Y0020906D01*
X0216138Y0020514D01*
X0216114Y0020122D01*
X0216080Y0019731D01*
X0216037Y0019340D01*
X0215984Y0018951D01*
X0215921Y0018564D01*
X0215850Y0018178D01*
X0215768Y0017793D01*
X0215678Y0017411D01*
X0215577Y0017032D01*
X0215468Y0016654D01*
X0215349Y0016280D01*
X0215222Y0015909D01*
X0215085Y0015541D01*
X0214939Y0015176D01*
X0214784Y0014815D01*
X0214621Y0014458D01*
X0214449Y0014105D01*
X0214268Y0013757D01*
X0214078Y0013413D01*
X0213881Y0013073D01*
X0213675Y0012739D01*
X0213461Y0012410D01*
X0213238Y0012086D01*
X0213008Y0011768D01*
X0212771Y0011455D01*
X0212525Y0011149D01*
X0212272Y0010848D01*
X0212012Y0010554D01*
X0211745Y0010266D01*
X0211471Y0009985D01*
X0211190Y0009711D01*
X0210902Y0009444D01*
X0210608Y0009184D01*
X0210307Y0008931D01*
X0210001Y0008685D01*
X0209688Y0008448D01*
X0209370Y0008218D01*
X0209046Y0007995D01*
X0208717Y0007781D01*
X0208383Y0007575D01*
X0208043Y0007378D01*
X0207699Y0007188D01*
X0207351Y0007007D01*
X0206998Y0006835D01*
X0206641Y0006672D01*
X0206280Y0006517D01*
X0205915Y0006371D01*
X0205547Y0006234D01*
X0205176Y0006107D01*
X0204802Y0005988D01*
X0204424Y0005879D01*
X0204045Y0005778D01*
X0203663Y0005688D01*
X0203278Y0005606D01*
X0202892Y0005535D01*
X0202505Y0005472D01*
X0202116Y0005419D01*
X0201725Y0005376D01*
X0201334Y0005342D01*
X0200942Y0005318D01*
X0200550Y0005304D01*
X0200157Y0005299D01*
X0199764Y0005304D01*
X0199372Y0005318D01*
X0198980Y0005342D01*
X0198589Y0005376D01*
X0198198Y0005419D01*
X0197809Y0005472D01*
X0197422Y0005535D01*
X0197036Y0005606D01*
X0196651Y0005688D01*
X0196269Y0005778D01*
X0195890Y0005879D01*
X0195512Y0005988D01*
X0195138Y0006107D01*
X0194767Y0006234D01*
X0194399Y0006371D01*
X0194034Y0006517D01*
X0193673Y0006672D01*
X0193316Y0006835D01*
X0192963Y0007007D01*
X0192615Y0007188D01*
X0192271Y0007378D01*
X0191931Y0007575D01*
X0191597Y0007781D01*
X0191268Y0007995D01*
X0190944Y0008218D01*
X0190626Y0008448D01*
X0190313Y0008685D01*
X0190007Y0008931D01*
X0189706Y0009184D01*
X0189412Y0009444D01*
X0189124Y0009711D01*
X0188843Y0009985D01*
X0188569Y0010266D01*
X0188302Y0010554D01*
X0188042Y0010848D01*
X0187789Y0011149D01*
X0187543Y0011455D01*
X0187306Y0011768D01*
X0187076Y0012086D01*
X0186853Y0012410D01*
X0186639Y0012739D01*
X0186433Y0013073D01*
X0186236Y0013413D01*
X0186046Y0013757D01*
X0185865Y0014105D01*
X0185693Y0014458D01*
X0185530Y0014815D01*
X0185375Y0015176D01*
X0185229Y0015541D01*
X0185092Y0015909D01*
X0184965Y0016280D01*
X0184846Y0016654D01*
X0184737Y0017032D01*
X0184636Y0017411D01*
X0184546Y0017793D01*
X0184464Y0018178D01*
X0184393Y0018564D01*
X0184330Y0018951D01*
X0184277Y0019340D01*
X0184234Y0019731D01*
X0184200Y0020122D01*
X0184176Y0020514D01*
X0184162Y0020906D01*
X0184157Y0021299D01*
X0195657Y0010799D02*
X0195657Y0007799D01*
X0197157Y0009299D02*
X0194157Y0009299D01*
X0150693Y0030866D02*
X0150698Y0031259D01*
X0150712Y0031651D01*
X0150736Y0032043D01*
X0150770Y0032434D01*
X0150813Y0032825D01*
X0150866Y0033214D01*
X0150929Y0033601D01*
X0151000Y0033987D01*
X0151082Y0034372D01*
X0151172Y0034754D01*
X0151273Y0035133D01*
X0151382Y0035511D01*
X0151501Y0035885D01*
X0151628Y0036256D01*
X0151765Y0036624D01*
X0151911Y0036989D01*
X0152066Y0037350D01*
X0152229Y0037707D01*
X0152401Y0038060D01*
X0152582Y0038408D01*
X0152772Y0038752D01*
X0152969Y0039092D01*
X0153175Y0039426D01*
X0153389Y0039755D01*
X0153612Y0040079D01*
X0153842Y0040397D01*
X0154079Y0040710D01*
X0154325Y0041016D01*
X0154578Y0041317D01*
X0154838Y0041611D01*
X0155105Y0041899D01*
X0155379Y0042180D01*
X0155660Y0042454D01*
X0155948Y0042721D01*
X0156242Y0042981D01*
X0156543Y0043234D01*
X0156849Y0043480D01*
X0157162Y0043717D01*
X0157480Y0043947D01*
X0157804Y0044170D01*
X0158133Y0044384D01*
X0158467Y0044590D01*
X0158807Y0044787D01*
X0159151Y0044977D01*
X0159499Y0045158D01*
X0159852Y0045330D01*
X0160209Y0045493D01*
X0160570Y0045648D01*
X0160935Y0045794D01*
X0161303Y0045931D01*
X0161674Y0046058D01*
X0162048Y0046177D01*
X0162426Y0046286D01*
X0162805Y0046387D01*
X0163187Y0046477D01*
X0163572Y0046559D01*
X0163958Y0046630D01*
X0164345Y0046693D01*
X0164734Y0046746D01*
X0165125Y0046789D01*
X0165516Y0046823D01*
X0165908Y0046847D01*
X0166300Y0046861D01*
X0166693Y0046866D01*
X0167086Y0046861D01*
X0167478Y0046847D01*
X0167870Y0046823D01*
X0168261Y0046789D01*
X0168652Y0046746D01*
X0169041Y0046693D01*
X0169428Y0046630D01*
X0169814Y0046559D01*
X0170199Y0046477D01*
X0170581Y0046387D01*
X0170960Y0046286D01*
X0171338Y0046177D01*
X0171712Y0046058D01*
X0172083Y0045931D01*
X0172451Y0045794D01*
X0172816Y0045648D01*
X0173177Y0045493D01*
X0173534Y0045330D01*
X0173887Y0045158D01*
X0174235Y0044977D01*
X0174579Y0044787D01*
X0174919Y0044590D01*
X0175253Y0044384D01*
X0175582Y0044170D01*
X0175906Y0043947D01*
X0176224Y0043717D01*
X0176537Y0043480D01*
X0176843Y0043234D01*
X0177144Y0042981D01*
X0177438Y0042721D01*
X0177726Y0042454D01*
X0178007Y0042180D01*
X0178281Y0041899D01*
X0178548Y0041611D01*
X0178808Y0041317D01*
X0179061Y0041016D01*
X0179307Y0040710D01*
X0179544Y0040397D01*
X0179774Y0040079D01*
X0179997Y0039755D01*
X0180211Y0039426D01*
X0180417Y0039092D01*
X0180614Y0038752D01*
X0180804Y0038408D01*
X0180985Y0038060D01*
X0181157Y0037707D01*
X0181320Y0037350D01*
X0181475Y0036989D01*
X0181621Y0036624D01*
X0181758Y0036256D01*
X0181885Y0035885D01*
X0182004Y0035511D01*
X0182113Y0035133D01*
X0182214Y0034754D01*
X0182304Y0034372D01*
X0182386Y0033987D01*
X0182457Y0033601D01*
X0182520Y0033214D01*
X0182573Y0032825D01*
X0182616Y0032434D01*
X0182650Y0032043D01*
X0182674Y0031651D01*
X0182688Y0031259D01*
X0182693Y0030866D01*
X0182688Y0030473D01*
X0182674Y0030081D01*
X0182650Y0029689D01*
X0182616Y0029298D01*
X0182573Y0028907D01*
X0182520Y0028518D01*
X0182457Y0028131D01*
X0182386Y0027745D01*
X0182304Y0027360D01*
X0182214Y0026978D01*
X0182113Y0026599D01*
X0182004Y0026221D01*
X0181885Y0025847D01*
X0181758Y0025476D01*
X0181621Y0025108D01*
X0181475Y0024743D01*
X0181320Y0024382D01*
X0181157Y0024025D01*
X0180985Y0023672D01*
X0180804Y0023324D01*
X0180614Y0022980D01*
X0180417Y0022640D01*
X0180211Y0022306D01*
X0179997Y0021977D01*
X0179774Y0021653D01*
X0179544Y0021335D01*
X0179307Y0021022D01*
X0179061Y0020716D01*
X0178808Y0020415D01*
X0178548Y0020121D01*
X0178281Y0019833D01*
X0178007Y0019552D01*
X0177726Y0019278D01*
X0177438Y0019011D01*
X0177144Y0018751D01*
X0176843Y0018498D01*
X0176537Y0018252D01*
X0176224Y0018015D01*
X0175906Y0017785D01*
X0175582Y0017562D01*
X0175253Y0017348D01*
X0174919Y0017142D01*
X0174579Y0016945D01*
X0174235Y0016755D01*
X0173887Y0016574D01*
X0173534Y0016402D01*
X0173177Y0016239D01*
X0172816Y0016084D01*
X0172451Y0015938D01*
X0172083Y0015801D01*
X0171712Y0015674D01*
X0171338Y0015555D01*
X0170960Y0015446D01*
X0170581Y0015345D01*
X0170199Y0015255D01*
X0169814Y0015173D01*
X0169428Y0015102D01*
X0169041Y0015039D01*
X0168652Y0014986D01*
X0168261Y0014943D01*
X0167870Y0014909D01*
X0167478Y0014885D01*
X0167086Y0014871D01*
X0166693Y0014866D01*
X0166300Y0014871D01*
X0165908Y0014885D01*
X0165516Y0014909D01*
X0165125Y0014943D01*
X0164734Y0014986D01*
X0164345Y0015039D01*
X0163958Y0015102D01*
X0163572Y0015173D01*
X0163187Y0015255D01*
X0162805Y0015345D01*
X0162426Y0015446D01*
X0162048Y0015555D01*
X0161674Y0015674D01*
X0161303Y0015801D01*
X0160935Y0015938D01*
X0160570Y0016084D01*
X0160209Y0016239D01*
X0159852Y0016402D01*
X0159499Y0016574D01*
X0159151Y0016755D01*
X0158807Y0016945D01*
X0158467Y0017142D01*
X0158133Y0017348D01*
X0157804Y0017562D01*
X0157480Y0017785D01*
X0157162Y0018015D01*
X0156849Y0018252D01*
X0156543Y0018498D01*
X0156242Y0018751D01*
X0155948Y0019011D01*
X0155660Y0019278D01*
X0155379Y0019552D01*
X0155105Y0019833D01*
X0154838Y0020121D01*
X0154578Y0020415D01*
X0154325Y0020716D01*
X0154079Y0021022D01*
X0153842Y0021335D01*
X0153612Y0021653D01*
X0153389Y0021977D01*
X0153175Y0022306D01*
X0152969Y0022640D01*
X0152772Y0022980D01*
X0152582Y0023324D01*
X0152401Y0023672D01*
X0152229Y0024025D01*
X0152066Y0024382D01*
X0151911Y0024743D01*
X0151765Y0025108D01*
X0151628Y0025476D01*
X0151501Y0025847D01*
X0151382Y0026221D01*
X0151273Y0026599D01*
X0151172Y0026978D01*
X0151082Y0027360D01*
X0151000Y0027745D01*
X0150929Y0028131D01*
X0150866Y0028518D01*
X0150813Y0028907D01*
X0150770Y0029298D01*
X0150736Y0029689D01*
X0150712Y0030081D01*
X0150698Y0030473D01*
X0150693Y0030866D01*
X0162193Y0020366D02*
X0162193Y0017366D01*
X0163693Y0018866D02*
X0160693Y0018866D01*
X0147783Y0050201D02*
X0147783Y0053201D01*
X0149283Y0051701D02*
X0146283Y0051701D01*
X0136283Y0063701D02*
X0136288Y0064094D01*
X0136302Y0064486D01*
X0136326Y0064878D01*
X0136360Y0065269D01*
X0136403Y0065660D01*
X0136456Y0066049D01*
X0136519Y0066436D01*
X0136590Y0066822D01*
X0136672Y0067207D01*
X0136762Y0067589D01*
X0136863Y0067968D01*
X0136972Y0068346D01*
X0137091Y0068720D01*
X0137218Y0069091D01*
X0137355Y0069459D01*
X0137501Y0069824D01*
X0137656Y0070185D01*
X0137819Y0070542D01*
X0137991Y0070895D01*
X0138172Y0071243D01*
X0138362Y0071587D01*
X0138559Y0071927D01*
X0138765Y0072261D01*
X0138979Y0072590D01*
X0139202Y0072914D01*
X0139432Y0073232D01*
X0139669Y0073545D01*
X0139915Y0073851D01*
X0140168Y0074152D01*
X0140428Y0074446D01*
X0140695Y0074734D01*
X0140969Y0075015D01*
X0141250Y0075289D01*
X0141538Y0075556D01*
X0141832Y0075816D01*
X0142133Y0076069D01*
X0142439Y0076315D01*
X0142752Y0076552D01*
X0143070Y0076782D01*
X0143394Y0077005D01*
X0143723Y0077219D01*
X0144057Y0077425D01*
X0144397Y0077622D01*
X0144741Y0077812D01*
X0145089Y0077993D01*
X0145442Y0078165D01*
X0145799Y0078328D01*
X0146160Y0078483D01*
X0146525Y0078629D01*
X0146893Y0078766D01*
X0147264Y0078893D01*
X0147638Y0079012D01*
X0148016Y0079121D01*
X0148395Y0079222D01*
X0148777Y0079312D01*
X0149162Y0079394D01*
X0149548Y0079465D01*
X0149935Y0079528D01*
X0150324Y0079581D01*
X0150715Y0079624D01*
X0151106Y0079658D01*
X0151498Y0079682D01*
X0151890Y0079696D01*
X0152283Y0079701D01*
X0152676Y0079696D01*
X0153068Y0079682D01*
X0153460Y0079658D01*
X0153851Y0079624D01*
X0154242Y0079581D01*
X0154631Y0079528D01*
X0155018Y0079465D01*
X0155404Y0079394D01*
X0155789Y0079312D01*
X0156171Y0079222D01*
X0156550Y0079121D01*
X0156928Y0079012D01*
X0157302Y0078893D01*
X0157673Y0078766D01*
X0158041Y0078629D01*
X0158406Y0078483D01*
X0158767Y0078328D01*
X0159124Y0078165D01*
X0159477Y0077993D01*
X0159825Y0077812D01*
X0160169Y0077622D01*
X0160509Y0077425D01*
X0160843Y0077219D01*
X0161172Y0077005D01*
X0161496Y0076782D01*
X0161814Y0076552D01*
X0162127Y0076315D01*
X0162433Y0076069D01*
X0162734Y0075816D01*
X0163028Y0075556D01*
X0163316Y0075289D01*
X0163597Y0075015D01*
X0163871Y0074734D01*
X0164138Y0074446D01*
X0164398Y0074152D01*
X0164651Y0073851D01*
X0164897Y0073545D01*
X0165134Y0073232D01*
X0165364Y0072914D01*
X0165587Y0072590D01*
X0165801Y0072261D01*
X0166007Y0071927D01*
X0166204Y0071587D01*
X0166394Y0071243D01*
X0166575Y0070895D01*
X0166747Y0070542D01*
X0166910Y0070185D01*
X0167065Y0069824D01*
X0167211Y0069459D01*
X0167348Y0069091D01*
X0167475Y0068720D01*
X0167594Y0068346D01*
X0167703Y0067968D01*
X0167804Y0067589D01*
X0167894Y0067207D01*
X0167976Y0066822D01*
X0168047Y0066436D01*
X0168110Y0066049D01*
X0168163Y0065660D01*
X0168206Y0065269D01*
X0168240Y0064878D01*
X0168264Y0064486D01*
X0168278Y0064094D01*
X0168283Y0063701D01*
X0168278Y0063308D01*
X0168264Y0062916D01*
X0168240Y0062524D01*
X0168206Y0062133D01*
X0168163Y0061742D01*
X0168110Y0061353D01*
X0168047Y0060966D01*
X0167976Y0060580D01*
X0167894Y0060195D01*
X0167804Y0059813D01*
X0167703Y0059434D01*
X0167594Y0059056D01*
X0167475Y0058682D01*
X0167348Y0058311D01*
X0167211Y0057943D01*
X0167065Y0057578D01*
X0166910Y0057217D01*
X0166747Y0056860D01*
X0166575Y0056507D01*
X0166394Y0056159D01*
X0166204Y0055815D01*
X0166007Y0055475D01*
X0165801Y0055141D01*
X0165587Y0054812D01*
X0165364Y0054488D01*
X0165134Y0054170D01*
X0164897Y0053857D01*
X0164651Y0053551D01*
X0164398Y0053250D01*
X0164138Y0052956D01*
X0163871Y0052668D01*
X0163597Y0052387D01*
X0163316Y0052113D01*
X0163028Y0051846D01*
X0162734Y0051586D01*
X0162433Y0051333D01*
X0162127Y0051087D01*
X0161814Y0050850D01*
X0161496Y0050620D01*
X0161172Y0050397D01*
X0160843Y0050183D01*
X0160509Y0049977D01*
X0160169Y0049780D01*
X0159825Y0049590D01*
X0159477Y0049409D01*
X0159124Y0049237D01*
X0158767Y0049074D01*
X0158406Y0048919D01*
X0158041Y0048773D01*
X0157673Y0048636D01*
X0157302Y0048509D01*
X0156928Y0048390D01*
X0156550Y0048281D01*
X0156171Y0048180D01*
X0155789Y0048090D01*
X0155404Y0048008D01*
X0155018Y0047937D01*
X0154631Y0047874D01*
X0154242Y0047821D01*
X0153851Y0047778D01*
X0153460Y0047744D01*
X0153068Y0047720D01*
X0152676Y0047706D01*
X0152283Y0047701D01*
X0151890Y0047706D01*
X0151498Y0047720D01*
X0151106Y0047744D01*
X0150715Y0047778D01*
X0150324Y0047821D01*
X0149935Y0047874D01*
X0149548Y0047937D01*
X0149162Y0048008D01*
X0148777Y0048090D01*
X0148395Y0048180D01*
X0148016Y0048281D01*
X0147638Y0048390D01*
X0147264Y0048509D01*
X0146893Y0048636D01*
X0146525Y0048773D01*
X0146160Y0048919D01*
X0145799Y0049074D01*
X0145442Y0049237D01*
X0145089Y0049409D01*
X0144741Y0049590D01*
X0144397Y0049780D01*
X0144057Y0049977D01*
X0143723Y0050183D01*
X0143394Y0050397D01*
X0143070Y0050620D01*
X0142752Y0050850D01*
X0142439Y0051087D01*
X0142133Y0051333D01*
X0141832Y0051586D01*
X0141538Y0051846D01*
X0141250Y0052113D01*
X0140969Y0052387D01*
X0140695Y0052668D01*
X0140428Y0052956D01*
X0140168Y0053250D01*
X0139915Y0053551D01*
X0139669Y0053857D01*
X0139432Y0054170D01*
X0139202Y0054488D01*
X0138979Y0054812D01*
X0138765Y0055141D01*
X0138559Y0055475D01*
X0138362Y0055815D01*
X0138172Y0056159D01*
X0137991Y0056507D01*
X0137819Y0056860D01*
X0137656Y0057217D01*
X0137501Y0057578D01*
X0137355Y0057943D01*
X0137218Y0058311D01*
X0137091Y0058682D01*
X0136972Y0059056D01*
X0136863Y0059434D01*
X0136762Y0059813D01*
X0136672Y0060195D01*
X0136590Y0060580D01*
X0136519Y0060966D01*
X0136456Y0061353D01*
X0136403Y0061742D01*
X0136360Y0062133D01*
X0136326Y0062524D01*
X0136302Y0062916D01*
X0136288Y0063308D01*
X0136283Y0063701D01*
X0148413Y0084846D02*
X0148413Y0087846D01*
X0149913Y0086346D02*
X0146913Y0086346D01*
X0136913Y0098346D02*
X0136918Y0098739D01*
X0136932Y0099131D01*
X0136956Y0099523D01*
X0136990Y0099914D01*
X0137033Y0100305D01*
X0137086Y0100694D01*
X0137149Y0101081D01*
X0137220Y0101467D01*
X0137302Y0101852D01*
X0137392Y0102234D01*
X0137493Y0102613D01*
X0137602Y0102991D01*
X0137721Y0103365D01*
X0137848Y0103736D01*
X0137985Y0104104D01*
X0138131Y0104469D01*
X0138286Y0104830D01*
X0138449Y0105187D01*
X0138621Y0105540D01*
X0138802Y0105888D01*
X0138992Y0106232D01*
X0139189Y0106572D01*
X0139395Y0106906D01*
X0139609Y0107235D01*
X0139832Y0107559D01*
X0140062Y0107877D01*
X0140299Y0108190D01*
X0140545Y0108496D01*
X0140798Y0108797D01*
X0141058Y0109091D01*
X0141325Y0109379D01*
X0141599Y0109660D01*
X0141880Y0109934D01*
X0142168Y0110201D01*
X0142462Y0110461D01*
X0142763Y0110714D01*
X0143069Y0110960D01*
X0143382Y0111197D01*
X0143700Y0111427D01*
X0144024Y0111650D01*
X0144353Y0111864D01*
X0144687Y0112070D01*
X0145027Y0112267D01*
X0145371Y0112457D01*
X0145719Y0112638D01*
X0146072Y0112810D01*
X0146429Y0112973D01*
X0146790Y0113128D01*
X0147155Y0113274D01*
X0147523Y0113411D01*
X0147894Y0113538D01*
X0148268Y0113657D01*
X0148646Y0113766D01*
X0149025Y0113867D01*
X0149407Y0113957D01*
X0149792Y0114039D01*
X0150178Y0114110D01*
X0150565Y0114173D01*
X0150954Y0114226D01*
X0151345Y0114269D01*
X0151736Y0114303D01*
X0152128Y0114327D01*
X0152520Y0114341D01*
X0152913Y0114346D01*
X0153306Y0114341D01*
X0153698Y0114327D01*
X0154090Y0114303D01*
X0154481Y0114269D01*
X0154872Y0114226D01*
X0155261Y0114173D01*
X0155648Y0114110D01*
X0156034Y0114039D01*
X0156419Y0113957D01*
X0156801Y0113867D01*
X0157180Y0113766D01*
X0157558Y0113657D01*
X0157932Y0113538D01*
X0158303Y0113411D01*
X0158671Y0113274D01*
X0159036Y0113128D01*
X0159397Y0112973D01*
X0159754Y0112810D01*
X0160107Y0112638D01*
X0160455Y0112457D01*
X0160799Y0112267D01*
X0161139Y0112070D01*
X0161473Y0111864D01*
X0161802Y0111650D01*
X0162126Y0111427D01*
X0162444Y0111197D01*
X0162757Y0110960D01*
X0163063Y0110714D01*
X0163364Y0110461D01*
X0163658Y0110201D01*
X0163946Y0109934D01*
X0164227Y0109660D01*
X0164501Y0109379D01*
X0164768Y0109091D01*
X0165028Y0108797D01*
X0165281Y0108496D01*
X0165527Y0108190D01*
X0165764Y0107877D01*
X0165994Y0107559D01*
X0166217Y0107235D01*
X0166431Y0106906D01*
X0166637Y0106572D01*
X0166834Y0106232D01*
X0167024Y0105888D01*
X0167205Y0105540D01*
X0167377Y0105187D01*
X0167540Y0104830D01*
X0167695Y0104469D01*
X0167841Y0104104D01*
X0167978Y0103736D01*
X0168105Y0103365D01*
X0168224Y0102991D01*
X0168333Y0102613D01*
X0168434Y0102234D01*
X0168524Y0101852D01*
X0168606Y0101467D01*
X0168677Y0101081D01*
X0168740Y0100694D01*
X0168793Y0100305D01*
X0168836Y0099914D01*
X0168870Y0099523D01*
X0168894Y0099131D01*
X0168908Y0098739D01*
X0168913Y0098346D01*
X0168908Y0097953D01*
X0168894Y0097561D01*
X0168870Y0097169D01*
X0168836Y0096778D01*
X0168793Y0096387D01*
X0168740Y0095998D01*
X0168677Y0095611D01*
X0168606Y0095225D01*
X0168524Y0094840D01*
X0168434Y0094458D01*
X0168333Y0094079D01*
X0168224Y0093701D01*
X0168105Y0093327D01*
X0167978Y0092956D01*
X0167841Y0092588D01*
X0167695Y0092223D01*
X0167540Y0091862D01*
X0167377Y0091505D01*
X0167205Y0091152D01*
X0167024Y0090804D01*
X0166834Y0090460D01*
X0166637Y0090120D01*
X0166431Y0089786D01*
X0166217Y0089457D01*
X0165994Y0089133D01*
X0165764Y0088815D01*
X0165527Y0088502D01*
X0165281Y0088196D01*
X0165028Y0087895D01*
X0164768Y0087601D01*
X0164501Y0087313D01*
X0164227Y0087032D01*
X0163946Y0086758D01*
X0163658Y0086491D01*
X0163364Y0086231D01*
X0163063Y0085978D01*
X0162757Y0085732D01*
X0162444Y0085495D01*
X0162126Y0085265D01*
X0161802Y0085042D01*
X0161473Y0084828D01*
X0161139Y0084622D01*
X0160799Y0084425D01*
X0160455Y0084235D01*
X0160107Y0084054D01*
X0159754Y0083882D01*
X0159397Y0083719D01*
X0159036Y0083564D01*
X0158671Y0083418D01*
X0158303Y0083281D01*
X0157932Y0083154D01*
X0157558Y0083035D01*
X0157180Y0082926D01*
X0156801Y0082825D01*
X0156419Y0082735D01*
X0156034Y0082653D01*
X0155648Y0082582D01*
X0155261Y0082519D01*
X0154872Y0082466D01*
X0154481Y0082423D01*
X0154090Y0082389D01*
X0153698Y0082365D01*
X0153306Y0082351D01*
X0152913Y0082346D01*
X0152520Y0082351D01*
X0152128Y0082365D01*
X0151736Y0082389D01*
X0151345Y0082423D01*
X0150954Y0082466D01*
X0150565Y0082519D01*
X0150178Y0082582D01*
X0149792Y0082653D01*
X0149407Y0082735D01*
X0149025Y0082825D01*
X0148646Y0082926D01*
X0148268Y0083035D01*
X0147894Y0083154D01*
X0147523Y0083281D01*
X0147155Y0083418D01*
X0146790Y0083564D01*
X0146429Y0083719D01*
X0146072Y0083882D01*
X0145719Y0084054D01*
X0145371Y0084235D01*
X0145027Y0084425D01*
X0144687Y0084622D01*
X0144353Y0084828D01*
X0144024Y0085042D01*
X0143700Y0085265D01*
X0143382Y0085495D01*
X0143069Y0085732D01*
X0142763Y0085978D01*
X0142462Y0086231D01*
X0142168Y0086491D01*
X0141880Y0086758D01*
X0141599Y0087032D01*
X0141325Y0087313D01*
X0141058Y0087601D01*
X0140798Y0087895D01*
X0140545Y0088196D01*
X0140299Y0088502D01*
X0140062Y0088815D01*
X0139832Y0089133D01*
X0139609Y0089457D01*
X0139395Y0089786D01*
X0139189Y0090120D01*
X0138992Y0090460D01*
X0138802Y0090804D01*
X0138621Y0091152D01*
X0138449Y0091505D01*
X0138286Y0091862D01*
X0138131Y0092223D01*
X0137985Y0092588D01*
X0137848Y0092956D01*
X0137721Y0093327D01*
X0137602Y0093701D01*
X0137493Y0094079D01*
X0137392Y0094458D01*
X0137302Y0094840D01*
X0137220Y0095225D01*
X0137149Y0095611D01*
X0137086Y0095998D01*
X0137033Y0096387D01*
X0136990Y0096778D01*
X0136956Y0097169D01*
X0136932Y0097561D01*
X0136918Y0097953D01*
X0136913Y0098346D01*
X0014902Y0219055D02*
X0009902Y0219055D01*
X0007402Y0221555D01*
X0007402Y0226555D01*
X0009902Y0229055D01*
X0007402Y0231555D01*
X0007402Y0236555D01*
X0009902Y0239055D01*
X0014902Y0239055D01*
X0017402Y0236555D01*
X0017402Y0231555D01*
X0014902Y0229055D01*
X0017402Y0226555D01*
X0017402Y0221555D01*
X0014902Y0219055D01*
X0014902Y0229055D02*
X0009902Y0229055D01*
X0009902Y0239055D02*
X0007402Y0241555D01*
X0007402Y0246555D01*
X0009902Y0249055D01*
X0007402Y0251555D01*
X0007402Y0256555D01*
X0009902Y0259055D01*
X0014902Y0259055D01*
X0017402Y0256555D01*
X0017402Y0251555D01*
X0014902Y0249055D01*
X0017402Y0246555D01*
X0017402Y0241555D01*
X0014902Y0239055D01*
X0014902Y0249055D02*
X0009902Y0249055D01*
D12*
X0040176Y0257124D02*
X0042536Y0260664D01*
X0043801Y0259484D02*
X0044981Y0260664D01*
X0044981Y0257124D01*
X0043801Y0257124D02*
X0046161Y0257124D01*
X0042536Y0257124D02*
X0040176Y0260664D01*
X0024585Y0123098D02*
X0024585Y0122051D01*
X0024585Y0122574D02*
X0023016Y0122574D01*
X0023539Y0122051D01*
X0023539Y0121285D02*
X0023801Y0121024D01*
X0023801Y0120239D01*
X0024585Y0120239D02*
X0023016Y0120239D01*
X0023016Y0121024D01*
X0023277Y0121285D01*
X0023539Y0121285D01*
X0023801Y0121024D02*
X0024062Y0121285D01*
X0024324Y0121285D01*
X0024585Y0121024D01*
X0024585Y0120239D01*
X0023801Y0118949D02*
X0023801Y0118426D01*
X0024585Y0118426D02*
X0023016Y0118426D01*
X0023016Y0119473D01*
X0034135Y0112380D02*
X0034135Y0112118D01*
X0034659Y0111595D01*
X0034659Y0110810D01*
X0034659Y0111595D02*
X0035182Y0112118D01*
X0035182Y0112380D01*
X0035948Y0112118D02*
X0036210Y0112380D01*
X0036733Y0112380D01*
X0036995Y0112118D01*
X0036995Y0111857D01*
X0035948Y0110810D01*
X0036995Y0110810D01*
X0078889Y0110419D02*
X0079935Y0110419D01*
X0080701Y0110419D02*
X0081486Y0110419D01*
X0081748Y0110158D01*
X0081748Y0109896D01*
X0081486Y0109635D01*
X0080701Y0109635D01*
X0080701Y0110419D02*
X0080701Y0108850D01*
X0081486Y0108850D01*
X0081748Y0109111D01*
X0081748Y0109373D01*
X0081486Y0109635D01*
X0082514Y0109635D02*
X0083037Y0109896D01*
X0083299Y0109896D01*
X0083560Y0109635D01*
X0083560Y0109111D01*
X0083299Y0108850D01*
X0082775Y0108850D01*
X0082514Y0109111D01*
X0082514Y0109635D02*
X0082514Y0110419D01*
X0083560Y0110419D01*
X0079412Y0109635D02*
X0078889Y0109635D01*
X0078889Y0110419D02*
X0078889Y0108850D01*
X0122176Y0091201D02*
X0122176Y0089631D01*
X0122176Y0090416D02*
X0122699Y0090416D01*
X0122176Y0091201D02*
X0123223Y0091201D01*
X0123989Y0091201D02*
X0124773Y0091201D01*
X0125035Y0090939D01*
X0125035Y0090678D01*
X0124773Y0090416D01*
X0123989Y0090416D01*
X0124773Y0090416D02*
X0125035Y0090154D01*
X0125035Y0089893D01*
X0124773Y0089631D01*
X0123989Y0089631D01*
X0123989Y0091201D01*
X0125801Y0090416D02*
X0126586Y0090416D01*
X0126848Y0090154D01*
X0126848Y0089893D01*
X0126586Y0089631D01*
X0126063Y0089631D01*
X0125801Y0089893D01*
X0125801Y0090416D01*
X0126324Y0090939D01*
X0126848Y0091201D01*
X0116133Y0028278D02*
X0115348Y0027493D01*
X0116395Y0027493D01*
X0116133Y0026708D02*
X0116133Y0028278D01*
X0114582Y0028016D02*
X0114582Y0027754D01*
X0114321Y0027493D01*
X0113536Y0027493D01*
X0113536Y0028278D02*
X0114321Y0028278D01*
X0114582Y0028016D01*
X0114321Y0027493D02*
X0114582Y0027231D01*
X0114582Y0026970D01*
X0114321Y0026708D01*
X0113536Y0026708D01*
X0113536Y0028278D01*
X0112770Y0028278D02*
X0111723Y0028278D01*
X0111723Y0026708D01*
X0111723Y0027493D02*
X0112247Y0027493D01*
X0063836Y0027278D02*
X0063836Y0027016D01*
X0063574Y0026755D01*
X0063836Y0026493D01*
X0063836Y0026231D01*
X0063574Y0025970D01*
X0063051Y0025970D01*
X0062789Y0026231D01*
X0063313Y0026755D02*
X0063574Y0026755D01*
X0063836Y0027278D02*
X0063574Y0027540D01*
X0063051Y0027540D01*
X0062789Y0027278D01*
X0062023Y0027278D02*
X0062023Y0027016D01*
X0061762Y0026755D01*
X0060977Y0026755D01*
X0060977Y0027540D02*
X0061762Y0027540D01*
X0062023Y0027278D01*
X0061762Y0026755D02*
X0062023Y0026493D01*
X0062023Y0026231D01*
X0061762Y0025970D01*
X0060977Y0025970D01*
X0060977Y0027540D01*
X0060211Y0027540D02*
X0059164Y0027540D01*
X0059164Y0025970D01*
X0059164Y0026755D02*
X0059687Y0026755D01*
X0032213Y0045690D02*
X0030644Y0045690D01*
X0030644Y0046736D01*
X0030644Y0047502D02*
X0030644Y0048287D01*
X0030905Y0048549D01*
X0031167Y0048549D01*
X0031428Y0048287D01*
X0031428Y0047502D01*
X0030644Y0047502D02*
X0032213Y0047502D01*
X0032213Y0048287D01*
X0031952Y0048549D01*
X0031690Y0048549D01*
X0031428Y0048287D01*
X0030905Y0049315D02*
X0030644Y0049577D01*
X0030644Y0050100D01*
X0030905Y0050361D01*
X0031167Y0050361D01*
X0032213Y0049315D01*
X0032213Y0050361D01*
X0031428Y0046213D02*
X0031428Y0045690D01*
X0215957Y0011304D02*
X0217526Y0011304D01*
X0217526Y0010781D02*
X0217526Y0011827D01*
X0216480Y0010781D02*
X0215957Y0011304D01*
X0216218Y0010015D02*
X0215957Y0009753D01*
X0215957Y0008968D01*
X0217526Y0008968D01*
X0217526Y0009753D01*
X0217265Y0010015D01*
X0216218Y0010015D01*
X0263683Y0016800D02*
X0263944Y0016539D01*
X0264468Y0016539D01*
X0264729Y0016800D01*
X0264729Y0018108D01*
X0265495Y0017585D02*
X0266019Y0018108D01*
X0266019Y0016539D01*
X0266542Y0016539D02*
X0265495Y0016539D01*
X0263683Y0016800D02*
X0263683Y0018108D01*
X0316596Y0064184D02*
X0316858Y0063922D01*
X0317381Y0063922D01*
X0317643Y0064184D01*
X0317643Y0064446D01*
X0317381Y0064707D01*
X0316858Y0064707D01*
X0316596Y0064969D01*
X0316596Y0065231D01*
X0316858Y0065492D01*
X0317381Y0065492D01*
X0317643Y0065231D01*
X0318409Y0064969D02*
X0318932Y0065492D01*
X0318932Y0063922D01*
X0318409Y0063922D02*
X0319455Y0063922D01*
X0242424Y0144850D02*
X0240064Y0144850D01*
X0242424Y0147210D01*
X0242424Y0147800D01*
X0241834Y0148390D01*
X0240654Y0148390D01*
X0240064Y0147800D01*
X0238799Y0148390D02*
X0236439Y0144850D01*
X0238799Y0144850D02*
X0236439Y0148390D01*
D13*
X0236752Y0143228D02*
X0231752Y0143228D01*
X0229252Y0140728D01*
X0229252Y0125728D01*
X0226752Y0123228D01*
X0221752Y0123228D01*
X0219252Y0125728D01*
X0219252Y0140728D01*
X0221752Y0143228D01*
X0226752Y0143228D01*
X0229252Y0140728D01*
X0236752Y0143228D02*
X0239252Y0140728D01*
X0239252Y0135728D01*
X0236752Y0133228D01*
X0239252Y0130728D01*
X0239252Y0125728D01*
X0236752Y0123228D01*
X0231752Y0123228D01*
X0229252Y0125728D01*
X0219252Y0125728D02*
X0216752Y0123228D01*
X0211752Y0123228D01*
X0209252Y0125728D01*
X0209252Y0140728D01*
X0206752Y0143228D01*
X0201752Y0143228D01*
X0199252Y0140728D01*
X0199252Y0125728D01*
X0196752Y0123228D01*
X0191752Y0123228D01*
X0189252Y0125728D01*
X0189252Y0140728D01*
X0191752Y0143228D01*
X0196752Y0143228D01*
X0199252Y0140728D01*
X0209252Y0140728D02*
X0211752Y0143228D01*
X0216752Y0143228D01*
X0219252Y0140728D01*
X0209252Y0125728D02*
X0206752Y0123228D01*
X0201752Y0123228D01*
X0199252Y0125728D01*
X0189252Y0125728D02*
X0186752Y0123228D01*
X0181752Y0123228D01*
X0179252Y0125728D01*
X0179252Y0140728D01*
X0176752Y0143228D01*
X0171752Y0143228D01*
X0169252Y0140728D01*
X0169252Y0125728D01*
X0166752Y0123228D01*
X0161752Y0123228D01*
X0159252Y0125728D01*
X0159252Y0140728D01*
X0156752Y0143228D01*
X0151752Y0143228D01*
X0149252Y0140728D01*
X0149252Y0125728D01*
X0151752Y0123228D01*
X0156752Y0123228D01*
X0159252Y0125728D01*
X0149252Y0125728D02*
X0146752Y0123228D01*
X0141752Y0123228D01*
X0139252Y0125728D01*
X0139252Y0140728D01*
X0136752Y0143228D01*
X0131752Y0143228D01*
X0129252Y0140728D01*
X0129252Y0125728D01*
X0126752Y0123228D01*
X0121752Y0123228D01*
X0119252Y0125728D01*
X0119252Y0140728D01*
X0121752Y0143228D01*
X0126752Y0143228D01*
X0129252Y0140728D01*
X0119252Y0140728D02*
X0116752Y0143228D01*
X0111752Y0143228D01*
X0109252Y0140728D01*
X0106752Y0143228D01*
X0101752Y0143228D01*
X0099252Y0140728D01*
X0096752Y0143228D01*
X0091752Y0143228D01*
X0089252Y0140728D01*
X0086752Y0143228D01*
X0081752Y0143228D01*
X0079252Y0140728D01*
X0076752Y0143228D01*
X0071752Y0143228D01*
X0069252Y0140728D01*
X0066752Y0143228D01*
X0061752Y0143228D01*
X0059252Y0140728D01*
X0056752Y0143228D01*
X0051752Y0143228D01*
X0049252Y0140728D01*
X0046752Y0143228D01*
X0041752Y0143228D01*
X0039252Y0140728D01*
X0039252Y0135728D01*
X0041752Y0133228D01*
X0039252Y0130728D01*
X0039252Y0125728D01*
X0041752Y0123228D01*
X0046752Y0123228D01*
X0049252Y0125728D01*
X0049252Y0140728D01*
X0059252Y0140728D02*
X0059252Y0125728D01*
X0056752Y0123228D01*
X0051752Y0123228D01*
X0049252Y0125728D01*
X0059252Y0125728D02*
X0061752Y0123228D01*
X0066752Y0123228D01*
X0069252Y0125728D01*
X0069252Y0140728D01*
X0079252Y0140728D02*
X0079252Y0125728D01*
X0081752Y0123228D01*
X0086752Y0123228D01*
X0089252Y0125728D01*
X0089252Y0140728D01*
X0099252Y0140728D02*
X0099252Y0125728D01*
X0096752Y0123228D01*
X0091752Y0123228D01*
X0089252Y0125728D01*
X0099252Y0125728D02*
X0101752Y0123228D01*
X0106752Y0123228D01*
X0109252Y0125728D01*
X0109252Y0140728D01*
X0109252Y0125728D02*
X0111752Y0123228D01*
X0116752Y0123228D01*
X0119252Y0125728D01*
X0129252Y0125728D02*
X0131752Y0123228D01*
X0136752Y0123228D01*
X0139252Y0125728D01*
X0139252Y0140728D02*
X0141752Y0143228D01*
X0146752Y0143228D01*
X0149252Y0140728D01*
X0159252Y0140728D02*
X0161752Y0143228D01*
X0166752Y0143228D01*
X0169252Y0140728D01*
X0179252Y0140728D02*
X0181752Y0143228D01*
X0186752Y0143228D01*
X0189252Y0140728D01*
X0179252Y0125728D02*
X0176752Y0123228D01*
X0171752Y0123228D01*
X0169252Y0125728D01*
X0181496Y0113780D02*
X0194488Y0113780D01*
X0194488Y0094882D01*
X0181496Y0094882D01*
X0194488Y0094882D02*
X0196457Y0094882D01*
X0196457Y0113780D02*
X0194488Y0113780D01*
X0257205Y0115591D02*
X0320197Y0115591D01*
X0320197Y0178583D01*
X0257205Y0178583D01*
X0257205Y0115591D01*
X0269193Y0097283D02*
X0303091Y0097283D01*
X0303091Y0084291D01*
X0269193Y0084291D01*
X0269193Y0097283D01*
X0269193Y0084291D02*
X0269193Y0082323D01*
X0303091Y0082323D01*
X0303091Y0084291D01*
X0308071Y0083031D02*
X0308071Y0070906D01*
X0313071Y0066969D02*
X0322953Y0066969D01*
X0328071Y0070906D02*
X0328071Y0083031D01*
X0322953Y0086969D02*
X0313189Y0086969D01*
X0313071Y0076969D02*
X0313073Y0077110D01*
X0313079Y0077251D01*
X0313089Y0077391D01*
X0313103Y0077531D01*
X0313121Y0077671D01*
X0313142Y0077810D01*
X0313168Y0077949D01*
X0313197Y0078087D01*
X0313231Y0078223D01*
X0313268Y0078359D01*
X0313309Y0078494D01*
X0313354Y0078628D01*
X0313403Y0078760D01*
X0313455Y0078891D01*
X0313511Y0079020D01*
X0313571Y0079147D01*
X0313634Y0079273D01*
X0313700Y0079397D01*
X0313771Y0079520D01*
X0313844Y0079640D01*
X0313921Y0079758D01*
X0314001Y0079874D01*
X0314085Y0079987D01*
X0314171Y0080098D01*
X0314261Y0080207D01*
X0314354Y0080313D01*
X0314449Y0080416D01*
X0314548Y0080517D01*
X0314649Y0080615D01*
X0314753Y0080710D01*
X0314860Y0080802D01*
X0314969Y0080891D01*
X0315081Y0080976D01*
X0315195Y0081059D01*
X0315311Y0081139D01*
X0315430Y0081215D01*
X0315551Y0081287D01*
X0315673Y0081357D01*
X0315798Y0081422D01*
X0315924Y0081485D01*
X0316052Y0081543D01*
X0316182Y0081598D01*
X0316313Y0081650D01*
X0316446Y0081697D01*
X0316580Y0081741D01*
X0316715Y0081782D01*
X0316851Y0081818D01*
X0316988Y0081850D01*
X0317126Y0081879D01*
X0317264Y0081904D01*
X0317404Y0081924D01*
X0317544Y0081941D01*
X0317684Y0081954D01*
X0317825Y0081963D01*
X0317965Y0081968D01*
X0318106Y0081969D01*
X0318247Y0081966D01*
X0318388Y0081959D01*
X0318528Y0081948D01*
X0318668Y0081933D01*
X0318808Y0081914D01*
X0318947Y0081892D01*
X0319085Y0081865D01*
X0319223Y0081835D01*
X0319359Y0081800D01*
X0319495Y0081762D01*
X0319629Y0081720D01*
X0319763Y0081674D01*
X0319895Y0081625D01*
X0320025Y0081571D01*
X0320154Y0081514D01*
X0320281Y0081454D01*
X0320407Y0081390D01*
X0320530Y0081322D01*
X0320652Y0081251D01*
X0320772Y0081177D01*
X0320889Y0081099D01*
X0321004Y0081018D01*
X0321117Y0080934D01*
X0321228Y0080847D01*
X0321336Y0080756D01*
X0321441Y0080663D01*
X0321544Y0080566D01*
X0321644Y0080467D01*
X0321741Y0080365D01*
X0321835Y0080260D01*
X0321926Y0080153D01*
X0322014Y0080043D01*
X0322099Y0079931D01*
X0322181Y0079816D01*
X0322260Y0079699D01*
X0322335Y0079580D01*
X0322407Y0079459D01*
X0322475Y0079336D01*
X0322540Y0079211D01*
X0322602Y0079084D01*
X0322659Y0078955D01*
X0322714Y0078825D01*
X0322764Y0078694D01*
X0322811Y0078561D01*
X0322854Y0078427D01*
X0322893Y0078291D01*
X0322928Y0078155D01*
X0322960Y0078018D01*
X0322987Y0077880D01*
X0323011Y0077741D01*
X0323031Y0077601D01*
X0323047Y0077461D01*
X0323059Y0077321D01*
X0323067Y0077180D01*
X0323071Y0077039D01*
X0323071Y0076899D01*
X0323067Y0076758D01*
X0323059Y0076617D01*
X0323047Y0076477D01*
X0323031Y0076337D01*
X0323011Y0076197D01*
X0322987Y0076058D01*
X0322960Y0075920D01*
X0322928Y0075783D01*
X0322893Y0075647D01*
X0322854Y0075511D01*
X0322811Y0075377D01*
X0322764Y0075244D01*
X0322714Y0075113D01*
X0322659Y0074983D01*
X0322602Y0074854D01*
X0322540Y0074727D01*
X0322475Y0074602D01*
X0322407Y0074479D01*
X0322335Y0074358D01*
X0322260Y0074239D01*
X0322181Y0074122D01*
X0322099Y0074007D01*
X0322014Y0073895D01*
X0321926Y0073785D01*
X0321835Y0073678D01*
X0321741Y0073573D01*
X0321644Y0073471D01*
X0321544Y0073372D01*
X0321441Y0073275D01*
X0321336Y0073182D01*
X0321228Y0073091D01*
X0321117Y0073004D01*
X0321004Y0072920D01*
X0320889Y0072839D01*
X0320772Y0072761D01*
X0320652Y0072687D01*
X0320530Y0072616D01*
X0320407Y0072548D01*
X0320281Y0072484D01*
X0320154Y0072424D01*
X0320025Y0072367D01*
X0319895Y0072313D01*
X0319763Y0072264D01*
X0319629Y0072218D01*
X0319495Y0072176D01*
X0319359Y0072138D01*
X0319223Y0072103D01*
X0319085Y0072073D01*
X0318947Y0072046D01*
X0318808Y0072024D01*
X0318668Y0072005D01*
X0318528Y0071990D01*
X0318388Y0071979D01*
X0318247Y0071972D01*
X0318106Y0071969D01*
X0317965Y0071970D01*
X0317825Y0071975D01*
X0317684Y0071984D01*
X0317544Y0071997D01*
X0317404Y0072014D01*
X0317264Y0072034D01*
X0317126Y0072059D01*
X0316988Y0072088D01*
X0316851Y0072120D01*
X0316715Y0072156D01*
X0316580Y0072197D01*
X0316446Y0072241D01*
X0316313Y0072288D01*
X0316182Y0072340D01*
X0316052Y0072395D01*
X0315924Y0072453D01*
X0315798Y0072516D01*
X0315673Y0072581D01*
X0315551Y0072651D01*
X0315430Y0072723D01*
X0315311Y0072799D01*
X0315195Y0072879D01*
X0315081Y0072962D01*
X0314969Y0073047D01*
X0314860Y0073136D01*
X0314753Y0073228D01*
X0314649Y0073323D01*
X0314548Y0073421D01*
X0314449Y0073522D01*
X0314354Y0073625D01*
X0314261Y0073731D01*
X0314171Y0073840D01*
X0314085Y0073951D01*
X0314001Y0074064D01*
X0313921Y0074180D01*
X0313844Y0074298D01*
X0313771Y0074418D01*
X0313700Y0074541D01*
X0313634Y0074665D01*
X0313571Y0074791D01*
X0313511Y0074918D01*
X0313455Y0075047D01*
X0313403Y0075178D01*
X0313354Y0075310D01*
X0313309Y0075444D01*
X0313268Y0075579D01*
X0313231Y0075715D01*
X0313197Y0075851D01*
X0313168Y0075989D01*
X0313142Y0076128D01*
X0313121Y0076267D01*
X0313103Y0076407D01*
X0313089Y0076547D01*
X0313079Y0076687D01*
X0313073Y0076828D01*
X0313071Y0076969D01*
X0260886Y0045256D02*
X0260886Y0019055D01*
X0259488Y0017657D01*
X0233287Y0017657D01*
X0233287Y0045256D01*
X0260886Y0045256D01*
X0260887Y0016957D02*
X0260889Y0017006D01*
X0260895Y0017054D01*
X0260905Y0017102D01*
X0260919Y0017149D01*
X0260936Y0017195D01*
X0260957Y0017239D01*
X0260982Y0017281D01*
X0261010Y0017321D01*
X0261042Y0017359D01*
X0261076Y0017394D01*
X0261113Y0017426D01*
X0261152Y0017455D01*
X0261194Y0017481D01*
X0261238Y0017503D01*
X0261283Y0017521D01*
X0261330Y0017536D01*
X0261377Y0017547D01*
X0261426Y0017554D01*
X0261475Y0017557D01*
X0261524Y0017556D01*
X0261572Y0017551D01*
X0261621Y0017542D01*
X0261668Y0017529D01*
X0261714Y0017512D01*
X0261758Y0017492D01*
X0261801Y0017468D01*
X0261842Y0017441D01*
X0261880Y0017410D01*
X0261916Y0017377D01*
X0261948Y0017341D01*
X0261978Y0017302D01*
X0262005Y0017261D01*
X0262028Y0017217D01*
X0262047Y0017172D01*
X0262063Y0017126D01*
X0262075Y0017079D01*
X0262083Y0017030D01*
X0262087Y0016981D01*
X0262087Y0016933D01*
X0262083Y0016884D01*
X0262075Y0016835D01*
X0262063Y0016788D01*
X0262047Y0016742D01*
X0262028Y0016697D01*
X0262005Y0016653D01*
X0261978Y0016612D01*
X0261948Y0016573D01*
X0261916Y0016537D01*
X0261880Y0016504D01*
X0261842Y0016473D01*
X0261801Y0016446D01*
X0261758Y0016422D01*
X0261714Y0016402D01*
X0261668Y0016385D01*
X0261621Y0016372D01*
X0261572Y0016363D01*
X0261524Y0016358D01*
X0261475Y0016357D01*
X0261426Y0016360D01*
X0261377Y0016367D01*
X0261330Y0016378D01*
X0261283Y0016393D01*
X0261238Y0016411D01*
X0261194Y0016433D01*
X0261152Y0016459D01*
X0261113Y0016488D01*
X0261076Y0016520D01*
X0261042Y0016555D01*
X0261010Y0016593D01*
X0260982Y0016633D01*
X0260957Y0016675D01*
X0260936Y0016719D01*
X0260919Y0016765D01*
X0260905Y0016812D01*
X0260895Y0016860D01*
X0260889Y0016908D01*
X0260887Y0016957D01*
X0280827Y0131339D02*
X0280827Y0147087D01*
X0296575Y0147087D01*
X0296575Y0131339D01*
X0280827Y0131339D01*
X0282795Y0154961D02*
X0282795Y0162835D01*
X0290669Y0162835D01*
X0290669Y0154961D01*
X0282795Y0154961D01*
X0296654Y0186402D02*
X0296654Y0226512D01*
X0325344Y0273130D02*
X0329675Y0273130D01*
X0329675Y0281004D02*
X0325344Y0281004D01*
X0239252Y0280492D02*
X0239252Y0275492D01*
X0236752Y0272992D01*
X0239252Y0270492D01*
X0239252Y0265492D01*
X0236752Y0262992D01*
X0231752Y0262992D01*
X0229252Y0265492D01*
X0229252Y0280492D01*
X0226752Y0282992D01*
X0221752Y0282992D01*
X0219252Y0280492D01*
X0219252Y0265492D01*
X0221752Y0262992D01*
X0226752Y0262992D01*
X0229252Y0265492D01*
X0219252Y0265492D02*
X0216752Y0262992D01*
X0211752Y0262992D01*
X0209252Y0265492D01*
X0209252Y0280492D01*
X0206752Y0282992D01*
X0201752Y0282992D01*
X0199252Y0280492D01*
X0199252Y0265492D01*
X0196752Y0262992D01*
X0191752Y0262992D01*
X0189252Y0265492D01*
X0189252Y0280492D01*
X0191752Y0282992D01*
X0196752Y0282992D01*
X0199252Y0280492D01*
X0209252Y0280492D02*
X0211752Y0282992D01*
X0216752Y0282992D01*
X0219252Y0280492D01*
X0229252Y0280492D02*
X0231752Y0282992D01*
X0236752Y0282992D01*
X0239252Y0280492D01*
X0209252Y0265492D02*
X0206752Y0262992D01*
X0201752Y0262992D01*
X0199252Y0265492D01*
X0189252Y0265492D02*
X0186752Y0262992D01*
X0181752Y0262992D01*
X0179252Y0265492D01*
X0179252Y0280492D01*
X0176752Y0282992D01*
X0171752Y0282992D01*
X0169252Y0280492D01*
X0169252Y0265492D01*
X0166752Y0262992D01*
X0161752Y0262992D01*
X0159252Y0265492D01*
X0159252Y0280492D01*
X0156752Y0282992D01*
X0151752Y0282992D01*
X0149252Y0280492D01*
X0149252Y0265492D01*
X0151752Y0262992D01*
X0156752Y0262992D01*
X0159252Y0265492D01*
X0149252Y0265492D02*
X0146752Y0262992D01*
X0141752Y0262992D01*
X0139252Y0265492D01*
X0139252Y0280492D01*
X0136752Y0282992D01*
X0131752Y0282992D01*
X0129252Y0280492D01*
X0129252Y0265492D01*
X0126752Y0262992D01*
X0121752Y0262992D01*
X0119252Y0265492D01*
X0119252Y0280492D01*
X0121752Y0282992D01*
X0126752Y0282992D01*
X0129252Y0280492D01*
X0119252Y0280492D02*
X0116752Y0282992D01*
X0111752Y0282992D01*
X0109252Y0280492D01*
X0106752Y0282992D01*
X0101752Y0282992D01*
X0099252Y0280492D01*
X0096752Y0282992D01*
X0091752Y0282992D01*
X0089252Y0280492D01*
X0086752Y0282992D01*
X0081752Y0282992D01*
X0079252Y0280492D01*
X0076752Y0282992D01*
X0071752Y0282992D01*
X0069252Y0280492D01*
X0066752Y0282992D01*
X0061752Y0282992D01*
X0059252Y0280492D01*
X0056752Y0282992D01*
X0051752Y0282992D01*
X0049252Y0280492D01*
X0046752Y0282992D01*
X0041752Y0282992D01*
X0039252Y0280492D01*
X0039252Y0275492D01*
X0041752Y0272992D01*
X0039252Y0270492D01*
X0039252Y0265492D01*
X0041752Y0262992D01*
X0046752Y0262992D01*
X0049252Y0265492D01*
X0049252Y0280492D01*
X0059252Y0280492D02*
X0059252Y0265492D01*
X0056752Y0262992D01*
X0051752Y0262992D01*
X0049252Y0265492D01*
X0059252Y0265492D02*
X0061752Y0262992D01*
X0066752Y0262992D01*
X0069252Y0265492D01*
X0069252Y0280492D01*
X0079252Y0280492D02*
X0079252Y0265492D01*
X0081752Y0262992D01*
X0086752Y0262992D01*
X0089252Y0265492D01*
X0089252Y0280492D01*
X0099252Y0280492D02*
X0099252Y0265492D01*
X0096752Y0262992D01*
X0091752Y0262992D01*
X0089252Y0265492D01*
X0099252Y0265492D02*
X0101752Y0262992D01*
X0106752Y0262992D01*
X0109252Y0265492D01*
X0109252Y0280492D01*
X0109252Y0265492D02*
X0111752Y0262992D01*
X0116752Y0262992D01*
X0119252Y0265492D01*
X0129252Y0265492D02*
X0131752Y0262992D01*
X0136752Y0262992D01*
X0139252Y0265492D01*
X0139252Y0280492D02*
X0141752Y0282992D01*
X0146752Y0282992D01*
X0149252Y0280492D01*
X0159252Y0280492D02*
X0161752Y0282992D01*
X0166752Y0282992D01*
X0169252Y0280492D01*
X0179252Y0280492D02*
X0181752Y0282992D01*
X0186752Y0282992D01*
X0189252Y0280492D01*
X0179252Y0265492D02*
X0176752Y0262992D01*
X0171752Y0262992D01*
X0169252Y0265492D01*
X0079252Y0265492D02*
X0076752Y0262992D01*
X0071752Y0262992D01*
X0069252Y0265492D01*
X0069252Y0125728D02*
X0071752Y0123228D01*
X0076752Y0123228D01*
X0079252Y0125728D01*
X0053858Y0104291D02*
X0053858Y0101929D01*
X0045984Y0096417D02*
X0041260Y0096417D01*
X0033386Y0101929D02*
X0033386Y0104291D01*
X0041260Y0109803D02*
X0045984Y0109803D01*
X0052677Y0088898D02*
X0087323Y0088898D01*
X0088898Y0087323D01*
X0088898Y0052677D01*
X0087323Y0051102D01*
X0052677Y0051102D01*
X0051102Y0052677D01*
X0051102Y0087323D01*
X0052677Y0088898D01*
D14*
X0299615Y0196457D03*
X0299615Y0206457D03*
X0299615Y0216457D03*
D15*
X-0019311Y0070000D02*
X-0019311Y0018268D01*
X0021161Y0018268D01*
X0021161Y0070000D01*
X-0019311Y0070000D01*
X-0019803Y0085768D02*
X-0019803Y0137500D01*
X0020669Y0137500D01*
X0020669Y0085768D01*
X-0019803Y0085768D01*
X0027500Y0023169D02*
X0027500Y-0017303D01*
X0079232Y-0017303D01*
X0079232Y0023169D01*
X0027500Y0023169D01*
X0095000Y0023169D02*
X0095000Y-0017303D01*
X0146732Y-0017303D01*
X0146732Y0023169D01*
X0095000Y0023169D01*
X0191640Y0096850D02*
X0191642Y0096909D01*
X0191648Y0096967D01*
X0191658Y0097025D01*
X0191671Y0097082D01*
X0191689Y0097139D01*
X0191710Y0097194D01*
X0191735Y0097247D01*
X0191763Y0097298D01*
X0191794Y0097348D01*
X0191829Y0097395D01*
X0191867Y0097440D01*
X0191908Y0097483D01*
X0191952Y0097522D01*
X0191998Y0097558D01*
X0192046Y0097592D01*
X0192097Y0097622D01*
X0192150Y0097648D01*
X0192204Y0097671D01*
X0192259Y0097690D01*
X0192316Y0097706D01*
X0192374Y0097718D01*
X0192432Y0097726D01*
X0192491Y0097730D01*
X0192549Y0097730D01*
X0192608Y0097726D01*
X0192666Y0097718D01*
X0192724Y0097706D01*
X0192781Y0097690D01*
X0192836Y0097671D01*
X0192890Y0097648D01*
X0192943Y0097622D01*
X0192994Y0097592D01*
X0193042Y0097558D01*
X0193088Y0097522D01*
X0193132Y0097483D01*
X0193173Y0097440D01*
X0193211Y0097395D01*
X0193246Y0097348D01*
X0193277Y0097298D01*
X0193305Y0097247D01*
X0193330Y0097194D01*
X0193351Y0097139D01*
X0193369Y0097082D01*
X0193382Y0097025D01*
X0193392Y0096967D01*
X0193398Y0096909D01*
X0193400Y0096850D01*
X0193398Y0096791D01*
X0193392Y0096733D01*
X0193382Y0096675D01*
X0193369Y0096618D01*
X0193351Y0096561D01*
X0193330Y0096506D01*
X0193305Y0096453D01*
X0193277Y0096402D01*
X0193246Y0096352D01*
X0193211Y0096305D01*
X0193173Y0096260D01*
X0193132Y0096217D01*
X0193088Y0096178D01*
X0193042Y0096142D01*
X0192994Y0096108D01*
X0192943Y0096078D01*
X0192890Y0096052D01*
X0192836Y0096029D01*
X0192781Y0096010D01*
X0192724Y0095994D01*
X0192666Y0095982D01*
X0192608Y0095974D01*
X0192549Y0095970D01*
X0192491Y0095970D01*
X0192432Y0095974D01*
X0192374Y0095982D01*
X0192316Y0095994D01*
X0192259Y0096010D01*
X0192204Y0096029D01*
X0192150Y0096052D01*
X0192097Y0096078D01*
X0192046Y0096108D01*
X0191998Y0096142D01*
X0191952Y0096178D01*
X0191908Y0096217D01*
X0191867Y0096260D01*
X0191829Y0096305D01*
X0191794Y0096352D01*
X0191763Y0096402D01*
X0191735Y0096453D01*
X0191710Y0096506D01*
X0191689Y0096561D01*
X0191671Y0096618D01*
X0191658Y0096675D01*
X0191648Y0096733D01*
X0191642Y0096791D01*
X0191640Y0096850D01*
X0269892Y0087303D02*
X0269894Y0087373D01*
X0269900Y0087443D01*
X0269910Y0087512D01*
X0269923Y0087581D01*
X0269941Y0087649D01*
X0269962Y0087716D01*
X0269987Y0087781D01*
X0270016Y0087845D01*
X0270048Y0087908D01*
X0270084Y0087968D01*
X0270123Y0088026D01*
X0270165Y0088082D01*
X0270210Y0088136D01*
X0270258Y0088187D01*
X0270309Y0088235D01*
X0270363Y0088280D01*
X0270419Y0088322D01*
X0270477Y0088361D01*
X0270537Y0088397D01*
X0270600Y0088429D01*
X0270664Y0088458D01*
X0270729Y0088483D01*
X0270796Y0088504D01*
X0270864Y0088522D01*
X0270933Y0088535D01*
X0271002Y0088545D01*
X0271072Y0088551D01*
X0271142Y0088553D01*
X0271212Y0088551D01*
X0271282Y0088545D01*
X0271351Y0088535D01*
X0271420Y0088522D01*
X0271488Y0088504D01*
X0271555Y0088483D01*
X0271620Y0088458D01*
X0271684Y0088429D01*
X0271747Y0088397D01*
X0271807Y0088361D01*
X0271865Y0088322D01*
X0271921Y0088280D01*
X0271975Y0088235D01*
X0272026Y0088187D01*
X0272074Y0088136D01*
X0272119Y0088082D01*
X0272161Y0088026D01*
X0272200Y0087968D01*
X0272236Y0087908D01*
X0272268Y0087845D01*
X0272297Y0087781D01*
X0272322Y0087716D01*
X0272343Y0087649D01*
X0272361Y0087581D01*
X0272374Y0087512D01*
X0272384Y0087443D01*
X0272390Y0087373D01*
X0272392Y0087303D01*
X0272390Y0087233D01*
X0272384Y0087163D01*
X0272374Y0087094D01*
X0272361Y0087025D01*
X0272343Y0086957D01*
X0272322Y0086890D01*
X0272297Y0086825D01*
X0272268Y0086761D01*
X0272236Y0086698D01*
X0272200Y0086638D01*
X0272161Y0086580D01*
X0272119Y0086524D01*
X0272074Y0086470D01*
X0272026Y0086419D01*
X0271975Y0086371D01*
X0271921Y0086326D01*
X0271865Y0086284D01*
X0271807Y0086245D01*
X0271747Y0086209D01*
X0271684Y0086177D01*
X0271620Y0086148D01*
X0271555Y0086123D01*
X0271488Y0086102D01*
X0271420Y0086084D01*
X0271351Y0086071D01*
X0271282Y0086061D01*
X0271212Y0086055D01*
X0271142Y0086053D01*
X0271072Y0086055D01*
X0271002Y0086061D01*
X0270933Y0086071D01*
X0270864Y0086084D01*
X0270796Y0086102D01*
X0270729Y0086123D01*
X0270664Y0086148D01*
X0270600Y0086177D01*
X0270537Y0086209D01*
X0270477Y0086245D01*
X0270419Y0086284D01*
X0270363Y0086326D01*
X0270309Y0086371D01*
X0270258Y0086419D01*
X0270210Y0086470D01*
X0270165Y0086524D01*
X0270123Y0086580D01*
X0270084Y0086638D01*
X0270048Y0086698D01*
X0270016Y0086761D01*
X0269987Y0086825D01*
X0269962Y0086890D01*
X0269941Y0086957D01*
X0269923Y0087025D01*
X0269910Y0087094D01*
X0269900Y0087163D01*
X0269894Y0087233D01*
X0269892Y0087303D01*
X0222347Y0020030D02*
X0218597Y0020030D01*
X0020669Y0153268D02*
X-0019803Y0153268D01*
X-0019803Y0205000D01*
X0020669Y0205000D01*
X0020669Y0153268D01*
X0241339Y0252677D02*
X0264961Y0252677D01*
X0264961Y0284173D01*
X0241339Y0284173D01*
X0241339Y0252677D01*
X0303346Y0254823D02*
X0303346Y0239823D01*
X0325846Y0239823D01*
X0325886Y0236122D02*
X0303386Y0236122D01*
X0303386Y0221122D01*
X0325886Y0221122D01*
X0333386Y0228622D02*
X0333384Y0228803D01*
X0333377Y0228984D01*
X0333366Y0229165D01*
X0333351Y0229346D01*
X0333331Y0229526D01*
X0333307Y0229706D01*
X0333279Y0229885D01*
X0333246Y0230063D01*
X0333209Y0230240D01*
X0333168Y0230417D01*
X0333123Y0230592D01*
X0333073Y0230767D01*
X0333019Y0230940D01*
X0332961Y0231111D01*
X0332899Y0231282D01*
X0332832Y0231450D01*
X0332762Y0231617D01*
X0332688Y0231783D01*
X0332609Y0231946D01*
X0332527Y0232107D01*
X0332441Y0232267D01*
X0332351Y0232424D01*
X0332257Y0232579D01*
X0332160Y0232732D01*
X0332058Y0232882D01*
X0331954Y0233030D01*
X0331845Y0233176D01*
X0331734Y0233318D01*
X0331618Y0233458D01*
X0331500Y0233595D01*
X0331378Y0233730D01*
X0331253Y0233861D01*
X0331125Y0233989D01*
X0330994Y0234114D01*
X0330859Y0234236D01*
X0330722Y0234354D01*
X0330582Y0234470D01*
X0330440Y0234581D01*
X0330294Y0234690D01*
X0330146Y0234794D01*
X0329996Y0234896D01*
X0329843Y0234993D01*
X0329688Y0235087D01*
X0329531Y0235177D01*
X0329371Y0235263D01*
X0329210Y0235345D01*
X0329047Y0235424D01*
X0328881Y0235498D01*
X0328714Y0235568D01*
X0328546Y0235635D01*
X0328375Y0235697D01*
X0328204Y0235755D01*
X0328031Y0235809D01*
X0327856Y0235859D01*
X0327681Y0235904D01*
X0327504Y0235945D01*
X0327327Y0235982D01*
X0327149Y0236015D01*
X0326970Y0236043D01*
X0326790Y0236067D01*
X0326610Y0236087D01*
X0326429Y0236102D01*
X0326248Y0236113D01*
X0326067Y0236120D01*
X0325886Y0236122D01*
X0333386Y0228622D02*
X0333384Y0228441D01*
X0333377Y0228260D01*
X0333366Y0228079D01*
X0333351Y0227898D01*
X0333331Y0227718D01*
X0333307Y0227538D01*
X0333279Y0227359D01*
X0333246Y0227181D01*
X0333209Y0227004D01*
X0333168Y0226827D01*
X0333123Y0226652D01*
X0333073Y0226477D01*
X0333019Y0226304D01*
X0332961Y0226133D01*
X0332899Y0225962D01*
X0332832Y0225794D01*
X0332762Y0225627D01*
X0332688Y0225461D01*
X0332609Y0225298D01*
X0332527Y0225137D01*
X0332441Y0224977D01*
X0332351Y0224820D01*
X0332257Y0224665D01*
X0332160Y0224512D01*
X0332058Y0224362D01*
X0331954Y0224214D01*
X0331845Y0224068D01*
X0331734Y0223926D01*
X0331618Y0223786D01*
X0331500Y0223649D01*
X0331378Y0223514D01*
X0331253Y0223383D01*
X0331125Y0223255D01*
X0330994Y0223130D01*
X0330859Y0223008D01*
X0330722Y0222890D01*
X0330582Y0222774D01*
X0330440Y0222663D01*
X0330294Y0222554D01*
X0330146Y0222450D01*
X0329996Y0222348D01*
X0329843Y0222251D01*
X0329688Y0222157D01*
X0329531Y0222067D01*
X0329371Y0221981D01*
X0329210Y0221899D01*
X0329047Y0221820D01*
X0328881Y0221746D01*
X0328714Y0221676D01*
X0328546Y0221609D01*
X0328375Y0221547D01*
X0328204Y0221489D01*
X0328031Y0221435D01*
X0327856Y0221385D01*
X0327681Y0221340D01*
X0327504Y0221299D01*
X0327327Y0221262D01*
X0327149Y0221229D01*
X0326970Y0221201D01*
X0326790Y0221177D01*
X0326610Y0221157D01*
X0326429Y0221142D01*
X0326248Y0221131D01*
X0326067Y0221124D01*
X0325886Y0221122D01*
X0333346Y0247323D02*
X0333344Y0247504D01*
X0333337Y0247685D01*
X0333326Y0247866D01*
X0333311Y0248047D01*
X0333291Y0248227D01*
X0333267Y0248407D01*
X0333239Y0248586D01*
X0333206Y0248764D01*
X0333169Y0248941D01*
X0333128Y0249118D01*
X0333083Y0249293D01*
X0333033Y0249468D01*
X0332979Y0249641D01*
X0332921Y0249812D01*
X0332859Y0249983D01*
X0332792Y0250151D01*
X0332722Y0250318D01*
X0332648Y0250484D01*
X0332569Y0250647D01*
X0332487Y0250808D01*
X0332401Y0250968D01*
X0332311Y0251125D01*
X0332217Y0251280D01*
X0332120Y0251433D01*
X0332018Y0251583D01*
X0331914Y0251731D01*
X0331805Y0251877D01*
X0331694Y0252019D01*
X0331578Y0252159D01*
X0331460Y0252296D01*
X0331338Y0252431D01*
X0331213Y0252562D01*
X0331085Y0252690D01*
X0330954Y0252815D01*
X0330819Y0252937D01*
X0330682Y0253055D01*
X0330542Y0253171D01*
X0330400Y0253282D01*
X0330254Y0253391D01*
X0330106Y0253495D01*
X0329956Y0253597D01*
X0329803Y0253694D01*
X0329648Y0253788D01*
X0329491Y0253878D01*
X0329331Y0253964D01*
X0329170Y0254046D01*
X0329007Y0254125D01*
X0328841Y0254199D01*
X0328674Y0254269D01*
X0328506Y0254336D01*
X0328335Y0254398D01*
X0328164Y0254456D01*
X0327991Y0254510D01*
X0327816Y0254560D01*
X0327641Y0254605D01*
X0327464Y0254646D01*
X0327287Y0254683D01*
X0327109Y0254716D01*
X0326930Y0254744D01*
X0326750Y0254768D01*
X0326570Y0254788D01*
X0326389Y0254803D01*
X0326208Y0254814D01*
X0326027Y0254821D01*
X0325846Y0254823D01*
X0303346Y0254823D01*
X0325846Y0239823D02*
X0326027Y0239825D01*
X0326208Y0239832D01*
X0326389Y0239843D01*
X0326570Y0239858D01*
X0326750Y0239878D01*
X0326930Y0239902D01*
X0327109Y0239930D01*
X0327287Y0239963D01*
X0327464Y0240000D01*
X0327641Y0240041D01*
X0327816Y0240086D01*
X0327991Y0240136D01*
X0328164Y0240190D01*
X0328335Y0240248D01*
X0328506Y0240310D01*
X0328674Y0240377D01*
X0328841Y0240447D01*
X0329007Y0240521D01*
X0329170Y0240600D01*
X0329331Y0240682D01*
X0329491Y0240768D01*
X0329648Y0240858D01*
X0329803Y0240952D01*
X0329956Y0241049D01*
X0330106Y0241151D01*
X0330254Y0241255D01*
X0330400Y0241364D01*
X0330542Y0241475D01*
X0330682Y0241591D01*
X0330819Y0241709D01*
X0330954Y0241831D01*
X0331085Y0241956D01*
X0331213Y0242084D01*
X0331338Y0242215D01*
X0331460Y0242350D01*
X0331578Y0242487D01*
X0331694Y0242627D01*
X0331805Y0242769D01*
X0331914Y0242915D01*
X0332018Y0243063D01*
X0332120Y0243213D01*
X0332217Y0243366D01*
X0332311Y0243521D01*
X0332401Y0243678D01*
X0332487Y0243838D01*
X0332569Y0243999D01*
X0332648Y0244162D01*
X0332722Y0244328D01*
X0332792Y0244495D01*
X0332859Y0244663D01*
X0332921Y0244834D01*
X0332979Y0245005D01*
X0333033Y0245178D01*
X0333083Y0245353D01*
X0333128Y0245528D01*
X0333169Y0245705D01*
X0333206Y0245882D01*
X0333239Y0246060D01*
X0333267Y0246239D01*
X0333291Y0246419D01*
X0333311Y0246599D01*
X0333326Y0246780D01*
X0333337Y0246961D01*
X0333344Y0247142D01*
X0333346Y0247323D01*
D16*
X0232935Y0086361D02*
X0231435Y0086361D01*
X0231435Y0085361D01*
X0232935Y0085361D01*
X0232935Y0086361D01*
X0232935Y0086296D02*
X0231435Y0086296D01*
X0231435Y0086197D02*
X0232935Y0086197D01*
X0232935Y0086099D02*
X0231435Y0086099D01*
X0231435Y0086000D02*
X0232935Y0086000D01*
X0232935Y0085902D02*
X0231435Y0085902D01*
X0231435Y0085803D02*
X0232935Y0085803D01*
X0232935Y0085705D02*
X0231435Y0085705D01*
X0231435Y0085606D02*
X0232935Y0085606D01*
X0232935Y0085508D02*
X0231435Y0085508D01*
X0231435Y0085409D02*
X0232935Y0085409D01*
X0256879Y0082831D02*
X0256879Y0082207D01*
X0257191Y0081896D01*
X0257502Y0081896D01*
X0257814Y0082207D01*
X0257814Y0083142D01*
X0257191Y0083142D02*
X0256879Y0082831D01*
X0257191Y0083142D02*
X0258438Y0083142D01*
X0258749Y0082831D01*
X0258749Y0082207D01*
X0258438Y0081896D01*
X0258438Y0081330D02*
X0256879Y0081330D01*
X0256879Y0080083D02*
X0258438Y0080083D01*
X0258749Y0080395D01*
X0258749Y0081018D01*
X0258438Y0081330D01*
X0255967Y0054561D02*
X0254467Y0054561D01*
X0254467Y0053561D01*
X0255967Y0053561D01*
X0255967Y0054561D01*
X0255967Y0054477D02*
X0254467Y0054477D01*
X0254467Y0054378D02*
X0255967Y0054378D01*
X0255967Y0054280D02*
X0254467Y0054280D01*
X0254467Y0054181D02*
X0255967Y0054181D01*
X0255967Y0054083D02*
X0254467Y0054083D01*
X0254467Y0053984D02*
X0255967Y0053984D01*
X0255967Y0053886D02*
X0254467Y0053886D01*
X0254467Y0053787D02*
X0255967Y0053787D01*
X0255967Y0053689D02*
X0254467Y0053689D01*
X0254467Y0053590D02*
X0255967Y0053590D01*
X0122589Y0066562D02*
X0122474Y0066448D01*
X0122245Y0066448D01*
X0122130Y0066562D01*
X0121864Y0066448D02*
X0121405Y0066448D01*
X0121634Y0066448D02*
X0121634Y0067136D01*
X0121405Y0066906D01*
X0121139Y0066792D02*
X0121024Y0066677D01*
X0120680Y0066677D01*
X0120909Y0066677D02*
X0121139Y0066448D01*
X0121139Y0066792D02*
X0121139Y0067021D01*
X0121024Y0067136D01*
X0120680Y0067136D01*
X0120680Y0066448D01*
X0122130Y0067021D02*
X0122245Y0067136D01*
X0122474Y0067136D01*
X0122589Y0067021D01*
X0122589Y0066906D01*
X0122474Y0066792D01*
X0122589Y0066677D01*
X0122589Y0066562D01*
X0122474Y0066792D02*
X0122359Y0066792D01*
X0119226Y0078259D02*
X0118997Y0078259D01*
X0118882Y0078373D01*
X0118882Y0078488D01*
X0118997Y0078603D01*
X0119226Y0078603D01*
X0119341Y0078488D01*
X0119341Y0078373D01*
X0119226Y0078259D01*
X0119226Y0078603D02*
X0119341Y0078717D01*
X0119341Y0078832D01*
X0119226Y0078947D01*
X0118997Y0078947D01*
X0118882Y0078832D01*
X0118882Y0078717D01*
X0118997Y0078603D01*
X0118616Y0078259D02*
X0118157Y0078259D01*
X0118386Y0078259D02*
X0118386Y0078947D01*
X0118157Y0078717D01*
X0117891Y0078603D02*
X0117776Y0078488D01*
X0117432Y0078488D01*
X0117661Y0078488D02*
X0117891Y0078259D01*
X0117891Y0078603D02*
X0117891Y0078832D01*
X0117776Y0078947D01*
X0117432Y0078947D01*
X0117432Y0078259D01*
X0104039Y0078469D02*
X0104039Y0079190D01*
X0103859Y0079370D01*
X0103498Y0079370D01*
X0103318Y0079190D01*
X0103318Y0079010D01*
X0103498Y0078829D01*
X0104039Y0078829D01*
X0104039Y0078469D02*
X0103859Y0078288D01*
X0103498Y0078288D01*
X0103318Y0078469D01*
X0102951Y0078288D02*
X0102230Y0078288D01*
X0102591Y0078288D02*
X0102591Y0079370D01*
X0102230Y0079010D01*
X0101864Y0079190D02*
X0101864Y0078829D01*
X0101684Y0078649D01*
X0101143Y0078649D01*
X0101503Y0078649D02*
X0101864Y0078288D01*
X0101143Y0078288D02*
X0101143Y0079370D01*
X0101684Y0079370D01*
X0101864Y0079190D01*
X0110699Y0053878D02*
X0110814Y0053878D01*
X0111272Y0053419D01*
X0111387Y0053419D01*
X0111387Y0053153D02*
X0111387Y0052694D01*
X0111387Y0052924D02*
X0110699Y0052924D01*
X0110928Y0052694D01*
X0110814Y0052428D02*
X0111043Y0052428D01*
X0111158Y0052313D01*
X0111158Y0051969D01*
X0111387Y0051969D02*
X0110699Y0051969D01*
X0110699Y0052313D01*
X0110814Y0052428D01*
X0111158Y0052199D02*
X0111387Y0052428D01*
X0110699Y0053419D02*
X0110699Y0053878D01*
D17*
X0084635Y0054252D02*
X0084637Y0054319D01*
X0084643Y0054385D01*
X0084653Y0054451D01*
X0084667Y0054516D01*
X0084684Y0054580D01*
X0084706Y0054643D01*
X0084731Y0054705D01*
X0084760Y0054765D01*
X0084793Y0054823D01*
X0084828Y0054879D01*
X0084868Y0054933D01*
X0084910Y0054984D01*
X0084955Y0055033D01*
X0085003Y0055079D01*
X0085054Y0055122D01*
X0085107Y0055162D01*
X0085163Y0055199D01*
X0085221Y0055232D01*
X0085280Y0055262D01*
X0085341Y0055288D01*
X0085404Y0055311D01*
X0085468Y0055329D01*
X0085533Y0055344D01*
X0085599Y0055355D01*
X0085665Y0055362D01*
X0085731Y0055365D01*
X0085798Y0055364D01*
X0085864Y0055359D01*
X0085930Y0055350D01*
X0085996Y0055337D01*
X0086060Y0055320D01*
X0086123Y0055300D01*
X0086185Y0055275D01*
X0086246Y0055247D01*
X0086305Y0055216D01*
X0086361Y0055181D01*
X0086416Y0055143D01*
X0086468Y0055101D01*
X0086517Y0055056D01*
X0086564Y0055009D01*
X0086608Y0054959D01*
X0086648Y0054906D01*
X0086686Y0054851D01*
X0086720Y0054794D01*
X0086751Y0054735D01*
X0086778Y0054674D01*
X0086801Y0054612D01*
X0086821Y0054548D01*
X0086837Y0054483D01*
X0086849Y0054418D01*
X0086857Y0054352D01*
X0086861Y0054285D01*
X0086861Y0054219D01*
X0086857Y0054152D01*
X0086849Y0054086D01*
X0086837Y0054021D01*
X0086821Y0053956D01*
X0086801Y0053892D01*
X0086778Y0053830D01*
X0086751Y0053769D01*
X0086720Y0053710D01*
X0086686Y0053653D01*
X0086648Y0053598D01*
X0086608Y0053545D01*
X0086564Y0053495D01*
X0086517Y0053448D01*
X0086468Y0053403D01*
X0086416Y0053361D01*
X0086361Y0053323D01*
X0086304Y0053288D01*
X0086246Y0053257D01*
X0086185Y0053229D01*
X0086123Y0053204D01*
X0086060Y0053184D01*
X0085996Y0053167D01*
X0085930Y0053154D01*
X0085864Y0053145D01*
X0085798Y0053140D01*
X0085731Y0053139D01*
X0085665Y0053142D01*
X0085599Y0053149D01*
X0085533Y0053160D01*
X0085468Y0053175D01*
X0085404Y0053193D01*
X0085341Y0053216D01*
X0085280Y0053242D01*
X0085221Y0053272D01*
X0085163Y0053305D01*
X0085107Y0053342D01*
X0085054Y0053382D01*
X0085003Y0053425D01*
X0084955Y0053471D01*
X0084910Y0053520D01*
X0084868Y0053571D01*
X0084828Y0053625D01*
X0084793Y0053681D01*
X0084760Y0053739D01*
X0084731Y0053799D01*
X0084706Y0053861D01*
X0084684Y0053924D01*
X0084667Y0053988D01*
X0084653Y0054053D01*
X0084643Y0054119D01*
X0084637Y0054185D01*
X0084635Y0054252D01*
D18*
X0257035Y0081075D02*
X0260171Y0084211D01*
X0258603Y0084211D02*
X0258603Y0081075D01*
X0260171Y0081075D02*
X0257035Y0084211D01*
X0257035Y0082643D02*
X0260171Y0082643D01*
D19*
X0328150Y0274311D03*
D20*
X0181488Y0078915D03*
X0181548Y0078735D03*
X0181608Y0078675D03*
X0181668Y0078615D03*
X0181728Y0078555D03*
X0181788Y0078495D03*
X0181908Y0078375D03*
X0182028Y0078135D03*
X0182088Y0078075D03*
X0182148Y0078015D03*
X0182208Y0077955D03*
X0182268Y0077895D03*
X0182328Y0077775D03*
X0182388Y0077655D03*
X0182448Y0077595D03*
X0182508Y0077535D03*
X0182628Y0077415D03*
X0182748Y0077175D03*
X0182808Y0077115D03*
X0182868Y0077055D03*
X0182928Y0076935D03*
X0182988Y0076815D03*
X0183048Y0076755D03*
X0183108Y0076695D03*
X0183228Y0076455D03*
X0183288Y0076395D03*
X0183348Y0076215D03*
X0183408Y0076155D03*
X0183468Y0076095D03*
X0183528Y0075975D03*
X0183588Y0075855D03*
X0183648Y0075795D03*
X0183708Y0075735D03*
X0183708Y0075615D03*
X0183768Y0075555D03*
X0183828Y0075495D03*
X0183888Y0075315D03*
X0183948Y0075255D03*
X0184068Y0075015D03*
X0184188Y0074775D03*
X0184308Y0074535D03*
X0184428Y0074295D03*
X0184488Y0074115D03*
X0184548Y0074055D03*
X0184608Y0073875D03*
X0184668Y0073815D03*
X0184668Y0073695D03*
X0184728Y0073635D03*
X0184788Y0073575D03*
X0184788Y0073455D03*
X0184908Y0073215D03*
X0184968Y0073035D03*
X0185028Y0072975D03*
X0185028Y0072855D03*
X0185088Y0072795D03*
X0185148Y0072615D03*
X0185268Y0072375D03*
X0185268Y0072255D03*
X0185328Y0072195D03*
X0185388Y0072015D03*
X0185448Y0071835D03*
X0185508Y0071775D03*
X0185508Y0071655D03*
X0185568Y0071595D03*
X0185628Y0071415D03*
X0185748Y0071175D03*
X0185748Y0071055D03*
X0185868Y0070815D03*
X0185988Y0070455D03*
X0186048Y0070275D03*
X0186108Y0070095D03*
X0186228Y0069855D03*
X0186228Y0069735D03*
X0186288Y0069675D03*
X0186348Y0069495D03*
X0186708Y0069375D03*
X0187788Y0069135D03*
X0187968Y0069075D03*
X0188148Y0069015D03*
X0188328Y0068955D03*
X0188568Y0068835D03*
X0188808Y0068715D03*
X0189048Y0068595D03*
X0189108Y0068535D03*
X0189168Y0068475D03*
X0189408Y0068355D03*
X0189528Y0068235D03*
X0189648Y0068115D03*
X0190128Y0067635D03*
X0190248Y0067515D03*
X0190488Y0067155D03*
X0190128Y0062115D03*
X0190008Y0061995D03*
X0189888Y0061875D03*
X0189408Y0061395D03*
X0189168Y0061155D03*
X0189048Y0061035D03*
X0188988Y0060975D03*
X0188208Y0060315D03*
X0187488Y0059715D03*
X0186468Y0058875D03*
X0186468Y0058815D03*
X0187848Y0057795D03*
X0187848Y0057675D03*
X0188808Y0055875D03*
X0187968Y0053955D03*
X0188328Y0053595D03*
X0188568Y0053475D03*
X0188808Y0053355D03*
X0188988Y0053295D03*
X0188688Y0052995D03*
X0189588Y0053175D03*
X0190428Y0053175D03*
X0190908Y0053295D03*
X0191088Y0053355D03*
X0191268Y0053415D03*
X0191328Y0053475D03*
X0191508Y0053535D03*
X0191568Y0053595D03*
X0191808Y0053715D03*
X0190548Y0054015D03*
X0190068Y0053895D03*
X0192228Y0055095D03*
X0189108Y0059655D03*
X0184128Y0057315D03*
X0183648Y0057195D03*
X0182568Y0056955D03*
X0182328Y0056835D03*
X0182088Y0056715D03*
X0182028Y0056655D03*
X0181788Y0056535D03*
X0181548Y0056415D03*
X0177708Y0055935D03*
X0177408Y0056115D03*
X0183588Y0049935D03*
X0187008Y0045015D03*
X0187008Y0044955D03*
X0187008Y0044895D03*
X0187008Y0044835D03*
X0187008Y0044775D03*
X0187008Y0044715D03*
X0187008Y0044655D03*
X0187008Y0044595D03*
X0187008Y0044535D03*
X0187008Y0044475D03*
X0187008Y0044415D03*
X0187008Y0044355D03*
X0187008Y0044295D03*
X0187008Y0044235D03*
X0187008Y0044175D03*
X0187008Y0044115D03*
X0187068Y0044055D03*
X0187008Y0043275D03*
X0187008Y0043155D03*
X0187008Y0043035D03*
X0187008Y0042915D03*
X0187068Y0042855D03*
X0187008Y0042795D03*
X0187068Y0042735D03*
X0187008Y0042675D03*
X0187068Y0042615D03*
X0187008Y0042555D03*
X0187068Y0042495D03*
X0187068Y0041655D03*
X0187068Y0041535D03*
X0187068Y0041415D03*
X0187068Y0041295D03*
X0187068Y0041175D03*
X0187068Y0041055D03*
X0187068Y0040935D03*
X0187068Y0040815D03*
X0187068Y0039975D03*
X0187068Y0039915D03*
X0187068Y0039855D03*
X0187068Y0039795D03*
X0187068Y0039735D03*
X0187068Y0039675D03*
X0187068Y0039615D03*
X0187068Y0039495D03*
X0187068Y0039375D03*
X0187068Y0039255D03*
X0187068Y0039135D03*
X0187068Y0039015D03*
X0187068Y0038175D03*
X0187128Y0038115D03*
X0187068Y0038055D03*
X0187128Y0037995D03*
X0187068Y0037935D03*
X0187128Y0037875D03*
X0187068Y0037815D03*
X0187128Y0037755D03*
X0187068Y0037695D03*
X0187128Y0037635D03*
X0187068Y0037575D03*
X0187128Y0037515D03*
X0187068Y0037455D03*
X0187128Y0037395D03*
X0187068Y0037335D03*
X0187128Y0036555D03*
X0187128Y0036435D03*
X0187128Y0036315D03*
X0187128Y0036195D03*
X0187128Y0036135D03*
X0187128Y0036075D03*
X0187128Y0036015D03*
X0187128Y0035955D03*
X0187128Y0035895D03*
X0187128Y0035835D03*
X0187128Y0035775D03*
X0187128Y0035715D03*
X0187128Y0035655D03*
X0187128Y0035595D03*
X0187128Y0035535D03*
X0187128Y0035475D03*
X0187128Y0035415D03*
X0187128Y0035355D03*
X0187128Y0035295D03*
X0187128Y0035235D03*
X0187128Y0035175D03*
X0187128Y0035115D03*
X0187428Y0035175D03*
X0187488Y0035235D03*
X0187548Y0035295D03*
X0187608Y0035355D03*
X0187668Y0035415D03*
X0188028Y0035895D03*
X0188148Y0036015D03*
X0188208Y0036075D03*
X0188268Y0036135D03*
X0188388Y0036255D03*
X0189588Y0037695D03*
X0189708Y0037815D03*
X0190188Y0038415D03*
X0190308Y0038535D03*
X0191028Y0039375D03*
X0191508Y0039975D03*
X0191568Y0040035D03*
X0191628Y0040095D03*
X0191688Y0040155D03*
X0191748Y0040215D03*
X0192948Y0041655D03*
X0193068Y0041775D03*
X0193188Y0041895D03*
X0194988Y0042735D03*
X0198468Y0051255D03*
X0198888Y0052875D03*
X0198948Y0053055D03*
X0198948Y0053175D03*
X0199008Y0053355D03*
X0200388Y0052815D03*
X0200388Y0052695D03*
X0200328Y0052515D03*
X0200448Y0052995D03*
X0200508Y0053055D03*
X0200448Y0056115D03*
X0200508Y0056175D03*
X0200508Y0056295D03*
X0202188Y0057495D03*
X0202248Y0057435D03*
X0203268Y0062295D03*
X0203328Y0062355D03*
X0185028Y0069735D03*
X0184908Y0069975D03*
X0184788Y0070215D03*
X0184668Y0070455D03*
X0184548Y0070695D03*
X0184428Y0070935D03*
X0184308Y0071175D03*
X0184788Y0069255D03*
X0184608Y0069195D03*
X0184368Y0069075D03*
X0184128Y0068955D03*
X0183228Y0072975D03*
X0182988Y0073335D03*
X0182388Y0074175D03*
X0182148Y0074535D03*
X0182028Y0074655D03*
X0181668Y0075135D03*
X0181548Y0075255D03*
X0181188Y0075735D03*
X0181068Y0075855D03*
X0180828Y0076215D03*
X0180708Y0076335D03*
X0180648Y0076395D03*
X0180588Y0076455D03*
X0180408Y0076695D03*
X0180228Y0076935D03*
X0180108Y0077055D03*
X0180048Y0077115D03*
X0179988Y0077175D03*
X0179868Y0077295D03*
X0179628Y0077655D03*
X0179508Y0077775D03*
X0179448Y0077835D03*
X0179388Y0077895D03*
X0179328Y0077955D03*
X0179268Y0078015D03*
X0179148Y0078135D03*
X0179028Y0078375D03*
X0178908Y0078495D03*
X0178848Y0078555D03*
X0178788Y0078615D03*
X0178728Y0078675D03*
X0178668Y0078735D03*
X0178608Y0078795D03*
X0178548Y0078855D03*
X0178248Y0079275D03*
X0178188Y0079335D03*
X0178668Y0064035D03*
X0178128Y0063195D03*
X0186708Y0043335D03*
X0187188Y0034815D03*
X0187128Y0034755D03*
D21*
X0187188Y0034875D03*
X0187248Y0034935D03*
X0187788Y0035595D03*
X0187848Y0035655D03*
X0187908Y0035715D03*
X0188028Y0035835D03*
X0188508Y0036435D03*
X0188568Y0036495D03*
X0188628Y0036555D03*
X0188748Y0036675D03*
X0189588Y0037635D03*
X0189708Y0037875D03*
X0189828Y0037995D03*
X0189948Y0038115D03*
X0190008Y0038175D03*
X0190188Y0038355D03*
X0191148Y0039555D03*
X0191208Y0039615D03*
X0191268Y0039675D03*
X0191328Y0039735D03*
X0191388Y0039795D03*
X0191868Y0040395D03*
X0192588Y0041235D03*
X0192648Y0041295D03*
X0192708Y0041355D03*
X0193188Y0041955D03*
X0193308Y0042075D03*
X0187008Y0043335D03*
X0187068Y0040035D03*
X0196548Y0047415D03*
X0196548Y0047475D03*
X0196488Y0047655D03*
X0197148Y0050055D03*
X0198468Y0051315D03*
X0198468Y0051435D03*
X0198468Y0051555D03*
X0198528Y0051615D03*
X0198528Y0051675D03*
X0198528Y0051735D03*
X0198588Y0051795D03*
X0198588Y0051915D03*
X0198648Y0051975D03*
X0198948Y0053115D03*
X0200388Y0052875D03*
X0200388Y0052755D03*
X0200328Y0052455D03*
X0200208Y0051615D03*
X0200148Y0051555D03*
X0200148Y0051435D03*
X0200088Y0051375D03*
X0200088Y0051315D03*
X0200088Y0051255D03*
X0200028Y0051195D03*
X0200028Y0051075D03*
X0200028Y0050955D03*
X0199968Y0050895D03*
X0200508Y0056355D03*
X0200568Y0056415D03*
X0200508Y0061515D03*
X0203268Y0062235D03*
X0190668Y0053235D03*
X0189228Y0053235D03*
X0190008Y0055815D03*
X0189828Y0057315D03*
X0187848Y0057615D03*
X0187668Y0057315D03*
X0187848Y0055815D03*
X0183408Y0057135D03*
X0181428Y0056355D03*
X0181068Y0056235D03*
X0181008Y0054375D03*
X0178308Y0055755D03*
X0177828Y0055875D03*
X0181308Y0051075D03*
X0188208Y0060255D03*
X0188988Y0060915D03*
X0189048Y0060855D03*
X0187548Y0069195D03*
X0186348Y0069555D03*
X0186288Y0069615D03*
X0186228Y0069795D03*
X0186108Y0070155D03*
X0185868Y0070755D03*
X0185808Y0070935D03*
X0185748Y0071115D03*
X0185628Y0071355D03*
X0185628Y0071475D03*
X0185508Y0071715D03*
X0185268Y0072315D03*
X0185028Y0072915D03*
X0184788Y0073515D03*
X0184668Y0073755D03*
X0183348Y0072795D03*
X0183288Y0072855D03*
X0183228Y0072915D03*
X0183108Y0073155D03*
X0183048Y0073215D03*
X0182988Y0073275D03*
X0182868Y0073515D03*
X0182808Y0073575D03*
X0182748Y0073635D03*
X0182688Y0073755D03*
X0182628Y0073875D03*
X0182568Y0073935D03*
X0182508Y0073995D03*
X0182388Y0074115D03*
X0182268Y0074355D03*
X0182208Y0074415D03*
X0182148Y0074475D03*
X0181908Y0074835D03*
X0181848Y0074895D03*
X0181788Y0074955D03*
X0181548Y0075315D03*
X0181488Y0075375D03*
X0181428Y0075435D03*
X0180948Y0076035D03*
X0180828Y0076155D03*
X0180348Y0076755D03*
X0179748Y0077475D03*
X0179148Y0078195D03*
X0179028Y0078315D03*
X0178428Y0079035D03*
X0181908Y0078315D03*
X0182028Y0078195D03*
X0182628Y0077355D03*
X0182868Y0076995D03*
X0183348Y0076275D03*
X0183708Y0075675D03*
X0183828Y0075435D03*
X0183408Y0072675D03*
X0183468Y0072555D03*
X0183528Y0072495D03*
X0183588Y0072435D03*
X0183708Y0072195D03*
X0183768Y0072135D03*
X0183828Y0071955D03*
X0183888Y0071895D03*
X0183948Y0071835D03*
X0184008Y0071655D03*
X0184068Y0071595D03*
X0184128Y0071475D03*
X0184188Y0071355D03*
X0184248Y0071295D03*
X0184308Y0071235D03*
X0184308Y0071115D03*
X0184368Y0071055D03*
X0184428Y0070995D03*
X0184428Y0070875D03*
X0184488Y0070815D03*
X0184548Y0070755D03*
X0184548Y0070635D03*
X0184608Y0070575D03*
X0184668Y0070515D03*
X0184668Y0070395D03*
X0184728Y0070335D03*
X0184788Y0070275D03*
X0184788Y0070155D03*
X0184848Y0070095D03*
X0184908Y0070035D03*
X0184908Y0069915D03*
X0184968Y0069855D03*
X0185028Y0069795D03*
X0185028Y0069675D03*
X0185088Y0069615D03*
X0185088Y0069555D03*
X0185148Y0069435D03*
X0185208Y0069375D03*
X0185028Y0069315D03*
X0178728Y0064215D03*
X0178668Y0064155D03*
D22*
X0187188Y0058935D03*
X0187548Y0058455D03*
X0188688Y0057795D03*
X0188388Y0059895D03*
X0188988Y0055335D03*
X0188748Y0052935D03*
X0192888Y0055275D03*
X0197088Y0050115D03*
X0198588Y0052155D03*
X0198588Y0052215D03*
X0203148Y0062175D03*
X0186648Y0040035D03*
X0186648Y0036555D03*
X0187248Y0035055D03*
X0187248Y0034995D03*
D23*
X0187398Y0035115D03*
X0187698Y0035475D03*
X0187758Y0035535D03*
X0187938Y0035775D03*
X0188298Y0036195D03*
X0188478Y0036375D03*
X0188658Y0036615D03*
X0188778Y0036735D03*
X0188838Y0036795D03*
X0189798Y0037935D03*
X0190038Y0038235D03*
X0190098Y0038295D03*
X0190278Y0038475D03*
X0191058Y0039435D03*
X0191478Y0039915D03*
X0191778Y0040275D03*
X0191838Y0040335D03*
X0192558Y0041175D03*
X0192738Y0041415D03*
X0192798Y0041475D03*
X0192858Y0041535D03*
X0192978Y0041715D03*
X0193098Y0041835D03*
X0193278Y0042015D03*
X0193338Y0042135D03*
X0187038Y0041715D03*
X0187038Y0041595D03*
X0187038Y0041475D03*
X0187038Y0041355D03*
X0187038Y0041235D03*
X0187038Y0041115D03*
X0187038Y0040995D03*
X0187038Y0040875D03*
X0187098Y0039555D03*
X0187098Y0039435D03*
X0187098Y0039315D03*
X0187098Y0039195D03*
X0187098Y0039075D03*
X0197178Y0049995D03*
X0198438Y0051375D03*
X0198498Y0051495D03*
X0198558Y0051855D03*
X0198978Y0053235D03*
X0198978Y0053295D03*
X0200358Y0052635D03*
X0200358Y0052575D03*
X0200058Y0051135D03*
X0199998Y0051015D03*
X0199938Y0050835D03*
X0200478Y0056235D03*
X0202758Y0060195D03*
X0199758Y0061215D03*
X0187038Y0059295D03*
X0178698Y0064095D03*
X0184158Y0071415D03*
X0184098Y0071535D03*
X0183978Y0071715D03*
X0183978Y0071775D03*
X0183798Y0072015D03*
X0183798Y0072075D03*
X0183678Y0072255D03*
X0183438Y0072615D03*
X0183378Y0072735D03*
X0183198Y0073035D03*
X0183138Y0073095D03*
X0182898Y0073455D03*
X0182658Y0073815D03*
X0182478Y0074055D03*
X0182358Y0074235D03*
X0182298Y0074295D03*
X0182058Y0074595D03*
X0181998Y0074715D03*
X0181938Y0074775D03*
X0181758Y0075015D03*
X0181698Y0075075D03*
X0181638Y0075195D03*
X0181398Y0075495D03*
X0181338Y0075555D03*
X0181278Y0075615D03*
X0181158Y0075795D03*
X0181038Y0075915D03*
X0180978Y0075975D03*
X0180738Y0076275D03*
X0180558Y0076515D03*
X0180498Y0076575D03*
X0180438Y0076635D03*
X0180258Y0076875D03*
X0180138Y0076995D03*
X0179958Y0077235D03*
X0179838Y0077355D03*
X0179658Y0077595D03*
X0179538Y0077715D03*
X0179238Y0078075D03*
X0179058Y0078255D03*
X0178938Y0078435D03*
X0178458Y0078975D03*
X0178338Y0079155D03*
X0178278Y0079215D03*
X0181938Y0078255D03*
X0182298Y0077835D03*
X0182358Y0077715D03*
X0182538Y0077475D03*
X0182658Y0077295D03*
X0182958Y0076875D03*
X0183138Y0076635D03*
X0183138Y0076575D03*
X0183198Y0076515D03*
X0183498Y0076035D03*
X0183558Y0075915D03*
X0183858Y0075375D03*
X0183978Y0075195D03*
X0183978Y0075135D03*
X0184038Y0075075D03*
X0184098Y0074955D03*
X0184098Y0074895D03*
X0184158Y0074835D03*
X0184278Y0074595D03*
X0184338Y0074475D03*
X0184338Y0074415D03*
X0184398Y0074355D03*
X0184458Y0074235D03*
X0184458Y0074175D03*
X0184578Y0073995D03*
X0184578Y0073935D03*
X0184878Y0073335D03*
X0184878Y0073275D03*
X0184938Y0073155D03*
X0184938Y0073095D03*
X0185178Y0072555D03*
X0185178Y0072495D03*
X0185238Y0072435D03*
X0185358Y0072135D03*
X0185358Y0072075D03*
X0185598Y0071535D03*
X0185658Y0071295D03*
X0185778Y0070995D03*
X0185838Y0070875D03*
X0185898Y0070695D03*
X0185898Y0070635D03*
X0185958Y0070575D03*
X0185958Y0070515D03*
X0186078Y0070215D03*
X0186138Y0070035D03*
X0186138Y0069975D03*
X0186198Y0069915D03*
D24*
X0186018Y0070335D03*
X0186018Y0070395D03*
X0185718Y0071235D03*
X0185418Y0071895D03*
X0185418Y0071955D03*
X0185118Y0072675D03*
X0185118Y0072735D03*
X0184818Y0073395D03*
X0184218Y0074655D03*
X0184218Y0074715D03*
X0182718Y0073695D03*
X0183618Y0072375D03*
X0183618Y0072315D03*
X0185118Y0069495D03*
X0183318Y0076335D03*
X0182718Y0077235D03*
X0181818Y0078435D03*
X0181518Y0078795D03*
X0179718Y0077535D03*
X0180318Y0076815D03*
X0180918Y0076095D03*
X0181218Y0075675D03*
X0178518Y0078915D03*
X0198918Y0052995D03*
X0198918Y0052935D03*
X0200418Y0052935D03*
X0200118Y0051495D03*
X0196518Y0047595D03*
X0196518Y0047535D03*
X0192918Y0041595D03*
X0191418Y0039855D03*
X0191118Y0039495D03*
X0189918Y0038055D03*
X0189618Y0037755D03*
X0188418Y0036315D03*
X0188118Y0035955D03*
D25*
X0187098Y0036255D03*
X0187098Y0036375D03*
X0187098Y0036495D03*
X0187038Y0042975D03*
X0187038Y0043095D03*
X0187038Y0043215D03*
X0197238Y0049935D03*
X0198498Y0051135D03*
X0198498Y0051195D03*
X0191898Y0053775D03*
X0187338Y0059595D03*
X0187398Y0059655D03*
X0187638Y0059835D03*
X0187038Y0059355D03*
X0188298Y0060375D03*
X0189138Y0061095D03*
X0189498Y0061455D03*
X0190398Y0062475D03*
X0190698Y0066675D03*
X0190638Y0066915D03*
X0190338Y0067395D03*
X0189798Y0067995D03*
X0178638Y0063975D03*
X0178638Y0063915D03*
X0178398Y0063555D03*
X0177738Y0062595D03*
X0177438Y0061995D03*
X0177198Y0061515D03*
X0177138Y0061395D03*
X0176898Y0060795D03*
X0176598Y0059355D03*
X0176598Y0058755D03*
X0176598Y0058635D03*
X0176898Y0057075D03*
X0177198Y0056355D03*
X0177498Y0056055D03*
X0181638Y0056475D03*
X0178398Y0079095D03*
D26*
X0178188Y0079395D03*
X0178128Y0079455D03*
X0181488Y0078975D03*
X0181488Y0078855D03*
X0182028Y0069195D03*
X0181848Y0069135D03*
X0182748Y0069195D03*
X0183048Y0069135D03*
X0183408Y0069015D03*
X0184008Y0068895D03*
X0184248Y0069015D03*
X0184488Y0069135D03*
X0185328Y0068295D03*
X0185628Y0068355D03*
X0185748Y0068355D03*
X0185868Y0068355D03*
X0185988Y0068355D03*
X0186108Y0068355D03*
X0186288Y0068295D03*
X0186528Y0069375D03*
X0186588Y0069435D03*
X0187248Y0069255D03*
X0187308Y0069315D03*
X0187368Y0069255D03*
X0187488Y0069255D03*
X0187788Y0069195D03*
X0188148Y0069075D03*
X0188448Y0068895D03*
X0188688Y0068775D03*
X0188928Y0068655D03*
X0189288Y0068415D03*
X0189408Y0068295D03*
X0189768Y0068055D03*
X0189888Y0067935D03*
X0190008Y0067815D03*
X0190068Y0067755D03*
X0190128Y0067695D03*
X0190368Y0067335D03*
X0190428Y0067275D03*
X0190488Y0067215D03*
X0190488Y0067095D03*
X0190548Y0067035D03*
X0190608Y0066975D03*
X0190608Y0066855D03*
X0190668Y0066795D03*
X0190728Y0066735D03*
X0190728Y0066615D03*
X0190788Y0066495D03*
X0190788Y0066435D03*
X0190788Y0066315D03*
X0190848Y0066255D03*
X0190848Y0066135D03*
X0190848Y0066075D03*
X0190848Y0066015D03*
X0190848Y0065895D03*
X0190908Y0065835D03*
X0190848Y0065775D03*
X0190908Y0065715D03*
X0190848Y0065655D03*
X0190848Y0065535D03*
X0190848Y0065415D03*
X0190848Y0065355D03*
X0190848Y0065295D03*
X0190848Y0065175D03*
X0190908Y0065115D03*
X0190848Y0065055D03*
X0190728Y0063375D03*
X0190728Y0063255D03*
X0190728Y0063135D03*
X0190668Y0063075D03*
X0190668Y0062955D03*
X0190608Y0062895D03*
X0190608Y0062775D03*
X0190548Y0062715D03*
X0190488Y0062655D03*
X0190368Y0062415D03*
X0190308Y0062355D03*
X0190248Y0062295D03*
X0190128Y0062175D03*
X0190068Y0062055D03*
X0190008Y0061815D03*
X0189888Y0061815D03*
X0189648Y0061575D03*
X0189408Y0061335D03*
X0188808Y0060855D03*
X0188688Y0060735D03*
X0188448Y0060495D03*
X0187848Y0060015D03*
X0187788Y0059955D03*
X0187728Y0059895D03*
X0187248Y0059535D03*
X0187188Y0059475D03*
X0187128Y0059415D03*
X0186648Y0059055D03*
X0186588Y0058995D03*
X0186528Y0058935D03*
X0188508Y0057315D03*
X0188628Y0057315D03*
X0188748Y0057315D03*
X0189168Y0058455D03*
X0188988Y0055875D03*
X0188628Y0055875D03*
X0188868Y0055395D03*
X0188988Y0055395D03*
X0189108Y0055395D03*
X0189948Y0055875D03*
X0190068Y0055875D03*
X0190788Y0054075D03*
X0190248Y0053895D03*
X0190068Y0053835D03*
X0189528Y0053775D03*
X0189408Y0053775D03*
X0189288Y0053775D03*
X0188988Y0053355D03*
X0188688Y0053415D03*
X0188748Y0053835D03*
X0188268Y0053955D03*
X0188088Y0053775D03*
X0188148Y0053715D03*
X0188208Y0053655D03*
X0187968Y0053895D03*
X0187908Y0054015D03*
X0187848Y0054135D03*
X0188868Y0052995D03*
X0189048Y0052935D03*
X0189408Y0053175D03*
X0189468Y0053235D03*
X0189708Y0053115D03*
X0189768Y0053175D03*
X0189828Y0053115D03*
X0189888Y0053175D03*
X0189948Y0053115D03*
X0190008Y0053175D03*
X0190068Y0053115D03*
X0190128Y0053175D03*
X0190188Y0053115D03*
X0190248Y0053175D03*
X0190308Y0053115D03*
X0190308Y0052995D03*
X0190428Y0052995D03*
X0190428Y0053235D03*
X0190188Y0052995D03*
X0190068Y0052995D03*
X0189948Y0052995D03*
X0189828Y0052995D03*
X0189828Y0052875D03*
X0189528Y0052815D03*
X0190188Y0052635D03*
X0190668Y0052515D03*
X0190848Y0052455D03*
X0190968Y0052575D03*
X0191148Y0052515D03*
X0191628Y0052395D03*
X0191988Y0052275D03*
X0192408Y0051975D03*
X0192528Y0052095D03*
X0193668Y0051675D03*
X0194088Y0051375D03*
X0194208Y0051495D03*
X0194268Y0051315D03*
X0194628Y0051195D03*
X0195048Y0051015D03*
X0197268Y0049875D03*
X0198468Y0051075D03*
X0199848Y0050775D03*
X0200568Y0053115D03*
X0198948Y0053475D03*
X0199548Y0055275D03*
X0199668Y0055275D03*
X0199788Y0055275D03*
X0199908Y0055275D03*
X0200028Y0055275D03*
X0200148Y0055275D03*
X0200388Y0055995D03*
X0200448Y0056055D03*
X0200748Y0055875D03*
X0200208Y0057015D03*
X0199908Y0056955D03*
X0199488Y0056895D03*
X0199308Y0056835D03*
X0199188Y0056835D03*
X0199368Y0056175D03*
X0198948Y0057555D03*
X0199308Y0057675D03*
X0200148Y0058035D03*
X0200628Y0059355D03*
X0200448Y0060735D03*
X0199968Y0061215D03*
X0199788Y0061275D03*
X0199788Y0061995D03*
X0199908Y0061995D03*
X0200028Y0061995D03*
X0199968Y0062175D03*
X0199848Y0062175D03*
X0199728Y0062175D03*
X0199788Y0062475D03*
X0199668Y0062475D03*
X0200088Y0062535D03*
X0200208Y0062535D03*
X0200388Y0062235D03*
X0200508Y0062235D03*
X0200568Y0062055D03*
X0200448Y0062055D03*
X0200328Y0062055D03*
X0201228Y0061995D03*
X0201348Y0061995D03*
X0201348Y0062115D03*
X0201468Y0062115D03*
X0201468Y0061995D03*
X0201408Y0062295D03*
X0201288Y0062295D03*
X0201768Y0062175D03*
X0201888Y0062175D03*
X0202008Y0062175D03*
X0202128Y0062175D03*
X0202248Y0062175D03*
X0202368Y0062175D03*
X0202488Y0062055D03*
X0202608Y0062055D03*
X0202668Y0062235D03*
X0202248Y0062055D03*
X0202128Y0062055D03*
X0202188Y0063075D03*
X0201888Y0063135D03*
X0202128Y0064575D03*
X0202248Y0064575D03*
X0202548Y0065475D03*
X0201828Y0065475D03*
X0201648Y0065415D03*
X0200988Y0065355D03*
X0200868Y0065355D03*
X0200748Y0065355D03*
X0200808Y0065175D03*
X0200928Y0065175D03*
X0200688Y0065175D03*
X0200688Y0065055D03*
X0200568Y0065055D03*
X0200448Y0065055D03*
X0200268Y0065115D03*
X0200148Y0065115D03*
X0200028Y0065115D03*
X0200088Y0065295D03*
X0200208Y0065295D03*
X0200328Y0065295D03*
X0199968Y0065295D03*
X0199668Y0064995D03*
X0199548Y0064995D03*
X0199428Y0064995D03*
X0199128Y0065055D03*
X0199008Y0065055D03*
X0199008Y0064935D03*
X0198888Y0064935D03*
X0198888Y0065055D03*
X0198768Y0064935D03*
X0198828Y0065235D03*
X0198948Y0065235D03*
X0199068Y0065235D03*
X0199188Y0065235D03*
X0198468Y0064995D03*
X0198348Y0064995D03*
X0198228Y0064995D03*
X0198288Y0065175D03*
X0198408Y0065175D03*
X0198168Y0065175D03*
X0197988Y0064875D03*
X0197868Y0064875D03*
X0197748Y0064875D03*
X0197328Y0064935D03*
X0197208Y0064935D03*
X0197088Y0064935D03*
X0196968Y0064935D03*
X0197088Y0064815D03*
X0197208Y0064815D03*
X0197328Y0064815D03*
X0197268Y0065115D03*
X0197148Y0065115D03*
X0197028Y0065115D03*
X0196668Y0064875D03*
X0196548Y0064875D03*
X0197508Y0063915D03*
X0197628Y0063915D03*
X0197688Y0063735D03*
X0197808Y0063735D03*
X0198048Y0063975D03*
X0198168Y0063975D03*
X0198228Y0063795D03*
X0198348Y0063795D03*
X0198828Y0064035D03*
X0198948Y0064035D03*
X0199008Y0063855D03*
X0199128Y0063855D03*
X0199368Y0064095D03*
X0199488Y0064095D03*
X0199548Y0063915D03*
X0199668Y0063915D03*
X0200028Y0064155D03*
X0200148Y0064155D03*
X0200448Y0063975D03*
X0199008Y0062415D03*
X0198888Y0062415D03*
X0198948Y0062115D03*
X0199068Y0062115D03*
X0199128Y0061935D03*
X0199008Y0061935D03*
X0198888Y0061935D03*
X0198828Y0062115D03*
X0198528Y0062055D03*
X0198408Y0062055D03*
X0198288Y0062055D03*
X0198348Y0061875D03*
X0198468Y0061875D03*
X0198468Y0062355D03*
X0198348Y0062355D03*
X0195888Y0059295D03*
X0195588Y0059235D03*
X0195468Y0059235D03*
X0195048Y0059175D03*
X0194868Y0059115D03*
X0194568Y0059055D03*
X0193968Y0058935D03*
X0193788Y0058875D03*
X0193488Y0058815D03*
X0193308Y0058755D03*
X0193008Y0055215D03*
X0192948Y0055035D03*
X0192888Y0054975D03*
X0192828Y0054795D03*
X0192768Y0054735D03*
X0192708Y0054675D03*
X0192648Y0054615D03*
X0192648Y0054495D03*
X0192528Y0054375D03*
X0192468Y0054315D03*
X0192408Y0054255D03*
X0192348Y0054195D03*
X0192288Y0054135D03*
X0192228Y0054075D03*
X0192168Y0054015D03*
X0192108Y0053955D03*
X0192048Y0053895D03*
X0191688Y0053655D03*
X0191208Y0053175D03*
X0191028Y0053115D03*
X0190908Y0053235D03*
X0190848Y0053055D03*
X0191928Y0054975D03*
X0192048Y0055095D03*
X0192228Y0055035D03*
X0193128Y0054855D03*
X0193248Y0054855D03*
X0193368Y0054855D03*
X0193488Y0054855D03*
X0194028Y0054795D03*
X0194208Y0054735D03*
X0194508Y0054675D03*
X0198228Y0057435D03*
X0202008Y0057495D03*
X0203388Y0062415D03*
X0196068Y0070035D03*
X0195468Y0070275D03*
X0195048Y0070335D03*
X0194928Y0070335D03*
X0194508Y0070515D03*
X0194208Y0070575D03*
X0193908Y0070635D03*
X0193788Y0070635D03*
X0193668Y0070635D03*
X0193548Y0070635D03*
X0193248Y0070575D03*
X0192888Y0070455D03*
X0192708Y0070395D03*
X0184788Y0062235D03*
X0184248Y0062055D03*
X0184068Y0061995D03*
X0183768Y0061935D03*
X0183048Y0061935D03*
X0182148Y0062235D03*
X0182088Y0062295D03*
X0178608Y0063855D03*
X0178548Y0063795D03*
X0178488Y0063735D03*
X0178368Y0063615D03*
X0178368Y0063495D03*
X0178308Y0063435D03*
X0178248Y0063375D03*
X0178188Y0063315D03*
X0178128Y0063135D03*
X0178068Y0063075D03*
X0178008Y0063015D03*
X0177948Y0062955D03*
X0177948Y0062895D03*
X0177888Y0062775D03*
X0177828Y0062715D03*
X0177768Y0062655D03*
X0177708Y0062475D03*
X0177648Y0062415D03*
X0177588Y0062295D03*
X0177528Y0062175D03*
X0177468Y0062115D03*
X0177408Y0061935D03*
X0177348Y0061875D03*
X0177288Y0061695D03*
X0177228Y0061635D03*
X0177228Y0061575D03*
X0177168Y0061455D03*
X0177108Y0061275D03*
X0177048Y0061215D03*
X0177048Y0061095D03*
X0176988Y0061035D03*
X0176988Y0060975D03*
X0176988Y0060915D03*
X0176928Y0060855D03*
X0176928Y0060735D03*
X0176868Y0060675D03*
X0176868Y0060555D03*
X0176808Y0060495D03*
X0176808Y0060375D03*
X0176748Y0060315D03*
X0176748Y0060255D03*
X0176748Y0060195D03*
X0176688Y0060135D03*
X0176688Y0060015D03*
X0176688Y0059895D03*
X0176628Y0059835D03*
X0176628Y0059775D03*
X0176628Y0059715D03*
X0176628Y0059655D03*
X0176628Y0059595D03*
X0176568Y0059535D03*
X0176628Y0059475D03*
X0176568Y0059415D03*
X0176568Y0059295D03*
X0176568Y0059235D03*
X0176568Y0059175D03*
X0176568Y0059115D03*
X0176568Y0059055D03*
X0176568Y0058995D03*
X0176568Y0058935D03*
X0176568Y0058875D03*
X0176568Y0058815D03*
X0176568Y0058695D03*
X0176568Y0058575D03*
X0176628Y0058515D03*
X0176568Y0058455D03*
X0176628Y0058395D03*
X0176628Y0058275D03*
X0176628Y0058215D03*
X0176628Y0058155D03*
X0176628Y0058035D03*
X0176688Y0057975D03*
X0176688Y0057855D03*
X0176688Y0057735D03*
X0176748Y0057675D03*
X0176808Y0057615D03*
X0176808Y0057495D03*
X0176868Y0057435D03*
X0176868Y0057315D03*
X0176868Y0057255D03*
X0176868Y0057195D03*
X0176928Y0057135D03*
X0176928Y0057015D03*
X0176928Y0056955D03*
X0176928Y0056895D03*
X0176988Y0056835D03*
X0176988Y0056775D03*
X0176988Y0056715D03*
X0177048Y0056655D03*
X0177048Y0056535D03*
X0177108Y0056475D03*
X0177168Y0056415D03*
X0177588Y0055995D03*
X0177888Y0055815D03*
X0178008Y0055815D03*
X0178068Y0055755D03*
X0178128Y0055815D03*
X0178488Y0055695D03*
X0178548Y0055755D03*
X0178608Y0055695D03*
X0178668Y0055755D03*
X0178728Y0055695D03*
X0178788Y0055755D03*
X0178848Y0055695D03*
X0178908Y0055755D03*
X0178968Y0055695D03*
X0179028Y0055755D03*
X0179088Y0055695D03*
X0179148Y0055755D03*
X0179208Y0055695D03*
X0180168Y0056055D03*
X0180348Y0056115D03*
X0180648Y0056175D03*
X0180828Y0056235D03*
X0181248Y0056295D03*
X0181368Y0056295D03*
X0182208Y0056775D03*
X0182448Y0056895D03*
X0182568Y0057015D03*
X0182688Y0057015D03*
X0183168Y0057135D03*
X0183228Y0057075D03*
X0183348Y0057075D03*
X0183468Y0057195D03*
X0183828Y0057195D03*
X0183888Y0057255D03*
X0183948Y0057315D03*
X0184008Y0057255D03*
X0184128Y0057375D03*
X0183528Y0054975D03*
X0183408Y0054975D03*
X0183288Y0054975D03*
X0183168Y0054975D03*
X0183048Y0054975D03*
X0182928Y0054975D03*
X0182808Y0054975D03*
X0182688Y0054975D03*
X0182568Y0054975D03*
X0182448Y0054975D03*
X0182328Y0054975D03*
X0182208Y0054975D03*
X0182028Y0054915D03*
X0181968Y0054855D03*
X0180768Y0054375D03*
X0182088Y0051855D03*
X0181368Y0051015D03*
X0181248Y0051015D03*
X0181068Y0051075D03*
X0180168Y0051255D03*
X0179868Y0051195D03*
X0179748Y0051195D03*
X0179628Y0051195D03*
X0179508Y0051195D03*
X0179388Y0051195D03*
X0178728Y0051855D03*
X0182748Y0050835D03*
X0182868Y0050835D03*
X0182988Y0050835D03*
X0183168Y0049935D03*
X0183288Y0049935D03*
X0183408Y0049935D03*
X0183468Y0051675D03*
X0183768Y0052215D03*
X0183948Y0052275D03*
X0184068Y0052275D03*
X0184188Y0052275D03*
X0184308Y0052275D03*
X0184428Y0052275D03*
X0184548Y0052275D03*
X0184668Y0052275D03*
X0184788Y0052275D03*
X0184908Y0052275D03*
X0185028Y0052275D03*
X0185148Y0052275D03*
X0184668Y0052515D03*
X0184548Y0052515D03*
X0184428Y0052515D03*
X0184308Y0052515D03*
X0184188Y0052515D03*
X0184068Y0052515D03*
X0183948Y0052515D03*
X0183828Y0052515D03*
X0183708Y0052515D03*
X0183588Y0052515D03*
X0183468Y0052515D03*
X0183348Y0052515D03*
X0184968Y0051735D03*
X0188268Y0050595D03*
X0188748Y0050475D03*
X0190188Y0050115D03*
X0190668Y0049995D03*
X0190968Y0049935D03*
X0192768Y0049215D03*
X0190488Y0047415D03*
X0189468Y0047715D03*
X0189168Y0047775D03*
X0188988Y0047835D03*
X0188208Y0044775D03*
X0188628Y0044595D03*
X0188808Y0044535D03*
X0189228Y0044355D03*
X0189288Y0044175D03*
X0189408Y0044175D03*
X0189528Y0044175D03*
X0189168Y0043455D03*
X0189048Y0043455D03*
X0188928Y0043455D03*
X0188508Y0043395D03*
X0188388Y0043395D03*
X0188268Y0043395D03*
X0188148Y0043395D03*
X0188148Y0044115D03*
X0188268Y0044115D03*
X0188028Y0044115D03*
X0187908Y0044115D03*
X0187488Y0044055D03*
X0187368Y0044055D03*
X0187248Y0044055D03*
X0187728Y0042495D03*
X0187848Y0042495D03*
X0187968Y0042495D03*
X0188088Y0042495D03*
X0188508Y0042555D03*
X0188628Y0042555D03*
X0188748Y0042555D03*
X0188868Y0042555D03*
X0188868Y0041835D03*
X0188748Y0041835D03*
X0188628Y0041835D03*
X0189288Y0041895D03*
X0189408Y0041895D03*
X0189528Y0041895D03*
X0189768Y0042615D03*
X0189888Y0042615D03*
X0190008Y0042615D03*
X0190428Y0042675D03*
X0190548Y0042675D03*
X0190668Y0042675D03*
X0190788Y0042675D03*
X0191088Y0042015D03*
X0191208Y0042015D03*
X0191328Y0042015D03*
X0190668Y0041955D03*
X0190548Y0041955D03*
X0190428Y0041955D03*
X0190428Y0040995D03*
X0190308Y0040995D03*
X0190188Y0040995D03*
X0189768Y0040935D03*
X0189648Y0040935D03*
X0189528Y0040935D03*
X0189288Y0040215D03*
X0189168Y0040215D03*
X0188748Y0040155D03*
X0188628Y0040155D03*
X0188508Y0040155D03*
X0188508Y0040875D03*
X0188628Y0040875D03*
X0188748Y0040875D03*
X0188088Y0040815D03*
X0187968Y0040815D03*
X0187848Y0040815D03*
X0187728Y0040095D03*
X0187608Y0040095D03*
X0186828Y0040755D03*
X0186708Y0040755D03*
X0186828Y0041715D03*
X0187488Y0041775D03*
X0187608Y0041775D03*
X0187728Y0041775D03*
X0186828Y0042435D03*
X0186708Y0042435D03*
X0186588Y0042435D03*
X0186468Y0042435D03*
X0186828Y0038955D03*
X0186408Y0038895D03*
X0187488Y0038295D03*
X0187608Y0038295D03*
X0188268Y0038355D03*
X0188388Y0038355D03*
X0188688Y0038415D03*
X0188808Y0038415D03*
X0189468Y0038475D03*
X0189588Y0038475D03*
X0189888Y0038535D03*
X0190008Y0038535D03*
X0190668Y0038595D03*
X0190788Y0038595D03*
X0191088Y0038655D03*
X0191208Y0038655D03*
X0191688Y0039375D03*
X0191628Y0040395D03*
X0192168Y0040455D03*
X0192288Y0040455D03*
X0192408Y0040455D03*
X0192108Y0041115D03*
X0191988Y0041115D03*
X0191868Y0041115D03*
X0191448Y0041055D03*
X0191328Y0041055D03*
X0191208Y0041055D03*
X0190968Y0040335D03*
X0190848Y0040335D03*
X0190728Y0040335D03*
X0190308Y0040275D03*
X0190188Y0040275D03*
X0190068Y0040275D03*
X0190248Y0039255D03*
X0190368Y0039255D03*
X0190488Y0039255D03*
X0189588Y0039195D03*
X0189468Y0039195D03*
X0189168Y0039135D03*
X0189048Y0039135D03*
X0188928Y0039135D03*
X0188268Y0039075D03*
X0188148Y0039075D03*
X0187848Y0039015D03*
X0187728Y0039015D03*
X0187788Y0037395D03*
X0187668Y0037395D03*
X0187488Y0037335D03*
X0187368Y0037335D03*
X0186828Y0037275D03*
X0186528Y0037215D03*
X0186948Y0036555D03*
X0187788Y0036675D03*
X0187908Y0036675D03*
X0188088Y0036735D03*
X0188208Y0036735D03*
X0188328Y0037455D03*
X0188748Y0037515D03*
X0189288Y0037575D03*
X0189588Y0036915D03*
X0189888Y0036975D03*
X0190248Y0037695D03*
X0192888Y0041175D03*
X0193008Y0041175D03*
X0193128Y0041175D03*
X0193128Y0042135D03*
X0193008Y0042135D03*
X0192888Y0042135D03*
X0192468Y0042075D03*
X0192348Y0042075D03*
X0192228Y0042075D03*
X0192048Y0042735D03*
X0191928Y0042735D03*
X0191808Y0042735D03*
X0191688Y0042735D03*
X0192468Y0042795D03*
X0192588Y0042795D03*
X0192708Y0042795D03*
X0192828Y0042795D03*
X0194328Y0042735D03*
X0194448Y0042735D03*
X0194568Y0042735D03*
X0194688Y0042735D03*
X0194808Y0042735D03*
X0196008Y0044775D03*
X0191208Y0043575D03*
X0191088Y0043575D03*
X0190968Y0043575D03*
X0190548Y0043515D03*
X0190428Y0043515D03*
X0190308Y0043515D03*
X0190188Y0043515D03*
X0187788Y0055875D03*
D27*
X0188988Y0055155D03*
X0188628Y0057195D03*
X0187908Y0058155D03*
X0188688Y0058455D03*
X0188928Y0059055D03*
X0188988Y0060675D03*
X0186408Y0058575D03*
X0180648Y0056055D03*
X0182748Y0052515D03*
X0182748Y0052395D03*
X0182748Y0052275D03*
X0182748Y0052155D03*
X0182688Y0052095D03*
X0179688Y0051255D03*
X0187128Y0049335D03*
X0187248Y0049695D03*
X0186948Y0048435D03*
X0186888Y0048375D03*
X0188628Y0048195D03*
X0188688Y0048315D03*
X0188688Y0048375D03*
X0188748Y0048435D03*
X0188748Y0048555D03*
X0188808Y0048675D03*
X0188808Y0048735D03*
X0188868Y0048795D03*
X0188868Y0048915D03*
X0188928Y0048975D03*
X0188928Y0049095D03*
X0188988Y0049155D03*
X0188988Y0049275D03*
X0189048Y0049455D03*
X0189108Y0049515D03*
X0189108Y0049635D03*
X0189168Y0049695D03*
X0189168Y0049815D03*
X0189168Y0049935D03*
X0189228Y0049995D03*
X0189288Y0050055D03*
X0189288Y0050175D03*
X0196308Y0047835D03*
X0196668Y0046995D03*
X0196608Y0046935D03*
X0196548Y0046755D03*
X0196908Y0050355D03*
X0196968Y0050415D03*
X0198588Y0052635D03*
X0198588Y0052755D03*
X0200508Y0052095D03*
X0200508Y0052035D03*
X0200928Y0052455D03*
X0201168Y0052695D03*
X0201288Y0052815D03*
X0201348Y0052875D03*
X0201408Y0052935D03*
X0202008Y0053535D03*
X0202068Y0053595D03*
X0202128Y0053775D03*
X0202128Y0053895D03*
X0202188Y0053955D03*
X0202188Y0054075D03*
X0202188Y0054195D03*
X0202248Y0054255D03*
X0202248Y0054315D03*
X0202248Y0054375D03*
X0197988Y0055155D03*
X0197928Y0054975D03*
X0197928Y0054915D03*
X0197928Y0054855D03*
X0197868Y0054795D03*
X0197868Y0054675D03*
X0199608Y0059655D03*
X0199548Y0060195D03*
X0199548Y0060315D03*
X0193728Y0070575D03*
X0185808Y0068295D03*
X0178848Y0064695D03*
X0178788Y0064515D03*
X0186828Y0038235D03*
X0186888Y0036615D03*
D28*
X0187068Y0036675D03*
X0196188Y0048075D03*
X0196728Y0050775D03*
X0198468Y0056235D03*
X0201708Y0056835D03*
X0201768Y0056775D03*
X0201828Y0056715D03*
X0201948Y0056595D03*
X0202308Y0056355D03*
X0202368Y0056295D03*
X0202428Y0056235D03*
X0202128Y0054615D03*
X0199908Y0059355D03*
X0201948Y0060075D03*
X0201948Y0060135D03*
X0201948Y0060195D03*
X0202128Y0062295D03*
X0203088Y0063135D03*
X0203148Y0063195D03*
X0189648Y0059535D03*
X0189588Y0059595D03*
X0188868Y0058875D03*
X0188688Y0056895D03*
X0188748Y0056235D03*
X0186348Y0058335D03*
X0183348Y0061995D03*
X0179028Y0065115D03*
X0178968Y0065055D03*
X0180408Y0055935D03*
X0182628Y0052875D03*
X0184188Y0051675D03*
X0184068Y0051435D03*
X0183828Y0051075D03*
D29*
X0184068Y0052635D03*
X0184128Y0053295D03*
X0184068Y0053355D03*
X0184008Y0053415D03*
X0183948Y0053475D03*
X0183828Y0053715D03*
X0183768Y0053775D03*
X0187488Y0055455D03*
X0187788Y0055155D03*
X0188748Y0056355D03*
X0188748Y0056475D03*
X0188748Y0056595D03*
X0186348Y0058275D03*
X0186288Y0058215D03*
X0183408Y0062055D03*
X0179088Y0065415D03*
X0185868Y0068235D03*
X0180228Y0055875D03*
X0179568Y0053175D03*
X0179808Y0051375D03*
X0188988Y0052755D03*
X0193668Y0054675D03*
X0198648Y0056895D03*
X0201648Y0059415D03*
X0201708Y0059475D03*
X0202188Y0062355D03*
X0202008Y0054735D03*
X0196068Y0048195D03*
X0187248Y0036735D03*
D30*
X0187548Y0036795D03*
X0182748Y0050235D03*
X0181848Y0053775D03*
X0182748Y0054675D03*
X0189288Y0054015D03*
X0196188Y0051195D03*
X0201348Y0058035D03*
X0201888Y0060735D03*
X0202188Y0062595D03*
X0202188Y0065115D03*
X0180948Y0067515D03*
X0180888Y0067455D03*
X0180648Y0067215D03*
X0180588Y0067155D03*
D31*
X0181968Y0068355D03*
X0182028Y0068415D03*
X0182088Y0068475D03*
X0182148Y0068535D03*
X0185808Y0067995D03*
X0186288Y0056835D03*
X0182868Y0054255D03*
X0180228Y0054015D03*
X0180228Y0053895D03*
X0182928Y0050775D03*
X0182928Y0050715D03*
X0187668Y0048015D03*
X0187728Y0048075D03*
X0187608Y0047835D03*
X0189288Y0052515D03*
X0194028Y0054255D03*
X0196008Y0051315D03*
X0200328Y0057555D03*
X0200748Y0058455D03*
X0200808Y0058515D03*
X0200808Y0058575D03*
X0200868Y0058695D03*
X0200808Y0058755D03*
X0200868Y0059295D03*
X0202188Y0062775D03*
X0202068Y0065055D03*
X0201708Y0065295D03*
X0198648Y0065115D03*
X0193908Y0043095D03*
X0187788Y0036855D03*
D32*
X0187968Y0036915D03*
X0195408Y0048435D03*
X0195468Y0048735D03*
X0194088Y0054075D03*
X0191748Y0055815D03*
X0191808Y0055935D03*
X0191868Y0056055D03*
X0189528Y0052395D03*
X0185928Y0057315D03*
X0183528Y0062355D03*
X0185748Y0067815D03*
X0194028Y0070215D03*
X0201648Y0061275D03*
X0201588Y0061215D03*
X0199308Y0055815D03*
X0180048Y0052035D03*
X0179928Y0052275D03*
X0179928Y0052395D03*
X0179868Y0052455D03*
X0179928Y0052515D03*
D33*
X0187908Y0047655D03*
X0192528Y0042675D03*
X0195408Y0048795D03*
X0195348Y0048855D03*
X0191868Y0056295D03*
X0191748Y0056895D03*
X0191808Y0056955D03*
X0185748Y0067695D03*
X0188148Y0036975D03*
D34*
X0188208Y0037035D03*
X0188208Y0037155D03*
X0189708Y0039015D03*
X0188208Y0040275D03*
X0195288Y0048915D03*
X0191448Y0055515D03*
X0191448Y0055635D03*
X0191808Y0056595D03*
X0191748Y0056655D03*
X0191808Y0056715D03*
X0191388Y0057375D03*
X0189408Y0054315D03*
X0183588Y0062535D03*
X0201288Y0061035D03*
X0201348Y0061095D03*
X0201288Y0060795D03*
D35*
X0200028Y0057435D03*
X0199428Y0055755D03*
X0195468Y0051675D03*
X0189408Y0054255D03*
X0186168Y0057495D03*
X0186228Y0057555D03*
X0180108Y0052875D03*
X0188328Y0037215D03*
X0188208Y0037095D03*
X0194028Y0070155D03*
D36*
X0183528Y0062415D03*
X0191628Y0057315D03*
X0191688Y0057255D03*
X0191748Y0057135D03*
X0191748Y0057075D03*
X0191808Y0057015D03*
X0191868Y0056115D03*
X0191748Y0055875D03*
X0194088Y0054015D03*
X0195588Y0051555D03*
X0193668Y0043275D03*
X0191448Y0040935D03*
X0188508Y0037275D03*
X0179988Y0052755D03*
X0180048Y0052815D03*
X0200988Y0058275D03*
D37*
X0200838Y0058815D03*
X0200838Y0058875D03*
X0193998Y0054315D03*
X0186198Y0057735D03*
X0182898Y0050655D03*
X0187638Y0047955D03*
X0187638Y0047895D03*
X0193938Y0043035D03*
X0188838Y0037335D03*
X0181638Y0068115D03*
D38*
X0181158Y0067695D03*
X0185778Y0068055D03*
X0192018Y0064215D03*
X0202038Y0061515D03*
X0202038Y0061455D03*
X0202098Y0061635D03*
X0202098Y0061695D03*
X0202158Y0061875D03*
X0202158Y0061935D03*
X0182778Y0054555D03*
X0182778Y0054495D03*
X0182838Y0050415D03*
X0189018Y0037395D03*
D39*
X0189288Y0037455D03*
X0187308Y0038355D03*
X0184308Y0051795D03*
X0184308Y0051855D03*
X0184308Y0051915D03*
X0184308Y0051975D03*
X0184308Y0052035D03*
X0184308Y0052095D03*
X0184308Y0053235D03*
X0181788Y0051435D03*
X0181788Y0051195D03*
X0179808Y0053775D03*
X0180108Y0055755D03*
X0186588Y0056235D03*
X0187188Y0055755D03*
X0187248Y0055695D03*
X0187308Y0055635D03*
X0186288Y0058095D03*
X0189048Y0052695D03*
X0201228Y0057015D03*
X0201888Y0054855D03*
X0201948Y0054795D03*
X0202428Y0061995D03*
X0185808Y0068175D03*
X0182448Y0069015D03*
X0179388Y0065835D03*
X0179328Y0065775D03*
D40*
X0179088Y0065235D03*
X0179028Y0065175D03*
X0186828Y0055935D03*
X0186888Y0055875D03*
X0186948Y0055815D03*
X0187548Y0055335D03*
X0187608Y0055275D03*
X0187668Y0055215D03*
X0188748Y0056295D03*
X0188748Y0056415D03*
X0188688Y0056835D03*
X0189228Y0053895D03*
X0183948Y0053535D03*
X0183828Y0053655D03*
X0179808Y0051315D03*
X0187128Y0048195D03*
X0196608Y0050835D03*
X0201888Y0059655D03*
X0201888Y0059715D03*
X0201948Y0059775D03*
X0201948Y0059835D03*
X0201948Y0059895D03*
X0201408Y0063075D03*
X0202968Y0063075D03*
X0193728Y0070515D03*
X0189528Y0037515D03*
D41*
X0189798Y0037575D03*
X0189138Y0049755D03*
X0189198Y0049875D03*
X0189258Y0050115D03*
X0187578Y0050655D03*
X0187458Y0050415D03*
X0187458Y0050295D03*
X0187398Y0050235D03*
X0187398Y0050175D03*
X0187338Y0050055D03*
X0187278Y0049875D03*
X0187278Y0049815D03*
X0187158Y0049515D03*
X0188838Y0052875D03*
X0188958Y0059115D03*
X0189438Y0060015D03*
X0198378Y0056715D03*
X0199578Y0059715D03*
X0199638Y0060495D03*
X0199878Y0060675D03*
X0199938Y0060735D03*
X0201678Y0053175D03*
X0201558Y0053055D03*
X0201198Y0052755D03*
X0201078Y0052635D03*
X0198558Y0052815D03*
D42*
X0198618Y0052335D03*
X0196578Y0047355D03*
X0196578Y0047295D03*
X0200598Y0056655D03*
X0188598Y0059655D03*
X0188478Y0059835D03*
X0187098Y0059055D03*
X0187458Y0058575D03*
X0187638Y0058335D03*
X0190038Y0037635D03*
D43*
X0186948Y0038295D03*
X0186828Y0048495D03*
X0186888Y0048555D03*
X0186888Y0048615D03*
X0186888Y0048675D03*
X0186948Y0048735D03*
X0186948Y0048795D03*
X0186948Y0048855D03*
X0187008Y0048915D03*
X0187008Y0048975D03*
X0187008Y0049035D03*
X0187068Y0049095D03*
X0187068Y0049155D03*
X0187068Y0049215D03*
X0187128Y0049275D03*
X0187128Y0049395D03*
X0187188Y0049455D03*
X0187188Y0049575D03*
X0187248Y0049635D03*
X0187248Y0049755D03*
X0187308Y0049935D03*
X0187368Y0049995D03*
X0187368Y0050115D03*
X0187488Y0050355D03*
X0187488Y0050475D03*
X0188808Y0055995D03*
X0188628Y0057135D03*
X0188928Y0058995D03*
X0189708Y0059655D03*
X0189588Y0059775D03*
X0189528Y0059895D03*
X0189408Y0060075D03*
X0189348Y0060135D03*
X0189288Y0060195D03*
X0189228Y0060255D03*
X0189168Y0060315D03*
X0189108Y0060375D03*
X0189048Y0060495D03*
X0188988Y0060615D03*
X0186408Y0058515D03*
X0182748Y0052575D03*
X0182688Y0052035D03*
X0182748Y0051975D03*
X0193488Y0054795D03*
X0196848Y0050475D03*
X0196308Y0047895D03*
X0200568Y0052155D03*
X0200628Y0052215D03*
X0200928Y0052515D03*
X0201528Y0052995D03*
X0201648Y0053115D03*
X0201768Y0053235D03*
X0201828Y0053295D03*
X0201888Y0053355D03*
X0201948Y0053415D03*
X0202008Y0053475D03*
X0202248Y0054435D03*
X0202188Y0054495D03*
X0202668Y0055935D03*
X0198348Y0056295D03*
X0198348Y0056415D03*
X0198348Y0056535D03*
X0198348Y0056595D03*
X0198348Y0056655D03*
X0198348Y0056775D03*
X0199668Y0059535D03*
X0199608Y0059595D03*
X0199548Y0060375D03*
X0199608Y0060435D03*
X0200988Y0063615D03*
X0200988Y0063975D03*
X0200988Y0064035D03*
X0200988Y0064095D03*
X0202188Y0065415D03*
X0203388Y0063975D03*
X0203388Y0063855D03*
X0203388Y0063735D03*
X0178848Y0064755D03*
D44*
X0180198Y0066795D03*
X0180318Y0066915D03*
X0180378Y0066975D03*
X0180438Y0067035D03*
X0180498Y0067095D03*
X0186258Y0057915D03*
X0186558Y0056475D03*
X0182778Y0054615D03*
X0187458Y0041835D03*
X0187518Y0038415D03*
X0199038Y0057015D03*
D45*
X0199188Y0055875D03*
X0201048Y0058215D03*
X0200928Y0058335D03*
X0199908Y0063795D03*
X0194088Y0054135D03*
X0190908Y0055155D03*
X0189408Y0054135D03*
X0185928Y0057255D03*
X0179928Y0052215D03*
X0180048Y0051975D03*
X0180108Y0051915D03*
X0193728Y0043215D03*
X0187908Y0038475D03*
D46*
X0188118Y0038535D03*
X0189378Y0054195D03*
X0194118Y0053955D03*
X0183498Y0062475D03*
D47*
X0183648Y0062775D03*
X0185688Y0067335D03*
X0194148Y0069915D03*
X0191628Y0058875D03*
X0191148Y0058755D03*
X0190008Y0052095D03*
X0181008Y0051615D03*
X0180948Y0051555D03*
X0188508Y0038595D03*
X0199728Y0055575D03*
X0200028Y0057075D03*
D48*
X0189198Y0038955D03*
X0188718Y0038655D03*
D49*
X0188868Y0038715D03*
X0190248Y0051855D03*
X0189588Y0055035D03*
X0189528Y0055095D03*
X0190668Y0058275D03*
X0190608Y0058335D03*
X0190668Y0058395D03*
X0193968Y0053295D03*
X0183888Y0063255D03*
X0183828Y0063195D03*
X0185568Y0066855D03*
X0194148Y0069555D03*
X0194208Y0069495D03*
D50*
X0194208Y0069435D03*
X0185508Y0066735D03*
X0183948Y0063375D03*
X0191988Y0059055D03*
X0188928Y0038835D03*
X0188868Y0038775D03*
D51*
X0188958Y0038895D03*
D52*
X0189978Y0039075D03*
X0193638Y0043335D03*
X0195558Y0051615D03*
X0191898Y0056235D03*
X0185778Y0067755D03*
D53*
X0182508Y0068895D03*
X0181548Y0068055D03*
X0181488Y0067995D03*
X0181428Y0067935D03*
X0181308Y0067815D03*
X0186228Y0057855D03*
X0182808Y0054435D03*
X0181728Y0053235D03*
X0180228Y0054255D03*
X0182808Y0050355D03*
X0189228Y0052575D03*
X0194028Y0042975D03*
X0190428Y0039135D03*
X0200388Y0057615D03*
X0201288Y0057915D03*
X0202008Y0061395D03*
X0202128Y0061755D03*
X0202188Y0062655D03*
X0191988Y0063735D03*
D54*
X0193788Y0070395D03*
X0201588Y0062235D03*
X0202188Y0062475D03*
X0202008Y0060615D03*
X0196308Y0051075D03*
X0189108Y0052635D03*
X0186588Y0056355D03*
X0186288Y0057975D03*
X0181908Y0053595D03*
X0181908Y0053535D03*
X0181908Y0053475D03*
X0181908Y0053355D03*
X0181848Y0053295D03*
X0179628Y0066195D03*
X0179688Y0066255D03*
X0179748Y0066315D03*
X0179808Y0066375D03*
X0179928Y0066495D03*
X0180048Y0066615D03*
X0187428Y0040155D03*
X0190668Y0039195D03*
D55*
X0191148Y0039255D03*
X0191328Y0047595D03*
X0191328Y0047715D03*
X0191388Y0047775D03*
X0191448Y0047955D03*
X0191448Y0048075D03*
X0191508Y0048135D03*
X0191628Y0048495D03*
X0191688Y0048675D03*
X0191808Y0049035D03*
X0196188Y0048015D03*
X0196788Y0050655D03*
X0196728Y0050715D03*
X0193548Y0054735D03*
X0189408Y0053835D03*
X0188808Y0056115D03*
X0188688Y0057075D03*
X0186408Y0058395D03*
X0184188Y0051615D03*
X0183948Y0051255D03*
X0183708Y0050895D03*
X0178908Y0064935D03*
X0185928Y0069435D03*
X0199788Y0059415D03*
X0198528Y0056835D03*
X0202188Y0056415D03*
X0202488Y0056175D03*
X0202128Y0054555D03*
X0203208Y0064395D03*
X0203148Y0064455D03*
D56*
X0203268Y0064275D03*
X0203328Y0064215D03*
X0203328Y0064155D03*
X0203328Y0064095D03*
X0203328Y0063495D03*
X0203268Y0063435D03*
X0203268Y0063375D03*
X0203208Y0063255D03*
X0202608Y0056055D03*
X0202608Y0055755D03*
X0200628Y0052275D03*
X0194328Y0048135D03*
X0194328Y0048015D03*
X0194268Y0047955D03*
X0194268Y0047895D03*
X0194268Y0047835D03*
X0194208Y0047775D03*
X0194208Y0047715D03*
X0194208Y0047655D03*
X0194028Y0047235D03*
X0194028Y0047115D03*
X0193968Y0047055D03*
X0193968Y0046935D03*
X0193908Y0046875D03*
X0193908Y0046755D03*
X0191808Y0049095D03*
X0188928Y0052815D03*
X0188808Y0056055D03*
X0186408Y0058455D03*
X0189108Y0060435D03*
X0178908Y0064875D03*
X0187008Y0048255D03*
X0191268Y0039315D03*
D57*
X0192738Y0041115D03*
X0186978Y0040095D03*
X0191358Y0047655D03*
X0191418Y0047835D03*
X0191418Y0047895D03*
X0191478Y0048015D03*
X0191538Y0048195D03*
X0191538Y0048255D03*
X0191598Y0048375D03*
X0191658Y0048555D03*
X0191658Y0048615D03*
X0191718Y0048735D03*
X0191718Y0048795D03*
X0191718Y0048855D03*
X0191778Y0048915D03*
X0191778Y0048975D03*
X0191838Y0049155D03*
X0191838Y0049215D03*
X0191898Y0049275D03*
X0191898Y0049335D03*
X0194298Y0048075D03*
X0193998Y0046995D03*
X0193938Y0046815D03*
X0193878Y0046635D03*
X0193818Y0046515D03*
X0200718Y0052395D03*
X0201978Y0056535D03*
X0203238Y0063315D03*
X0203238Y0064335D03*
X0182718Y0051915D03*
X0182118Y0051075D03*
X0182118Y0051015D03*
X0182118Y0050895D03*
X0180498Y0055995D03*
D58*
X0182898Y0054195D03*
X0182898Y0054135D03*
X0182538Y0068775D03*
X0200838Y0058635D03*
X0201078Y0057795D03*
X0187758Y0040215D03*
D59*
X0188508Y0040335D03*
X0190968Y0040875D03*
X0188748Y0043575D03*
X0188268Y0047415D03*
X0194988Y0049215D03*
X0195048Y0049155D03*
X0189468Y0054615D03*
X0191748Y0058935D03*
X0195348Y0063735D03*
X0194148Y0069855D03*
X0185688Y0067275D03*
X0183648Y0062835D03*
X0181008Y0051675D03*
D60*
X0193908Y0053235D03*
X0194448Y0052335D03*
X0191508Y0042555D03*
X0188988Y0040395D03*
X0184008Y0063495D03*
X0185448Y0066615D03*
X0185508Y0066675D03*
X0194208Y0069375D03*
D61*
X0194268Y0068895D03*
X0194268Y0068775D03*
X0193848Y0065115D03*
X0193788Y0065055D03*
X0185268Y0065895D03*
X0185268Y0065955D03*
X0184368Y0064155D03*
X0184308Y0064095D03*
X0190548Y0051615D03*
X0194088Y0052515D03*
X0188928Y0047235D03*
X0188868Y0047055D03*
X0188808Y0046995D03*
X0188868Y0046935D03*
X0189228Y0040455D03*
D62*
X0189528Y0040515D03*
X0192468Y0044355D03*
X0189108Y0046755D03*
X0190788Y0051435D03*
X0193428Y0050115D03*
X0194208Y0066375D03*
X0194208Y0066435D03*
X0194208Y0066495D03*
X0194268Y0066555D03*
X0194268Y0066675D03*
X0194268Y0066735D03*
X0194268Y0066795D03*
X0194268Y0066855D03*
X0194268Y0066915D03*
X0194268Y0067035D03*
X0194328Y0067095D03*
X0194268Y0067155D03*
X0194328Y0067215D03*
X0194268Y0067275D03*
X0194328Y0067335D03*
X0194268Y0067395D03*
X0194328Y0067455D03*
D63*
X0190818Y0051375D03*
X0189558Y0040575D03*
D64*
X0189588Y0040635D03*
X0189588Y0040695D03*
X0189588Y0042135D03*
X0191748Y0059175D03*
D65*
X0193488Y0059535D03*
X0194028Y0065595D03*
X0194028Y0065715D03*
X0194088Y0065775D03*
X0194088Y0065895D03*
X0194268Y0068235D03*
X0194268Y0068295D03*
X0194268Y0068355D03*
X0194268Y0068475D03*
X0185028Y0065355D03*
X0184908Y0065115D03*
X0184788Y0064875D03*
X0190728Y0051495D03*
X0193608Y0050055D03*
X0193788Y0052635D03*
X0192528Y0044295D03*
X0189948Y0040755D03*
D66*
X0190548Y0040815D03*
X0194628Y0052215D03*
X0189528Y0054915D03*
X0191928Y0058995D03*
X0195588Y0062295D03*
X0183828Y0063135D03*
D67*
X0183528Y0062295D03*
X0185808Y0067935D03*
X0182388Y0068715D03*
X0182328Y0068655D03*
X0182268Y0068595D03*
X0182928Y0054075D03*
X0182928Y0054015D03*
X0181848Y0053055D03*
X0183648Y0052695D03*
X0189408Y0052455D03*
X0189348Y0054075D03*
X0195888Y0051375D03*
X0199128Y0055935D03*
X0201588Y0055275D03*
X0201108Y0058155D03*
X0202188Y0062835D03*
X0191868Y0040995D03*
D68*
X0192378Y0041055D03*
X0196458Y0051015D03*
X0202098Y0060315D03*
X0184338Y0053175D03*
X0184338Y0053115D03*
X0184338Y0053055D03*
X0181758Y0051315D03*
X0179838Y0051435D03*
X0179958Y0054915D03*
D69*
X0181878Y0056595D03*
X0177318Y0056175D03*
X0177258Y0056235D03*
X0177078Y0056595D03*
X0176778Y0057555D03*
X0176718Y0057795D03*
X0176658Y0057915D03*
X0176658Y0059955D03*
X0176718Y0060075D03*
X0176778Y0060435D03*
X0177018Y0061155D03*
X0177318Y0061755D03*
X0177558Y0062235D03*
X0177618Y0062355D03*
X0177918Y0062835D03*
X0178458Y0063675D03*
X0187578Y0059775D03*
X0188358Y0060435D03*
X0189258Y0061215D03*
X0189318Y0061275D03*
X0189558Y0061515D03*
X0189678Y0061635D03*
X0189978Y0061935D03*
X0190218Y0062235D03*
X0190458Y0062595D03*
X0190578Y0062835D03*
X0190878Y0065235D03*
X0190878Y0065475D03*
X0190878Y0065595D03*
X0190878Y0065955D03*
X0190818Y0066195D03*
X0190758Y0066555D03*
X0190278Y0067455D03*
X0190218Y0067575D03*
X0189918Y0067875D03*
X0189618Y0068175D03*
X0187818Y0057855D03*
X0187878Y0057735D03*
X0187878Y0054075D03*
X0188058Y0053835D03*
X0188418Y0053535D03*
X0191958Y0053835D03*
X0192558Y0054435D03*
X0192678Y0054555D03*
X0192858Y0054915D03*
X0192978Y0055155D03*
X0198978Y0053415D03*
X0195018Y0042675D03*
X0193278Y0041175D03*
X0179778Y0077415D03*
D70*
X0182958Y0073395D03*
X0187878Y0057915D03*
X0192858Y0055335D03*
X0198618Y0052095D03*
X0198618Y0052035D03*
X0186558Y0041715D03*
X0180918Y0056175D03*
D71*
X0182688Y0051855D03*
X0182088Y0051135D03*
X0182148Y0050955D03*
X0182148Y0050835D03*
X0186888Y0041775D03*
X0193788Y0046395D03*
X0193848Y0046455D03*
X0193848Y0046575D03*
X0194088Y0047295D03*
X0194088Y0047355D03*
X0194088Y0047415D03*
X0194148Y0047475D03*
X0194148Y0047535D03*
X0194148Y0047595D03*
X0194388Y0048195D03*
X0194388Y0048315D03*
X0196248Y0047955D03*
X0196848Y0050535D03*
X0196788Y0050595D03*
X0200688Y0052335D03*
X0202548Y0055635D03*
X0203388Y0063795D03*
X0203388Y0063915D03*
X0189588Y0059715D03*
X0188988Y0060555D03*
X0182448Y0069135D03*
D72*
X0182988Y0053895D03*
X0183648Y0052755D03*
X0191088Y0055275D03*
X0191148Y0055455D03*
X0200988Y0057735D03*
X0202188Y0062895D03*
X0202188Y0063015D03*
X0193848Y0043155D03*
X0187788Y0041895D03*
D73*
X0188328Y0041955D03*
X0192108Y0042615D03*
X0193308Y0043575D03*
X0195108Y0049095D03*
X0200028Y0057135D03*
X0199968Y0057195D03*
D74*
X0190788Y0058155D03*
X0194148Y0069675D03*
X0188688Y0042015D03*
D75*
X0189228Y0042075D03*
X0194328Y0049455D03*
X0194328Y0049515D03*
X0194328Y0049575D03*
X0194028Y0049875D03*
X0193968Y0052575D03*
X0193368Y0059415D03*
X0193908Y0065235D03*
X0194268Y0068715D03*
X0185208Y0065775D03*
X0184428Y0064275D03*
D76*
X0193728Y0060255D03*
X0194328Y0062055D03*
X0194328Y0062115D03*
X0194328Y0062175D03*
X0194328Y0062235D03*
X0194508Y0064995D03*
X0196848Y0064215D03*
X0192588Y0050415D03*
X0190008Y0042255D03*
X0189948Y0042195D03*
D77*
X0190038Y0042315D03*
X0189498Y0046395D03*
X0191238Y0051015D03*
D78*
X0191208Y0051075D03*
X0192348Y0050535D03*
X0192648Y0050355D03*
X0190068Y0042375D03*
X0193728Y0060315D03*
D79*
X0191058Y0051195D03*
X0192198Y0044595D03*
X0190398Y0042435D03*
D80*
X0191058Y0042495D03*
X0194358Y0049635D03*
X0193938Y0049935D03*
X0193818Y0065175D03*
X0193878Y0065295D03*
X0194238Y0068835D03*
X0185238Y0065835D03*
X0184398Y0064215D03*
D81*
X0185808Y0068115D03*
X0180048Y0066675D03*
X0186588Y0056415D03*
X0189408Y0053955D03*
X0193908Y0054495D03*
X0198828Y0056055D03*
X0201768Y0055035D03*
X0201348Y0057975D03*
X0200208Y0062115D03*
X0202188Y0062535D03*
X0199548Y0065175D03*
X0197748Y0065055D03*
X0181848Y0053715D03*
X0182748Y0050175D03*
X0182748Y0050115D03*
X0193188Y0042735D03*
X0194088Y0042915D03*
D82*
X0194028Y0042795D03*
X0187728Y0043455D03*
X0182808Y0050295D03*
X0186528Y0056535D03*
X0193908Y0054435D03*
X0201768Y0055095D03*
X0202128Y0061815D03*
X0200328Y0063855D03*
X0191928Y0063135D03*
X0191928Y0063015D03*
X0193728Y0070335D03*
X0182508Y0068955D03*
X0181008Y0067575D03*
X0180828Y0067395D03*
X0180768Y0067335D03*
X0180708Y0067275D03*
D83*
X0179508Y0066015D03*
X0179448Y0065955D03*
X0186288Y0058035D03*
X0186588Y0056295D03*
X0184248Y0052995D03*
X0184248Y0052935D03*
X0184248Y0052875D03*
X0182808Y0054795D03*
X0189468Y0059295D03*
X0189408Y0059475D03*
X0193848Y0054555D03*
X0198528Y0055275D03*
X0198768Y0056115D03*
X0198888Y0056955D03*
X0201288Y0056955D03*
X0201288Y0056895D03*
X0202008Y0060555D03*
X0202008Y0065355D03*
X0195948Y0048375D03*
X0194148Y0042855D03*
D84*
X0187338Y0043395D03*
X0184158Y0051735D03*
X0184038Y0052575D03*
X0186798Y0055995D03*
X0186738Y0056055D03*
X0196578Y0050895D03*
X0198558Y0056175D03*
X0202038Y0054675D03*
X0201798Y0059535D03*
X0201858Y0059595D03*
X0179058Y0065295D03*
D85*
X0185718Y0067575D03*
X0185718Y0067635D03*
X0191838Y0056475D03*
X0195378Y0051735D03*
X0199518Y0055695D03*
X0201318Y0061155D03*
X0193518Y0043395D03*
D86*
X0193488Y0043455D03*
X0188028Y0047595D03*
X0189408Y0054375D03*
X0191808Y0056535D03*
X0191328Y0057435D03*
X0191328Y0057495D03*
X0191268Y0057555D03*
X0191208Y0057615D03*
X0191208Y0057675D03*
X0191208Y0057735D03*
X0191268Y0057795D03*
X0191208Y0057855D03*
X0194148Y0053835D03*
X0199968Y0057375D03*
X0201588Y0064995D03*
X0194088Y0070095D03*
X0186108Y0057435D03*
X0186048Y0057375D03*
D87*
X0191418Y0055575D03*
X0191478Y0055695D03*
X0191538Y0055755D03*
X0191838Y0056355D03*
X0191778Y0056775D03*
X0201318Y0060915D03*
X0201318Y0060975D03*
X0188358Y0043515D03*
D88*
X0193428Y0043515D03*
X0195168Y0051855D03*
X0194088Y0053655D03*
X0191088Y0057975D03*
X0191148Y0058515D03*
X0191088Y0058695D03*
X0199968Y0057255D03*
X0199668Y0055635D03*
X0185688Y0067455D03*
X0194088Y0069975D03*
D89*
X0190998Y0043695D03*
X0190998Y0043635D03*
D90*
X0190968Y0043755D03*
X0191028Y0043815D03*
X0191028Y0043935D03*
X0191328Y0045195D03*
X0195168Y0062475D03*
D91*
X0191028Y0043995D03*
X0191028Y0043875D03*
D92*
X0191538Y0044055D03*
D93*
X0191928Y0044115D03*
X0192108Y0044655D03*
X0191148Y0051135D03*
X0193728Y0060195D03*
X0194388Y0063975D03*
D94*
X0193908Y0064935D03*
X0194028Y0065655D03*
X0185088Y0065475D03*
X0185028Y0065415D03*
X0185028Y0065295D03*
X0184728Y0064755D03*
X0184608Y0064515D03*
X0188928Y0046875D03*
X0192588Y0044175D03*
D95*
X0192558Y0044235D03*
X0193758Y0049995D03*
X0193998Y0065535D03*
X0184998Y0065235D03*
X0184938Y0065175D03*
X0184878Y0065055D03*
X0184878Y0064995D03*
X0184818Y0064935D03*
X0184758Y0064815D03*
X0184638Y0064635D03*
D96*
X0193578Y0059715D03*
X0192378Y0044415D03*
D97*
X0192318Y0044475D03*
D98*
X0192288Y0044535D03*
X0189288Y0046575D03*
X0190968Y0051255D03*
X0193308Y0052875D03*
D99*
X0192648Y0050295D03*
X0192108Y0044715D03*
X0192348Y0059355D03*
X0193728Y0060495D03*
X0193788Y0060435D03*
D100*
X0193728Y0060555D03*
X0192168Y0050595D03*
X0192108Y0044775D03*
D101*
X0192108Y0044835D03*
X0191568Y0050775D03*
X0191508Y0050835D03*
D102*
X0192078Y0044895D03*
D103*
X0192018Y0044955D03*
X0190218Y0045855D03*
X0189978Y0046155D03*
X0189978Y0046215D03*
D104*
X0190788Y0045555D03*
X0191148Y0045315D03*
X0191928Y0045015D03*
X0197448Y0063135D03*
D105*
X0191628Y0045075D03*
D106*
X0191598Y0045135D03*
D107*
X0196068Y0045195D03*
X0202068Y0057555D03*
X0187668Y0058275D03*
X0187368Y0058695D03*
X0182868Y0057075D03*
D108*
X0190578Y0045675D03*
X0191238Y0045255D03*
D109*
X0196098Y0045255D03*
X0196098Y0045315D03*
X0196158Y0045495D03*
X0196158Y0045555D03*
X0196218Y0045675D03*
X0196218Y0045735D03*
X0196278Y0045855D03*
X0196278Y0045915D03*
X0196398Y0046215D03*
X0196578Y0047235D03*
X0196398Y0047775D03*
X0200298Y0051795D03*
X0198438Y0052875D03*
X0198378Y0053055D03*
X0198318Y0053175D03*
X0198258Y0053355D03*
X0198258Y0053415D03*
X0198198Y0053475D03*
X0198198Y0053535D03*
X0198138Y0053655D03*
X0198138Y0053715D03*
X0198078Y0053835D03*
X0198018Y0054015D03*
X0198018Y0054075D03*
X0197958Y0054135D03*
X0197958Y0054195D03*
X0197898Y0054375D03*
X0197838Y0054435D03*
X0200658Y0056775D03*
X0199638Y0059955D03*
X0203058Y0062115D03*
X0188658Y0058695D03*
X0188658Y0058635D03*
X0188658Y0058575D03*
X0188658Y0057915D03*
D110*
X0190008Y0046275D03*
X0189948Y0046095D03*
X0189948Y0046035D03*
X0190068Y0045975D03*
X0190128Y0045915D03*
X0190368Y0045795D03*
X0190428Y0045735D03*
X0190668Y0045615D03*
X0190908Y0045495D03*
X0190968Y0045435D03*
X0191028Y0045375D03*
D111*
X0196128Y0045375D03*
X0196608Y0047175D03*
X0196428Y0047715D03*
X0197088Y0050175D03*
X0197028Y0050235D03*
X0198588Y0052275D03*
X0198588Y0052395D03*
X0198408Y0052935D03*
X0198348Y0053115D03*
X0198288Y0053295D03*
X0198048Y0053895D03*
X0197928Y0054255D03*
X0200328Y0051855D03*
X0200628Y0056595D03*
X0200628Y0056715D03*
X0199608Y0059895D03*
X0199608Y0060015D03*
X0199608Y0060135D03*
X0200508Y0061395D03*
X0202188Y0065475D03*
X0192888Y0055455D03*
X0188988Y0055275D03*
X0188808Y0055935D03*
X0188688Y0057255D03*
X0188688Y0057855D03*
X0187728Y0058215D03*
X0187608Y0058395D03*
X0187548Y0058515D03*
X0187428Y0058635D03*
X0187308Y0058755D03*
X0187248Y0058815D03*
X0187188Y0058875D03*
X0187128Y0058995D03*
X0187008Y0059175D03*
X0186408Y0058695D03*
X0188208Y0060135D03*
X0188328Y0060015D03*
X0188388Y0059955D03*
X0188508Y0059715D03*
X0188628Y0059595D03*
X0188688Y0059535D03*
X0189288Y0058815D03*
X0189048Y0060735D03*
X0188988Y0060795D03*
X0183408Y0061935D03*
X0178788Y0064395D03*
X0178728Y0064335D03*
X0182388Y0069195D03*
X0181248Y0051135D03*
D112*
X0182748Y0052335D03*
X0180768Y0056115D03*
X0186408Y0058635D03*
X0187008Y0059115D03*
X0188208Y0060075D03*
X0188628Y0058815D03*
X0188688Y0058515D03*
X0188628Y0057975D03*
X0188988Y0055215D03*
X0188748Y0048495D03*
X0188628Y0048135D03*
X0196308Y0046095D03*
X0196368Y0046155D03*
X0196428Y0046335D03*
X0196428Y0046455D03*
X0196488Y0046515D03*
X0196548Y0046695D03*
X0196608Y0047115D03*
X0196308Y0045975D03*
X0196248Y0045795D03*
X0196188Y0045615D03*
X0196128Y0045435D03*
X0197028Y0050295D03*
X0198588Y0052455D03*
X0198588Y0052515D03*
X0198588Y0052575D03*
X0198588Y0052695D03*
X0198408Y0052995D03*
X0198288Y0053235D03*
X0198168Y0053595D03*
X0198108Y0053775D03*
X0198048Y0053955D03*
X0197928Y0054315D03*
X0197868Y0054495D03*
X0197868Y0054615D03*
X0197868Y0054735D03*
X0200688Y0056835D03*
X0199668Y0059775D03*
X0199608Y0059835D03*
X0199608Y0060075D03*
X0199788Y0060615D03*
X0203028Y0062055D03*
X0200388Y0051975D03*
X0200388Y0051915D03*
X0178788Y0064455D03*
D113*
X0188598Y0058755D03*
X0197838Y0054555D03*
X0202098Y0053715D03*
X0202098Y0053655D03*
X0196638Y0047055D03*
X0196398Y0046275D03*
X0196338Y0046035D03*
X0188838Y0048855D03*
X0188898Y0049035D03*
D114*
X0190008Y0046335D03*
X0191628Y0050715D03*
X0194568Y0061935D03*
X0195048Y0064095D03*
D115*
X0201978Y0057615D03*
X0202218Y0054135D03*
X0202158Y0054015D03*
X0202158Y0053835D03*
X0198018Y0055215D03*
X0197958Y0055095D03*
X0197958Y0055035D03*
X0196578Y0046875D03*
X0196578Y0046815D03*
X0196518Y0046635D03*
X0196518Y0046575D03*
X0196458Y0046395D03*
X0188778Y0048615D03*
X0188658Y0048255D03*
X0188958Y0049215D03*
X0189018Y0049335D03*
X0189078Y0049575D03*
X0182718Y0052215D03*
X0182718Y0052455D03*
X0178818Y0064575D03*
D116*
X0189378Y0046455D03*
D117*
X0189348Y0046515D03*
D118*
X0189168Y0046635D03*
X0193128Y0050235D03*
X0193428Y0052815D03*
X0193608Y0059835D03*
D119*
X0193308Y0050175D03*
X0189108Y0046695D03*
D120*
X0193878Y0046695D03*
X0194058Y0047175D03*
X0194358Y0048255D03*
X0194418Y0048375D03*
X0202518Y0055575D03*
X0202578Y0055695D03*
X0202638Y0055815D03*
X0202638Y0055875D03*
X0202638Y0055995D03*
X0198318Y0056355D03*
X0198318Y0056475D03*
X0199698Y0059475D03*
X0199638Y0060555D03*
X0201018Y0064155D03*
X0201018Y0064215D03*
X0203358Y0064035D03*
X0203358Y0063675D03*
X0203358Y0063615D03*
X0203358Y0063555D03*
X0189558Y0059835D03*
X0189498Y0059955D03*
X0182778Y0052635D03*
X0178878Y0064815D03*
D121*
X0193578Y0052995D03*
X0189018Y0046815D03*
X0200478Y0064815D03*
D122*
X0194238Y0068955D03*
X0185298Y0066075D03*
X0185298Y0066015D03*
X0184278Y0064035D03*
X0193758Y0053055D03*
X0194298Y0049695D03*
X0188958Y0047355D03*
X0188958Y0047295D03*
X0188898Y0047115D03*
D123*
X0188928Y0047175D03*
X0194208Y0049815D03*
X0194268Y0049755D03*
X0181668Y0053835D03*
X0184188Y0063795D03*
X0184248Y0063975D03*
X0185328Y0066135D03*
X0193668Y0064875D03*
X0193728Y0064815D03*
D124*
X0188868Y0058935D03*
X0191568Y0048435D03*
X0191568Y0048315D03*
X0191268Y0047535D03*
X0191268Y0047475D03*
X0191268Y0047415D03*
X0178968Y0064995D03*
D125*
X0189468Y0054555D03*
X0188268Y0047475D03*
D126*
X0188148Y0047535D03*
X0189828Y0052215D03*
X0195288Y0051795D03*
X0199968Y0057315D03*
X0201168Y0065235D03*
X0194088Y0070035D03*
X0185688Y0067515D03*
X0183588Y0062655D03*
X0191148Y0058455D03*
X0191508Y0058815D03*
X0191208Y0057915D03*
D127*
X0187818Y0047715D03*
X0179958Y0052635D03*
X0179958Y0052695D03*
D128*
X0180228Y0051855D03*
X0185928Y0057195D03*
X0191028Y0055215D03*
X0187668Y0047775D03*
X0200268Y0057495D03*
X0201708Y0061335D03*
X0193968Y0070275D03*
D129*
X0179178Y0065535D03*
X0179178Y0065475D03*
X0180198Y0055815D03*
X0180078Y0055335D03*
X0179898Y0054615D03*
X0179658Y0053655D03*
X0179598Y0053355D03*
X0179598Y0053295D03*
X0179538Y0053055D03*
X0182898Y0054915D03*
X0186618Y0056175D03*
X0187218Y0048135D03*
D130*
X0184518Y0052215D03*
X0188658Y0056955D03*
X0196158Y0048135D03*
X0201978Y0059955D03*
X0201978Y0060015D03*
X0203058Y0064515D03*
D131*
X0200568Y0063915D03*
X0200868Y0062175D03*
X0199428Y0062055D03*
X0202068Y0060375D03*
X0202068Y0060255D03*
X0201528Y0059355D03*
X0196068Y0048255D03*
X0187428Y0055515D03*
X0187428Y0055575D03*
X0184368Y0052155D03*
X0182868Y0054855D03*
X0180168Y0055635D03*
X0180108Y0055695D03*
X0180108Y0055575D03*
X0180108Y0055515D03*
X0180108Y0055455D03*
X0179928Y0054795D03*
X0179928Y0054735D03*
X0179928Y0054675D03*
X0179928Y0054555D03*
X0179868Y0054495D03*
X0179868Y0054435D03*
X0179868Y0054375D03*
X0179628Y0053535D03*
X0179628Y0053475D03*
X0179628Y0053415D03*
X0179568Y0053235D03*
X0179568Y0053115D03*
X0179208Y0065595D03*
X0179268Y0065655D03*
D132*
X0178818Y0064635D03*
X0187518Y0050595D03*
X0187518Y0050535D03*
X0189318Y0050235D03*
X0189018Y0049395D03*
X0186918Y0048315D03*
X0201018Y0052575D03*
X0199518Y0060255D03*
D133*
X0202038Y0060495D03*
X0189438Y0059415D03*
X0181818Y0051495D03*
X0179838Y0051495D03*
X0179418Y0065895D03*
X0195978Y0048315D03*
D134*
X0195438Y0048495D03*
X0195438Y0048555D03*
X0195438Y0048615D03*
X0195498Y0048675D03*
X0183678Y0052815D03*
X0180018Y0052095D03*
X0179958Y0052155D03*
X0179898Y0052335D03*
X0185778Y0067875D03*
D135*
X0195198Y0048975D03*
D136*
X0195138Y0049035D03*
X0194118Y0053715D03*
X0189438Y0054435D03*
X0189438Y0054495D03*
X0191118Y0058635D03*
D137*
X0190728Y0058215D03*
X0189528Y0054975D03*
X0189528Y0054855D03*
X0194868Y0049275D03*
X0183768Y0063015D03*
X0185568Y0066975D03*
X0185628Y0067035D03*
D138*
X0183798Y0063075D03*
X0194178Y0069615D03*
X0194718Y0052155D03*
X0194838Y0049335D03*
D139*
X0194298Y0049395D03*
X0190638Y0051555D03*
X0193398Y0059475D03*
X0193938Y0065355D03*
X0193938Y0065415D03*
X0194238Y0068655D03*
X0185178Y0065715D03*
X0185178Y0065655D03*
X0185118Y0065595D03*
X0185118Y0065535D03*
X0184638Y0064575D03*
X0184578Y0064455D03*
X0184518Y0064395D03*
D140*
X0182718Y0050055D03*
X0182718Y0049995D03*
D141*
X0182838Y0050475D03*
X0182838Y0054375D03*
X0186438Y0056595D03*
X0186438Y0056655D03*
X0193998Y0054375D03*
X0198978Y0055995D03*
X0201678Y0055155D03*
X0200838Y0059055D03*
X0181218Y0067755D03*
D142*
X0192498Y0050475D03*
D143*
X0196068Y0051255D03*
X0200868Y0059175D03*
X0202068Y0061575D03*
X0183468Y0062175D03*
X0181068Y0067635D03*
X0181368Y0067875D03*
X0180168Y0054315D03*
X0181668Y0053175D03*
X0182868Y0050535D03*
D144*
X0182868Y0050595D03*
X0181668Y0053115D03*
X0182868Y0054315D03*
X0180228Y0054195D03*
X0186108Y0056955D03*
X0186168Y0056895D03*
X0186288Y0056775D03*
X0186348Y0056715D03*
X0186228Y0057795D03*
X0183468Y0062235D03*
X0181728Y0068175D03*
X0181848Y0068295D03*
X0191928Y0062295D03*
X0200868Y0059235D03*
X0200868Y0059115D03*
X0200868Y0058995D03*
X0200808Y0058935D03*
X0201288Y0058095D03*
X0201168Y0057855D03*
X0201648Y0055215D03*
X0202188Y0062715D03*
D145*
X0193788Y0060675D03*
X0193728Y0060735D03*
X0192048Y0050655D03*
D146*
X0188778Y0056175D03*
X0188658Y0057015D03*
X0184158Y0051555D03*
X0184098Y0051495D03*
X0184038Y0051375D03*
X0183978Y0051315D03*
X0183918Y0051195D03*
X0183858Y0051135D03*
X0183798Y0051015D03*
X0183738Y0050955D03*
X0183678Y0050835D03*
X0201858Y0056655D03*
X0202098Y0056475D03*
X0202518Y0056115D03*
D147*
X0193788Y0060855D03*
X0193728Y0060795D03*
X0193788Y0060975D03*
X0194028Y0061815D03*
X0191388Y0050895D03*
D148*
X0191358Y0050955D03*
D149*
X0193788Y0054615D03*
X0196488Y0050955D03*
X0186648Y0056115D03*
X0186288Y0058155D03*
X0180048Y0055395D03*
X0180048Y0055275D03*
X0180048Y0055215D03*
X0180048Y0055155D03*
X0179988Y0055095D03*
X0179988Y0055035D03*
X0179988Y0054975D03*
X0179988Y0054855D03*
X0179688Y0053715D03*
X0179688Y0053595D03*
X0181788Y0051375D03*
X0181788Y0051255D03*
X0182448Y0069075D03*
X0193788Y0070455D03*
X0202188Y0062415D03*
D150*
X0201978Y0060675D03*
X0201798Y0054975D03*
X0196278Y0051135D03*
X0183438Y0062115D03*
X0179838Y0066435D03*
X0179958Y0066555D03*
X0180138Y0066735D03*
X0180258Y0066855D03*
X0182778Y0054735D03*
X0181878Y0053655D03*
D151*
X0190908Y0051315D03*
X0193548Y0052755D03*
X0193608Y0059775D03*
X0194088Y0063855D03*
D152*
X0186138Y0057615D03*
X0194058Y0054195D03*
X0195798Y0051435D03*
X0202218Y0062955D03*
D153*
X0200868Y0057675D03*
X0195768Y0051495D03*
D154*
X0194148Y0052455D03*
X0193848Y0053115D03*
X0190488Y0051675D03*
X0190368Y0058035D03*
X0190308Y0058095D03*
X0184188Y0063855D03*
X0185388Y0066255D03*
X0200808Y0064875D03*
D155*
X0200508Y0061455D03*
X0200628Y0056535D03*
X0200568Y0056475D03*
X0200268Y0051735D03*
X0200208Y0051675D03*
X0187908Y0057975D03*
X0187008Y0059235D03*
X0186408Y0058755D03*
X0188208Y0060195D03*
X0188508Y0059775D03*
X0187008Y0069315D03*
X0178728Y0064275D03*
D156*
X0183678Y0062895D03*
X0185658Y0067215D03*
X0201258Y0064935D03*
X0194058Y0053535D03*
X0180978Y0051735D03*
D157*
X0190398Y0051735D03*
X0184038Y0063555D03*
X0184098Y0063615D03*
X0185418Y0066375D03*
X0194238Y0069255D03*
D158*
X0194148Y0069795D03*
X0185628Y0067155D03*
X0189468Y0054675D03*
X0190068Y0052035D03*
X0194868Y0052035D03*
X0181008Y0051795D03*
D159*
X0190368Y0051795D03*
X0193908Y0053175D03*
X0194328Y0052395D03*
X0200268Y0055335D03*
X0194208Y0069315D03*
D160*
X0193998Y0053355D03*
X0190218Y0051915D03*
D161*
X0195078Y0051915D03*
D162*
X0194838Y0052095D03*
X0194058Y0053475D03*
X0190098Y0051975D03*
X0189498Y0054735D03*
D163*
X0194058Y0053595D03*
X0195018Y0051975D03*
D164*
X0189888Y0052155D03*
X0183648Y0062715D03*
X0185688Y0067395D03*
D165*
X0191868Y0056415D03*
X0189768Y0052275D03*
X0199668Y0063735D03*
D166*
X0194538Y0052275D03*
X0185538Y0066795D03*
D167*
X0191718Y0057195D03*
X0189618Y0052335D03*
D168*
X0191838Y0055995D03*
X0191898Y0056175D03*
X0179898Y0052575D03*
D169*
X0193668Y0052695D03*
X0193488Y0059595D03*
X0194088Y0065835D03*
X0194088Y0065955D03*
X0194148Y0066015D03*
X0194148Y0066135D03*
X0194268Y0067935D03*
X0194328Y0067995D03*
X0194268Y0068055D03*
D170*
X0194148Y0069735D03*
X0185628Y0067095D03*
X0183768Y0062955D03*
X0189528Y0054795D03*
X0194028Y0053415D03*
X0181008Y0052995D03*
X0180948Y0052935D03*
D171*
X0193188Y0052935D03*
X0191928Y0059235D03*
X0193668Y0060015D03*
D172*
X0201858Y0054915D03*
X0202158Y0065175D03*
X0181878Y0053415D03*
D173*
X0183918Y0053595D03*
X0187518Y0055395D03*
X0188718Y0056535D03*
X0188718Y0056655D03*
X0188718Y0056715D03*
X0188718Y0056775D03*
X0179118Y0065355D03*
D174*
X0183558Y0062595D03*
X0194118Y0053775D03*
D175*
X0194088Y0053895D03*
X0191388Y0055395D03*
X0191748Y0056835D03*
X0201288Y0060855D03*
D176*
X0194238Y0069135D03*
X0194238Y0069195D03*
X0185358Y0066315D03*
X0184158Y0063735D03*
X0184098Y0063675D03*
X0181638Y0053955D03*
D177*
X0180258Y0054075D03*
X0180258Y0054135D03*
X0186078Y0057015D03*
X0181758Y0068235D03*
D178*
X0182598Y0068835D03*
X0186138Y0057675D03*
X0186018Y0057135D03*
X0191118Y0055335D03*
X0200838Y0058395D03*
D179*
X0200268Y0055395D03*
D180*
X0200328Y0055455D03*
X0200328Y0055515D03*
X0193128Y0059295D03*
X0192108Y0059115D03*
X0185388Y0066435D03*
D181*
X0186018Y0057075D03*
D182*
X0191118Y0058575D03*
D183*
X0193518Y0059655D03*
X0194118Y0066075D03*
D184*
X0193638Y0059895D03*
D185*
X0193638Y0059955D03*
D186*
X0193668Y0060075D03*
X0193728Y0060135D03*
D187*
X0193758Y0060375D03*
D188*
X0202068Y0060435D03*
X0179268Y0065715D03*
D189*
X0193788Y0060615D03*
D190*
X0193788Y0060915D03*
X0193788Y0061035D03*
D191*
X0193818Y0061095D03*
X0194778Y0064035D03*
D192*
X0193818Y0061335D03*
X0193818Y0061275D03*
X0193818Y0061215D03*
X0193818Y0061155D03*
D193*
X0193848Y0061395D03*
X0193848Y0061455D03*
X0193848Y0061515D03*
X0193848Y0061635D03*
X0194208Y0061875D03*
X0194748Y0062415D03*
D194*
X0193818Y0061575D03*
D195*
X0193848Y0061695D03*
X0193848Y0061755D03*
D196*
X0195108Y0061995D03*
D197*
X0194478Y0062355D03*
X0196878Y0063015D03*
D198*
X0195348Y0062535D03*
D199*
X0195588Y0062595D03*
X0195648Y0063615D03*
D200*
X0195618Y0062655D03*
D201*
X0195648Y0062715D03*
X0195708Y0062895D03*
D202*
X0195678Y0062775D03*
D203*
X0195708Y0062835D03*
X0195708Y0062955D03*
X0195708Y0063075D03*
D204*
X0196218Y0063195D03*
D205*
X0196248Y0063255D03*
D206*
X0183918Y0063315D03*
D207*
X0196158Y0063315D03*
D208*
X0196188Y0063375D03*
X0196128Y0063435D03*
X0196128Y0063555D03*
X0196248Y0064275D03*
D209*
X0183978Y0063435D03*
D210*
X0196098Y0063495D03*
X0196098Y0063675D03*
X0196218Y0064335D03*
D211*
X0194118Y0063915D03*
X0194118Y0063795D03*
D212*
X0184218Y0063915D03*
D213*
X0195408Y0064155D03*
D214*
X0184488Y0064335D03*
D215*
X0196278Y0064395D03*
X0196278Y0064455D03*
D216*
X0196368Y0064515D03*
D217*
X0196458Y0064575D03*
D218*
X0202998Y0064575D03*
D219*
X0197268Y0064635D03*
D220*
X0193968Y0065475D03*
X0194268Y0068415D03*
X0194268Y0068535D03*
X0194268Y0068595D03*
X0184668Y0064695D03*
D221*
X0197268Y0064695D03*
D222*
X0197238Y0064755D03*
D223*
X0179598Y0066135D03*
X0179538Y0066075D03*
D224*
X0185358Y0066195D03*
D225*
X0194178Y0066195D03*
X0194178Y0066255D03*
X0194178Y0066315D03*
X0194238Y0066615D03*
X0194298Y0066975D03*
X0194298Y0067515D03*
X0194298Y0067575D03*
X0194298Y0067635D03*
X0194298Y0067695D03*
X0194298Y0067755D03*
X0194298Y0067815D03*
X0194298Y0067875D03*
D226*
X0185448Y0066555D03*
X0185448Y0066495D03*
D227*
X0185568Y0066915D03*
D228*
X0194298Y0068115D03*
X0194298Y0068175D03*
D229*
X0194238Y0069015D03*
X0194238Y0069075D03*
M02*
