G75*
%MOIN*%
%OFA0B0*%
%FSLAX25Y25*%
%IPPOS*%
%LPD*%
%AMOC8*
5,1,8,0,0,1.08239X$1,22.5*
%
%ADD10C,0.00000*%
%ADD11C,0.00600*%
%ADD12C,0.00300*%
%ADD13C,0.00500*%
%ADD14C,0.00800*%
%ADD15C,0.00400*%
%ADD16R,0.00060X0.00020*%
%ADD17R,0.00100X0.00020*%
%ADD18R,0.00100X0.00020*%
%ADD19R,0.00140X0.00020*%
%ADD20R,0.00140X0.00020*%
%ADD21R,0.00080X0.00020*%
%ADD22R,0.00060X0.00020*%
%ADD23R,0.00080X0.00020*%
%ADD24R,0.00040X0.00020*%
%ADD25R,0.00040X0.00020*%
%ADD26R,0.00020X0.00020*%
%ADD27R,0.00260X0.00020*%
%ADD28R,0.00420X0.00020*%
%ADD29R,0.00020X0.00020*%
%ADD30R,0.00020X0.00020*%
%ADD31R,0.00500X0.00020*%
%ADD32R,0.00020X0.00020*%
%ADD33R,0.00740X0.00020*%
%ADD34R,0.00860X0.00020*%
%ADD35R,0.01020X0.00020*%
%ADD36R,0.01100X0.00020*%
%ADD37R,0.01180X0.00020*%
%ADD38R,0.01140X0.00020*%
%ADD39R,0.01140X0.00020*%
%ADD40R,0.01060X0.00020*%
%ADD41R,0.00840X0.00020*%
%ADD42R,0.00760X0.00020*%
%ADD43R,0.00580X0.00020*%
%ADD44R,0.00460X0.00020*%
%ADD45R,0.00280X0.00020*%
%ADD46R,0.00160X0.00020*%
%ADD47R,0.00300X0.00020*%
%ADD48R,0.00720X0.00020*%
%ADD49R,0.00980X0.00020*%
%ADD50R,0.01120X0.00020*%
%ADD51R,0.01380X0.00020*%
%ADD52R,0.01520X0.00020*%
%ADD53R,0.01620X0.00020*%
%ADD54R,0.01660X0.00020*%
%ADD55R,0.01660X0.00020*%
%ADD56R,0.01640X0.00020*%
%ADD57R,0.01080X0.00020*%
%ADD58R,0.00780X0.00020*%
%ADD59R,0.00660X0.00020*%
%ADD60R,0.00380X0.00020*%
%ADD61R,0.00340X0.00020*%
%ADD62R,0.00360X0.00020*%
%ADD63R,0.00660X0.00020*%
%ADD64R,0.00880X0.00020*%
%ADD65R,0.01180X0.00020*%
%ADD66R,0.01420X0.00020*%
%ADD67R,0.01700X0.00020*%
%ADD68R,0.01900X0.00020*%
%ADD69R,0.02100X0.00020*%
%ADD70R,0.02120X0.00020*%
%ADD71R,0.02140X0.00020*%
%ADD72R,0.02140X0.00020*%
%ADD73R,0.02020X0.00020*%
%ADD74R,0.01580X0.00020*%
%ADD75R,0.01420X0.00020*%
%ADD76R,0.01060X0.00020*%
%ADD77R,0.00900X0.00020*%
%ADD78R,0.00560X0.00020*%
%ADD79R,0.00360X0.00020*%
%ADD80R,0.00120X0.00020*%
%ADD81R,0.00340X0.00020*%
%ADD82R,0.00720X0.00020*%
%ADD83R,0.00940X0.00020*%
%ADD84R,0.01340X0.00020*%
%ADD85R,0.01540X0.00020*%
%ADD86R,0.01940X0.00020*%
%ADD87R,0.02420X0.00020*%
%ADD88R,0.02420X0.00020*%
%ADD89R,0.02480X0.00020*%
%ADD90R,0.02460X0.00020*%
%ADD91R,0.02320X0.00020*%
%ADD92R,0.01920X0.00020*%
%ADD93R,0.01700X0.00020*%
%ADD94R,0.00040X0.00020*%
%ADD95R,0.00700X0.00020*%
%ADD96R,0.00620X0.00020*%
%ADD97R,0.00780X0.00020*%
%ADD98R,0.00860X0.00020*%
%ADD99R,0.00940X0.00020*%
%ADD100R,0.00980X0.00020*%
%ADD101R,0.01080X0.00020*%
%ADD102R,0.00480X0.00020*%
%ADD103R,0.01200X0.00020*%
%ADD104R,0.00740X0.00020*%
%ADD105R,0.01220X0.00020*%
%ADD106R,0.01160X0.00020*%
%ADD107R,0.01300X0.00020*%
%ADD108R,0.01340X0.00020*%
%ADD109R,0.02920X0.00020*%
%ADD110R,0.02920X0.00020*%
%ADD111R,0.02940X0.00020*%
%ADD112R,0.02940X0.00020*%
%ADD113R,0.02980X0.00020*%
%ADD114R,0.02640X0.00020*%
%ADD115R,0.02380X0.00020*%
%ADD116R,0.01980X0.00020*%
%ADD117R,0.02000X0.00020*%
%ADD118R,0.02020X0.00020*%
%ADD119R,0.02160X0.00020*%
%ADD120R,0.02240X0.00020*%
%ADD121R,0.02260X0.00020*%
%ADD122R,0.02320X0.00020*%
%ADD123R,0.02500X0.00020*%
%ADD124R,0.02540X0.00020*%
%ADD125R,0.02740X0.00020*%
%ADD126R,0.02760X0.00020*%
%ADD127R,0.02840X0.00020*%
%ADD128R,0.02900X0.00020*%
%ADD129R,0.03140X0.00020*%
%ADD130R,0.03120X0.00020*%
%ADD131R,0.02940X0.00020*%
%ADD132R,0.00180X0.00020*%
%ADD133R,0.02880X0.00020*%
%ADD134R,0.00200X0.00020*%
%ADD135R,0.02860X0.00020*%
%ADD136R,0.02860X0.00020*%
%ADD137R,0.00220X0.00020*%
%ADD138R,0.00200X0.00020*%
%ADD139R,0.00220X0.00020*%
%ADD140R,0.02880X0.00020*%
%ADD141R,0.00220X0.00020*%
%ADD142R,0.00220X0.00020*%
%ADD143R,0.00240X0.00020*%
%ADD144R,0.02840X0.00020*%
%ADD145R,0.00240X0.00020*%
%ADD146R,0.02820X0.00020*%
%ADD147R,0.02480X0.00020*%
%ADD148R,0.02360X0.00020*%
%ADD149R,0.00340X0.00020*%
%ADD150R,0.02340X0.00020*%
%ADD151R,0.02260X0.00020*%
%ADD152R,0.00240X0.00020*%
%ADD153R,0.02220X0.00020*%
%ADD154R,0.00240X0.00020*%
%ADD155R,0.00320X0.00020*%
%ADD156R,0.02040X0.00020*%
%ADD157R,0.01900X0.00020*%
%ADD158R,0.00260X0.00020*%
%ADD159R,0.01880X0.00020*%
%ADD160R,0.01860X0.00020*%
%ADD161R,0.01880X0.00020*%
%ADD162R,0.00160X0.00020*%
%ADD163R,0.01420X0.00020*%
%ADD164R,0.00380X0.00020*%
%ADD165R,0.01260X0.00020*%
%ADD166R,0.01220X0.00020*%
%ADD167R,0.01100X0.00020*%
%ADD168R,0.01040X0.00020*%
%ADD169R,0.00180X0.00020*%
%ADD170R,0.00940X0.00020*%
%ADD171R,0.00840X0.00020*%
%ADD172R,0.00340X0.00020*%
%ADD173R,0.00520X0.00020*%
%ADD174R,0.00440X0.00020*%
%ADD175R,0.00460X0.00020*%
%ADD176R,0.00500X0.00020*%
%ADD177R,0.00320X0.00020*%
%ADD178R,0.00540X0.00020*%
%ADD179R,0.00280X0.00020*%
%ADD180R,0.00600X0.00020*%
%ADD181R,0.00320X0.00020*%
%ADD182R,0.00620X0.00020*%
%ADD183R,0.01020X0.00020*%
%ADD184R,0.01000X0.00020*%
%ADD185R,0.00300X0.00020*%
%ADD186R,0.01000X0.00020*%
%ADD187R,0.01240X0.00020*%
%ADD188R,0.01320X0.00020*%
%ADD189R,0.01540X0.00020*%
%ADD190R,0.01560X0.00020*%
%ADD191R,0.01960X0.00020*%
%ADD192R,0.01940X0.00020*%
%ADD193R,0.01920X0.00020*%
%ADD194R,0.01860X0.00020*%
%ADD195R,0.01920X0.00020*%
%ADD196R,0.00680X0.00020*%
%ADD197R,0.02000X0.00020*%
%ADD198R,0.00680X0.00020*%
%ADD199R,0.02020X0.00020*%
%ADD200R,0.00700X0.00020*%
%ADD201R,0.02220X0.00020*%
%ADD202R,0.02500X0.00020*%
%ADD203R,0.02460X0.00020*%
%ADD204R,0.00760X0.00020*%
%ADD205R,0.02420X0.00020*%
%ADD206R,0.00800X0.00020*%
%ADD207R,0.02440X0.00020*%
%ADD208R,0.00820X0.00020*%
%ADD209R,0.02540X0.00020*%
%ADD210R,0.02580X0.00020*%
%ADD211R,0.02740X0.00020*%
%ADD212R,0.00420X0.00020*%
%ADD213R,0.00400X0.00020*%
%ADD214R,0.02620X0.00020*%
%ADD215R,0.02600X0.00020*%
%ADD216R,0.00540X0.00020*%
%ADD217R,0.00580X0.00020*%
%ADD218R,0.00400X0.00020*%
%ADD219R,0.02320X0.00020*%
%ADD220R,0.02180X0.00020*%
%ADD221R,0.00540X0.00020*%
%ADD222R,0.02120X0.00020*%
%ADD223R,0.00420X0.00020*%
%ADD224R,0.00960X0.00020*%
%ADD225R,0.00600X0.00020*%
%ADD226R,0.01380X0.00020*%
%ADD227R,0.01960X0.00020*%
%ADD228R,0.01420X0.00020*%
%ADD229R,0.01820X0.00020*%
%ADD230R,0.01140X0.00020*%
%ADD231R,0.01440X0.00020*%
%ADD232R,0.00480X0.00020*%
%ADD233R,0.01760X0.00020*%
%ADD234R,0.01200X0.00020*%
%ADD235R,0.00140X0.00020*%
%ADD236R,0.01460X0.00020*%
%ADD237R,0.01740X0.00020*%
%ADD238R,0.01260X0.00020*%
%ADD239R,0.01600X0.00020*%
%ADD240R,0.01360X0.00020*%
%ADD241R,0.01480X0.00020*%
%ADD242R,0.01400X0.00020*%
%ADD243R,0.01460X0.00020*%
%ADD244R,0.00120X0.00020*%
%ADD245R,0.00120X0.00020*%
%ADD246R,0.00440X0.00020*%
%ADD247R,0.01020X0.00020*%
%ADD248R,0.01740X0.00020*%
%ADD249R,0.00900X0.00020*%
%ADD250R,0.01820X0.00020*%
%ADD251R,0.01040X0.00020*%
%ADD252R,0.01940X0.00020*%
%ADD253R,0.01040X0.00020*%
%ADD254R,0.02060X0.00020*%
%ADD255R,0.01500X0.00020*%
%ADD256R,0.02300X0.00020*%
%ADD257R,0.01500X0.00020*%
%ADD258R,0.02040X0.00020*%
%ADD259R,0.00820X0.00020*%
%ADD260R,0.00560X0.00020*%
%ADD261R,0.00520X0.00020*%
%ADD262R,0.01620X0.00020*%
%ADD263R,0.00640X0.00020*%
%ADD264R,0.00040X0.00020*%
%ADD265R,0.00520X0.00020*%
%ADD266R,0.01240X0.00020*%
%ADD267R,0.01800X0.00020*%
%ADD268R,0.01020X0.00020*%
%ADD269R,0.00820X0.00020*%
%ADD270R,0.00880X0.00020*%
%ADD271R,0.01120X0.00020*%
%ADD272R,0.00960X0.00020*%
%ADD273R,0.00540X0.00020*%
%ADD274R,0.01320X0.00020*%
%ADD275R,0.00420X0.00020*%
%ADD276R,0.01480X0.00020*%
%ADD277R,0.00620X0.00020*%
%ADD278R,0.01540X0.00020*%
%ADD279R,0.01620X0.00020*%
%ADD280R,0.00740X0.00020*%
%ADD281R,0.00800X0.00020*%
%ADD282R,0.00920X0.00020*%
%ADD283R,0.01740X0.00020*%
%ADD284R,0.01780X0.00020*%
%ADD285R,0.01780X0.00020*%
%ADD286R,0.01160X0.00020*%
%ADD287R,0.00320X0.00020*%
%ADD288R,0.00720X0.00020*%
%ADD289R,0.00140X0.00020*%
%ADD290R,0.01220X0.00020*%
%ADD291R,0.00820X0.00020*%
%ADD292R,0.01340X0.00020*%
%ADD293R,0.01220X0.00020*%
%ADD294R,0.00920X0.00020*%
%ADD295R,0.01300X0.00020*%
%ADD296R,0.01820X0.00020*%
%ADD297R,0.01620X0.00020*%
%ADD298R,0.01280X0.00020*%
%ADD299R,0.01580X0.00020*%
%ADD300R,0.01940X0.00020*%
%ADD301R,0.02080X0.00020*%
%ADD302R,0.02180X0.00020*%
%ADD303R,0.02240X0.00020*%
%ADD304R,0.02280X0.00020*%
%ADD305R,0.02340X0.00020*%
%ADD306R,0.02380X0.00020*%
%ADD307R,0.02540X0.00020*%
%ADD308R,0.00620X0.00020*%
%ADD309R,0.02580X0.00020*%
%ADD310R,0.02620X0.00020*%
%ADD311R,0.02620X0.00020*%
%ADD312R,0.02660X0.00020*%
%ADD313R,0.02640X0.00020*%
%ADD314R,0.02680X0.00020*%
%ADD315R,0.02680X0.00020*%
%ADD316R,0.02700X0.00020*%
%ADD317R,0.02700X0.00020*%
%ADD318R,0.02720X0.00020*%
%ADD319R,0.02740X0.00020*%
%ADD320R,0.02620X0.00020*%
%ADD321R,0.02820X0.00020*%
%ADD322R,0.03060X0.00020*%
%ADD323R,0.02420X0.00020*%
%ADD324R,0.02520X0.00020*%
%ADD325R,0.01120X0.00020*%
%ADD326R,0.02940X0.00020*%
%ADD327R,0.03100X0.00020*%
%ADD328R,0.03220X0.00020*%
%ADD329R,0.03240X0.00020*%
%ADD330R,0.03260X0.00020*%
%ADD331R,0.03280X0.00020*%
%ADD332R,0.03300X0.00020*%
%ADD333R,0.01440X0.00020*%
%ADD334R,0.03260X0.00020*%
%ADD335R,0.01540X0.00020*%
%ADD336R,0.01560X0.00020*%
%ADD337R,0.03300X0.00020*%
%ADD338R,0.03680X0.00020*%
%ADD339R,0.03620X0.00020*%
%ADD340R,0.01680X0.00020*%
%ADD341R,0.03640X0.00020*%
%ADD342R,0.03580X0.00020*%
%ADD343R,0.01720X0.00020*%
%ADD344R,0.03580X0.00020*%
%ADD345R,0.03560X0.00020*%
%ADD346R,0.03220X0.00020*%
%ADD347R,0.01800X0.00020*%
%ADD348R,0.02200X0.00020*%
%ADD349R,0.02200X0.00020*%
%ADD350R,0.02820X0.00020*%
%ADD351R,0.03020X0.00020*%
%ADD352R,0.03560X0.00020*%
%ADD353R,0.03600X0.00020*%
%ADD354R,0.03600X0.00020*%
%ADD355R,0.01980X0.00020*%
%ADD356R,0.03660X0.00020*%
%ADD357R,0.03720X0.00020*%
%ADD358R,0.00440X0.00020*%
%ADD359R,0.04260X0.00020*%
%ADD360R,0.04220X0.00020*%
%ADD361R,0.04240X0.00020*%
%ADD362R,0.02040X0.00020*%
%ADD363R,0.02020X0.00020*%
%ADD364R,0.01920X0.00020*%
%ADD365R,0.00640X0.00020*%
%ADD366R,0.00520X0.00020*%
%ADD367R,0.02060X0.00020*%
%ADD368R,0.02080X0.00020*%
%ADD369R,0.01840X0.00020*%
%ADD370R,0.01760X0.00020*%
%ADD371R,0.02100X0.00020*%
%ADD372R,0.01740X0.00020*%
%ADD373R,0.00720X0.00020*%
%ADD374R,0.00740X0.00020*%
%ADD375R,0.01840X0.00020*%
%ADD376R,0.00120X0.00020*%
%ADD377C,0.00394*%
D10*
X0006300Y0005560D02*
X0005800Y0173761D01*
X0265721Y0173761D01*
X0266221Y0005560D01*
X0006300Y0005560D01*
X0043825Y0023060D02*
X0043827Y0023243D01*
X0043834Y0023427D01*
X0043845Y0023610D01*
X0043861Y0023793D01*
X0043881Y0023975D01*
X0043906Y0024157D01*
X0043935Y0024338D01*
X0043969Y0024518D01*
X0044007Y0024698D01*
X0044049Y0024876D01*
X0044096Y0025054D01*
X0044147Y0025230D01*
X0044202Y0025405D01*
X0044262Y0025578D01*
X0044326Y0025750D01*
X0044394Y0025921D01*
X0044466Y0026089D01*
X0044543Y0026256D01*
X0044623Y0026421D01*
X0044708Y0026584D01*
X0044796Y0026744D01*
X0044888Y0026903D01*
X0044985Y0027059D01*
X0045085Y0027213D01*
X0045189Y0027364D01*
X0045296Y0027513D01*
X0045407Y0027659D01*
X0045522Y0027802D01*
X0045640Y0027942D01*
X0045761Y0028080D01*
X0045886Y0028214D01*
X0046014Y0028346D01*
X0046146Y0028474D01*
X0046280Y0028599D01*
X0046418Y0028720D01*
X0046558Y0028838D01*
X0046701Y0028953D01*
X0046847Y0029064D01*
X0046996Y0029171D01*
X0047147Y0029275D01*
X0047301Y0029375D01*
X0047457Y0029472D01*
X0047616Y0029564D01*
X0047776Y0029652D01*
X0047939Y0029737D01*
X0048104Y0029817D01*
X0048271Y0029894D01*
X0048439Y0029966D01*
X0048610Y0030034D01*
X0048782Y0030098D01*
X0048955Y0030158D01*
X0049130Y0030213D01*
X0049306Y0030264D01*
X0049484Y0030311D01*
X0049662Y0030353D01*
X0049842Y0030391D01*
X0050022Y0030425D01*
X0050203Y0030454D01*
X0050385Y0030479D01*
X0050567Y0030499D01*
X0050750Y0030515D01*
X0050933Y0030526D01*
X0051117Y0030533D01*
X0051300Y0030535D01*
X0051483Y0030533D01*
X0051667Y0030526D01*
X0051850Y0030515D01*
X0052033Y0030499D01*
X0052215Y0030479D01*
X0052397Y0030454D01*
X0052578Y0030425D01*
X0052758Y0030391D01*
X0052938Y0030353D01*
X0053116Y0030311D01*
X0053294Y0030264D01*
X0053470Y0030213D01*
X0053645Y0030158D01*
X0053818Y0030098D01*
X0053990Y0030034D01*
X0054161Y0029966D01*
X0054329Y0029894D01*
X0054496Y0029817D01*
X0054661Y0029737D01*
X0054824Y0029652D01*
X0054984Y0029564D01*
X0055143Y0029472D01*
X0055299Y0029375D01*
X0055453Y0029275D01*
X0055604Y0029171D01*
X0055753Y0029064D01*
X0055899Y0028953D01*
X0056042Y0028838D01*
X0056182Y0028720D01*
X0056320Y0028599D01*
X0056454Y0028474D01*
X0056586Y0028346D01*
X0056714Y0028214D01*
X0056839Y0028080D01*
X0056960Y0027942D01*
X0057078Y0027802D01*
X0057193Y0027659D01*
X0057304Y0027513D01*
X0057411Y0027364D01*
X0057515Y0027213D01*
X0057615Y0027059D01*
X0057712Y0026903D01*
X0057804Y0026744D01*
X0057892Y0026584D01*
X0057977Y0026421D01*
X0058057Y0026256D01*
X0058134Y0026089D01*
X0058206Y0025921D01*
X0058274Y0025750D01*
X0058338Y0025578D01*
X0058398Y0025405D01*
X0058453Y0025230D01*
X0058504Y0025054D01*
X0058551Y0024876D01*
X0058593Y0024698D01*
X0058631Y0024518D01*
X0058665Y0024338D01*
X0058694Y0024157D01*
X0058719Y0023975D01*
X0058739Y0023793D01*
X0058755Y0023610D01*
X0058766Y0023427D01*
X0058773Y0023243D01*
X0058775Y0023060D01*
X0058773Y0022877D01*
X0058766Y0022693D01*
X0058755Y0022510D01*
X0058739Y0022327D01*
X0058719Y0022145D01*
X0058694Y0021963D01*
X0058665Y0021782D01*
X0058631Y0021602D01*
X0058593Y0021422D01*
X0058551Y0021244D01*
X0058504Y0021066D01*
X0058453Y0020890D01*
X0058398Y0020715D01*
X0058338Y0020542D01*
X0058274Y0020370D01*
X0058206Y0020199D01*
X0058134Y0020031D01*
X0058057Y0019864D01*
X0057977Y0019699D01*
X0057892Y0019536D01*
X0057804Y0019376D01*
X0057712Y0019217D01*
X0057615Y0019061D01*
X0057515Y0018907D01*
X0057411Y0018756D01*
X0057304Y0018607D01*
X0057193Y0018461D01*
X0057078Y0018318D01*
X0056960Y0018178D01*
X0056839Y0018040D01*
X0056714Y0017906D01*
X0056586Y0017774D01*
X0056454Y0017646D01*
X0056320Y0017521D01*
X0056182Y0017400D01*
X0056042Y0017282D01*
X0055899Y0017167D01*
X0055753Y0017056D01*
X0055604Y0016949D01*
X0055453Y0016845D01*
X0055299Y0016745D01*
X0055143Y0016648D01*
X0054984Y0016556D01*
X0054824Y0016468D01*
X0054661Y0016383D01*
X0054496Y0016303D01*
X0054329Y0016226D01*
X0054161Y0016154D01*
X0053990Y0016086D01*
X0053818Y0016022D01*
X0053645Y0015962D01*
X0053470Y0015907D01*
X0053294Y0015856D01*
X0053116Y0015809D01*
X0052938Y0015767D01*
X0052758Y0015729D01*
X0052578Y0015695D01*
X0052397Y0015666D01*
X0052215Y0015641D01*
X0052033Y0015621D01*
X0051850Y0015605D01*
X0051667Y0015594D01*
X0051483Y0015587D01*
X0051300Y0015585D01*
X0051117Y0015587D01*
X0050933Y0015594D01*
X0050750Y0015605D01*
X0050567Y0015621D01*
X0050385Y0015641D01*
X0050203Y0015666D01*
X0050022Y0015695D01*
X0049842Y0015729D01*
X0049662Y0015767D01*
X0049484Y0015809D01*
X0049306Y0015856D01*
X0049130Y0015907D01*
X0048955Y0015962D01*
X0048782Y0016022D01*
X0048610Y0016086D01*
X0048439Y0016154D01*
X0048271Y0016226D01*
X0048104Y0016303D01*
X0047939Y0016383D01*
X0047776Y0016468D01*
X0047616Y0016556D01*
X0047457Y0016648D01*
X0047301Y0016745D01*
X0047147Y0016845D01*
X0046996Y0016949D01*
X0046847Y0017056D01*
X0046701Y0017167D01*
X0046558Y0017282D01*
X0046418Y0017400D01*
X0046280Y0017521D01*
X0046146Y0017646D01*
X0046014Y0017774D01*
X0045886Y0017906D01*
X0045761Y0018040D01*
X0045640Y0018178D01*
X0045522Y0018318D01*
X0045407Y0018461D01*
X0045296Y0018607D01*
X0045189Y0018756D01*
X0045085Y0018907D01*
X0044985Y0019061D01*
X0044888Y0019217D01*
X0044796Y0019376D01*
X0044708Y0019536D01*
X0044623Y0019699D01*
X0044543Y0019864D01*
X0044466Y0020031D01*
X0044394Y0020199D01*
X0044326Y0020370D01*
X0044262Y0020542D01*
X0044202Y0020715D01*
X0044147Y0020890D01*
X0044096Y0021066D01*
X0044049Y0021244D01*
X0044007Y0021422D01*
X0043969Y0021602D01*
X0043935Y0021782D01*
X0043906Y0021963D01*
X0043881Y0022145D01*
X0043861Y0022327D01*
X0043845Y0022510D01*
X0043834Y0022693D01*
X0043827Y0022877D01*
X0043825Y0023060D01*
X0247325Y0016060D02*
X0247327Y0016243D01*
X0247334Y0016427D01*
X0247345Y0016610D01*
X0247361Y0016793D01*
X0247381Y0016975D01*
X0247406Y0017157D01*
X0247435Y0017338D01*
X0247469Y0017518D01*
X0247507Y0017698D01*
X0247549Y0017876D01*
X0247596Y0018054D01*
X0247647Y0018230D01*
X0247702Y0018405D01*
X0247762Y0018578D01*
X0247826Y0018750D01*
X0247894Y0018921D01*
X0247966Y0019089D01*
X0248043Y0019256D01*
X0248123Y0019421D01*
X0248208Y0019584D01*
X0248296Y0019744D01*
X0248388Y0019903D01*
X0248485Y0020059D01*
X0248585Y0020213D01*
X0248689Y0020364D01*
X0248796Y0020513D01*
X0248907Y0020659D01*
X0249022Y0020802D01*
X0249140Y0020942D01*
X0249261Y0021080D01*
X0249386Y0021214D01*
X0249514Y0021346D01*
X0249646Y0021474D01*
X0249780Y0021599D01*
X0249918Y0021720D01*
X0250058Y0021838D01*
X0250201Y0021953D01*
X0250347Y0022064D01*
X0250496Y0022171D01*
X0250647Y0022275D01*
X0250801Y0022375D01*
X0250957Y0022472D01*
X0251116Y0022564D01*
X0251276Y0022652D01*
X0251439Y0022737D01*
X0251604Y0022817D01*
X0251771Y0022894D01*
X0251939Y0022966D01*
X0252110Y0023034D01*
X0252282Y0023098D01*
X0252455Y0023158D01*
X0252630Y0023213D01*
X0252806Y0023264D01*
X0252984Y0023311D01*
X0253162Y0023353D01*
X0253342Y0023391D01*
X0253522Y0023425D01*
X0253703Y0023454D01*
X0253885Y0023479D01*
X0254067Y0023499D01*
X0254250Y0023515D01*
X0254433Y0023526D01*
X0254617Y0023533D01*
X0254800Y0023535D01*
X0254983Y0023533D01*
X0255167Y0023526D01*
X0255350Y0023515D01*
X0255533Y0023499D01*
X0255715Y0023479D01*
X0255897Y0023454D01*
X0256078Y0023425D01*
X0256258Y0023391D01*
X0256438Y0023353D01*
X0256616Y0023311D01*
X0256794Y0023264D01*
X0256970Y0023213D01*
X0257145Y0023158D01*
X0257318Y0023098D01*
X0257490Y0023034D01*
X0257661Y0022966D01*
X0257829Y0022894D01*
X0257996Y0022817D01*
X0258161Y0022737D01*
X0258324Y0022652D01*
X0258484Y0022564D01*
X0258643Y0022472D01*
X0258799Y0022375D01*
X0258953Y0022275D01*
X0259104Y0022171D01*
X0259253Y0022064D01*
X0259399Y0021953D01*
X0259542Y0021838D01*
X0259682Y0021720D01*
X0259820Y0021599D01*
X0259954Y0021474D01*
X0260086Y0021346D01*
X0260214Y0021214D01*
X0260339Y0021080D01*
X0260460Y0020942D01*
X0260578Y0020802D01*
X0260693Y0020659D01*
X0260804Y0020513D01*
X0260911Y0020364D01*
X0261015Y0020213D01*
X0261115Y0020059D01*
X0261212Y0019903D01*
X0261304Y0019744D01*
X0261392Y0019584D01*
X0261477Y0019421D01*
X0261557Y0019256D01*
X0261634Y0019089D01*
X0261706Y0018921D01*
X0261774Y0018750D01*
X0261838Y0018578D01*
X0261898Y0018405D01*
X0261953Y0018230D01*
X0262004Y0018054D01*
X0262051Y0017876D01*
X0262093Y0017698D01*
X0262131Y0017518D01*
X0262165Y0017338D01*
X0262194Y0017157D01*
X0262219Y0016975D01*
X0262239Y0016793D01*
X0262255Y0016610D01*
X0262266Y0016427D01*
X0262273Y0016243D01*
X0262275Y0016060D01*
X0262273Y0015877D01*
X0262266Y0015693D01*
X0262255Y0015510D01*
X0262239Y0015327D01*
X0262219Y0015145D01*
X0262194Y0014963D01*
X0262165Y0014782D01*
X0262131Y0014602D01*
X0262093Y0014422D01*
X0262051Y0014244D01*
X0262004Y0014066D01*
X0261953Y0013890D01*
X0261898Y0013715D01*
X0261838Y0013542D01*
X0261774Y0013370D01*
X0261706Y0013199D01*
X0261634Y0013031D01*
X0261557Y0012864D01*
X0261477Y0012699D01*
X0261392Y0012536D01*
X0261304Y0012376D01*
X0261212Y0012217D01*
X0261115Y0012061D01*
X0261015Y0011907D01*
X0260911Y0011756D01*
X0260804Y0011607D01*
X0260693Y0011461D01*
X0260578Y0011318D01*
X0260460Y0011178D01*
X0260339Y0011040D01*
X0260214Y0010906D01*
X0260086Y0010774D01*
X0259954Y0010646D01*
X0259820Y0010521D01*
X0259682Y0010400D01*
X0259542Y0010282D01*
X0259399Y0010167D01*
X0259253Y0010056D01*
X0259104Y0009949D01*
X0258953Y0009845D01*
X0258799Y0009745D01*
X0258643Y0009648D01*
X0258484Y0009556D01*
X0258324Y0009468D01*
X0258161Y0009383D01*
X0257996Y0009303D01*
X0257829Y0009226D01*
X0257661Y0009154D01*
X0257490Y0009086D01*
X0257318Y0009022D01*
X0257145Y0008962D01*
X0256970Y0008907D01*
X0256794Y0008856D01*
X0256616Y0008809D01*
X0256438Y0008767D01*
X0256258Y0008729D01*
X0256078Y0008695D01*
X0255897Y0008666D01*
X0255715Y0008641D01*
X0255533Y0008621D01*
X0255350Y0008605D01*
X0255167Y0008594D01*
X0254983Y0008587D01*
X0254800Y0008585D01*
X0254617Y0008587D01*
X0254433Y0008594D01*
X0254250Y0008605D01*
X0254067Y0008621D01*
X0253885Y0008641D01*
X0253703Y0008666D01*
X0253522Y0008695D01*
X0253342Y0008729D01*
X0253162Y0008767D01*
X0252984Y0008809D01*
X0252806Y0008856D01*
X0252630Y0008907D01*
X0252455Y0008962D01*
X0252282Y0009022D01*
X0252110Y0009086D01*
X0251939Y0009154D01*
X0251771Y0009226D01*
X0251604Y0009303D01*
X0251439Y0009383D01*
X0251276Y0009468D01*
X0251116Y0009556D01*
X0250957Y0009648D01*
X0250801Y0009745D01*
X0250647Y0009845D01*
X0250496Y0009949D01*
X0250347Y0010056D01*
X0250201Y0010167D01*
X0250058Y0010282D01*
X0249918Y0010400D01*
X0249780Y0010521D01*
X0249646Y0010646D01*
X0249514Y0010774D01*
X0249386Y0010906D01*
X0249261Y0011040D01*
X0249140Y0011178D01*
X0249022Y0011318D01*
X0248907Y0011461D01*
X0248796Y0011607D01*
X0248689Y0011756D01*
X0248585Y0011907D01*
X0248485Y0012061D01*
X0248388Y0012217D01*
X0248296Y0012376D01*
X0248208Y0012536D01*
X0248123Y0012699D01*
X0248043Y0012864D01*
X0247966Y0013031D01*
X0247894Y0013199D01*
X0247826Y0013370D01*
X0247762Y0013542D01*
X0247702Y0013715D01*
X0247647Y0013890D01*
X0247596Y0014066D01*
X0247549Y0014244D01*
X0247507Y0014422D01*
X0247469Y0014602D01*
X0247435Y0014782D01*
X0247406Y0014963D01*
X0247381Y0015145D01*
X0247361Y0015327D01*
X0247345Y0015510D01*
X0247334Y0015693D01*
X0247327Y0015877D01*
X0247325Y0016060D01*
X0248825Y0164560D02*
X0248827Y0164743D01*
X0248834Y0164927D01*
X0248845Y0165110D01*
X0248861Y0165293D01*
X0248881Y0165475D01*
X0248906Y0165657D01*
X0248935Y0165838D01*
X0248969Y0166018D01*
X0249007Y0166198D01*
X0249049Y0166376D01*
X0249096Y0166554D01*
X0249147Y0166730D01*
X0249202Y0166905D01*
X0249262Y0167078D01*
X0249326Y0167250D01*
X0249394Y0167421D01*
X0249466Y0167589D01*
X0249543Y0167756D01*
X0249623Y0167921D01*
X0249708Y0168084D01*
X0249796Y0168244D01*
X0249888Y0168403D01*
X0249985Y0168559D01*
X0250085Y0168713D01*
X0250189Y0168864D01*
X0250296Y0169013D01*
X0250407Y0169159D01*
X0250522Y0169302D01*
X0250640Y0169442D01*
X0250761Y0169580D01*
X0250886Y0169714D01*
X0251014Y0169846D01*
X0251146Y0169974D01*
X0251280Y0170099D01*
X0251418Y0170220D01*
X0251558Y0170338D01*
X0251701Y0170453D01*
X0251847Y0170564D01*
X0251996Y0170671D01*
X0252147Y0170775D01*
X0252301Y0170875D01*
X0252457Y0170972D01*
X0252616Y0171064D01*
X0252776Y0171152D01*
X0252939Y0171237D01*
X0253104Y0171317D01*
X0253271Y0171394D01*
X0253439Y0171466D01*
X0253610Y0171534D01*
X0253782Y0171598D01*
X0253955Y0171658D01*
X0254130Y0171713D01*
X0254306Y0171764D01*
X0254484Y0171811D01*
X0254662Y0171853D01*
X0254842Y0171891D01*
X0255022Y0171925D01*
X0255203Y0171954D01*
X0255385Y0171979D01*
X0255567Y0171999D01*
X0255750Y0172015D01*
X0255933Y0172026D01*
X0256117Y0172033D01*
X0256300Y0172035D01*
X0256483Y0172033D01*
X0256667Y0172026D01*
X0256850Y0172015D01*
X0257033Y0171999D01*
X0257215Y0171979D01*
X0257397Y0171954D01*
X0257578Y0171925D01*
X0257758Y0171891D01*
X0257938Y0171853D01*
X0258116Y0171811D01*
X0258294Y0171764D01*
X0258470Y0171713D01*
X0258645Y0171658D01*
X0258818Y0171598D01*
X0258990Y0171534D01*
X0259161Y0171466D01*
X0259329Y0171394D01*
X0259496Y0171317D01*
X0259661Y0171237D01*
X0259824Y0171152D01*
X0259984Y0171064D01*
X0260143Y0170972D01*
X0260299Y0170875D01*
X0260453Y0170775D01*
X0260604Y0170671D01*
X0260753Y0170564D01*
X0260899Y0170453D01*
X0261042Y0170338D01*
X0261182Y0170220D01*
X0261320Y0170099D01*
X0261454Y0169974D01*
X0261586Y0169846D01*
X0261714Y0169714D01*
X0261839Y0169580D01*
X0261960Y0169442D01*
X0262078Y0169302D01*
X0262193Y0169159D01*
X0262304Y0169013D01*
X0262411Y0168864D01*
X0262515Y0168713D01*
X0262615Y0168559D01*
X0262712Y0168403D01*
X0262804Y0168244D01*
X0262892Y0168084D01*
X0262977Y0167921D01*
X0263057Y0167756D01*
X0263134Y0167589D01*
X0263206Y0167421D01*
X0263274Y0167250D01*
X0263338Y0167078D01*
X0263398Y0166905D01*
X0263453Y0166730D01*
X0263504Y0166554D01*
X0263551Y0166376D01*
X0263593Y0166198D01*
X0263631Y0166018D01*
X0263665Y0165838D01*
X0263694Y0165657D01*
X0263719Y0165475D01*
X0263739Y0165293D01*
X0263755Y0165110D01*
X0263766Y0164927D01*
X0263773Y0164743D01*
X0263775Y0164560D01*
X0263773Y0164377D01*
X0263766Y0164193D01*
X0263755Y0164010D01*
X0263739Y0163827D01*
X0263719Y0163645D01*
X0263694Y0163463D01*
X0263665Y0163282D01*
X0263631Y0163102D01*
X0263593Y0162922D01*
X0263551Y0162744D01*
X0263504Y0162566D01*
X0263453Y0162390D01*
X0263398Y0162215D01*
X0263338Y0162042D01*
X0263274Y0161870D01*
X0263206Y0161699D01*
X0263134Y0161531D01*
X0263057Y0161364D01*
X0262977Y0161199D01*
X0262892Y0161036D01*
X0262804Y0160876D01*
X0262712Y0160717D01*
X0262615Y0160561D01*
X0262515Y0160407D01*
X0262411Y0160256D01*
X0262304Y0160107D01*
X0262193Y0159961D01*
X0262078Y0159818D01*
X0261960Y0159678D01*
X0261839Y0159540D01*
X0261714Y0159406D01*
X0261586Y0159274D01*
X0261454Y0159146D01*
X0261320Y0159021D01*
X0261182Y0158900D01*
X0261042Y0158782D01*
X0260899Y0158667D01*
X0260753Y0158556D01*
X0260604Y0158449D01*
X0260453Y0158345D01*
X0260299Y0158245D01*
X0260143Y0158148D01*
X0259984Y0158056D01*
X0259824Y0157968D01*
X0259661Y0157883D01*
X0259496Y0157803D01*
X0259329Y0157726D01*
X0259161Y0157654D01*
X0258990Y0157586D01*
X0258818Y0157522D01*
X0258645Y0157462D01*
X0258470Y0157407D01*
X0258294Y0157356D01*
X0258116Y0157309D01*
X0257938Y0157267D01*
X0257758Y0157229D01*
X0257578Y0157195D01*
X0257397Y0157166D01*
X0257215Y0157141D01*
X0257033Y0157121D01*
X0256850Y0157105D01*
X0256667Y0157094D01*
X0256483Y0157087D01*
X0256300Y0157085D01*
X0256117Y0157087D01*
X0255933Y0157094D01*
X0255750Y0157105D01*
X0255567Y0157121D01*
X0255385Y0157141D01*
X0255203Y0157166D01*
X0255022Y0157195D01*
X0254842Y0157229D01*
X0254662Y0157267D01*
X0254484Y0157309D01*
X0254306Y0157356D01*
X0254130Y0157407D01*
X0253955Y0157462D01*
X0253782Y0157522D01*
X0253610Y0157586D01*
X0253439Y0157654D01*
X0253271Y0157726D01*
X0253104Y0157803D01*
X0252939Y0157883D01*
X0252776Y0157968D01*
X0252616Y0158056D01*
X0252457Y0158148D01*
X0252301Y0158245D01*
X0252147Y0158345D01*
X0251996Y0158449D01*
X0251847Y0158556D01*
X0251701Y0158667D01*
X0251558Y0158782D01*
X0251418Y0158900D01*
X0251280Y0159021D01*
X0251146Y0159146D01*
X0251014Y0159274D01*
X0250886Y0159406D01*
X0250761Y0159540D01*
X0250640Y0159678D01*
X0250522Y0159818D01*
X0250407Y0159961D01*
X0250296Y0160107D01*
X0250189Y0160256D01*
X0250085Y0160407D01*
X0249985Y0160561D01*
X0249888Y0160717D01*
X0249796Y0160876D01*
X0249708Y0161036D01*
X0249623Y0161199D01*
X0249543Y0161364D01*
X0249466Y0161531D01*
X0249394Y0161699D01*
X0249326Y0161870D01*
X0249262Y0162042D01*
X0249202Y0162215D01*
X0249147Y0162390D01*
X0249096Y0162566D01*
X0249049Y0162744D01*
X0249007Y0162922D01*
X0248969Y0163102D01*
X0248935Y0163282D01*
X0248906Y0163463D01*
X0248881Y0163645D01*
X0248861Y0163827D01*
X0248845Y0164010D01*
X0248834Y0164193D01*
X0248827Y0164377D01*
X0248825Y0164560D01*
X0008825Y0163560D02*
X0008827Y0163743D01*
X0008834Y0163927D01*
X0008845Y0164110D01*
X0008861Y0164293D01*
X0008881Y0164475D01*
X0008906Y0164657D01*
X0008935Y0164838D01*
X0008969Y0165018D01*
X0009007Y0165198D01*
X0009049Y0165376D01*
X0009096Y0165554D01*
X0009147Y0165730D01*
X0009202Y0165905D01*
X0009262Y0166078D01*
X0009326Y0166250D01*
X0009394Y0166421D01*
X0009466Y0166589D01*
X0009543Y0166756D01*
X0009623Y0166921D01*
X0009708Y0167084D01*
X0009796Y0167244D01*
X0009888Y0167403D01*
X0009985Y0167559D01*
X0010085Y0167713D01*
X0010189Y0167864D01*
X0010296Y0168013D01*
X0010407Y0168159D01*
X0010522Y0168302D01*
X0010640Y0168442D01*
X0010761Y0168580D01*
X0010886Y0168714D01*
X0011014Y0168846D01*
X0011146Y0168974D01*
X0011280Y0169099D01*
X0011418Y0169220D01*
X0011558Y0169338D01*
X0011701Y0169453D01*
X0011847Y0169564D01*
X0011996Y0169671D01*
X0012147Y0169775D01*
X0012301Y0169875D01*
X0012457Y0169972D01*
X0012616Y0170064D01*
X0012776Y0170152D01*
X0012939Y0170237D01*
X0013104Y0170317D01*
X0013271Y0170394D01*
X0013439Y0170466D01*
X0013610Y0170534D01*
X0013782Y0170598D01*
X0013955Y0170658D01*
X0014130Y0170713D01*
X0014306Y0170764D01*
X0014484Y0170811D01*
X0014662Y0170853D01*
X0014842Y0170891D01*
X0015022Y0170925D01*
X0015203Y0170954D01*
X0015385Y0170979D01*
X0015567Y0170999D01*
X0015750Y0171015D01*
X0015933Y0171026D01*
X0016117Y0171033D01*
X0016300Y0171035D01*
X0016483Y0171033D01*
X0016667Y0171026D01*
X0016850Y0171015D01*
X0017033Y0170999D01*
X0017215Y0170979D01*
X0017397Y0170954D01*
X0017578Y0170925D01*
X0017758Y0170891D01*
X0017938Y0170853D01*
X0018116Y0170811D01*
X0018294Y0170764D01*
X0018470Y0170713D01*
X0018645Y0170658D01*
X0018818Y0170598D01*
X0018990Y0170534D01*
X0019161Y0170466D01*
X0019329Y0170394D01*
X0019496Y0170317D01*
X0019661Y0170237D01*
X0019824Y0170152D01*
X0019984Y0170064D01*
X0020143Y0169972D01*
X0020299Y0169875D01*
X0020453Y0169775D01*
X0020604Y0169671D01*
X0020753Y0169564D01*
X0020899Y0169453D01*
X0021042Y0169338D01*
X0021182Y0169220D01*
X0021320Y0169099D01*
X0021454Y0168974D01*
X0021586Y0168846D01*
X0021714Y0168714D01*
X0021839Y0168580D01*
X0021960Y0168442D01*
X0022078Y0168302D01*
X0022193Y0168159D01*
X0022304Y0168013D01*
X0022411Y0167864D01*
X0022515Y0167713D01*
X0022615Y0167559D01*
X0022712Y0167403D01*
X0022804Y0167244D01*
X0022892Y0167084D01*
X0022977Y0166921D01*
X0023057Y0166756D01*
X0023134Y0166589D01*
X0023206Y0166421D01*
X0023274Y0166250D01*
X0023338Y0166078D01*
X0023398Y0165905D01*
X0023453Y0165730D01*
X0023504Y0165554D01*
X0023551Y0165376D01*
X0023593Y0165198D01*
X0023631Y0165018D01*
X0023665Y0164838D01*
X0023694Y0164657D01*
X0023719Y0164475D01*
X0023739Y0164293D01*
X0023755Y0164110D01*
X0023766Y0163927D01*
X0023773Y0163743D01*
X0023775Y0163560D01*
X0023773Y0163377D01*
X0023766Y0163193D01*
X0023755Y0163010D01*
X0023739Y0162827D01*
X0023719Y0162645D01*
X0023694Y0162463D01*
X0023665Y0162282D01*
X0023631Y0162102D01*
X0023593Y0161922D01*
X0023551Y0161744D01*
X0023504Y0161566D01*
X0023453Y0161390D01*
X0023398Y0161215D01*
X0023338Y0161042D01*
X0023274Y0160870D01*
X0023206Y0160699D01*
X0023134Y0160531D01*
X0023057Y0160364D01*
X0022977Y0160199D01*
X0022892Y0160036D01*
X0022804Y0159876D01*
X0022712Y0159717D01*
X0022615Y0159561D01*
X0022515Y0159407D01*
X0022411Y0159256D01*
X0022304Y0159107D01*
X0022193Y0158961D01*
X0022078Y0158818D01*
X0021960Y0158678D01*
X0021839Y0158540D01*
X0021714Y0158406D01*
X0021586Y0158274D01*
X0021454Y0158146D01*
X0021320Y0158021D01*
X0021182Y0157900D01*
X0021042Y0157782D01*
X0020899Y0157667D01*
X0020753Y0157556D01*
X0020604Y0157449D01*
X0020453Y0157345D01*
X0020299Y0157245D01*
X0020143Y0157148D01*
X0019984Y0157056D01*
X0019824Y0156968D01*
X0019661Y0156883D01*
X0019496Y0156803D01*
X0019329Y0156726D01*
X0019161Y0156654D01*
X0018990Y0156586D01*
X0018818Y0156522D01*
X0018645Y0156462D01*
X0018470Y0156407D01*
X0018294Y0156356D01*
X0018116Y0156309D01*
X0017938Y0156267D01*
X0017758Y0156229D01*
X0017578Y0156195D01*
X0017397Y0156166D01*
X0017215Y0156141D01*
X0017033Y0156121D01*
X0016850Y0156105D01*
X0016667Y0156094D01*
X0016483Y0156087D01*
X0016300Y0156085D01*
X0016117Y0156087D01*
X0015933Y0156094D01*
X0015750Y0156105D01*
X0015567Y0156121D01*
X0015385Y0156141D01*
X0015203Y0156166D01*
X0015022Y0156195D01*
X0014842Y0156229D01*
X0014662Y0156267D01*
X0014484Y0156309D01*
X0014306Y0156356D01*
X0014130Y0156407D01*
X0013955Y0156462D01*
X0013782Y0156522D01*
X0013610Y0156586D01*
X0013439Y0156654D01*
X0013271Y0156726D01*
X0013104Y0156803D01*
X0012939Y0156883D01*
X0012776Y0156968D01*
X0012616Y0157056D01*
X0012457Y0157148D01*
X0012301Y0157245D01*
X0012147Y0157345D01*
X0011996Y0157449D01*
X0011847Y0157556D01*
X0011701Y0157667D01*
X0011558Y0157782D01*
X0011418Y0157900D01*
X0011280Y0158021D01*
X0011146Y0158146D01*
X0011014Y0158274D01*
X0010886Y0158406D01*
X0010761Y0158540D01*
X0010640Y0158678D01*
X0010522Y0158818D01*
X0010407Y0158961D01*
X0010296Y0159107D01*
X0010189Y0159256D01*
X0010085Y0159407D01*
X0009985Y0159561D01*
X0009888Y0159717D01*
X0009796Y0159876D01*
X0009708Y0160036D01*
X0009623Y0160199D01*
X0009543Y0160364D01*
X0009466Y0160531D01*
X0009394Y0160699D01*
X0009326Y0160870D01*
X0009262Y0161042D01*
X0009202Y0161215D01*
X0009147Y0161390D01*
X0009096Y0161566D01*
X0009049Y0161744D01*
X0009007Y0161922D01*
X0008969Y0162102D01*
X0008935Y0162282D01*
X0008906Y0162463D01*
X0008881Y0162645D01*
X0008861Y0162827D01*
X0008845Y0163010D01*
X0008834Y0163193D01*
X0008827Y0163377D01*
X0008825Y0163560D01*
D11*
X0156300Y0115560D02*
X0156300Y0010560D01*
X0266300Y0010560D01*
X0266300Y0115560D01*
X0156300Y0115560D01*
D12*
X0051150Y0084315D02*
X0051150Y0084109D01*
X0050944Y0084109D01*
X0050944Y0084315D01*
X0051150Y0084315D01*
X0051150Y0082720D02*
X0051150Y0080664D01*
X0049094Y0082412D01*
X0047450Y0081795D02*
X0047452Y0081727D01*
X0047458Y0081659D01*
X0047467Y0081592D01*
X0047481Y0081526D01*
X0047498Y0081460D01*
X0047519Y0081395D01*
X0047544Y0081332D01*
X0047572Y0081270D01*
X0047604Y0081210D01*
X0047639Y0081152D01*
X0047677Y0081096D01*
X0047719Y0081042D01*
X0047763Y0080991D01*
X0047811Y0080943D01*
X0047861Y0080897D01*
X0047913Y0080854D01*
X0047968Y0080814D01*
X0048025Y0080777D01*
X0048084Y0080744D01*
X0048145Y0080714D01*
X0048208Y0080688D01*
X0048272Y0080665D01*
X0049095Y0082412D02*
X0049051Y0082455D01*
X0049004Y0082496D01*
X0048955Y0082533D01*
X0048904Y0082568D01*
X0048850Y0082599D01*
X0048795Y0082627D01*
X0048738Y0082651D01*
X0048680Y0082672D01*
X0048620Y0082689D01*
X0048560Y0082703D01*
X0048499Y0082712D01*
X0048437Y0082718D01*
X0048375Y0082720D01*
X0048317Y0082718D01*
X0048259Y0082713D01*
X0048202Y0082704D01*
X0048145Y0082691D01*
X0048089Y0082675D01*
X0048034Y0082655D01*
X0047981Y0082632D01*
X0047929Y0082606D01*
X0047879Y0082576D01*
X0047831Y0082543D01*
X0047785Y0082508D01*
X0047742Y0082469D01*
X0047701Y0082428D01*
X0047662Y0082385D01*
X0047627Y0082339D01*
X0047594Y0082291D01*
X0047564Y0082241D01*
X0047538Y0082189D01*
X0047515Y0082136D01*
X0047495Y0082081D01*
X0047479Y0082025D01*
X0047466Y0081968D01*
X0047457Y0081911D01*
X0047452Y0081853D01*
X0047450Y0081795D01*
X0046150Y0081468D02*
X0046150Y0080543D01*
X0046148Y0080491D01*
X0046142Y0080438D01*
X0046133Y0080387D01*
X0046120Y0080336D01*
X0046103Y0080286D01*
X0046082Y0080238D01*
X0046058Y0080191D01*
X0046031Y0080146D01*
X0046000Y0080104D01*
X0045966Y0080063D01*
X0045930Y0080025D01*
X0045891Y0079990D01*
X0045849Y0079958D01*
X0045806Y0079929D01*
X0045760Y0079904D01*
X0045712Y0079881D01*
X0045663Y0079863D01*
X0045613Y0079847D01*
X0045562Y0079836D01*
X0045510Y0079828D01*
X0045457Y0079824D01*
X0045405Y0079824D01*
X0045352Y0079828D01*
X0045300Y0079836D01*
X0045249Y0079847D01*
X0045199Y0079863D01*
X0045150Y0079881D01*
X0045102Y0079904D01*
X0045056Y0079929D01*
X0045013Y0079958D01*
X0044971Y0079990D01*
X0044932Y0080025D01*
X0044896Y0080063D01*
X0044862Y0080104D01*
X0044831Y0080146D01*
X0044804Y0080191D01*
X0044780Y0080238D01*
X0044759Y0080286D01*
X0044742Y0080336D01*
X0044729Y0080387D01*
X0044720Y0080438D01*
X0044714Y0080491D01*
X0044712Y0080543D01*
X0044711Y0080543D02*
X0044711Y0081468D01*
X0044300Y0081468D02*
X0046150Y0081468D01*
X0046150Y0083221D02*
X0043683Y0083221D01*
X0043683Y0084455D01*
X0044094Y0084455D01*
X0044300Y0085605D02*
X0045533Y0085605D01*
X0045581Y0085607D01*
X0045630Y0085613D01*
X0045677Y0085622D01*
X0045724Y0085635D01*
X0045769Y0085652D01*
X0045813Y0085672D01*
X0045855Y0085696D01*
X0045896Y0085723D01*
X0045934Y0085753D01*
X0045969Y0085786D01*
X0046002Y0085821D01*
X0046032Y0085859D01*
X0046059Y0085900D01*
X0046083Y0085942D01*
X0046103Y0085986D01*
X0046120Y0086031D01*
X0046133Y0086078D01*
X0046142Y0086125D01*
X0046148Y0086174D01*
X0046150Y0086222D01*
X0046150Y0087044D01*
X0046150Y0088481D02*
X0042450Y0088481D01*
X0043683Y0088481D02*
X0043683Y0089509D01*
X0043685Y0089557D01*
X0043691Y0089606D01*
X0043700Y0089653D01*
X0043713Y0089700D01*
X0043730Y0089745D01*
X0043750Y0089789D01*
X0043774Y0089831D01*
X0043801Y0089872D01*
X0043831Y0089910D01*
X0043864Y0089945D01*
X0043899Y0089978D01*
X0043937Y0090008D01*
X0043978Y0090035D01*
X0044020Y0090059D01*
X0044064Y0090079D01*
X0044109Y0090096D01*
X0044156Y0090109D01*
X0044203Y0090118D01*
X0044252Y0090124D01*
X0044300Y0090126D01*
X0044300Y0090125D02*
X0046150Y0090125D01*
X0048272Y0087554D02*
X0050328Y0085910D01*
X0051150Y0086732D02*
X0051148Y0086784D01*
X0051143Y0086837D01*
X0051134Y0086888D01*
X0051121Y0086939D01*
X0051105Y0086989D01*
X0051086Y0087038D01*
X0051063Y0087085D01*
X0051037Y0087131D01*
X0051008Y0087174D01*
X0050976Y0087216D01*
X0050942Y0087255D01*
X0050904Y0087292D01*
X0050864Y0087326D01*
X0050822Y0087358D01*
X0050778Y0087386D01*
X0050732Y0087411D01*
X0050685Y0087433D01*
X0050636Y0087452D01*
X0051150Y0086732D02*
X0051148Y0086680D01*
X0051143Y0086627D01*
X0051134Y0086576D01*
X0051121Y0086525D01*
X0051105Y0086475D01*
X0051086Y0086426D01*
X0051063Y0086379D01*
X0051037Y0086333D01*
X0051008Y0086290D01*
X0050976Y0086248D01*
X0050942Y0086209D01*
X0050904Y0086172D01*
X0050864Y0086138D01*
X0050822Y0086106D01*
X0050778Y0086078D01*
X0050732Y0086053D01*
X0050685Y0086031D01*
X0050636Y0086012D01*
X0049300Y0087760D02*
X0049194Y0087758D01*
X0049087Y0087753D01*
X0048981Y0087743D01*
X0048876Y0087730D01*
X0048771Y0087714D01*
X0048666Y0087693D01*
X0048563Y0087670D01*
X0048460Y0087642D01*
X0048358Y0087611D01*
X0048258Y0087576D01*
X0048158Y0087538D01*
X0048060Y0087497D01*
X0047964Y0087452D01*
X0047915Y0087433D01*
X0047868Y0087411D01*
X0047822Y0087386D01*
X0047778Y0087358D01*
X0047736Y0087326D01*
X0047696Y0087292D01*
X0047658Y0087255D01*
X0047624Y0087216D01*
X0047592Y0087174D01*
X0047563Y0087131D01*
X0047537Y0087085D01*
X0047514Y0087038D01*
X0047495Y0086989D01*
X0047479Y0086939D01*
X0047466Y0086888D01*
X0047457Y0086837D01*
X0047452Y0086784D01*
X0047450Y0086732D01*
X0047452Y0086680D01*
X0047457Y0086627D01*
X0047466Y0086576D01*
X0047479Y0086525D01*
X0047495Y0086475D01*
X0047514Y0086426D01*
X0047537Y0086379D01*
X0047563Y0086333D01*
X0047592Y0086290D01*
X0047624Y0086248D01*
X0047658Y0086209D01*
X0047696Y0086172D01*
X0047736Y0086138D01*
X0047778Y0086106D01*
X0047822Y0086078D01*
X0047868Y0086053D01*
X0047915Y0086031D01*
X0047964Y0086012D01*
X0049300Y0087760D02*
X0049406Y0087758D01*
X0049513Y0087753D01*
X0049619Y0087743D01*
X0049724Y0087730D01*
X0049829Y0087714D01*
X0049934Y0087693D01*
X0050037Y0087670D01*
X0050140Y0087642D01*
X0050242Y0087611D01*
X0050342Y0087576D01*
X0050442Y0087538D01*
X0050540Y0087497D01*
X0050636Y0087452D01*
X0049300Y0085705D02*
X0049194Y0085707D01*
X0049087Y0085712D01*
X0048981Y0085722D01*
X0048876Y0085735D01*
X0048771Y0085751D01*
X0048666Y0085772D01*
X0048563Y0085795D01*
X0048460Y0085823D01*
X0048358Y0085854D01*
X0048258Y0085889D01*
X0048158Y0085927D01*
X0048060Y0085968D01*
X0047964Y0086013D01*
X0044300Y0085605D02*
X0044252Y0085607D01*
X0044203Y0085613D01*
X0044156Y0085622D01*
X0044109Y0085635D01*
X0044064Y0085652D01*
X0044020Y0085672D01*
X0043978Y0085696D01*
X0043937Y0085723D01*
X0043899Y0085753D01*
X0043864Y0085786D01*
X0043831Y0085821D01*
X0043801Y0085859D01*
X0043774Y0085900D01*
X0043750Y0085942D01*
X0043730Y0085986D01*
X0043713Y0086031D01*
X0043700Y0086078D01*
X0043691Y0086125D01*
X0043685Y0086174D01*
X0043683Y0086222D01*
X0043683Y0087044D01*
X0041150Y0087468D02*
X0041150Y0086543D01*
X0041148Y0086491D01*
X0041142Y0086438D01*
X0041133Y0086387D01*
X0041120Y0086336D01*
X0041103Y0086286D01*
X0041082Y0086238D01*
X0041058Y0086191D01*
X0041031Y0086146D01*
X0041000Y0086104D01*
X0040966Y0086063D01*
X0040930Y0086025D01*
X0040891Y0085990D01*
X0040849Y0085958D01*
X0040806Y0085929D01*
X0040760Y0085904D01*
X0040712Y0085881D01*
X0040663Y0085863D01*
X0040613Y0085847D01*
X0040562Y0085836D01*
X0040510Y0085828D01*
X0040457Y0085824D01*
X0040405Y0085824D01*
X0040352Y0085828D01*
X0040300Y0085836D01*
X0040249Y0085847D01*
X0040199Y0085863D01*
X0040150Y0085881D01*
X0040102Y0085904D01*
X0040056Y0085929D01*
X0040013Y0085958D01*
X0039971Y0085990D01*
X0039932Y0086025D01*
X0039896Y0086063D01*
X0039862Y0086104D01*
X0039831Y0086146D01*
X0039804Y0086191D01*
X0039780Y0086238D01*
X0039759Y0086286D01*
X0039742Y0086336D01*
X0039729Y0086387D01*
X0039720Y0086438D01*
X0039714Y0086491D01*
X0039712Y0086543D01*
X0039711Y0086543D02*
X0039711Y0087468D01*
X0039300Y0087468D02*
X0041150Y0087468D01*
X0041150Y0089221D02*
X0038683Y0089221D01*
X0038683Y0090455D01*
X0039094Y0090455D01*
X0039506Y0091601D02*
X0040328Y0091601D01*
X0040384Y0091603D01*
X0040440Y0091609D01*
X0040495Y0091618D01*
X0040550Y0091631D01*
X0040603Y0091648D01*
X0040655Y0091669D01*
X0040706Y0091693D01*
X0040755Y0091721D01*
X0040802Y0091751D01*
X0040847Y0091785D01*
X0040889Y0091822D01*
X0040929Y0091862D01*
X0040966Y0091904D01*
X0041000Y0091949D01*
X0041030Y0091996D01*
X0041058Y0092045D01*
X0041082Y0092096D01*
X0041103Y0092148D01*
X0041120Y0092201D01*
X0041133Y0092256D01*
X0041142Y0092311D01*
X0041148Y0092367D01*
X0041150Y0092423D01*
X0041148Y0092479D01*
X0041142Y0092535D01*
X0041133Y0092590D01*
X0041120Y0092645D01*
X0041103Y0092698D01*
X0041082Y0092750D01*
X0041058Y0092801D01*
X0041030Y0092850D01*
X0041000Y0092897D01*
X0040966Y0092942D01*
X0040929Y0092984D01*
X0040889Y0093024D01*
X0040847Y0093061D01*
X0040802Y0093095D01*
X0040755Y0093125D01*
X0040706Y0093153D01*
X0040655Y0093177D01*
X0040603Y0093198D01*
X0040550Y0093215D01*
X0040495Y0093228D01*
X0040440Y0093237D01*
X0040384Y0093243D01*
X0040328Y0093245D01*
X0039506Y0093245D01*
X0039450Y0093243D01*
X0039394Y0093237D01*
X0039339Y0093228D01*
X0039284Y0093215D01*
X0039231Y0093198D01*
X0039179Y0093177D01*
X0039128Y0093153D01*
X0039079Y0093125D01*
X0039032Y0093095D01*
X0038987Y0093061D01*
X0038945Y0093024D01*
X0038905Y0092984D01*
X0038868Y0092942D01*
X0038834Y0092897D01*
X0038804Y0092850D01*
X0038776Y0092801D01*
X0038752Y0092750D01*
X0038731Y0092698D01*
X0038714Y0092645D01*
X0038701Y0092590D01*
X0038692Y0092535D01*
X0038686Y0092479D01*
X0038684Y0092423D01*
X0038686Y0092367D01*
X0038692Y0092311D01*
X0038701Y0092256D01*
X0038714Y0092201D01*
X0038731Y0092148D01*
X0038752Y0092096D01*
X0038776Y0092045D01*
X0038804Y0091996D01*
X0038834Y0091949D01*
X0038868Y0091904D01*
X0038905Y0091862D01*
X0038945Y0091822D01*
X0038987Y0091785D01*
X0039032Y0091751D01*
X0039079Y0091721D01*
X0039128Y0091693D01*
X0039179Y0091669D01*
X0039231Y0091648D01*
X0039284Y0091631D01*
X0039339Y0091618D01*
X0039394Y0091609D01*
X0039450Y0091603D01*
X0039506Y0091601D01*
X0038683Y0094841D02*
X0038683Y0095869D01*
X0038685Y0095917D01*
X0038691Y0095966D01*
X0038700Y0096013D01*
X0038713Y0096060D01*
X0038730Y0096105D01*
X0038750Y0096149D01*
X0038774Y0096191D01*
X0038801Y0096232D01*
X0038831Y0096270D01*
X0038864Y0096305D01*
X0038899Y0096338D01*
X0038937Y0096368D01*
X0038978Y0096395D01*
X0039020Y0096419D01*
X0039064Y0096439D01*
X0039109Y0096456D01*
X0039156Y0096469D01*
X0039203Y0096478D01*
X0039252Y0096484D01*
X0039300Y0096486D01*
X0039300Y0096485D02*
X0041150Y0096485D01*
X0041150Y0098063D02*
X0038683Y0098063D01*
X0037656Y0098166D02*
X0037656Y0097960D01*
X0037450Y0097960D01*
X0037450Y0098166D01*
X0037656Y0098166D01*
X0038272Y0101465D02*
X0040328Y0101465D01*
X0040384Y0101467D01*
X0040440Y0101473D01*
X0040495Y0101482D01*
X0040550Y0101495D01*
X0040603Y0101512D01*
X0040655Y0101533D01*
X0040706Y0101557D01*
X0040755Y0101585D01*
X0040802Y0101615D01*
X0040847Y0101649D01*
X0040889Y0101686D01*
X0040929Y0101726D01*
X0040966Y0101768D01*
X0041000Y0101813D01*
X0041030Y0101860D01*
X0041058Y0101909D01*
X0041082Y0101960D01*
X0041103Y0102012D01*
X0041120Y0102065D01*
X0041133Y0102120D01*
X0041142Y0102175D01*
X0041148Y0102231D01*
X0041150Y0102287D01*
X0041150Y0103110D01*
X0040328Y0104441D02*
X0039506Y0104441D01*
X0039450Y0104443D01*
X0039394Y0104449D01*
X0039339Y0104458D01*
X0039284Y0104471D01*
X0039231Y0104488D01*
X0039179Y0104509D01*
X0039128Y0104533D01*
X0039079Y0104561D01*
X0039032Y0104591D01*
X0038987Y0104625D01*
X0038945Y0104662D01*
X0038905Y0104702D01*
X0038868Y0104744D01*
X0038834Y0104789D01*
X0038804Y0104836D01*
X0038776Y0104885D01*
X0038752Y0104936D01*
X0038731Y0104988D01*
X0038714Y0105041D01*
X0038701Y0105096D01*
X0038692Y0105151D01*
X0038686Y0105207D01*
X0038684Y0105263D01*
X0038686Y0105319D01*
X0038692Y0105375D01*
X0038701Y0105430D01*
X0038714Y0105485D01*
X0038731Y0105538D01*
X0038752Y0105590D01*
X0038776Y0105641D01*
X0038804Y0105690D01*
X0038834Y0105737D01*
X0038868Y0105782D01*
X0038905Y0105824D01*
X0038945Y0105864D01*
X0038987Y0105901D01*
X0039032Y0105935D01*
X0039079Y0105965D01*
X0039128Y0105993D01*
X0039179Y0106017D01*
X0039231Y0106038D01*
X0039284Y0106055D01*
X0039339Y0106068D01*
X0039394Y0106077D01*
X0039450Y0106083D01*
X0039506Y0106085D01*
X0040328Y0106085D01*
X0040384Y0106083D01*
X0040440Y0106077D01*
X0040495Y0106068D01*
X0040550Y0106055D01*
X0040603Y0106038D01*
X0040655Y0106017D01*
X0040706Y0105993D01*
X0040755Y0105965D01*
X0040802Y0105935D01*
X0040847Y0105901D01*
X0040889Y0105864D01*
X0040929Y0105824D01*
X0040966Y0105782D01*
X0041000Y0105737D01*
X0041030Y0105690D01*
X0041058Y0105641D01*
X0041082Y0105590D01*
X0041103Y0105538D01*
X0041120Y0105485D01*
X0041133Y0105430D01*
X0041142Y0105375D01*
X0041148Y0105319D01*
X0041150Y0105263D01*
X0041148Y0105207D01*
X0041142Y0105151D01*
X0041133Y0105096D01*
X0041120Y0105041D01*
X0041103Y0104988D01*
X0041082Y0104936D01*
X0041058Y0104885D01*
X0041030Y0104836D01*
X0041000Y0104789D01*
X0040966Y0104744D01*
X0040929Y0104702D01*
X0040889Y0104662D01*
X0040847Y0104625D01*
X0040802Y0104591D01*
X0040755Y0104561D01*
X0040706Y0104533D01*
X0040655Y0104509D01*
X0040603Y0104488D01*
X0040550Y0104471D01*
X0040495Y0104458D01*
X0040440Y0104449D01*
X0040384Y0104443D01*
X0040328Y0104441D01*
X0043272Y0104681D02*
X0043328Y0104683D01*
X0043384Y0104689D01*
X0043439Y0104698D01*
X0043494Y0104711D01*
X0043547Y0104728D01*
X0043599Y0104749D01*
X0043650Y0104773D01*
X0043699Y0104801D01*
X0043746Y0104831D01*
X0043791Y0104865D01*
X0043833Y0104902D01*
X0043873Y0104942D01*
X0043910Y0104984D01*
X0043944Y0105029D01*
X0043974Y0105076D01*
X0044002Y0105125D01*
X0044026Y0105176D01*
X0044047Y0105228D01*
X0044064Y0105281D01*
X0044077Y0105336D01*
X0044086Y0105391D01*
X0044092Y0105447D01*
X0044094Y0105503D01*
X0044092Y0105559D01*
X0044086Y0105615D01*
X0044077Y0105670D01*
X0044064Y0105725D01*
X0044047Y0105778D01*
X0044026Y0105830D01*
X0044002Y0105881D01*
X0043974Y0105930D01*
X0043944Y0105977D01*
X0043910Y0106022D01*
X0043873Y0106064D01*
X0043833Y0106104D01*
X0043791Y0106141D01*
X0043746Y0106175D01*
X0043699Y0106205D01*
X0043650Y0106233D01*
X0043599Y0106257D01*
X0043547Y0106278D01*
X0043494Y0106295D01*
X0043439Y0106308D01*
X0043384Y0106317D01*
X0043328Y0106323D01*
X0043272Y0106325D01*
X0043216Y0106323D01*
X0043160Y0106317D01*
X0043105Y0106308D01*
X0043050Y0106295D01*
X0042997Y0106278D01*
X0042945Y0106257D01*
X0042894Y0106233D01*
X0042845Y0106205D01*
X0042798Y0106175D01*
X0042753Y0106141D01*
X0042711Y0106104D01*
X0042671Y0106064D01*
X0042634Y0106022D01*
X0042600Y0105977D01*
X0042570Y0105930D01*
X0042542Y0105881D01*
X0042518Y0105830D01*
X0042497Y0105778D01*
X0042480Y0105725D01*
X0042467Y0105670D01*
X0042458Y0105615D01*
X0042452Y0105559D01*
X0042450Y0105503D01*
X0042452Y0105447D01*
X0042458Y0105391D01*
X0042467Y0105336D01*
X0042480Y0105281D01*
X0042497Y0105228D01*
X0042518Y0105176D01*
X0042542Y0105125D01*
X0042570Y0105076D01*
X0042600Y0105029D01*
X0042634Y0104984D01*
X0042671Y0104942D01*
X0042711Y0104902D01*
X0042753Y0104865D01*
X0042798Y0104831D01*
X0042845Y0104801D01*
X0042894Y0104773D01*
X0042945Y0104749D01*
X0042997Y0104728D01*
X0043050Y0104711D01*
X0043105Y0104698D01*
X0043160Y0104689D01*
X0043216Y0104683D01*
X0043272Y0104681D01*
X0045122Y0104475D02*
X0045185Y0104477D01*
X0045248Y0104483D01*
X0045311Y0104493D01*
X0045373Y0104506D01*
X0045434Y0104523D01*
X0045493Y0104544D01*
X0045552Y0104569D01*
X0045608Y0104597D01*
X0045663Y0104629D01*
X0045716Y0104664D01*
X0045766Y0104702D01*
X0045815Y0104743D01*
X0045860Y0104787D01*
X0045903Y0104834D01*
X0045942Y0104883D01*
X0045979Y0104935D01*
X0046012Y0104989D01*
X0046042Y0105045D01*
X0046069Y0105102D01*
X0046092Y0105161D01*
X0046111Y0105222D01*
X0046126Y0105283D01*
X0046138Y0105345D01*
X0046146Y0105408D01*
X0046150Y0105471D01*
X0046150Y0105535D01*
X0046146Y0105598D01*
X0046138Y0105661D01*
X0046126Y0105723D01*
X0046111Y0105784D01*
X0046092Y0105845D01*
X0046069Y0105904D01*
X0046042Y0105961D01*
X0046012Y0106017D01*
X0045979Y0106071D01*
X0045942Y0106123D01*
X0045903Y0106172D01*
X0045860Y0106219D01*
X0045815Y0106263D01*
X0045766Y0106304D01*
X0045716Y0106342D01*
X0045663Y0106377D01*
X0045608Y0106409D01*
X0045552Y0106437D01*
X0045493Y0106462D01*
X0045434Y0106483D01*
X0045373Y0106500D01*
X0045311Y0106513D01*
X0045248Y0106523D01*
X0045185Y0106529D01*
X0045122Y0106531D01*
X0045059Y0106529D01*
X0044996Y0106523D01*
X0044933Y0106513D01*
X0044871Y0106500D01*
X0044810Y0106483D01*
X0044751Y0106462D01*
X0044692Y0106437D01*
X0044636Y0106409D01*
X0044581Y0106377D01*
X0044528Y0106342D01*
X0044478Y0106304D01*
X0044429Y0106263D01*
X0044384Y0106219D01*
X0044341Y0106172D01*
X0044302Y0106123D01*
X0044265Y0106071D01*
X0044232Y0106017D01*
X0044202Y0105961D01*
X0044175Y0105904D01*
X0044152Y0105845D01*
X0044133Y0105784D01*
X0044118Y0105723D01*
X0044106Y0105661D01*
X0044098Y0105598D01*
X0044094Y0105535D01*
X0044094Y0105471D01*
X0044098Y0105408D01*
X0044106Y0105345D01*
X0044118Y0105283D01*
X0044133Y0105222D01*
X0044152Y0105161D01*
X0044175Y0105102D01*
X0044202Y0105045D01*
X0044232Y0104989D01*
X0044265Y0104935D01*
X0044302Y0104883D01*
X0044341Y0104834D01*
X0044384Y0104787D01*
X0044429Y0104743D01*
X0044478Y0104702D01*
X0044528Y0104664D01*
X0044581Y0104629D01*
X0044636Y0104597D01*
X0044692Y0104569D01*
X0044751Y0104544D01*
X0044810Y0104523D01*
X0044871Y0104506D01*
X0044933Y0104493D01*
X0044996Y0104483D01*
X0045059Y0104477D01*
X0045122Y0104475D01*
X0046150Y0102931D02*
X0046150Y0100875D01*
X0046150Y0101903D02*
X0042450Y0101903D01*
X0043272Y0100875D01*
X0044300Y0097276D02*
X0044406Y0097278D01*
X0044513Y0097283D01*
X0044619Y0097293D01*
X0044724Y0097306D01*
X0044829Y0097322D01*
X0044934Y0097343D01*
X0045037Y0097366D01*
X0045140Y0097394D01*
X0045242Y0097425D01*
X0045342Y0097460D01*
X0045442Y0097498D01*
X0045540Y0097539D01*
X0045636Y0097584D01*
X0045328Y0097481D02*
X0043272Y0099125D01*
X0042964Y0099023D02*
X0042915Y0099004D01*
X0042868Y0098982D01*
X0042822Y0098957D01*
X0042778Y0098929D01*
X0042736Y0098897D01*
X0042696Y0098863D01*
X0042658Y0098826D01*
X0042624Y0098787D01*
X0042592Y0098745D01*
X0042563Y0098702D01*
X0042537Y0098656D01*
X0042514Y0098609D01*
X0042495Y0098560D01*
X0042479Y0098510D01*
X0042466Y0098459D01*
X0042457Y0098408D01*
X0042452Y0098355D01*
X0042450Y0098303D01*
X0042452Y0098251D01*
X0042457Y0098198D01*
X0042466Y0098147D01*
X0042479Y0098096D01*
X0042495Y0098046D01*
X0042514Y0097997D01*
X0042537Y0097950D01*
X0042563Y0097904D01*
X0042592Y0097861D01*
X0042624Y0097819D01*
X0042658Y0097780D01*
X0042696Y0097743D01*
X0042736Y0097709D01*
X0042778Y0097677D01*
X0042822Y0097649D01*
X0042868Y0097624D01*
X0042915Y0097602D01*
X0042964Y0097583D01*
X0042964Y0099023D02*
X0043060Y0099068D01*
X0043158Y0099109D01*
X0043258Y0099147D01*
X0043358Y0099182D01*
X0043460Y0099213D01*
X0043563Y0099241D01*
X0043666Y0099264D01*
X0043771Y0099285D01*
X0043876Y0099301D01*
X0043981Y0099314D01*
X0044087Y0099324D01*
X0044194Y0099329D01*
X0044300Y0099331D01*
X0044300Y0097276D02*
X0044194Y0097278D01*
X0044087Y0097283D01*
X0043981Y0097293D01*
X0043876Y0097306D01*
X0043771Y0097322D01*
X0043666Y0097343D01*
X0043563Y0097366D01*
X0043460Y0097394D01*
X0043358Y0097425D01*
X0043258Y0097460D01*
X0043158Y0097498D01*
X0043060Y0097539D01*
X0042964Y0097584D01*
X0044300Y0099331D02*
X0044406Y0099329D01*
X0044513Y0099324D01*
X0044619Y0099314D01*
X0044724Y0099301D01*
X0044829Y0099285D01*
X0044934Y0099264D01*
X0045037Y0099241D01*
X0045140Y0099213D01*
X0045242Y0099182D01*
X0045342Y0099147D01*
X0045442Y0099109D01*
X0045540Y0099068D01*
X0045636Y0099023D01*
X0045685Y0099004D01*
X0045732Y0098982D01*
X0045778Y0098957D01*
X0045822Y0098929D01*
X0045864Y0098897D01*
X0045904Y0098863D01*
X0045942Y0098826D01*
X0045976Y0098787D01*
X0046008Y0098745D01*
X0046037Y0098702D01*
X0046063Y0098656D01*
X0046086Y0098609D01*
X0046105Y0098560D01*
X0046121Y0098510D01*
X0046134Y0098459D01*
X0046143Y0098408D01*
X0046148Y0098355D01*
X0046150Y0098303D01*
X0046148Y0098251D01*
X0046143Y0098198D01*
X0046134Y0098147D01*
X0046121Y0098096D01*
X0046105Y0098046D01*
X0046086Y0097997D01*
X0046063Y0097950D01*
X0046037Y0097904D01*
X0046008Y0097861D01*
X0045976Y0097819D01*
X0045942Y0097780D01*
X0045904Y0097743D01*
X0045864Y0097709D01*
X0045822Y0097677D01*
X0045778Y0097649D01*
X0045732Y0097624D01*
X0045685Y0097602D01*
X0045636Y0097583D01*
X0046150Y0095731D02*
X0046150Y0093675D01*
X0044094Y0095423D01*
X0042450Y0094806D02*
X0042452Y0094738D01*
X0042458Y0094670D01*
X0042467Y0094603D01*
X0042481Y0094537D01*
X0042498Y0094471D01*
X0042519Y0094406D01*
X0042544Y0094343D01*
X0042572Y0094281D01*
X0042604Y0094221D01*
X0042639Y0094163D01*
X0042677Y0094107D01*
X0042719Y0094053D01*
X0042763Y0094002D01*
X0042811Y0093954D01*
X0042861Y0093908D01*
X0042913Y0093865D01*
X0042968Y0093825D01*
X0043025Y0093788D01*
X0043084Y0093755D01*
X0043145Y0093725D01*
X0043208Y0093699D01*
X0043272Y0093676D01*
X0044095Y0095423D02*
X0044051Y0095466D01*
X0044004Y0095507D01*
X0043955Y0095544D01*
X0043904Y0095579D01*
X0043850Y0095610D01*
X0043795Y0095638D01*
X0043738Y0095662D01*
X0043680Y0095683D01*
X0043620Y0095700D01*
X0043560Y0095714D01*
X0043499Y0095723D01*
X0043437Y0095729D01*
X0043375Y0095731D01*
X0043317Y0095729D01*
X0043259Y0095724D01*
X0043202Y0095715D01*
X0043145Y0095702D01*
X0043089Y0095686D01*
X0043034Y0095666D01*
X0042981Y0095643D01*
X0042929Y0095617D01*
X0042879Y0095587D01*
X0042831Y0095554D01*
X0042785Y0095519D01*
X0042742Y0095480D01*
X0042701Y0095439D01*
X0042662Y0095396D01*
X0042627Y0095350D01*
X0042594Y0095302D01*
X0042564Y0095252D01*
X0042538Y0095200D01*
X0042515Y0095147D01*
X0042495Y0095092D01*
X0042479Y0095036D01*
X0042466Y0094979D01*
X0042457Y0094922D01*
X0042452Y0094864D01*
X0042450Y0094806D01*
X0041150Y0094841D02*
X0038683Y0094841D01*
X0038272Y0101466D02*
X0038216Y0101468D01*
X0038160Y0101474D01*
X0038105Y0101483D01*
X0038050Y0101496D01*
X0037997Y0101513D01*
X0037945Y0101534D01*
X0037894Y0101558D01*
X0037845Y0101586D01*
X0037798Y0101616D01*
X0037753Y0101650D01*
X0037711Y0101687D01*
X0037671Y0101727D01*
X0037634Y0101769D01*
X0037600Y0101814D01*
X0037570Y0101861D01*
X0037542Y0101910D01*
X0037518Y0101960D01*
X0037497Y0102013D01*
X0037480Y0102066D01*
X0037467Y0102121D01*
X0037458Y0102176D01*
X0037452Y0102232D01*
X0037450Y0102288D01*
X0037450Y0102287D02*
X0037450Y0103110D01*
X0038683Y0107681D02*
X0038683Y0108709D01*
X0038685Y0108757D01*
X0038691Y0108806D01*
X0038700Y0108853D01*
X0038713Y0108900D01*
X0038730Y0108945D01*
X0038750Y0108989D01*
X0038774Y0109031D01*
X0038801Y0109072D01*
X0038831Y0109110D01*
X0038864Y0109145D01*
X0038899Y0109178D01*
X0038937Y0109208D01*
X0038978Y0109235D01*
X0039020Y0109259D01*
X0039064Y0109279D01*
X0039109Y0109296D01*
X0039156Y0109309D01*
X0039203Y0109318D01*
X0039252Y0109324D01*
X0039300Y0109326D01*
X0039300Y0109325D02*
X0041150Y0109325D01*
X0041150Y0107681D02*
X0038683Y0107681D01*
X0038683Y0110618D02*
X0038683Y0111852D01*
X0037450Y0111029D02*
X0040533Y0111029D01*
X0040581Y0111031D01*
X0040630Y0111037D01*
X0040677Y0111046D01*
X0040724Y0111059D01*
X0040769Y0111076D01*
X0040813Y0111096D01*
X0040855Y0111120D01*
X0040896Y0111147D01*
X0040934Y0111177D01*
X0040969Y0111210D01*
X0041002Y0111245D01*
X0041032Y0111283D01*
X0041059Y0111324D01*
X0041083Y0111366D01*
X0041103Y0111410D01*
X0041120Y0111455D01*
X0041133Y0111502D01*
X0041142Y0111549D01*
X0041148Y0111598D01*
X0041150Y0111646D01*
X0041150Y0111852D01*
X0041150Y0113341D02*
X0038683Y0113341D01*
X0038683Y0114574D01*
X0039094Y0114574D01*
X0039506Y0115721D02*
X0040328Y0115721D01*
X0040384Y0115723D01*
X0040440Y0115729D01*
X0040495Y0115738D01*
X0040550Y0115751D01*
X0040603Y0115768D01*
X0040655Y0115789D01*
X0040706Y0115813D01*
X0040755Y0115841D01*
X0040802Y0115871D01*
X0040847Y0115905D01*
X0040889Y0115942D01*
X0040929Y0115982D01*
X0040966Y0116024D01*
X0041000Y0116069D01*
X0041030Y0116116D01*
X0041058Y0116165D01*
X0041082Y0116216D01*
X0041103Y0116268D01*
X0041120Y0116321D01*
X0041133Y0116376D01*
X0041142Y0116431D01*
X0041148Y0116487D01*
X0041150Y0116543D01*
X0041148Y0116599D01*
X0041142Y0116655D01*
X0041133Y0116710D01*
X0041120Y0116765D01*
X0041103Y0116818D01*
X0041082Y0116870D01*
X0041058Y0116921D01*
X0041030Y0116970D01*
X0041000Y0117017D01*
X0040966Y0117062D01*
X0040929Y0117104D01*
X0040889Y0117144D01*
X0040847Y0117181D01*
X0040802Y0117215D01*
X0040755Y0117245D01*
X0040706Y0117273D01*
X0040655Y0117297D01*
X0040603Y0117318D01*
X0040550Y0117335D01*
X0040495Y0117348D01*
X0040440Y0117357D01*
X0040384Y0117363D01*
X0040328Y0117365D01*
X0039506Y0117365D01*
X0039450Y0117363D01*
X0039394Y0117357D01*
X0039339Y0117348D01*
X0039284Y0117335D01*
X0039231Y0117318D01*
X0039179Y0117297D01*
X0039128Y0117273D01*
X0039079Y0117245D01*
X0039032Y0117215D01*
X0038987Y0117181D01*
X0038945Y0117144D01*
X0038905Y0117104D01*
X0038868Y0117062D01*
X0038834Y0117017D01*
X0038804Y0116970D01*
X0038776Y0116921D01*
X0038752Y0116870D01*
X0038731Y0116818D01*
X0038714Y0116765D01*
X0038701Y0116710D01*
X0038692Y0116655D01*
X0038686Y0116599D01*
X0038684Y0116543D01*
X0038686Y0116487D01*
X0038692Y0116431D01*
X0038701Y0116376D01*
X0038714Y0116321D01*
X0038731Y0116268D01*
X0038752Y0116216D01*
X0038776Y0116165D01*
X0038804Y0116116D01*
X0038834Y0116069D01*
X0038868Y0116024D01*
X0038905Y0115982D01*
X0038945Y0115942D01*
X0038987Y0115905D01*
X0039032Y0115871D01*
X0039079Y0115841D01*
X0039128Y0115813D01*
X0039179Y0115789D01*
X0039231Y0115768D01*
X0039284Y0115751D01*
X0039339Y0115738D01*
X0039394Y0115729D01*
X0039450Y0115723D01*
X0039506Y0115721D01*
X0040533Y0118890D02*
X0037450Y0118890D01*
X0040533Y0118890D02*
X0040581Y0118892D01*
X0040630Y0118898D01*
X0040677Y0118907D01*
X0040724Y0118920D01*
X0040769Y0118937D01*
X0040813Y0118957D01*
X0040855Y0118981D01*
X0040896Y0119008D01*
X0040934Y0119038D01*
X0040969Y0119071D01*
X0041002Y0119106D01*
X0041032Y0119144D01*
X0041059Y0119185D01*
X0041083Y0119227D01*
X0041103Y0119271D01*
X0041120Y0119316D01*
X0041133Y0119363D01*
X0041142Y0119410D01*
X0041148Y0119459D01*
X0041150Y0119507D01*
X0041150Y0122887D02*
X0037450Y0122887D01*
X0037450Y0123915D01*
X0037452Y0123971D01*
X0037458Y0124027D01*
X0037467Y0124082D01*
X0037480Y0124137D01*
X0037497Y0124190D01*
X0037518Y0124242D01*
X0037542Y0124293D01*
X0037570Y0124342D01*
X0037600Y0124389D01*
X0037634Y0124434D01*
X0037671Y0124476D01*
X0037711Y0124516D01*
X0037753Y0124553D01*
X0037798Y0124587D01*
X0037845Y0124617D01*
X0037894Y0124645D01*
X0037945Y0124669D01*
X0037997Y0124690D01*
X0038050Y0124707D01*
X0038105Y0124720D01*
X0038160Y0124729D01*
X0038216Y0124735D01*
X0038272Y0124737D01*
X0038328Y0124735D01*
X0038384Y0124729D01*
X0038439Y0124720D01*
X0038494Y0124707D01*
X0038547Y0124690D01*
X0038599Y0124669D01*
X0038650Y0124645D01*
X0038699Y0124617D01*
X0038746Y0124587D01*
X0038791Y0124553D01*
X0038833Y0124516D01*
X0038873Y0124476D01*
X0038910Y0124434D01*
X0038944Y0124389D01*
X0038974Y0124342D01*
X0039002Y0124293D01*
X0039026Y0124242D01*
X0039047Y0124190D01*
X0039064Y0124137D01*
X0039077Y0124082D01*
X0039086Y0124027D01*
X0039092Y0123971D01*
X0039094Y0123915D01*
X0039094Y0122887D01*
X0039094Y0123915D02*
X0039096Y0123978D01*
X0039102Y0124041D01*
X0039112Y0124104D01*
X0039125Y0124166D01*
X0039142Y0124227D01*
X0039163Y0124286D01*
X0039188Y0124345D01*
X0039216Y0124401D01*
X0039248Y0124456D01*
X0039283Y0124509D01*
X0039321Y0124559D01*
X0039362Y0124608D01*
X0039406Y0124653D01*
X0039453Y0124696D01*
X0039502Y0124735D01*
X0039554Y0124772D01*
X0039608Y0124805D01*
X0039664Y0124835D01*
X0039721Y0124862D01*
X0039780Y0124885D01*
X0039841Y0124904D01*
X0039902Y0124919D01*
X0039964Y0124931D01*
X0040027Y0124939D01*
X0040090Y0124943D01*
X0040154Y0124943D01*
X0040217Y0124939D01*
X0040280Y0124931D01*
X0040342Y0124919D01*
X0040403Y0124904D01*
X0040464Y0124885D01*
X0040523Y0124862D01*
X0040580Y0124835D01*
X0040636Y0124805D01*
X0040690Y0124772D01*
X0040742Y0124735D01*
X0040791Y0124696D01*
X0040838Y0124653D01*
X0040882Y0124608D01*
X0040923Y0124559D01*
X0040961Y0124509D01*
X0040996Y0124456D01*
X0041028Y0124401D01*
X0041056Y0124345D01*
X0041081Y0124286D01*
X0041102Y0124227D01*
X0041119Y0124166D01*
X0041132Y0124104D01*
X0041142Y0124041D01*
X0041148Y0123978D01*
X0041150Y0123915D01*
X0041150Y0122887D01*
X0040328Y0126281D02*
X0039506Y0126281D01*
X0039450Y0126283D01*
X0039394Y0126289D01*
X0039339Y0126298D01*
X0039284Y0126311D01*
X0039231Y0126328D01*
X0039179Y0126349D01*
X0039128Y0126373D01*
X0039079Y0126401D01*
X0039032Y0126431D01*
X0038987Y0126465D01*
X0038945Y0126502D01*
X0038905Y0126542D01*
X0038868Y0126584D01*
X0038834Y0126629D01*
X0038804Y0126676D01*
X0038776Y0126725D01*
X0038752Y0126776D01*
X0038731Y0126828D01*
X0038714Y0126881D01*
X0038701Y0126936D01*
X0038692Y0126991D01*
X0038686Y0127047D01*
X0038684Y0127103D01*
X0038686Y0127159D01*
X0038692Y0127215D01*
X0038701Y0127270D01*
X0038714Y0127325D01*
X0038731Y0127378D01*
X0038752Y0127430D01*
X0038776Y0127481D01*
X0038804Y0127530D01*
X0038834Y0127577D01*
X0038868Y0127622D01*
X0038905Y0127664D01*
X0038945Y0127704D01*
X0038987Y0127741D01*
X0039032Y0127775D01*
X0039079Y0127805D01*
X0039128Y0127833D01*
X0039179Y0127857D01*
X0039231Y0127878D01*
X0039284Y0127895D01*
X0039339Y0127908D01*
X0039394Y0127917D01*
X0039450Y0127923D01*
X0039506Y0127925D01*
X0040328Y0127925D01*
X0040384Y0127923D01*
X0040440Y0127917D01*
X0040495Y0127908D01*
X0040550Y0127895D01*
X0040603Y0127878D01*
X0040655Y0127857D01*
X0040706Y0127833D01*
X0040755Y0127805D01*
X0040802Y0127775D01*
X0040847Y0127741D01*
X0040889Y0127704D01*
X0040929Y0127664D01*
X0040966Y0127622D01*
X0041000Y0127577D01*
X0041030Y0127530D01*
X0041058Y0127481D01*
X0041082Y0127430D01*
X0041103Y0127378D01*
X0041120Y0127325D01*
X0041133Y0127270D01*
X0041142Y0127215D01*
X0041148Y0127159D01*
X0041150Y0127103D01*
X0041148Y0127047D01*
X0041142Y0126991D01*
X0041133Y0126936D01*
X0041120Y0126881D01*
X0041103Y0126828D01*
X0041082Y0126776D01*
X0041058Y0126725D01*
X0041030Y0126676D01*
X0041000Y0126629D01*
X0040966Y0126584D01*
X0040929Y0126542D01*
X0040889Y0126502D01*
X0040847Y0126465D01*
X0040802Y0126431D01*
X0040755Y0126401D01*
X0040706Y0126373D01*
X0040655Y0126349D01*
X0040603Y0126328D01*
X0040550Y0126311D01*
X0040495Y0126298D01*
X0040440Y0126289D01*
X0040384Y0126283D01*
X0040328Y0126281D01*
X0038683Y0129588D02*
X0038683Y0130411D01*
X0038685Y0130459D01*
X0038691Y0130508D01*
X0038700Y0130555D01*
X0038713Y0130602D01*
X0038730Y0130647D01*
X0038750Y0130691D01*
X0038774Y0130733D01*
X0038801Y0130774D01*
X0038831Y0130812D01*
X0038864Y0130847D01*
X0038899Y0130880D01*
X0038937Y0130910D01*
X0038978Y0130937D01*
X0039020Y0130961D01*
X0039064Y0130981D01*
X0039109Y0130998D01*
X0039156Y0131011D01*
X0039203Y0131020D01*
X0039252Y0131026D01*
X0039300Y0131028D01*
X0039300Y0131027D02*
X0041150Y0131027D01*
X0041150Y0130102D01*
X0041148Y0130050D01*
X0041142Y0129997D01*
X0041133Y0129946D01*
X0041120Y0129895D01*
X0041103Y0129845D01*
X0041082Y0129797D01*
X0041058Y0129750D01*
X0041031Y0129705D01*
X0041000Y0129663D01*
X0040966Y0129622D01*
X0040930Y0129584D01*
X0040891Y0129549D01*
X0040849Y0129517D01*
X0040806Y0129488D01*
X0040760Y0129463D01*
X0040712Y0129440D01*
X0040663Y0129422D01*
X0040613Y0129406D01*
X0040562Y0129395D01*
X0040510Y0129387D01*
X0040457Y0129383D01*
X0040405Y0129383D01*
X0040352Y0129387D01*
X0040300Y0129395D01*
X0040249Y0129406D01*
X0040199Y0129422D01*
X0040150Y0129440D01*
X0040102Y0129463D01*
X0040056Y0129488D01*
X0040013Y0129517D01*
X0039971Y0129549D01*
X0039932Y0129584D01*
X0039896Y0129622D01*
X0039862Y0129663D01*
X0039831Y0129705D01*
X0039804Y0129750D01*
X0039780Y0129797D01*
X0039759Y0129845D01*
X0039742Y0129895D01*
X0039729Y0129946D01*
X0039720Y0129997D01*
X0039714Y0130050D01*
X0039712Y0130102D01*
X0039711Y0130102D02*
X0039711Y0131027D01*
X0038683Y0132781D02*
X0038683Y0134014D01*
X0039094Y0134014D01*
X0039300Y0135143D02*
X0040533Y0135143D01*
X0040533Y0135142D02*
X0040581Y0135144D01*
X0040630Y0135150D01*
X0040677Y0135159D01*
X0040724Y0135172D01*
X0040769Y0135189D01*
X0040813Y0135209D01*
X0040855Y0135233D01*
X0040896Y0135260D01*
X0040934Y0135290D01*
X0040969Y0135323D01*
X0041002Y0135358D01*
X0041032Y0135396D01*
X0041059Y0135437D01*
X0041083Y0135479D01*
X0041103Y0135523D01*
X0041120Y0135568D01*
X0041133Y0135615D01*
X0041142Y0135662D01*
X0041148Y0135711D01*
X0041150Y0135759D01*
X0041150Y0136787D01*
X0037450Y0136787D01*
X0038683Y0136787D02*
X0038683Y0135759D01*
X0038685Y0135711D01*
X0038691Y0135662D01*
X0038700Y0135615D01*
X0038713Y0135568D01*
X0038730Y0135523D01*
X0038750Y0135479D01*
X0038774Y0135437D01*
X0038801Y0135396D01*
X0038831Y0135358D01*
X0038864Y0135323D01*
X0038899Y0135290D01*
X0038937Y0135260D01*
X0038978Y0135233D01*
X0039020Y0135209D01*
X0039064Y0135189D01*
X0039109Y0135172D01*
X0039156Y0135159D01*
X0039203Y0135150D01*
X0039252Y0135144D01*
X0039300Y0135142D01*
X0038683Y0132781D02*
X0041150Y0132781D01*
X0050636Y0086013D02*
X0050540Y0085968D01*
X0050442Y0085927D01*
X0050342Y0085889D01*
X0050242Y0085854D01*
X0050140Y0085823D01*
X0050037Y0085795D01*
X0049934Y0085772D01*
X0049829Y0085751D01*
X0049724Y0085735D01*
X0049619Y0085722D01*
X0049513Y0085712D01*
X0049406Y0085707D01*
X0049300Y0085705D01*
X0044300Y0081468D02*
X0044252Y0081466D01*
X0044203Y0081460D01*
X0044156Y0081451D01*
X0044109Y0081438D01*
X0044064Y0081421D01*
X0044020Y0081401D01*
X0043978Y0081377D01*
X0043937Y0081350D01*
X0043899Y0081320D01*
X0043864Y0081287D01*
X0043831Y0081252D01*
X0043801Y0081214D01*
X0043774Y0081173D01*
X0043750Y0081131D01*
X0043730Y0081087D01*
X0043713Y0081042D01*
X0043700Y0080995D01*
X0043691Y0080948D01*
X0043685Y0080899D01*
X0043683Y0080851D01*
X0043683Y0080029D01*
X0042450Y0078177D02*
X0046150Y0078177D01*
X0044506Y0076943D02*
X0042450Y0078177D01*
X0041150Y0078177D02*
X0037450Y0078177D01*
X0039506Y0076943D01*
X0037450Y0075710D01*
X0041150Y0075710D01*
X0042450Y0075710D02*
X0044506Y0076943D01*
X0046150Y0075710D02*
X0042450Y0075710D01*
X0048683Y0075710D02*
X0051150Y0076532D01*
X0048683Y0077354D01*
X0041150Y0080543D02*
X0041150Y0081468D01*
X0039300Y0081468D01*
X0039711Y0081468D02*
X0039711Y0080543D01*
X0039300Y0081468D02*
X0039252Y0081466D01*
X0039203Y0081460D01*
X0039156Y0081451D01*
X0039109Y0081438D01*
X0039064Y0081421D01*
X0039020Y0081401D01*
X0038978Y0081377D01*
X0038937Y0081350D01*
X0038899Y0081320D01*
X0038864Y0081287D01*
X0038831Y0081252D01*
X0038801Y0081214D01*
X0038774Y0081173D01*
X0038750Y0081131D01*
X0038730Y0081087D01*
X0038713Y0081042D01*
X0038700Y0080995D01*
X0038691Y0080948D01*
X0038685Y0080899D01*
X0038683Y0080851D01*
X0038683Y0080029D01*
X0039712Y0080543D02*
X0039714Y0080491D01*
X0039720Y0080438D01*
X0039729Y0080387D01*
X0039742Y0080336D01*
X0039759Y0080286D01*
X0039780Y0080238D01*
X0039804Y0080191D01*
X0039831Y0080146D01*
X0039862Y0080104D01*
X0039896Y0080063D01*
X0039932Y0080025D01*
X0039971Y0079990D01*
X0040013Y0079958D01*
X0040056Y0079929D01*
X0040102Y0079904D01*
X0040150Y0079881D01*
X0040199Y0079863D01*
X0040249Y0079847D01*
X0040300Y0079836D01*
X0040352Y0079828D01*
X0040405Y0079824D01*
X0040457Y0079824D01*
X0040510Y0079828D01*
X0040562Y0079836D01*
X0040613Y0079847D01*
X0040663Y0079863D01*
X0040712Y0079881D01*
X0040760Y0079904D01*
X0040806Y0079929D01*
X0040849Y0079958D01*
X0040891Y0079990D01*
X0040930Y0080025D01*
X0040966Y0080063D01*
X0041000Y0080104D01*
X0041031Y0080146D01*
X0041058Y0080191D01*
X0041082Y0080238D01*
X0041103Y0080286D01*
X0041120Y0080336D01*
X0041133Y0080387D01*
X0041142Y0080438D01*
X0041148Y0080491D01*
X0041150Y0080543D01*
X0040533Y0083085D02*
X0039300Y0083085D01*
X0039252Y0083087D01*
X0039203Y0083093D01*
X0039156Y0083102D01*
X0039109Y0083115D01*
X0039064Y0083132D01*
X0039020Y0083152D01*
X0038978Y0083176D01*
X0038937Y0083203D01*
X0038899Y0083233D01*
X0038864Y0083266D01*
X0038831Y0083301D01*
X0038801Y0083339D01*
X0038774Y0083380D01*
X0038750Y0083422D01*
X0038730Y0083466D01*
X0038713Y0083511D01*
X0038700Y0083558D01*
X0038691Y0083605D01*
X0038685Y0083654D01*
X0038683Y0083702D01*
X0038683Y0084524D01*
X0038683Y0086029D02*
X0038683Y0086851D01*
X0038685Y0086899D01*
X0038691Y0086948D01*
X0038700Y0086995D01*
X0038713Y0087042D01*
X0038730Y0087087D01*
X0038750Y0087131D01*
X0038774Y0087173D01*
X0038801Y0087214D01*
X0038831Y0087252D01*
X0038864Y0087287D01*
X0038899Y0087320D01*
X0038937Y0087350D01*
X0038978Y0087377D01*
X0039020Y0087401D01*
X0039064Y0087421D01*
X0039109Y0087438D01*
X0039156Y0087451D01*
X0039203Y0087460D01*
X0039252Y0087466D01*
X0039300Y0087468D01*
X0041150Y0084524D02*
X0041150Y0083702D01*
X0041148Y0083654D01*
X0041142Y0083605D01*
X0041133Y0083558D01*
X0041120Y0083511D01*
X0041103Y0083466D01*
X0041083Y0083422D01*
X0041059Y0083380D01*
X0041032Y0083339D01*
X0041002Y0083301D01*
X0040969Y0083266D01*
X0040934Y0083233D01*
X0040896Y0083203D01*
X0040855Y0083176D01*
X0040813Y0083152D01*
X0040769Y0083132D01*
X0040724Y0083115D01*
X0040677Y0083102D01*
X0040630Y0083093D01*
X0040581Y0083087D01*
X0040533Y0083085D01*
D13*
X0049757Y0004310D02*
X0050285Y0004310D01*
X0050325Y0004308D01*
X0050365Y0004302D01*
X0050404Y0004293D01*
X0050442Y0004280D01*
X0050478Y0004263D01*
X0050513Y0004243D01*
X0050546Y0004220D01*
X0050576Y0004193D01*
X0050604Y0004164D01*
X0050629Y0004133D01*
X0050650Y0004099D01*
X0050669Y0004063D01*
X0050684Y0004026D01*
X0050695Y0003987D01*
X0050703Y0003948D01*
X0050707Y0003908D01*
X0050707Y0003868D01*
X0050703Y0003828D01*
X0050695Y0003789D01*
X0050684Y0003750D01*
X0050669Y0003713D01*
X0050650Y0003677D01*
X0050629Y0003643D01*
X0050604Y0003612D01*
X0050576Y0003583D01*
X0050546Y0003556D01*
X0050513Y0003533D01*
X0050478Y0003513D01*
X0050442Y0003496D01*
X0050404Y0003483D01*
X0050365Y0003474D01*
X0050325Y0003468D01*
X0050285Y0003466D01*
X0049757Y0003466D01*
X0050285Y0003466D02*
X0050330Y0003464D01*
X0050374Y0003458D01*
X0050418Y0003449D01*
X0050461Y0003436D01*
X0050502Y0003419D01*
X0050543Y0003399D01*
X0050581Y0003375D01*
X0050617Y0003349D01*
X0050650Y0003319D01*
X0050681Y0003287D01*
X0050710Y0003252D01*
X0050735Y0003215D01*
X0050756Y0003176D01*
X0050775Y0003135D01*
X0050790Y0003093D01*
X0050801Y0003049D01*
X0050809Y0003005D01*
X0050813Y0002960D01*
X0050813Y0002916D01*
X0050809Y0002871D01*
X0050801Y0002827D01*
X0050790Y0002783D01*
X0050775Y0002741D01*
X0050756Y0002700D01*
X0050735Y0002661D01*
X0050710Y0002624D01*
X0050681Y0002589D01*
X0050650Y0002557D01*
X0050617Y0002527D01*
X0050581Y0002501D01*
X0050543Y0002477D01*
X0050502Y0002457D01*
X0050461Y0002440D01*
X0050418Y0002427D01*
X0050374Y0002418D01*
X0050330Y0002412D01*
X0050285Y0002410D01*
X0049757Y0002410D01*
X0049757Y0004310D01*
X0051787Y0003888D02*
X0052315Y0004310D01*
X0052315Y0002410D01*
X0051787Y0002410D02*
X0052843Y0002410D01*
D14*
X0111300Y0018060D02*
X0111300Y0023060D01*
X0113800Y0025560D01*
X0118800Y0025560D01*
X0121300Y0023060D01*
X0123800Y0025560D01*
X0128800Y0025560D01*
X0131300Y0023060D01*
X0133800Y0025560D01*
X0138800Y0025560D01*
X0141300Y0023060D01*
X0141300Y0018060D01*
X0138800Y0015560D01*
X0133800Y0015560D01*
X0131300Y0018060D01*
X0128800Y0015560D01*
X0123800Y0015560D01*
X0121300Y0018060D01*
X0118800Y0015560D01*
X0113800Y0015560D01*
X0111300Y0018060D01*
X0113800Y0030560D02*
X0111300Y0033060D01*
X0111300Y0038060D01*
X0113800Y0040560D01*
X0118800Y0040560D01*
X0121300Y0038060D01*
X0123800Y0040560D01*
X0128800Y0040560D01*
X0131300Y0038060D01*
X0133800Y0040560D01*
X0138800Y0040560D01*
X0141300Y0038060D01*
X0141300Y0033060D01*
X0138800Y0030560D01*
X0133800Y0030560D01*
X0131300Y0033060D01*
X0128800Y0030560D01*
X0123800Y0030560D01*
X0121300Y0033060D01*
X0118800Y0030560D01*
X0113800Y0030560D01*
X0113800Y0045560D02*
X0111300Y0048060D01*
X0111300Y0053060D01*
X0113800Y0055560D01*
X0118800Y0055560D01*
X0121300Y0053060D01*
X0123800Y0055560D01*
X0128800Y0055560D01*
X0131300Y0053060D01*
X0133800Y0055560D01*
X0138800Y0055560D01*
X0141300Y0053060D01*
X0141300Y0048060D01*
X0138800Y0045560D01*
X0133800Y0045560D01*
X0131300Y0048060D01*
X0128800Y0045560D01*
X0123800Y0045560D01*
X0121300Y0048060D01*
X0118800Y0045560D01*
X0113800Y0045560D01*
X0113300Y0060560D02*
X0118300Y0060560D01*
X0120800Y0063060D01*
X0123300Y0060560D01*
X0128300Y0060560D01*
X0130800Y0063060D01*
X0130800Y0068060D01*
X0128300Y0070560D01*
X0123300Y0070560D01*
X0120800Y0068060D01*
X0118300Y0070560D01*
X0113300Y0070560D01*
X0110800Y0068060D01*
X0110800Y0063060D01*
X0113300Y0060560D01*
X0113300Y0078060D02*
X0118300Y0078060D01*
X0120800Y0080560D01*
X0123300Y0078060D01*
X0128300Y0078060D01*
X0130800Y0080560D01*
X0130800Y0085560D01*
X0128300Y0088060D01*
X0123300Y0088060D01*
X0120800Y0085560D01*
X0118300Y0088060D01*
X0113300Y0088060D01*
X0110800Y0085560D01*
X0110800Y0080560D01*
X0113300Y0078060D01*
X0112800Y0093060D02*
X0117800Y0093060D01*
X0120300Y0095560D01*
X0122800Y0093060D01*
X0127800Y0093060D01*
X0130300Y0095560D01*
X0132800Y0093060D01*
X0137800Y0093060D01*
X0140300Y0095560D01*
X0142800Y0093060D01*
X0147800Y0093060D01*
X0150300Y0095560D01*
X0150300Y0100560D01*
X0147800Y0103060D01*
X0142800Y0103060D01*
X0140300Y0100560D01*
X0137800Y0103060D01*
X0132800Y0103060D01*
X0130300Y0100560D01*
X0127800Y0103060D01*
X0122800Y0103060D01*
X0120300Y0100560D01*
X0117800Y0103060D01*
X0112800Y0103060D01*
X0110300Y0100560D01*
X0110300Y0095560D01*
X0112800Y0093060D01*
X0112800Y0108560D02*
X0110300Y0111060D01*
X0110300Y0116060D01*
X0112800Y0118560D01*
X0117800Y0118560D01*
X0120300Y0116060D01*
X0122800Y0118560D01*
X0127800Y0118560D01*
X0130300Y0116060D01*
X0132800Y0118560D01*
X0137800Y0118560D01*
X0140300Y0116060D01*
X0140300Y0111060D01*
X0137800Y0108560D01*
X0132800Y0108560D01*
X0130300Y0111060D01*
X0127800Y0108560D01*
X0122800Y0108560D01*
X0120300Y0111060D01*
X0117800Y0108560D01*
X0112800Y0108560D01*
X0112800Y0124060D02*
X0110300Y0126560D01*
X0110300Y0131560D01*
X0112800Y0134060D01*
X0117800Y0134060D01*
X0120300Y0131560D01*
X0122800Y0134060D01*
X0127800Y0134060D01*
X0130300Y0131560D01*
X0132800Y0134060D01*
X0137800Y0134060D01*
X0140300Y0131560D01*
X0140300Y0126560D01*
X0137800Y0124060D01*
X0132800Y0124060D01*
X0130300Y0126560D01*
X0127800Y0124060D01*
X0122800Y0124060D01*
X0120300Y0126560D01*
X0117800Y0124060D01*
X0112800Y0124060D01*
X0112800Y0138560D02*
X0117800Y0138560D01*
X0120300Y0141060D01*
X0122800Y0138560D01*
X0127800Y0138560D01*
X0130300Y0141060D01*
X0130300Y0146060D01*
X0127800Y0148560D01*
X0122800Y0148560D01*
X0120300Y0146060D01*
X0117800Y0148560D01*
X0112800Y0148560D01*
X0110300Y0146060D01*
X0110300Y0141060D01*
X0112800Y0138560D01*
X0155800Y0136060D02*
X0155800Y0131060D01*
X0158300Y0128560D01*
X0163300Y0128560D01*
X0165800Y0131060D01*
X0168300Y0128560D01*
X0173300Y0128560D01*
X0175800Y0131060D01*
X0175800Y0136060D01*
X0173300Y0138560D01*
X0168300Y0138560D01*
X0165800Y0136060D01*
X0163300Y0138560D01*
X0158300Y0138560D01*
X0155800Y0136060D01*
X0176300Y0153060D02*
X0178800Y0150560D01*
X0183800Y0150560D01*
X0186300Y0153060D01*
X0188800Y0150560D01*
X0193800Y0150560D01*
X0196300Y0153060D01*
X0198800Y0150560D01*
X0203800Y0150560D01*
X0206300Y0153060D01*
X0208800Y0150560D01*
X0213800Y0150560D01*
X0216300Y0153060D01*
X0218800Y0150560D01*
X0223800Y0150560D01*
X0226300Y0153060D01*
X0228800Y0150560D01*
X0233800Y0150560D01*
X0236300Y0153060D01*
X0238800Y0150560D01*
X0243800Y0150560D01*
X0246300Y0153060D01*
X0246300Y0158060D01*
X0243800Y0160560D01*
X0238800Y0160560D01*
X0236300Y0158060D01*
X0233800Y0160560D01*
X0228800Y0160560D01*
X0226300Y0158060D01*
X0223800Y0160560D01*
X0218800Y0160560D01*
X0216300Y0158060D01*
X0213800Y0160560D01*
X0208800Y0160560D01*
X0206300Y0158060D01*
X0203800Y0160560D01*
X0198800Y0160560D01*
X0196300Y0158060D01*
X0193800Y0160560D01*
X0188800Y0160560D01*
X0186300Y0158060D01*
X0183800Y0160560D01*
X0178800Y0160560D01*
X0176300Y0158060D01*
X0176300Y0153060D01*
X0226300Y0133560D02*
X0226300Y0128560D01*
X0228800Y0126060D01*
X0233800Y0126060D01*
X0236300Y0128560D01*
X0238800Y0126060D01*
X0243800Y0126060D01*
X0246300Y0128560D01*
X0246300Y0133560D01*
X0243800Y0136060D01*
X0238800Y0136060D01*
X0236300Y0133560D01*
X0233800Y0136060D01*
X0228800Y0136060D01*
X0226300Y0133560D01*
X0191300Y0108060D02*
X0191300Y0103060D01*
X0188800Y0100560D01*
X0191300Y0098060D01*
X0191300Y0093060D01*
X0188800Y0090560D01*
X0191300Y0088060D01*
X0191300Y0083060D01*
X0188800Y0080560D01*
X0183800Y0080560D01*
X0181300Y0083060D01*
X0178800Y0080560D01*
X0173800Y0080560D01*
X0171300Y0083060D01*
X0168800Y0080560D01*
X0163800Y0080560D01*
X0161300Y0083060D01*
X0161300Y0088060D01*
X0163800Y0090560D01*
X0168800Y0090560D01*
X0171300Y0088060D01*
X0173800Y0090560D01*
X0178800Y0090560D01*
X0181300Y0088060D01*
X0183800Y0090560D01*
X0188800Y0090560D01*
X0183800Y0090560D01*
X0181300Y0093060D01*
X0178800Y0090560D01*
X0173800Y0090560D01*
X0171300Y0093060D01*
X0168800Y0090560D01*
X0163800Y0090560D01*
X0161300Y0093060D01*
X0161300Y0098060D01*
X0163800Y0100560D01*
X0168800Y0100560D01*
X0171300Y0098060D01*
X0173800Y0100560D01*
X0178800Y0100560D01*
X0181300Y0098060D01*
X0183800Y0100560D01*
X0188800Y0100560D01*
X0183800Y0100560D01*
X0181300Y0103060D01*
X0178800Y0100560D01*
X0173800Y0100560D01*
X0171300Y0103060D01*
X0168800Y0100560D01*
X0163800Y0100560D01*
X0161300Y0103060D01*
X0161300Y0108060D01*
X0163800Y0110560D01*
X0168800Y0110560D01*
X0171300Y0108060D01*
X0173800Y0110560D01*
X0178800Y0110560D01*
X0181300Y0108060D01*
X0183800Y0110560D01*
X0188800Y0110560D01*
X0191300Y0108060D01*
X0224800Y0073060D02*
X0227300Y0075560D01*
X0232300Y0075560D01*
X0234800Y0073060D01*
X0237300Y0075560D01*
X0242300Y0075560D01*
X0244800Y0073060D01*
X0247300Y0075560D01*
X0252300Y0075560D01*
X0254800Y0073060D01*
X0254800Y0068060D01*
X0252300Y0065560D01*
X0254800Y0063060D01*
X0254800Y0058060D01*
X0252300Y0055560D01*
X0254800Y0053060D01*
X0254800Y0048060D01*
X0252300Y0045560D01*
X0247300Y0045560D01*
X0244800Y0048060D01*
X0242300Y0045560D01*
X0237300Y0045560D01*
X0234800Y0048060D01*
X0232300Y0045560D01*
X0227300Y0045560D01*
X0224800Y0048060D01*
X0224800Y0053060D01*
X0227300Y0055560D01*
X0232300Y0055560D01*
X0234800Y0053060D01*
X0237300Y0055560D01*
X0242300Y0055560D01*
X0244800Y0053060D01*
X0247300Y0055560D01*
X0252300Y0055560D01*
X0247300Y0055560D01*
X0244800Y0058060D01*
X0242300Y0055560D01*
X0237300Y0055560D01*
X0234800Y0058060D01*
X0232300Y0055560D01*
X0227300Y0055560D01*
X0224800Y0058060D01*
X0224800Y0063060D01*
X0227300Y0065560D01*
X0232300Y0065560D01*
X0234800Y0063060D01*
X0237300Y0065560D01*
X0242300Y0065560D01*
X0244800Y0063060D01*
X0247300Y0065560D01*
X0252300Y0065560D01*
X0247300Y0065560D01*
X0244800Y0068060D01*
X0242300Y0065560D01*
X0237300Y0065560D01*
X0234800Y0068060D01*
X0232300Y0065560D01*
X0227300Y0065560D01*
X0224800Y0068060D01*
X0224800Y0073060D01*
X0191300Y0063060D02*
X0191300Y0058060D01*
X0188800Y0055560D01*
X0191300Y0053060D01*
X0191300Y0048060D01*
X0188800Y0045560D01*
X0191300Y0043060D01*
X0191300Y0038060D01*
X0188800Y0035560D01*
X0183800Y0035560D01*
X0181300Y0038060D01*
X0178800Y0035560D01*
X0173800Y0035560D01*
X0171300Y0038060D01*
X0168800Y0035560D01*
X0163800Y0035560D01*
X0161300Y0038060D01*
X0161300Y0043060D01*
X0163800Y0045560D01*
X0168800Y0045560D01*
X0171300Y0043060D01*
X0173800Y0045560D01*
X0178800Y0045560D01*
X0181300Y0043060D01*
X0183800Y0045560D01*
X0188800Y0045560D01*
X0183800Y0045560D01*
X0181300Y0048060D01*
X0178800Y0045560D01*
X0173800Y0045560D01*
X0171300Y0048060D01*
X0168800Y0045560D01*
X0163800Y0045560D01*
X0161300Y0048060D01*
X0161300Y0053060D01*
X0163800Y0055560D01*
X0168800Y0055560D01*
X0171300Y0053060D01*
X0173800Y0055560D01*
X0178800Y0055560D01*
X0181300Y0053060D01*
X0183800Y0055560D01*
X0188800Y0055560D01*
X0183800Y0055560D01*
X0181300Y0058060D01*
X0178800Y0055560D01*
X0173800Y0055560D01*
X0171300Y0058060D01*
X0168800Y0055560D01*
X0163800Y0055560D01*
X0161300Y0058060D01*
X0161300Y0063060D01*
X0163800Y0065560D01*
X0168800Y0065560D01*
X0171300Y0063060D01*
X0173800Y0065560D01*
X0178800Y0065560D01*
X0181300Y0063060D01*
X0183800Y0065560D01*
X0188800Y0065560D01*
X0191300Y0063060D01*
X0188800Y0025560D02*
X0183800Y0025560D01*
X0181300Y0023060D01*
X0178800Y0025560D01*
X0173800Y0025560D01*
X0171300Y0023060D01*
X0168800Y0025560D01*
X0163800Y0025560D01*
X0161300Y0023060D01*
X0161300Y0018060D01*
X0163800Y0015560D01*
X0168800Y0015560D01*
X0171300Y0018060D01*
X0173800Y0015560D01*
X0178800Y0015560D01*
X0181300Y0018060D01*
X0183800Y0015560D01*
X0188800Y0015560D01*
X0191300Y0018060D01*
X0191300Y0023060D01*
X0188800Y0025560D01*
D15*
X0199000Y0133260D02*
X0199000Y0134538D01*
X0199002Y0134607D01*
X0199007Y0134676D01*
X0199017Y0134745D01*
X0199030Y0134813D01*
X0199047Y0134880D01*
X0199067Y0134946D01*
X0199091Y0135011D01*
X0199118Y0135075D01*
X0199149Y0135137D01*
X0199183Y0135197D01*
X0199220Y0135255D01*
X0199261Y0135311D01*
X0199304Y0135365D01*
X0199350Y0135417D01*
X0199399Y0135466D01*
X0199451Y0135512D01*
X0199505Y0135555D01*
X0199561Y0135596D01*
X0199619Y0135633D01*
X0199679Y0135667D01*
X0199741Y0135698D01*
X0199805Y0135725D01*
X0199870Y0135749D01*
X0199936Y0135769D01*
X0200003Y0135786D01*
X0200071Y0135799D01*
X0200140Y0135809D01*
X0200209Y0135814D01*
X0200278Y0135816D01*
X0202322Y0135816D01*
X0202391Y0135814D01*
X0202460Y0135809D01*
X0202529Y0135799D01*
X0202597Y0135786D01*
X0202664Y0135769D01*
X0202730Y0135749D01*
X0202795Y0135725D01*
X0202859Y0135698D01*
X0202921Y0135667D01*
X0202981Y0135633D01*
X0203039Y0135596D01*
X0203095Y0135555D01*
X0203149Y0135512D01*
X0203201Y0135466D01*
X0203250Y0135417D01*
X0203296Y0135365D01*
X0203339Y0135311D01*
X0203380Y0135255D01*
X0203417Y0135197D01*
X0203451Y0135137D01*
X0203482Y0135075D01*
X0203509Y0135011D01*
X0203533Y0134946D01*
X0203553Y0134880D01*
X0203570Y0134813D01*
X0203583Y0134745D01*
X0203593Y0134676D01*
X0203598Y0134607D01*
X0203600Y0134538D01*
X0203600Y0133260D01*
X0199000Y0133260D01*
X0203600Y0137910D02*
X0203600Y0140466D01*
X0203600Y0137910D02*
X0201044Y0140082D01*
X0199000Y0139316D02*
X0199002Y0139242D01*
X0199007Y0139168D01*
X0199017Y0139094D01*
X0199030Y0139021D01*
X0199046Y0138948D01*
X0199067Y0138877D01*
X0199091Y0138807D01*
X0199118Y0138738D01*
X0199149Y0138670D01*
X0199183Y0138604D01*
X0199220Y0138540D01*
X0199261Y0138478D01*
X0199305Y0138417D01*
X0199351Y0138360D01*
X0199401Y0138304D01*
X0199453Y0138251D01*
X0199508Y0138201D01*
X0199565Y0138154D01*
X0199625Y0138110D01*
X0199687Y0138068D01*
X0199750Y0138030D01*
X0199816Y0137995D01*
X0199883Y0137964D01*
X0199952Y0137936D01*
X0200022Y0137911D01*
X0201044Y0140082D02*
X0200997Y0140129D01*
X0200947Y0140173D01*
X0200895Y0140215D01*
X0200841Y0140254D01*
X0200785Y0140289D01*
X0200727Y0140322D01*
X0200667Y0140352D01*
X0200606Y0140378D01*
X0200543Y0140401D01*
X0200479Y0140420D01*
X0200415Y0140436D01*
X0200349Y0140449D01*
X0200283Y0140458D01*
X0200217Y0140463D01*
X0200150Y0140465D01*
X0200150Y0140466D02*
X0200083Y0140464D01*
X0200016Y0140458D01*
X0199950Y0140449D01*
X0199885Y0140435D01*
X0199820Y0140418D01*
X0199757Y0140397D01*
X0199695Y0140372D01*
X0199634Y0140344D01*
X0199575Y0140312D01*
X0199518Y0140277D01*
X0199463Y0140238D01*
X0199411Y0140197D01*
X0199361Y0140152D01*
X0199314Y0140105D01*
X0199269Y0140055D01*
X0199228Y0140003D01*
X0199189Y0139948D01*
X0199154Y0139891D01*
X0199122Y0139832D01*
X0199094Y0139771D01*
X0199069Y0139709D01*
X0199048Y0139646D01*
X0199031Y0139581D01*
X0199017Y0139516D01*
X0199008Y0139450D01*
X0199002Y0139383D01*
X0199000Y0139316D01*
X0209000Y0139188D02*
X0213600Y0139188D01*
X0213600Y0137910D02*
X0213600Y0140466D01*
X0210022Y0137910D02*
X0209000Y0139188D01*
X0210278Y0135816D02*
X0212322Y0135816D01*
X0212391Y0135814D01*
X0212460Y0135809D01*
X0212529Y0135799D01*
X0212597Y0135786D01*
X0212664Y0135769D01*
X0212730Y0135749D01*
X0212795Y0135725D01*
X0212859Y0135698D01*
X0212921Y0135667D01*
X0212981Y0135633D01*
X0213039Y0135596D01*
X0213095Y0135555D01*
X0213149Y0135512D01*
X0213201Y0135466D01*
X0213250Y0135417D01*
X0213296Y0135365D01*
X0213339Y0135311D01*
X0213380Y0135255D01*
X0213417Y0135197D01*
X0213451Y0135137D01*
X0213482Y0135075D01*
X0213509Y0135011D01*
X0213533Y0134946D01*
X0213553Y0134880D01*
X0213570Y0134813D01*
X0213583Y0134745D01*
X0213593Y0134676D01*
X0213598Y0134607D01*
X0213600Y0134538D01*
X0213600Y0133260D01*
X0209000Y0133260D01*
X0209000Y0134538D01*
X0209002Y0134607D01*
X0209007Y0134676D01*
X0209017Y0134745D01*
X0209030Y0134813D01*
X0209047Y0134880D01*
X0209067Y0134946D01*
X0209091Y0135011D01*
X0209118Y0135075D01*
X0209149Y0135137D01*
X0209183Y0135197D01*
X0209220Y0135255D01*
X0209261Y0135311D01*
X0209304Y0135365D01*
X0209350Y0135417D01*
X0209399Y0135466D01*
X0209451Y0135512D01*
X0209505Y0135555D01*
X0209561Y0135596D01*
X0209619Y0135633D01*
X0209679Y0135667D01*
X0209741Y0135698D01*
X0209805Y0135725D01*
X0209870Y0135749D01*
X0209936Y0135769D01*
X0210003Y0135786D01*
X0210071Y0135799D01*
X0210140Y0135809D01*
X0210209Y0135814D01*
X0210278Y0135816D01*
X0219000Y0134538D02*
X0219000Y0133260D01*
X0223600Y0133260D01*
X0223600Y0134538D01*
X0223598Y0134607D01*
X0223593Y0134676D01*
X0223583Y0134745D01*
X0223570Y0134813D01*
X0223553Y0134880D01*
X0223533Y0134946D01*
X0223509Y0135011D01*
X0223482Y0135075D01*
X0223451Y0135137D01*
X0223417Y0135197D01*
X0223380Y0135255D01*
X0223339Y0135311D01*
X0223296Y0135365D01*
X0223250Y0135417D01*
X0223201Y0135466D01*
X0223149Y0135512D01*
X0223095Y0135555D01*
X0223039Y0135596D01*
X0222981Y0135633D01*
X0222921Y0135667D01*
X0222859Y0135698D01*
X0222795Y0135725D01*
X0222730Y0135749D01*
X0222664Y0135769D01*
X0222597Y0135786D01*
X0222529Y0135799D01*
X0222460Y0135809D01*
X0222391Y0135814D01*
X0222322Y0135816D01*
X0220278Y0135816D01*
X0220209Y0135814D01*
X0220140Y0135809D01*
X0220071Y0135799D01*
X0220003Y0135786D01*
X0219936Y0135769D01*
X0219870Y0135749D01*
X0219805Y0135725D01*
X0219741Y0135698D01*
X0219679Y0135667D01*
X0219619Y0135633D01*
X0219561Y0135596D01*
X0219505Y0135555D01*
X0219451Y0135512D01*
X0219399Y0135466D01*
X0219350Y0135417D01*
X0219304Y0135365D01*
X0219261Y0135311D01*
X0219220Y0135255D01*
X0219183Y0135197D01*
X0219149Y0135137D01*
X0219118Y0135075D01*
X0219091Y0135011D01*
X0219067Y0134946D01*
X0219047Y0134880D01*
X0219030Y0134813D01*
X0219017Y0134745D01*
X0219007Y0134676D01*
X0219002Y0134607D01*
X0219000Y0134538D01*
X0221300Y0140466D02*
X0221415Y0140464D01*
X0221529Y0140459D01*
X0221643Y0140450D01*
X0221757Y0140438D01*
X0221871Y0140423D01*
X0221984Y0140404D01*
X0222096Y0140381D01*
X0222208Y0140356D01*
X0222319Y0140326D01*
X0222429Y0140294D01*
X0222538Y0140258D01*
X0222646Y0140219D01*
X0222752Y0140177D01*
X0222857Y0140131D01*
X0222961Y0140083D01*
X0223016Y0140062D01*
X0223069Y0140038D01*
X0223121Y0140011D01*
X0223171Y0139980D01*
X0223219Y0139947D01*
X0223265Y0139910D01*
X0223309Y0139871D01*
X0223350Y0139829D01*
X0223388Y0139785D01*
X0223424Y0139738D01*
X0223456Y0139689D01*
X0223486Y0139638D01*
X0223512Y0139586D01*
X0223535Y0139532D01*
X0223555Y0139477D01*
X0223571Y0139420D01*
X0223584Y0139363D01*
X0223593Y0139305D01*
X0223598Y0139247D01*
X0223600Y0139188D01*
X0223598Y0139129D01*
X0223593Y0139071D01*
X0223584Y0139013D01*
X0223571Y0138956D01*
X0223555Y0138899D01*
X0223535Y0138844D01*
X0223512Y0138790D01*
X0223486Y0138738D01*
X0223456Y0138687D01*
X0223424Y0138638D01*
X0223388Y0138591D01*
X0223350Y0138547D01*
X0223309Y0138505D01*
X0223265Y0138466D01*
X0223219Y0138429D01*
X0223171Y0138396D01*
X0223121Y0138365D01*
X0223069Y0138338D01*
X0223016Y0138314D01*
X0222961Y0138293D01*
X0222578Y0138166D02*
X0220022Y0140210D01*
X0219639Y0140083D02*
X0219584Y0140062D01*
X0219531Y0140038D01*
X0219479Y0140011D01*
X0219429Y0139980D01*
X0219381Y0139947D01*
X0219335Y0139910D01*
X0219291Y0139871D01*
X0219250Y0139829D01*
X0219212Y0139785D01*
X0219176Y0139738D01*
X0219144Y0139689D01*
X0219114Y0139638D01*
X0219088Y0139586D01*
X0219065Y0139532D01*
X0219045Y0139477D01*
X0219029Y0139420D01*
X0219016Y0139363D01*
X0219007Y0139305D01*
X0219002Y0139247D01*
X0219000Y0139188D01*
X0219002Y0139129D01*
X0219007Y0139071D01*
X0219016Y0139013D01*
X0219029Y0138956D01*
X0219045Y0138899D01*
X0219065Y0138844D01*
X0219088Y0138790D01*
X0219114Y0138738D01*
X0219144Y0138687D01*
X0219176Y0138638D01*
X0219212Y0138591D01*
X0219250Y0138547D01*
X0219291Y0138505D01*
X0219335Y0138466D01*
X0219381Y0138429D01*
X0219429Y0138396D01*
X0219479Y0138365D01*
X0219531Y0138338D01*
X0219584Y0138314D01*
X0219639Y0138293D01*
X0219639Y0140083D02*
X0219743Y0140131D01*
X0219848Y0140177D01*
X0219954Y0140219D01*
X0220062Y0140258D01*
X0220171Y0140294D01*
X0220281Y0140326D01*
X0220392Y0140356D01*
X0220504Y0140381D01*
X0220616Y0140404D01*
X0220729Y0140423D01*
X0220843Y0140438D01*
X0220957Y0140450D01*
X0221071Y0140459D01*
X0221185Y0140464D01*
X0221300Y0140466D01*
X0221300Y0137910D02*
X0221185Y0137912D01*
X0221071Y0137917D01*
X0220957Y0137926D01*
X0220843Y0137938D01*
X0220729Y0137953D01*
X0220616Y0137972D01*
X0220504Y0137995D01*
X0220392Y0138020D01*
X0220281Y0138050D01*
X0220171Y0138082D01*
X0220062Y0138118D01*
X0219954Y0138157D01*
X0219848Y0138199D01*
X0219743Y0138245D01*
X0219639Y0138293D01*
X0221300Y0137910D02*
X0221415Y0137912D01*
X0221529Y0137917D01*
X0221643Y0137926D01*
X0221757Y0137938D01*
X0221871Y0137953D01*
X0221984Y0137972D01*
X0222096Y0137995D01*
X0222208Y0138020D01*
X0222319Y0138050D01*
X0222429Y0138082D01*
X0222538Y0138118D01*
X0222646Y0138157D01*
X0222752Y0138199D01*
X0222857Y0138245D01*
X0222961Y0138293D01*
D16*
X0043740Y0164780D03*
X0043380Y0163140D03*
X0042780Y0162700D03*
X0042800Y0161680D03*
X0042760Y0161600D03*
X0042740Y0161500D03*
X0042280Y0161680D03*
X0042300Y0161780D03*
X0042120Y0161080D03*
X0039900Y0161900D03*
X0039800Y0161840D03*
X0039720Y0161800D03*
X0039660Y0161780D03*
X0039480Y0162000D03*
X0038900Y0161780D03*
X0038620Y0161980D03*
X0038120Y0163600D03*
X0038460Y0163900D03*
X0038700Y0164100D03*
X0038980Y0164340D03*
X0039020Y0164380D03*
X0039340Y0164700D03*
X0039000Y0163880D03*
X0037340Y0163100D03*
X0036820Y0162980D03*
X0036740Y0162940D03*
X0036660Y0162900D03*
X0036640Y0162880D03*
X0036560Y0162840D03*
X0036480Y0162800D03*
X0035200Y0162640D03*
X0035100Y0162700D03*
X0037160Y0160640D03*
X0038300Y0159000D03*
X0038300Y0158980D03*
X0038300Y0158940D03*
X0038300Y0158900D03*
X0038300Y0158880D03*
X0038300Y0158840D03*
X0038300Y0158800D03*
X0038300Y0158780D03*
X0038300Y0158740D03*
X0038300Y0158700D03*
X0038320Y0158680D03*
X0038200Y0158440D03*
X0038300Y0158380D03*
X0038300Y0158340D03*
X0038300Y0158300D03*
X0038320Y0158280D03*
X0038320Y0158240D03*
X0038320Y0158200D03*
X0038300Y0158180D03*
X0038320Y0157880D03*
X0038320Y0157840D03*
X0038320Y0157800D03*
X0038320Y0157680D03*
X0038320Y0157640D03*
X0038320Y0157600D03*
X0038320Y0157300D03*
X0038320Y0157280D03*
X0038320Y0157240D03*
X0038320Y0157200D03*
X0038320Y0157080D03*
X0038320Y0157040D03*
X0038320Y0157000D03*
X0038340Y0156700D03*
X0038320Y0156680D03*
X0038320Y0156640D03*
X0038320Y0156600D03*
X0038340Y0156580D03*
X0038340Y0156540D03*
X0038340Y0156500D03*
X0038320Y0156480D03*
X0038320Y0156440D03*
X0038340Y0156180D03*
X0038340Y0156140D03*
X0038340Y0156100D03*
X0038340Y0156040D03*
X0038340Y0156000D03*
X0038340Y0155980D03*
X0038340Y0155940D03*
X0038340Y0155900D03*
X0038340Y0155880D03*
X0038340Y0155840D03*
X0038340Y0155800D03*
X0038340Y0155780D03*
X0038340Y0155740D03*
X0038340Y0155700D03*
X0038360Y0155600D03*
X0038340Y0155580D03*
X0038460Y0155740D03*
X0038500Y0155780D03*
X0038520Y0155800D03*
X0038680Y0156000D03*
X0038720Y0156040D03*
X0038760Y0156080D03*
X0039200Y0156600D03*
X0039360Y0156800D03*
X0039400Y0156840D03*
X0039820Y0157340D03*
X0039860Y0157380D03*
X0039880Y0157400D03*
X0040280Y0157880D03*
X0040960Y0158240D03*
X0035520Y0165340D03*
X0037340Y0166980D03*
X0037560Y0167080D03*
X0037640Y0167240D03*
X0037560Y0167400D03*
X0037520Y0167480D03*
X0037440Y0167640D03*
X0037840Y0167800D03*
X0037800Y0167880D03*
X0037780Y0167940D03*
X0037760Y0168000D03*
X0037720Y0168080D03*
X0037680Y0168200D03*
X0037640Y0168280D03*
X0037620Y0168340D03*
X0037600Y0168400D03*
X0037560Y0168480D03*
X0037540Y0168540D03*
X0037520Y0168600D03*
X0037480Y0168680D03*
X0037460Y0168700D03*
X0037400Y0168840D03*
X0037320Y0169000D03*
X0037280Y0169080D03*
X0037260Y0169100D03*
X0037220Y0169180D03*
X0037200Y0169200D03*
X0037200Y0169240D03*
X0037160Y0169280D03*
X0037100Y0169380D03*
X0037080Y0169400D03*
X0037040Y0169480D03*
X0036980Y0169580D03*
X0036960Y0169600D03*
X0036940Y0169640D03*
X0036920Y0169680D03*
X0036900Y0169700D03*
X0036840Y0169800D03*
X0036800Y0169840D03*
X0036760Y0169880D03*
X0036700Y0169980D03*
X0036680Y0170000D03*
X0036640Y0170040D03*
X0036540Y0170180D03*
X0036520Y0170200D03*
X0036480Y0170240D03*
X0036460Y0170300D03*
X0035840Y0169880D03*
X0035780Y0169940D03*
X0035740Y0169980D03*
X0035720Y0170000D03*
X0035680Y0170040D03*
X0035580Y0170180D03*
X0035560Y0170200D03*
X0035520Y0170240D03*
X0035480Y0170280D03*
X0035360Y0170440D03*
X0035980Y0169700D03*
X0036000Y0169680D03*
X0036040Y0169640D03*
X0036160Y0169480D03*
X0036200Y0169440D03*
X0036240Y0169400D03*
X0036320Y0169280D03*
X0036360Y0169240D03*
X0036480Y0169080D03*
X0036520Y0169040D03*
X0036640Y0168880D03*
X0036680Y0168840D03*
X0036960Y0168440D03*
X0037880Y0167680D03*
X0037920Y0167600D03*
X0037960Y0167480D03*
X0038040Y0167280D03*
X0038040Y0167240D03*
X0038560Y0167040D03*
X0038680Y0167000D03*
X0038740Y0166980D03*
X0038820Y0166940D03*
X0038900Y0166900D03*
X0039000Y0166840D03*
X0039100Y0166780D03*
X0039140Y0166740D03*
X0039180Y0166700D03*
X0039340Y0166540D03*
X0039380Y0166500D03*
X0039460Y0166380D03*
D17*
X0038480Y0167060D03*
X0038040Y0167260D03*
X0037700Y0167120D03*
X0037640Y0167220D03*
X0037640Y0167260D03*
X0037580Y0167360D03*
X0037560Y0167420D03*
X0037520Y0167460D03*
X0037500Y0167520D03*
X0037440Y0167620D03*
X0037440Y0167660D03*
X0037380Y0167760D03*
X0037340Y0167820D03*
X0037320Y0167860D03*
X0037260Y0167960D03*
X0037200Y0168060D03*
X0037140Y0168160D03*
X0037100Y0168220D03*
X0037080Y0168260D03*
X0036960Y0168420D03*
X0036900Y0168520D03*
X0036840Y0168620D03*
X0036800Y0168660D03*
X0036680Y0168820D03*
X0036580Y0168960D03*
X0036460Y0169120D03*
X0037080Y0169420D03*
X0037200Y0169220D03*
X0036920Y0169660D03*
X0036640Y0170060D03*
X0035880Y0169820D03*
X0035680Y0170060D03*
X0037840Y0167820D03*
X0035240Y0162620D03*
X0036300Y0162120D03*
X0036400Y0161020D03*
X0040180Y0157760D03*
X0040400Y0158020D03*
X0039920Y0157460D03*
X0039760Y0157260D03*
X0039720Y0157220D03*
X0039300Y0156720D03*
X0039240Y0156660D03*
X0039200Y0156620D03*
X0038880Y0156220D03*
X0038820Y0156160D03*
X0038560Y0155860D03*
X0038360Y0155620D03*
X0041480Y0159820D03*
X0042140Y0161220D03*
X0042160Y0161260D03*
X0042180Y0161320D03*
X0042660Y0161120D03*
X0042640Y0161060D03*
X0042640Y0161020D03*
X0042620Y0160960D03*
X0042760Y0161620D03*
D18*
X0042760Y0161580D03*
X0042740Y0161480D03*
X0042700Y0161200D03*
X0042680Y0161180D03*
X0042680Y0161140D03*
X0042660Y0161100D03*
X0042660Y0161080D03*
X0042640Y0160980D03*
X0042120Y0161100D03*
X0042120Y0161140D03*
X0042120Y0161180D03*
X0042140Y0161200D03*
X0042140Y0161240D03*
X0042160Y0161300D03*
X0042280Y0161700D03*
X0041680Y0160680D03*
X0041460Y0159880D03*
X0041480Y0159800D03*
X0040360Y0157980D03*
X0040200Y0157780D03*
X0040160Y0157740D03*
X0039740Y0157240D03*
X0039700Y0157200D03*
X0039680Y0157180D03*
X0039360Y0156780D03*
X0039280Y0156700D03*
X0039160Y0156540D03*
X0038840Y0156180D03*
X0038800Y0156140D03*
X0038640Y0155940D03*
X0038600Y0155900D03*
X0038580Y0155880D03*
X0038380Y0155640D03*
X0038320Y0157340D03*
X0038300Y0158440D03*
X0039040Y0161740D03*
X0039520Y0161740D03*
X0039300Y0162600D03*
X0039240Y0163100D03*
X0038580Y0163200D03*
X0038520Y0163100D03*
X0038580Y0162600D03*
X0038700Y0164080D03*
X0038960Y0164300D03*
X0038980Y0164280D03*
X0037100Y0163040D03*
X0036440Y0162780D03*
X0036320Y0162740D03*
X0035400Y0162580D03*
X0035520Y0165380D03*
X0035540Y0165400D03*
X0037640Y0167100D03*
X0037680Y0167140D03*
X0037660Y0167180D03*
X0037660Y0167200D03*
X0037620Y0167280D03*
X0037600Y0167300D03*
X0037600Y0167340D03*
X0037560Y0167380D03*
X0037540Y0167440D03*
X0037520Y0167500D03*
X0037480Y0167540D03*
X0037480Y0167580D03*
X0037460Y0167600D03*
X0037420Y0167680D03*
X0037400Y0167700D03*
X0037400Y0167740D03*
X0037360Y0167780D03*
X0037300Y0167880D03*
X0037280Y0167940D03*
X0037240Y0167980D03*
X0037220Y0168040D03*
X0037160Y0168140D03*
X0037120Y0168180D03*
X0037060Y0168280D03*
X0037040Y0168300D03*
X0037000Y0168380D03*
X0036980Y0168400D03*
X0036920Y0168500D03*
X0036880Y0168540D03*
X0036860Y0168580D03*
X0036820Y0168640D03*
X0036760Y0168700D03*
X0036720Y0168780D03*
X0036700Y0168800D03*
X0036600Y0168940D03*
X0036560Y0168980D03*
X0036480Y0169100D03*
X0036440Y0169140D03*
X0036280Y0169340D03*
X0036240Y0169380D03*
X0036080Y0169580D03*
X0035640Y0170100D03*
X0035440Y0170340D03*
X0036600Y0170100D03*
X0036840Y0169780D03*
X0037240Y0169140D03*
X0037520Y0168580D03*
X0037560Y0168500D03*
X0037640Y0168300D03*
X0037720Y0168100D03*
X0037800Y0167900D03*
X0037840Y0167780D03*
X0037880Y0167700D03*
X0037900Y0167640D03*
X0037920Y0167580D03*
X0038000Y0167380D03*
X0038060Y0167200D03*
X0038080Y0167180D03*
X0042800Y0164500D03*
X0043720Y0164740D03*
X0042820Y0162800D03*
X0042800Y0162780D03*
D19*
X0042700Y0161220D03*
X0040260Y0162420D03*
X0038860Y0163260D03*
X0038600Y0163320D03*
X0038800Y0163920D03*
X0038760Y0163960D03*
X0038700Y0164060D03*
X0035540Y0165420D03*
X0043680Y0164720D03*
X0038380Y0155660D03*
D20*
X0038380Y0155680D03*
X0038180Y0156180D03*
X0038180Y0157340D03*
X0041660Y0160700D03*
X0042160Y0161380D03*
X0042160Y0161400D03*
X0042840Y0162840D03*
X0042800Y0164480D03*
X0038480Y0163480D03*
X0038360Y0163640D03*
X0038300Y0163740D03*
X0038100Y0163580D03*
X0038960Y0162440D03*
X0038880Y0161640D03*
X0038300Y0167100D03*
D21*
X0038030Y0167300D03*
X0038010Y0167340D03*
X0037990Y0167400D03*
X0037970Y0167440D03*
X0037950Y0167500D03*
X0037930Y0167540D03*
X0037870Y0167740D03*
X0037830Y0167840D03*
X0037770Y0167980D03*
X0037750Y0168040D03*
X0037710Y0168140D03*
X0037690Y0168180D03*
X0037670Y0168240D03*
X0037610Y0168380D03*
X0037590Y0168440D03*
X0037490Y0168640D03*
X0037450Y0168740D03*
X0037430Y0168780D03*
X0037410Y0168800D03*
X0037370Y0168880D03*
X0037370Y0168900D03*
X0037350Y0168940D03*
X0037330Y0168980D03*
X0037290Y0169040D03*
X0037150Y0169300D03*
X0037130Y0169340D03*
X0037070Y0169440D03*
X0037030Y0169500D03*
X0037010Y0169540D03*
X0036870Y0169740D03*
X0036750Y0169900D03*
X0036730Y0169940D03*
X0036610Y0170080D03*
X0036570Y0170140D03*
X0036070Y0169600D03*
X0036110Y0169540D03*
X0036150Y0169500D03*
X0036310Y0169300D03*
X0036390Y0169200D03*
X0036410Y0169180D03*
X0036550Y0169000D03*
X0036630Y0168900D03*
X0036750Y0168740D03*
X0036790Y0168680D03*
X0036850Y0168600D03*
X0036930Y0168480D03*
X0037030Y0168340D03*
X0037090Y0168240D03*
X0037110Y0168200D03*
X0037170Y0168100D03*
X0037190Y0168080D03*
X0037230Y0168000D03*
X0037290Y0167900D03*
X0037330Y0167840D03*
X0037350Y0167800D03*
X0035950Y0169740D03*
X0035910Y0169780D03*
X0035870Y0169840D03*
X0035810Y0169900D03*
X0035650Y0170080D03*
X0035610Y0170140D03*
X0035470Y0170300D03*
X0035410Y0170380D03*
X0035390Y0170400D03*
X0042550Y0164400D03*
X0042790Y0162740D03*
X0042770Y0161640D03*
X0042750Y0161540D03*
X0042270Y0161640D03*
X0042290Y0161740D03*
X0042150Y0161280D03*
X0042650Y0161040D03*
X0042630Y0161000D03*
X0042610Y0160940D03*
X0041470Y0159840D03*
X0040410Y0158040D03*
X0040390Y0158000D03*
X0040330Y0157940D03*
X0040290Y0157900D03*
X0040250Y0157840D03*
X0040210Y0157800D03*
X0039910Y0157440D03*
X0039790Y0157300D03*
X0039770Y0157280D03*
X0039650Y0157140D03*
X0039310Y0156740D03*
X0039270Y0156680D03*
X0039230Y0156640D03*
X0039170Y0156580D03*
X0038890Y0156240D03*
X0038850Y0156200D03*
X0038770Y0156100D03*
X0038670Y0155980D03*
X0038550Y0155840D03*
X0038430Y0155700D03*
X0038330Y0157100D03*
X0038330Y0157140D03*
X0038330Y0157180D03*
X0038310Y0157700D03*
X0038310Y0157740D03*
X0038310Y0157780D03*
X0038310Y0157900D03*
D22*
X0038320Y0157760D03*
X0038320Y0157720D03*
X0038320Y0157320D03*
X0038320Y0157260D03*
X0038320Y0157220D03*
X0038320Y0157160D03*
X0038320Y0157120D03*
X0038320Y0156720D03*
X0038340Y0156660D03*
X0038340Y0156620D03*
X0038320Y0156560D03*
X0038320Y0156520D03*
X0038340Y0156460D03*
X0038340Y0156060D03*
X0038340Y0156020D03*
X0038340Y0155960D03*
X0038340Y0155920D03*
X0038340Y0155860D03*
X0038340Y0155820D03*
X0038340Y0155760D03*
X0038340Y0155720D03*
X0038440Y0155720D03*
X0038480Y0155760D03*
X0038640Y0155960D03*
X0038700Y0156020D03*
X0039160Y0156560D03*
X0039640Y0157120D03*
X0039800Y0157320D03*
X0039840Y0157360D03*
X0040320Y0157920D03*
X0040360Y0157960D03*
X0038320Y0158160D03*
X0038300Y0158220D03*
X0038300Y0158260D03*
X0038300Y0158420D03*
X0038300Y0158720D03*
X0038300Y0158760D03*
X0038300Y0158820D03*
X0038300Y0158860D03*
X0038300Y0158920D03*
X0038300Y0158960D03*
X0038860Y0161660D03*
X0038960Y0161760D03*
X0038820Y0161820D03*
X0038740Y0161860D03*
X0039160Y0161720D03*
X0039440Y0161720D03*
X0039600Y0161760D03*
X0039740Y0161820D03*
X0039820Y0161860D03*
X0039320Y0161960D03*
X0038900Y0162620D03*
X0038580Y0163220D03*
X0038580Y0163260D03*
X0038120Y0163620D03*
X0038960Y0164320D03*
X0039100Y0164460D03*
X0039260Y0164620D03*
X0039300Y0164660D03*
X0039020Y0166820D03*
X0038980Y0166860D03*
X0038620Y0167020D03*
X0038200Y0167120D03*
X0038080Y0167160D03*
X0038060Y0167220D03*
X0038000Y0167360D03*
X0037980Y0167420D03*
X0037880Y0167720D03*
X0037820Y0167860D03*
X0037800Y0167920D03*
X0037740Y0168060D03*
X0037720Y0168120D03*
X0037660Y0168260D03*
X0037640Y0168320D03*
X0037560Y0168520D03*
X0037520Y0168560D03*
X0037500Y0168620D03*
X0037440Y0168760D03*
X0037360Y0168920D03*
X0037240Y0169160D03*
X0037180Y0169260D03*
X0037140Y0169320D03*
X0037120Y0169360D03*
X0037060Y0169460D03*
X0037000Y0169560D03*
X0036880Y0169720D03*
X0036780Y0169860D03*
X0036740Y0169920D03*
X0036720Y0169960D03*
X0036660Y0170020D03*
X0036600Y0170120D03*
X0036560Y0170160D03*
X0036500Y0170220D03*
X0035960Y0169720D03*
X0035920Y0169760D03*
X0035800Y0169920D03*
X0035760Y0169960D03*
X0035640Y0170120D03*
X0035600Y0170160D03*
X0035540Y0170220D03*
X0035500Y0170260D03*
X0035380Y0170420D03*
X0036100Y0169560D03*
X0036180Y0169460D03*
X0036760Y0168720D03*
X0037040Y0168320D03*
X0037400Y0167720D03*
X0037480Y0167560D03*
X0037600Y0167320D03*
X0037500Y0167060D03*
X0037420Y0167020D03*
X0035340Y0165060D03*
X0037180Y0163060D03*
X0040040Y0162360D03*
X0042280Y0161720D03*
X0042260Y0161620D03*
X0042760Y0161560D03*
X0042780Y0161660D03*
X0042800Y0162720D03*
X0042800Y0162760D03*
X0043360Y0163160D03*
X0043720Y0164760D03*
D23*
X0043550Y0164060D03*
X0042290Y0161760D03*
X0042270Y0161660D03*
X0042750Y0161520D03*
X0042670Y0161160D03*
X0042130Y0161160D03*
X0042110Y0161120D03*
X0041690Y0160660D03*
X0041470Y0159860D03*
X0040270Y0157860D03*
X0040230Y0157820D03*
X0040150Y0157720D03*
X0039890Y0157420D03*
X0039670Y0157160D03*
X0039390Y0156820D03*
X0039330Y0156760D03*
X0038910Y0156260D03*
X0038790Y0156120D03*
X0038730Y0156060D03*
X0038610Y0155920D03*
X0038530Y0155820D03*
X0038330Y0157020D03*
X0038330Y0157060D03*
X0038310Y0157620D03*
X0038310Y0157660D03*
X0038310Y0157820D03*
X0038310Y0157860D03*
X0038310Y0163760D03*
X0035530Y0165360D03*
X0037670Y0167160D03*
X0038010Y0167320D03*
X0037970Y0167460D03*
X0037950Y0167520D03*
X0037930Y0167560D03*
X0037910Y0167620D03*
X0037890Y0167660D03*
X0037850Y0167760D03*
X0037770Y0167960D03*
X0037750Y0168020D03*
X0037690Y0168160D03*
X0037670Y0168220D03*
X0037610Y0168360D03*
X0037590Y0168420D03*
X0037570Y0168460D03*
X0037490Y0168660D03*
X0037450Y0168720D03*
X0037410Y0168820D03*
X0037390Y0168860D03*
X0037330Y0168960D03*
X0037310Y0169020D03*
X0037290Y0169060D03*
X0037250Y0169120D03*
X0037010Y0169520D03*
X0036950Y0169620D03*
X0036850Y0169760D03*
X0036810Y0169820D03*
X0036470Y0170260D03*
X0035850Y0169860D03*
X0035710Y0170020D03*
X0035450Y0170320D03*
X0036010Y0169660D03*
X0036050Y0169620D03*
X0036130Y0169520D03*
X0036210Y0169420D03*
X0036270Y0169360D03*
X0036290Y0169320D03*
X0036350Y0169260D03*
X0036370Y0169220D03*
X0036430Y0169160D03*
X0036510Y0169060D03*
X0036530Y0169020D03*
X0036610Y0168920D03*
X0036650Y0168860D03*
X0036730Y0168760D03*
X0036870Y0168560D03*
X0037010Y0168360D03*
X0037170Y0168120D03*
X0037230Y0168020D03*
X0037290Y0167920D03*
D24*
X0039390Y0166480D03*
X0039510Y0166300D03*
X0039550Y0166180D03*
X0039590Y0165980D03*
X0039590Y0165740D03*
X0039490Y0164940D03*
X0039290Y0164640D03*
X0039190Y0164540D03*
X0039150Y0164500D03*
X0039130Y0164480D03*
X0039050Y0164400D03*
X0038750Y0164140D03*
X0038510Y0163940D03*
X0038430Y0163880D03*
X0038310Y0163780D03*
X0038590Y0163240D03*
X0038650Y0161940D03*
X0039950Y0161940D03*
X0040150Y0162140D03*
X0040190Y0162180D03*
X0040250Y0162300D03*
X0040290Y0162380D03*
X0042290Y0161800D03*
X0042130Y0161040D03*
X0041710Y0160640D03*
X0038310Y0158400D03*
X0038330Y0156080D03*
X0035130Y0162680D03*
X0035050Y0162740D03*
X0035030Y0162780D03*
X0034890Y0163180D03*
X0034850Y0163300D03*
X0034830Y0163540D03*
X0034830Y0163580D03*
X0034830Y0163780D03*
X0034850Y0163980D03*
X0034890Y0164140D03*
X0035030Y0164500D03*
X0035150Y0164740D03*
X0035430Y0165180D03*
X0035510Y0165300D03*
X0035890Y0169800D03*
D25*
X0035430Y0170360D03*
X0039230Y0166660D03*
X0039410Y0166460D03*
X0039530Y0166220D03*
X0039590Y0165860D03*
X0039590Y0165820D03*
X0039450Y0164860D03*
X0039430Y0164820D03*
X0039010Y0164360D03*
X0038730Y0164120D03*
X0038490Y0163920D03*
X0038410Y0163860D03*
X0038590Y0162020D03*
X0039930Y0161920D03*
X0042130Y0161060D03*
X0040390Y0157720D03*
X0038310Y0158320D03*
X0038310Y0158360D03*
X0038330Y0156160D03*
X0038330Y0156120D03*
X0036510Y0162820D03*
X0036590Y0162860D03*
X0034990Y0162860D03*
X0034930Y0163020D03*
X0034930Y0164260D03*
X0035010Y0164460D03*
X0035110Y0164660D03*
X0035210Y0164860D03*
X0035450Y0165220D03*
X0035510Y0165320D03*
D26*
X0035460Y0165240D03*
X0035420Y0165200D03*
X0035360Y0165100D03*
X0035280Y0164980D03*
X0035220Y0164880D03*
X0035180Y0164800D03*
X0035120Y0164700D03*
X0035020Y0164480D03*
X0034980Y0164400D03*
X0034960Y0164340D03*
X0034960Y0164300D03*
X0034920Y0164180D03*
X0034880Y0164100D03*
X0034880Y0164080D03*
X0034860Y0164040D03*
X0034860Y0164000D03*
X0034820Y0163840D03*
X0034820Y0163800D03*
X0034820Y0163740D03*
X0034820Y0163700D03*
X0034820Y0163680D03*
X0034820Y0163640D03*
X0034820Y0163600D03*
X0034820Y0163480D03*
X0034860Y0163280D03*
X0034860Y0163240D03*
X0034920Y0163140D03*
X0034920Y0163100D03*
X0034920Y0163080D03*
X0034960Y0162940D03*
X0034960Y0162900D03*
X0034980Y0162880D03*
X0034980Y0162840D03*
X0035020Y0162800D03*
X0035260Y0162600D03*
X0035320Y0162580D03*
X0035480Y0162580D03*
X0035520Y0162580D03*
X0035560Y0162580D03*
X0035680Y0162580D03*
X0036020Y0162680D03*
X0036080Y0162700D03*
X0036620Y0162280D03*
X0036820Y0163000D03*
X0036860Y0163000D03*
X0037020Y0163040D03*
X0037260Y0163080D03*
X0037280Y0163100D03*
X0038180Y0163680D03*
X0038380Y0163840D03*
X0038560Y0163980D03*
X0038580Y0164000D03*
X0038860Y0164240D03*
X0039260Y0164600D03*
X0039320Y0164680D03*
X0039420Y0164800D03*
X0039460Y0164880D03*
X0039480Y0164900D03*
X0039520Y0164980D03*
X0039580Y0165680D03*
X0039580Y0165780D03*
X0039580Y0165800D03*
X0039580Y0165840D03*
X0039580Y0165880D03*
X0039580Y0166000D03*
X0039580Y0166040D03*
X0039580Y0166080D03*
X0039560Y0166100D03*
X0039560Y0166140D03*
X0039480Y0166340D03*
X0039460Y0166400D03*
X0039420Y0166440D03*
X0039320Y0166580D03*
X0039260Y0166640D03*
X0039220Y0166680D03*
X0039060Y0166800D03*
X0038460Y0167080D03*
X0038420Y0167080D03*
X0038380Y0167080D03*
X0038160Y0167140D03*
X0037960Y0166780D03*
X0037920Y0166780D03*
X0037880Y0166780D03*
X0037460Y0167040D03*
X0037380Y0167000D03*
X0036980Y0167040D03*
X0036580Y0167040D03*
X0036680Y0164740D03*
X0036980Y0164640D03*
X0037220Y0164640D03*
X0037380Y0164680D03*
X0037560Y0164740D03*
X0039020Y0163480D03*
X0038880Y0163100D03*
X0038580Y0162040D03*
X0038720Y0161980D03*
X0038680Y0161900D03*
X0038880Y0161940D03*
X0038860Y0161800D03*
X0038960Y0161780D03*
X0038980Y0161640D03*
X0039120Y0161740D03*
X0039280Y0161700D03*
X0039320Y0161700D03*
X0039360Y0161700D03*
X0039360Y0161540D03*
X0039520Y0161500D03*
X0039580Y0161480D03*
X0039680Y0161500D03*
X0039580Y0161680D03*
X0039860Y0161880D03*
X0040020Y0162000D03*
X0040060Y0162040D03*
X0040120Y0162100D03*
X0040180Y0162200D03*
X0040220Y0162240D03*
X0040280Y0162340D03*
X0040380Y0162280D03*
X0040420Y0162280D03*
X0040460Y0162280D03*
X0039320Y0161940D03*
X0039360Y0160700D03*
X0039620Y0160640D03*
X0040220Y0160400D03*
X0040720Y0161100D03*
X0040980Y0161000D03*
X0039460Y0159800D03*
X0039120Y0159900D03*
X0038960Y0159940D03*
X0038720Y0158700D03*
X0038680Y0158700D03*
X0038460Y0158680D03*
X0038420Y0158680D03*
X0038380Y0158680D03*
X0038160Y0158140D03*
X0038120Y0158140D03*
X0038580Y0157600D03*
X0038620Y0157600D03*
X0038660Y0157600D03*
X0038880Y0157380D03*
X0039020Y0157400D03*
X0039060Y0157400D03*
X0039180Y0157640D03*
X0039220Y0157640D03*
X0039580Y0157440D03*
X0039620Y0157440D03*
X0039780Y0157680D03*
X0039920Y0157700D03*
X0039960Y0157700D03*
X0040020Y0157480D03*
X0040060Y0157480D03*
X0040260Y0158040D03*
X0039980Y0158240D03*
X0039860Y0158240D03*
X0039660Y0158000D03*
X0039520Y0157980D03*
X0039480Y0157980D03*
X0039260Y0158200D03*
X0039220Y0158200D03*
X0038920Y0158180D03*
X0038880Y0158180D03*
X0038880Y0157940D03*
X0038920Y0157940D03*
X0038980Y0158480D03*
X0039020Y0158480D03*
X0039360Y0158500D03*
X0039480Y0158500D03*
X0040780Y0158240D03*
X0040820Y0158240D03*
X0040860Y0158240D03*
X0039660Y0156880D03*
X0039460Y0157080D03*
X0039420Y0157080D03*
X0039380Y0157080D03*
X0039260Y0156840D03*
X0039020Y0157040D03*
X0038980Y0157040D03*
X0038860Y0156800D03*
X0038760Y0156780D03*
X0038720Y0156780D03*
X0038580Y0157000D03*
X0038460Y0156440D03*
X0038420Y0156440D03*
X0038280Y0156180D03*
X0038660Y0156240D03*
X0038880Y0156500D03*
X0039160Y0156300D03*
X0037060Y0160640D03*
X0037020Y0160640D03*
X0036960Y0160940D03*
X0036920Y0160940D03*
X0036880Y0160940D03*
X0036660Y0161280D03*
X0036420Y0161000D03*
X0036380Y0161000D03*
X0036020Y0161080D03*
X0037080Y0161500D03*
X0037120Y0161500D03*
X0037160Y0161500D03*
X0037220Y0161400D03*
X0037280Y0161500D03*
X0037320Y0161500D03*
X0037360Y0161500D03*
X0037480Y0161500D03*
X0037520Y0161500D03*
X0037620Y0161240D03*
X0040460Y0163600D03*
X0040620Y0163640D03*
X0040820Y0163680D03*
X0040920Y0163700D03*
X0041120Y0163740D03*
X0041160Y0163740D03*
X0042280Y0163180D03*
X0042360Y0162940D03*
X0042780Y0162680D03*
X0042680Y0163340D03*
X0042780Y0164240D03*
X0042620Y0164400D03*
X0042780Y0164680D03*
X0042820Y0164680D03*
X0042760Y0164740D03*
X0042660Y0164840D03*
X0042320Y0164700D03*
X0042280Y0164700D03*
X0042260Y0164640D03*
X0042260Y0164800D03*
X0042120Y0164780D03*
X0042080Y0164780D03*
X0042060Y0164680D03*
X0041860Y0165240D03*
X0041660Y0165600D03*
X0041660Y0165640D03*
X0041620Y0165640D03*
X0041680Y0165700D03*
X0041720Y0165700D03*
X0042220Y0165640D03*
X0042260Y0165640D03*
X0042260Y0165680D03*
X0042280Y0165740D03*
X0042320Y0165740D03*
X0042360Y0165740D03*
X0042680Y0165700D03*
X0042720Y0165700D03*
X0042780Y0165680D03*
X0042820Y0165680D03*
X0042860Y0165680D03*
X0042880Y0165780D03*
X0042920Y0165780D03*
X0042960Y0165780D03*
X0043180Y0165800D03*
X0042680Y0165380D03*
X0042520Y0165300D03*
X0042480Y0165300D03*
X0042280Y0165340D03*
X0043080Y0164700D03*
X0043120Y0164700D03*
X0043380Y0164680D03*
X0043460Y0164680D03*
X0043520Y0164740D03*
X0043760Y0164800D03*
X0043260Y0165040D03*
X0041320Y0167340D03*
X0040980Y0167440D03*
X0040560Y0167540D03*
X0040520Y0167540D03*
X0040480Y0167540D03*
X0040260Y0167480D03*
X0036460Y0170280D03*
X0042820Y0161700D03*
D27*
X0042940Y0161480D03*
X0043060Y0161600D03*
X0043100Y0161640D03*
X0043300Y0161840D03*
X0043360Y0161980D03*
X0043380Y0162080D03*
X0043380Y0162100D03*
X0042800Y0161340D03*
X0042160Y0161540D03*
X0042160Y0161580D03*
X0041940Y0162280D03*
X0041940Y0162300D03*
X0041960Y0162380D03*
X0042500Y0163880D03*
X0042480Y0164100D03*
X0038940Y0163680D03*
X0038860Y0163480D03*
X0038600Y0163380D03*
X0038960Y0162380D03*
X0039060Y0160680D03*
X0039020Y0160640D03*
X0039020Y0160600D03*
X0039000Y0160540D03*
X0039000Y0160500D03*
X0038980Y0160480D03*
X0038960Y0160380D03*
X0038920Y0160300D03*
X0038900Y0160240D03*
X0038880Y0160180D03*
X0038880Y0160140D03*
X0038860Y0160100D03*
X0038280Y0160140D03*
X0038340Y0160440D03*
X0036880Y0161380D03*
X0036880Y0161500D03*
X0035860Y0161080D03*
X0036180Y0162680D03*
X0035560Y0165500D03*
X0041600Y0160780D03*
X0041620Y0160800D03*
X0041400Y0159940D03*
X0041500Y0159640D03*
X0041480Y0159580D03*
X0038240Y0156740D03*
X0038260Y0156200D03*
D28*
X0038320Y0156220D03*
X0041360Y0160020D03*
X0043420Y0162760D03*
X0043280Y0162860D03*
X0043220Y0162920D03*
X0043280Y0164020D03*
X0043280Y0164060D03*
X0043680Y0165060D03*
X0039160Y0163860D03*
X0038920Y0163620D03*
X0038860Y0162960D03*
X0037360Y0161220D03*
X0037080Y0164660D03*
D29*
X0037320Y0164660D03*
X0036660Y0164760D03*
X0035480Y0165260D03*
X0035420Y0165160D03*
X0035380Y0165120D03*
X0035320Y0165020D03*
X0035280Y0164960D03*
X0035260Y0164920D03*
X0035160Y0164760D03*
X0035080Y0164620D03*
X0035060Y0164560D03*
X0034980Y0164360D03*
X0034960Y0164320D03*
X0034920Y0164220D03*
X0034880Y0164060D03*
X0034860Y0163960D03*
X0034820Y0163760D03*
X0034820Y0163720D03*
X0034820Y0163660D03*
X0034820Y0163620D03*
X0034820Y0163560D03*
X0034820Y0163520D03*
X0034860Y0163320D03*
X0034880Y0163220D03*
X0034920Y0163060D03*
X0034960Y0162920D03*
X0035160Y0162660D03*
X0035460Y0162560D03*
X0035580Y0162560D03*
X0035620Y0162560D03*
X0035660Y0162560D03*
X0036180Y0162720D03*
X0036380Y0162760D03*
X0036420Y0162760D03*
X0036780Y0162960D03*
X0037080Y0163020D03*
X0037120Y0163060D03*
X0037060Y0162320D03*
X0037020Y0162320D03*
X0036980Y0162320D03*
X0036860Y0162320D03*
X0036820Y0162320D03*
X0036780Y0162320D03*
X0036220Y0162120D03*
X0035920Y0161060D03*
X0035880Y0161060D03*
X0035760Y0161060D03*
X0036320Y0161020D03*
X0037120Y0161220D03*
X0037280Y0161420D03*
X0037320Y0161420D03*
X0037360Y0161420D03*
X0037480Y0161420D03*
X0037520Y0161420D03*
X0037560Y0161420D03*
X0037680Y0161420D03*
X0038620Y0161960D03*
X0038660Y0161920D03*
X0038920Y0161660D03*
X0039060Y0161920D03*
X0039220Y0161720D03*
X0039260Y0161720D03*
X0039280Y0161660D03*
X0039320Y0161660D03*
X0039360Y0161660D03*
X0039380Y0161720D03*
X0039380Y0161960D03*
X0039560Y0162020D03*
X0039980Y0161960D03*
X0040080Y0162060D03*
X0040180Y0162160D03*
X0040260Y0162320D03*
X0039980Y0162360D03*
X0039320Y0162620D03*
X0039280Y0162620D03*
X0038960Y0162620D03*
X0038960Y0162460D03*
X0038920Y0162460D03*
X0038560Y0162620D03*
X0038160Y0163660D03*
X0038360Y0163820D03*
X0038780Y0164160D03*
X0039180Y0164520D03*
X0039380Y0164760D03*
X0039520Y0165020D03*
X0039580Y0165720D03*
X0039580Y0165760D03*
X0039580Y0165920D03*
X0039580Y0165960D03*
X0039580Y0166020D03*
X0039560Y0166160D03*
X0039520Y0166260D03*
X0039460Y0166360D03*
X0038860Y0166920D03*
X0038780Y0166960D03*
X0038680Y0167020D03*
X0038560Y0167060D03*
X0038060Y0166760D03*
X0036880Y0167060D03*
X0040380Y0167520D03*
X0041120Y0167420D03*
X0041480Y0165620D03*
X0041520Y0165620D03*
X0041880Y0165620D03*
X0041920Y0165620D03*
X0041960Y0165620D03*
X0042020Y0165720D03*
X0042060Y0165720D03*
X0042080Y0165660D03*
X0042120Y0165660D03*
X0042020Y0165320D03*
X0041980Y0165320D03*
X0042080Y0165260D03*
X0042420Y0165360D03*
X0042460Y0165360D03*
X0042480Y0165660D03*
X0042520Y0165660D03*
X0042620Y0165760D03*
X0042660Y0165760D03*
X0042860Y0165720D03*
X0042780Y0165320D03*
X0042560Y0164820D03*
X0042520Y0164820D03*
X0042580Y0164720D03*
X0042620Y0164720D03*
X0042560Y0164660D03*
X0042560Y0164420D03*
X0042120Y0164620D03*
X0042080Y0164620D03*
X0043060Y0164760D03*
X0043080Y0164660D03*
X0043120Y0164660D03*
X0043220Y0164720D03*
X0043260Y0164720D03*
X0043380Y0164720D03*
X0043420Y0164720D03*
X0043360Y0165020D03*
X0043380Y0165520D03*
X0043480Y0165820D03*
X0041260Y0163760D03*
X0040980Y0163720D03*
X0040560Y0163620D03*
X0042460Y0162960D03*
X0042420Y0162720D03*
X0042480Y0162420D03*
X0042520Y0162420D03*
X0042560Y0162420D03*
X0042680Y0162420D03*
X0042760Y0162660D03*
X0042880Y0162620D03*
X0042280Y0161820D03*
X0042120Y0161020D03*
X0042580Y0160920D03*
X0041720Y0160620D03*
X0040660Y0161120D03*
X0040520Y0161220D03*
X0039960Y0161420D03*
X0039620Y0161520D03*
X0039520Y0160660D03*
X0038880Y0160820D03*
X0038720Y0160860D03*
X0039020Y0159920D03*
X0039060Y0158720D03*
X0038760Y0158460D03*
X0038720Y0158460D03*
X0038680Y0158460D03*
X0038660Y0158160D03*
X0038620Y0158160D03*
X0038580Y0158160D03*
X0038460Y0157920D03*
X0038880Y0157620D03*
X0039060Y0157960D03*
X0039360Y0157660D03*
X0039360Y0157420D03*
X0039320Y0157420D03*
X0039160Y0157060D03*
X0039120Y0157060D03*
X0039120Y0156820D03*
X0039160Y0156820D03*
X0039060Y0156520D03*
X0039260Y0156320D03*
X0039380Y0156560D03*
X0039520Y0156860D03*
X0039560Y0156860D03*
X0039860Y0157120D03*
X0040260Y0157720D03*
X0040120Y0158020D03*
X0040080Y0158020D03*
X0040120Y0158260D03*
X0040160Y0158260D03*
X0039660Y0158520D03*
X0039620Y0158520D03*
X0039560Y0158220D03*
X0039520Y0158220D03*
X0039480Y0158220D03*
X0038720Y0157020D03*
X0038680Y0157020D03*
X0038460Y0156760D03*
X0038520Y0156460D03*
X0038560Y0156460D03*
X0038560Y0156220D03*
X0036460Y0170320D03*
X0035360Y0170460D03*
D30*
X0036640Y0167060D03*
X0037300Y0166960D03*
X0037740Y0166760D03*
X0038140Y0167120D03*
X0039100Y0166760D03*
X0039340Y0166560D03*
X0039440Y0166420D03*
X0039500Y0166320D03*
X0039540Y0165120D03*
X0039500Y0164960D03*
X0039500Y0164920D03*
X0039340Y0164720D03*
X0038540Y0163960D03*
X0038840Y0162620D03*
X0039000Y0162460D03*
X0039100Y0161920D03*
X0039140Y0161920D03*
X0039100Y0161720D03*
X0039240Y0161660D03*
X0039240Y0161620D03*
X0039300Y0161720D03*
X0039340Y0161720D03*
X0039400Y0161660D03*
X0039440Y0161660D03*
X0039700Y0161720D03*
X0039840Y0161460D03*
X0040100Y0161320D03*
X0040140Y0161360D03*
X0040700Y0161160D03*
X0040840Y0161060D03*
X0040800Y0162220D03*
X0040640Y0162260D03*
X0040240Y0162260D03*
X0040200Y0162220D03*
X0040140Y0162120D03*
X0040040Y0162020D03*
X0039940Y0162320D03*
X0037640Y0161420D03*
X0037600Y0161420D03*
X0037440Y0161420D03*
X0037400Y0161420D03*
X0037140Y0162320D03*
X0037100Y0162320D03*
X0036940Y0162320D03*
X0036900Y0162320D03*
X0036740Y0162320D03*
X0036700Y0162320D03*
X0036700Y0162920D03*
X0037040Y0163020D03*
X0037240Y0163060D03*
X0037340Y0163120D03*
X0035700Y0162560D03*
X0035540Y0162560D03*
X0035500Y0162560D03*
X0035000Y0162820D03*
X0034940Y0162960D03*
X0034900Y0163160D03*
X0034840Y0163420D03*
X0034840Y0163460D03*
X0034840Y0163820D03*
X0034840Y0163860D03*
X0034840Y0163920D03*
X0034900Y0164120D03*
X0034900Y0164160D03*
X0035000Y0164420D03*
X0035040Y0164520D03*
X0035140Y0164720D03*
X0035200Y0164820D03*
X0035800Y0161060D03*
X0035840Y0161060D03*
X0038700Y0158920D03*
X0038840Y0158860D03*
X0039100Y0158720D03*
X0039140Y0158720D03*
X0038800Y0158460D03*
X0038540Y0158160D03*
X0038540Y0157920D03*
X0038500Y0157920D03*
X0038800Y0157620D03*
X0038840Y0157620D03*
X0038540Y0157360D03*
X0038500Y0157360D03*
X0038100Y0156960D03*
X0038500Y0156760D03*
X0038240Y0156420D03*
X0038600Y0156220D03*
X0039400Y0157420D03*
X0039400Y0157660D03*
X0039440Y0157660D03*
X0039140Y0157960D03*
X0039100Y0157960D03*
X0039440Y0158220D03*
X0039700Y0158520D03*
X0040200Y0158260D03*
X0040240Y0158260D03*
X0040040Y0158020D03*
X0040300Y0157720D03*
X0040340Y0157720D03*
X0039840Y0157460D03*
X0041300Y0158920D03*
X0042600Y0162420D03*
X0042640Y0162420D03*
X0042400Y0163220D03*
X0043300Y0163160D03*
X0043040Y0164660D03*
X0043100Y0164760D03*
X0043300Y0164720D03*
X0043340Y0164720D03*
X0042640Y0164660D03*
X0042600Y0164660D03*
X0042540Y0164720D03*
X0042040Y0165260D03*
X0042040Y0165660D03*
X0042100Y0165720D03*
X0042440Y0165660D03*
X0042700Y0165760D03*
X0042740Y0165760D03*
X0042900Y0165720D03*
X0042940Y0165720D03*
X0043240Y0165820D03*
X0043340Y0165520D03*
X0040700Y0167520D03*
X0040200Y0167460D03*
D31*
X0037920Y0166740D03*
X0037100Y0164680D03*
X0038060Y0163400D03*
X0038460Y0162480D03*
X0038560Y0162380D03*
X0038880Y0162780D03*
X0038960Y0161580D03*
X0037320Y0161540D03*
X0037320Y0161780D03*
X0037300Y0161800D03*
X0037240Y0161900D03*
X0035660Y0165800D03*
X0043360Y0164780D03*
X0043180Y0163800D03*
X0043300Y0162240D03*
X0038380Y0156240D03*
D32*
X0038140Y0156400D03*
X0038700Y0156240D03*
X0038740Y0156480D03*
X0038900Y0156800D03*
X0038940Y0157040D03*
X0038840Y0157380D03*
X0038800Y0157380D03*
X0039140Y0157640D03*
X0038840Y0157940D03*
X0038840Y0158180D03*
X0038800Y0158180D03*
X0038940Y0158480D03*
X0039040Y0158780D03*
X0038900Y0158840D03*
X0038640Y0158700D03*
X0038600Y0158700D03*
X0038240Y0158140D03*
X0038200Y0158140D03*
X0038240Y0157900D03*
X0038240Y0157580D03*
X0038200Y0157580D03*
X0038240Y0156980D03*
X0038540Y0157000D03*
X0039300Y0156840D03*
X0039700Y0156880D03*
X0039540Y0157440D03*
X0039700Y0157680D03*
X0039740Y0157680D03*
X0040000Y0157700D03*
X0040100Y0157480D03*
X0040300Y0158040D03*
X0040340Y0158040D03*
X0040740Y0158240D03*
X0040900Y0158240D03*
X0039940Y0158240D03*
X0039900Y0158240D03*
X0039740Y0158000D03*
X0039700Y0158000D03*
X0039440Y0157980D03*
X0039300Y0158200D03*
X0039400Y0158500D03*
X0039440Y0158500D03*
X0037100Y0160640D03*
X0037200Y0161500D03*
X0037240Y0161500D03*
X0037400Y0161500D03*
X0037440Y0161500D03*
X0036640Y0162300D03*
X0036240Y0162740D03*
X0035640Y0162580D03*
X0035600Y0162580D03*
X0035340Y0162600D03*
X0035300Y0162600D03*
X0034940Y0162980D03*
X0034940Y0163000D03*
X0034940Y0163040D03*
X0034900Y0163200D03*
X0034840Y0163340D03*
X0034840Y0163380D03*
X0034840Y0163400D03*
X0034840Y0163500D03*
X0034840Y0163880D03*
X0034840Y0163900D03*
X0034840Y0163940D03*
X0034940Y0164240D03*
X0034940Y0164280D03*
X0035040Y0164540D03*
X0035100Y0164640D03*
X0035240Y0164900D03*
X0035300Y0165000D03*
X0035340Y0165040D03*
X0035400Y0165140D03*
X0035500Y0165280D03*
X0037100Y0167000D03*
X0037840Y0166780D03*
X0038000Y0166780D03*
X0038400Y0167100D03*
X0038940Y0166880D03*
X0039300Y0166600D03*
X0039500Y0166280D03*
X0039540Y0166240D03*
X0039540Y0166200D03*
X0039600Y0165940D03*
X0039600Y0165900D03*
X0039600Y0165700D03*
X0039540Y0165080D03*
X0039540Y0165040D03*
X0039400Y0164780D03*
X0039300Y0164600D03*
X0039100Y0164440D03*
X0038900Y0164280D03*
X0038340Y0163800D03*
X0038140Y0163640D03*
X0038800Y0163100D03*
X0038840Y0163100D03*
X0038600Y0162000D03*
X0038700Y0161880D03*
X0039140Y0161600D03*
X0039200Y0161700D03*
X0039240Y0161700D03*
X0039400Y0161700D03*
X0039440Y0161740D03*
X0039600Y0161740D03*
X0039640Y0161700D03*
X0040000Y0161980D03*
X0040100Y0162080D03*
X0040040Y0162340D03*
X0040300Y0162400D03*
X0040340Y0162280D03*
X0040700Y0162240D03*
X0040400Y0163580D03*
X0042040Y0163140D03*
X0042400Y0162940D03*
X0042600Y0162980D03*
X0042700Y0163000D03*
X0042840Y0163780D03*
X0042740Y0164680D03*
X0042800Y0164740D03*
X0042700Y0164840D03*
X0042300Y0164800D03*
X0042240Y0164700D03*
X0042300Y0164640D03*
X0042340Y0164640D03*
X0042140Y0164680D03*
X0042100Y0164680D03*
X0041900Y0165240D03*
X0041840Y0165300D03*
X0041800Y0165300D03*
X0041740Y0165600D03*
X0041740Y0165640D03*
X0041700Y0165640D03*
X0041700Y0165600D03*
X0041640Y0165700D03*
X0042240Y0165740D03*
X0042300Y0165680D03*
X0042340Y0165680D03*
X0042300Y0165640D03*
X0042240Y0165340D03*
X0042300Y0165280D03*
X0042340Y0165280D03*
X0042640Y0165380D03*
X0042640Y0165700D03*
X0043340Y0164680D03*
X0043500Y0164680D03*
X0040940Y0167440D03*
X0040800Y0167500D03*
X0040600Y0167540D03*
X0037300Y0163080D03*
X0035540Y0161280D03*
X0035340Y0170480D03*
D33*
X0036300Y0166520D03*
X0036240Y0166460D03*
X0036200Y0166420D03*
X0043360Y0164860D03*
X0041360Y0161060D03*
X0040640Y0158260D03*
X0038480Y0156260D03*
X0036900Y0160760D03*
X0036580Y0161920D03*
X0036880Y0162220D03*
D34*
X0036920Y0162080D03*
X0036040Y0162000D03*
X0036940Y0160900D03*
X0038520Y0160000D03*
X0038500Y0159940D03*
X0039060Y0161500D03*
X0040640Y0162080D03*
X0041300Y0161100D03*
X0042740Y0163180D03*
X0042880Y0163480D03*
X0042900Y0163500D03*
X0042900Y0163580D03*
X0043320Y0165680D03*
X0042180Y0165700D03*
X0038060Y0162940D03*
X0036620Y0166780D03*
X0036640Y0166800D03*
X0036680Y0166840D03*
X0038560Y0156280D03*
D35*
X0038620Y0156300D03*
X0041120Y0160240D03*
X0039880Y0162600D03*
X0039920Y0162680D03*
X0043160Y0164400D03*
X0037880Y0166600D03*
X0035920Y0161480D03*
X0035980Y0161340D03*
D36*
X0039920Y0162760D03*
X0039880Y0162960D03*
X0041100Y0160260D03*
X0040140Y0158220D03*
X0038680Y0156320D03*
X0037880Y0166560D03*
D37*
X0037160Y0164840D03*
X0039880Y0162880D03*
X0039900Y0162900D03*
X0039920Y0162800D03*
X0039780Y0162540D03*
X0039780Y0162500D03*
X0039100Y0162100D03*
X0041060Y0160300D03*
X0039200Y0157000D03*
X0038700Y0156380D03*
X0038700Y0156340D03*
X0043060Y0164340D03*
X0042520Y0165240D03*
D38*
X0040660Y0161960D03*
X0039760Y0162460D03*
X0036000Y0161620D03*
X0038700Y0156360D03*
D39*
X0038740Y0156400D03*
X0039100Y0162080D03*
X0039880Y0162940D03*
X0038040Y0163180D03*
X0042440Y0162580D03*
X0042640Y0163140D03*
X0043060Y0164280D03*
X0040640Y0167380D03*
D40*
X0039880Y0163020D03*
X0039880Y0162620D03*
X0042960Y0163420D03*
X0040520Y0158420D03*
X0038800Y0156420D03*
D41*
X0038910Y0156440D03*
X0040610Y0158340D03*
X0038510Y0159980D03*
X0036930Y0160880D03*
X0036050Y0162040D03*
X0037990Y0163000D03*
X0038030Y0163240D03*
X0040630Y0162100D03*
X0042910Y0163600D03*
X0036550Y0166740D03*
X0036510Y0166700D03*
D42*
X0036350Y0166560D03*
X0043330Y0164560D03*
X0043350Y0164620D03*
X0036890Y0162160D03*
X0038970Y0156460D03*
D43*
X0039060Y0156480D03*
X0038400Y0156780D03*
X0037400Y0161280D03*
X0037400Y0161300D03*
X0037400Y0161340D03*
X0037400Y0161740D03*
X0036560Y0161140D03*
X0036000Y0162580D03*
X0038160Y0162740D03*
X0038360Y0162580D03*
X0038400Y0162540D03*
X0043040Y0163000D03*
X0043260Y0162280D03*
X0043320Y0164140D03*
X0036780Y0167000D03*
X0035760Y0165940D03*
X0035720Y0165900D03*
D44*
X0035660Y0165740D03*
X0038860Y0162940D03*
X0038880Y0162800D03*
X0038520Y0162400D03*
X0038480Y0162440D03*
X0038280Y0162600D03*
X0038240Y0162640D03*
X0037280Y0161840D03*
X0037240Y0161880D03*
X0035900Y0161100D03*
X0041500Y0160940D03*
X0043260Y0163880D03*
X0043260Y0163900D03*
X0043280Y0163940D03*
X0040540Y0167500D03*
X0039140Y0156500D03*
D45*
X0039230Y0156520D03*
X0038970Y0160460D03*
X0039030Y0160620D03*
X0038450Y0160760D03*
X0038430Y0160720D03*
X0038390Y0160620D03*
X0038470Y0160860D03*
X0038910Y0161620D03*
X0042970Y0161520D03*
X0043190Y0161720D03*
X0042510Y0164160D03*
X0042590Y0164220D03*
D46*
X0042830Y0162880D03*
X0042170Y0161440D03*
X0041490Y0159780D03*
X0039310Y0156540D03*
X0038510Y0163440D03*
X0038330Y0163680D03*
X0038790Y0163940D03*
X0038830Y0163880D03*
D47*
X0038940Y0163660D03*
X0039160Y0163920D03*
X0039140Y0163960D03*
X0039100Y0164020D03*
X0039060Y0164060D03*
X0039000Y0164120D03*
X0038980Y0164160D03*
X0038900Y0162660D03*
X0040460Y0162260D03*
X0042080Y0162760D03*
X0042080Y0162860D03*
X0042080Y0162920D03*
X0042500Y0163860D03*
X0042480Y0164120D03*
X0042960Y0165320D03*
X0042960Y0165360D03*
X0043760Y0165320D03*
X0043360Y0162160D03*
X0043300Y0161820D03*
X0043240Y0161760D03*
X0043140Y0161660D03*
X0041580Y0160820D03*
X0041400Y0159960D03*
X0038420Y0160660D03*
X0038360Y0160520D03*
X0038340Y0160460D03*
X0038340Y0160420D03*
X0038320Y0160360D03*
X0038300Y0160320D03*
X0038280Y0160260D03*
X0038260Y0160220D03*
X0038240Y0160160D03*
X0038460Y0160820D03*
X0036880Y0161320D03*
X0036880Y0161520D03*
X0038280Y0156760D03*
D48*
X0038470Y0156800D03*
X0042310Y0163000D03*
X0036110Y0166340D03*
X0036070Y0166300D03*
D49*
X0042600Y0165260D03*
X0042920Y0163220D03*
X0042360Y0162620D03*
X0041220Y0161160D03*
X0035980Y0161320D03*
X0038600Y0156820D03*
D50*
X0038670Y0156840D03*
X0040670Y0161980D03*
D51*
X0039300Y0161360D03*
X0038720Y0159820D03*
X0042540Y0162520D03*
X0042640Y0163020D03*
X0039840Y0163620D03*
X0037180Y0164920D03*
X0038800Y0156860D03*
D52*
X0038870Y0156880D03*
X0039030Y0156980D03*
D53*
X0038920Y0156900D03*
X0039380Y0161280D03*
X0039160Y0162340D03*
X0037260Y0165080D03*
X0037820Y0166280D03*
X0040680Y0167180D03*
D54*
X0037280Y0165120D03*
X0038920Y0156920D03*
D55*
X0038940Y0156940D03*
X0039960Y0163680D03*
X0037800Y0166240D03*
X0040700Y0167140D03*
D56*
X0037810Y0166260D03*
X0040810Y0161420D03*
X0038950Y0156960D03*
D57*
X0039290Y0157020D03*
X0039870Y0163060D03*
D58*
X0038040Y0163280D03*
X0036900Y0162140D03*
X0036540Y0161740D03*
X0036040Y0162080D03*
X0036020Y0162100D03*
X0036920Y0160840D03*
X0036900Y0160780D03*
X0041320Y0161080D03*
X0042760Y0163200D03*
X0043060Y0163300D03*
X0043340Y0164580D03*
X0043360Y0164880D03*
X0039960Y0165240D03*
X0036480Y0166680D03*
X0036440Y0166640D03*
X0036400Y0166600D03*
X0036320Y0166540D03*
X0039440Y0157040D03*
D59*
X0039520Y0157060D03*
X0041400Y0161020D03*
X0038060Y0163320D03*
X0036600Y0161860D03*
X0036600Y0161820D03*
X0036580Y0161760D03*
X0035840Y0166060D03*
X0035900Y0166120D03*
X0035940Y0166160D03*
X0040560Y0167460D03*
X0043360Y0164820D03*
D60*
X0043680Y0165480D03*
X0042560Y0163800D03*
X0042140Y0162940D03*
X0043360Y0162800D03*
X0043340Y0162180D03*
X0041560Y0160880D03*
X0041540Y0160900D03*
X0041360Y0160000D03*
X0039900Y0160340D03*
X0039820Y0160140D03*
X0039820Y0160100D03*
X0039800Y0160040D03*
X0039780Y0159980D03*
X0039740Y0159900D03*
X0039720Y0159840D03*
X0039720Y0159800D03*
X0039100Y0161940D03*
X0038900Y0162700D03*
X0038920Y0163640D03*
X0040480Y0162240D03*
X0037360Y0161200D03*
X0037280Y0161080D03*
X0035600Y0165640D03*
X0037940Y0167140D03*
X0039680Y0157080D03*
D61*
X0039720Y0157100D03*
X0040620Y0159640D03*
X0040620Y0159680D03*
X0040720Y0159940D03*
X0040720Y0159980D03*
X0043720Y0165140D03*
D62*
X0042870Y0161460D03*
X0040730Y0160020D03*
X0040630Y0159660D03*
X0039770Y0159960D03*
X0039810Y0160060D03*
X0039830Y0160120D03*
X0039870Y0160260D03*
X0039890Y0160320D03*
X0039930Y0160420D03*
X0036670Y0160960D03*
X0036670Y0161020D03*
X0036130Y0162660D03*
X0038290Y0157360D03*
D63*
X0038440Y0157380D03*
X0039000Y0161540D03*
X0038160Y0162780D03*
X0036600Y0161840D03*
X0036600Y0161780D03*
X0035860Y0166080D03*
X0035880Y0166100D03*
X0035980Y0166200D03*
X0043160Y0164740D03*
X0043300Y0164200D03*
D64*
X0042910Y0163540D03*
X0036930Y0162040D03*
X0038550Y0157400D03*
D65*
X0038700Y0157420D03*
X0039220Y0161420D03*
X0039900Y0162860D03*
X0039760Y0163120D03*
X0043060Y0164260D03*
X0043080Y0164360D03*
D66*
X0038800Y0157440D03*
D67*
X0038960Y0157460D03*
X0037300Y0165160D03*
X0037800Y0166220D03*
X0040700Y0167120D03*
D68*
X0040580Y0165700D03*
X0040560Y0165680D03*
X0037720Y0165980D03*
X0037420Y0165380D03*
X0039480Y0161200D03*
X0040660Y0161500D03*
X0038940Y0159740D03*
X0038920Y0159680D03*
X0038920Y0159640D03*
X0039040Y0157480D03*
D69*
X0039140Y0157500D03*
X0040120Y0158780D03*
X0039000Y0159580D03*
X0039560Y0161140D03*
X0040440Y0160700D03*
X0040700Y0166140D03*
X0040720Y0166180D03*
X0040720Y0166240D03*
X0040720Y0166280D03*
X0040720Y0166300D03*
X0040720Y0166340D03*
X0040720Y0166380D03*
X0040740Y0166400D03*
X0040740Y0166440D03*
X0040740Y0166480D03*
D70*
X0039150Y0157520D03*
D71*
X0039160Y0157540D03*
X0039160Y0158040D03*
D72*
X0039160Y0157560D03*
X0039000Y0159560D03*
X0040400Y0160720D03*
X0039880Y0163720D03*
D73*
X0040460Y0163840D03*
X0040560Y0161540D03*
X0039280Y0157580D03*
X0040720Y0166740D03*
X0040720Y0166780D03*
D74*
X0037820Y0166300D03*
X0037240Y0165040D03*
X0039140Y0162300D03*
X0040840Y0161400D03*
X0039480Y0157600D03*
D75*
X0039620Y0157620D03*
X0038880Y0158520D03*
X0037860Y0166420D03*
D76*
X0037140Y0164800D03*
X0039840Y0163100D03*
X0039860Y0163080D03*
X0039880Y0163040D03*
X0039900Y0163000D03*
X0039920Y0162700D03*
X0040660Y0162000D03*
X0041160Y0161180D03*
X0039780Y0157640D03*
X0035960Y0161580D03*
X0035980Y0161600D03*
D77*
X0036940Y0162020D03*
X0037180Y0161560D03*
X0039080Y0162020D03*
X0041260Y0161120D03*
X0043160Y0162420D03*
X0039920Y0157660D03*
X0037140Y0164760D03*
X0036720Y0166860D03*
D78*
X0043330Y0164100D03*
X0041450Y0161000D03*
X0040090Y0157680D03*
X0037410Y0161680D03*
X0037410Y0161700D03*
X0036550Y0161100D03*
X0035910Y0161140D03*
X0035950Y0162300D03*
D79*
X0036870Y0161300D03*
X0036670Y0161000D03*
X0039810Y0160080D03*
X0039790Y0160000D03*
X0039770Y0159940D03*
X0039750Y0159880D03*
X0039850Y0160180D03*
X0039850Y0160200D03*
X0039870Y0160240D03*
X0039870Y0160280D03*
X0039890Y0160300D03*
X0039910Y0160380D03*
X0039910Y0160400D03*
X0039930Y0160440D03*
X0040610Y0159600D03*
X0040590Y0159540D03*
X0040570Y0159500D03*
X0040210Y0157700D03*
X0043290Y0162840D03*
X0043710Y0165100D03*
X0043710Y0165440D03*
D80*
X0040250Y0162440D03*
X0038590Y0163300D03*
X0038150Y0157900D03*
D81*
X0038260Y0157920D03*
X0040560Y0159460D03*
X0040580Y0159520D03*
X0040600Y0159620D03*
X0040660Y0159760D03*
X0040680Y0159820D03*
X0040680Y0159860D03*
X0040700Y0159920D03*
X0040760Y0160060D03*
X0039900Y0160360D03*
X0041560Y0160860D03*
X0042840Y0161420D03*
X0043740Y0165160D03*
X0043760Y0165260D03*
X0043740Y0165360D03*
X0035600Y0165620D03*
D82*
X0038050Y0163300D03*
X0036890Y0162200D03*
X0038450Y0157940D03*
D83*
X0038560Y0157960D03*
X0036960Y0161960D03*
X0037940Y0163060D03*
X0039660Y0162420D03*
X0043360Y0164960D03*
D84*
X0042640Y0163040D03*
X0039260Y0161380D03*
X0040000Y0158200D03*
X0038740Y0157980D03*
X0037180Y0164900D03*
D85*
X0037840Y0166340D03*
X0039540Y0163400D03*
X0039560Y0163380D03*
X0039140Y0162280D03*
X0038860Y0158000D03*
D86*
X0039040Y0158020D03*
X0040740Y0160520D03*
X0040640Y0160620D03*
X0037440Y0165420D03*
X0037700Y0165920D03*
D87*
X0039280Y0158060D03*
D88*
X0039300Y0158080D03*
X0040540Y0164080D03*
X0040740Y0164680D03*
X0040740Y0164700D03*
X0040740Y0164740D03*
D89*
X0039710Y0161000D03*
X0039310Y0158100D03*
D90*
X0039320Y0158120D03*
X0039700Y0161020D03*
D91*
X0039430Y0158140D03*
D92*
X0039650Y0158160D03*
X0040590Y0165760D03*
D93*
X0037780Y0166200D03*
X0040600Y0161740D03*
X0040780Y0161440D03*
X0039800Y0158180D03*
D94*
X0040970Y0158220D03*
X0039070Y0164420D03*
X0039570Y0166060D03*
X0039370Y0166520D03*
X0039270Y0166620D03*
X0039170Y0166720D03*
X0034870Y0164020D03*
X0034870Y0163260D03*
X0035070Y0162720D03*
D95*
X0036580Y0161900D03*
X0036880Y0160700D03*
X0039100Y0161980D03*
X0038160Y0162800D03*
X0037900Y0166700D03*
X0041880Y0165680D03*
X0042700Y0164700D03*
X0043360Y0164840D03*
X0042240Y0162680D03*
X0043220Y0162340D03*
X0040660Y0158300D03*
X0040360Y0158240D03*
D96*
X0040680Y0158280D03*
X0040580Y0162180D03*
X0042220Y0162700D03*
X0042260Y0162980D03*
X0043060Y0162980D03*
X0038060Y0163340D03*
X0037380Y0161640D03*
X0035780Y0165980D03*
D97*
X0036420Y0166620D03*
X0036460Y0166660D03*
X0036800Y0166960D03*
X0037120Y0164720D03*
X0036520Y0161720D03*
X0039040Y0161520D03*
X0042920Y0163720D03*
X0043300Y0164460D03*
X0043320Y0164520D03*
X0040640Y0158320D03*
D98*
X0040600Y0158360D03*
X0038540Y0160020D03*
X0036940Y0160920D03*
X0036040Y0161960D03*
X0042900Y0163520D03*
X0042920Y0163560D03*
X0042920Y0163760D03*
X0043360Y0164920D03*
X0043200Y0165760D03*
X0037900Y0166660D03*
X0036660Y0166820D03*
D99*
X0043360Y0165000D03*
X0043200Y0164440D03*
X0042960Y0163240D03*
X0039680Y0162480D03*
X0039640Y0162400D03*
X0037180Y0161580D03*
X0036040Y0161280D03*
X0040580Y0158380D03*
D100*
X0040540Y0158400D03*
X0040660Y0162040D03*
X0039600Y0162380D03*
X0039100Y0162040D03*
X0037940Y0163080D03*
X0035940Y0161400D03*
X0036000Y0161300D03*
X0042940Y0163440D03*
X0042980Y0163400D03*
D101*
X0041150Y0161200D03*
X0039930Y0162740D03*
X0039170Y0161440D03*
X0040510Y0158440D03*
X0037890Y0166580D03*
D102*
X0035650Y0165760D03*
X0038870Y0162920D03*
X0038470Y0162460D03*
X0038230Y0162660D03*
X0037270Y0161860D03*
X0037310Y0161520D03*
X0038410Y0158460D03*
X0041490Y0160960D03*
X0042150Y0162720D03*
X0043310Y0162220D03*
X0043250Y0163860D03*
D103*
X0042470Y0162560D03*
X0039910Y0162820D03*
X0037870Y0166520D03*
X0040470Y0158460D03*
D104*
X0038540Y0158480D03*
X0036880Y0160740D03*
X0039060Y0162000D03*
X0038140Y0162840D03*
X0040600Y0162140D03*
X0043080Y0163340D03*
X0043260Y0164240D03*
X0043340Y0164600D03*
X0042740Y0165280D03*
X0043360Y0165700D03*
X0040540Y0167440D03*
X0039940Y0165040D03*
X0039940Y0165000D03*
X0036800Y0166980D03*
X0036280Y0166500D03*
X0036260Y0166480D03*
X0036180Y0166400D03*
X0036160Y0166380D03*
D105*
X0039720Y0163180D03*
X0040680Y0161940D03*
X0040460Y0158480D03*
D106*
X0038750Y0158500D03*
X0039810Y0162580D03*
X0039910Y0162780D03*
X0043070Y0164300D03*
D107*
X0042620Y0163080D03*
X0042520Y0162540D03*
X0041020Y0161280D03*
X0040660Y0161880D03*
X0039680Y0163500D03*
X0037860Y0166480D03*
X0040440Y0158500D03*
D108*
X0040400Y0158520D03*
X0041000Y0160360D03*
X0037860Y0166460D03*
D109*
X0039630Y0158540D03*
D110*
X0039630Y0158560D03*
D111*
X0039620Y0158580D03*
D112*
X0039640Y0158600D03*
X0039640Y0158640D03*
D113*
X0039640Y0158660D03*
X0039640Y0158620D03*
D114*
X0039810Y0158680D03*
X0040890Y0165340D03*
D115*
X0039680Y0161040D03*
X0040000Y0158880D03*
X0039940Y0158700D03*
D116*
X0040160Y0158720D03*
X0038940Y0159620D03*
X0037520Y0165560D03*
X0037640Y0165760D03*
X0037660Y0165820D03*
X0040620Y0165820D03*
X0040720Y0166860D03*
D117*
X0040630Y0165840D03*
X0037630Y0165740D03*
X0037590Y0165680D03*
X0037570Y0165640D03*
X0037550Y0165600D03*
X0037510Y0165540D03*
X0040150Y0158740D03*
D118*
X0040140Y0158760D03*
X0039540Y0161160D03*
X0040640Y0165860D03*
D119*
X0040490Y0163900D03*
X0040090Y0158800D03*
D120*
X0040070Y0158820D03*
D121*
X0040060Y0158840D03*
X0039620Y0161080D03*
D122*
X0040030Y0158860D03*
D123*
X0040000Y0158900D03*
X0040080Y0163780D03*
X0040560Y0164140D03*
D124*
X0040000Y0158920D03*
D125*
X0040000Y0158940D03*
X0039800Y0160940D03*
X0040580Y0164580D03*
D126*
X0039990Y0158960D03*
D127*
X0039970Y0158980D03*
X0039370Y0159280D03*
D128*
X0039560Y0159180D03*
X0039680Y0159100D03*
X0039940Y0159000D03*
X0041780Y0165040D03*
D129*
X0039840Y0159020D03*
D130*
X0039830Y0159040D03*
D131*
X0039740Y0159060D03*
D132*
X0041320Y0159060D03*
X0041340Y0159120D03*
X0041500Y0159720D03*
X0041660Y0160720D03*
X0042160Y0161420D03*
X0042160Y0161460D03*
X0042060Y0161760D03*
X0041980Y0161960D03*
X0042840Y0162860D03*
X0042500Y0163960D03*
X0042800Y0164460D03*
X0043360Y0165820D03*
X0038960Y0164260D03*
X0038840Y0163860D03*
X0038420Y0163560D03*
X0038360Y0163620D03*
X0038340Y0163660D03*
X0038300Y0163720D03*
X0038100Y0163560D03*
X0038500Y0163460D03*
X0038520Y0163420D03*
X0038960Y0162420D03*
X0036920Y0163020D03*
X0035560Y0165460D03*
X0036760Y0167060D03*
D133*
X0039710Y0159080D03*
D134*
X0041330Y0159080D03*
X0041330Y0159100D03*
X0041350Y0159180D03*
X0041370Y0159240D03*
X0041390Y0159280D03*
X0041390Y0159300D03*
X0041430Y0159400D03*
X0041490Y0159740D03*
X0042090Y0161680D03*
X0042050Y0161780D03*
X0042050Y0161800D03*
X0042030Y0161840D03*
X0042010Y0161880D03*
X0042010Y0161900D03*
X0041990Y0161940D03*
X0041970Y0162000D03*
X0041950Y0162040D03*
X0041910Y0162140D03*
X0042510Y0163980D03*
X0043650Y0164700D03*
X0038850Y0163540D03*
X0038850Y0163300D03*
D135*
X0039300Y0159420D03*
X0039280Y0159360D03*
X0039320Y0159320D03*
X0039420Y0159260D03*
X0039600Y0159160D03*
X0039640Y0159120D03*
D136*
X0039620Y0159140D03*
X0039520Y0159200D03*
X0039440Y0159240D03*
X0039340Y0159300D03*
X0039280Y0159340D03*
D137*
X0038840Y0160040D03*
X0041340Y0159140D03*
X0041440Y0159440D03*
X0041440Y0159480D03*
X0041500Y0159700D03*
X0041940Y0162100D03*
X0042500Y0163940D03*
X0043640Y0164680D03*
X0038840Y0163600D03*
X0038300Y0163700D03*
X0038100Y0163540D03*
D138*
X0038850Y0163560D03*
X0038850Y0163520D03*
X0041930Y0162120D03*
X0041950Y0162060D03*
X0041970Y0162020D03*
X0042030Y0161820D03*
X0042070Y0161720D03*
X0042110Y0161620D03*
X0042730Y0161260D03*
X0042850Y0162920D03*
X0041430Y0159920D03*
X0041370Y0159220D03*
X0041350Y0159160D03*
D139*
X0041360Y0159200D03*
X0041420Y0159380D03*
X0041460Y0159500D03*
X0042160Y0161480D03*
X0042160Y0161500D03*
X0042060Y0161740D03*
X0041980Y0161980D03*
X0041920Y0162200D03*
X0041920Y0162240D03*
X0042860Y0162940D03*
X0042560Y0164200D03*
X0042760Y0161300D03*
X0038960Y0162400D03*
X0038860Y0163500D03*
X0036220Y0162700D03*
X0036880Y0161440D03*
X0035560Y0165480D03*
D140*
X0039490Y0159220D03*
D141*
X0038880Y0160160D03*
X0041380Y0159260D03*
X0041480Y0159560D03*
X0042160Y0161520D03*
X0042160Y0161560D03*
X0042020Y0161860D03*
X0041920Y0162160D03*
X0042760Y0161320D03*
X0042520Y0163920D03*
D142*
X0042500Y0164020D03*
X0042000Y0161920D03*
X0042100Y0161660D03*
X0041640Y0160760D03*
X0041400Y0159360D03*
X0041400Y0159320D03*
X0038840Y0163320D03*
X0038700Y0164020D03*
D143*
X0038830Y0163580D03*
X0041950Y0162340D03*
X0041910Y0162180D03*
X0043330Y0161900D03*
X0043330Y0161880D03*
X0043350Y0161940D03*
X0043350Y0162000D03*
X0043290Y0163200D03*
X0041510Y0159680D03*
X0041490Y0159600D03*
X0041410Y0159340D03*
X0038890Y0160200D03*
X0038910Y0160280D03*
X0038930Y0160340D03*
X0038950Y0160400D03*
X0038850Y0160080D03*
D144*
X0039290Y0159400D03*
X0039290Y0159380D03*
D145*
X0038990Y0160520D03*
X0041490Y0159620D03*
X0041450Y0159460D03*
X0041430Y0159420D03*
X0041950Y0162360D03*
D146*
X0039840Y0160900D03*
X0039300Y0159440D03*
D147*
X0039130Y0159460D03*
D148*
X0039090Y0159480D03*
D149*
X0038300Y0160080D03*
X0038940Y0161600D03*
X0038900Y0162680D03*
X0038100Y0163480D03*
X0038960Y0164180D03*
X0039000Y0164140D03*
X0039160Y0163900D03*
X0036860Y0161280D03*
X0036660Y0161040D03*
X0036680Y0160980D03*
X0036680Y0160940D03*
X0040640Y0159740D03*
X0040640Y0159700D03*
X0040660Y0159780D03*
X0040660Y0159800D03*
X0040680Y0159840D03*
X0040700Y0159880D03*
X0040700Y0159900D03*
X0040740Y0160000D03*
X0040740Y0160040D03*
X0040760Y0160100D03*
X0040600Y0159580D03*
X0040580Y0159480D03*
X0041380Y0159980D03*
X0041580Y0160840D03*
X0042860Y0161440D03*
X0043480Y0162540D03*
X0043500Y0162580D03*
X0043500Y0162680D03*
X0043700Y0165080D03*
X0043760Y0165300D03*
X0043740Y0165380D03*
X0043740Y0165400D03*
X0036780Y0167040D03*
D150*
X0040540Y0164040D03*
X0039080Y0159500D03*
D151*
X0039060Y0159520D03*
X0040400Y0161620D03*
D152*
X0041470Y0159520D03*
X0035570Y0165520D03*
D153*
X0039020Y0159540D03*
D154*
X0038970Y0160440D03*
X0036870Y0161400D03*
X0036870Y0161480D03*
X0041470Y0159540D03*
X0041970Y0162400D03*
X0043370Y0162040D03*
D155*
X0043490Y0162560D03*
X0040650Y0159720D03*
X0040590Y0159560D03*
X0043750Y0165220D03*
D156*
X0038970Y0159600D03*
D157*
X0038900Y0159660D03*
X0037400Y0165360D03*
X0037720Y0165960D03*
X0040720Y0166920D03*
X0040720Y0166960D03*
D158*
X0040540Y0167520D03*
X0037900Y0166760D03*
X0035580Y0165560D03*
X0038100Y0163520D03*
X0038840Y0163060D03*
X0038960Y0164220D03*
X0036880Y0161460D03*
X0036880Y0161420D03*
X0036860Y0161360D03*
X0038380Y0160560D03*
X0038260Y0160120D03*
X0038840Y0160060D03*
X0038860Y0160120D03*
X0038900Y0160220D03*
X0038920Y0160260D03*
X0038940Y0160320D03*
X0038940Y0160360D03*
X0038960Y0160420D03*
X0039020Y0160560D03*
X0039040Y0160660D03*
X0039060Y0160720D03*
X0041520Y0159660D03*
X0042800Y0161360D03*
X0043020Y0161560D03*
X0043080Y0161620D03*
X0043320Y0161860D03*
X0043340Y0161920D03*
X0043340Y0161960D03*
X0043360Y0162020D03*
X0043360Y0162060D03*
X0043380Y0162120D03*
X0041940Y0162320D03*
X0041920Y0162260D03*
X0041920Y0162220D03*
X0042480Y0164060D03*
D159*
X0040550Y0161680D03*
X0038950Y0159780D03*
X0038930Y0159700D03*
X0037370Y0165300D03*
X0037390Y0165340D03*
X0037730Y0166000D03*
X0040710Y0166980D03*
D160*
X0040520Y0165620D03*
X0037380Y0165320D03*
X0037360Y0165260D03*
X0038940Y0159720D03*
D161*
X0038950Y0159760D03*
X0040730Y0160560D03*
X0037730Y0166020D03*
D162*
X0038450Y0163520D03*
X0041490Y0159760D03*
D163*
X0040980Y0160380D03*
X0040960Y0160400D03*
X0038720Y0159800D03*
X0039120Y0162200D03*
X0039880Y0163640D03*
X0041080Y0165240D03*
X0040680Y0167280D03*
X0037180Y0164940D03*
D164*
X0035620Y0165660D03*
X0038100Y0163460D03*
X0038860Y0163020D03*
X0037200Y0160960D03*
X0039780Y0160020D03*
X0039760Y0159920D03*
X0039740Y0159860D03*
X0039720Y0159820D03*
X0039840Y0160160D03*
X0039860Y0160220D03*
X0043460Y0162720D03*
X0043700Y0165460D03*
D165*
X0043020Y0165740D03*
X0042620Y0163100D03*
X0039800Y0163600D03*
X0039680Y0163480D03*
X0039700Y0163300D03*
X0039240Y0161400D03*
X0038680Y0159840D03*
X0037160Y0164880D03*
X0037860Y0166500D03*
X0040660Y0167340D03*
D166*
X0039700Y0163220D03*
X0039740Y0163160D03*
X0039100Y0162120D03*
X0038640Y0159860D03*
D167*
X0038600Y0159880D03*
X0041080Y0160280D03*
X0039900Y0162980D03*
D168*
X0038570Y0159900D03*
D169*
X0036380Y0161040D03*
X0038900Y0162640D03*
X0038860Y0163080D03*
X0038860Y0163280D03*
X0038540Y0163400D03*
X0038480Y0163500D03*
X0038440Y0163540D03*
X0038400Y0163580D03*
X0038380Y0163600D03*
X0038800Y0163900D03*
X0038860Y0163840D03*
X0038760Y0163980D03*
X0038740Y0164000D03*
X0038700Y0164040D03*
X0038980Y0164240D03*
X0039060Y0163600D03*
X0040260Y0162480D03*
X0041940Y0162080D03*
X0042080Y0161700D03*
X0042100Y0161640D03*
X0042740Y0161280D03*
X0041640Y0160740D03*
X0041440Y0159900D03*
X0042840Y0162900D03*
X0043320Y0163180D03*
X0042500Y0164000D03*
X0042500Y0164040D03*
X0037100Y0164640D03*
X0035540Y0165440D03*
D170*
X0040620Y0167420D03*
X0042720Y0163160D03*
X0038520Y0159920D03*
D171*
X0038510Y0159960D03*
X0036050Y0162020D03*
X0042910Y0163620D03*
D172*
X0043720Y0165120D03*
X0043720Y0165420D03*
X0040720Y0159960D03*
D173*
X0038370Y0160040D03*
X0036930Y0162300D03*
X0036030Y0162600D03*
X0035930Y0162200D03*
X0035830Y0161780D03*
X0035810Y0161680D03*
D174*
X0038850Y0162980D03*
X0043290Y0163980D03*
X0043290Y0164000D03*
X0043650Y0165500D03*
X0041350Y0160040D03*
D175*
X0039040Y0161960D03*
X0038500Y0162420D03*
X0038260Y0162620D03*
X0038880Y0162760D03*
X0035640Y0165720D03*
X0043100Y0165020D03*
X0043620Y0165020D03*
X0043280Y0163960D03*
X0043280Y0163920D03*
X0038340Y0160060D03*
D176*
X0037340Y0161760D03*
X0037280Y0161820D03*
X0037220Y0161920D03*
X0036040Y0162620D03*
X0035820Y0161720D03*
X0035900Y0161120D03*
X0038080Y0163420D03*
X0038880Y0162860D03*
X0038880Y0162820D03*
X0040520Y0162220D03*
X0042180Y0162960D03*
X0043200Y0163820D03*
X0041320Y0160060D03*
D177*
X0040750Y0160080D03*
X0036890Y0161540D03*
X0039150Y0163940D03*
X0035590Y0165600D03*
X0043750Y0165340D03*
X0043750Y0165200D03*
X0043750Y0165180D03*
D178*
X0042820Y0165300D03*
X0043320Y0164080D03*
X0041320Y0160080D03*
X0037420Y0161380D03*
X0036920Y0162280D03*
X0036020Y0162540D03*
X0035920Y0162140D03*
X0035820Y0161740D03*
X0035820Y0161700D03*
X0035720Y0165880D03*
D179*
X0035570Y0165540D03*
X0038950Y0163700D03*
X0039110Y0164000D03*
X0042090Y0162900D03*
X0042490Y0163900D03*
X0042470Y0164080D03*
X0042610Y0164240D03*
X0043150Y0161680D03*
X0043030Y0161580D03*
X0042990Y0161540D03*
X0042150Y0161600D03*
X0039070Y0160740D03*
X0039050Y0160700D03*
X0039010Y0160580D03*
X0038470Y0160840D03*
X0038490Y0160880D03*
X0038450Y0160800D03*
X0038430Y0160740D03*
X0038410Y0160680D03*
X0038390Y0160600D03*
X0038350Y0160500D03*
X0038270Y0160100D03*
D180*
X0041290Y0160100D03*
X0039110Y0163800D03*
D181*
X0042070Y0162820D03*
X0042530Y0163820D03*
X0043510Y0162660D03*
X0043510Y0162620D03*
X0043470Y0162520D03*
X0040770Y0160120D03*
D182*
X0041280Y0160120D03*
X0043060Y0162960D03*
X0039120Y0163760D03*
X0038160Y0162760D03*
X0037380Y0161660D03*
X0037380Y0161620D03*
D183*
X0035940Y0161500D03*
X0037940Y0163100D03*
X0037140Y0164780D03*
X0040640Y0167400D03*
X0039900Y0162640D03*
X0042400Y0162600D03*
X0041100Y0160140D03*
D184*
X0041110Y0160160D03*
X0041130Y0160220D03*
X0035970Y0161360D03*
X0037890Y0166620D03*
D185*
X0035580Y0165580D03*
X0038100Y0163500D03*
X0038840Y0163040D03*
X0039200Y0163880D03*
X0039080Y0164040D03*
X0039040Y0164080D03*
X0039020Y0164100D03*
X0038960Y0164200D03*
X0042080Y0162880D03*
X0042080Y0162840D03*
X0042080Y0162800D03*
X0042520Y0163840D03*
X0042500Y0164140D03*
X0042960Y0165200D03*
X0042960Y0165340D03*
X0043360Y0165800D03*
X0043760Y0165280D03*
X0043760Y0165240D03*
X0043520Y0162640D03*
X0043380Y0162140D03*
X0043280Y0161800D03*
X0043260Y0161780D03*
X0043220Y0161740D03*
X0043180Y0161700D03*
X0042940Y0161500D03*
X0042840Y0161400D03*
X0042820Y0161380D03*
X0038460Y0160780D03*
X0038420Y0160700D03*
X0038400Y0160640D03*
X0038380Y0160580D03*
X0038380Y0160540D03*
X0038360Y0160480D03*
X0038320Y0160400D03*
X0038320Y0160380D03*
X0038300Y0160340D03*
X0038300Y0160300D03*
X0038280Y0160280D03*
X0038280Y0160240D03*
X0038260Y0160200D03*
X0038260Y0160180D03*
X0036860Y0161340D03*
D186*
X0037190Y0161600D03*
X0035950Y0161380D03*
X0035930Y0161440D03*
X0041110Y0160200D03*
X0041110Y0160180D03*
D187*
X0041030Y0160320D03*
X0037150Y0164860D03*
D188*
X0039670Y0163540D03*
X0039110Y0162140D03*
X0040670Y0161900D03*
X0041010Y0160340D03*
D189*
X0040920Y0160420D03*
X0037820Y0166320D03*
D190*
X0040690Y0167200D03*
X0040870Y0161380D03*
X0040910Y0160440D03*
D191*
X0040730Y0160460D03*
X0040430Y0163820D03*
X0037510Y0165520D03*
X0037470Y0165460D03*
X0037670Y0165860D03*
D192*
X0037460Y0165440D03*
X0040600Y0165740D03*
X0040740Y0160500D03*
X0040740Y0160480D03*
D193*
X0040750Y0160540D03*
D194*
X0040720Y0160580D03*
X0040700Y0160600D03*
X0036520Y0161940D03*
X0037740Y0166040D03*
X0040540Y0165600D03*
D195*
X0040710Y0166940D03*
X0037710Y0165940D03*
X0037430Y0165400D03*
X0040610Y0160640D03*
D196*
X0043230Y0162320D03*
X0043290Y0164220D03*
X0036870Y0160660D03*
D197*
X0040550Y0160660D03*
X0037590Y0165660D03*
X0037610Y0165720D03*
D198*
X0037110Y0164700D03*
X0035910Y0166140D03*
X0035950Y0166180D03*
X0036010Y0166240D03*
X0036050Y0166280D03*
X0036890Y0162240D03*
X0036590Y0161880D03*
X0036870Y0160680D03*
X0041390Y0161040D03*
D199*
X0040500Y0160680D03*
X0040640Y0165900D03*
X0037640Y0165780D03*
X0037600Y0165700D03*
D200*
X0035980Y0166220D03*
X0040600Y0162160D03*
X0043080Y0163320D03*
X0042480Y0165720D03*
X0036880Y0160720D03*
D201*
X0040340Y0160740D03*
X0040440Y0161600D03*
X0040500Y0163940D03*
D202*
X0040540Y0164160D03*
X0040180Y0160760D03*
D203*
X0040180Y0160780D03*
X0040080Y0160840D03*
X0040540Y0164100D03*
D204*
X0039970Y0165400D03*
X0037890Y0166680D03*
X0043350Y0164640D03*
X0043330Y0164540D03*
X0043310Y0164500D03*
X0043310Y0164480D03*
X0036890Y0162180D03*
X0036910Y0160800D03*
D205*
X0040160Y0160800D03*
X0041580Y0165400D03*
D206*
X0042290Y0162660D03*
X0040630Y0162120D03*
X0038110Y0162860D03*
X0036910Y0162120D03*
X0036910Y0160820D03*
D207*
X0040130Y0160820D03*
X0040550Y0164120D03*
D208*
X0042920Y0163660D03*
X0043060Y0163360D03*
X0038060Y0162920D03*
X0038020Y0162960D03*
X0036920Y0160860D03*
X0036580Y0166760D03*
D209*
X0040020Y0160860D03*
D210*
X0039980Y0160880D03*
X0040540Y0164240D03*
D211*
X0039820Y0160920D03*
D212*
X0041540Y0160920D03*
X0037240Y0161020D03*
X0036840Y0161620D03*
X0043340Y0164760D03*
D213*
X0043250Y0162880D03*
X0043470Y0162700D03*
X0038850Y0163000D03*
X0037350Y0161180D03*
X0037290Y0161100D03*
X0037250Y0161040D03*
X0037230Y0161000D03*
X0037210Y0160980D03*
X0037190Y0160940D03*
D214*
X0039760Y0160960D03*
X0040560Y0164320D03*
D215*
X0039750Y0160980D03*
D216*
X0040560Y0162200D03*
X0041460Y0160980D03*
X0043140Y0163780D03*
X0043360Y0164800D03*
X0042440Y0164680D03*
X0040560Y0167480D03*
X0038060Y0163380D03*
X0038180Y0162700D03*
X0038440Y0162500D03*
X0036560Y0161080D03*
X0035840Y0161800D03*
X0035840Y0161840D03*
X0035860Y0161900D03*
X0035940Y0162180D03*
X0035940Y0162240D03*
X0035960Y0162280D03*
X0035960Y0162340D03*
X0035980Y0162380D03*
X0035980Y0162400D03*
X0036000Y0162480D03*
X0036000Y0162500D03*
D217*
X0035900Y0161920D03*
X0036560Y0161060D03*
X0037400Y0161260D03*
X0037400Y0161320D03*
X0037400Y0161360D03*
X0038380Y0162560D03*
X0038060Y0163360D03*
X0038980Y0161560D03*
X0043280Y0162260D03*
X0043440Y0164660D03*
X0037900Y0166720D03*
X0035740Y0165920D03*
D218*
X0038890Y0162720D03*
X0037330Y0161160D03*
X0037310Y0161120D03*
X0037270Y0161060D03*
X0043330Y0162820D03*
D219*
X0039650Y0161060D03*
D220*
X0039600Y0161100D03*
X0040480Y0161580D03*
X0040660Y0165280D03*
D221*
X0036780Y0167020D03*
X0035700Y0165860D03*
X0036000Y0162560D03*
X0036000Y0162520D03*
X0035980Y0162460D03*
X0035980Y0162420D03*
X0035960Y0162360D03*
X0035960Y0162320D03*
X0035940Y0162260D03*
X0035940Y0162220D03*
X0035860Y0161860D03*
X0035840Y0161820D03*
X0036560Y0161120D03*
X0038440Y0162520D03*
D222*
X0039570Y0161120D03*
D223*
X0038880Y0162740D03*
X0038080Y0163440D03*
X0039180Y0163840D03*
X0042120Y0162740D03*
X0043280Y0164040D03*
X0043660Y0165040D03*
X0037320Y0161140D03*
X0035620Y0165680D03*
D224*
X0038010Y0163200D03*
X0041230Y0161140D03*
X0043370Y0164980D03*
D225*
X0043310Y0164160D03*
X0036570Y0161160D03*
X0035910Y0161160D03*
X0035770Y0165960D03*
D226*
X0037860Y0166440D03*
X0040680Y0167300D03*
X0039680Y0163580D03*
X0039120Y0162180D03*
X0036300Y0161200D03*
X0036280Y0161180D03*
D227*
X0039510Y0161180D03*
X0040610Y0165780D03*
X0040610Y0165800D03*
X0040710Y0166880D03*
X0037690Y0165900D03*
X0037690Y0165880D03*
X0037670Y0165840D03*
X0037490Y0165480D03*
D228*
X0036300Y0161220D03*
D229*
X0039460Y0161220D03*
D230*
X0041120Y0161220D03*
X0038020Y0163160D03*
D231*
X0036290Y0161240D03*
X0040650Y0161840D03*
X0043050Y0165640D03*
X0037850Y0166400D03*
D232*
X0035670Y0165780D03*
X0038870Y0162900D03*
X0038870Y0162880D03*
X0038870Y0162840D03*
X0038210Y0162680D03*
X0037350Y0161240D03*
X0043230Y0163840D03*
D233*
X0039430Y0161240D03*
X0037310Y0165180D03*
X0037330Y0165200D03*
X0040710Y0167080D03*
D234*
X0037870Y0166540D03*
X0043070Y0164380D03*
X0041090Y0161240D03*
D235*
X0042720Y0161240D03*
D236*
X0039120Y0162220D03*
X0036300Y0161260D03*
X0040680Y0167260D03*
D237*
X0039420Y0161260D03*
D238*
X0041060Y0161260D03*
D239*
X0040630Y0161780D03*
X0039370Y0161300D03*
D240*
X0040990Y0161300D03*
D241*
X0040910Y0161360D03*
X0040650Y0161820D03*
X0039330Y0161320D03*
D242*
X0040650Y0161860D03*
X0040970Y0161320D03*
D243*
X0040920Y0161340D03*
X0039320Y0161340D03*
X0037840Y0166380D03*
D244*
X0042170Y0161340D03*
D245*
X0042170Y0161360D03*
X0036270Y0162720D03*
D246*
X0037470Y0161400D03*
D247*
X0035940Y0161420D03*
X0035940Y0161460D03*
X0039140Y0161460D03*
D248*
X0040600Y0161720D03*
X0040740Y0161460D03*
X0037780Y0166160D03*
D249*
X0037900Y0166640D03*
X0036760Y0166900D03*
X0036740Y0166880D03*
X0043360Y0164940D03*
X0043000Y0163380D03*
X0042340Y0162640D03*
X0039100Y0161480D03*
X0036940Y0162000D03*
X0036580Y0161680D03*
D250*
X0039420Y0163340D03*
X0040580Y0161700D03*
X0040680Y0161480D03*
X0037360Y0165280D03*
X0037760Y0166080D03*
D251*
X0039930Y0162720D03*
X0039910Y0162660D03*
X0035950Y0161560D03*
X0035930Y0161520D03*
D252*
X0040620Y0161520D03*
D253*
X0035950Y0161540D03*
D254*
X0040520Y0161560D03*
X0040460Y0163860D03*
X0040740Y0166660D03*
D255*
X0040680Y0167240D03*
X0037220Y0164980D03*
X0036280Y0161640D03*
X0040640Y0161800D03*
D256*
X0040360Y0161640D03*
X0039940Y0163740D03*
X0040520Y0164000D03*
D257*
X0039140Y0162260D03*
X0036300Y0161660D03*
X0037840Y0166360D03*
D258*
X0040730Y0166720D03*
X0040490Y0161660D03*
D259*
X0038080Y0162900D03*
X0036920Y0162100D03*
X0036520Y0161700D03*
X0037120Y0164740D03*
X0042920Y0163740D03*
X0042920Y0163700D03*
X0043020Y0163280D03*
X0043180Y0162400D03*
X0043360Y0164900D03*
D260*
X0037410Y0161720D03*
D261*
X0038170Y0162720D03*
X0035830Y0161760D03*
D262*
X0039520Y0163420D03*
X0039520Y0163460D03*
X0040620Y0161760D03*
D263*
X0043250Y0162300D03*
X0036590Y0161800D03*
X0035830Y0166040D03*
D264*
X0035270Y0164940D03*
X0035170Y0164780D03*
X0035070Y0164580D03*
X0034970Y0164380D03*
X0038570Y0163280D03*
X0038770Y0161840D03*
X0039370Y0164740D03*
D265*
X0035690Y0165840D03*
X0035990Y0162440D03*
X0035850Y0161880D03*
D266*
X0040670Y0161920D03*
D267*
X0036510Y0161980D03*
X0037350Y0165240D03*
X0037750Y0166100D03*
X0040710Y0167040D03*
D268*
X0043180Y0164420D03*
X0040660Y0162020D03*
D269*
X0038040Y0163260D03*
X0036040Y0162060D03*
X0039940Y0164760D03*
X0036540Y0166720D03*
D270*
X0036810Y0166920D03*
X0037970Y0163020D03*
X0036930Y0162060D03*
X0042990Y0163260D03*
D271*
X0039090Y0162060D03*
D272*
X0040650Y0162060D03*
D273*
X0043320Y0164120D03*
X0042920Y0164720D03*
X0035920Y0162160D03*
X0035920Y0162120D03*
D274*
X0039110Y0162160D03*
D275*
X0036100Y0162640D03*
X0035640Y0165700D03*
X0042600Y0163780D03*
X0043200Y0162940D03*
X0043240Y0162900D03*
X0043400Y0162780D03*
X0043440Y0162740D03*
X0043340Y0162200D03*
D276*
X0039130Y0162240D03*
D277*
X0039100Y0163820D03*
X0036900Y0162260D03*
X0042140Y0162420D03*
D278*
X0039140Y0162320D03*
X0040680Y0167220D03*
D279*
X0040700Y0167160D03*
X0037240Y0165060D03*
X0039140Y0162360D03*
D280*
X0043220Y0162360D03*
D281*
X0043190Y0162380D03*
X0042910Y0163680D03*
X0038110Y0162880D03*
X0036370Y0166580D03*
D282*
X0036830Y0166940D03*
X0037970Y0163040D03*
X0039670Y0162440D03*
D283*
X0042720Y0162440D03*
D284*
X0042720Y0162460D03*
X0040340Y0163760D03*
D285*
X0040000Y0163700D03*
X0042740Y0162500D03*
X0042740Y0162480D03*
X0037760Y0166140D03*
D286*
X0039890Y0162920D03*
X0039790Y0162560D03*
X0039770Y0162520D03*
X0043070Y0164320D03*
D287*
X0042510Y0164180D03*
X0042970Y0165380D03*
X0042970Y0165400D03*
X0042070Y0162780D03*
X0043510Y0162600D03*
X0039130Y0163980D03*
D288*
X0038150Y0162820D03*
X0036090Y0166320D03*
D289*
X0042820Y0162820D03*
D290*
X0039900Y0162840D03*
X0039740Y0163140D03*
X0039700Y0163200D03*
X0039700Y0163240D03*
X0039700Y0163280D03*
X0038000Y0163140D03*
D291*
X0038000Y0162980D03*
X0042900Y0163640D03*
D292*
X0042620Y0163060D03*
D293*
X0042620Y0163120D03*
X0043160Y0165660D03*
X0040660Y0167360D03*
X0039720Y0163260D03*
X0037980Y0163120D03*
D294*
X0038010Y0163220D03*
X0042910Y0163460D03*
D295*
X0039660Y0163560D03*
X0039660Y0163320D03*
X0040660Y0167320D03*
D296*
X0042900Y0165620D03*
X0039400Y0163360D03*
D297*
X0039500Y0163440D03*
D298*
X0039670Y0163520D03*
D299*
X0039940Y0163660D03*
X0041160Y0164760D03*
D300*
X0040420Y0163800D03*
X0040720Y0166900D03*
D301*
X0040730Y0166600D03*
X0040730Y0166580D03*
X0040730Y0166540D03*
X0040730Y0166500D03*
X0040710Y0166200D03*
X0040690Y0166100D03*
X0040690Y0166080D03*
X0040470Y0163880D03*
D302*
X0040500Y0163920D03*
D303*
X0040510Y0163960D03*
D304*
X0040510Y0163980D03*
D305*
X0040520Y0164020D03*
D306*
X0040540Y0164060D03*
X0040760Y0165320D03*
D307*
X0040560Y0164200D03*
X0040540Y0164180D03*
D308*
X0043300Y0164180D03*
X0043300Y0165780D03*
X0035800Y0166000D03*
D309*
X0040560Y0164220D03*
D310*
X0040540Y0164260D03*
D311*
X0040560Y0164280D03*
D312*
X0040560Y0164300D03*
X0040560Y0164340D03*
D313*
X0040570Y0164360D03*
D314*
X0040570Y0164380D03*
X0040570Y0164400D03*
X0040570Y0164440D03*
D315*
X0040570Y0164420D03*
D316*
X0040580Y0164460D03*
X0040700Y0164620D03*
D317*
X0040580Y0164540D03*
X0040580Y0164500D03*
X0040580Y0164480D03*
X0040880Y0164800D03*
D318*
X0040570Y0164520D03*
D319*
X0040580Y0164560D03*
D320*
X0040640Y0164600D03*
D321*
X0040820Y0164640D03*
D322*
X0041000Y0164660D03*
D323*
X0040740Y0164720D03*
X0040800Y0165660D03*
D324*
X0040790Y0164780D03*
X0041590Y0165000D03*
D325*
X0037130Y0164820D03*
D326*
X0041020Y0164820D03*
D327*
X0041080Y0164840D03*
D328*
X0041160Y0164860D03*
D329*
X0041170Y0164880D03*
D330*
X0041180Y0164900D03*
D331*
X0041190Y0164920D03*
D332*
X0041200Y0164940D03*
X0041200Y0164980D03*
D333*
X0037190Y0164960D03*
D334*
X0041200Y0164960D03*
D335*
X0037220Y0165000D03*
D336*
X0037230Y0165020D03*
D337*
X0041200Y0165020D03*
D338*
X0041370Y0165060D03*
D339*
X0041380Y0165080D03*
D340*
X0037270Y0165100D03*
D341*
X0041350Y0165100D03*
D342*
X0041360Y0165120D03*
X0041380Y0165420D03*
D343*
X0037290Y0165140D03*
D344*
X0041340Y0165140D03*
X0041340Y0165180D03*
D345*
X0041330Y0165160D03*
X0041330Y0165220D03*
D346*
X0041180Y0165200D03*
D347*
X0040710Y0167060D03*
X0037330Y0165220D03*
D348*
X0040670Y0165260D03*
D349*
X0040670Y0165300D03*
D350*
X0040980Y0165360D03*
D351*
X0041100Y0165380D03*
D352*
X0041370Y0165440D03*
D353*
X0041390Y0165460D03*
D354*
X0041390Y0165480D03*
D355*
X0040600Y0165640D03*
X0040640Y0165880D03*
X0040720Y0166800D03*
X0040720Y0166840D03*
X0037640Y0165800D03*
X0037540Y0165580D03*
X0037500Y0165500D03*
D356*
X0041420Y0165500D03*
D357*
X0041450Y0165520D03*
D358*
X0043630Y0165520D03*
D359*
X0041720Y0165540D03*
D360*
X0041720Y0165560D03*
D361*
X0041710Y0165580D03*
D362*
X0042790Y0165600D03*
X0040730Y0166700D03*
D363*
X0040720Y0166760D03*
X0040720Y0166820D03*
X0040660Y0165960D03*
X0040660Y0165920D03*
X0037560Y0165620D03*
D364*
X0040570Y0165720D03*
D365*
X0043350Y0165720D03*
X0035810Y0166020D03*
D366*
X0035690Y0165820D03*
D367*
X0040660Y0165940D03*
X0040660Y0165980D03*
X0040680Y0166000D03*
X0040680Y0166040D03*
X0040720Y0166640D03*
X0040720Y0166680D03*
D368*
X0040730Y0166620D03*
X0040730Y0166560D03*
X0040730Y0166520D03*
X0040730Y0166320D03*
X0040690Y0166060D03*
X0040670Y0166020D03*
D369*
X0040710Y0167020D03*
X0037750Y0166060D03*
D370*
X0037770Y0166120D03*
D371*
X0040700Y0166120D03*
X0040700Y0166160D03*
X0040720Y0166220D03*
X0040720Y0166260D03*
X0040740Y0166360D03*
X0040720Y0166420D03*
X0040720Y0166460D03*
D372*
X0040700Y0167100D03*
X0037780Y0166180D03*
D373*
X0036130Y0166360D03*
X0036030Y0166260D03*
D374*
X0036220Y0166440D03*
D375*
X0040710Y0167000D03*
D376*
X0036950Y0168460D03*
D377*
X0050800Y0168340D02*
X0160643Y0168340D01*
X0160643Y0168733D02*
X0050800Y0168733D01*
X0050800Y0169127D02*
X0160643Y0169127D01*
X0160643Y0169521D02*
X0050800Y0169521D01*
X0050800Y0169560D02*
X0050800Y0154560D01*
X0160643Y0154560D01*
X0050800Y0154560D01*
X0050800Y0154954D02*
X0160643Y0154954D01*
X0160643Y0155347D02*
X0050800Y0155347D01*
X0050800Y0155741D02*
X0160643Y0155741D01*
X0160643Y0156135D02*
X0050800Y0156135D01*
X0050800Y0156528D02*
X0160643Y0156528D01*
X0160643Y0156922D02*
X0150720Y0156922D01*
X0150661Y0156863D02*
X0152019Y0158221D01*
X0152632Y0158835D01*
X0152632Y0159702D01*
X0151274Y0161060D01*
X0150661Y0161673D01*
X0147944Y0161673D01*
X0147633Y0161985D01*
X0147944Y0162296D01*
X0152019Y0162296D01*
X0152632Y0162909D01*
X0152632Y0163777D01*
X0152019Y0164390D01*
X0147077Y0164390D01*
X0146464Y0163777D01*
X0145710Y0163023D01*
X0145106Y0162418D01*
X0145106Y0161551D01*
X0145120Y0161537D01*
X0147077Y0159580D01*
X0149794Y0159580D01*
X0150105Y0159268D01*
X0149794Y0158957D01*
X0145719Y0158957D01*
X0145106Y0158343D01*
X0145106Y0157477D01*
X0145719Y0156863D01*
X0150661Y0156863D01*
X0151114Y0157316D02*
X0160643Y0157316D01*
X0160643Y0157710D02*
X0151507Y0157710D01*
X0151901Y0158103D02*
X0160643Y0158103D01*
X0160643Y0158497D02*
X0152295Y0158497D01*
X0152632Y0158891D02*
X0160643Y0158891D01*
X0160643Y0159284D02*
X0152632Y0159284D01*
X0152632Y0159678D02*
X0160643Y0159678D01*
X0160643Y0160072D02*
X0152263Y0160072D01*
X0151869Y0160466D02*
X0160643Y0160466D01*
X0160643Y0160859D02*
X0151475Y0160859D01*
X0151081Y0161253D02*
X0160643Y0161253D01*
X0160643Y0161647D02*
X0150688Y0161647D01*
X0152157Y0162434D02*
X0160643Y0162434D01*
X0160643Y0162040D02*
X0147689Y0162040D01*
X0146303Y0163615D02*
X0143874Y0163615D01*
X0143874Y0163777D02*
X0143261Y0164390D01*
X0142516Y0164390D01*
X0142516Y0165135D01*
X0141903Y0165748D01*
X0141035Y0165748D01*
X0140422Y0165135D01*
X0140422Y0164390D01*
X0139677Y0164390D01*
X0139064Y0163777D01*
X0139064Y0162909D01*
X0139677Y0162296D01*
X0140422Y0162296D01*
X0140422Y0158835D01*
X0142394Y0156863D01*
X0143261Y0156863D01*
X0143874Y0157477D01*
X0143874Y0158343D01*
X0142516Y0159702D01*
X0142516Y0162296D01*
X0143261Y0162296D01*
X0143874Y0162909D01*
X0143874Y0163777D01*
X0143642Y0164009D02*
X0146696Y0164009D01*
X0145909Y0163221D02*
X0143874Y0163221D01*
X0143793Y0162828D02*
X0145515Y0162828D01*
X0145122Y0162434D02*
X0143399Y0162434D01*
X0142516Y0162040D02*
X0145106Y0162040D01*
X0145106Y0161647D02*
X0142516Y0161647D01*
X0142516Y0161253D02*
X0145404Y0161253D01*
X0145798Y0160859D02*
X0142516Y0160859D01*
X0142516Y0160466D02*
X0146191Y0160466D01*
X0146585Y0160072D02*
X0142516Y0160072D01*
X0142540Y0159678D02*
X0146979Y0159678D01*
X0145653Y0158891D02*
X0143327Y0158891D01*
X0142933Y0159284D02*
X0150089Y0159284D01*
X0152551Y0162828D02*
X0160643Y0162828D01*
X0160643Y0163221D02*
X0152632Y0163221D01*
X0152632Y0163615D02*
X0160643Y0163615D01*
X0160643Y0164009D02*
X0152400Y0164009D01*
X0160643Y0164403D02*
X0142516Y0164403D01*
X0142516Y0164796D02*
X0160643Y0164796D01*
X0160643Y0165190D02*
X0142461Y0165190D01*
X0142067Y0165584D02*
X0160643Y0165584D01*
X0160643Y0165977D02*
X0124543Y0165977D01*
X0124543Y0165584D02*
X0140871Y0165584D01*
X0140477Y0165190D02*
X0124543Y0165190D01*
X0124543Y0164796D02*
X0140422Y0164796D01*
X0140422Y0164403D02*
X0127611Y0164403D01*
X0127350Y0164454D02*
X0124543Y0162582D01*
X0124543Y0166493D01*
X0123929Y0167106D01*
X0123062Y0167106D01*
X0122449Y0166493D01*
X0122449Y0160943D01*
X0122384Y0160846D01*
X0122428Y0160627D01*
X0122384Y0160406D01*
X0122449Y0160310D01*
X0122449Y0157477D01*
X0123062Y0156863D01*
X0123929Y0156863D01*
X0124543Y0157477D01*
X0124543Y0158671D01*
X0127350Y0156799D01*
X0128201Y0156969D01*
X0128682Y0157690D01*
X0128512Y0158540D01*
X0125383Y0160627D01*
X0128512Y0162712D01*
X0128682Y0163563D01*
X0128201Y0164284D01*
X0127350Y0164454D01*
X0127272Y0164403D02*
X0124543Y0164403D01*
X0124543Y0164009D02*
X0126682Y0164009D01*
X0126091Y0163615D02*
X0124543Y0163615D01*
X0124543Y0163221D02*
X0125501Y0163221D01*
X0124910Y0162828D02*
X0124543Y0162828D01*
X0122449Y0162828D02*
X0120831Y0162828D01*
X0120913Y0162909D02*
X0120913Y0163777D01*
X0120299Y0164390D01*
X0115357Y0164390D01*
X0113999Y0163032D01*
X0113386Y0162418D01*
X0113386Y0158835D01*
X0114744Y0157477D01*
X0115357Y0156863D01*
X0120299Y0156863D01*
X0120913Y0157477D01*
X0120913Y0158343D01*
X0120299Y0158957D01*
X0116224Y0158957D01*
X0115480Y0159702D01*
X0115480Y0161551D01*
X0116224Y0162296D01*
X0120299Y0162296D01*
X0120913Y0162909D01*
X0120913Y0163221D02*
X0122449Y0163221D01*
X0122449Y0163615D02*
X0120913Y0163615D01*
X0120680Y0164009D02*
X0122449Y0164009D01*
X0122449Y0164403D02*
X0101428Y0164403D01*
X0101428Y0164796D02*
X0122449Y0164796D01*
X0122449Y0165190D02*
X0102351Y0165190D01*
X0102174Y0165013D02*
X0102787Y0165626D01*
X0102787Y0166493D01*
X0102174Y0167106D01*
X0098590Y0167106D01*
X0097977Y0166493D01*
X0097977Y0165626D01*
X0098590Y0165013D01*
X0099335Y0165013D01*
X0099335Y0159702D01*
X0098590Y0158957D01*
X0098099Y0158957D01*
X0096741Y0160315D01*
X0095873Y0160315D01*
X0095260Y0159702D01*
X0095260Y0158835D01*
X0096619Y0157477D01*
X0097231Y0156863D01*
X0099457Y0156863D01*
X0101428Y0158834D01*
X0101428Y0165013D01*
X0102174Y0165013D01*
X0102744Y0165584D02*
X0122449Y0165584D01*
X0122449Y0165977D02*
X0102787Y0165977D01*
X0102787Y0166371D02*
X0122449Y0166371D01*
X0122720Y0166765D02*
X0102515Y0166765D01*
X0099335Y0164796D02*
X0079228Y0164796D01*
X0079228Y0164403D02*
X0099335Y0164403D01*
X0099335Y0164009D02*
X0092133Y0164009D01*
X0092366Y0163777D02*
X0091752Y0164390D01*
X0088169Y0164390D01*
X0086811Y0163032D01*
X0086197Y0162418D01*
X0086197Y0158835D01*
X0088169Y0156863D01*
X0089036Y0156863D01*
X0090885Y0156863D01*
X0091752Y0156863D01*
X0093111Y0158221D01*
X0093724Y0158835D01*
X0093724Y0162418D01*
X0092366Y0163777D01*
X0092527Y0163615D02*
X0099335Y0163615D01*
X0099335Y0163221D02*
X0092921Y0163221D01*
X0093315Y0162828D02*
X0099335Y0162828D01*
X0099335Y0162434D02*
X0093708Y0162434D01*
X0093724Y0162040D02*
X0099335Y0162040D01*
X0099335Y0161647D02*
X0093724Y0161647D01*
X0093724Y0161253D02*
X0099335Y0161253D01*
X0099335Y0160859D02*
X0093724Y0160859D01*
X0093724Y0160466D02*
X0099335Y0160466D01*
X0099335Y0160072D02*
X0096984Y0160072D01*
X0097378Y0159678D02*
X0099311Y0159678D01*
X0098917Y0159284D02*
X0097771Y0159284D01*
X0096385Y0157710D02*
X0092599Y0157710D01*
X0092993Y0158103D02*
X0095991Y0158103D01*
X0095598Y0158497D02*
X0093386Y0158497D01*
X0093724Y0158891D02*
X0095260Y0158891D01*
X0095260Y0159284D02*
X0093724Y0159284D01*
X0093724Y0159678D02*
X0095260Y0159678D01*
X0095630Y0160072D02*
X0093724Y0160072D01*
X0091630Y0160072D02*
X0088291Y0160072D01*
X0088291Y0159702D02*
X0088291Y0161551D01*
X0089036Y0162296D01*
X0090885Y0162296D01*
X0091630Y0161551D01*
X0091630Y0159702D01*
X0090885Y0158957D01*
X0089036Y0158957D01*
X0088291Y0159702D01*
X0088315Y0159678D02*
X0091606Y0159678D01*
X0091213Y0159284D02*
X0088708Y0159284D01*
X0088291Y0160466D02*
X0091630Y0160466D01*
X0091630Y0160859D02*
X0088291Y0160859D01*
X0088291Y0161253D02*
X0091630Y0161253D01*
X0091535Y0161647D02*
X0088387Y0161647D01*
X0088780Y0162040D02*
X0091141Y0162040D01*
X0087788Y0164009D02*
X0083070Y0164009D01*
X0083303Y0163777D02*
X0082690Y0164390D01*
X0079228Y0164390D01*
X0079228Y0166493D01*
X0078615Y0167106D01*
X0077748Y0167106D01*
X0077134Y0166493D01*
X0077134Y0157477D01*
X0077748Y0156863D01*
X0082690Y0156863D01*
X0084048Y0158221D01*
X0084661Y0158835D01*
X0084661Y0162418D01*
X0083303Y0163777D01*
X0083464Y0163615D02*
X0087394Y0163615D01*
X0087000Y0163221D02*
X0083858Y0163221D01*
X0084252Y0162828D02*
X0086607Y0162828D01*
X0086213Y0162434D02*
X0084645Y0162434D01*
X0084661Y0162040D02*
X0086197Y0162040D01*
X0086197Y0161647D02*
X0084661Y0161647D01*
X0084661Y0161253D02*
X0086197Y0161253D01*
X0086197Y0160859D02*
X0084661Y0160859D01*
X0084661Y0160466D02*
X0086197Y0160466D01*
X0086197Y0160072D02*
X0084661Y0160072D01*
X0084661Y0159678D02*
X0086197Y0159678D01*
X0086197Y0159284D02*
X0084661Y0159284D01*
X0084661Y0158891D02*
X0086197Y0158891D01*
X0086535Y0158497D02*
X0084324Y0158497D01*
X0083930Y0158103D02*
X0086929Y0158103D01*
X0087322Y0157710D02*
X0083536Y0157710D01*
X0083143Y0157316D02*
X0087716Y0157316D01*
X0088110Y0156922D02*
X0082749Y0156922D01*
X0081822Y0158957D02*
X0079228Y0158957D01*
X0079228Y0162296D01*
X0081822Y0162296D01*
X0082567Y0161551D01*
X0082567Y0159702D01*
X0081822Y0158957D01*
X0082150Y0159284D02*
X0079228Y0159284D01*
X0079228Y0159678D02*
X0082544Y0159678D01*
X0082567Y0160072D02*
X0079228Y0160072D01*
X0079228Y0160466D02*
X0082567Y0160466D01*
X0082567Y0160859D02*
X0079228Y0160859D01*
X0079228Y0161253D02*
X0082567Y0161253D01*
X0082472Y0161647D02*
X0079228Y0161647D01*
X0079228Y0162040D02*
X0082078Y0162040D01*
X0079228Y0165190D02*
X0098413Y0165190D01*
X0098019Y0165584D02*
X0079228Y0165584D01*
X0079228Y0165977D02*
X0097977Y0165977D01*
X0097977Y0166371D02*
X0079228Y0166371D01*
X0078956Y0166765D02*
X0098248Y0166765D01*
X0101428Y0164009D02*
X0105913Y0164009D01*
X0105681Y0163777D02*
X0105681Y0162909D01*
X0106294Y0162296D01*
X0109011Y0162296D01*
X0109634Y0161673D01*
X0106294Y0161673D01*
X0105681Y0161060D01*
X0104323Y0159702D01*
X0104323Y0158835D01*
X0104936Y0158221D01*
X0106294Y0156863D01*
X0111236Y0156863D01*
X0111850Y0157477D01*
X0111850Y0162418D01*
X0111236Y0163032D01*
X0109878Y0164390D01*
X0109011Y0164390D01*
X0106294Y0164390D01*
X0105681Y0163777D01*
X0105681Y0163615D02*
X0101428Y0163615D01*
X0101428Y0163221D02*
X0105681Y0163221D01*
X0105763Y0162828D02*
X0101428Y0162828D01*
X0101428Y0162434D02*
X0106157Y0162434D01*
X0106268Y0161647D02*
X0101428Y0161647D01*
X0101428Y0162040D02*
X0109267Y0162040D01*
X0110653Y0163615D02*
X0114583Y0163615D01*
X0114976Y0164009D02*
X0110259Y0164009D01*
X0111046Y0163221D02*
X0114189Y0163221D01*
X0113795Y0162828D02*
X0111440Y0162828D01*
X0111834Y0162434D02*
X0113402Y0162434D01*
X0113386Y0162040D02*
X0111850Y0162040D01*
X0111850Y0161647D02*
X0113386Y0161647D01*
X0113386Y0161253D02*
X0111850Y0161253D01*
X0111850Y0160859D02*
X0113386Y0160859D01*
X0113386Y0160466D02*
X0111850Y0160466D01*
X0111850Y0160072D02*
X0113386Y0160072D01*
X0113386Y0159678D02*
X0111850Y0159678D01*
X0111850Y0159284D02*
X0113386Y0159284D01*
X0113386Y0158891D02*
X0111850Y0158891D01*
X0111850Y0158497D02*
X0113723Y0158497D01*
X0114117Y0158103D02*
X0111850Y0158103D01*
X0111850Y0157710D02*
X0114511Y0157710D01*
X0114904Y0157316D02*
X0111689Y0157316D01*
X0111295Y0156922D02*
X0115298Y0156922D01*
X0115897Y0159284D02*
X0122449Y0159284D01*
X0122449Y0158891D02*
X0120365Y0158891D01*
X0120759Y0158497D02*
X0122449Y0158497D01*
X0122449Y0158103D02*
X0120913Y0158103D01*
X0120913Y0157710D02*
X0122449Y0157710D01*
X0122609Y0157316D02*
X0120752Y0157316D01*
X0120358Y0156922D02*
X0123003Y0156922D01*
X0123988Y0156922D02*
X0127165Y0156922D01*
X0126574Y0157316D02*
X0124382Y0157316D01*
X0124543Y0157710D02*
X0125983Y0157710D01*
X0125393Y0158103D02*
X0124543Y0158103D01*
X0124543Y0158497D02*
X0124802Y0158497D01*
X0126215Y0160072D02*
X0130001Y0160072D01*
X0130001Y0160466D02*
X0125624Y0160466D01*
X0125732Y0160859D02*
X0130001Y0160859D01*
X0130001Y0161253D02*
X0126322Y0161253D01*
X0126913Y0161647D02*
X0130001Y0161647D01*
X0130001Y0162040D02*
X0127504Y0162040D01*
X0128094Y0162434D02*
X0130017Y0162434D01*
X0130001Y0162418D02*
X0130001Y0158835D01*
X0130614Y0158221D01*
X0131972Y0156863D01*
X0132840Y0156863D01*
X0135556Y0156863D01*
X0136169Y0157477D01*
X0136169Y0158343D01*
X0135556Y0158957D01*
X0132840Y0158957D01*
X0132217Y0159580D01*
X0136915Y0159580D01*
X0137528Y0160193D01*
X0137528Y0162418D01*
X0136915Y0163032D01*
X0135556Y0164390D01*
X0131972Y0164390D01*
X0131359Y0163777D01*
X0130001Y0162418D01*
X0130410Y0162828D02*
X0128535Y0162828D01*
X0128613Y0163221D02*
X0130804Y0163221D01*
X0131198Y0163615D02*
X0128647Y0163615D01*
X0128385Y0164009D02*
X0131591Y0164009D01*
X0132840Y0162296D02*
X0132217Y0161673D01*
X0135312Y0161673D01*
X0134689Y0162296D01*
X0132840Y0162296D01*
X0132584Y0162040D02*
X0134945Y0162040D01*
X0136331Y0163615D02*
X0139064Y0163615D01*
X0139064Y0163221D02*
X0136725Y0163221D01*
X0137119Y0162828D02*
X0139146Y0162828D01*
X0139539Y0162434D02*
X0137512Y0162434D01*
X0137528Y0162040D02*
X0140422Y0162040D01*
X0140422Y0161647D02*
X0137528Y0161647D01*
X0137528Y0161253D02*
X0140422Y0161253D01*
X0140422Y0160859D02*
X0137528Y0160859D01*
X0137528Y0160466D02*
X0140422Y0160466D01*
X0140422Y0160072D02*
X0137407Y0160072D01*
X0137013Y0159678D02*
X0140422Y0159678D01*
X0140422Y0159284D02*
X0132512Y0159284D01*
X0131126Y0157710D02*
X0128678Y0157710D01*
X0128599Y0158103D02*
X0130732Y0158103D01*
X0130339Y0158497D02*
X0128520Y0158497D01*
X0127987Y0158891D02*
X0130001Y0158891D01*
X0130001Y0159284D02*
X0127396Y0159284D01*
X0126805Y0159678D02*
X0130001Y0159678D01*
X0131520Y0157316D02*
X0128432Y0157316D01*
X0127969Y0156922D02*
X0131913Y0156922D01*
X0135615Y0156922D02*
X0142335Y0156922D01*
X0141941Y0157316D02*
X0136009Y0157316D01*
X0136169Y0157710D02*
X0141547Y0157710D01*
X0141154Y0158103D02*
X0136169Y0158103D01*
X0136016Y0158497D02*
X0140760Y0158497D01*
X0140422Y0158891D02*
X0135622Y0158891D01*
X0135937Y0164009D02*
X0139296Y0164009D01*
X0143721Y0158497D02*
X0145259Y0158497D01*
X0145106Y0158103D02*
X0143874Y0158103D01*
X0143874Y0157710D02*
X0145106Y0157710D01*
X0145266Y0157316D02*
X0143714Y0157316D01*
X0143320Y0156922D02*
X0145660Y0156922D01*
X0160643Y0154560D02*
X0160643Y0169560D01*
X0050800Y0169560D01*
X0050800Y0167946D02*
X0160643Y0167946D01*
X0160643Y0167552D02*
X0050800Y0167552D01*
X0050800Y0167158D02*
X0160643Y0167158D01*
X0160643Y0166765D02*
X0124271Y0166765D01*
X0124543Y0166371D02*
X0160643Y0166371D01*
X0122449Y0162434D02*
X0120437Y0162434D01*
X0122449Y0162040D02*
X0115969Y0162040D01*
X0115575Y0161647D02*
X0122449Y0161647D01*
X0122449Y0161253D02*
X0115480Y0161253D01*
X0115480Y0160859D02*
X0122393Y0160859D01*
X0122396Y0160466D02*
X0115480Y0160466D01*
X0115480Y0160072D02*
X0122449Y0160072D01*
X0122449Y0159678D02*
X0115503Y0159678D01*
X0109756Y0159580D02*
X0109756Y0158957D01*
X0107162Y0158957D01*
X0106850Y0159268D01*
X0107162Y0159580D01*
X0109756Y0159580D01*
X0109756Y0159284D02*
X0106867Y0159284D01*
X0105480Y0160859D02*
X0101428Y0160859D01*
X0101428Y0160466D02*
X0105087Y0160466D01*
X0104693Y0160072D02*
X0101428Y0160072D01*
X0101428Y0159678D02*
X0104323Y0159678D01*
X0104323Y0159284D02*
X0101428Y0159284D01*
X0101428Y0158891D02*
X0104323Y0158891D01*
X0104661Y0158497D02*
X0101091Y0158497D01*
X0100697Y0158103D02*
X0105054Y0158103D01*
X0105448Y0157710D02*
X0100304Y0157710D01*
X0099910Y0157316D02*
X0105842Y0157316D01*
X0106235Y0156922D02*
X0099516Y0156922D01*
X0097172Y0156922D02*
X0091811Y0156922D01*
X0092205Y0157316D02*
X0096779Y0157316D01*
X0101428Y0161253D02*
X0105874Y0161253D01*
X0077689Y0156922D02*
X0073686Y0156922D01*
X0073627Y0156863D02*
X0074985Y0158221D01*
X0075598Y0158835D01*
X0075598Y0162418D01*
X0074240Y0163777D01*
X0073627Y0164390D01*
X0070043Y0164390D01*
X0068685Y0163032D01*
X0068072Y0162418D01*
X0068072Y0158835D01*
X0070043Y0156863D01*
X0070910Y0156863D01*
X0072759Y0156863D01*
X0073627Y0156863D01*
X0074080Y0157316D02*
X0077295Y0157316D01*
X0077134Y0157710D02*
X0074473Y0157710D01*
X0074867Y0158103D02*
X0077134Y0158103D01*
X0077134Y0158497D02*
X0075261Y0158497D01*
X0075598Y0158891D02*
X0077134Y0158891D01*
X0077134Y0159284D02*
X0075598Y0159284D01*
X0075598Y0159678D02*
X0077134Y0159678D01*
X0077134Y0160072D02*
X0075598Y0160072D01*
X0075598Y0160466D02*
X0077134Y0160466D01*
X0077134Y0160859D02*
X0075598Y0160859D01*
X0075598Y0161253D02*
X0077134Y0161253D01*
X0077134Y0161647D02*
X0075598Y0161647D01*
X0075598Y0162040D02*
X0077134Y0162040D01*
X0077134Y0162434D02*
X0075583Y0162434D01*
X0075189Y0162828D02*
X0077134Y0162828D01*
X0077134Y0163221D02*
X0074795Y0163221D01*
X0074402Y0163615D02*
X0077134Y0163615D01*
X0077134Y0164009D02*
X0074008Y0164009D01*
X0072759Y0162296D02*
X0073504Y0161551D01*
X0073504Y0159702D01*
X0072759Y0158957D01*
X0070910Y0158957D01*
X0070165Y0159702D01*
X0070165Y0161551D01*
X0070910Y0162296D01*
X0072759Y0162296D01*
X0073015Y0162040D02*
X0070654Y0162040D01*
X0070261Y0161647D02*
X0073409Y0161647D01*
X0073504Y0161253D02*
X0070165Y0161253D01*
X0070165Y0160859D02*
X0073504Y0160859D01*
X0073504Y0160466D02*
X0070165Y0160466D01*
X0070165Y0160072D02*
X0073504Y0160072D01*
X0073481Y0159678D02*
X0070189Y0159678D01*
X0070583Y0159284D02*
X0073087Y0159284D01*
X0069196Y0157710D02*
X0066535Y0157710D01*
X0066535Y0157477D02*
X0066535Y0158343D01*
X0064931Y0159947D01*
X0066535Y0161551D01*
X0066535Y0165135D01*
X0066521Y0165149D01*
X0064564Y0167106D01*
X0059622Y0167106D01*
X0059009Y0166493D01*
X0059009Y0160193D01*
X0059009Y0157477D01*
X0059622Y0156863D01*
X0060489Y0156863D01*
X0061102Y0157477D01*
X0061102Y0159580D01*
X0062338Y0159580D01*
X0065055Y0156863D01*
X0065922Y0156863D01*
X0066535Y0157477D01*
X0066375Y0157316D02*
X0069590Y0157316D01*
X0069984Y0156922D02*
X0065981Y0156922D01*
X0064996Y0156922D02*
X0060548Y0156922D01*
X0060942Y0157316D02*
X0064602Y0157316D01*
X0064208Y0157710D02*
X0061102Y0157710D01*
X0061102Y0158103D02*
X0063815Y0158103D01*
X0063421Y0158497D02*
X0061102Y0158497D01*
X0061102Y0158891D02*
X0063027Y0158891D01*
X0062633Y0159284D02*
X0061102Y0159284D01*
X0059009Y0159284D02*
X0050800Y0159284D01*
X0050800Y0158891D02*
X0059009Y0158891D01*
X0059009Y0158497D02*
X0050800Y0158497D01*
X0050800Y0158103D02*
X0059009Y0158103D01*
X0059009Y0157710D02*
X0050800Y0157710D01*
X0050800Y0157316D02*
X0059169Y0157316D01*
X0059563Y0156922D02*
X0050800Y0156922D01*
X0050800Y0159678D02*
X0059009Y0159678D01*
X0059009Y0160072D02*
X0050800Y0160072D01*
X0050800Y0160466D02*
X0059009Y0160466D01*
X0059009Y0160859D02*
X0050800Y0160859D01*
X0050800Y0161253D02*
X0059009Y0161253D01*
X0059009Y0161647D02*
X0050800Y0161647D01*
X0050800Y0162040D02*
X0059009Y0162040D01*
X0059009Y0162434D02*
X0050800Y0162434D01*
X0050800Y0162828D02*
X0059009Y0162828D01*
X0059009Y0163221D02*
X0050800Y0163221D01*
X0050800Y0163615D02*
X0059009Y0163615D01*
X0059009Y0164009D02*
X0050800Y0164009D01*
X0050800Y0164403D02*
X0059009Y0164403D01*
X0059009Y0164796D02*
X0050800Y0164796D01*
X0050800Y0165190D02*
X0059009Y0165190D01*
X0059009Y0165584D02*
X0050800Y0165584D01*
X0050800Y0165977D02*
X0059009Y0165977D01*
X0059009Y0166371D02*
X0050800Y0166371D01*
X0050800Y0166765D02*
X0059280Y0166765D01*
X0061102Y0165013D02*
X0061102Y0161673D01*
X0063696Y0161673D01*
X0064442Y0162418D01*
X0064442Y0164267D01*
X0063696Y0165013D01*
X0061102Y0165013D01*
X0061102Y0164796D02*
X0063913Y0164796D01*
X0064307Y0164403D02*
X0061102Y0164403D01*
X0061102Y0164009D02*
X0064442Y0164009D01*
X0064442Y0163615D02*
X0061102Y0163615D01*
X0061102Y0163221D02*
X0064442Y0163221D01*
X0064442Y0162828D02*
X0061102Y0162828D01*
X0061102Y0162434D02*
X0064442Y0162434D01*
X0064064Y0162040D02*
X0061102Y0162040D01*
X0065056Y0160072D02*
X0068072Y0160072D01*
X0068072Y0160466D02*
X0065450Y0160466D01*
X0065843Y0160859D02*
X0068072Y0160859D01*
X0068072Y0161253D02*
X0066237Y0161253D01*
X0066535Y0161647D02*
X0068072Y0161647D01*
X0068072Y0162040D02*
X0066535Y0162040D01*
X0066535Y0162434D02*
X0068087Y0162434D01*
X0068481Y0162828D02*
X0066535Y0162828D01*
X0066535Y0163221D02*
X0068874Y0163221D01*
X0069268Y0163615D02*
X0066535Y0163615D01*
X0066535Y0164009D02*
X0069662Y0164009D01*
X0066535Y0164403D02*
X0077134Y0164403D01*
X0077134Y0164796D02*
X0066535Y0164796D01*
X0066480Y0165190D02*
X0077134Y0165190D01*
X0077134Y0165584D02*
X0066087Y0165584D01*
X0065693Y0165977D02*
X0077134Y0165977D01*
X0077134Y0166371D02*
X0065299Y0166371D01*
X0064906Y0166765D02*
X0077406Y0166765D01*
X0068072Y0159678D02*
X0065201Y0159678D01*
X0065594Y0159284D02*
X0068072Y0159284D01*
X0068072Y0158891D02*
X0065988Y0158891D01*
X0066382Y0158497D02*
X0068409Y0158497D01*
X0068803Y0158103D02*
X0066535Y0158103D01*
M02*
