%
M48
M72
T01C0.0400
T02C0.1495
%
T01
X1630Y2556
X1630Y3556
X1630Y4556
X1630Y5556
X1630Y6556
X1630Y7556
X1630Y8556
X1630Y9556
X1630Y10556
X1630Y11556
X1630Y12556
X1630Y13556
X7630Y13556
X7630Y12556
X7630Y11556
X7630Y10556
X7630Y9556
X7630Y8556
X7630Y7556
X7630Y6556
X7630Y5556
X7630Y4556
X7630Y3556
X7630Y2556
X11130Y3556
X12130Y3556
X13130Y3556
X13130Y5056
X12130Y5056
X11130Y5056
X11130Y2056
X12130Y2056
X13130Y2056
X16130Y2056
X17130Y2056
X18130Y2056
X18130Y4056
X17130Y4056
X16130Y4056
X16130Y5056
X17130Y5056
X18130Y5056
X18130Y6056
X17130Y6056
X16130Y6056
X16130Y8556
X17130Y8556
X18130Y8556
X18130Y9556
X17130Y9556
X16130Y9556
X16130Y10556
X17130Y10556
X18130Y10556
X20630Y13556
X21630Y13556
X22630Y13556
X23630Y13556
X23630Y15556
X22630Y15556
X21630Y15556
X20630Y15556
X19630Y15556
X18630Y15556
X13130Y15556
X12130Y15556
X11130Y15556
X11130Y13556
X12130Y13556
X13130Y13556
X13130Y11556
X12130Y11556
X11130Y11556
X10130Y11556
X23130Y7056
X24130Y7056
X25130Y7056
X25130Y6056
X24130Y6056
X23130Y6056
X23130Y5056
X24130Y5056
X25130Y5056
X24630Y15556
T02
X4630Y15056
X16130Y15056
X24130Y3056
X4630Y3056
M30
