G75*
%MOIN*%
%OFA0B0*%
%FSLAX25Y25*%
%IPPOS*%
%LPD*%
%AMOC8*
5,1,8,0,0,1.08239X$1,22.5*
%
%ADD10C,0.00000*%
%ADD11C,0.07400*%
%ADD12R,0.02756X0.01969*%
%ADD13C,0.00600*%
%ADD14C,0.01600*%
%ADD15C,0.01200*%
%ADD16C,0.03839*%
D10*
X0006300Y0005560D02*
X0005800Y0173761D01*
X0265721Y0173761D01*
X0266221Y0005560D01*
X0006300Y0005560D01*
X0043825Y0023060D02*
X0043827Y0023243D01*
X0043834Y0023427D01*
X0043845Y0023610D01*
X0043861Y0023793D01*
X0043881Y0023975D01*
X0043906Y0024157D01*
X0043935Y0024338D01*
X0043969Y0024518D01*
X0044007Y0024698D01*
X0044049Y0024876D01*
X0044096Y0025054D01*
X0044147Y0025230D01*
X0044202Y0025405D01*
X0044262Y0025578D01*
X0044326Y0025750D01*
X0044394Y0025921D01*
X0044466Y0026089D01*
X0044543Y0026256D01*
X0044623Y0026421D01*
X0044708Y0026584D01*
X0044796Y0026744D01*
X0044888Y0026903D01*
X0044985Y0027059D01*
X0045085Y0027213D01*
X0045189Y0027364D01*
X0045296Y0027513D01*
X0045407Y0027659D01*
X0045522Y0027802D01*
X0045640Y0027942D01*
X0045761Y0028080D01*
X0045886Y0028214D01*
X0046014Y0028346D01*
X0046146Y0028474D01*
X0046280Y0028599D01*
X0046418Y0028720D01*
X0046558Y0028838D01*
X0046701Y0028953D01*
X0046847Y0029064D01*
X0046996Y0029171D01*
X0047147Y0029275D01*
X0047301Y0029375D01*
X0047457Y0029472D01*
X0047616Y0029564D01*
X0047776Y0029652D01*
X0047939Y0029737D01*
X0048104Y0029817D01*
X0048271Y0029894D01*
X0048439Y0029966D01*
X0048610Y0030034D01*
X0048782Y0030098D01*
X0048955Y0030158D01*
X0049130Y0030213D01*
X0049306Y0030264D01*
X0049484Y0030311D01*
X0049662Y0030353D01*
X0049842Y0030391D01*
X0050022Y0030425D01*
X0050203Y0030454D01*
X0050385Y0030479D01*
X0050567Y0030499D01*
X0050750Y0030515D01*
X0050933Y0030526D01*
X0051117Y0030533D01*
X0051300Y0030535D01*
X0051483Y0030533D01*
X0051667Y0030526D01*
X0051850Y0030515D01*
X0052033Y0030499D01*
X0052215Y0030479D01*
X0052397Y0030454D01*
X0052578Y0030425D01*
X0052758Y0030391D01*
X0052938Y0030353D01*
X0053116Y0030311D01*
X0053294Y0030264D01*
X0053470Y0030213D01*
X0053645Y0030158D01*
X0053818Y0030098D01*
X0053990Y0030034D01*
X0054161Y0029966D01*
X0054329Y0029894D01*
X0054496Y0029817D01*
X0054661Y0029737D01*
X0054824Y0029652D01*
X0054984Y0029564D01*
X0055143Y0029472D01*
X0055299Y0029375D01*
X0055453Y0029275D01*
X0055604Y0029171D01*
X0055753Y0029064D01*
X0055899Y0028953D01*
X0056042Y0028838D01*
X0056182Y0028720D01*
X0056320Y0028599D01*
X0056454Y0028474D01*
X0056586Y0028346D01*
X0056714Y0028214D01*
X0056839Y0028080D01*
X0056960Y0027942D01*
X0057078Y0027802D01*
X0057193Y0027659D01*
X0057304Y0027513D01*
X0057411Y0027364D01*
X0057515Y0027213D01*
X0057615Y0027059D01*
X0057712Y0026903D01*
X0057804Y0026744D01*
X0057892Y0026584D01*
X0057977Y0026421D01*
X0058057Y0026256D01*
X0058134Y0026089D01*
X0058206Y0025921D01*
X0058274Y0025750D01*
X0058338Y0025578D01*
X0058398Y0025405D01*
X0058453Y0025230D01*
X0058504Y0025054D01*
X0058551Y0024876D01*
X0058593Y0024698D01*
X0058631Y0024518D01*
X0058665Y0024338D01*
X0058694Y0024157D01*
X0058719Y0023975D01*
X0058739Y0023793D01*
X0058755Y0023610D01*
X0058766Y0023427D01*
X0058773Y0023243D01*
X0058775Y0023060D01*
X0058773Y0022877D01*
X0058766Y0022693D01*
X0058755Y0022510D01*
X0058739Y0022327D01*
X0058719Y0022145D01*
X0058694Y0021963D01*
X0058665Y0021782D01*
X0058631Y0021602D01*
X0058593Y0021422D01*
X0058551Y0021244D01*
X0058504Y0021066D01*
X0058453Y0020890D01*
X0058398Y0020715D01*
X0058338Y0020542D01*
X0058274Y0020370D01*
X0058206Y0020199D01*
X0058134Y0020031D01*
X0058057Y0019864D01*
X0057977Y0019699D01*
X0057892Y0019536D01*
X0057804Y0019376D01*
X0057712Y0019217D01*
X0057615Y0019061D01*
X0057515Y0018907D01*
X0057411Y0018756D01*
X0057304Y0018607D01*
X0057193Y0018461D01*
X0057078Y0018318D01*
X0056960Y0018178D01*
X0056839Y0018040D01*
X0056714Y0017906D01*
X0056586Y0017774D01*
X0056454Y0017646D01*
X0056320Y0017521D01*
X0056182Y0017400D01*
X0056042Y0017282D01*
X0055899Y0017167D01*
X0055753Y0017056D01*
X0055604Y0016949D01*
X0055453Y0016845D01*
X0055299Y0016745D01*
X0055143Y0016648D01*
X0054984Y0016556D01*
X0054824Y0016468D01*
X0054661Y0016383D01*
X0054496Y0016303D01*
X0054329Y0016226D01*
X0054161Y0016154D01*
X0053990Y0016086D01*
X0053818Y0016022D01*
X0053645Y0015962D01*
X0053470Y0015907D01*
X0053294Y0015856D01*
X0053116Y0015809D01*
X0052938Y0015767D01*
X0052758Y0015729D01*
X0052578Y0015695D01*
X0052397Y0015666D01*
X0052215Y0015641D01*
X0052033Y0015621D01*
X0051850Y0015605D01*
X0051667Y0015594D01*
X0051483Y0015587D01*
X0051300Y0015585D01*
X0051117Y0015587D01*
X0050933Y0015594D01*
X0050750Y0015605D01*
X0050567Y0015621D01*
X0050385Y0015641D01*
X0050203Y0015666D01*
X0050022Y0015695D01*
X0049842Y0015729D01*
X0049662Y0015767D01*
X0049484Y0015809D01*
X0049306Y0015856D01*
X0049130Y0015907D01*
X0048955Y0015962D01*
X0048782Y0016022D01*
X0048610Y0016086D01*
X0048439Y0016154D01*
X0048271Y0016226D01*
X0048104Y0016303D01*
X0047939Y0016383D01*
X0047776Y0016468D01*
X0047616Y0016556D01*
X0047457Y0016648D01*
X0047301Y0016745D01*
X0047147Y0016845D01*
X0046996Y0016949D01*
X0046847Y0017056D01*
X0046701Y0017167D01*
X0046558Y0017282D01*
X0046418Y0017400D01*
X0046280Y0017521D01*
X0046146Y0017646D01*
X0046014Y0017774D01*
X0045886Y0017906D01*
X0045761Y0018040D01*
X0045640Y0018178D01*
X0045522Y0018318D01*
X0045407Y0018461D01*
X0045296Y0018607D01*
X0045189Y0018756D01*
X0045085Y0018907D01*
X0044985Y0019061D01*
X0044888Y0019217D01*
X0044796Y0019376D01*
X0044708Y0019536D01*
X0044623Y0019699D01*
X0044543Y0019864D01*
X0044466Y0020031D01*
X0044394Y0020199D01*
X0044326Y0020370D01*
X0044262Y0020542D01*
X0044202Y0020715D01*
X0044147Y0020890D01*
X0044096Y0021066D01*
X0044049Y0021244D01*
X0044007Y0021422D01*
X0043969Y0021602D01*
X0043935Y0021782D01*
X0043906Y0021963D01*
X0043881Y0022145D01*
X0043861Y0022327D01*
X0043845Y0022510D01*
X0043834Y0022693D01*
X0043827Y0022877D01*
X0043825Y0023060D01*
X0247325Y0016060D02*
X0247327Y0016243D01*
X0247334Y0016427D01*
X0247345Y0016610D01*
X0247361Y0016793D01*
X0247381Y0016975D01*
X0247406Y0017157D01*
X0247435Y0017338D01*
X0247469Y0017518D01*
X0247507Y0017698D01*
X0247549Y0017876D01*
X0247596Y0018054D01*
X0247647Y0018230D01*
X0247702Y0018405D01*
X0247762Y0018578D01*
X0247826Y0018750D01*
X0247894Y0018921D01*
X0247966Y0019089D01*
X0248043Y0019256D01*
X0248123Y0019421D01*
X0248208Y0019584D01*
X0248296Y0019744D01*
X0248388Y0019903D01*
X0248485Y0020059D01*
X0248585Y0020213D01*
X0248689Y0020364D01*
X0248796Y0020513D01*
X0248907Y0020659D01*
X0249022Y0020802D01*
X0249140Y0020942D01*
X0249261Y0021080D01*
X0249386Y0021214D01*
X0249514Y0021346D01*
X0249646Y0021474D01*
X0249780Y0021599D01*
X0249918Y0021720D01*
X0250058Y0021838D01*
X0250201Y0021953D01*
X0250347Y0022064D01*
X0250496Y0022171D01*
X0250647Y0022275D01*
X0250801Y0022375D01*
X0250957Y0022472D01*
X0251116Y0022564D01*
X0251276Y0022652D01*
X0251439Y0022737D01*
X0251604Y0022817D01*
X0251771Y0022894D01*
X0251939Y0022966D01*
X0252110Y0023034D01*
X0252282Y0023098D01*
X0252455Y0023158D01*
X0252630Y0023213D01*
X0252806Y0023264D01*
X0252984Y0023311D01*
X0253162Y0023353D01*
X0253342Y0023391D01*
X0253522Y0023425D01*
X0253703Y0023454D01*
X0253885Y0023479D01*
X0254067Y0023499D01*
X0254250Y0023515D01*
X0254433Y0023526D01*
X0254617Y0023533D01*
X0254800Y0023535D01*
X0254983Y0023533D01*
X0255167Y0023526D01*
X0255350Y0023515D01*
X0255533Y0023499D01*
X0255715Y0023479D01*
X0255897Y0023454D01*
X0256078Y0023425D01*
X0256258Y0023391D01*
X0256438Y0023353D01*
X0256616Y0023311D01*
X0256794Y0023264D01*
X0256970Y0023213D01*
X0257145Y0023158D01*
X0257318Y0023098D01*
X0257490Y0023034D01*
X0257661Y0022966D01*
X0257829Y0022894D01*
X0257996Y0022817D01*
X0258161Y0022737D01*
X0258324Y0022652D01*
X0258484Y0022564D01*
X0258643Y0022472D01*
X0258799Y0022375D01*
X0258953Y0022275D01*
X0259104Y0022171D01*
X0259253Y0022064D01*
X0259399Y0021953D01*
X0259542Y0021838D01*
X0259682Y0021720D01*
X0259820Y0021599D01*
X0259954Y0021474D01*
X0260086Y0021346D01*
X0260214Y0021214D01*
X0260339Y0021080D01*
X0260460Y0020942D01*
X0260578Y0020802D01*
X0260693Y0020659D01*
X0260804Y0020513D01*
X0260911Y0020364D01*
X0261015Y0020213D01*
X0261115Y0020059D01*
X0261212Y0019903D01*
X0261304Y0019744D01*
X0261392Y0019584D01*
X0261477Y0019421D01*
X0261557Y0019256D01*
X0261634Y0019089D01*
X0261706Y0018921D01*
X0261774Y0018750D01*
X0261838Y0018578D01*
X0261898Y0018405D01*
X0261953Y0018230D01*
X0262004Y0018054D01*
X0262051Y0017876D01*
X0262093Y0017698D01*
X0262131Y0017518D01*
X0262165Y0017338D01*
X0262194Y0017157D01*
X0262219Y0016975D01*
X0262239Y0016793D01*
X0262255Y0016610D01*
X0262266Y0016427D01*
X0262273Y0016243D01*
X0262275Y0016060D01*
X0262273Y0015877D01*
X0262266Y0015693D01*
X0262255Y0015510D01*
X0262239Y0015327D01*
X0262219Y0015145D01*
X0262194Y0014963D01*
X0262165Y0014782D01*
X0262131Y0014602D01*
X0262093Y0014422D01*
X0262051Y0014244D01*
X0262004Y0014066D01*
X0261953Y0013890D01*
X0261898Y0013715D01*
X0261838Y0013542D01*
X0261774Y0013370D01*
X0261706Y0013199D01*
X0261634Y0013031D01*
X0261557Y0012864D01*
X0261477Y0012699D01*
X0261392Y0012536D01*
X0261304Y0012376D01*
X0261212Y0012217D01*
X0261115Y0012061D01*
X0261015Y0011907D01*
X0260911Y0011756D01*
X0260804Y0011607D01*
X0260693Y0011461D01*
X0260578Y0011318D01*
X0260460Y0011178D01*
X0260339Y0011040D01*
X0260214Y0010906D01*
X0260086Y0010774D01*
X0259954Y0010646D01*
X0259820Y0010521D01*
X0259682Y0010400D01*
X0259542Y0010282D01*
X0259399Y0010167D01*
X0259253Y0010056D01*
X0259104Y0009949D01*
X0258953Y0009845D01*
X0258799Y0009745D01*
X0258643Y0009648D01*
X0258484Y0009556D01*
X0258324Y0009468D01*
X0258161Y0009383D01*
X0257996Y0009303D01*
X0257829Y0009226D01*
X0257661Y0009154D01*
X0257490Y0009086D01*
X0257318Y0009022D01*
X0257145Y0008962D01*
X0256970Y0008907D01*
X0256794Y0008856D01*
X0256616Y0008809D01*
X0256438Y0008767D01*
X0256258Y0008729D01*
X0256078Y0008695D01*
X0255897Y0008666D01*
X0255715Y0008641D01*
X0255533Y0008621D01*
X0255350Y0008605D01*
X0255167Y0008594D01*
X0254983Y0008587D01*
X0254800Y0008585D01*
X0254617Y0008587D01*
X0254433Y0008594D01*
X0254250Y0008605D01*
X0254067Y0008621D01*
X0253885Y0008641D01*
X0253703Y0008666D01*
X0253522Y0008695D01*
X0253342Y0008729D01*
X0253162Y0008767D01*
X0252984Y0008809D01*
X0252806Y0008856D01*
X0252630Y0008907D01*
X0252455Y0008962D01*
X0252282Y0009022D01*
X0252110Y0009086D01*
X0251939Y0009154D01*
X0251771Y0009226D01*
X0251604Y0009303D01*
X0251439Y0009383D01*
X0251276Y0009468D01*
X0251116Y0009556D01*
X0250957Y0009648D01*
X0250801Y0009745D01*
X0250647Y0009845D01*
X0250496Y0009949D01*
X0250347Y0010056D01*
X0250201Y0010167D01*
X0250058Y0010282D01*
X0249918Y0010400D01*
X0249780Y0010521D01*
X0249646Y0010646D01*
X0249514Y0010774D01*
X0249386Y0010906D01*
X0249261Y0011040D01*
X0249140Y0011178D01*
X0249022Y0011318D01*
X0248907Y0011461D01*
X0248796Y0011607D01*
X0248689Y0011756D01*
X0248585Y0011907D01*
X0248485Y0012061D01*
X0248388Y0012217D01*
X0248296Y0012376D01*
X0248208Y0012536D01*
X0248123Y0012699D01*
X0248043Y0012864D01*
X0247966Y0013031D01*
X0247894Y0013199D01*
X0247826Y0013370D01*
X0247762Y0013542D01*
X0247702Y0013715D01*
X0247647Y0013890D01*
X0247596Y0014066D01*
X0247549Y0014244D01*
X0247507Y0014422D01*
X0247469Y0014602D01*
X0247435Y0014782D01*
X0247406Y0014963D01*
X0247381Y0015145D01*
X0247361Y0015327D01*
X0247345Y0015510D01*
X0247334Y0015693D01*
X0247327Y0015877D01*
X0247325Y0016060D01*
X0248825Y0164560D02*
X0248827Y0164743D01*
X0248834Y0164927D01*
X0248845Y0165110D01*
X0248861Y0165293D01*
X0248881Y0165475D01*
X0248906Y0165657D01*
X0248935Y0165838D01*
X0248969Y0166018D01*
X0249007Y0166198D01*
X0249049Y0166376D01*
X0249096Y0166554D01*
X0249147Y0166730D01*
X0249202Y0166905D01*
X0249262Y0167078D01*
X0249326Y0167250D01*
X0249394Y0167421D01*
X0249466Y0167589D01*
X0249543Y0167756D01*
X0249623Y0167921D01*
X0249708Y0168084D01*
X0249796Y0168244D01*
X0249888Y0168403D01*
X0249985Y0168559D01*
X0250085Y0168713D01*
X0250189Y0168864D01*
X0250296Y0169013D01*
X0250407Y0169159D01*
X0250522Y0169302D01*
X0250640Y0169442D01*
X0250761Y0169580D01*
X0250886Y0169714D01*
X0251014Y0169846D01*
X0251146Y0169974D01*
X0251280Y0170099D01*
X0251418Y0170220D01*
X0251558Y0170338D01*
X0251701Y0170453D01*
X0251847Y0170564D01*
X0251996Y0170671D01*
X0252147Y0170775D01*
X0252301Y0170875D01*
X0252457Y0170972D01*
X0252616Y0171064D01*
X0252776Y0171152D01*
X0252939Y0171237D01*
X0253104Y0171317D01*
X0253271Y0171394D01*
X0253439Y0171466D01*
X0253610Y0171534D01*
X0253782Y0171598D01*
X0253955Y0171658D01*
X0254130Y0171713D01*
X0254306Y0171764D01*
X0254484Y0171811D01*
X0254662Y0171853D01*
X0254842Y0171891D01*
X0255022Y0171925D01*
X0255203Y0171954D01*
X0255385Y0171979D01*
X0255567Y0171999D01*
X0255750Y0172015D01*
X0255933Y0172026D01*
X0256117Y0172033D01*
X0256300Y0172035D01*
X0256483Y0172033D01*
X0256667Y0172026D01*
X0256850Y0172015D01*
X0257033Y0171999D01*
X0257215Y0171979D01*
X0257397Y0171954D01*
X0257578Y0171925D01*
X0257758Y0171891D01*
X0257938Y0171853D01*
X0258116Y0171811D01*
X0258294Y0171764D01*
X0258470Y0171713D01*
X0258645Y0171658D01*
X0258818Y0171598D01*
X0258990Y0171534D01*
X0259161Y0171466D01*
X0259329Y0171394D01*
X0259496Y0171317D01*
X0259661Y0171237D01*
X0259824Y0171152D01*
X0259984Y0171064D01*
X0260143Y0170972D01*
X0260299Y0170875D01*
X0260453Y0170775D01*
X0260604Y0170671D01*
X0260753Y0170564D01*
X0260899Y0170453D01*
X0261042Y0170338D01*
X0261182Y0170220D01*
X0261320Y0170099D01*
X0261454Y0169974D01*
X0261586Y0169846D01*
X0261714Y0169714D01*
X0261839Y0169580D01*
X0261960Y0169442D01*
X0262078Y0169302D01*
X0262193Y0169159D01*
X0262304Y0169013D01*
X0262411Y0168864D01*
X0262515Y0168713D01*
X0262615Y0168559D01*
X0262712Y0168403D01*
X0262804Y0168244D01*
X0262892Y0168084D01*
X0262977Y0167921D01*
X0263057Y0167756D01*
X0263134Y0167589D01*
X0263206Y0167421D01*
X0263274Y0167250D01*
X0263338Y0167078D01*
X0263398Y0166905D01*
X0263453Y0166730D01*
X0263504Y0166554D01*
X0263551Y0166376D01*
X0263593Y0166198D01*
X0263631Y0166018D01*
X0263665Y0165838D01*
X0263694Y0165657D01*
X0263719Y0165475D01*
X0263739Y0165293D01*
X0263755Y0165110D01*
X0263766Y0164927D01*
X0263773Y0164743D01*
X0263775Y0164560D01*
X0263773Y0164377D01*
X0263766Y0164193D01*
X0263755Y0164010D01*
X0263739Y0163827D01*
X0263719Y0163645D01*
X0263694Y0163463D01*
X0263665Y0163282D01*
X0263631Y0163102D01*
X0263593Y0162922D01*
X0263551Y0162744D01*
X0263504Y0162566D01*
X0263453Y0162390D01*
X0263398Y0162215D01*
X0263338Y0162042D01*
X0263274Y0161870D01*
X0263206Y0161699D01*
X0263134Y0161531D01*
X0263057Y0161364D01*
X0262977Y0161199D01*
X0262892Y0161036D01*
X0262804Y0160876D01*
X0262712Y0160717D01*
X0262615Y0160561D01*
X0262515Y0160407D01*
X0262411Y0160256D01*
X0262304Y0160107D01*
X0262193Y0159961D01*
X0262078Y0159818D01*
X0261960Y0159678D01*
X0261839Y0159540D01*
X0261714Y0159406D01*
X0261586Y0159274D01*
X0261454Y0159146D01*
X0261320Y0159021D01*
X0261182Y0158900D01*
X0261042Y0158782D01*
X0260899Y0158667D01*
X0260753Y0158556D01*
X0260604Y0158449D01*
X0260453Y0158345D01*
X0260299Y0158245D01*
X0260143Y0158148D01*
X0259984Y0158056D01*
X0259824Y0157968D01*
X0259661Y0157883D01*
X0259496Y0157803D01*
X0259329Y0157726D01*
X0259161Y0157654D01*
X0258990Y0157586D01*
X0258818Y0157522D01*
X0258645Y0157462D01*
X0258470Y0157407D01*
X0258294Y0157356D01*
X0258116Y0157309D01*
X0257938Y0157267D01*
X0257758Y0157229D01*
X0257578Y0157195D01*
X0257397Y0157166D01*
X0257215Y0157141D01*
X0257033Y0157121D01*
X0256850Y0157105D01*
X0256667Y0157094D01*
X0256483Y0157087D01*
X0256300Y0157085D01*
X0256117Y0157087D01*
X0255933Y0157094D01*
X0255750Y0157105D01*
X0255567Y0157121D01*
X0255385Y0157141D01*
X0255203Y0157166D01*
X0255022Y0157195D01*
X0254842Y0157229D01*
X0254662Y0157267D01*
X0254484Y0157309D01*
X0254306Y0157356D01*
X0254130Y0157407D01*
X0253955Y0157462D01*
X0253782Y0157522D01*
X0253610Y0157586D01*
X0253439Y0157654D01*
X0253271Y0157726D01*
X0253104Y0157803D01*
X0252939Y0157883D01*
X0252776Y0157968D01*
X0252616Y0158056D01*
X0252457Y0158148D01*
X0252301Y0158245D01*
X0252147Y0158345D01*
X0251996Y0158449D01*
X0251847Y0158556D01*
X0251701Y0158667D01*
X0251558Y0158782D01*
X0251418Y0158900D01*
X0251280Y0159021D01*
X0251146Y0159146D01*
X0251014Y0159274D01*
X0250886Y0159406D01*
X0250761Y0159540D01*
X0250640Y0159678D01*
X0250522Y0159818D01*
X0250407Y0159961D01*
X0250296Y0160107D01*
X0250189Y0160256D01*
X0250085Y0160407D01*
X0249985Y0160561D01*
X0249888Y0160717D01*
X0249796Y0160876D01*
X0249708Y0161036D01*
X0249623Y0161199D01*
X0249543Y0161364D01*
X0249466Y0161531D01*
X0249394Y0161699D01*
X0249326Y0161870D01*
X0249262Y0162042D01*
X0249202Y0162215D01*
X0249147Y0162390D01*
X0249096Y0162566D01*
X0249049Y0162744D01*
X0249007Y0162922D01*
X0248969Y0163102D01*
X0248935Y0163282D01*
X0248906Y0163463D01*
X0248881Y0163645D01*
X0248861Y0163827D01*
X0248845Y0164010D01*
X0248834Y0164193D01*
X0248827Y0164377D01*
X0248825Y0164560D01*
X0008825Y0163560D02*
X0008827Y0163743D01*
X0008834Y0163927D01*
X0008845Y0164110D01*
X0008861Y0164293D01*
X0008881Y0164475D01*
X0008906Y0164657D01*
X0008935Y0164838D01*
X0008969Y0165018D01*
X0009007Y0165198D01*
X0009049Y0165376D01*
X0009096Y0165554D01*
X0009147Y0165730D01*
X0009202Y0165905D01*
X0009262Y0166078D01*
X0009326Y0166250D01*
X0009394Y0166421D01*
X0009466Y0166589D01*
X0009543Y0166756D01*
X0009623Y0166921D01*
X0009708Y0167084D01*
X0009796Y0167244D01*
X0009888Y0167403D01*
X0009985Y0167559D01*
X0010085Y0167713D01*
X0010189Y0167864D01*
X0010296Y0168013D01*
X0010407Y0168159D01*
X0010522Y0168302D01*
X0010640Y0168442D01*
X0010761Y0168580D01*
X0010886Y0168714D01*
X0011014Y0168846D01*
X0011146Y0168974D01*
X0011280Y0169099D01*
X0011418Y0169220D01*
X0011558Y0169338D01*
X0011701Y0169453D01*
X0011847Y0169564D01*
X0011996Y0169671D01*
X0012147Y0169775D01*
X0012301Y0169875D01*
X0012457Y0169972D01*
X0012616Y0170064D01*
X0012776Y0170152D01*
X0012939Y0170237D01*
X0013104Y0170317D01*
X0013271Y0170394D01*
X0013439Y0170466D01*
X0013610Y0170534D01*
X0013782Y0170598D01*
X0013955Y0170658D01*
X0014130Y0170713D01*
X0014306Y0170764D01*
X0014484Y0170811D01*
X0014662Y0170853D01*
X0014842Y0170891D01*
X0015022Y0170925D01*
X0015203Y0170954D01*
X0015385Y0170979D01*
X0015567Y0170999D01*
X0015750Y0171015D01*
X0015933Y0171026D01*
X0016117Y0171033D01*
X0016300Y0171035D01*
X0016483Y0171033D01*
X0016667Y0171026D01*
X0016850Y0171015D01*
X0017033Y0170999D01*
X0017215Y0170979D01*
X0017397Y0170954D01*
X0017578Y0170925D01*
X0017758Y0170891D01*
X0017938Y0170853D01*
X0018116Y0170811D01*
X0018294Y0170764D01*
X0018470Y0170713D01*
X0018645Y0170658D01*
X0018818Y0170598D01*
X0018990Y0170534D01*
X0019161Y0170466D01*
X0019329Y0170394D01*
X0019496Y0170317D01*
X0019661Y0170237D01*
X0019824Y0170152D01*
X0019984Y0170064D01*
X0020143Y0169972D01*
X0020299Y0169875D01*
X0020453Y0169775D01*
X0020604Y0169671D01*
X0020753Y0169564D01*
X0020899Y0169453D01*
X0021042Y0169338D01*
X0021182Y0169220D01*
X0021320Y0169099D01*
X0021454Y0168974D01*
X0021586Y0168846D01*
X0021714Y0168714D01*
X0021839Y0168580D01*
X0021960Y0168442D01*
X0022078Y0168302D01*
X0022193Y0168159D01*
X0022304Y0168013D01*
X0022411Y0167864D01*
X0022515Y0167713D01*
X0022615Y0167559D01*
X0022712Y0167403D01*
X0022804Y0167244D01*
X0022892Y0167084D01*
X0022977Y0166921D01*
X0023057Y0166756D01*
X0023134Y0166589D01*
X0023206Y0166421D01*
X0023274Y0166250D01*
X0023338Y0166078D01*
X0023398Y0165905D01*
X0023453Y0165730D01*
X0023504Y0165554D01*
X0023551Y0165376D01*
X0023593Y0165198D01*
X0023631Y0165018D01*
X0023665Y0164838D01*
X0023694Y0164657D01*
X0023719Y0164475D01*
X0023739Y0164293D01*
X0023755Y0164110D01*
X0023766Y0163927D01*
X0023773Y0163743D01*
X0023775Y0163560D01*
X0023773Y0163377D01*
X0023766Y0163193D01*
X0023755Y0163010D01*
X0023739Y0162827D01*
X0023719Y0162645D01*
X0023694Y0162463D01*
X0023665Y0162282D01*
X0023631Y0162102D01*
X0023593Y0161922D01*
X0023551Y0161744D01*
X0023504Y0161566D01*
X0023453Y0161390D01*
X0023398Y0161215D01*
X0023338Y0161042D01*
X0023274Y0160870D01*
X0023206Y0160699D01*
X0023134Y0160531D01*
X0023057Y0160364D01*
X0022977Y0160199D01*
X0022892Y0160036D01*
X0022804Y0159876D01*
X0022712Y0159717D01*
X0022615Y0159561D01*
X0022515Y0159407D01*
X0022411Y0159256D01*
X0022304Y0159107D01*
X0022193Y0158961D01*
X0022078Y0158818D01*
X0021960Y0158678D01*
X0021839Y0158540D01*
X0021714Y0158406D01*
X0021586Y0158274D01*
X0021454Y0158146D01*
X0021320Y0158021D01*
X0021182Y0157900D01*
X0021042Y0157782D01*
X0020899Y0157667D01*
X0020753Y0157556D01*
X0020604Y0157449D01*
X0020453Y0157345D01*
X0020299Y0157245D01*
X0020143Y0157148D01*
X0019984Y0157056D01*
X0019824Y0156968D01*
X0019661Y0156883D01*
X0019496Y0156803D01*
X0019329Y0156726D01*
X0019161Y0156654D01*
X0018990Y0156586D01*
X0018818Y0156522D01*
X0018645Y0156462D01*
X0018470Y0156407D01*
X0018294Y0156356D01*
X0018116Y0156309D01*
X0017938Y0156267D01*
X0017758Y0156229D01*
X0017578Y0156195D01*
X0017397Y0156166D01*
X0017215Y0156141D01*
X0017033Y0156121D01*
X0016850Y0156105D01*
X0016667Y0156094D01*
X0016483Y0156087D01*
X0016300Y0156085D01*
X0016117Y0156087D01*
X0015933Y0156094D01*
X0015750Y0156105D01*
X0015567Y0156121D01*
X0015385Y0156141D01*
X0015203Y0156166D01*
X0015022Y0156195D01*
X0014842Y0156229D01*
X0014662Y0156267D01*
X0014484Y0156309D01*
X0014306Y0156356D01*
X0014130Y0156407D01*
X0013955Y0156462D01*
X0013782Y0156522D01*
X0013610Y0156586D01*
X0013439Y0156654D01*
X0013271Y0156726D01*
X0013104Y0156803D01*
X0012939Y0156883D01*
X0012776Y0156968D01*
X0012616Y0157056D01*
X0012457Y0157148D01*
X0012301Y0157245D01*
X0012147Y0157345D01*
X0011996Y0157449D01*
X0011847Y0157556D01*
X0011701Y0157667D01*
X0011558Y0157782D01*
X0011418Y0157900D01*
X0011280Y0158021D01*
X0011146Y0158146D01*
X0011014Y0158274D01*
X0010886Y0158406D01*
X0010761Y0158540D01*
X0010640Y0158678D01*
X0010522Y0158818D01*
X0010407Y0158961D01*
X0010296Y0159107D01*
X0010189Y0159256D01*
X0010085Y0159407D01*
X0009985Y0159561D01*
X0009888Y0159717D01*
X0009796Y0159876D01*
X0009708Y0160036D01*
X0009623Y0160199D01*
X0009543Y0160364D01*
X0009466Y0160531D01*
X0009394Y0160699D01*
X0009326Y0160870D01*
X0009262Y0161042D01*
X0009202Y0161215D01*
X0009147Y0161390D01*
X0009096Y0161566D01*
X0009049Y0161744D01*
X0009007Y0161922D01*
X0008969Y0162102D01*
X0008935Y0162282D01*
X0008906Y0162463D01*
X0008881Y0162645D01*
X0008861Y0162827D01*
X0008845Y0163010D01*
X0008834Y0163193D01*
X0008827Y0163377D01*
X0008825Y0163560D01*
D11*
X0021300Y0135560D03*
X0021300Y0125560D03*
X0021300Y0115560D03*
X0021300Y0105560D03*
X0021300Y0095560D03*
X0021300Y0085560D03*
X0021300Y0075560D03*
X0021300Y0065560D03*
X0021300Y0055560D03*
X0021300Y0045560D03*
X0021300Y0035560D03*
X0021300Y0025560D03*
X0081300Y0025560D03*
X0081300Y0035560D03*
X0081300Y0045560D03*
X0081300Y0055560D03*
X0081300Y0065560D03*
X0081300Y0075560D03*
X0081300Y0085560D03*
X0081300Y0095560D03*
X0081300Y0105560D03*
X0081300Y0115560D03*
X0081300Y0125560D03*
X0081300Y0135560D03*
X0115300Y0129060D03*
X0125300Y0129060D03*
X0135300Y0129060D03*
X0135300Y0113560D03*
X0125300Y0113560D03*
X0115300Y0113560D03*
X0115300Y0098060D03*
X0125300Y0098060D03*
X0135300Y0098060D03*
X0145300Y0098060D03*
X0166300Y0095560D03*
X0176300Y0095560D03*
X0186300Y0095560D03*
X0186300Y0105560D03*
X0176300Y0105560D03*
X0166300Y0105560D03*
X0166300Y0085560D03*
X0176300Y0085560D03*
X0186300Y0085560D03*
X0186300Y0060560D03*
X0176300Y0060560D03*
X0166300Y0060560D03*
X0166300Y0050560D03*
X0176300Y0050560D03*
X0186300Y0050560D03*
X0186300Y0040560D03*
X0176300Y0040560D03*
X0166300Y0040560D03*
X0166300Y0020560D03*
X0176300Y0020560D03*
X0186300Y0020560D03*
X0229800Y0050560D03*
X0239800Y0050560D03*
X0249800Y0050560D03*
X0249800Y0060560D03*
X0239800Y0060560D03*
X0229800Y0060560D03*
X0229800Y0070560D03*
X0239800Y0070560D03*
X0249800Y0070560D03*
X0241300Y0131060D03*
X0231300Y0131060D03*
X0231300Y0155560D03*
X0221300Y0155560D03*
X0211300Y0155560D03*
X0201300Y0155560D03*
X0191300Y0155560D03*
X0181300Y0155560D03*
X0170800Y0133560D03*
X0160800Y0133560D03*
X0125300Y0143560D03*
X0115300Y0143560D03*
X0115800Y0083060D03*
X0125800Y0083060D03*
X0125800Y0065560D03*
X0115800Y0065560D03*
X0116300Y0050560D03*
X0126300Y0050560D03*
X0136300Y0050560D03*
X0136300Y0035560D03*
X0126300Y0035560D03*
X0116300Y0035560D03*
X0116300Y0020560D03*
X0126300Y0020560D03*
X0136300Y0020560D03*
X0241300Y0155560D03*
D12*
X0053662Y0060560D03*
X0048544Y0060560D03*
D13*
X0050822Y0060835D02*
X0051384Y0060835D01*
X0051384Y0061433D02*
X0050822Y0061433D01*
X0050822Y0061917D02*
X0050822Y0059203D01*
X0050295Y0058676D01*
X0046793Y0058676D01*
X0046609Y0058860D01*
X0027004Y0058860D01*
X0025525Y0057381D01*
X0025900Y0056475D01*
X0025900Y0054645D01*
X0025200Y0052954D01*
X0023906Y0051660D01*
X0022215Y0050960D01*
X0020385Y0050960D01*
X0018694Y0051660D01*
X0017400Y0052954D01*
X0016700Y0054645D01*
X0016700Y0056475D01*
X0017400Y0058166D01*
X0018694Y0059460D01*
X0020385Y0060160D01*
X0022215Y0060160D01*
X0023121Y0059785D01*
X0024600Y0061264D01*
X0025596Y0062260D01*
X0046609Y0062260D01*
X0046793Y0062444D01*
X0050295Y0062444D01*
X0050822Y0061917D01*
X0050707Y0062032D02*
X0051499Y0062032D01*
X0051384Y0061917D02*
X0051384Y0059203D01*
X0051911Y0058676D01*
X0055413Y0058676D01*
X0055940Y0059203D01*
X0055940Y0060434D01*
X0076904Y0081398D01*
X0077900Y0082394D01*
X0077900Y0082455D01*
X0078694Y0081660D01*
X0080385Y0080960D01*
X0082215Y0080960D01*
X0083906Y0081660D01*
X0085200Y0082954D01*
X0085900Y0084645D01*
X0085900Y0086475D01*
X0085200Y0088166D01*
X0083906Y0089460D01*
X0082215Y0090160D01*
X0080385Y0090160D01*
X0078694Y0089460D01*
X0077900Y0088665D01*
X0077900Y0092455D01*
X0078694Y0091660D01*
X0080385Y0090960D01*
X0082215Y0090960D01*
X0083906Y0091660D01*
X0085200Y0092954D01*
X0085900Y0094645D01*
X0085900Y0096475D01*
X0085200Y0098166D01*
X0083906Y0099460D01*
X0082215Y0100160D01*
X0080385Y0100160D01*
X0078694Y0099460D01*
X0077900Y0098665D01*
X0077900Y0102455D01*
X0078694Y0101660D01*
X0080385Y0100960D01*
X0082215Y0100960D01*
X0083906Y0101660D01*
X0085200Y0102954D01*
X0085900Y0104645D01*
X0085900Y0106475D01*
X0085200Y0108166D01*
X0083906Y0109460D01*
X0082215Y0110160D01*
X0080385Y0110160D01*
X0078694Y0109460D01*
X0077900Y0108665D01*
X0077900Y0112455D01*
X0078694Y0111660D01*
X0080385Y0110960D01*
X0082215Y0110960D01*
X0083906Y0111660D01*
X0085200Y0112954D01*
X0085900Y0114645D01*
X0085900Y0116475D01*
X0085200Y0118166D01*
X0083906Y0119460D01*
X0082215Y0120160D01*
X0080385Y0120160D01*
X0078694Y0119460D01*
X0077900Y0118665D01*
X0077900Y0122455D01*
X0078694Y0121660D01*
X0080385Y0120960D01*
X0082215Y0120960D01*
X0083906Y0121660D01*
X0085200Y0122954D01*
X0085900Y0124645D01*
X0085900Y0126475D01*
X0085200Y0128166D01*
X0083906Y0129460D01*
X0082215Y0130160D01*
X0080385Y0130160D01*
X0078694Y0129460D01*
X0077900Y0128665D01*
X0077900Y0132455D01*
X0078694Y0131660D01*
X0080385Y0130960D01*
X0082215Y0130960D01*
X0083906Y0131660D01*
X0085200Y0132954D01*
X0085900Y0134645D01*
X0085900Y0136475D01*
X0085200Y0138166D01*
X0084405Y0138960D01*
X0085596Y0138960D01*
X0089600Y0134956D01*
X0089600Y0121356D01*
X0090596Y0120360D01*
X0111075Y0099881D01*
X0110700Y0098975D01*
X0110700Y0097145D01*
X0111400Y0095454D01*
X0112694Y0094160D01*
X0113600Y0093785D01*
X0113600Y0087128D01*
X0113194Y0086960D01*
X0111900Y0085666D01*
X0111200Y0083975D01*
X0111200Y0082145D01*
X0111900Y0080454D01*
X0113194Y0079160D01*
X0114100Y0078785D01*
X0114100Y0069835D01*
X0113194Y0069460D01*
X0111900Y0068166D01*
X0111200Y0066475D01*
X0111200Y0064645D01*
X0111900Y0062954D01*
X0113194Y0061660D01*
X0114885Y0060960D01*
X0116715Y0060960D01*
X0118406Y0061660D01*
X0119700Y0062954D01*
X0120400Y0064645D01*
X0120400Y0066475D01*
X0119700Y0068166D01*
X0118406Y0069460D01*
X0117500Y0069835D01*
X0117500Y0078785D01*
X0118406Y0079160D01*
X0119700Y0080454D01*
X0120400Y0082145D01*
X0120400Y0083975D01*
X0119700Y0085666D01*
X0118406Y0086960D01*
X0117000Y0087542D01*
X0117000Y0093785D01*
X0117906Y0094160D01*
X0119200Y0095454D01*
X0119900Y0097145D01*
X0119900Y0098975D01*
X0119200Y0100666D01*
X0117906Y0101960D01*
X0116215Y0102660D01*
X0114385Y0102660D01*
X0113479Y0102285D01*
X0093000Y0122764D01*
X0093000Y0133860D01*
X0133893Y0133860D01*
X0133381Y0133694D01*
X0132679Y0133336D01*
X0132043Y0132874D01*
X0131486Y0132317D01*
X0131024Y0131681D01*
X0130666Y0130979D01*
X0130423Y0130231D01*
X0130300Y0129453D01*
X0130300Y0129360D01*
X0135000Y0129360D01*
X0135000Y0128760D01*
X0130300Y0128760D01*
X0130300Y0128666D01*
X0130423Y0127889D01*
X0130666Y0127141D01*
X0131024Y0126439D01*
X0131486Y0125803D01*
X0132043Y0125246D01*
X0132679Y0124784D01*
X0133381Y0124426D01*
X0134129Y0124183D01*
X0134906Y0124060D01*
X0135000Y0124060D01*
X0135000Y0128760D01*
X0135600Y0128760D01*
X0135600Y0129360D01*
X0140300Y0129360D01*
X0140300Y0129453D01*
X0140177Y0130231D01*
X0139934Y0130979D01*
X0139576Y0131681D01*
X0139114Y0132317D01*
X0138557Y0132874D01*
X0137921Y0133336D01*
X0137219Y0133694D01*
X0136707Y0133860D01*
X0140596Y0133860D01*
X0147100Y0127356D01*
X0147100Y0127356D01*
X0148096Y0126360D01*
X0160596Y0113860D01*
X0185596Y0113860D01*
X0194600Y0104856D01*
X0194600Y0051264D01*
X0188121Y0044785D01*
X0187215Y0045160D01*
X0185385Y0045160D01*
X0183694Y0044460D01*
X0182400Y0043166D01*
X0181700Y0041475D01*
X0181700Y0039645D01*
X0182400Y0037954D01*
X0183694Y0036660D01*
X0185385Y0035960D01*
X0187215Y0035960D01*
X0188906Y0036660D01*
X0190200Y0037954D01*
X0190900Y0039645D01*
X0190900Y0041475D01*
X0190525Y0042381D01*
X0197004Y0048860D01*
X0198000Y0049856D01*
X0198000Y0106264D01*
X0187004Y0117260D01*
X0162004Y0117260D01*
X0151204Y0128060D01*
X0155004Y0131860D01*
X0156525Y0131860D01*
X0156900Y0130954D01*
X0158194Y0129660D01*
X0159885Y0128960D01*
X0161715Y0128960D01*
X0163406Y0129660D01*
X0164700Y0130954D01*
X0165400Y0132645D01*
X0165400Y0134475D01*
X0164700Y0136166D01*
X0163406Y0137460D01*
X0161715Y0138160D01*
X0159885Y0138160D01*
X0158194Y0137460D01*
X0156900Y0136166D01*
X0156525Y0135260D01*
X0153596Y0135260D01*
X0152600Y0134264D01*
X0148800Y0130464D01*
X0143000Y0136264D01*
X0142004Y0137260D01*
X0092104Y0137260D01*
X0092004Y0137360D01*
X0087004Y0142360D01*
X0078483Y0142360D01*
X0077488Y0141364D01*
X0075496Y0139372D01*
X0074500Y0138377D01*
X0074500Y0083802D01*
X0053142Y0062444D01*
X0051911Y0062444D01*
X0051384Y0061917D01*
X0051384Y0060236D02*
X0050822Y0060236D01*
X0050822Y0059638D02*
X0051384Y0059638D01*
X0051548Y0059039D02*
X0050659Y0059039D01*
X0053329Y0062630D02*
X0024876Y0062630D01*
X0025200Y0062954D02*
X0025900Y0064645D01*
X0025900Y0066475D01*
X0025200Y0068166D01*
X0023906Y0069460D01*
X0022215Y0070160D01*
X0020385Y0070160D01*
X0018694Y0069460D01*
X0017400Y0068166D01*
X0016700Y0066475D01*
X0016700Y0064645D01*
X0017400Y0062954D01*
X0018694Y0061660D01*
X0020385Y0060960D01*
X0022215Y0060960D01*
X0023906Y0061660D01*
X0025200Y0062954D01*
X0025313Y0063229D02*
X0053927Y0063229D01*
X0054526Y0063827D02*
X0025561Y0063827D01*
X0025809Y0064426D02*
X0055124Y0064426D01*
X0055723Y0065025D02*
X0025900Y0065025D01*
X0025900Y0065623D02*
X0056321Y0065623D01*
X0056920Y0066222D02*
X0025900Y0066222D01*
X0025757Y0066820D02*
X0057518Y0066820D01*
X0058117Y0067419D02*
X0025509Y0067419D01*
X0025261Y0068017D02*
X0058715Y0068017D01*
X0059314Y0068616D02*
X0024750Y0068616D01*
X0024151Y0069214D02*
X0059912Y0069214D01*
X0060511Y0069813D02*
X0023054Y0069813D01*
X0022335Y0071010D02*
X0061708Y0071010D01*
X0062306Y0071608D02*
X0023780Y0071608D01*
X0023906Y0071660D02*
X0025200Y0072954D01*
X0025900Y0074645D01*
X0025900Y0076475D01*
X0025200Y0078166D01*
X0023906Y0079460D01*
X0022215Y0080160D01*
X0020385Y0080160D01*
X0018694Y0079460D01*
X0017400Y0078166D01*
X0016700Y0076475D01*
X0016700Y0074645D01*
X0017400Y0072954D01*
X0018694Y0071660D01*
X0020385Y0070960D01*
X0022215Y0070960D01*
X0023906Y0071660D01*
X0024452Y0072207D02*
X0062905Y0072207D01*
X0063503Y0072805D02*
X0025051Y0072805D01*
X0025386Y0073404D02*
X0064102Y0073404D01*
X0064700Y0074002D02*
X0025634Y0074002D01*
X0025882Y0074601D02*
X0065299Y0074601D01*
X0065897Y0075199D02*
X0025900Y0075199D01*
X0025900Y0075798D02*
X0066496Y0075798D01*
X0067094Y0076396D02*
X0025900Y0076396D01*
X0025685Y0076995D02*
X0067693Y0076995D01*
X0068291Y0077593D02*
X0025437Y0077593D01*
X0025174Y0078192D02*
X0068890Y0078192D01*
X0069488Y0078790D02*
X0024575Y0078790D01*
X0023977Y0079389D02*
X0070087Y0079389D01*
X0070685Y0079987D02*
X0022632Y0079987D01*
X0022215Y0080960D02*
X0023906Y0081660D01*
X0025200Y0082954D01*
X0025900Y0084645D01*
X0025900Y0086475D01*
X0025200Y0088166D01*
X0023906Y0089460D01*
X0022215Y0090160D01*
X0020385Y0090160D01*
X0018694Y0089460D01*
X0017400Y0088166D01*
X0016700Y0086475D01*
X0016700Y0084645D01*
X0017400Y0082954D01*
X0018694Y0081660D01*
X0020385Y0080960D01*
X0022215Y0080960D01*
X0022757Y0081184D02*
X0071882Y0081184D01*
X0071284Y0080586D02*
X0007377Y0080586D01*
X0007375Y0081184D02*
X0019843Y0081184D01*
X0019968Y0079987D02*
X0007379Y0079987D01*
X0007381Y0079389D02*
X0018623Y0079389D01*
X0018025Y0078790D02*
X0007382Y0078790D01*
X0007384Y0078192D02*
X0017426Y0078192D01*
X0017163Y0077593D02*
X0007386Y0077593D01*
X0007388Y0076995D02*
X0016915Y0076995D01*
X0016700Y0076396D02*
X0007389Y0076396D01*
X0007391Y0075798D02*
X0016700Y0075798D01*
X0016700Y0075199D02*
X0007393Y0075199D01*
X0007395Y0074601D02*
X0016718Y0074601D01*
X0016966Y0074002D02*
X0007397Y0074002D01*
X0007398Y0073404D02*
X0017214Y0073404D01*
X0017549Y0072805D02*
X0007400Y0072805D01*
X0007402Y0072207D02*
X0018148Y0072207D01*
X0018820Y0071608D02*
X0007404Y0071608D01*
X0007405Y0071010D02*
X0020265Y0071010D01*
X0019546Y0069813D02*
X0007409Y0069813D01*
X0007407Y0070411D02*
X0061109Y0070411D01*
X0063523Y0068017D02*
X0077339Y0068017D01*
X0077400Y0068166D02*
X0076700Y0066475D01*
X0076700Y0064645D01*
X0077400Y0062954D01*
X0078694Y0061660D01*
X0080385Y0060960D01*
X0082215Y0060960D01*
X0083906Y0061660D01*
X0085200Y0062954D01*
X0085900Y0064645D01*
X0085900Y0066475D01*
X0085200Y0068166D01*
X0083906Y0069460D01*
X0082215Y0070160D01*
X0080385Y0070160D01*
X0078694Y0069460D01*
X0077400Y0068166D01*
X0077850Y0068616D02*
X0064122Y0068616D01*
X0064720Y0069214D02*
X0078449Y0069214D01*
X0079546Y0069813D02*
X0065319Y0069813D01*
X0065917Y0070411D02*
X0114100Y0070411D01*
X0114100Y0071010D02*
X0082335Y0071010D01*
X0082215Y0070960D02*
X0083906Y0071660D01*
X0085200Y0072954D01*
X0085900Y0074645D01*
X0085900Y0076475D01*
X0085200Y0078166D01*
X0083906Y0079460D01*
X0082215Y0080160D01*
X0080385Y0080160D01*
X0078694Y0079460D01*
X0077400Y0078166D01*
X0076700Y0076475D01*
X0076700Y0074645D01*
X0077400Y0072954D01*
X0078694Y0071660D01*
X0080385Y0070960D01*
X0082215Y0070960D01*
X0083054Y0069813D02*
X0114046Y0069813D01*
X0112949Y0069214D02*
X0084151Y0069214D01*
X0084750Y0068616D02*
X0112350Y0068616D01*
X0111839Y0068017D02*
X0085261Y0068017D01*
X0085509Y0067419D02*
X0111591Y0067419D01*
X0111343Y0066820D02*
X0085757Y0066820D01*
X0085900Y0066222D02*
X0111200Y0066222D01*
X0111200Y0065623D02*
X0085900Y0065623D01*
X0085900Y0065025D02*
X0111200Y0065025D01*
X0111291Y0064426D02*
X0085809Y0064426D01*
X0085561Y0063827D02*
X0111539Y0063827D01*
X0111787Y0063229D02*
X0085313Y0063229D01*
X0084876Y0062630D02*
X0112224Y0062630D01*
X0112823Y0062032D02*
X0084277Y0062032D01*
X0083358Y0061433D02*
X0113742Y0061433D01*
X0117858Y0061433D02*
X0122973Y0061433D01*
X0123179Y0061284D02*
X0123881Y0060926D01*
X0124629Y0060683D01*
X0125406Y0060560D01*
X0125500Y0060560D01*
X0125500Y0065260D01*
X0120800Y0065260D01*
X0120800Y0065166D01*
X0120923Y0064389D01*
X0121166Y0063641D01*
X0121524Y0062939D01*
X0121986Y0062303D01*
X0122543Y0061746D01*
X0123179Y0061284D01*
X0124162Y0060835D02*
X0056341Y0060835D01*
X0055940Y0060236D02*
X0079512Y0060236D01*
X0079381Y0060194D02*
X0078679Y0059836D01*
X0078043Y0059374D01*
X0077486Y0058817D01*
X0077024Y0058181D01*
X0076666Y0057479D01*
X0076423Y0056731D01*
X0076300Y0055953D01*
X0076300Y0055860D01*
X0081000Y0055860D01*
X0081000Y0060560D01*
X0080906Y0060560D01*
X0080129Y0060437D01*
X0079381Y0060194D01*
X0078406Y0059638D02*
X0055940Y0059638D01*
X0055777Y0059039D02*
X0077708Y0059039D01*
X0077213Y0058441D02*
X0026585Y0058441D01*
X0025987Y0057842D02*
X0076851Y0057842D01*
X0076590Y0057244D02*
X0025582Y0057244D01*
X0025829Y0056645D02*
X0076410Y0056645D01*
X0076315Y0056047D02*
X0025900Y0056047D01*
X0025900Y0055448D02*
X0081000Y0055448D01*
X0081000Y0055260D02*
X0076300Y0055260D01*
X0076300Y0055166D01*
X0076423Y0054389D01*
X0076666Y0053641D01*
X0077024Y0052939D01*
X0077486Y0052303D01*
X0078043Y0051746D01*
X0078679Y0051284D01*
X0079381Y0050926D01*
X0080129Y0050683D01*
X0080906Y0050560D01*
X0080129Y0050437D01*
X0079381Y0050194D01*
X0078679Y0049836D01*
X0078043Y0049374D01*
X0077486Y0048817D01*
X0077024Y0048181D01*
X0076666Y0047479D01*
X0076423Y0046731D01*
X0076300Y0045953D01*
X0076300Y0045860D01*
X0081000Y0045860D01*
X0081000Y0050560D01*
X0081000Y0055260D01*
X0081000Y0055860D01*
X0081600Y0055860D01*
X0081600Y0060560D01*
X0081694Y0060560D01*
X0082471Y0060437D01*
X0083219Y0060194D01*
X0083921Y0059836D01*
X0084557Y0059374D01*
X0085114Y0058817D01*
X0085576Y0058181D01*
X0085934Y0057479D01*
X0086177Y0056731D01*
X0086300Y0055953D01*
X0086300Y0055860D01*
X0081600Y0055860D01*
X0081600Y0055260D01*
X0086300Y0055260D01*
X0086300Y0055166D01*
X0086177Y0054389D01*
X0085934Y0053641D01*
X0085576Y0052939D01*
X0085114Y0052303D01*
X0084557Y0051746D01*
X0083921Y0051284D01*
X0083219Y0050926D01*
X0082471Y0050683D01*
X0081694Y0050560D01*
X0081600Y0050560D01*
X0081694Y0050560D01*
X0082471Y0050437D01*
X0083219Y0050194D01*
X0083921Y0049836D01*
X0084557Y0049374D01*
X0085114Y0048817D01*
X0085576Y0048181D01*
X0085934Y0047479D01*
X0086177Y0046731D01*
X0086300Y0045953D01*
X0086300Y0045860D01*
X0081600Y0045860D01*
X0081000Y0045860D01*
X0081000Y0045260D01*
X0076300Y0045260D01*
X0076300Y0045166D01*
X0076423Y0044389D01*
X0076666Y0043641D01*
X0077024Y0042939D01*
X0077486Y0042303D01*
X0078043Y0041746D01*
X0078679Y0041284D01*
X0079381Y0040926D01*
X0080129Y0040683D01*
X0080906Y0040560D01*
X0081000Y0040560D01*
X0081000Y0045260D01*
X0081600Y0045260D01*
X0081600Y0045860D01*
X0081600Y0050560D01*
X0081600Y0055260D01*
X0081000Y0055260D01*
X0081000Y0054850D02*
X0081600Y0054850D01*
X0081600Y0055448D02*
X0135202Y0055448D01*
X0135129Y0055437D02*
X0134381Y0055194D01*
X0133679Y0054836D01*
X0133043Y0054374D01*
X0132486Y0053817D01*
X0132024Y0053181D01*
X0131666Y0052479D01*
X0131423Y0051731D01*
X0131300Y0050953D01*
X0131300Y0050860D01*
X0136000Y0050860D01*
X0136000Y0055560D01*
X0135906Y0055560D01*
X0135129Y0055437D01*
X0136000Y0055448D02*
X0136600Y0055448D01*
X0136600Y0055560D02*
X0136600Y0050860D01*
X0136000Y0050860D01*
X0136000Y0050260D01*
X0131300Y0050260D01*
X0131300Y0050166D01*
X0131423Y0049389D01*
X0131666Y0048641D01*
X0132024Y0047939D01*
X0132486Y0047303D01*
X0133043Y0046746D01*
X0133679Y0046284D01*
X0134381Y0045926D01*
X0135129Y0045683D01*
X0135906Y0045560D01*
X0136000Y0045560D01*
X0136000Y0050260D01*
X0136600Y0050260D01*
X0136600Y0050860D01*
X0141300Y0050860D01*
X0141300Y0050953D01*
X0141177Y0051731D01*
X0140934Y0052479D01*
X0140576Y0053181D01*
X0140114Y0053817D01*
X0139557Y0054374D01*
X0138921Y0054836D01*
X0138219Y0055194D01*
X0137471Y0055437D01*
X0136694Y0055560D01*
X0136600Y0055560D01*
X0136600Y0054850D02*
X0136000Y0054850D01*
X0136000Y0054251D02*
X0136600Y0054251D01*
X0136600Y0053653D02*
X0136000Y0053653D01*
X0136000Y0053054D02*
X0136600Y0053054D01*
X0136600Y0052456D02*
X0136000Y0052456D01*
X0136000Y0051857D02*
X0136600Y0051857D01*
X0136600Y0051259D02*
X0136000Y0051259D01*
X0136000Y0050660D02*
X0130900Y0050660D01*
X0130900Y0050062D02*
X0131317Y0050062D01*
X0130900Y0049645D02*
X0130900Y0051475D01*
X0130200Y0053166D01*
X0128906Y0054460D01*
X0127215Y0055160D01*
X0125385Y0055160D01*
X0123694Y0054460D01*
X0122400Y0053166D01*
X0121700Y0051475D01*
X0121700Y0049645D01*
X0122400Y0047954D01*
X0123694Y0046660D01*
X0124600Y0046285D01*
X0124600Y0039835D01*
X0123694Y0039460D01*
X0122400Y0038166D01*
X0121700Y0036475D01*
X0121700Y0034645D01*
X0122400Y0032954D01*
X0123694Y0031660D01*
X0124600Y0031285D01*
X0124600Y0024835D01*
X0123694Y0024460D01*
X0122400Y0023166D01*
X0121700Y0021475D01*
X0121700Y0019645D01*
X0122400Y0017954D01*
X0123694Y0016660D01*
X0125385Y0015960D01*
X0127215Y0015960D01*
X0128906Y0016660D01*
X0130200Y0017954D01*
X0130900Y0019645D01*
X0130900Y0021475D01*
X0130200Y0023166D01*
X0128906Y0024460D01*
X0128000Y0024835D01*
X0128000Y0026456D01*
X0128096Y0026360D01*
X0174600Y0026360D01*
X0174600Y0024835D01*
X0173694Y0024460D01*
X0172400Y0023166D01*
X0171700Y0021475D01*
X0171700Y0019645D01*
X0172400Y0017954D01*
X0173694Y0016660D01*
X0175385Y0015960D01*
X0177215Y0015960D01*
X0178906Y0016660D01*
X0180200Y0017954D01*
X0180900Y0019645D01*
X0180900Y0021475D01*
X0180200Y0023166D01*
X0178906Y0024460D01*
X0178000Y0024835D01*
X0178000Y0026360D01*
X0224504Y0026360D01*
X0240504Y0042360D01*
X0241500Y0043356D01*
X0241500Y0046285D01*
X0242406Y0046660D01*
X0243700Y0047954D01*
X0244400Y0049645D01*
X0244400Y0051475D01*
X0243700Y0053166D01*
X0242406Y0054460D01*
X0241500Y0054835D01*
X0241500Y0056285D01*
X0242406Y0056660D01*
X0243700Y0057954D01*
X0244400Y0059645D01*
X0244400Y0061475D01*
X0243700Y0063166D01*
X0242406Y0064460D01*
X0241500Y0064835D01*
X0241500Y0066285D01*
X0242406Y0066660D01*
X0243700Y0067954D01*
X0244400Y0069645D01*
X0244400Y0071475D01*
X0243700Y0073166D01*
X0242406Y0074460D01*
X0240715Y0075160D01*
X0238885Y0075160D01*
X0237194Y0074460D01*
X0235900Y0073166D01*
X0235200Y0071475D01*
X0235200Y0069645D01*
X0235900Y0067954D01*
X0237194Y0066660D01*
X0238100Y0066285D01*
X0238100Y0064835D01*
X0237194Y0064460D01*
X0235900Y0063166D01*
X0235200Y0061475D01*
X0235200Y0059645D01*
X0235900Y0057954D01*
X0237194Y0056660D01*
X0238100Y0056285D01*
X0238100Y0054835D01*
X0237194Y0054460D01*
X0235900Y0053166D01*
X0235200Y0051475D01*
X0235200Y0049645D01*
X0235900Y0047954D01*
X0237194Y0046660D01*
X0238100Y0046285D01*
X0238100Y0044764D01*
X0223096Y0029760D01*
X0178000Y0029760D01*
X0178000Y0036285D01*
X0178906Y0036660D01*
X0180200Y0037954D01*
X0180900Y0039645D01*
X0180900Y0041475D01*
X0180200Y0043166D01*
X0178906Y0044460D01*
X0178000Y0044835D01*
X0178000Y0046285D01*
X0178906Y0046660D01*
X0180200Y0047954D01*
X0180900Y0049645D01*
X0180900Y0051475D01*
X0180200Y0053166D01*
X0178906Y0054460D01*
X0178000Y0054835D01*
X0178000Y0056285D01*
X0178906Y0056660D01*
X0180200Y0057954D01*
X0180900Y0059645D01*
X0180900Y0061475D01*
X0180200Y0063166D01*
X0178906Y0064460D01*
X0178000Y0064835D01*
X0178000Y0081285D01*
X0178906Y0081660D01*
X0180200Y0082954D01*
X0180900Y0084645D01*
X0180900Y0086475D01*
X0180200Y0088166D01*
X0178906Y0089460D01*
X0178000Y0089835D01*
X0178000Y0091285D01*
X0178906Y0091660D01*
X0180200Y0092954D01*
X0180900Y0094645D01*
X0180900Y0096475D01*
X0180200Y0098166D01*
X0178906Y0099460D01*
X0178000Y0099835D01*
X0178000Y0101285D01*
X0178906Y0101660D01*
X0180200Y0102954D01*
X0180900Y0104645D01*
X0180900Y0106475D01*
X0180200Y0108166D01*
X0178906Y0109460D01*
X0177215Y0110160D01*
X0175385Y0110160D01*
X0174479Y0109785D01*
X0171904Y0112360D01*
X0140696Y0112360D01*
X0139889Y0111553D01*
X0139934Y0111641D01*
X0140177Y0112389D01*
X0140300Y0113166D01*
X0140300Y0113260D01*
X0135600Y0113260D01*
X0135600Y0113860D01*
X0135000Y0113860D01*
X0135000Y0118560D01*
X0134906Y0118560D01*
X0134129Y0118437D01*
X0133381Y0118194D01*
X0132679Y0117836D01*
X0132043Y0117374D01*
X0131486Y0116817D01*
X0131024Y0116181D01*
X0130666Y0115479D01*
X0130423Y0114731D01*
X0130300Y0113953D01*
X0130300Y0113860D01*
X0135000Y0113860D01*
X0135000Y0113260D01*
X0130300Y0113260D01*
X0130300Y0113166D01*
X0130423Y0112389D01*
X0130666Y0111641D01*
X0131024Y0110939D01*
X0131486Y0110303D01*
X0131629Y0110160D01*
X0131104Y0110160D01*
X0129525Y0111739D01*
X0129900Y0112645D01*
X0129900Y0114475D01*
X0129200Y0116166D01*
X0127906Y0117460D01*
X0127000Y0117835D01*
X0127000Y0124785D01*
X0127906Y0125160D01*
X0129200Y0126454D01*
X0129900Y0128145D01*
X0129900Y0129975D01*
X0129200Y0131666D01*
X0127906Y0132960D01*
X0126215Y0133660D01*
X0124385Y0133660D01*
X0122694Y0132960D01*
X0121400Y0131666D01*
X0120700Y0129975D01*
X0120700Y0128145D01*
X0121400Y0126454D01*
X0122694Y0125160D01*
X0123600Y0124785D01*
X0123600Y0117835D01*
X0122694Y0117460D01*
X0121400Y0116166D01*
X0120700Y0114475D01*
X0120700Y0112645D01*
X0121400Y0110954D01*
X0122694Y0109660D01*
X0124385Y0108960D01*
X0126215Y0108960D01*
X0127121Y0109335D01*
X0129696Y0106760D01*
X0139904Y0106760D01*
X0142104Y0108960D01*
X0162629Y0108960D01*
X0162486Y0108817D01*
X0162024Y0108181D01*
X0161666Y0107479D01*
X0161423Y0106731D01*
X0161300Y0105953D01*
X0161300Y0105860D01*
X0166000Y0105860D01*
X0166000Y0105260D01*
X0161300Y0105260D01*
X0161300Y0105166D01*
X0161423Y0104389D01*
X0161666Y0103641D01*
X0162024Y0102939D01*
X0162486Y0102303D01*
X0163043Y0101746D01*
X0163679Y0101284D01*
X0164381Y0100926D01*
X0165129Y0100683D01*
X0165906Y0100560D01*
X0165129Y0100437D01*
X0164381Y0100194D01*
X0163679Y0099836D01*
X0163043Y0099374D01*
X0162486Y0098817D01*
X0162024Y0098181D01*
X0161666Y0097479D01*
X0161423Y0096731D01*
X0161300Y0095953D01*
X0161300Y0095860D01*
X0166000Y0095860D01*
X0166000Y0100560D01*
X0166000Y0105260D01*
X0166600Y0105260D01*
X0166600Y0105860D01*
X0171300Y0105860D01*
X0171300Y0105953D01*
X0171177Y0106731D01*
X0170934Y0107479D01*
X0170576Y0108181D01*
X0170114Y0108817D01*
X0169971Y0108960D01*
X0170496Y0108960D01*
X0172075Y0107381D01*
X0171700Y0106475D01*
X0171700Y0104645D01*
X0172400Y0102954D01*
X0173694Y0101660D01*
X0174600Y0101285D01*
X0174600Y0099835D01*
X0173694Y0099460D01*
X0172400Y0098166D01*
X0171700Y0096475D01*
X0171700Y0094645D01*
X0172400Y0092954D01*
X0173694Y0091660D01*
X0174600Y0091285D01*
X0174600Y0089835D01*
X0173694Y0089460D01*
X0172400Y0088166D01*
X0171700Y0086475D01*
X0171700Y0084645D01*
X0172400Y0082954D01*
X0173694Y0081660D01*
X0174600Y0081285D01*
X0174600Y0064835D01*
X0173694Y0064460D01*
X0172400Y0063166D01*
X0171700Y0061475D01*
X0171700Y0059645D01*
X0172400Y0057954D01*
X0173694Y0056660D01*
X0174600Y0056285D01*
X0174600Y0054835D01*
X0173694Y0054460D01*
X0172400Y0053166D01*
X0171700Y0051475D01*
X0171700Y0049645D01*
X0172400Y0047954D01*
X0173694Y0046660D01*
X0174600Y0046285D01*
X0174600Y0044835D01*
X0173694Y0044460D01*
X0172400Y0043166D01*
X0171700Y0041475D01*
X0171700Y0039645D01*
X0172400Y0037954D01*
X0173694Y0036660D01*
X0174600Y0036285D01*
X0174600Y0029760D01*
X0129504Y0029760D01*
X0128000Y0031264D01*
X0128000Y0031285D01*
X0128906Y0031660D01*
X0130200Y0032954D01*
X0130900Y0034645D01*
X0130900Y0036475D01*
X0130200Y0038166D01*
X0128906Y0039460D01*
X0128000Y0039835D01*
X0128000Y0046285D01*
X0128906Y0046660D01*
X0130200Y0047954D01*
X0130900Y0049645D01*
X0130825Y0049463D02*
X0131411Y0049463D01*
X0131594Y0048865D02*
X0130577Y0048865D01*
X0130329Y0048266D02*
X0131857Y0048266D01*
X0132221Y0047668D02*
X0129913Y0047668D01*
X0129315Y0047069D02*
X0132720Y0047069D01*
X0133422Y0046471D02*
X0128448Y0046471D01*
X0128000Y0045872D02*
X0134547Y0045872D01*
X0136000Y0045872D02*
X0136600Y0045872D01*
X0136600Y0045560D02*
X0136694Y0045560D01*
X0137471Y0045683D01*
X0138219Y0045926D01*
X0138921Y0046284D01*
X0139557Y0046746D01*
X0140114Y0047303D01*
X0140576Y0047939D01*
X0140934Y0048641D01*
X0141177Y0049389D01*
X0141300Y0050166D01*
X0141300Y0050260D01*
X0136600Y0050260D01*
X0136600Y0045560D01*
X0136600Y0046471D02*
X0136000Y0046471D01*
X0136000Y0047069D02*
X0136600Y0047069D01*
X0136600Y0047668D02*
X0136000Y0047668D01*
X0136000Y0048266D02*
X0136600Y0048266D01*
X0136600Y0048865D02*
X0136000Y0048865D01*
X0136000Y0049463D02*
X0136600Y0049463D01*
X0136600Y0050062D02*
X0136000Y0050062D01*
X0136600Y0050660D02*
X0166000Y0050660D01*
X0166000Y0050860D02*
X0166000Y0050260D01*
X0161300Y0050260D01*
X0161300Y0050166D01*
X0161423Y0049389D01*
X0161666Y0048641D01*
X0162024Y0047939D01*
X0162486Y0047303D01*
X0163043Y0046746D01*
X0163679Y0046284D01*
X0164381Y0045926D01*
X0165129Y0045683D01*
X0165906Y0045560D01*
X0166000Y0045560D01*
X0166000Y0050260D01*
X0166600Y0050260D01*
X0166600Y0050860D01*
X0166000Y0050860D01*
X0166000Y0055560D01*
X0166000Y0060260D01*
X0161300Y0060260D01*
X0161300Y0060166D01*
X0161423Y0059389D01*
X0161666Y0058641D01*
X0162024Y0057939D01*
X0162486Y0057303D01*
X0163043Y0056746D01*
X0163679Y0056284D01*
X0164381Y0055926D01*
X0165129Y0055683D01*
X0165906Y0055560D01*
X0165129Y0055437D01*
X0164381Y0055194D01*
X0163679Y0054836D01*
X0163043Y0054374D01*
X0162486Y0053817D01*
X0162024Y0053181D01*
X0161666Y0052479D01*
X0161423Y0051731D01*
X0161300Y0050953D01*
X0161300Y0050860D01*
X0166000Y0050860D01*
X0166000Y0051259D02*
X0166600Y0051259D01*
X0166600Y0050860D02*
X0166600Y0055560D01*
X0166694Y0055560D01*
X0166600Y0055560D01*
X0166600Y0060260D01*
X0166600Y0060860D01*
X0166000Y0060860D01*
X0166000Y0065560D01*
X0165906Y0065560D01*
X0165129Y0065437D01*
X0164381Y0065194D01*
X0163679Y0064836D01*
X0163043Y0064374D01*
X0162486Y0063817D01*
X0162024Y0063181D01*
X0161666Y0062479D01*
X0161423Y0061731D01*
X0161300Y0060953D01*
X0161300Y0060860D01*
X0166000Y0060860D01*
X0166000Y0060260D01*
X0166600Y0060260D01*
X0171300Y0060260D01*
X0171300Y0060166D01*
X0171177Y0059389D01*
X0170934Y0058641D01*
X0170576Y0057939D01*
X0170114Y0057303D01*
X0169557Y0056746D01*
X0168921Y0056284D01*
X0168219Y0055926D01*
X0167471Y0055683D01*
X0166694Y0055560D01*
X0167471Y0055437D01*
X0168219Y0055194D01*
X0168921Y0054836D01*
X0169557Y0054374D01*
X0170114Y0053817D01*
X0170576Y0053181D01*
X0170934Y0052479D01*
X0171177Y0051731D01*
X0171300Y0050953D01*
X0171300Y0050860D01*
X0166600Y0050860D01*
X0166600Y0050660D02*
X0171700Y0050660D01*
X0171300Y0050260D02*
X0166600Y0050260D01*
X0166600Y0045560D01*
X0166694Y0045560D01*
X0167471Y0045683D01*
X0168219Y0045926D01*
X0168921Y0046284D01*
X0169557Y0046746D01*
X0170114Y0047303D01*
X0170576Y0047939D01*
X0170934Y0048641D01*
X0171177Y0049389D01*
X0171300Y0050166D01*
X0171300Y0050260D01*
X0171283Y0050062D02*
X0171700Y0050062D01*
X0171775Y0049463D02*
X0171189Y0049463D01*
X0171006Y0048865D02*
X0172023Y0048865D01*
X0172271Y0048266D02*
X0170743Y0048266D01*
X0170379Y0047668D02*
X0172687Y0047668D01*
X0173285Y0047069D02*
X0169880Y0047069D01*
X0169178Y0046471D02*
X0174152Y0046471D01*
X0174600Y0045872D02*
X0168053Y0045872D01*
X0167973Y0045274D02*
X0174600Y0045274D01*
X0174214Y0044675D02*
X0169142Y0044675D01*
X0168921Y0044836D02*
X0169557Y0044374D01*
X0170114Y0043817D01*
X0170576Y0043181D01*
X0170934Y0042479D01*
X0171177Y0041731D01*
X0171300Y0040953D01*
X0171300Y0040860D01*
X0166600Y0040860D01*
X0166000Y0040860D01*
X0166000Y0045560D01*
X0165906Y0045560D01*
X0165129Y0045437D01*
X0164381Y0045194D01*
X0163679Y0044836D01*
X0163043Y0044374D01*
X0162486Y0043817D01*
X0162024Y0043181D01*
X0161666Y0042479D01*
X0161423Y0041731D01*
X0161300Y0040953D01*
X0161300Y0040860D01*
X0166000Y0040860D01*
X0166000Y0040260D01*
X0161300Y0040260D01*
X0161300Y0040166D01*
X0161423Y0039389D01*
X0161666Y0038641D01*
X0162024Y0037939D01*
X0162486Y0037303D01*
X0163043Y0036746D01*
X0163679Y0036284D01*
X0164381Y0035926D01*
X0165129Y0035683D01*
X0165906Y0035560D01*
X0166000Y0035560D01*
X0166000Y0040260D01*
X0166600Y0040260D01*
X0166600Y0040860D01*
X0166600Y0045560D01*
X0166694Y0045560D01*
X0167471Y0045437D01*
X0168219Y0045194D01*
X0168921Y0044836D01*
X0169854Y0044077D02*
X0173311Y0044077D01*
X0172713Y0043478D02*
X0170360Y0043478D01*
X0170730Y0042880D02*
X0172282Y0042880D01*
X0172034Y0042281D02*
X0170998Y0042281D01*
X0171185Y0041683D02*
X0171786Y0041683D01*
X0171700Y0041084D02*
X0171279Y0041084D01*
X0171700Y0040486D02*
X0166600Y0040486D01*
X0166600Y0040260D02*
X0171300Y0040260D01*
X0171300Y0040166D01*
X0171177Y0039389D01*
X0170934Y0038641D01*
X0170576Y0037939D01*
X0170114Y0037303D01*
X0169557Y0036746D01*
X0168921Y0036284D01*
X0168219Y0035926D01*
X0167471Y0035683D01*
X0166694Y0035560D01*
X0166600Y0035560D01*
X0166600Y0040260D01*
X0166600Y0039887D02*
X0166000Y0039887D01*
X0166000Y0039289D02*
X0166600Y0039289D01*
X0166600Y0038690D02*
X0166000Y0038690D01*
X0166000Y0038092D02*
X0166600Y0038092D01*
X0166600Y0037493D02*
X0166000Y0037493D01*
X0166000Y0036894D02*
X0166600Y0036894D01*
X0166600Y0036296D02*
X0166000Y0036296D01*
X0166000Y0035697D02*
X0166600Y0035697D01*
X0167515Y0035697D02*
X0174600Y0035697D01*
X0174600Y0035099D02*
X0141289Y0035099D01*
X0141300Y0035166D02*
X0141300Y0035260D01*
X0136600Y0035260D01*
X0136600Y0035860D01*
X0136000Y0035860D01*
X0136000Y0040560D01*
X0135906Y0040560D01*
X0135129Y0040437D01*
X0134381Y0040194D01*
X0133679Y0039836D01*
X0133043Y0039374D01*
X0132486Y0038817D01*
X0132024Y0038181D01*
X0131666Y0037479D01*
X0131423Y0036731D01*
X0131300Y0035953D01*
X0131300Y0035860D01*
X0136000Y0035860D01*
X0136000Y0035260D01*
X0131300Y0035260D01*
X0131300Y0035166D01*
X0131423Y0034389D01*
X0131666Y0033641D01*
X0132024Y0032939D01*
X0132486Y0032303D01*
X0133043Y0031746D01*
X0133679Y0031284D01*
X0134381Y0030926D01*
X0135129Y0030683D01*
X0135906Y0030560D01*
X0136000Y0030560D01*
X0136000Y0035260D01*
X0136600Y0035260D01*
X0136600Y0030560D01*
X0136694Y0030560D01*
X0137471Y0030683D01*
X0138219Y0030926D01*
X0138921Y0031284D01*
X0139557Y0031746D01*
X0140114Y0032303D01*
X0140576Y0032939D01*
X0140934Y0033641D01*
X0141177Y0034389D01*
X0141300Y0035166D01*
X0141194Y0034500D02*
X0174600Y0034500D01*
X0174600Y0033902D02*
X0141019Y0033902D01*
X0140762Y0033303D02*
X0174600Y0033303D01*
X0174600Y0032705D02*
X0140406Y0032705D01*
X0139917Y0032106D02*
X0174600Y0032106D01*
X0174600Y0031508D02*
X0139229Y0031508D01*
X0138167Y0030909D02*
X0174600Y0030909D01*
X0174600Y0030311D02*
X0128953Y0030311D01*
X0128355Y0030909D02*
X0134433Y0030909D01*
X0133371Y0031508D02*
X0128538Y0031508D01*
X0129352Y0032106D02*
X0132683Y0032106D01*
X0132194Y0032705D02*
X0129950Y0032705D01*
X0130344Y0033303D02*
X0131838Y0033303D01*
X0131581Y0033902D02*
X0130592Y0033902D01*
X0130840Y0034500D02*
X0131405Y0034500D01*
X0131311Y0035099D02*
X0130900Y0035099D01*
X0130900Y0035697D02*
X0136000Y0035697D01*
X0136000Y0035099D02*
X0136600Y0035099D01*
X0136600Y0035697D02*
X0165085Y0035697D01*
X0163662Y0036296D02*
X0141246Y0036296D01*
X0141300Y0035953D02*
X0141177Y0036731D01*
X0140934Y0037479D01*
X0140576Y0038181D01*
X0140114Y0038817D01*
X0139557Y0039374D01*
X0138921Y0039836D01*
X0138219Y0040194D01*
X0137471Y0040437D01*
X0136694Y0040560D01*
X0136600Y0040560D01*
X0136600Y0035860D01*
X0141300Y0035860D01*
X0141300Y0035953D01*
X0141124Y0036894D02*
X0162894Y0036894D01*
X0162348Y0037493D02*
X0140927Y0037493D01*
X0140622Y0038092D02*
X0161946Y0038092D01*
X0161650Y0038690D02*
X0140206Y0038690D01*
X0139643Y0039289D02*
X0161456Y0039289D01*
X0161344Y0039887D02*
X0138821Y0039887D01*
X0137163Y0040486D02*
X0166000Y0040486D01*
X0166000Y0041084D02*
X0166600Y0041084D01*
X0166600Y0041683D02*
X0166000Y0041683D01*
X0166000Y0042281D02*
X0166600Y0042281D01*
X0166600Y0042880D02*
X0166000Y0042880D01*
X0166000Y0043478D02*
X0166600Y0043478D01*
X0166600Y0044077D02*
X0166000Y0044077D01*
X0166000Y0044675D02*
X0166600Y0044675D01*
X0166600Y0045274D02*
X0166000Y0045274D01*
X0166000Y0045872D02*
X0166600Y0045872D01*
X0166600Y0046471D02*
X0166000Y0046471D01*
X0166000Y0047069D02*
X0166600Y0047069D01*
X0166600Y0047668D02*
X0166000Y0047668D01*
X0166000Y0048266D02*
X0166600Y0048266D01*
X0166600Y0048865D02*
X0166000Y0048865D01*
X0166000Y0049463D02*
X0166600Y0049463D01*
X0166600Y0050062D02*
X0166000Y0050062D01*
X0166000Y0051857D02*
X0166600Y0051857D01*
X0166600Y0052456D02*
X0166000Y0052456D01*
X0166000Y0053054D02*
X0166600Y0053054D01*
X0166600Y0053653D02*
X0166000Y0053653D01*
X0166000Y0054251D02*
X0166600Y0054251D01*
X0166600Y0054850D02*
X0166000Y0054850D01*
X0166000Y0055448D02*
X0166600Y0055448D01*
X0166600Y0056047D02*
X0166000Y0056047D01*
X0166000Y0055560D02*
X0165906Y0055560D01*
X0166000Y0055560D01*
X0165202Y0055448D02*
X0137398Y0055448D01*
X0138894Y0054850D02*
X0163706Y0054850D01*
X0162920Y0054251D02*
X0139680Y0054251D01*
X0140233Y0053653D02*
X0162367Y0053653D01*
X0161959Y0053054D02*
X0140641Y0053054D01*
X0140941Y0052456D02*
X0161659Y0052456D01*
X0161464Y0051857D02*
X0141136Y0051857D01*
X0141252Y0051259D02*
X0161348Y0051259D01*
X0161317Y0050062D02*
X0141283Y0050062D01*
X0141189Y0049463D02*
X0161411Y0049463D01*
X0161594Y0048865D02*
X0141006Y0048865D01*
X0140743Y0048266D02*
X0161857Y0048266D01*
X0162221Y0047668D02*
X0140379Y0047668D01*
X0139880Y0047069D02*
X0162720Y0047069D01*
X0163422Y0046471D02*
X0139178Y0046471D01*
X0138053Y0045872D02*
X0164547Y0045872D01*
X0164627Y0045274D02*
X0128000Y0045274D01*
X0128000Y0044675D02*
X0163458Y0044675D01*
X0162746Y0044077D02*
X0128000Y0044077D01*
X0128000Y0043478D02*
X0162240Y0043478D01*
X0161870Y0042880D02*
X0128000Y0042880D01*
X0128000Y0042281D02*
X0161602Y0042281D01*
X0161415Y0041683D02*
X0128000Y0041683D01*
X0128000Y0041084D02*
X0161321Y0041084D01*
X0168938Y0036296D02*
X0174574Y0036296D01*
X0173460Y0036894D02*
X0169706Y0036894D01*
X0170252Y0037493D02*
X0172862Y0037493D01*
X0172343Y0038092D02*
X0170654Y0038092D01*
X0170950Y0038690D02*
X0172096Y0038690D01*
X0171848Y0039289D02*
X0171144Y0039289D01*
X0171256Y0039887D02*
X0171700Y0039887D01*
X0178026Y0036296D02*
X0184574Y0036296D01*
X0183460Y0036894D02*
X0179140Y0036894D01*
X0179738Y0037493D02*
X0182862Y0037493D01*
X0182343Y0038092D02*
X0180257Y0038092D01*
X0180504Y0038690D02*
X0182096Y0038690D01*
X0181848Y0039289D02*
X0180752Y0039289D01*
X0180900Y0039887D02*
X0181700Y0039887D01*
X0181700Y0040486D02*
X0180900Y0040486D01*
X0180900Y0041084D02*
X0181700Y0041084D01*
X0181786Y0041683D02*
X0180814Y0041683D01*
X0180566Y0042281D02*
X0182034Y0042281D01*
X0182282Y0042880D02*
X0180318Y0042880D01*
X0179887Y0043478D02*
X0182713Y0043478D01*
X0183311Y0044077D02*
X0179289Y0044077D01*
X0178386Y0044675D02*
X0184214Y0044675D01*
X0185385Y0045960D02*
X0183694Y0046660D01*
X0182400Y0047954D01*
X0181700Y0049645D01*
X0181700Y0051475D01*
X0182400Y0053166D01*
X0183694Y0054460D01*
X0185385Y0055160D01*
X0187215Y0055160D01*
X0188906Y0054460D01*
X0190200Y0053166D01*
X0190900Y0051475D01*
X0190900Y0049645D01*
X0190200Y0047954D01*
X0188906Y0046660D01*
X0187215Y0045960D01*
X0185385Y0045960D01*
X0184152Y0046471D02*
X0178448Y0046471D01*
X0178000Y0045872D02*
X0189208Y0045872D01*
X0188610Y0045274D02*
X0178000Y0045274D01*
X0179315Y0047069D02*
X0183285Y0047069D01*
X0182687Y0047668D02*
X0179913Y0047668D01*
X0180329Y0048266D02*
X0182271Y0048266D01*
X0182023Y0048865D02*
X0180577Y0048865D01*
X0180825Y0049463D02*
X0181775Y0049463D01*
X0181700Y0050062D02*
X0180900Y0050062D01*
X0180900Y0050660D02*
X0181700Y0050660D01*
X0181700Y0051259D02*
X0180900Y0051259D01*
X0180742Y0051857D02*
X0181858Y0051857D01*
X0182106Y0052456D02*
X0180494Y0052456D01*
X0180246Y0053054D02*
X0182354Y0053054D01*
X0182887Y0053653D02*
X0179713Y0053653D01*
X0179114Y0054251D02*
X0183486Y0054251D01*
X0184636Y0054850D02*
X0178000Y0054850D01*
X0178000Y0055448D02*
X0194600Y0055448D01*
X0194600Y0054850D02*
X0187964Y0054850D01*
X0189114Y0054251D02*
X0194600Y0054251D01*
X0194600Y0053653D02*
X0189713Y0053653D01*
X0190246Y0053054D02*
X0194600Y0053054D01*
X0194600Y0052456D02*
X0190494Y0052456D01*
X0190742Y0051857D02*
X0194600Y0051857D01*
X0194595Y0051259D02*
X0190900Y0051259D01*
X0190900Y0050660D02*
X0193996Y0050660D01*
X0193398Y0050062D02*
X0190900Y0050062D01*
X0190825Y0049463D02*
X0192799Y0049463D01*
X0192201Y0048865D02*
X0190577Y0048865D01*
X0190329Y0048266D02*
X0191602Y0048266D01*
X0191004Y0047668D02*
X0189913Y0047668D01*
X0190405Y0047069D02*
X0189315Y0047069D01*
X0189807Y0046471D02*
X0188448Y0046471D01*
X0192819Y0044675D02*
X0238011Y0044675D01*
X0238100Y0045274D02*
X0193418Y0045274D01*
X0194016Y0045872D02*
X0228047Y0045872D01*
X0227881Y0045926D02*
X0228629Y0045683D01*
X0229406Y0045560D01*
X0229500Y0045560D01*
X0229500Y0050260D01*
X0224800Y0050260D01*
X0224800Y0050166D01*
X0224923Y0049389D01*
X0225166Y0048641D01*
X0225524Y0047939D01*
X0225986Y0047303D01*
X0226543Y0046746D01*
X0227179Y0046284D01*
X0227881Y0045926D01*
X0226922Y0046471D02*
X0194615Y0046471D01*
X0195213Y0047069D02*
X0226220Y0047069D01*
X0225721Y0047668D02*
X0195812Y0047668D01*
X0196410Y0048266D02*
X0225357Y0048266D01*
X0225094Y0048865D02*
X0197009Y0048865D01*
X0197607Y0049463D02*
X0224911Y0049463D01*
X0224817Y0050062D02*
X0198000Y0050062D01*
X0198000Y0050660D02*
X0229500Y0050660D01*
X0229500Y0050860D02*
X0229500Y0050260D01*
X0230100Y0050260D01*
X0230100Y0050860D01*
X0229500Y0050860D01*
X0229500Y0055560D01*
X0229500Y0060260D01*
X0224800Y0060260D01*
X0224800Y0060166D01*
X0224923Y0059389D01*
X0225166Y0058641D01*
X0225524Y0057939D01*
X0225986Y0057303D01*
X0226543Y0056746D01*
X0227179Y0056284D01*
X0227881Y0055926D01*
X0228629Y0055683D01*
X0229406Y0055560D01*
X0228629Y0055437D01*
X0227881Y0055194D01*
X0227179Y0054836D01*
X0226543Y0054374D01*
X0225986Y0053817D01*
X0225524Y0053181D01*
X0225166Y0052479D01*
X0224923Y0051731D01*
X0224800Y0050953D01*
X0224800Y0050860D01*
X0229500Y0050860D01*
X0229500Y0051259D02*
X0230100Y0051259D01*
X0230100Y0050860D02*
X0230100Y0055560D01*
X0230194Y0055560D01*
X0230100Y0055560D01*
X0230100Y0060260D01*
X0230100Y0060860D01*
X0229500Y0060860D01*
X0229500Y0065560D01*
X0229500Y0070260D01*
X0224800Y0070260D01*
X0224800Y0070166D01*
X0224923Y0069389D01*
X0225166Y0068641D01*
X0225524Y0067939D01*
X0225986Y0067303D01*
X0226543Y0066746D01*
X0227179Y0066284D01*
X0227881Y0065926D01*
X0228629Y0065683D01*
X0229406Y0065560D01*
X0229500Y0065560D01*
X0229406Y0065560D01*
X0228629Y0065437D01*
X0227881Y0065194D01*
X0227179Y0064836D01*
X0226543Y0064374D01*
X0225986Y0063817D01*
X0225524Y0063181D01*
X0225166Y0062479D01*
X0224923Y0061731D01*
X0224800Y0060953D01*
X0224800Y0060860D01*
X0229500Y0060860D01*
X0229500Y0060260D01*
X0230100Y0060260D01*
X0234800Y0060260D01*
X0234800Y0060166D01*
X0234677Y0059389D01*
X0234434Y0058641D01*
X0234076Y0057939D01*
X0233614Y0057303D01*
X0233057Y0056746D01*
X0232421Y0056284D01*
X0231719Y0055926D01*
X0230971Y0055683D01*
X0230194Y0055560D01*
X0230971Y0055437D01*
X0231719Y0055194D01*
X0232421Y0054836D01*
X0233057Y0054374D01*
X0233614Y0053817D01*
X0234076Y0053181D01*
X0234434Y0052479D01*
X0234677Y0051731D01*
X0234800Y0050953D01*
X0234800Y0050860D01*
X0230100Y0050860D01*
X0230100Y0050660D02*
X0235200Y0050660D01*
X0234800Y0050260D02*
X0230100Y0050260D01*
X0230100Y0045560D01*
X0230194Y0045560D01*
X0230971Y0045683D01*
X0231719Y0045926D01*
X0232421Y0046284D01*
X0233057Y0046746D01*
X0233614Y0047303D01*
X0234076Y0047939D01*
X0234434Y0048641D01*
X0234677Y0049389D01*
X0234800Y0050166D01*
X0234800Y0050260D01*
X0234783Y0050062D02*
X0235200Y0050062D01*
X0235275Y0049463D02*
X0234689Y0049463D01*
X0234506Y0048865D02*
X0235523Y0048865D01*
X0235771Y0048266D02*
X0234243Y0048266D01*
X0233879Y0047668D02*
X0236187Y0047668D01*
X0236785Y0047069D02*
X0233380Y0047069D01*
X0232678Y0046471D02*
X0237652Y0046471D01*
X0238100Y0045872D02*
X0231553Y0045872D01*
X0230100Y0045872D02*
X0229500Y0045872D01*
X0229500Y0046471D02*
X0230100Y0046471D01*
X0230100Y0047069D02*
X0229500Y0047069D01*
X0229500Y0047668D02*
X0230100Y0047668D01*
X0230100Y0048266D02*
X0229500Y0048266D01*
X0229500Y0048865D02*
X0230100Y0048865D01*
X0230100Y0049463D02*
X0229500Y0049463D01*
X0229500Y0050062D02*
X0230100Y0050062D01*
X0230100Y0051857D02*
X0229500Y0051857D01*
X0229500Y0052456D02*
X0230100Y0052456D01*
X0230100Y0053054D02*
X0229500Y0053054D01*
X0229500Y0053653D02*
X0230100Y0053653D01*
X0230100Y0054251D02*
X0229500Y0054251D01*
X0229500Y0054850D02*
X0230100Y0054850D01*
X0230100Y0055448D02*
X0229500Y0055448D01*
X0229500Y0055560D02*
X0229406Y0055560D01*
X0229500Y0055560D01*
X0229500Y0056047D02*
X0230100Y0056047D01*
X0230100Y0056645D02*
X0229500Y0056645D01*
X0229500Y0057244D02*
X0230100Y0057244D01*
X0230100Y0057842D02*
X0229500Y0057842D01*
X0229500Y0058441D02*
X0230100Y0058441D01*
X0230100Y0059039D02*
X0229500Y0059039D01*
X0229500Y0059638D02*
X0230100Y0059638D01*
X0230100Y0060236D02*
X0229500Y0060236D01*
X0229500Y0060835D02*
X0198000Y0060835D01*
X0198000Y0061433D02*
X0224876Y0061433D01*
X0225021Y0062032D02*
X0198000Y0062032D01*
X0198000Y0062630D02*
X0225243Y0062630D01*
X0225559Y0063229D02*
X0198000Y0063229D01*
X0198000Y0063827D02*
X0225996Y0063827D01*
X0226615Y0064426D02*
X0198000Y0064426D01*
X0198000Y0065025D02*
X0227549Y0065025D01*
X0227301Y0066222D02*
X0198000Y0066222D01*
X0198000Y0066820D02*
X0226469Y0066820D01*
X0225902Y0067419D02*
X0198000Y0067419D01*
X0198000Y0068017D02*
X0225484Y0068017D01*
X0225179Y0068616D02*
X0198000Y0068616D01*
X0198000Y0069214D02*
X0224980Y0069214D01*
X0224856Y0069813D02*
X0198000Y0069813D01*
X0198000Y0070411D02*
X0229500Y0070411D01*
X0229500Y0070260D02*
X0229500Y0070860D01*
X0229500Y0075560D01*
X0229406Y0075560D01*
X0228629Y0075437D01*
X0227881Y0075194D01*
X0227179Y0074836D01*
X0226543Y0074374D01*
X0225986Y0073817D01*
X0225524Y0073181D01*
X0225166Y0072479D01*
X0224923Y0071731D01*
X0224800Y0070953D01*
X0224800Y0070860D01*
X0229500Y0070860D01*
X0230100Y0070860D01*
X0230100Y0075560D01*
X0230194Y0075560D01*
X0230971Y0075437D01*
X0231719Y0075194D01*
X0232421Y0074836D01*
X0233057Y0074374D01*
X0233614Y0073817D01*
X0234076Y0073181D01*
X0234434Y0072479D01*
X0234677Y0071731D01*
X0234800Y0070953D01*
X0234800Y0070860D01*
X0230100Y0070860D01*
X0230100Y0070260D01*
X0234800Y0070260D01*
X0234800Y0070166D01*
X0234677Y0069389D01*
X0234434Y0068641D01*
X0234076Y0067939D01*
X0233614Y0067303D01*
X0233057Y0066746D01*
X0232421Y0066284D01*
X0231719Y0065926D01*
X0230971Y0065683D01*
X0230194Y0065560D01*
X0230100Y0065560D01*
X0230100Y0070260D01*
X0229500Y0070260D01*
X0229500Y0069813D02*
X0230100Y0069813D01*
X0230100Y0070411D02*
X0235200Y0070411D01*
X0235200Y0069813D02*
X0234744Y0069813D01*
X0234620Y0069214D02*
X0235378Y0069214D01*
X0235626Y0068616D02*
X0234421Y0068616D01*
X0234116Y0068017D02*
X0235874Y0068017D01*
X0236436Y0067419D02*
X0233698Y0067419D01*
X0233131Y0066820D02*
X0237035Y0066820D01*
X0238100Y0066222D02*
X0232299Y0066222D01*
X0231719Y0065194D02*
X0230971Y0065437D01*
X0230194Y0065560D01*
X0230100Y0065560D01*
X0230100Y0060860D01*
X0234800Y0060860D01*
X0234800Y0060953D01*
X0234677Y0061731D01*
X0234434Y0062479D01*
X0234076Y0063181D01*
X0233614Y0063817D01*
X0233057Y0064374D01*
X0232421Y0064836D01*
X0231719Y0065194D01*
X0232051Y0065025D02*
X0238100Y0065025D01*
X0238100Y0065623D02*
X0230592Y0065623D01*
X0230100Y0065623D02*
X0229500Y0065623D01*
X0229008Y0065623D02*
X0198000Y0065623D01*
X0194600Y0065623D02*
X0178000Y0065623D01*
X0178000Y0065025D02*
X0185058Y0065025D01*
X0185385Y0065160D02*
X0183694Y0064460D01*
X0182400Y0063166D01*
X0181700Y0061475D01*
X0181700Y0059645D01*
X0182400Y0057954D01*
X0183694Y0056660D01*
X0185385Y0055960D01*
X0187215Y0055960D01*
X0188906Y0056660D01*
X0190200Y0057954D01*
X0190900Y0059645D01*
X0190900Y0061475D01*
X0190200Y0063166D01*
X0188906Y0064460D01*
X0187215Y0065160D01*
X0185385Y0065160D01*
X0183661Y0064426D02*
X0178939Y0064426D01*
X0179538Y0063827D02*
X0183062Y0063827D01*
X0182464Y0063229D02*
X0180136Y0063229D01*
X0180421Y0062630D02*
X0182179Y0062630D01*
X0181931Y0062032D02*
X0180669Y0062032D01*
X0180900Y0061433D02*
X0181700Y0061433D01*
X0181700Y0060835D02*
X0180900Y0060835D01*
X0180900Y0060236D02*
X0181700Y0060236D01*
X0181703Y0059638D02*
X0180897Y0059638D01*
X0180649Y0059039D02*
X0181951Y0059039D01*
X0182199Y0058441D02*
X0180401Y0058441D01*
X0180088Y0057842D02*
X0182512Y0057842D01*
X0183111Y0057244D02*
X0179489Y0057244D01*
X0178870Y0056645D02*
X0183730Y0056645D01*
X0185175Y0056047D02*
X0178000Y0056047D01*
X0174600Y0056047D02*
X0168456Y0056047D01*
X0169418Y0056645D02*
X0173730Y0056645D01*
X0173111Y0057244D02*
X0170055Y0057244D01*
X0170506Y0057842D02*
X0172512Y0057842D01*
X0172199Y0058441D02*
X0170832Y0058441D01*
X0171063Y0059039D02*
X0171951Y0059039D01*
X0171703Y0059638D02*
X0171216Y0059638D01*
X0171300Y0060236D02*
X0171700Y0060236D01*
X0171700Y0060835D02*
X0166600Y0060835D01*
X0166600Y0060860D02*
X0171300Y0060860D01*
X0171300Y0060953D01*
X0171177Y0061731D01*
X0170934Y0062479D01*
X0170576Y0063181D01*
X0170114Y0063817D01*
X0169557Y0064374D01*
X0168921Y0064836D01*
X0168219Y0065194D01*
X0167471Y0065437D01*
X0166694Y0065560D01*
X0166600Y0065560D01*
X0166600Y0060860D01*
X0166600Y0061433D02*
X0166000Y0061433D01*
X0166000Y0060835D02*
X0127438Y0060835D01*
X0127719Y0060926D02*
X0128421Y0061284D01*
X0129057Y0061746D01*
X0129614Y0062303D01*
X0130076Y0062939D01*
X0130434Y0063641D01*
X0130677Y0064389D01*
X0130800Y0065166D01*
X0130800Y0065260D01*
X0126100Y0065260D01*
X0126100Y0065860D01*
X0125500Y0065860D01*
X0125500Y0070560D01*
X0125406Y0070560D01*
X0124629Y0070437D01*
X0123881Y0070194D01*
X0123179Y0069836D01*
X0122543Y0069374D01*
X0121986Y0068817D01*
X0121524Y0068181D01*
X0121166Y0067479D01*
X0120923Y0066731D01*
X0120800Y0065953D01*
X0120800Y0065860D01*
X0125500Y0065860D01*
X0125500Y0065260D01*
X0126100Y0065260D01*
X0126100Y0060560D01*
X0126194Y0060560D01*
X0126971Y0060683D01*
X0127719Y0060926D01*
X0128627Y0061433D02*
X0161376Y0061433D01*
X0161521Y0062032D02*
X0129343Y0062032D01*
X0129852Y0062630D02*
X0161743Y0062630D01*
X0162059Y0063229D02*
X0130224Y0063229D01*
X0130494Y0063827D02*
X0162496Y0063827D01*
X0163115Y0064426D02*
X0130683Y0064426D01*
X0130777Y0065025D02*
X0164049Y0065025D01*
X0166000Y0065025D02*
X0166600Y0065025D01*
X0166600Y0064426D02*
X0166000Y0064426D01*
X0166000Y0063827D02*
X0166600Y0063827D01*
X0166600Y0063229D02*
X0166000Y0063229D01*
X0166000Y0062630D02*
X0166600Y0062630D01*
X0166600Y0062032D02*
X0166000Y0062032D01*
X0166000Y0060236D02*
X0166600Y0060236D01*
X0166600Y0059638D02*
X0166000Y0059638D01*
X0166000Y0059039D02*
X0166600Y0059039D01*
X0166600Y0058441D02*
X0166000Y0058441D01*
X0166000Y0057842D02*
X0166600Y0057842D01*
X0166600Y0057244D02*
X0166000Y0057244D01*
X0166000Y0056645D02*
X0166600Y0056645D01*
X0167398Y0055448D02*
X0174600Y0055448D01*
X0174600Y0054850D02*
X0168894Y0054850D01*
X0169680Y0054251D02*
X0173486Y0054251D01*
X0172887Y0053653D02*
X0170233Y0053653D01*
X0170641Y0053054D02*
X0172354Y0053054D01*
X0172106Y0052456D02*
X0170941Y0052456D01*
X0171136Y0051857D02*
X0171858Y0051857D01*
X0171700Y0051259D02*
X0171252Y0051259D01*
X0164144Y0056047D02*
X0086285Y0056047D01*
X0086190Y0056645D02*
X0163181Y0056645D01*
X0162545Y0057244D02*
X0086010Y0057244D01*
X0085749Y0057842D02*
X0162094Y0057842D01*
X0161768Y0058441D02*
X0085387Y0058441D01*
X0084892Y0059039D02*
X0161537Y0059039D01*
X0161384Y0059638D02*
X0084194Y0059638D01*
X0083088Y0060236D02*
X0161300Y0060236D01*
X0168551Y0065025D02*
X0174600Y0065025D01*
X0174600Y0065623D02*
X0126100Y0065623D01*
X0126100Y0065860D02*
X0130800Y0065860D01*
X0130800Y0065953D01*
X0130677Y0066731D01*
X0130434Y0067479D01*
X0130076Y0068181D01*
X0129614Y0068817D01*
X0129057Y0069374D01*
X0128421Y0069836D01*
X0127719Y0070194D01*
X0126971Y0070437D01*
X0126194Y0070560D01*
X0126100Y0070560D01*
X0126100Y0065860D01*
X0126100Y0066222D02*
X0125500Y0066222D01*
X0125500Y0066820D02*
X0126100Y0066820D01*
X0126100Y0067419D02*
X0125500Y0067419D01*
X0125500Y0068017D02*
X0126100Y0068017D01*
X0126100Y0068616D02*
X0125500Y0068616D01*
X0125500Y0069214D02*
X0126100Y0069214D01*
X0126100Y0069813D02*
X0125500Y0069813D01*
X0125500Y0070411D02*
X0126100Y0070411D01*
X0127050Y0070411D02*
X0174600Y0070411D01*
X0174600Y0069813D02*
X0128453Y0069813D01*
X0129217Y0069214D02*
X0174600Y0069214D01*
X0174600Y0068616D02*
X0129760Y0068616D01*
X0130160Y0068017D02*
X0174600Y0068017D01*
X0174600Y0067419D02*
X0130453Y0067419D01*
X0130648Y0066820D02*
X0174600Y0066820D01*
X0174600Y0066222D02*
X0130758Y0066222D01*
X0126100Y0065025D02*
X0125500Y0065025D01*
X0125500Y0065623D02*
X0120400Y0065623D01*
X0120400Y0065025D02*
X0120822Y0065025D01*
X0120917Y0064426D02*
X0120309Y0064426D01*
X0120061Y0063827D02*
X0121106Y0063827D01*
X0121376Y0063229D02*
X0119813Y0063229D01*
X0119376Y0062630D02*
X0121748Y0062630D01*
X0122257Y0062032D02*
X0118777Y0062032D01*
X0120400Y0066222D02*
X0120842Y0066222D01*
X0120952Y0066820D02*
X0120257Y0066820D01*
X0120009Y0067419D02*
X0121147Y0067419D01*
X0121440Y0068017D02*
X0119761Y0068017D01*
X0119250Y0068616D02*
X0121840Y0068616D01*
X0122383Y0069214D02*
X0118651Y0069214D01*
X0117554Y0069813D02*
X0123147Y0069813D01*
X0124550Y0070411D02*
X0117500Y0070411D01*
X0117500Y0071010D02*
X0174600Y0071010D01*
X0174600Y0071608D02*
X0117500Y0071608D01*
X0117500Y0072207D02*
X0174600Y0072207D01*
X0174600Y0072805D02*
X0117500Y0072805D01*
X0117500Y0073404D02*
X0174600Y0073404D01*
X0174600Y0074002D02*
X0117500Y0074002D01*
X0117500Y0074601D02*
X0174600Y0074601D01*
X0174600Y0075199D02*
X0117500Y0075199D01*
X0117500Y0075798D02*
X0174600Y0075798D01*
X0174600Y0076396D02*
X0117500Y0076396D01*
X0117500Y0076995D02*
X0174600Y0076995D01*
X0174600Y0077593D02*
X0117500Y0077593D01*
X0117500Y0078192D02*
X0124602Y0078192D01*
X0124629Y0078183D02*
X0125406Y0078060D01*
X0125500Y0078060D01*
X0125500Y0082760D01*
X0120800Y0082760D01*
X0120800Y0082666D01*
X0120923Y0081889D01*
X0121166Y0081141D01*
X0121524Y0080439D01*
X0121986Y0079803D01*
X0122543Y0079246D01*
X0123179Y0078784D01*
X0123881Y0078426D01*
X0124629Y0078183D01*
X0125500Y0078192D02*
X0126100Y0078192D01*
X0126100Y0078060D02*
X0126194Y0078060D01*
X0126971Y0078183D01*
X0127719Y0078426D01*
X0128421Y0078784D01*
X0129057Y0079246D01*
X0129614Y0079803D01*
X0130076Y0080439D01*
X0130434Y0081141D01*
X0130677Y0081889D01*
X0130800Y0082666D01*
X0130800Y0082760D01*
X0126100Y0082760D01*
X0126100Y0083360D01*
X0125500Y0083360D01*
X0125500Y0088060D01*
X0125406Y0088060D01*
X0124629Y0087937D01*
X0123881Y0087694D01*
X0123179Y0087336D01*
X0122543Y0086874D01*
X0121986Y0086317D01*
X0121524Y0085681D01*
X0121166Y0084979D01*
X0120923Y0084231D01*
X0120800Y0083453D01*
X0120800Y0083360D01*
X0125500Y0083360D01*
X0125500Y0082760D01*
X0126100Y0082760D01*
X0126100Y0078060D01*
X0126100Y0078790D02*
X0125500Y0078790D01*
X0125500Y0079389D02*
X0126100Y0079389D01*
X0126100Y0079987D02*
X0125500Y0079987D01*
X0125500Y0080586D02*
X0126100Y0080586D01*
X0126100Y0081184D02*
X0125500Y0081184D01*
X0125500Y0081783D02*
X0126100Y0081783D01*
X0126100Y0082381D02*
X0125500Y0082381D01*
X0125500Y0082980D02*
X0120400Y0082980D01*
X0120400Y0083578D02*
X0120820Y0083578D01*
X0120915Y0084177D02*
X0120316Y0084177D01*
X0120068Y0084775D02*
X0121100Y0084775D01*
X0121367Y0085374D02*
X0119821Y0085374D01*
X0119393Y0085972D02*
X0121736Y0085972D01*
X0122240Y0086571D02*
X0118794Y0086571D01*
X0117899Y0087169D02*
X0122950Y0087169D01*
X0124109Y0087768D02*
X0117000Y0087768D01*
X0117000Y0088366D02*
X0162159Y0088366D01*
X0162024Y0088181D02*
X0161666Y0087479D01*
X0161423Y0086731D01*
X0161300Y0085953D01*
X0161300Y0085860D01*
X0166000Y0085860D01*
X0166000Y0090560D01*
X0166000Y0095260D01*
X0161300Y0095260D01*
X0161300Y0095166D01*
X0161423Y0094389D01*
X0161666Y0093641D01*
X0162024Y0092939D01*
X0162486Y0092303D01*
X0163043Y0091746D01*
X0163679Y0091284D01*
X0164381Y0090926D01*
X0165129Y0090683D01*
X0165906Y0090560D01*
X0165129Y0090437D01*
X0164381Y0090194D01*
X0163679Y0089836D01*
X0163043Y0089374D01*
X0162486Y0088817D01*
X0162024Y0088181D01*
X0161813Y0087768D02*
X0127491Y0087768D01*
X0127719Y0087694D02*
X0126971Y0087937D01*
X0126194Y0088060D01*
X0126100Y0088060D01*
X0126100Y0083360D01*
X0130800Y0083360D01*
X0130800Y0083453D01*
X0130677Y0084231D01*
X0130434Y0084979D01*
X0130076Y0085681D01*
X0129614Y0086317D01*
X0129057Y0086874D01*
X0128421Y0087336D01*
X0127719Y0087694D01*
X0128650Y0087169D02*
X0161566Y0087169D01*
X0161398Y0086571D02*
X0129360Y0086571D01*
X0129864Y0085972D02*
X0161303Y0085972D01*
X0161300Y0085260D02*
X0161300Y0085166D01*
X0161423Y0084389D01*
X0161666Y0083641D01*
X0162024Y0082939D01*
X0162486Y0082303D01*
X0163043Y0081746D01*
X0163679Y0081284D01*
X0164381Y0080926D01*
X0165129Y0080683D01*
X0165906Y0080560D01*
X0166000Y0080560D01*
X0166000Y0085260D01*
X0161300Y0085260D01*
X0161362Y0084775D02*
X0130500Y0084775D01*
X0130685Y0084177D02*
X0161492Y0084177D01*
X0161698Y0083578D02*
X0130780Y0083578D01*
X0130755Y0082381D02*
X0162429Y0082381D01*
X0162003Y0082980D02*
X0126100Y0082980D01*
X0126100Y0083578D02*
X0125500Y0083578D01*
X0125500Y0084177D02*
X0126100Y0084177D01*
X0126100Y0084775D02*
X0125500Y0084775D01*
X0125500Y0085374D02*
X0126100Y0085374D01*
X0126100Y0085972D02*
X0125500Y0085972D01*
X0125500Y0086571D02*
X0126100Y0086571D01*
X0126100Y0087169D02*
X0125500Y0087169D01*
X0125500Y0087768D02*
X0126100Y0087768D01*
X0130233Y0085374D02*
X0166000Y0085374D01*
X0166000Y0085260D02*
X0166000Y0085860D01*
X0166600Y0085860D01*
X0166600Y0090560D01*
X0166694Y0090560D01*
X0166600Y0090560D01*
X0166600Y0095260D01*
X0166600Y0095860D01*
X0166000Y0095860D01*
X0166000Y0095260D01*
X0166600Y0095260D01*
X0171300Y0095260D01*
X0171300Y0095166D01*
X0171177Y0094389D01*
X0170934Y0093641D01*
X0170576Y0092939D01*
X0170114Y0092303D01*
X0169557Y0091746D01*
X0168921Y0091284D01*
X0168219Y0090926D01*
X0167471Y0090683D01*
X0166694Y0090560D01*
X0167471Y0090437D01*
X0168219Y0090194D01*
X0168921Y0089836D01*
X0169557Y0089374D01*
X0170114Y0088817D01*
X0170576Y0088181D01*
X0170934Y0087479D01*
X0171177Y0086731D01*
X0171300Y0085953D01*
X0171300Y0085860D01*
X0166600Y0085860D01*
X0166600Y0085260D01*
X0171300Y0085260D01*
X0171300Y0085166D01*
X0171177Y0084389D01*
X0170934Y0083641D01*
X0170576Y0082939D01*
X0170114Y0082303D01*
X0169557Y0081746D01*
X0168921Y0081284D01*
X0168219Y0080926D01*
X0167471Y0080683D01*
X0166694Y0080560D01*
X0166600Y0080560D01*
X0166600Y0085260D01*
X0166000Y0085260D01*
X0166000Y0084775D02*
X0166600Y0084775D01*
X0166600Y0084177D02*
X0166000Y0084177D01*
X0166000Y0083578D02*
X0166600Y0083578D01*
X0166600Y0082980D02*
X0166000Y0082980D01*
X0166000Y0082381D02*
X0166600Y0082381D01*
X0166600Y0081783D02*
X0166000Y0081783D01*
X0166000Y0081184D02*
X0166600Y0081184D01*
X0166600Y0080586D02*
X0166000Y0080586D01*
X0165743Y0080586D02*
X0130151Y0080586D01*
X0130448Y0081184D02*
X0163874Y0081184D01*
X0163006Y0081783D02*
X0130642Y0081783D01*
X0129748Y0079987D02*
X0174600Y0079987D01*
X0174600Y0079389D02*
X0129200Y0079389D01*
X0128430Y0078790D02*
X0174600Y0078790D01*
X0174600Y0078192D02*
X0126997Y0078192D01*
X0123170Y0078790D02*
X0117512Y0078790D01*
X0118634Y0079389D02*
X0122400Y0079389D01*
X0121852Y0079987D02*
X0119233Y0079987D01*
X0119754Y0080586D02*
X0121449Y0080586D01*
X0121152Y0081184D02*
X0120002Y0081184D01*
X0120250Y0081783D02*
X0120958Y0081783D01*
X0120845Y0082381D02*
X0120400Y0082381D01*
X0114088Y0078790D02*
X0084575Y0078790D01*
X0085174Y0078192D02*
X0114100Y0078192D01*
X0114100Y0077593D02*
X0085437Y0077593D01*
X0085685Y0076995D02*
X0114100Y0076995D01*
X0114100Y0076396D02*
X0085900Y0076396D01*
X0085900Y0075798D02*
X0114100Y0075798D01*
X0114100Y0075199D02*
X0085900Y0075199D01*
X0085882Y0074601D02*
X0114100Y0074601D01*
X0114100Y0074002D02*
X0085634Y0074002D01*
X0085386Y0073404D02*
X0114100Y0073404D01*
X0114100Y0072805D02*
X0085051Y0072805D01*
X0084452Y0072207D02*
X0114100Y0072207D01*
X0114100Y0071608D02*
X0083780Y0071608D01*
X0080265Y0071010D02*
X0066516Y0071010D01*
X0067115Y0071608D02*
X0078820Y0071608D01*
X0078148Y0072207D02*
X0067713Y0072207D01*
X0068312Y0072805D02*
X0077549Y0072805D01*
X0077214Y0073404D02*
X0068910Y0073404D01*
X0069509Y0074002D02*
X0076966Y0074002D01*
X0076718Y0074601D02*
X0070107Y0074601D01*
X0070706Y0075199D02*
X0076700Y0075199D01*
X0076700Y0075798D02*
X0071304Y0075798D01*
X0071903Y0076396D02*
X0076700Y0076396D01*
X0076915Y0076995D02*
X0072501Y0076995D01*
X0073100Y0077593D02*
X0077163Y0077593D01*
X0077426Y0078192D02*
X0073698Y0078192D01*
X0074297Y0078790D02*
X0078025Y0078790D01*
X0078623Y0079389D02*
X0074895Y0079389D01*
X0075494Y0079987D02*
X0079968Y0079987D01*
X0079843Y0081184D02*
X0076691Y0081184D01*
X0076092Y0080586D02*
X0111846Y0080586D01*
X0111598Y0081184D02*
X0082757Y0081184D01*
X0082632Y0079987D02*
X0112367Y0079987D01*
X0112966Y0079389D02*
X0083977Y0079389D01*
X0084028Y0081783D02*
X0111350Y0081783D01*
X0111200Y0082381D02*
X0084627Y0082381D01*
X0085210Y0082980D02*
X0111200Y0082980D01*
X0111200Y0083578D02*
X0085458Y0083578D01*
X0085706Y0084177D02*
X0111284Y0084177D01*
X0111532Y0084775D02*
X0085900Y0084775D01*
X0085900Y0085374D02*
X0111779Y0085374D01*
X0112207Y0085972D02*
X0085900Y0085972D01*
X0085860Y0086571D02*
X0112806Y0086571D01*
X0113600Y0087169D02*
X0085612Y0087169D01*
X0085364Y0087768D02*
X0113600Y0087768D01*
X0113600Y0088366D02*
X0084999Y0088366D01*
X0084400Y0088965D02*
X0113600Y0088965D01*
X0113600Y0089563D02*
X0083655Y0089563D01*
X0083178Y0091359D02*
X0113600Y0091359D01*
X0113600Y0090761D02*
X0077900Y0090761D01*
X0077900Y0091359D02*
X0079422Y0091359D01*
X0078397Y0091958D02*
X0077900Y0091958D01*
X0077900Y0090162D02*
X0113600Y0090162D01*
X0113600Y0091958D02*
X0084203Y0091958D01*
X0084801Y0092556D02*
X0113600Y0092556D01*
X0113600Y0093155D02*
X0085283Y0093155D01*
X0085531Y0093753D02*
X0113600Y0093753D01*
X0112503Y0094352D02*
X0085778Y0094352D01*
X0085900Y0094950D02*
X0111905Y0094950D01*
X0111361Y0095549D02*
X0085900Y0095549D01*
X0085900Y0096147D02*
X0111113Y0096147D01*
X0110865Y0096746D02*
X0085788Y0096746D01*
X0085540Y0097344D02*
X0110700Y0097344D01*
X0110700Y0097943D02*
X0085292Y0097943D01*
X0084824Y0098541D02*
X0110700Y0098541D01*
X0110768Y0099140D02*
X0084226Y0099140D01*
X0083233Y0099738D02*
X0111016Y0099738D01*
X0110619Y0100337D02*
X0077900Y0100337D01*
X0077900Y0100935D02*
X0110021Y0100935D01*
X0109422Y0101534D02*
X0083600Y0101534D01*
X0084378Y0102132D02*
X0108824Y0102132D01*
X0108225Y0102731D02*
X0084976Y0102731D01*
X0085355Y0103329D02*
X0107627Y0103329D01*
X0107028Y0103928D02*
X0085603Y0103928D01*
X0085851Y0104526D02*
X0106430Y0104526D01*
X0105831Y0105125D02*
X0085900Y0105125D01*
X0085900Y0105723D02*
X0105233Y0105723D01*
X0104634Y0106322D02*
X0085900Y0106322D01*
X0085716Y0106920D02*
X0104036Y0106920D01*
X0103437Y0107519D02*
X0085468Y0107519D01*
X0085220Y0108117D02*
X0102838Y0108117D01*
X0102240Y0108716D02*
X0084650Y0108716D01*
X0084051Y0109314D02*
X0101641Y0109314D01*
X0101043Y0109913D02*
X0082812Y0109913D01*
X0082577Y0111110D02*
X0099846Y0111110D01*
X0099247Y0111708D02*
X0083954Y0111708D01*
X0084552Y0112307D02*
X0098649Y0112307D01*
X0098050Y0112905D02*
X0085151Y0112905D01*
X0085427Y0113504D02*
X0097452Y0113504D01*
X0096853Y0114102D02*
X0085675Y0114102D01*
X0085900Y0114701D02*
X0096255Y0114701D01*
X0095656Y0115299D02*
X0085900Y0115299D01*
X0085900Y0115898D02*
X0095058Y0115898D01*
X0094459Y0116496D02*
X0085891Y0116496D01*
X0085643Y0117095D02*
X0093861Y0117095D01*
X0093262Y0117694D02*
X0085395Y0117694D01*
X0085073Y0118292D02*
X0092664Y0118292D01*
X0092065Y0118891D02*
X0084475Y0118891D01*
X0083835Y0119489D02*
X0091467Y0119489D01*
X0090868Y0120088D02*
X0082390Y0120088D01*
X0082999Y0121285D02*
X0089671Y0121285D01*
X0089600Y0121883D02*
X0084128Y0121883D01*
X0084727Y0122482D02*
X0089600Y0122482D01*
X0089600Y0123080D02*
X0085252Y0123080D01*
X0085500Y0123679D02*
X0089600Y0123679D01*
X0089600Y0124277D02*
X0085748Y0124277D01*
X0085900Y0124876D02*
X0089600Y0124876D01*
X0089600Y0125474D02*
X0085900Y0125474D01*
X0085900Y0126073D02*
X0089600Y0126073D01*
X0089600Y0126671D02*
X0085819Y0126671D01*
X0085571Y0127270D02*
X0089600Y0127270D01*
X0089600Y0127868D02*
X0085323Y0127868D01*
X0084899Y0128467D02*
X0089600Y0128467D01*
X0089600Y0129065D02*
X0084300Y0129065D01*
X0083413Y0129664D02*
X0089600Y0129664D01*
X0089600Y0130262D02*
X0077900Y0130262D01*
X0077900Y0129664D02*
X0079187Y0129664D01*
X0078300Y0129065D02*
X0077900Y0129065D01*
X0077900Y0130861D02*
X0089600Y0130861D01*
X0089600Y0131459D02*
X0083420Y0131459D01*
X0084303Y0132058D02*
X0089600Y0132058D01*
X0089600Y0132656D02*
X0084902Y0132656D01*
X0085324Y0133255D02*
X0089600Y0133255D01*
X0089600Y0133853D02*
X0085572Y0133853D01*
X0085820Y0134452D02*
X0089600Y0134452D01*
X0089505Y0135050D02*
X0085900Y0135050D01*
X0085900Y0135649D02*
X0088907Y0135649D01*
X0088308Y0136247D02*
X0085900Y0136247D01*
X0085746Y0136846D02*
X0087710Y0136846D01*
X0087111Y0137444D02*
X0085498Y0137444D01*
X0085251Y0138043D02*
X0086513Y0138043D01*
X0085914Y0138641D02*
X0084724Y0138641D01*
X0088329Y0141035D02*
X0111367Y0141035D01*
X0111400Y0140954D02*
X0112694Y0139660D01*
X0114385Y0138960D01*
X0116215Y0138960D01*
X0117906Y0139660D01*
X0119200Y0140954D01*
X0119900Y0142645D01*
X0119900Y0144475D01*
X0119200Y0146166D01*
X0117906Y0147460D01*
X0116215Y0148160D01*
X0114385Y0148160D01*
X0112694Y0147460D01*
X0111400Y0146166D01*
X0110700Y0144475D01*
X0110700Y0142645D01*
X0111400Y0140954D01*
X0111918Y0140437D02*
X0088927Y0140437D01*
X0089526Y0139838D02*
X0112516Y0139838D01*
X0113709Y0139240D02*
X0090124Y0139240D01*
X0090723Y0138641D02*
X0124392Y0138641D01*
X0124129Y0138683D02*
X0124906Y0138560D01*
X0125000Y0138560D01*
X0125000Y0143260D01*
X0120300Y0143260D01*
X0120300Y0143166D01*
X0120423Y0142389D01*
X0120666Y0141641D01*
X0121024Y0140939D01*
X0121486Y0140303D01*
X0122043Y0139746D01*
X0122679Y0139284D01*
X0123381Y0138926D01*
X0124129Y0138683D01*
X0125000Y0138641D02*
X0125600Y0138641D01*
X0125600Y0138560D02*
X0125694Y0138560D01*
X0126471Y0138683D01*
X0127219Y0138926D01*
X0127921Y0139284D01*
X0128557Y0139746D01*
X0129114Y0140303D01*
X0129576Y0140939D01*
X0129934Y0141641D01*
X0130177Y0142389D01*
X0130300Y0143166D01*
X0130300Y0143260D01*
X0125600Y0143260D01*
X0125600Y0143860D01*
X0125000Y0143860D01*
X0125000Y0148560D01*
X0124906Y0148560D01*
X0124129Y0148437D01*
X0123381Y0148194D01*
X0122679Y0147836D01*
X0122043Y0147374D01*
X0121486Y0146817D01*
X0121024Y0146181D01*
X0120666Y0145479D01*
X0120423Y0144731D01*
X0120300Y0143953D01*
X0120300Y0143860D01*
X0125000Y0143860D01*
X0125000Y0143260D01*
X0125600Y0143260D01*
X0125600Y0138560D01*
X0126208Y0138641D02*
X0264526Y0138641D01*
X0264527Y0138043D02*
X0173015Y0138043D01*
X0172719Y0138194D02*
X0171971Y0138437D01*
X0171194Y0138560D01*
X0171100Y0138560D01*
X0171100Y0133860D01*
X0170500Y0133860D01*
X0170500Y0138560D01*
X0170406Y0138560D01*
X0169629Y0138437D01*
X0168881Y0138194D01*
X0168179Y0137836D01*
X0167543Y0137374D01*
X0166986Y0136817D01*
X0166524Y0136181D01*
X0166166Y0135479D01*
X0165923Y0134731D01*
X0165800Y0133953D01*
X0165800Y0133860D01*
X0170500Y0133860D01*
X0170500Y0133260D01*
X0165800Y0133260D01*
X0165800Y0133166D01*
X0165923Y0132389D01*
X0166166Y0131641D01*
X0166524Y0130939D01*
X0166986Y0130303D01*
X0167543Y0129746D01*
X0168179Y0129284D01*
X0168881Y0128926D01*
X0169629Y0128683D01*
X0170406Y0128560D01*
X0170500Y0128560D01*
X0170500Y0133260D01*
X0171100Y0133260D01*
X0171100Y0133860D01*
X0175800Y0133860D01*
X0175800Y0133953D01*
X0175677Y0134731D01*
X0175434Y0135479D01*
X0175076Y0136181D01*
X0174614Y0136817D01*
X0174057Y0137374D01*
X0173421Y0137836D01*
X0172719Y0138194D01*
X0173960Y0137444D02*
X0264529Y0137444D01*
X0264531Y0136846D02*
X0174585Y0136846D01*
X0175028Y0136247D02*
X0264533Y0136247D01*
X0264535Y0135649D02*
X0242242Y0135649D01*
X0242215Y0135660D02*
X0240385Y0135660D01*
X0238694Y0134960D01*
X0237400Y0133666D01*
X0236700Y0131975D01*
X0236700Y0130145D01*
X0237400Y0128454D01*
X0238694Y0127160D01*
X0240385Y0126460D01*
X0242215Y0126460D01*
X0243906Y0127160D01*
X0245200Y0128454D01*
X0245900Y0130145D01*
X0245900Y0131975D01*
X0245200Y0133666D01*
X0243906Y0134960D01*
X0242215Y0135660D01*
X0243687Y0135050D02*
X0264536Y0135050D01*
X0264538Y0134452D02*
X0244414Y0134452D01*
X0245012Y0133853D02*
X0264540Y0133853D01*
X0264542Y0133255D02*
X0245370Y0133255D01*
X0245618Y0132656D02*
X0264543Y0132656D01*
X0264545Y0132058D02*
X0245866Y0132058D01*
X0245900Y0131459D02*
X0264547Y0131459D01*
X0264549Y0130861D02*
X0245900Y0130861D01*
X0245900Y0130262D02*
X0264551Y0130262D01*
X0264552Y0129664D02*
X0245701Y0129664D01*
X0245453Y0129065D02*
X0264554Y0129065D01*
X0264556Y0128467D02*
X0245205Y0128467D01*
X0244614Y0127868D02*
X0264558Y0127868D01*
X0264559Y0127270D02*
X0244015Y0127270D01*
X0242725Y0126671D02*
X0264561Y0126671D01*
X0264563Y0126073D02*
X0153191Y0126073D01*
X0152593Y0126671D02*
X0229875Y0126671D01*
X0230385Y0126460D02*
X0232215Y0126460D01*
X0233906Y0127160D01*
X0235200Y0128454D01*
X0235900Y0130145D01*
X0235900Y0131975D01*
X0235200Y0133666D01*
X0233906Y0134960D01*
X0232215Y0135660D01*
X0230385Y0135660D01*
X0228694Y0134960D01*
X0227400Y0133666D01*
X0226700Y0131975D01*
X0226700Y0130145D01*
X0227400Y0128454D01*
X0228694Y0127160D01*
X0230385Y0126460D01*
X0228585Y0127270D02*
X0151994Y0127270D01*
X0151396Y0127868D02*
X0227986Y0127868D01*
X0227395Y0128467D02*
X0151611Y0128467D01*
X0152209Y0129065D02*
X0159631Y0129065D01*
X0158191Y0129664D02*
X0152808Y0129664D01*
X0153406Y0130262D02*
X0157592Y0130262D01*
X0156994Y0130861D02*
X0154005Y0130861D01*
X0154603Y0131459D02*
X0156691Y0131459D01*
X0156686Y0135649D02*
X0143615Y0135649D01*
X0143017Y0136247D02*
X0156982Y0136247D01*
X0157581Y0136846D02*
X0142418Y0136846D01*
X0144214Y0135050D02*
X0153386Y0135050D01*
X0152788Y0134452D02*
X0144812Y0134452D01*
X0145411Y0133853D02*
X0152189Y0133853D01*
X0151591Y0133255D02*
X0146009Y0133255D01*
X0146608Y0132656D02*
X0150992Y0132656D01*
X0150394Y0132058D02*
X0147206Y0132058D01*
X0147805Y0131459D02*
X0149795Y0131459D01*
X0149197Y0130861D02*
X0148403Y0130861D01*
X0145989Y0128467D02*
X0140268Y0128467D01*
X0140300Y0128666D02*
X0140300Y0128760D01*
X0135600Y0128760D01*
X0135600Y0124060D01*
X0135694Y0124060D01*
X0136471Y0124183D01*
X0137219Y0124426D01*
X0137921Y0124784D01*
X0138557Y0125246D01*
X0139114Y0125803D01*
X0139576Y0126439D01*
X0139934Y0127141D01*
X0140177Y0127889D01*
X0140300Y0128666D01*
X0140170Y0127868D02*
X0146588Y0127868D01*
X0147186Y0127270D02*
X0139976Y0127270D01*
X0139694Y0126671D02*
X0147785Y0126671D01*
X0148383Y0126073D02*
X0139310Y0126073D01*
X0138785Y0125474D02*
X0148982Y0125474D01*
X0149580Y0124876D02*
X0138047Y0124876D01*
X0136760Y0124277D02*
X0150179Y0124277D01*
X0150777Y0123679D02*
X0127000Y0123679D01*
X0127000Y0124277D02*
X0133840Y0124277D01*
X0135000Y0124277D02*
X0135600Y0124277D01*
X0135600Y0124876D02*
X0135000Y0124876D01*
X0135000Y0125474D02*
X0135600Y0125474D01*
X0135600Y0126073D02*
X0135000Y0126073D01*
X0135000Y0126671D02*
X0135600Y0126671D01*
X0135600Y0127270D02*
X0135000Y0127270D01*
X0135000Y0127868D02*
X0135600Y0127868D01*
X0135600Y0128467D02*
X0135000Y0128467D01*
X0135000Y0129065D02*
X0129900Y0129065D01*
X0129900Y0128467D02*
X0130332Y0128467D01*
X0130430Y0127868D02*
X0129785Y0127868D01*
X0129537Y0127270D02*
X0130624Y0127270D01*
X0130906Y0126671D02*
X0129290Y0126671D01*
X0128818Y0126073D02*
X0131290Y0126073D01*
X0131815Y0125474D02*
X0128220Y0125474D01*
X0127218Y0124876D02*
X0132553Y0124876D01*
X0135600Y0129065D02*
X0145391Y0129065D01*
X0144792Y0129664D02*
X0140267Y0129664D01*
X0140167Y0130262D02*
X0144194Y0130262D01*
X0143595Y0130861D02*
X0139972Y0130861D01*
X0139689Y0131459D02*
X0142997Y0131459D01*
X0142398Y0132058D02*
X0139302Y0132058D01*
X0138775Y0132656D02*
X0141800Y0132656D01*
X0141201Y0133255D02*
X0138033Y0133255D01*
X0136728Y0133853D02*
X0140602Y0133853D01*
X0133872Y0133853D02*
X0093000Y0133853D01*
X0093000Y0133255D02*
X0113407Y0133255D01*
X0112694Y0132960D02*
X0111400Y0131666D01*
X0110700Y0129975D01*
X0110700Y0128145D01*
X0111400Y0126454D01*
X0112694Y0125160D01*
X0114385Y0124460D01*
X0116215Y0124460D01*
X0117906Y0125160D01*
X0119200Y0126454D01*
X0119900Y0128145D01*
X0119900Y0129975D01*
X0119200Y0131666D01*
X0117906Y0132960D01*
X0116215Y0133660D01*
X0114385Y0133660D01*
X0112694Y0132960D01*
X0112391Y0132656D02*
X0093000Y0132656D01*
X0093000Y0132058D02*
X0111792Y0132058D01*
X0111315Y0131459D02*
X0093000Y0131459D01*
X0093000Y0130861D02*
X0111067Y0130861D01*
X0110819Y0130262D02*
X0093000Y0130262D01*
X0093000Y0129664D02*
X0110700Y0129664D01*
X0110700Y0129065D02*
X0093000Y0129065D01*
X0093000Y0128467D02*
X0110700Y0128467D01*
X0110815Y0127868D02*
X0093000Y0127868D01*
X0093000Y0127270D02*
X0111063Y0127270D01*
X0111310Y0126671D02*
X0093000Y0126671D01*
X0093000Y0126073D02*
X0111782Y0126073D01*
X0112380Y0125474D02*
X0093000Y0125474D01*
X0093000Y0124876D02*
X0113381Y0124876D01*
X0117218Y0124876D02*
X0123381Y0124876D01*
X0123600Y0124277D02*
X0093000Y0124277D01*
X0093000Y0123679D02*
X0123600Y0123679D01*
X0123600Y0123080D02*
X0093000Y0123080D01*
X0093283Y0122482D02*
X0123600Y0122482D01*
X0123600Y0121883D02*
X0093881Y0121883D01*
X0094480Y0121285D02*
X0123600Y0121285D01*
X0123600Y0120686D02*
X0095078Y0120686D01*
X0095677Y0120088D02*
X0123600Y0120088D01*
X0123600Y0119489D02*
X0096275Y0119489D01*
X0096874Y0118891D02*
X0123600Y0118891D01*
X0123600Y0118292D02*
X0097472Y0118292D01*
X0098071Y0117694D02*
X0113259Y0117694D01*
X0112694Y0117460D02*
X0111400Y0116166D01*
X0110700Y0114475D01*
X0110700Y0112645D01*
X0111400Y0110954D01*
X0112694Y0109660D01*
X0114385Y0108960D01*
X0116215Y0108960D01*
X0117906Y0109660D01*
X0119200Y0110954D01*
X0119900Y0112645D01*
X0119900Y0114475D01*
X0119200Y0116166D01*
X0117906Y0117460D01*
X0116215Y0118160D01*
X0114385Y0118160D01*
X0112694Y0117460D01*
X0112330Y0117095D02*
X0098669Y0117095D01*
X0099268Y0116496D02*
X0111731Y0116496D01*
X0111289Y0115898D02*
X0099866Y0115898D01*
X0100465Y0115299D02*
X0111042Y0115299D01*
X0110794Y0114701D02*
X0101063Y0114701D01*
X0101662Y0114102D02*
X0110700Y0114102D01*
X0110700Y0113504D02*
X0102260Y0113504D01*
X0102859Y0112905D02*
X0110700Y0112905D01*
X0110840Y0112307D02*
X0103457Y0112307D01*
X0104056Y0111708D02*
X0111088Y0111708D01*
X0111336Y0111110D02*
X0104654Y0111110D01*
X0105253Y0110511D02*
X0111843Y0110511D01*
X0112442Y0109913D02*
X0105851Y0109913D01*
X0106450Y0109314D02*
X0113529Y0109314D01*
X0117071Y0109314D02*
X0123529Y0109314D01*
X0122442Y0109913D02*
X0118158Y0109913D01*
X0118757Y0110511D02*
X0121843Y0110511D01*
X0121336Y0111110D02*
X0119264Y0111110D01*
X0119512Y0111708D02*
X0121088Y0111708D01*
X0120840Y0112307D02*
X0119760Y0112307D01*
X0119900Y0112905D02*
X0120700Y0112905D01*
X0120700Y0113504D02*
X0119900Y0113504D01*
X0119900Y0114102D02*
X0120700Y0114102D01*
X0120794Y0114701D02*
X0119806Y0114701D01*
X0119558Y0115299D02*
X0121042Y0115299D01*
X0121289Y0115898D02*
X0119311Y0115898D01*
X0118869Y0116496D02*
X0121731Y0116496D01*
X0122330Y0117095D02*
X0118270Y0117095D01*
X0117341Y0117694D02*
X0123259Y0117694D01*
X0127000Y0118292D02*
X0133683Y0118292D01*
X0135000Y0118292D02*
X0135600Y0118292D01*
X0135600Y0118560D02*
X0135600Y0113860D01*
X0140300Y0113860D01*
X0140300Y0113953D01*
X0140177Y0114731D01*
X0139934Y0115479D01*
X0139576Y0116181D01*
X0139114Y0116817D01*
X0138557Y0117374D01*
X0137921Y0117836D01*
X0137219Y0118194D01*
X0136471Y0118437D01*
X0135694Y0118560D01*
X0135600Y0118560D01*
X0135600Y0117694D02*
X0135000Y0117694D01*
X0135000Y0117095D02*
X0135600Y0117095D01*
X0135600Y0116496D02*
X0135000Y0116496D01*
X0135000Y0115898D02*
X0135600Y0115898D01*
X0135600Y0115299D02*
X0135000Y0115299D01*
X0135000Y0114701D02*
X0135600Y0114701D01*
X0135600Y0114102D02*
X0135000Y0114102D01*
X0135000Y0113504D02*
X0129900Y0113504D01*
X0129900Y0114102D02*
X0130324Y0114102D01*
X0130418Y0114701D02*
X0129806Y0114701D01*
X0129558Y0115299D02*
X0130608Y0115299D01*
X0130880Y0115898D02*
X0129311Y0115898D01*
X0128869Y0116496D02*
X0131253Y0116496D01*
X0131764Y0117095D02*
X0128270Y0117095D01*
X0127341Y0117694D02*
X0132483Y0117694D01*
X0136917Y0118292D02*
X0156164Y0118292D01*
X0156762Y0117694D02*
X0138117Y0117694D01*
X0138836Y0117095D02*
X0157361Y0117095D01*
X0157959Y0116496D02*
X0139347Y0116496D01*
X0139720Y0115898D02*
X0158558Y0115898D01*
X0159156Y0115299D02*
X0139992Y0115299D01*
X0140182Y0114701D02*
X0159755Y0114701D01*
X0160353Y0114102D02*
X0140276Y0114102D01*
X0140259Y0112905D02*
X0186550Y0112905D01*
X0187149Y0112307D02*
X0171957Y0112307D01*
X0172556Y0111708D02*
X0187747Y0111708D01*
X0188346Y0111110D02*
X0173154Y0111110D01*
X0173753Y0110511D02*
X0188944Y0110511D01*
X0189543Y0109913D02*
X0187812Y0109913D01*
X0187215Y0110160D02*
X0185385Y0110160D01*
X0183694Y0109460D01*
X0182400Y0108166D01*
X0181700Y0106475D01*
X0181700Y0104645D01*
X0182400Y0102954D01*
X0183694Y0101660D01*
X0185385Y0100960D01*
X0187215Y0100960D01*
X0188906Y0101660D01*
X0190200Y0102954D01*
X0190900Y0104645D01*
X0190900Y0106475D01*
X0190200Y0108166D01*
X0188906Y0109460D01*
X0187215Y0110160D01*
X0189051Y0109314D02*
X0190141Y0109314D01*
X0189650Y0108716D02*
X0190740Y0108716D01*
X0190220Y0108117D02*
X0191338Y0108117D01*
X0191937Y0107519D02*
X0190468Y0107519D01*
X0190716Y0106920D02*
X0192536Y0106920D01*
X0193134Y0106322D02*
X0190900Y0106322D01*
X0190900Y0105723D02*
X0193733Y0105723D01*
X0194331Y0105125D02*
X0190900Y0105125D01*
X0190851Y0104526D02*
X0194600Y0104526D01*
X0194600Y0103928D02*
X0190603Y0103928D01*
X0190355Y0103329D02*
X0194600Y0103329D01*
X0194600Y0102731D02*
X0189976Y0102731D01*
X0189378Y0102132D02*
X0194600Y0102132D01*
X0194600Y0101534D02*
X0188600Y0101534D01*
X0188233Y0099738D02*
X0194600Y0099738D01*
X0194600Y0099140D02*
X0189226Y0099140D01*
X0188906Y0099460D02*
X0187215Y0100160D01*
X0185385Y0100160D01*
X0183694Y0099460D01*
X0182400Y0098166D01*
X0181700Y0096475D01*
X0181700Y0094645D01*
X0182400Y0092954D01*
X0183694Y0091660D01*
X0185385Y0090960D01*
X0187215Y0090960D01*
X0188906Y0091660D01*
X0190200Y0092954D01*
X0190900Y0094645D01*
X0190900Y0096475D01*
X0190200Y0098166D01*
X0188906Y0099460D01*
X0189824Y0098541D02*
X0194600Y0098541D01*
X0194600Y0097943D02*
X0190292Y0097943D01*
X0190540Y0097344D02*
X0194600Y0097344D01*
X0194600Y0096746D02*
X0190788Y0096746D01*
X0190900Y0096147D02*
X0194600Y0096147D01*
X0194600Y0095549D02*
X0190900Y0095549D01*
X0190900Y0094950D02*
X0194600Y0094950D01*
X0194600Y0094352D02*
X0190778Y0094352D01*
X0190531Y0093753D02*
X0194600Y0093753D01*
X0194600Y0093155D02*
X0190283Y0093155D01*
X0189801Y0092556D02*
X0194600Y0092556D01*
X0194600Y0091958D02*
X0189203Y0091958D01*
X0188178Y0091359D02*
X0194600Y0091359D01*
X0194600Y0090761D02*
X0178000Y0090761D01*
X0178000Y0090162D02*
X0194600Y0090162D01*
X0194600Y0089563D02*
X0188655Y0089563D01*
X0188906Y0089460D02*
X0187215Y0090160D01*
X0185385Y0090160D01*
X0183694Y0089460D01*
X0182400Y0088166D01*
X0181700Y0086475D01*
X0181700Y0084645D01*
X0182400Y0082954D01*
X0183694Y0081660D01*
X0185385Y0080960D01*
X0187215Y0080960D01*
X0188906Y0081660D01*
X0190200Y0082954D01*
X0190900Y0084645D01*
X0190900Y0086475D01*
X0190200Y0088166D01*
X0188906Y0089460D01*
X0189400Y0088965D02*
X0194600Y0088965D01*
X0194600Y0088366D02*
X0189999Y0088366D01*
X0190364Y0087768D02*
X0194600Y0087768D01*
X0194600Y0087169D02*
X0190612Y0087169D01*
X0190860Y0086571D02*
X0194600Y0086571D01*
X0194600Y0085972D02*
X0190900Y0085972D01*
X0190900Y0085374D02*
X0194600Y0085374D01*
X0194600Y0084775D02*
X0190900Y0084775D01*
X0190706Y0084177D02*
X0194600Y0084177D01*
X0194600Y0083578D02*
X0190458Y0083578D01*
X0190210Y0082980D02*
X0194600Y0082980D01*
X0194600Y0082381D02*
X0189627Y0082381D01*
X0189028Y0081783D02*
X0194600Y0081783D01*
X0194600Y0081184D02*
X0187757Y0081184D01*
X0184843Y0081184D02*
X0178000Y0081184D01*
X0178000Y0080586D02*
X0194600Y0080586D01*
X0194600Y0079987D02*
X0178000Y0079987D01*
X0178000Y0079389D02*
X0194600Y0079389D01*
X0194600Y0078790D02*
X0178000Y0078790D01*
X0178000Y0078192D02*
X0194600Y0078192D01*
X0194600Y0077593D02*
X0178000Y0077593D01*
X0178000Y0076995D02*
X0194600Y0076995D01*
X0194600Y0076396D02*
X0178000Y0076396D01*
X0178000Y0075798D02*
X0194600Y0075798D01*
X0194600Y0075199D02*
X0178000Y0075199D01*
X0178000Y0074601D02*
X0194600Y0074601D01*
X0194600Y0074002D02*
X0178000Y0074002D01*
X0178000Y0073404D02*
X0194600Y0073404D01*
X0194600Y0072805D02*
X0178000Y0072805D01*
X0178000Y0072207D02*
X0194600Y0072207D01*
X0194600Y0071608D02*
X0178000Y0071608D01*
X0178000Y0071010D02*
X0194600Y0071010D01*
X0194600Y0070411D02*
X0178000Y0070411D01*
X0178000Y0069813D02*
X0194600Y0069813D01*
X0194600Y0069214D02*
X0178000Y0069214D01*
X0178000Y0068616D02*
X0194600Y0068616D01*
X0194600Y0068017D02*
X0178000Y0068017D01*
X0178000Y0067419D02*
X0194600Y0067419D01*
X0194600Y0066820D02*
X0178000Y0066820D01*
X0178000Y0066222D02*
X0194600Y0066222D01*
X0194600Y0065025D02*
X0187542Y0065025D01*
X0188939Y0064426D02*
X0194600Y0064426D01*
X0194600Y0063827D02*
X0189538Y0063827D01*
X0190136Y0063229D02*
X0194600Y0063229D01*
X0194600Y0062630D02*
X0190421Y0062630D01*
X0190669Y0062032D02*
X0194600Y0062032D01*
X0194600Y0061433D02*
X0190900Y0061433D01*
X0190900Y0060835D02*
X0194600Y0060835D01*
X0194600Y0060236D02*
X0190900Y0060236D01*
X0190897Y0059638D02*
X0194600Y0059638D01*
X0194600Y0059039D02*
X0190649Y0059039D01*
X0190401Y0058441D02*
X0194600Y0058441D01*
X0194600Y0057842D02*
X0190088Y0057842D01*
X0189489Y0057244D02*
X0194600Y0057244D01*
X0194600Y0056645D02*
X0188870Y0056645D01*
X0187425Y0056047D02*
X0194600Y0056047D01*
X0198000Y0056047D02*
X0227644Y0056047D01*
X0226681Y0056645D02*
X0198000Y0056645D01*
X0198000Y0057244D02*
X0226045Y0057244D01*
X0225594Y0057842D02*
X0198000Y0057842D01*
X0198000Y0058441D02*
X0225268Y0058441D01*
X0225037Y0059039D02*
X0198000Y0059039D01*
X0198000Y0059638D02*
X0224884Y0059638D01*
X0224800Y0060236D02*
X0198000Y0060236D01*
X0198000Y0055448D02*
X0228702Y0055448D01*
X0227206Y0054850D02*
X0198000Y0054850D01*
X0198000Y0054251D02*
X0226420Y0054251D01*
X0225867Y0053653D02*
X0198000Y0053653D01*
X0198000Y0053054D02*
X0225459Y0053054D01*
X0225159Y0052456D02*
X0198000Y0052456D01*
X0198000Y0051857D02*
X0224964Y0051857D01*
X0224848Y0051259D02*
X0198000Y0051259D01*
X0192221Y0044077D02*
X0237412Y0044077D01*
X0236814Y0043478D02*
X0191622Y0043478D01*
X0191024Y0042880D02*
X0236215Y0042880D01*
X0235617Y0042281D02*
X0190566Y0042281D01*
X0190814Y0041683D02*
X0235018Y0041683D01*
X0234420Y0041084D02*
X0190900Y0041084D01*
X0190900Y0040486D02*
X0233821Y0040486D01*
X0233223Y0039887D02*
X0190900Y0039887D01*
X0190752Y0039289D02*
X0232624Y0039289D01*
X0232026Y0038690D02*
X0190504Y0038690D01*
X0190257Y0038092D02*
X0231427Y0038092D01*
X0230829Y0037493D02*
X0189738Y0037493D01*
X0189140Y0036894D02*
X0230230Y0036894D01*
X0229632Y0036296D02*
X0188026Y0036296D01*
X0178000Y0035697D02*
X0229033Y0035697D01*
X0228435Y0035099D02*
X0178000Y0035099D01*
X0178000Y0034500D02*
X0227836Y0034500D01*
X0227238Y0033902D02*
X0178000Y0033902D01*
X0178000Y0033303D02*
X0226639Y0033303D01*
X0226041Y0032705D02*
X0178000Y0032705D01*
X0178000Y0032106D02*
X0225442Y0032106D01*
X0224844Y0031508D02*
X0178000Y0031508D01*
X0178000Y0030909D02*
X0224245Y0030909D01*
X0223647Y0030311D02*
X0178000Y0030311D01*
X0178000Y0026121D02*
X0264860Y0026121D01*
X0264862Y0025523D02*
X0178000Y0025523D01*
X0178000Y0024924D02*
X0184816Y0024924D01*
X0185385Y0025160D02*
X0183694Y0024460D01*
X0182400Y0023166D01*
X0181700Y0021475D01*
X0181700Y0019645D01*
X0182400Y0017954D01*
X0183694Y0016660D01*
X0185385Y0015960D01*
X0187215Y0015960D01*
X0188906Y0016660D01*
X0190200Y0017954D01*
X0190900Y0019645D01*
X0190900Y0021475D01*
X0190200Y0023166D01*
X0188906Y0024460D01*
X0187215Y0025160D01*
X0185385Y0025160D01*
X0183560Y0024326D02*
X0179040Y0024326D01*
X0179638Y0023727D02*
X0182962Y0023727D01*
X0182385Y0023129D02*
X0180215Y0023129D01*
X0180463Y0022530D02*
X0182137Y0022530D01*
X0181889Y0021932D02*
X0180711Y0021932D01*
X0180900Y0021333D02*
X0181700Y0021333D01*
X0181700Y0020735D02*
X0180900Y0020735D01*
X0180900Y0020136D02*
X0181700Y0020136D01*
X0181744Y0019538D02*
X0180856Y0019538D01*
X0180608Y0018939D02*
X0181992Y0018939D01*
X0182240Y0018341D02*
X0180360Y0018341D01*
X0179988Y0017742D02*
X0182612Y0017742D01*
X0183211Y0017144D02*
X0179389Y0017144D01*
X0178628Y0016545D02*
X0183972Y0016545D01*
X0188628Y0016545D02*
X0246025Y0016545D01*
X0246025Y0015947D02*
X0168259Y0015947D01*
X0168219Y0015926D02*
X0168921Y0016284D01*
X0169557Y0016746D01*
X0170114Y0017303D01*
X0170576Y0017939D01*
X0170934Y0018641D01*
X0171177Y0019389D01*
X0171300Y0020166D01*
X0171300Y0020260D01*
X0166600Y0020260D01*
X0166600Y0020860D01*
X0166000Y0020860D01*
X0166000Y0025560D01*
X0165906Y0025560D01*
X0165129Y0025437D01*
X0164381Y0025194D01*
X0163679Y0024836D01*
X0163043Y0024374D01*
X0162486Y0023817D01*
X0162024Y0023181D01*
X0161666Y0022479D01*
X0161423Y0021731D01*
X0161300Y0020953D01*
X0161300Y0020860D01*
X0166000Y0020860D01*
X0166000Y0020260D01*
X0161300Y0020260D01*
X0161300Y0020166D01*
X0161423Y0019389D01*
X0161666Y0018641D01*
X0162024Y0017939D01*
X0162486Y0017303D01*
X0163043Y0016746D01*
X0163679Y0016284D01*
X0164381Y0015926D01*
X0165129Y0015683D01*
X0165906Y0015560D01*
X0166000Y0015560D01*
X0166000Y0020260D01*
X0166600Y0020260D01*
X0166600Y0015560D01*
X0166694Y0015560D01*
X0167471Y0015683D01*
X0168219Y0015926D01*
X0169280Y0016545D02*
X0173972Y0016545D01*
X0173211Y0017144D02*
X0169955Y0017144D01*
X0170433Y0017742D02*
X0172612Y0017742D01*
X0172240Y0018341D02*
X0170781Y0018341D01*
X0171031Y0018939D02*
X0171992Y0018939D01*
X0171744Y0019538D02*
X0171200Y0019538D01*
X0171295Y0020136D02*
X0171700Y0020136D01*
X0171700Y0020735D02*
X0166600Y0020735D01*
X0166600Y0020860D02*
X0171300Y0020860D01*
X0171300Y0020953D01*
X0171177Y0021731D01*
X0170934Y0022479D01*
X0170576Y0023181D01*
X0170114Y0023817D01*
X0169557Y0024374D01*
X0168921Y0024836D01*
X0168219Y0025194D01*
X0167471Y0025437D01*
X0166694Y0025560D01*
X0166600Y0025560D01*
X0166600Y0020860D01*
X0166600Y0021333D02*
X0166000Y0021333D01*
X0166000Y0020735D02*
X0136600Y0020735D01*
X0136600Y0020860D02*
X0141300Y0020860D01*
X0141300Y0020953D01*
X0141177Y0021731D01*
X0140934Y0022479D01*
X0140576Y0023181D01*
X0140114Y0023817D01*
X0139557Y0024374D01*
X0138921Y0024836D01*
X0138219Y0025194D01*
X0137471Y0025437D01*
X0136694Y0025560D01*
X0136600Y0025560D01*
X0136600Y0020860D01*
X0136000Y0020860D01*
X0136000Y0025560D01*
X0135906Y0025560D01*
X0135129Y0025437D01*
X0134381Y0025194D01*
X0133679Y0024836D01*
X0133043Y0024374D01*
X0132486Y0023817D01*
X0132024Y0023181D01*
X0131666Y0022479D01*
X0131423Y0021731D01*
X0131300Y0020953D01*
X0131300Y0020860D01*
X0136000Y0020860D01*
X0136000Y0020260D01*
X0131300Y0020260D01*
X0131300Y0020166D01*
X0131423Y0019389D01*
X0131666Y0018641D01*
X0132024Y0017939D01*
X0132486Y0017303D01*
X0133043Y0016746D01*
X0133679Y0016284D01*
X0134381Y0015926D01*
X0135129Y0015683D01*
X0135906Y0015560D01*
X0136000Y0015560D01*
X0136000Y0020260D01*
X0136600Y0020260D01*
X0136600Y0020860D01*
X0136600Y0021333D02*
X0136000Y0021333D01*
X0136000Y0020735D02*
X0130900Y0020735D01*
X0130900Y0021333D02*
X0131360Y0021333D01*
X0131488Y0021932D02*
X0130711Y0021932D01*
X0130463Y0022530D02*
X0131692Y0022530D01*
X0131997Y0023129D02*
X0130215Y0023129D01*
X0129638Y0023727D02*
X0132421Y0023727D01*
X0132995Y0024326D02*
X0129040Y0024326D01*
X0128000Y0024924D02*
X0133852Y0024924D01*
X0135672Y0025523D02*
X0128000Y0025523D01*
X0128000Y0026121D02*
X0174600Y0026121D01*
X0174600Y0025523D02*
X0166928Y0025523D01*
X0166600Y0025523D02*
X0166000Y0025523D01*
X0165672Y0025523D02*
X0136928Y0025523D01*
X0136600Y0025523D02*
X0136000Y0025523D01*
X0136000Y0024924D02*
X0136600Y0024924D01*
X0136600Y0024326D02*
X0136000Y0024326D01*
X0136000Y0023727D02*
X0136600Y0023727D01*
X0136600Y0023129D02*
X0136000Y0023129D01*
X0136000Y0022530D02*
X0136600Y0022530D01*
X0136600Y0021932D02*
X0136000Y0021932D01*
X0136600Y0020260D02*
X0141300Y0020260D01*
X0141300Y0020166D01*
X0141177Y0019389D01*
X0140934Y0018641D01*
X0140576Y0017939D01*
X0140114Y0017303D01*
X0139557Y0016746D01*
X0138921Y0016284D01*
X0138219Y0015926D01*
X0137471Y0015683D01*
X0136694Y0015560D01*
X0136600Y0015560D01*
X0136600Y0020260D01*
X0136600Y0020136D02*
X0136000Y0020136D01*
X0136000Y0019538D02*
X0136600Y0019538D01*
X0136600Y0018939D02*
X0136000Y0018939D01*
X0136000Y0018341D02*
X0136600Y0018341D01*
X0136600Y0017742D02*
X0136000Y0017742D01*
X0136000Y0017144D02*
X0136600Y0017144D01*
X0136600Y0016545D02*
X0136000Y0016545D01*
X0136000Y0015947D02*
X0136600Y0015947D01*
X0138259Y0015947D02*
X0164341Y0015947D01*
X0163319Y0016545D02*
X0139280Y0016545D01*
X0139955Y0017144D02*
X0162645Y0017144D01*
X0162167Y0017742D02*
X0140433Y0017742D01*
X0140781Y0018341D02*
X0161819Y0018341D01*
X0161569Y0018939D02*
X0141031Y0018939D01*
X0141200Y0019538D02*
X0161400Y0019538D01*
X0161305Y0020136D02*
X0141295Y0020136D01*
X0141240Y0021333D02*
X0161360Y0021333D01*
X0161488Y0021932D02*
X0141112Y0021932D01*
X0140908Y0022530D02*
X0161692Y0022530D01*
X0161997Y0023129D02*
X0140603Y0023129D01*
X0140179Y0023727D02*
X0162421Y0023727D01*
X0162995Y0024326D02*
X0139605Y0024326D01*
X0138748Y0024924D02*
X0163852Y0024924D01*
X0166000Y0024924D02*
X0166600Y0024924D01*
X0166600Y0024326D02*
X0166000Y0024326D01*
X0166000Y0023727D02*
X0166600Y0023727D01*
X0166600Y0023129D02*
X0166000Y0023129D01*
X0166000Y0022530D02*
X0166600Y0022530D01*
X0166600Y0021932D02*
X0166000Y0021932D01*
X0166000Y0020136D02*
X0166600Y0020136D01*
X0166600Y0019538D02*
X0166000Y0019538D01*
X0166000Y0018939D02*
X0166600Y0018939D01*
X0166600Y0018341D02*
X0166000Y0018341D01*
X0166000Y0017742D02*
X0166600Y0017742D01*
X0166600Y0017144D02*
X0166000Y0017144D01*
X0166000Y0016545D02*
X0166600Y0016545D01*
X0166600Y0015947D02*
X0166000Y0015947D01*
X0171240Y0021333D02*
X0171700Y0021333D01*
X0171889Y0021932D02*
X0171112Y0021932D01*
X0170908Y0022530D02*
X0172137Y0022530D01*
X0172385Y0023129D02*
X0170603Y0023129D01*
X0170179Y0023727D02*
X0172962Y0023727D01*
X0173560Y0024326D02*
X0169605Y0024326D01*
X0168748Y0024924D02*
X0174600Y0024924D01*
X0187784Y0024924D02*
X0264864Y0024924D01*
X0264865Y0024326D02*
X0257775Y0024326D01*
X0256545Y0024835D02*
X0253055Y0024835D01*
X0249829Y0023499D01*
X0247361Y0021031D01*
X0246025Y0017805D01*
X0246025Y0014315D01*
X0247361Y0011089D01*
X0249829Y0008621D01*
X0253055Y0007285D01*
X0256545Y0007285D01*
X0259771Y0008621D01*
X0262239Y0011089D01*
X0263575Y0014315D01*
X0263575Y0017805D01*
X0262239Y0021031D01*
X0259771Y0023499D01*
X0256545Y0024835D01*
X0259220Y0023727D02*
X0264867Y0023727D01*
X0264869Y0023129D02*
X0260141Y0023129D01*
X0260739Y0022530D02*
X0264871Y0022530D01*
X0264873Y0021932D02*
X0261338Y0021932D01*
X0261937Y0021333D02*
X0264874Y0021333D01*
X0264876Y0020735D02*
X0262362Y0020735D01*
X0262610Y0020136D02*
X0264878Y0020136D01*
X0264880Y0019538D02*
X0262857Y0019538D01*
X0263105Y0018939D02*
X0264881Y0018939D01*
X0264883Y0018341D02*
X0263353Y0018341D01*
X0263575Y0017742D02*
X0264885Y0017742D01*
X0264887Y0017144D02*
X0263575Y0017144D01*
X0263575Y0016545D02*
X0264889Y0016545D01*
X0264890Y0015947D02*
X0263575Y0015947D01*
X0263575Y0015348D02*
X0264892Y0015348D01*
X0264894Y0014750D02*
X0263575Y0014750D01*
X0263507Y0014151D02*
X0264896Y0014151D01*
X0264897Y0013553D02*
X0263259Y0013553D01*
X0263011Y0012954D02*
X0264899Y0012954D01*
X0264901Y0012356D02*
X0262764Y0012356D01*
X0262516Y0011757D02*
X0264903Y0011757D01*
X0264905Y0011159D02*
X0262268Y0011159D01*
X0261710Y0010560D02*
X0264906Y0010560D01*
X0264908Y0009961D02*
X0261111Y0009961D01*
X0260513Y0009363D02*
X0264910Y0009363D01*
X0264912Y0008764D02*
X0259914Y0008764D01*
X0258672Y0008166D02*
X0264914Y0008166D01*
X0264915Y0007567D02*
X0257227Y0007567D01*
X0252373Y0007567D02*
X0007594Y0007567D01*
X0007596Y0006969D02*
X0264917Y0006969D01*
X0264917Y0006860D02*
X0264458Y0161326D01*
X0263739Y0159589D01*
X0264463Y0159589D01*
X0264465Y0158991D02*
X0263141Y0158991D01*
X0263739Y0159589D02*
X0261271Y0157121D01*
X0258045Y0155785D01*
X0254555Y0155785D01*
X0251329Y0157121D01*
X0248861Y0159589D01*
X0244261Y0159589D01*
X0244557Y0159374D02*
X0243921Y0159836D01*
X0243219Y0160194D01*
X0242471Y0160437D01*
X0241694Y0160560D01*
X0241600Y0160560D01*
X0241600Y0155860D01*
X0241000Y0155860D01*
X0241000Y0160560D01*
X0240906Y0160560D01*
X0240129Y0160437D01*
X0239381Y0160194D01*
X0238679Y0159836D01*
X0238043Y0159374D01*
X0237486Y0158817D01*
X0237024Y0158181D01*
X0236666Y0157479D01*
X0236423Y0156731D01*
X0236300Y0155953D01*
X0236300Y0155860D01*
X0241000Y0155860D01*
X0241000Y0155260D01*
X0236300Y0155260D01*
X0236300Y0155166D01*
X0236423Y0154389D01*
X0236666Y0153641D01*
X0237024Y0152939D01*
X0237486Y0152303D01*
X0238043Y0151746D01*
X0238679Y0151284D01*
X0239381Y0150926D01*
X0240129Y0150683D01*
X0240906Y0150560D01*
X0241000Y0150560D01*
X0241000Y0155260D01*
X0241600Y0155260D01*
X0241600Y0155860D01*
X0246300Y0155860D01*
X0246300Y0155953D01*
X0246177Y0156731D01*
X0245934Y0157479D01*
X0245576Y0158181D01*
X0245114Y0158817D01*
X0244557Y0159374D01*
X0244940Y0158991D02*
X0249459Y0158991D01*
X0248861Y0159589D02*
X0247525Y0162815D01*
X0247525Y0166305D01*
X0248861Y0169531D01*
X0251329Y0171999D01*
X0252444Y0172461D01*
X0007104Y0172461D01*
X0007596Y0006860D01*
X0264917Y0006860D01*
X0250928Y0008166D02*
X0007592Y0008166D01*
X0007590Y0008764D02*
X0249686Y0008764D01*
X0249087Y0009363D02*
X0007589Y0009363D01*
X0007587Y0009961D02*
X0248489Y0009961D01*
X0247890Y0010560D02*
X0007585Y0010560D01*
X0007583Y0011159D02*
X0247332Y0011159D01*
X0247084Y0011757D02*
X0007582Y0011757D01*
X0007580Y0012356D02*
X0246836Y0012356D01*
X0246589Y0012954D02*
X0007578Y0012954D01*
X0007576Y0013553D02*
X0246341Y0013553D01*
X0246093Y0014151D02*
X0007574Y0014151D01*
X0007573Y0014750D02*
X0048433Y0014750D01*
X0049555Y0014285D02*
X0046329Y0015621D01*
X0043861Y0018089D01*
X0042525Y0021315D01*
X0042525Y0024805D01*
X0043861Y0028031D01*
X0046329Y0030499D01*
X0049555Y0031835D01*
X0053045Y0031835D01*
X0056271Y0030499D01*
X0058739Y0028031D01*
X0060075Y0024805D01*
X0060075Y0021315D01*
X0058739Y0018089D01*
X0056271Y0015621D01*
X0053045Y0014285D01*
X0049555Y0014285D01*
X0046988Y0015348D02*
X0007571Y0015348D01*
X0007569Y0015947D02*
X0046004Y0015947D01*
X0045405Y0016545D02*
X0007567Y0016545D01*
X0007566Y0017144D02*
X0044807Y0017144D01*
X0044208Y0017742D02*
X0007564Y0017742D01*
X0007562Y0018341D02*
X0043757Y0018341D01*
X0043509Y0018939D02*
X0007560Y0018939D01*
X0007558Y0019538D02*
X0043261Y0019538D01*
X0043013Y0020136D02*
X0007557Y0020136D01*
X0007555Y0020735D02*
X0042765Y0020735D01*
X0042525Y0021333D02*
X0023116Y0021333D01*
X0023906Y0021660D02*
X0025200Y0022954D01*
X0025900Y0024645D01*
X0025900Y0026475D01*
X0025200Y0028166D01*
X0023906Y0029460D01*
X0022215Y0030160D01*
X0020385Y0030160D01*
X0018694Y0029460D01*
X0017400Y0028166D01*
X0016700Y0026475D01*
X0016700Y0024645D01*
X0017400Y0022954D01*
X0018694Y0021660D01*
X0020385Y0020960D01*
X0022215Y0020960D01*
X0023906Y0021660D01*
X0024177Y0021932D02*
X0042525Y0021932D01*
X0042525Y0022530D02*
X0024776Y0022530D01*
X0025272Y0023129D02*
X0042525Y0023129D01*
X0042525Y0023727D02*
X0025520Y0023727D01*
X0025768Y0024326D02*
X0042525Y0024326D01*
X0042574Y0024924D02*
X0025900Y0024924D01*
X0025900Y0025523D02*
X0042822Y0025523D01*
X0043070Y0026121D02*
X0025900Y0026121D01*
X0025799Y0026720D02*
X0043318Y0026720D01*
X0043566Y0027318D02*
X0025551Y0027318D01*
X0025303Y0027917D02*
X0043814Y0027917D01*
X0044346Y0028515D02*
X0024850Y0028515D01*
X0024252Y0029114D02*
X0044944Y0029114D01*
X0045543Y0029712D02*
X0023296Y0029712D01*
X0023167Y0030909D02*
X0047320Y0030909D01*
X0046141Y0030311D02*
X0007526Y0030311D01*
X0007525Y0030909D02*
X0019433Y0030909D01*
X0019381Y0030926D02*
X0020129Y0030683D01*
X0020906Y0030560D01*
X0021000Y0030560D01*
X0021000Y0035260D01*
X0016300Y0035260D01*
X0016300Y0035166D01*
X0016423Y0034389D01*
X0016666Y0033641D01*
X0017024Y0032939D01*
X0017486Y0032303D01*
X0018043Y0031746D01*
X0018679Y0031284D01*
X0019381Y0030926D01*
X0018371Y0031508D02*
X0007523Y0031508D01*
X0007521Y0032106D02*
X0017683Y0032106D01*
X0017194Y0032705D02*
X0007519Y0032705D01*
X0007518Y0033303D02*
X0016838Y0033303D01*
X0016581Y0033902D02*
X0007516Y0033902D01*
X0007514Y0034500D02*
X0016405Y0034500D01*
X0016311Y0035099D02*
X0007512Y0035099D01*
X0007510Y0035697D02*
X0021000Y0035697D01*
X0021000Y0035860D02*
X0021000Y0035260D01*
X0021600Y0035260D01*
X0021600Y0035860D01*
X0021000Y0035860D01*
X0021000Y0040560D01*
X0020906Y0040560D01*
X0020129Y0040437D01*
X0019381Y0040194D01*
X0018679Y0039836D01*
X0018043Y0039374D01*
X0017486Y0038817D01*
X0017024Y0038181D01*
X0016666Y0037479D01*
X0016423Y0036731D01*
X0016300Y0035953D01*
X0016300Y0035860D01*
X0021000Y0035860D01*
X0021000Y0036296D02*
X0021600Y0036296D01*
X0021600Y0035860D02*
X0021600Y0040560D01*
X0021694Y0040560D01*
X0022471Y0040437D01*
X0023219Y0040194D01*
X0023921Y0039836D01*
X0024557Y0039374D01*
X0025114Y0038817D01*
X0025576Y0038181D01*
X0025934Y0037479D01*
X0026177Y0036731D01*
X0026300Y0035953D01*
X0026300Y0035860D01*
X0021600Y0035860D01*
X0021600Y0035697D02*
X0076700Y0035697D01*
X0076700Y0035099D02*
X0026289Y0035099D01*
X0026300Y0035166D02*
X0026300Y0035260D01*
X0021600Y0035260D01*
X0021600Y0030560D01*
X0021694Y0030560D01*
X0022471Y0030683D01*
X0023219Y0030926D01*
X0023921Y0031284D01*
X0024557Y0031746D01*
X0025114Y0032303D01*
X0025576Y0032939D01*
X0025934Y0033641D01*
X0026177Y0034389D01*
X0026300Y0035166D01*
X0026194Y0034500D02*
X0076760Y0034500D01*
X0076700Y0034645D02*
X0077400Y0032954D01*
X0078694Y0031660D01*
X0080385Y0030960D01*
X0082215Y0030960D01*
X0083906Y0031660D01*
X0085200Y0032954D01*
X0085900Y0034645D01*
X0085900Y0036475D01*
X0085200Y0038166D01*
X0083906Y0039460D01*
X0082215Y0040160D01*
X0080385Y0040160D01*
X0078694Y0039460D01*
X0077400Y0038166D01*
X0076700Y0036475D01*
X0076700Y0034645D01*
X0077008Y0033902D02*
X0026019Y0033902D01*
X0025762Y0033303D02*
X0077256Y0033303D01*
X0077650Y0032705D02*
X0025406Y0032705D01*
X0024917Y0032106D02*
X0078248Y0032106D01*
X0079062Y0031508D02*
X0053835Y0031508D01*
X0055280Y0030909D02*
X0124600Y0030909D01*
X0124600Y0030311D02*
X0056459Y0030311D01*
X0057057Y0029712D02*
X0079304Y0029712D01*
X0078694Y0029460D02*
X0077400Y0028166D01*
X0076700Y0026475D01*
X0076700Y0024645D01*
X0077400Y0022954D01*
X0078694Y0021660D01*
X0080385Y0020960D01*
X0082215Y0020960D01*
X0083906Y0021660D01*
X0085200Y0022954D01*
X0085900Y0024645D01*
X0085900Y0026475D01*
X0085200Y0028166D01*
X0083906Y0029460D01*
X0082215Y0030160D01*
X0080385Y0030160D01*
X0078694Y0029460D01*
X0078348Y0029114D02*
X0057656Y0029114D01*
X0058254Y0028515D02*
X0077750Y0028515D01*
X0077297Y0027917D02*
X0058786Y0027917D01*
X0059034Y0027318D02*
X0077049Y0027318D01*
X0076801Y0026720D02*
X0059282Y0026720D01*
X0059530Y0026121D02*
X0076700Y0026121D01*
X0076700Y0025523D02*
X0059778Y0025523D01*
X0060026Y0024924D02*
X0076700Y0024924D01*
X0076832Y0024326D02*
X0060075Y0024326D01*
X0060075Y0023727D02*
X0077080Y0023727D01*
X0077328Y0023129D02*
X0060075Y0023129D01*
X0060075Y0022530D02*
X0077824Y0022530D01*
X0078423Y0021932D02*
X0060075Y0021932D01*
X0060075Y0021333D02*
X0079484Y0021333D01*
X0083116Y0021333D02*
X0111700Y0021333D01*
X0111700Y0021475D02*
X0111700Y0019645D01*
X0112400Y0017954D01*
X0113694Y0016660D01*
X0115385Y0015960D01*
X0117215Y0015960D01*
X0118906Y0016660D01*
X0120200Y0017954D01*
X0120900Y0019645D01*
X0120900Y0021475D01*
X0120200Y0023166D01*
X0118906Y0024460D01*
X0117215Y0025160D01*
X0115385Y0025160D01*
X0113694Y0024460D01*
X0112400Y0023166D01*
X0111700Y0021475D01*
X0111889Y0021932D02*
X0084177Y0021932D01*
X0084776Y0022530D02*
X0112137Y0022530D01*
X0112385Y0023129D02*
X0085272Y0023129D01*
X0085520Y0023727D02*
X0112962Y0023727D01*
X0113560Y0024326D02*
X0085768Y0024326D01*
X0085900Y0024924D02*
X0114816Y0024924D01*
X0117784Y0024924D02*
X0124600Y0024924D01*
X0124600Y0025523D02*
X0085900Y0025523D01*
X0085900Y0026121D02*
X0124600Y0026121D01*
X0124600Y0026720D02*
X0085799Y0026720D01*
X0085551Y0027318D02*
X0124600Y0027318D01*
X0124600Y0027917D02*
X0085303Y0027917D01*
X0084850Y0028515D02*
X0124600Y0028515D01*
X0124600Y0029114D02*
X0084252Y0029114D01*
X0083296Y0029712D02*
X0124600Y0029712D01*
X0124062Y0031508D02*
X0118538Y0031508D01*
X0118906Y0031660D02*
X0120200Y0032954D01*
X0120900Y0034645D01*
X0120900Y0036475D01*
X0120200Y0038166D01*
X0118906Y0039460D01*
X0117215Y0040160D01*
X0115385Y0040160D01*
X0113694Y0039460D01*
X0112400Y0038166D01*
X0111700Y0036475D01*
X0111700Y0034645D01*
X0112400Y0032954D01*
X0113694Y0031660D01*
X0115385Y0030960D01*
X0117215Y0030960D01*
X0118906Y0031660D01*
X0119352Y0032106D02*
X0123248Y0032106D01*
X0122650Y0032705D02*
X0119950Y0032705D01*
X0120344Y0033303D02*
X0122256Y0033303D01*
X0122008Y0033902D02*
X0120592Y0033902D01*
X0120840Y0034500D02*
X0121760Y0034500D01*
X0121700Y0035099D02*
X0120900Y0035099D01*
X0120900Y0035697D02*
X0121700Y0035697D01*
X0121700Y0036296D02*
X0120900Y0036296D01*
X0120726Y0036894D02*
X0121874Y0036894D01*
X0122122Y0037493D02*
X0120478Y0037493D01*
X0120230Y0038092D02*
X0122370Y0038092D01*
X0122925Y0038690D02*
X0119675Y0038690D01*
X0119077Y0039289D02*
X0123523Y0039289D01*
X0124600Y0039887D02*
X0117874Y0039887D01*
X0114726Y0039887D02*
X0082874Y0039887D01*
X0082471Y0040683D02*
X0083219Y0040926D01*
X0083921Y0041284D01*
X0084557Y0041746D01*
X0085114Y0042303D01*
X0085576Y0042939D01*
X0085934Y0043641D01*
X0086177Y0044389D01*
X0086300Y0045166D01*
X0086300Y0045260D01*
X0081600Y0045260D01*
X0081600Y0040560D01*
X0081694Y0040560D01*
X0082471Y0040683D01*
X0081600Y0041084D02*
X0081000Y0041084D01*
X0081000Y0041683D02*
X0081600Y0041683D01*
X0081600Y0042281D02*
X0081000Y0042281D01*
X0081000Y0042880D02*
X0081600Y0042880D01*
X0081600Y0043478D02*
X0081000Y0043478D01*
X0081000Y0044077D02*
X0081600Y0044077D01*
X0081600Y0044675D02*
X0081000Y0044675D01*
X0081000Y0045274D02*
X0025900Y0045274D01*
X0025900Y0045872D02*
X0076300Y0045872D01*
X0076382Y0046471D02*
X0025900Y0046471D01*
X0025900Y0046475D02*
X0025200Y0048166D01*
X0023906Y0049460D01*
X0022215Y0050160D01*
X0020385Y0050160D01*
X0018694Y0049460D01*
X0017400Y0048166D01*
X0016700Y0046475D01*
X0016700Y0044645D01*
X0017400Y0042954D01*
X0018694Y0041660D01*
X0020385Y0040960D01*
X0022215Y0040960D01*
X0023906Y0041660D01*
X0025200Y0042954D01*
X0025900Y0044645D01*
X0025900Y0046475D01*
X0025654Y0047069D02*
X0076533Y0047069D01*
X0076762Y0047668D02*
X0025406Y0047668D01*
X0025099Y0048266D02*
X0077086Y0048266D01*
X0077534Y0048865D02*
X0024501Y0048865D01*
X0023897Y0049463D02*
X0078166Y0049463D01*
X0079122Y0050062D02*
X0022452Y0050062D01*
X0022936Y0051259D02*
X0078728Y0051259D01*
X0077932Y0051857D02*
X0024103Y0051857D01*
X0024701Y0052456D02*
X0077375Y0052456D01*
X0076965Y0053054D02*
X0025241Y0053054D01*
X0025489Y0053653D02*
X0076662Y0053653D01*
X0076468Y0054251D02*
X0025737Y0054251D01*
X0025900Y0054850D02*
X0076350Y0054850D01*
X0081000Y0054251D02*
X0081600Y0054251D01*
X0081600Y0053653D02*
X0081000Y0053653D01*
X0081000Y0053054D02*
X0081600Y0053054D01*
X0081600Y0052456D02*
X0081000Y0052456D01*
X0081000Y0051857D02*
X0081600Y0051857D01*
X0081600Y0051259D02*
X0081000Y0051259D01*
X0081000Y0050660D02*
X0081600Y0050660D01*
X0081600Y0050062D02*
X0081000Y0050062D01*
X0081000Y0050560D02*
X0080906Y0050560D01*
X0081000Y0050560D01*
X0080273Y0050660D02*
X0007466Y0050660D01*
X0007468Y0050062D02*
X0020148Y0050062D01*
X0019664Y0051259D02*
X0007464Y0051259D01*
X0007462Y0051857D02*
X0018497Y0051857D01*
X0017899Y0052456D02*
X0007461Y0052456D01*
X0007459Y0053054D02*
X0017359Y0053054D01*
X0017111Y0053653D02*
X0007457Y0053653D01*
X0007455Y0054251D02*
X0016863Y0054251D01*
X0016700Y0054850D02*
X0007453Y0054850D01*
X0007452Y0055448D02*
X0016700Y0055448D01*
X0016700Y0056047D02*
X0007450Y0056047D01*
X0007448Y0056645D02*
X0016771Y0056645D01*
X0017018Y0057244D02*
X0007446Y0057244D01*
X0007445Y0057842D02*
X0017266Y0057842D01*
X0017676Y0058441D02*
X0007443Y0058441D01*
X0007441Y0059039D02*
X0018274Y0059039D01*
X0019125Y0059638D02*
X0007439Y0059638D01*
X0007437Y0060236D02*
X0023572Y0060236D01*
X0024171Y0060835D02*
X0007436Y0060835D01*
X0007434Y0061433D02*
X0019242Y0061433D01*
X0018323Y0062032D02*
X0007432Y0062032D01*
X0007430Y0062630D02*
X0017724Y0062630D01*
X0017287Y0063229D02*
X0007429Y0063229D01*
X0007427Y0063827D02*
X0017039Y0063827D01*
X0016791Y0064426D02*
X0007425Y0064426D01*
X0007423Y0065025D02*
X0016700Y0065025D01*
X0016700Y0065623D02*
X0007421Y0065623D01*
X0007420Y0066222D02*
X0016700Y0066222D01*
X0016843Y0066820D02*
X0007418Y0066820D01*
X0007416Y0067419D02*
X0017091Y0067419D01*
X0017339Y0068017D02*
X0007414Y0068017D01*
X0007413Y0068616D02*
X0017850Y0068616D01*
X0018449Y0069214D02*
X0007411Y0069214D01*
X0023358Y0061433D02*
X0024769Y0061433D01*
X0024277Y0062032D02*
X0025368Y0062032D01*
X0018703Y0049463D02*
X0007469Y0049463D01*
X0007471Y0048865D02*
X0018099Y0048865D01*
X0017501Y0048266D02*
X0007473Y0048266D01*
X0007475Y0047668D02*
X0017194Y0047668D01*
X0016946Y0047069D02*
X0007477Y0047069D01*
X0007478Y0046471D02*
X0016700Y0046471D01*
X0016700Y0045872D02*
X0007480Y0045872D01*
X0007482Y0045274D02*
X0016700Y0045274D01*
X0016700Y0044675D02*
X0007484Y0044675D01*
X0007485Y0044077D02*
X0016935Y0044077D01*
X0017183Y0043478D02*
X0007487Y0043478D01*
X0007489Y0042880D02*
X0017475Y0042880D01*
X0018074Y0042281D02*
X0007491Y0042281D01*
X0007493Y0041683D02*
X0018672Y0041683D01*
X0020085Y0041084D02*
X0007494Y0041084D01*
X0007496Y0040486D02*
X0020437Y0040486D01*
X0021000Y0040486D02*
X0021600Y0040486D01*
X0022163Y0040486D02*
X0124600Y0040486D01*
X0124600Y0041084D02*
X0083529Y0041084D01*
X0084470Y0041683D02*
X0124600Y0041683D01*
X0124600Y0042281D02*
X0085092Y0042281D01*
X0085533Y0042880D02*
X0124600Y0042880D01*
X0124600Y0043478D02*
X0085851Y0043478D01*
X0086075Y0044077D02*
X0124600Y0044077D01*
X0124600Y0044675D02*
X0086222Y0044675D01*
X0086300Y0045872D02*
X0124600Y0045872D01*
X0124600Y0045274D02*
X0081600Y0045274D01*
X0081600Y0045872D02*
X0081000Y0045872D01*
X0081000Y0046471D02*
X0081600Y0046471D01*
X0081600Y0047069D02*
X0081000Y0047069D01*
X0081000Y0047668D02*
X0081600Y0047668D01*
X0081600Y0048266D02*
X0081000Y0048266D01*
X0081000Y0048865D02*
X0081600Y0048865D01*
X0081600Y0049463D02*
X0081000Y0049463D01*
X0082327Y0050660D02*
X0111700Y0050660D01*
X0111700Y0050062D02*
X0083478Y0050062D01*
X0084434Y0049463D02*
X0111775Y0049463D01*
X0111700Y0049645D02*
X0112400Y0047954D01*
X0113694Y0046660D01*
X0115385Y0045960D01*
X0117215Y0045960D01*
X0118906Y0046660D01*
X0120200Y0047954D01*
X0120900Y0049645D01*
X0120900Y0051475D01*
X0120200Y0053166D01*
X0118906Y0054460D01*
X0117215Y0055160D01*
X0115385Y0055160D01*
X0113694Y0054460D01*
X0112400Y0053166D01*
X0111700Y0051475D01*
X0111700Y0049645D01*
X0112023Y0048865D02*
X0085066Y0048865D01*
X0085514Y0048266D02*
X0112271Y0048266D01*
X0112687Y0047668D02*
X0085838Y0047668D01*
X0086067Y0047069D02*
X0113285Y0047069D01*
X0114152Y0046471D02*
X0086218Y0046471D01*
X0083872Y0051259D02*
X0111700Y0051259D01*
X0111858Y0051857D02*
X0084668Y0051857D01*
X0085225Y0052456D02*
X0112106Y0052456D01*
X0112354Y0053054D02*
X0085635Y0053054D01*
X0085938Y0053653D02*
X0112887Y0053653D01*
X0113486Y0054251D02*
X0086132Y0054251D01*
X0086250Y0054850D02*
X0114636Y0054850D01*
X0117964Y0054850D02*
X0124636Y0054850D01*
X0123486Y0054251D02*
X0119114Y0054251D01*
X0119713Y0053653D02*
X0122887Y0053653D01*
X0122354Y0053054D02*
X0120246Y0053054D01*
X0120494Y0052456D02*
X0122106Y0052456D01*
X0121858Y0051857D02*
X0120742Y0051857D01*
X0120900Y0051259D02*
X0121700Y0051259D01*
X0121700Y0050660D02*
X0120900Y0050660D01*
X0120900Y0050062D02*
X0121700Y0050062D01*
X0121775Y0049463D02*
X0120825Y0049463D01*
X0120577Y0048865D02*
X0122023Y0048865D01*
X0122271Y0048266D02*
X0120329Y0048266D01*
X0119913Y0047668D02*
X0122687Y0047668D01*
X0123285Y0047069D02*
X0119315Y0047069D01*
X0118448Y0046471D02*
X0124152Y0046471D01*
X0130900Y0051259D02*
X0131348Y0051259D01*
X0131464Y0051857D02*
X0130742Y0051857D01*
X0130494Y0052456D02*
X0131659Y0052456D01*
X0131959Y0053054D02*
X0130246Y0053054D01*
X0129713Y0053653D02*
X0132367Y0053653D01*
X0132920Y0054251D02*
X0129114Y0054251D01*
X0127964Y0054850D02*
X0133706Y0054850D01*
X0126100Y0060835D02*
X0125500Y0060835D01*
X0125500Y0061433D02*
X0126100Y0061433D01*
X0126100Y0062032D02*
X0125500Y0062032D01*
X0125500Y0062630D02*
X0126100Y0062630D01*
X0126100Y0063229D02*
X0125500Y0063229D01*
X0125500Y0063827D02*
X0126100Y0063827D01*
X0126100Y0064426D02*
X0125500Y0064426D01*
X0128000Y0040486D02*
X0135437Y0040486D01*
X0136000Y0040486D02*
X0136600Y0040486D01*
X0136600Y0039887D02*
X0136000Y0039887D01*
X0136000Y0039289D02*
X0136600Y0039289D01*
X0136600Y0038690D02*
X0136000Y0038690D01*
X0136000Y0038092D02*
X0136600Y0038092D01*
X0136600Y0037493D02*
X0136000Y0037493D01*
X0136000Y0036894D02*
X0136600Y0036894D01*
X0136600Y0036296D02*
X0136000Y0036296D01*
X0136000Y0034500D02*
X0136600Y0034500D01*
X0136600Y0033902D02*
X0136000Y0033902D01*
X0136000Y0033303D02*
X0136600Y0033303D01*
X0136600Y0032705D02*
X0136000Y0032705D01*
X0136000Y0032106D02*
X0136600Y0032106D01*
X0136600Y0031508D02*
X0136000Y0031508D01*
X0136000Y0030909D02*
X0136600Y0030909D01*
X0131354Y0036296D02*
X0130900Y0036296D01*
X0130726Y0036894D02*
X0131476Y0036894D01*
X0131673Y0037493D02*
X0130478Y0037493D01*
X0130230Y0038092D02*
X0131978Y0038092D01*
X0132394Y0038690D02*
X0129675Y0038690D01*
X0129077Y0039289D02*
X0132957Y0039289D01*
X0133779Y0039887D02*
X0128000Y0039887D01*
X0113523Y0039289D02*
X0084077Y0039289D01*
X0084675Y0038690D02*
X0112925Y0038690D01*
X0112370Y0038092D02*
X0085230Y0038092D01*
X0085478Y0037493D02*
X0112122Y0037493D01*
X0111874Y0036894D02*
X0085726Y0036894D01*
X0085900Y0036296D02*
X0111700Y0036296D01*
X0111700Y0035697D02*
X0085900Y0035697D01*
X0085900Y0035099D02*
X0111700Y0035099D01*
X0111760Y0034500D02*
X0085840Y0034500D01*
X0085592Y0033902D02*
X0112008Y0033902D01*
X0112256Y0033303D02*
X0085344Y0033303D01*
X0084950Y0032705D02*
X0112650Y0032705D01*
X0113248Y0032106D02*
X0084352Y0032106D01*
X0083538Y0031508D02*
X0114062Y0031508D01*
X0119040Y0024326D02*
X0123560Y0024326D01*
X0122962Y0023727D02*
X0119638Y0023727D01*
X0120215Y0023129D02*
X0122385Y0023129D01*
X0122137Y0022530D02*
X0120463Y0022530D01*
X0120711Y0021932D02*
X0121889Y0021932D01*
X0121700Y0021333D02*
X0120900Y0021333D01*
X0120900Y0020735D02*
X0121700Y0020735D01*
X0121700Y0020136D02*
X0120900Y0020136D01*
X0120856Y0019538D02*
X0121744Y0019538D01*
X0121992Y0018939D02*
X0120608Y0018939D01*
X0120360Y0018341D02*
X0122240Y0018341D01*
X0122612Y0017742D02*
X0119988Y0017742D01*
X0119389Y0017144D02*
X0123211Y0017144D01*
X0123972Y0016545D02*
X0118628Y0016545D01*
X0113972Y0016545D02*
X0057195Y0016545D01*
X0057793Y0017144D02*
X0113211Y0017144D01*
X0112612Y0017742D02*
X0058392Y0017742D01*
X0058843Y0018341D02*
X0112240Y0018341D01*
X0111992Y0018939D02*
X0059091Y0018939D01*
X0059339Y0019538D02*
X0111744Y0019538D01*
X0111700Y0020136D02*
X0059587Y0020136D01*
X0059835Y0020735D02*
X0111700Y0020735D01*
X0128628Y0016545D02*
X0133319Y0016545D01*
X0132645Y0017144D02*
X0129389Y0017144D01*
X0129988Y0017742D02*
X0132167Y0017742D01*
X0131819Y0018341D02*
X0130360Y0018341D01*
X0130608Y0018939D02*
X0131569Y0018939D01*
X0131400Y0019538D02*
X0130856Y0019538D01*
X0130900Y0020136D02*
X0131305Y0020136D01*
X0134341Y0015947D02*
X0056596Y0015947D01*
X0055612Y0015348D02*
X0246025Y0015348D01*
X0246025Y0014750D02*
X0054167Y0014750D01*
X0048765Y0031508D02*
X0024229Y0031508D01*
X0021600Y0031508D02*
X0021000Y0031508D01*
X0021000Y0032106D02*
X0021600Y0032106D01*
X0021600Y0032705D02*
X0021000Y0032705D01*
X0021000Y0033303D02*
X0021600Y0033303D01*
X0021600Y0033902D02*
X0021000Y0033902D01*
X0021000Y0034500D02*
X0021600Y0034500D01*
X0021600Y0035099D02*
X0021000Y0035099D01*
X0021000Y0036894D02*
X0021600Y0036894D01*
X0021600Y0037493D02*
X0021000Y0037493D01*
X0021000Y0038092D02*
X0021600Y0038092D01*
X0021600Y0038690D02*
X0021000Y0038690D01*
X0021000Y0039289D02*
X0021600Y0039289D01*
X0021600Y0039887D02*
X0021000Y0039887D01*
X0022515Y0041084D02*
X0079071Y0041084D01*
X0078130Y0041683D02*
X0023928Y0041683D01*
X0024526Y0042281D02*
X0077508Y0042281D01*
X0077067Y0042880D02*
X0025125Y0042880D01*
X0025417Y0043478D02*
X0076749Y0043478D01*
X0076525Y0044077D02*
X0025665Y0044077D01*
X0025900Y0044675D02*
X0076378Y0044675D01*
X0078523Y0039289D02*
X0024643Y0039289D01*
X0025206Y0038690D02*
X0077925Y0038690D01*
X0077370Y0038092D02*
X0025622Y0038092D01*
X0025927Y0037493D02*
X0077122Y0037493D01*
X0076874Y0036894D02*
X0026124Y0036894D01*
X0026246Y0036296D02*
X0076700Y0036296D01*
X0079726Y0039887D02*
X0023821Y0039887D01*
X0018779Y0039887D02*
X0007498Y0039887D01*
X0007500Y0039289D02*
X0017957Y0039289D01*
X0017394Y0038690D02*
X0007502Y0038690D01*
X0007503Y0038092D02*
X0016978Y0038092D01*
X0016673Y0037493D02*
X0007505Y0037493D01*
X0007507Y0036894D02*
X0016476Y0036894D01*
X0016354Y0036296D02*
X0007509Y0036296D01*
X0007528Y0029712D02*
X0019304Y0029712D01*
X0018348Y0029114D02*
X0007530Y0029114D01*
X0007532Y0028515D02*
X0017750Y0028515D01*
X0017297Y0027917D02*
X0007534Y0027917D01*
X0007535Y0027318D02*
X0017049Y0027318D01*
X0016801Y0026720D02*
X0007537Y0026720D01*
X0007539Y0026121D02*
X0016700Y0026121D01*
X0016700Y0025523D02*
X0007541Y0025523D01*
X0007542Y0024924D02*
X0016700Y0024924D01*
X0016832Y0024326D02*
X0007544Y0024326D01*
X0007546Y0023727D02*
X0017080Y0023727D01*
X0017328Y0023129D02*
X0007548Y0023129D01*
X0007550Y0022530D02*
X0017824Y0022530D01*
X0018423Y0021932D02*
X0007551Y0021932D01*
X0007553Y0021333D02*
X0019484Y0021333D01*
X0021000Y0030909D02*
X0021600Y0030909D01*
X0056940Y0061433D02*
X0079242Y0061433D01*
X0078323Y0062032D02*
X0057538Y0062032D01*
X0058137Y0062630D02*
X0077724Y0062630D01*
X0077287Y0063229D02*
X0058735Y0063229D01*
X0059334Y0063827D02*
X0077039Y0063827D01*
X0076791Y0064426D02*
X0059932Y0064426D01*
X0060531Y0065025D02*
X0076700Y0065025D01*
X0076700Y0065623D02*
X0061129Y0065623D01*
X0061728Y0066222D02*
X0076700Y0066222D01*
X0076843Y0066820D02*
X0062326Y0066820D01*
X0062925Y0067419D02*
X0077091Y0067419D01*
X0081000Y0060236D02*
X0081600Y0060236D01*
X0081600Y0059638D02*
X0081000Y0059638D01*
X0081000Y0059039D02*
X0081600Y0059039D01*
X0081600Y0058441D02*
X0081000Y0058441D01*
X0081000Y0057842D02*
X0081600Y0057842D01*
X0081600Y0057244D02*
X0081000Y0057244D01*
X0081000Y0056645D02*
X0081600Y0056645D01*
X0081600Y0056047D02*
X0081000Y0056047D01*
X0078572Y0081783D02*
X0077289Y0081783D01*
X0077888Y0082381D02*
X0077973Y0082381D01*
X0074276Y0083578D02*
X0025458Y0083578D01*
X0025210Y0082980D02*
X0073678Y0082980D01*
X0073079Y0082381D02*
X0024627Y0082381D01*
X0024028Y0081783D02*
X0072481Y0081783D01*
X0074500Y0084177D02*
X0025706Y0084177D01*
X0025900Y0084775D02*
X0074500Y0084775D01*
X0074500Y0085374D02*
X0025900Y0085374D01*
X0025900Y0085972D02*
X0074500Y0085972D01*
X0074500Y0086571D02*
X0025860Y0086571D01*
X0025612Y0087169D02*
X0074500Y0087169D01*
X0074500Y0087768D02*
X0025364Y0087768D01*
X0024999Y0088366D02*
X0074500Y0088366D01*
X0074500Y0088965D02*
X0024400Y0088965D01*
X0023655Y0089563D02*
X0074500Y0089563D01*
X0074500Y0090162D02*
X0007348Y0090162D01*
X0007350Y0089563D02*
X0018945Y0089563D01*
X0018200Y0088965D02*
X0007352Y0088965D01*
X0007354Y0088366D02*
X0017601Y0088366D01*
X0017236Y0087768D02*
X0007356Y0087768D01*
X0007357Y0087169D02*
X0016988Y0087169D01*
X0016740Y0086571D02*
X0007359Y0086571D01*
X0007361Y0085972D02*
X0016700Y0085972D01*
X0016700Y0085374D02*
X0007363Y0085374D01*
X0007365Y0084775D02*
X0016700Y0084775D01*
X0016894Y0084177D02*
X0007366Y0084177D01*
X0007368Y0083578D02*
X0017142Y0083578D01*
X0017390Y0082980D02*
X0007370Y0082980D01*
X0007372Y0082381D02*
X0017973Y0082381D01*
X0018572Y0081783D02*
X0007373Y0081783D01*
X0007347Y0090761D02*
X0074500Y0090761D01*
X0074500Y0091359D02*
X0023178Y0091359D01*
X0023906Y0091660D02*
X0025200Y0092954D01*
X0025900Y0094645D01*
X0025900Y0096475D01*
X0025442Y0097581D01*
X0031921Y0104060D01*
X0032800Y0104939D01*
X0032800Y0119939D01*
X0061921Y0149060D01*
X0163870Y0149060D01*
X0163910Y0148963D01*
X0164703Y0148170D01*
X0165739Y0147741D01*
X0166861Y0147741D01*
X0167897Y0148170D01*
X0168690Y0148963D01*
X0169119Y0149999D01*
X0169119Y0151121D01*
X0168690Y0152157D01*
X0167897Y0152950D01*
X0166861Y0153379D01*
X0165739Y0153379D01*
X0164703Y0152950D01*
X0163910Y0152157D01*
X0163870Y0152060D01*
X0060679Y0152060D01*
X0059800Y0151181D01*
X0030679Y0122060D01*
X0029800Y0121181D01*
X0029800Y0106181D01*
X0023321Y0099702D01*
X0022215Y0100160D01*
X0020385Y0100160D01*
X0018694Y0099460D01*
X0017400Y0098166D01*
X0016700Y0096475D01*
X0016700Y0094645D01*
X0017400Y0092954D01*
X0018694Y0091660D01*
X0020385Y0090960D01*
X0022215Y0090960D01*
X0023906Y0091660D01*
X0024203Y0091958D02*
X0074500Y0091958D01*
X0074500Y0092556D02*
X0024801Y0092556D01*
X0025283Y0093155D02*
X0074500Y0093155D01*
X0074500Y0093753D02*
X0025531Y0093753D01*
X0025778Y0094352D02*
X0074500Y0094352D01*
X0074500Y0094950D02*
X0025900Y0094950D01*
X0025900Y0095549D02*
X0074500Y0095549D01*
X0074500Y0096147D02*
X0025900Y0096147D01*
X0025788Y0096746D02*
X0074500Y0096746D01*
X0074500Y0097344D02*
X0025540Y0097344D01*
X0025804Y0097943D02*
X0074500Y0097943D01*
X0074500Y0098541D02*
X0026402Y0098541D01*
X0027001Y0099140D02*
X0074500Y0099140D01*
X0074500Y0099738D02*
X0027599Y0099738D01*
X0028198Y0100337D02*
X0074500Y0100337D01*
X0074500Y0100935D02*
X0028797Y0100935D01*
X0029395Y0101534D02*
X0074500Y0101534D01*
X0074500Y0102132D02*
X0029994Y0102132D01*
X0030592Y0102731D02*
X0074500Y0102731D01*
X0074500Y0103329D02*
X0031191Y0103329D01*
X0031789Y0103928D02*
X0074500Y0103928D01*
X0074500Y0104526D02*
X0032388Y0104526D01*
X0032800Y0105125D02*
X0074500Y0105125D01*
X0074500Y0105723D02*
X0032800Y0105723D01*
X0032800Y0106322D02*
X0074500Y0106322D01*
X0074500Y0106920D02*
X0032800Y0106920D01*
X0032800Y0107519D02*
X0074500Y0107519D01*
X0074500Y0108117D02*
X0032800Y0108117D01*
X0032800Y0108716D02*
X0074500Y0108716D01*
X0074500Y0109314D02*
X0032800Y0109314D01*
X0032800Y0109913D02*
X0074500Y0109913D01*
X0074500Y0110511D02*
X0032800Y0110511D01*
X0032800Y0111110D02*
X0074500Y0111110D01*
X0074500Y0111708D02*
X0032800Y0111708D01*
X0032800Y0112307D02*
X0074500Y0112307D01*
X0074500Y0112905D02*
X0032800Y0112905D01*
X0032800Y0113504D02*
X0074500Y0113504D01*
X0074500Y0114102D02*
X0032800Y0114102D01*
X0032800Y0114701D02*
X0074500Y0114701D01*
X0074500Y0115299D02*
X0032800Y0115299D01*
X0032800Y0115898D02*
X0074500Y0115898D01*
X0074500Y0116496D02*
X0032800Y0116496D01*
X0032800Y0117095D02*
X0074500Y0117095D01*
X0074500Y0117694D02*
X0032800Y0117694D01*
X0032800Y0118292D02*
X0074500Y0118292D01*
X0074500Y0118891D02*
X0032800Y0118891D01*
X0032800Y0119489D02*
X0074500Y0119489D01*
X0074500Y0120088D02*
X0032949Y0120088D01*
X0033547Y0120686D02*
X0074500Y0120686D01*
X0074500Y0121285D02*
X0034146Y0121285D01*
X0034744Y0121883D02*
X0074500Y0121883D01*
X0074500Y0122482D02*
X0035343Y0122482D01*
X0035941Y0123080D02*
X0074500Y0123080D01*
X0074500Y0123679D02*
X0036540Y0123679D01*
X0037138Y0124277D02*
X0074500Y0124277D01*
X0074500Y0124876D02*
X0037737Y0124876D01*
X0038335Y0125474D02*
X0074500Y0125474D01*
X0074500Y0126073D02*
X0038934Y0126073D01*
X0039533Y0126671D02*
X0074500Y0126671D01*
X0074500Y0127270D02*
X0040131Y0127270D01*
X0040730Y0127868D02*
X0074500Y0127868D01*
X0074500Y0128467D02*
X0041328Y0128467D01*
X0041927Y0129065D02*
X0074500Y0129065D01*
X0074500Y0129664D02*
X0042525Y0129664D01*
X0043124Y0130262D02*
X0074500Y0130262D01*
X0074500Y0130861D02*
X0043722Y0130861D01*
X0044321Y0131459D02*
X0074500Y0131459D01*
X0074500Y0132058D02*
X0044919Y0132058D01*
X0045518Y0132656D02*
X0074500Y0132656D01*
X0074500Y0133255D02*
X0046116Y0133255D01*
X0046715Y0133853D02*
X0074500Y0133853D01*
X0074500Y0134452D02*
X0047313Y0134452D01*
X0047912Y0135050D02*
X0074500Y0135050D01*
X0074500Y0135649D02*
X0048510Y0135649D01*
X0049109Y0136247D02*
X0074500Y0136247D01*
X0074500Y0136846D02*
X0049707Y0136846D01*
X0050306Y0137444D02*
X0074500Y0137444D01*
X0074500Y0138043D02*
X0050904Y0138043D01*
X0051503Y0138641D02*
X0074765Y0138641D01*
X0075363Y0139240D02*
X0052101Y0139240D01*
X0052700Y0139838D02*
X0075962Y0139838D01*
X0075496Y0139372D02*
X0075496Y0139372D01*
X0076560Y0140437D02*
X0053298Y0140437D01*
X0053897Y0141035D02*
X0077159Y0141035D01*
X0077488Y0141364D02*
X0077488Y0141364D01*
X0077757Y0141634D02*
X0054495Y0141634D01*
X0055094Y0142232D02*
X0078356Y0142232D01*
X0087132Y0142232D02*
X0110871Y0142232D01*
X0110700Y0142831D02*
X0055692Y0142831D01*
X0056291Y0143430D02*
X0110700Y0143430D01*
X0110700Y0144028D02*
X0056889Y0144028D01*
X0057488Y0144627D02*
X0110763Y0144627D01*
X0111011Y0145225D02*
X0058086Y0145225D01*
X0058685Y0145824D02*
X0111259Y0145824D01*
X0111657Y0146422D02*
X0059283Y0146422D01*
X0059882Y0147021D02*
X0112255Y0147021D01*
X0113079Y0147619D02*
X0060480Y0147619D01*
X0061079Y0148218D02*
X0123454Y0148218D01*
X0122380Y0147619D02*
X0117521Y0147619D01*
X0118345Y0147021D02*
X0121690Y0147021D01*
X0121199Y0146422D02*
X0118943Y0146422D01*
X0119341Y0145824D02*
X0120842Y0145824D01*
X0120584Y0145225D02*
X0119589Y0145225D01*
X0119837Y0144627D02*
X0120407Y0144627D01*
X0120312Y0144028D02*
X0119900Y0144028D01*
X0119900Y0143430D02*
X0125000Y0143430D01*
X0125000Y0144028D02*
X0125600Y0144028D01*
X0125600Y0143860D02*
X0125600Y0148560D01*
X0125694Y0148560D01*
X0126471Y0148437D01*
X0127219Y0148194D01*
X0127921Y0147836D01*
X0128557Y0147374D01*
X0129114Y0146817D01*
X0129576Y0146181D01*
X0129934Y0145479D01*
X0130177Y0144731D01*
X0130300Y0143953D01*
X0130300Y0143860D01*
X0125600Y0143860D01*
X0125600Y0143430D02*
X0264511Y0143430D01*
X0264510Y0144028D02*
X0130288Y0144028D01*
X0130193Y0144627D02*
X0264508Y0144627D01*
X0264506Y0145225D02*
X0130016Y0145225D01*
X0129758Y0145824D02*
X0264504Y0145824D01*
X0264503Y0146422D02*
X0129401Y0146422D01*
X0128910Y0147021D02*
X0264501Y0147021D01*
X0264499Y0147619D02*
X0128220Y0147619D01*
X0127146Y0148218D02*
X0164655Y0148218D01*
X0164057Y0148816D02*
X0061677Y0148816D01*
X0059829Y0151210D02*
X0059071Y0151210D01*
X0059230Y0150612D02*
X0058473Y0150612D01*
X0058632Y0150013D02*
X0057874Y0150013D01*
X0058033Y0149415D02*
X0057276Y0149415D01*
X0057435Y0148816D02*
X0056677Y0148816D01*
X0056836Y0148218D02*
X0056079Y0148218D01*
X0056238Y0147619D02*
X0055480Y0147619D01*
X0055639Y0147021D02*
X0054882Y0147021D01*
X0055041Y0146422D02*
X0054283Y0146422D01*
X0054442Y0145824D02*
X0053685Y0145824D01*
X0053844Y0145225D02*
X0053086Y0145225D01*
X0053245Y0144627D02*
X0052488Y0144627D01*
X0052647Y0144028D02*
X0051889Y0144028D01*
X0052048Y0143430D02*
X0051291Y0143430D01*
X0051450Y0142831D02*
X0050692Y0142831D01*
X0050851Y0142232D02*
X0050094Y0142232D01*
X0050253Y0141634D02*
X0049495Y0141634D01*
X0049654Y0141035D02*
X0048897Y0141035D01*
X0049056Y0140437D02*
X0048298Y0140437D01*
X0048457Y0139838D02*
X0047700Y0139838D01*
X0047859Y0139240D02*
X0047101Y0139240D01*
X0047260Y0138641D02*
X0046503Y0138641D01*
X0046662Y0138043D02*
X0045904Y0138043D01*
X0046063Y0137444D02*
X0045306Y0137444D01*
X0045465Y0136846D02*
X0044707Y0136846D01*
X0044866Y0136247D02*
X0044109Y0136247D01*
X0044268Y0135649D02*
X0043510Y0135649D01*
X0043669Y0135050D02*
X0042912Y0135050D01*
X0043071Y0134452D02*
X0042313Y0134452D01*
X0042472Y0133853D02*
X0041715Y0133853D01*
X0041873Y0133255D02*
X0041116Y0133255D01*
X0041275Y0132656D02*
X0040518Y0132656D01*
X0040676Y0132058D02*
X0039919Y0132058D01*
X0040078Y0131459D02*
X0039321Y0131459D01*
X0039479Y0130861D02*
X0038722Y0130861D01*
X0038881Y0130262D02*
X0038124Y0130262D01*
X0038282Y0129664D02*
X0037525Y0129664D01*
X0037684Y0129065D02*
X0036927Y0129065D01*
X0037085Y0128467D02*
X0036328Y0128467D01*
X0036487Y0127868D02*
X0035730Y0127868D01*
X0035888Y0127270D02*
X0035131Y0127270D01*
X0035290Y0126671D02*
X0034533Y0126671D01*
X0034691Y0126073D02*
X0033934Y0126073D01*
X0034093Y0125474D02*
X0033335Y0125474D01*
X0033494Y0124876D02*
X0032737Y0124876D01*
X0032896Y0124277D02*
X0032138Y0124277D01*
X0032297Y0123679D02*
X0031540Y0123679D01*
X0031699Y0123080D02*
X0030941Y0123080D01*
X0031100Y0122482D02*
X0030343Y0122482D01*
X0030502Y0121883D02*
X0029744Y0121883D01*
X0029903Y0121285D02*
X0029146Y0121285D01*
X0028547Y0120686D02*
X0029800Y0120686D01*
X0029800Y0120088D02*
X0027949Y0120088D01*
X0027350Y0119489D02*
X0029800Y0119489D01*
X0029800Y0118891D02*
X0026752Y0118891D01*
X0026153Y0118292D02*
X0029800Y0118292D01*
X0029800Y0117694D02*
X0025555Y0117694D01*
X0025442Y0117581D02*
X0061921Y0154060D01*
X0170679Y0154060D01*
X0174800Y0149939D01*
X0175679Y0149060D01*
X0206921Y0149060D01*
X0209279Y0151418D01*
X0210385Y0150960D01*
X0212215Y0150960D01*
X0213906Y0151660D01*
X0215200Y0152954D01*
X0215900Y0154645D01*
X0215900Y0156475D01*
X0215200Y0158166D01*
X0214305Y0159060D01*
X0215679Y0159060D01*
X0217158Y0157581D01*
X0216700Y0156475D01*
X0216700Y0154645D01*
X0217400Y0152954D01*
X0218694Y0151660D01*
X0220385Y0150960D01*
X0222215Y0150960D01*
X0223906Y0151660D01*
X0225200Y0152954D01*
X0225900Y0154645D01*
X0225900Y0156475D01*
X0225200Y0158166D01*
X0223906Y0159460D01*
X0222215Y0160160D01*
X0220385Y0160160D01*
X0219279Y0159702D01*
X0216921Y0162060D01*
X0055679Y0162060D01*
X0054800Y0161181D01*
X0023321Y0129702D01*
X0022215Y0130160D01*
X0020385Y0130160D01*
X0018694Y0129460D01*
X0017400Y0128166D01*
X0016700Y0126475D01*
X0016700Y0124645D01*
X0017400Y0122954D01*
X0018694Y0121660D01*
X0020385Y0120960D01*
X0022215Y0120960D01*
X0023906Y0121660D01*
X0025200Y0122954D01*
X0025900Y0124645D01*
X0025900Y0126475D01*
X0025442Y0127581D01*
X0056921Y0159060D01*
X0178295Y0159060D01*
X0177400Y0158166D01*
X0176700Y0156475D01*
X0176700Y0154645D01*
X0177400Y0152954D01*
X0178295Y0152060D01*
X0176921Y0152060D01*
X0171921Y0157060D01*
X0060679Y0157060D01*
X0059800Y0156181D01*
X0023321Y0119702D01*
X0022215Y0120160D01*
X0020385Y0120160D01*
X0018694Y0119460D01*
X0017400Y0118166D01*
X0016700Y0116475D01*
X0016700Y0114645D01*
X0017400Y0112954D01*
X0018694Y0111660D01*
X0020385Y0110960D01*
X0022215Y0110960D01*
X0023906Y0111660D01*
X0025200Y0112954D01*
X0025900Y0114645D01*
X0025900Y0116475D01*
X0025442Y0117581D01*
X0025643Y0117095D02*
X0029800Y0117095D01*
X0029800Y0116496D02*
X0025891Y0116496D01*
X0025900Y0115898D02*
X0029800Y0115898D01*
X0029800Y0115299D02*
X0025900Y0115299D01*
X0025900Y0114701D02*
X0029800Y0114701D01*
X0029800Y0114102D02*
X0025675Y0114102D01*
X0025427Y0113504D02*
X0029800Y0113504D01*
X0029800Y0112905D02*
X0025151Y0112905D01*
X0024552Y0112307D02*
X0029800Y0112307D01*
X0029800Y0111708D02*
X0023954Y0111708D01*
X0022577Y0111110D02*
X0029800Y0111110D01*
X0029800Y0110511D02*
X0007288Y0110511D01*
X0007290Y0109913D02*
X0019788Y0109913D01*
X0020385Y0110160D02*
X0018694Y0109460D01*
X0017400Y0108166D01*
X0016700Y0106475D01*
X0016700Y0104645D01*
X0017400Y0102954D01*
X0018694Y0101660D01*
X0020385Y0100960D01*
X0022215Y0100960D01*
X0023906Y0101660D01*
X0025200Y0102954D01*
X0025900Y0104645D01*
X0025900Y0106475D01*
X0025200Y0108166D01*
X0023906Y0109460D01*
X0022215Y0110160D01*
X0020385Y0110160D01*
X0020023Y0111110D02*
X0007286Y0111110D01*
X0007284Y0111708D02*
X0018646Y0111708D01*
X0018048Y0112307D02*
X0007283Y0112307D01*
X0007281Y0112905D02*
X0017449Y0112905D01*
X0017173Y0113504D02*
X0007279Y0113504D01*
X0007277Y0114102D02*
X0016925Y0114102D01*
X0016700Y0114701D02*
X0007276Y0114701D01*
X0007274Y0115299D02*
X0016700Y0115299D01*
X0016700Y0115898D02*
X0007272Y0115898D01*
X0007270Y0116496D02*
X0016709Y0116496D01*
X0016957Y0117095D02*
X0007268Y0117095D01*
X0007267Y0117694D02*
X0017205Y0117694D01*
X0017527Y0118292D02*
X0007265Y0118292D01*
X0007263Y0118891D02*
X0018125Y0118891D01*
X0018765Y0119489D02*
X0007261Y0119489D01*
X0007260Y0120088D02*
X0020210Y0120088D01*
X0019601Y0121285D02*
X0007256Y0121285D01*
X0007254Y0121883D02*
X0018472Y0121883D01*
X0017873Y0122482D02*
X0007252Y0122482D01*
X0007251Y0123080D02*
X0017348Y0123080D01*
X0017100Y0123679D02*
X0007249Y0123679D01*
X0007247Y0124277D02*
X0016852Y0124277D01*
X0016700Y0124876D02*
X0007245Y0124876D01*
X0007244Y0125474D02*
X0016700Y0125474D01*
X0016700Y0126073D02*
X0007242Y0126073D01*
X0007240Y0126671D02*
X0016781Y0126671D01*
X0017029Y0127270D02*
X0007238Y0127270D01*
X0007236Y0127868D02*
X0017277Y0127868D01*
X0017701Y0128467D02*
X0007235Y0128467D01*
X0007233Y0129065D02*
X0018300Y0129065D01*
X0019187Y0129664D02*
X0007231Y0129664D01*
X0007229Y0130262D02*
X0023881Y0130262D01*
X0024479Y0130861D02*
X0007228Y0130861D01*
X0007226Y0131459D02*
X0019180Y0131459D01*
X0018694Y0131660D02*
X0020385Y0130960D01*
X0022215Y0130960D01*
X0023906Y0131660D01*
X0025200Y0132954D01*
X0025900Y0134645D01*
X0025900Y0136475D01*
X0025200Y0138166D01*
X0023906Y0139460D01*
X0022215Y0140160D01*
X0020385Y0140160D01*
X0018694Y0139460D01*
X0017400Y0138166D01*
X0016700Y0136475D01*
X0016700Y0134645D01*
X0017400Y0132954D01*
X0018694Y0131660D01*
X0018297Y0132058D02*
X0007224Y0132058D01*
X0007222Y0132656D02*
X0017698Y0132656D01*
X0017276Y0133255D02*
X0007220Y0133255D01*
X0007219Y0133853D02*
X0017028Y0133853D01*
X0016780Y0134452D02*
X0007217Y0134452D01*
X0007215Y0135050D02*
X0016700Y0135050D01*
X0016700Y0135649D02*
X0007213Y0135649D01*
X0007212Y0136247D02*
X0016700Y0136247D01*
X0016854Y0136846D02*
X0007210Y0136846D01*
X0007208Y0137444D02*
X0017102Y0137444D01*
X0017349Y0138043D02*
X0007206Y0138043D01*
X0007204Y0138641D02*
X0017876Y0138641D01*
X0018475Y0139240D02*
X0007203Y0139240D01*
X0007201Y0139838D02*
X0019609Y0139838D01*
X0022991Y0139838D02*
X0033457Y0139838D01*
X0032859Y0139240D02*
X0024125Y0139240D01*
X0024724Y0138641D02*
X0032260Y0138641D01*
X0031662Y0138043D02*
X0025251Y0138043D01*
X0025498Y0137444D02*
X0031063Y0137444D01*
X0030465Y0136846D02*
X0025746Y0136846D01*
X0025900Y0136247D02*
X0029866Y0136247D01*
X0029268Y0135649D02*
X0025900Y0135649D01*
X0025900Y0135050D02*
X0028669Y0135050D01*
X0028071Y0134452D02*
X0025820Y0134452D01*
X0025572Y0133853D02*
X0027472Y0133853D01*
X0026874Y0133255D02*
X0025324Y0133255D01*
X0024902Y0132656D02*
X0026275Y0132656D01*
X0025676Y0132058D02*
X0024303Y0132058D01*
X0025078Y0131459D02*
X0023420Y0131459D01*
X0026328Y0128467D02*
X0032085Y0128467D01*
X0031487Y0127868D02*
X0025730Y0127868D01*
X0025571Y0127270D02*
X0030888Y0127270D01*
X0030290Y0126671D02*
X0025819Y0126671D01*
X0025900Y0126073D02*
X0029691Y0126073D01*
X0029093Y0125474D02*
X0025900Y0125474D01*
X0025900Y0124876D02*
X0028494Y0124876D01*
X0027896Y0124277D02*
X0025748Y0124277D01*
X0025500Y0123679D02*
X0027297Y0123679D01*
X0026699Y0123080D02*
X0025252Y0123080D01*
X0024727Y0122482D02*
X0026100Y0122482D01*
X0025502Y0121883D02*
X0024128Y0121883D01*
X0024903Y0121285D02*
X0022999Y0121285D01*
X0022390Y0120088D02*
X0023706Y0120088D01*
X0024305Y0120686D02*
X0007258Y0120686D01*
X0022812Y0109913D02*
X0029800Y0109913D01*
X0029800Y0109314D02*
X0024051Y0109314D01*
X0024650Y0108716D02*
X0029800Y0108716D01*
X0029800Y0108117D02*
X0025220Y0108117D01*
X0025468Y0107519D02*
X0029800Y0107519D01*
X0029800Y0106920D02*
X0025716Y0106920D01*
X0025900Y0106322D02*
X0029800Y0106322D01*
X0029342Y0105723D02*
X0025900Y0105723D01*
X0025900Y0105125D02*
X0028743Y0105125D01*
X0028145Y0104526D02*
X0025851Y0104526D01*
X0025603Y0103928D02*
X0027546Y0103928D01*
X0026948Y0103329D02*
X0025355Y0103329D01*
X0024976Y0102731D02*
X0026349Y0102731D01*
X0025751Y0102132D02*
X0024378Y0102132D01*
X0025152Y0101534D02*
X0023600Y0101534D01*
X0024554Y0100935D02*
X0007316Y0100935D01*
X0007318Y0100337D02*
X0023955Y0100337D01*
X0023357Y0099738D02*
X0023233Y0099738D01*
X0019367Y0099738D02*
X0007320Y0099738D01*
X0007322Y0099140D02*
X0018374Y0099140D01*
X0017776Y0098541D02*
X0007324Y0098541D01*
X0007325Y0097943D02*
X0017308Y0097943D01*
X0017060Y0097344D02*
X0007327Y0097344D01*
X0007329Y0096746D02*
X0016812Y0096746D01*
X0016700Y0096147D02*
X0007331Y0096147D01*
X0007332Y0095549D02*
X0016700Y0095549D01*
X0016700Y0094950D02*
X0007334Y0094950D01*
X0007336Y0094352D02*
X0016822Y0094352D01*
X0017069Y0093753D02*
X0007338Y0093753D01*
X0007340Y0093155D02*
X0017317Y0093155D01*
X0017799Y0092556D02*
X0007341Y0092556D01*
X0007343Y0091958D02*
X0018397Y0091958D01*
X0019422Y0091359D02*
X0007345Y0091359D01*
X0007315Y0101534D02*
X0019000Y0101534D01*
X0018222Y0102132D02*
X0007313Y0102132D01*
X0007311Y0102731D02*
X0017624Y0102731D01*
X0017245Y0103329D02*
X0007309Y0103329D01*
X0007308Y0103928D02*
X0016997Y0103928D01*
X0016749Y0104526D02*
X0007306Y0104526D01*
X0007304Y0105125D02*
X0016700Y0105125D01*
X0016700Y0105723D02*
X0007302Y0105723D01*
X0007300Y0106322D02*
X0016700Y0106322D01*
X0016884Y0106920D02*
X0007299Y0106920D01*
X0007297Y0107519D02*
X0017132Y0107519D01*
X0017380Y0108117D02*
X0007295Y0108117D01*
X0007293Y0108716D02*
X0017950Y0108716D01*
X0018549Y0109314D02*
X0007292Y0109314D01*
X0026927Y0129065D02*
X0032684Y0129065D01*
X0033282Y0129664D02*
X0027525Y0129664D01*
X0028124Y0130262D02*
X0033881Y0130262D01*
X0034479Y0130861D02*
X0028722Y0130861D01*
X0029321Y0131459D02*
X0035078Y0131459D01*
X0035676Y0132058D02*
X0029919Y0132058D01*
X0030518Y0132656D02*
X0036275Y0132656D01*
X0036874Y0133255D02*
X0031116Y0133255D01*
X0031715Y0133853D02*
X0037472Y0133853D01*
X0038071Y0134452D02*
X0032313Y0134452D01*
X0032912Y0135050D02*
X0038669Y0135050D01*
X0039268Y0135649D02*
X0033510Y0135649D01*
X0034109Y0136247D02*
X0039866Y0136247D01*
X0040465Y0136846D02*
X0034707Y0136846D01*
X0035306Y0137444D02*
X0041063Y0137444D01*
X0041662Y0138043D02*
X0035904Y0138043D01*
X0036503Y0138641D02*
X0042260Y0138641D01*
X0042859Y0139240D02*
X0037101Y0139240D01*
X0037700Y0139838D02*
X0043457Y0139838D01*
X0044056Y0140437D02*
X0038298Y0140437D01*
X0038897Y0141035D02*
X0044654Y0141035D01*
X0045253Y0141634D02*
X0039495Y0141634D01*
X0040094Y0142232D02*
X0045851Y0142232D01*
X0046450Y0142831D02*
X0040692Y0142831D01*
X0041291Y0143430D02*
X0047048Y0143430D01*
X0047647Y0144028D02*
X0041889Y0144028D01*
X0042488Y0144627D02*
X0048245Y0144627D01*
X0048844Y0145225D02*
X0043086Y0145225D01*
X0043685Y0145824D02*
X0049442Y0145824D01*
X0050041Y0146422D02*
X0044283Y0146422D01*
X0044882Y0147021D02*
X0050639Y0147021D01*
X0051238Y0147619D02*
X0045480Y0147619D01*
X0046079Y0148218D02*
X0051836Y0148218D01*
X0052435Y0148816D02*
X0046677Y0148816D01*
X0047276Y0149415D02*
X0053033Y0149415D01*
X0053632Y0150013D02*
X0047874Y0150013D01*
X0048473Y0150612D02*
X0054230Y0150612D01*
X0054829Y0151210D02*
X0049071Y0151210D01*
X0049670Y0151809D02*
X0055427Y0151809D01*
X0056026Y0152407D02*
X0050268Y0152407D01*
X0050867Y0153006D02*
X0056624Y0153006D01*
X0057223Y0153604D02*
X0051466Y0153604D01*
X0052064Y0154203D02*
X0057821Y0154203D01*
X0058420Y0154801D02*
X0052663Y0154801D01*
X0053261Y0155400D02*
X0059018Y0155400D01*
X0059617Y0155998D02*
X0053860Y0155998D01*
X0054458Y0156597D02*
X0060215Y0156597D01*
X0061466Y0153604D02*
X0171134Y0153604D01*
X0171733Y0153006D02*
X0167763Y0153006D01*
X0168440Y0152407D02*
X0172331Y0152407D01*
X0172930Y0151809D02*
X0168834Y0151809D01*
X0169082Y0151210D02*
X0173529Y0151210D01*
X0174127Y0150612D02*
X0169119Y0150612D01*
X0169119Y0150013D02*
X0174726Y0150013D01*
X0175324Y0149415D02*
X0168877Y0149415D01*
X0168543Y0148816D02*
X0264495Y0148816D01*
X0264497Y0148218D02*
X0167945Y0148218D01*
X0164160Y0152407D02*
X0060268Y0152407D01*
X0060427Y0151809D02*
X0059670Y0151809D01*
X0060867Y0153006D02*
X0164837Y0153006D01*
X0172385Y0156597D02*
X0176750Y0156597D01*
X0176700Y0155998D02*
X0172983Y0155998D01*
X0173582Y0155400D02*
X0176700Y0155400D01*
X0176700Y0154801D02*
X0174180Y0154801D01*
X0174779Y0154203D02*
X0176883Y0154203D01*
X0177131Y0153604D02*
X0175377Y0153604D01*
X0175976Y0153006D02*
X0177379Y0153006D01*
X0177947Y0152407D02*
X0176574Y0152407D01*
X0176998Y0157195D02*
X0055057Y0157195D01*
X0055655Y0157794D02*
X0177246Y0157794D01*
X0177627Y0158392D02*
X0056254Y0158392D01*
X0056852Y0158991D02*
X0178225Y0158991D01*
X0171100Y0138043D02*
X0170500Y0138043D01*
X0170500Y0137444D02*
X0171100Y0137444D01*
X0171100Y0136846D02*
X0170500Y0136846D01*
X0170500Y0136247D02*
X0171100Y0136247D01*
X0171100Y0135649D02*
X0170500Y0135649D01*
X0170500Y0135050D02*
X0171100Y0135050D01*
X0171100Y0134452D02*
X0170500Y0134452D01*
X0170500Y0133853D02*
X0165400Y0133853D01*
X0165400Y0133255D02*
X0165800Y0133255D01*
X0165881Y0132656D02*
X0165400Y0132656D01*
X0165157Y0132058D02*
X0166031Y0132058D01*
X0166259Y0131459D02*
X0164909Y0131459D01*
X0164606Y0130861D02*
X0166581Y0130861D01*
X0167027Y0130262D02*
X0164008Y0130262D01*
X0163409Y0129664D02*
X0167656Y0129664D01*
X0168608Y0129065D02*
X0161969Y0129065D01*
X0156184Y0123080D02*
X0264572Y0123080D01*
X0264574Y0122482D02*
X0156783Y0122482D01*
X0157381Y0121883D02*
X0264575Y0121883D01*
X0264577Y0121285D02*
X0157980Y0121285D01*
X0158578Y0120686D02*
X0264579Y0120686D01*
X0264581Y0120088D02*
X0159177Y0120088D01*
X0159775Y0119489D02*
X0264583Y0119489D01*
X0264584Y0118891D02*
X0160374Y0118891D01*
X0160972Y0118292D02*
X0264586Y0118292D01*
X0264588Y0117694D02*
X0161571Y0117694D01*
X0155565Y0118891D02*
X0127000Y0118891D01*
X0127000Y0119489D02*
X0154967Y0119489D01*
X0154368Y0120088D02*
X0127000Y0120088D01*
X0127000Y0120686D02*
X0153770Y0120686D01*
X0153171Y0121285D02*
X0127000Y0121285D01*
X0127000Y0121883D02*
X0152573Y0121883D01*
X0151974Y0122482D02*
X0127000Y0122482D01*
X0127000Y0123080D02*
X0151376Y0123080D01*
X0153790Y0125474D02*
X0264565Y0125474D01*
X0264567Y0124876D02*
X0154388Y0124876D01*
X0154987Y0124277D02*
X0264568Y0124277D01*
X0264570Y0123679D02*
X0155586Y0123679D01*
X0170500Y0129065D02*
X0171100Y0129065D01*
X0171100Y0128560D02*
X0171194Y0128560D01*
X0171971Y0128683D01*
X0172719Y0128926D01*
X0173421Y0129284D01*
X0174057Y0129746D01*
X0174614Y0130303D01*
X0175076Y0130939D01*
X0175434Y0131641D01*
X0175677Y0132389D01*
X0175800Y0133166D01*
X0175800Y0133260D01*
X0171100Y0133260D01*
X0171100Y0128560D01*
X0171100Y0129664D02*
X0170500Y0129664D01*
X0170500Y0130262D02*
X0171100Y0130262D01*
X0171100Y0130861D02*
X0170500Y0130861D01*
X0170500Y0131459D02*
X0171100Y0131459D01*
X0171100Y0132058D02*
X0170500Y0132058D01*
X0170500Y0132656D02*
X0171100Y0132656D01*
X0171100Y0133255D02*
X0170500Y0133255D01*
X0171100Y0133853D02*
X0227588Y0133853D01*
X0227230Y0133255D02*
X0175800Y0133255D01*
X0175719Y0132656D02*
X0226982Y0132656D01*
X0226734Y0132058D02*
X0175569Y0132058D01*
X0175341Y0131459D02*
X0226700Y0131459D01*
X0226700Y0130861D02*
X0175019Y0130861D01*
X0174573Y0130262D02*
X0226700Y0130262D01*
X0226899Y0129664D02*
X0173944Y0129664D01*
X0172992Y0129065D02*
X0227147Y0129065D01*
X0232725Y0126671D02*
X0239875Y0126671D01*
X0238585Y0127270D02*
X0234015Y0127270D01*
X0234614Y0127868D02*
X0237986Y0127868D01*
X0237395Y0128467D02*
X0235205Y0128467D01*
X0235453Y0129065D02*
X0237147Y0129065D01*
X0236899Y0129664D02*
X0235701Y0129664D01*
X0235900Y0130262D02*
X0236700Y0130262D01*
X0236700Y0130861D02*
X0235900Y0130861D01*
X0235900Y0131459D02*
X0236700Y0131459D01*
X0236734Y0132058D02*
X0235866Y0132058D01*
X0235618Y0132656D02*
X0236982Y0132656D01*
X0237230Y0133255D02*
X0235370Y0133255D01*
X0235012Y0133853D02*
X0237588Y0133853D01*
X0238186Y0134452D02*
X0234414Y0134452D01*
X0233687Y0135050D02*
X0238913Y0135050D01*
X0240358Y0135649D02*
X0232242Y0135649D01*
X0230358Y0135649D02*
X0175347Y0135649D01*
X0175573Y0135050D02*
X0228913Y0135050D01*
X0228186Y0134452D02*
X0175721Y0134452D01*
X0168585Y0138043D02*
X0161998Y0138043D01*
X0163421Y0137444D02*
X0167640Y0137444D01*
X0167015Y0136846D02*
X0164019Y0136846D01*
X0164618Y0136247D02*
X0166572Y0136247D01*
X0166253Y0135649D02*
X0164914Y0135649D01*
X0165162Y0135050D02*
X0166027Y0135050D01*
X0165879Y0134452D02*
X0165400Y0134452D01*
X0159602Y0138043D02*
X0091321Y0138043D01*
X0091920Y0137444D02*
X0158179Y0137444D01*
X0132567Y0133255D02*
X0127193Y0133255D01*
X0128209Y0132656D02*
X0131825Y0132656D01*
X0131298Y0132058D02*
X0128808Y0132058D01*
X0129285Y0131459D02*
X0130911Y0131459D01*
X0130628Y0130861D02*
X0129533Y0130861D01*
X0129781Y0130262D02*
X0130433Y0130262D01*
X0130333Y0129664D02*
X0129900Y0129664D01*
X0123407Y0133255D02*
X0117193Y0133255D01*
X0118209Y0132656D02*
X0122391Y0132656D01*
X0121792Y0132058D02*
X0118808Y0132058D01*
X0119285Y0131459D02*
X0121315Y0131459D01*
X0121067Y0130861D02*
X0119533Y0130861D01*
X0119781Y0130262D02*
X0120819Y0130262D01*
X0120700Y0129664D02*
X0119900Y0129664D01*
X0119900Y0129065D02*
X0120700Y0129065D01*
X0120700Y0128467D02*
X0119900Y0128467D01*
X0119785Y0127868D02*
X0120815Y0127868D01*
X0121063Y0127270D02*
X0119537Y0127270D01*
X0119290Y0126671D02*
X0121310Y0126671D01*
X0121782Y0126073D02*
X0118818Y0126073D01*
X0118220Y0125474D02*
X0122380Y0125474D01*
X0135600Y0113504D02*
X0185952Y0113504D01*
X0188366Y0115898D02*
X0264593Y0115898D01*
X0264591Y0116496D02*
X0187768Y0116496D01*
X0187169Y0117095D02*
X0264590Y0117095D01*
X0264595Y0115299D02*
X0188965Y0115299D01*
X0189563Y0114701D02*
X0264597Y0114701D01*
X0264599Y0114102D02*
X0190162Y0114102D01*
X0190760Y0113504D02*
X0264600Y0113504D01*
X0264602Y0112905D02*
X0191359Y0112905D01*
X0191957Y0112307D02*
X0264604Y0112307D01*
X0264606Y0111708D02*
X0192556Y0111708D01*
X0193154Y0111110D02*
X0264607Y0111110D01*
X0264609Y0110511D02*
X0193753Y0110511D01*
X0194351Y0109913D02*
X0264611Y0109913D01*
X0264613Y0109314D02*
X0194950Y0109314D01*
X0195548Y0108716D02*
X0264615Y0108716D01*
X0264616Y0108117D02*
X0196147Y0108117D01*
X0196745Y0107519D02*
X0264618Y0107519D01*
X0264620Y0106920D02*
X0197344Y0106920D01*
X0197942Y0106322D02*
X0264622Y0106322D01*
X0264623Y0105723D02*
X0198000Y0105723D01*
X0198000Y0105125D02*
X0264625Y0105125D01*
X0264627Y0104526D02*
X0198000Y0104526D01*
X0198000Y0103928D02*
X0264629Y0103928D01*
X0264631Y0103329D02*
X0198000Y0103329D01*
X0198000Y0102731D02*
X0264632Y0102731D01*
X0264634Y0102132D02*
X0198000Y0102132D01*
X0198000Y0101534D02*
X0264636Y0101534D01*
X0264638Y0100935D02*
X0198000Y0100935D01*
X0198000Y0100337D02*
X0264640Y0100337D01*
X0264641Y0099738D02*
X0198000Y0099738D01*
X0198000Y0099140D02*
X0264643Y0099140D01*
X0264645Y0098541D02*
X0198000Y0098541D01*
X0198000Y0097943D02*
X0264647Y0097943D01*
X0264648Y0097344D02*
X0198000Y0097344D01*
X0198000Y0096746D02*
X0264650Y0096746D01*
X0264652Y0096147D02*
X0198000Y0096147D01*
X0198000Y0095549D02*
X0264654Y0095549D01*
X0264656Y0094950D02*
X0198000Y0094950D01*
X0198000Y0094352D02*
X0264657Y0094352D01*
X0264659Y0093753D02*
X0198000Y0093753D01*
X0198000Y0093155D02*
X0264661Y0093155D01*
X0264663Y0092556D02*
X0198000Y0092556D01*
X0198000Y0091958D02*
X0264664Y0091958D01*
X0264666Y0091359D02*
X0198000Y0091359D01*
X0198000Y0090761D02*
X0264668Y0090761D01*
X0264670Y0090162D02*
X0198000Y0090162D01*
X0198000Y0089563D02*
X0264672Y0089563D01*
X0264673Y0088965D02*
X0198000Y0088965D01*
X0198000Y0088366D02*
X0264675Y0088366D01*
X0264677Y0087768D02*
X0198000Y0087768D01*
X0198000Y0087169D02*
X0264679Y0087169D01*
X0264680Y0086571D02*
X0198000Y0086571D01*
X0198000Y0085972D02*
X0264682Y0085972D01*
X0264684Y0085374D02*
X0198000Y0085374D01*
X0198000Y0084775D02*
X0264686Y0084775D01*
X0264688Y0084177D02*
X0198000Y0084177D01*
X0198000Y0083578D02*
X0264689Y0083578D01*
X0264691Y0082980D02*
X0198000Y0082980D01*
X0198000Y0082381D02*
X0264693Y0082381D01*
X0264695Y0081783D02*
X0198000Y0081783D01*
X0198000Y0081184D02*
X0264696Y0081184D01*
X0264698Y0080586D02*
X0198000Y0080586D01*
X0198000Y0079987D02*
X0264700Y0079987D01*
X0264702Y0079389D02*
X0198000Y0079389D01*
X0198000Y0078790D02*
X0264704Y0078790D01*
X0264705Y0078192D02*
X0198000Y0078192D01*
X0198000Y0077593D02*
X0264707Y0077593D01*
X0264709Y0076995D02*
X0198000Y0076995D01*
X0198000Y0076396D02*
X0264711Y0076396D01*
X0264712Y0075798D02*
X0198000Y0075798D01*
X0198000Y0075199D02*
X0227898Y0075199D01*
X0226855Y0074601D02*
X0198000Y0074601D01*
X0198000Y0074002D02*
X0226171Y0074002D01*
X0225686Y0073404D02*
X0198000Y0073404D01*
X0198000Y0072805D02*
X0225332Y0072805D01*
X0225078Y0072207D02*
X0198000Y0072207D01*
X0198000Y0071608D02*
X0224904Y0071608D01*
X0224809Y0071010D02*
X0198000Y0071010D01*
X0183572Y0081783D02*
X0179028Y0081783D01*
X0179627Y0082381D02*
X0182973Y0082381D01*
X0182390Y0082980D02*
X0180210Y0082980D01*
X0180458Y0083578D02*
X0182142Y0083578D01*
X0181894Y0084177D02*
X0180706Y0084177D01*
X0180900Y0084775D02*
X0181700Y0084775D01*
X0181700Y0085374D02*
X0180900Y0085374D01*
X0180900Y0085972D02*
X0181700Y0085972D01*
X0181740Y0086571D02*
X0180860Y0086571D01*
X0180612Y0087169D02*
X0181988Y0087169D01*
X0182236Y0087768D02*
X0180364Y0087768D01*
X0179999Y0088366D02*
X0182601Y0088366D01*
X0183200Y0088965D02*
X0179400Y0088965D01*
X0178655Y0089563D02*
X0183945Y0089563D01*
X0184422Y0091359D02*
X0178178Y0091359D01*
X0179203Y0091958D02*
X0183397Y0091958D01*
X0182799Y0092556D02*
X0179801Y0092556D01*
X0180283Y0093155D02*
X0182317Y0093155D01*
X0182069Y0093753D02*
X0180531Y0093753D01*
X0180778Y0094352D02*
X0181822Y0094352D01*
X0181700Y0094950D02*
X0180900Y0094950D01*
X0180900Y0095549D02*
X0181700Y0095549D01*
X0181700Y0096147D02*
X0180900Y0096147D01*
X0180788Y0096746D02*
X0181812Y0096746D01*
X0182060Y0097344D02*
X0180540Y0097344D01*
X0180292Y0097943D02*
X0182308Y0097943D01*
X0182776Y0098541D02*
X0179824Y0098541D01*
X0179226Y0099140D02*
X0183374Y0099140D01*
X0184367Y0099738D02*
X0178233Y0099738D01*
X0178000Y0100337D02*
X0194600Y0100337D01*
X0194600Y0100935D02*
X0178000Y0100935D01*
X0178600Y0101534D02*
X0184000Y0101534D01*
X0183222Y0102132D02*
X0179378Y0102132D01*
X0179976Y0102731D02*
X0182624Y0102731D01*
X0182245Y0103329D02*
X0180355Y0103329D01*
X0180603Y0103928D02*
X0181997Y0103928D01*
X0181749Y0104526D02*
X0180851Y0104526D01*
X0180900Y0105125D02*
X0181700Y0105125D01*
X0181700Y0105723D02*
X0180900Y0105723D01*
X0180900Y0106322D02*
X0181700Y0106322D01*
X0181884Y0106920D02*
X0180716Y0106920D01*
X0180468Y0107519D02*
X0182132Y0107519D01*
X0182380Y0108117D02*
X0180220Y0108117D01*
X0179650Y0108716D02*
X0182950Y0108716D01*
X0183549Y0109314D02*
X0179051Y0109314D01*
X0177812Y0109913D02*
X0184788Y0109913D01*
X0174788Y0109913D02*
X0174351Y0109913D01*
X0171338Y0108117D02*
X0170609Y0108117D01*
X0170740Y0108716D02*
X0170187Y0108716D01*
X0170914Y0107519D02*
X0171937Y0107519D01*
X0171884Y0106920D02*
X0171115Y0106920D01*
X0171242Y0106322D02*
X0171700Y0106322D01*
X0171700Y0105723D02*
X0166600Y0105723D01*
X0166600Y0105260D02*
X0171300Y0105260D01*
X0171300Y0105166D01*
X0171177Y0104389D01*
X0170934Y0103641D01*
X0170576Y0102939D01*
X0170114Y0102303D01*
X0169557Y0101746D01*
X0168921Y0101284D01*
X0168219Y0100926D01*
X0167471Y0100683D01*
X0166694Y0100560D01*
X0166600Y0100560D01*
X0166694Y0100560D01*
X0167471Y0100437D01*
X0168219Y0100194D01*
X0168921Y0099836D01*
X0169557Y0099374D01*
X0170114Y0098817D01*
X0170576Y0098181D01*
X0170934Y0097479D01*
X0171177Y0096731D01*
X0171300Y0095953D01*
X0171300Y0095860D01*
X0166600Y0095860D01*
X0166600Y0100560D01*
X0166600Y0105260D01*
X0166600Y0105125D02*
X0166000Y0105125D01*
X0166000Y0105723D02*
X0110041Y0105723D01*
X0110639Y0105125D02*
X0161307Y0105125D01*
X0161401Y0104526D02*
X0111238Y0104526D01*
X0111836Y0103928D02*
X0161573Y0103928D01*
X0161825Y0103329D02*
X0112435Y0103329D01*
X0113033Y0102731D02*
X0133495Y0102731D01*
X0133381Y0102694D02*
X0132679Y0102336D01*
X0132043Y0101874D01*
X0131486Y0101317D01*
X0131024Y0100681D01*
X0130666Y0099979D01*
X0130423Y0099231D01*
X0130300Y0098453D01*
X0130300Y0098360D01*
X0135000Y0098360D01*
X0135000Y0103060D01*
X0134906Y0103060D01*
X0134129Y0102937D01*
X0133381Y0102694D01*
X0132398Y0102132D02*
X0127489Y0102132D01*
X0127906Y0101960D02*
X0126215Y0102660D01*
X0124385Y0102660D01*
X0122694Y0101960D01*
X0121400Y0100666D01*
X0120700Y0098975D01*
X0120700Y0097145D01*
X0121400Y0095454D01*
X0122694Y0094160D01*
X0124385Y0093460D01*
X0126215Y0093460D01*
X0127906Y0094160D01*
X0129200Y0095454D01*
X0129900Y0097145D01*
X0129900Y0098975D01*
X0129200Y0100666D01*
X0127906Y0101960D01*
X0128332Y0101534D02*
X0131703Y0101534D01*
X0131209Y0100935D02*
X0128930Y0100935D01*
X0129336Y0100337D02*
X0130848Y0100337D01*
X0130588Y0099738D02*
X0129584Y0099738D01*
X0129832Y0099140D02*
X0130409Y0099140D01*
X0130314Y0098541D02*
X0129900Y0098541D01*
X0129900Y0097943D02*
X0135000Y0097943D01*
X0135000Y0097760D02*
X0130300Y0097760D01*
X0130300Y0097666D01*
X0130423Y0096889D01*
X0130666Y0096141D01*
X0131024Y0095439D01*
X0131486Y0094803D01*
X0132043Y0094246D01*
X0132679Y0093784D01*
X0133381Y0093426D01*
X0134129Y0093183D01*
X0134906Y0093060D01*
X0135000Y0093060D01*
X0135000Y0097760D01*
X0135000Y0098360D01*
X0135600Y0098360D01*
X0135600Y0103060D01*
X0135694Y0103060D01*
X0136471Y0102937D01*
X0137219Y0102694D01*
X0137921Y0102336D01*
X0138557Y0101874D01*
X0139114Y0101317D01*
X0139576Y0100681D01*
X0139934Y0099979D01*
X0140177Y0099231D01*
X0140300Y0098453D01*
X0140300Y0098360D01*
X0135600Y0098360D01*
X0135600Y0097760D01*
X0140300Y0097760D01*
X0140300Y0097666D01*
X0140177Y0096889D01*
X0139934Y0096141D01*
X0139576Y0095439D01*
X0139114Y0094803D01*
X0138557Y0094246D01*
X0137921Y0093784D01*
X0137219Y0093426D01*
X0136471Y0093183D01*
X0135694Y0093060D01*
X0135600Y0093060D01*
X0135600Y0097760D01*
X0135000Y0097760D01*
X0135000Y0097344D02*
X0135600Y0097344D01*
X0135600Y0096746D02*
X0135000Y0096746D01*
X0135000Y0096147D02*
X0135600Y0096147D01*
X0135600Y0095549D02*
X0135000Y0095549D01*
X0135000Y0094950D02*
X0135600Y0094950D01*
X0135600Y0094352D02*
X0135000Y0094352D01*
X0135000Y0093753D02*
X0135600Y0093753D01*
X0135600Y0093155D02*
X0135000Y0093155D01*
X0134309Y0093155D02*
X0117000Y0093155D01*
X0117000Y0093753D02*
X0123677Y0093753D01*
X0122503Y0094352D02*
X0118097Y0094352D01*
X0118695Y0094950D02*
X0121905Y0094950D01*
X0121361Y0095549D02*
X0119239Y0095549D01*
X0119487Y0096147D02*
X0121113Y0096147D01*
X0120865Y0096746D02*
X0119735Y0096746D01*
X0119900Y0097344D02*
X0120700Y0097344D01*
X0120700Y0097943D02*
X0119900Y0097943D01*
X0119900Y0098541D02*
X0120700Y0098541D01*
X0120768Y0099140D02*
X0119832Y0099140D01*
X0119584Y0099738D02*
X0121016Y0099738D01*
X0121264Y0100337D02*
X0119336Y0100337D01*
X0118930Y0100935D02*
X0121670Y0100935D01*
X0122268Y0101534D02*
X0118332Y0101534D01*
X0117489Y0102132D02*
X0123111Y0102132D01*
X0129900Y0097344D02*
X0130351Y0097344D01*
X0130470Y0096746D02*
X0129735Y0096746D01*
X0129487Y0096147D02*
X0130664Y0096147D01*
X0130968Y0095549D02*
X0129239Y0095549D01*
X0128695Y0094950D02*
X0131379Y0094950D01*
X0131937Y0094352D02*
X0128097Y0094352D01*
X0126923Y0093753D02*
X0132739Y0093753D01*
X0136291Y0093155D02*
X0161914Y0093155D01*
X0161630Y0093753D02*
X0146923Y0093753D01*
X0146215Y0093460D02*
X0144385Y0093460D01*
X0142694Y0094160D01*
X0141400Y0095454D01*
X0140700Y0097145D01*
X0140700Y0098975D01*
X0141400Y0100666D01*
X0142694Y0101960D01*
X0144385Y0102660D01*
X0146215Y0102660D01*
X0147906Y0101960D01*
X0149200Y0100666D01*
X0149900Y0098975D01*
X0149900Y0097145D01*
X0149200Y0095454D01*
X0147906Y0094160D01*
X0146215Y0093460D01*
X0148097Y0094352D02*
X0161435Y0094352D01*
X0161334Y0094950D02*
X0148695Y0094950D01*
X0149239Y0095549D02*
X0166000Y0095549D01*
X0166000Y0096147D02*
X0166600Y0096147D01*
X0166600Y0095549D02*
X0171700Y0095549D01*
X0171700Y0096147D02*
X0171269Y0096147D01*
X0171172Y0096746D02*
X0171812Y0096746D01*
X0172060Y0097344D02*
X0170978Y0097344D01*
X0170698Y0097943D02*
X0172308Y0097943D01*
X0172776Y0098541D02*
X0170314Y0098541D01*
X0169791Y0099140D02*
X0173374Y0099140D01*
X0174367Y0099738D02*
X0169056Y0099738D01*
X0167779Y0100337D02*
X0174600Y0100337D01*
X0174600Y0100935D02*
X0168237Y0100935D01*
X0169265Y0101534D02*
X0174000Y0101534D01*
X0173222Y0102132D02*
X0169943Y0102132D01*
X0170425Y0102731D02*
X0172624Y0102731D01*
X0172245Y0103329D02*
X0170775Y0103329D01*
X0171027Y0103928D02*
X0171997Y0103928D01*
X0171749Y0104526D02*
X0171199Y0104526D01*
X0171293Y0105125D02*
X0171700Y0105125D01*
X0166600Y0104526D02*
X0166000Y0104526D01*
X0166000Y0103928D02*
X0166600Y0103928D01*
X0166600Y0103329D02*
X0166000Y0103329D01*
X0166000Y0102731D02*
X0166600Y0102731D01*
X0166600Y0102132D02*
X0166000Y0102132D01*
X0166000Y0101534D02*
X0166600Y0101534D01*
X0166600Y0100935D02*
X0166000Y0100935D01*
X0166000Y0100560D02*
X0165906Y0100560D01*
X0166000Y0100560D01*
X0166000Y0100337D02*
X0166600Y0100337D01*
X0166600Y0099738D02*
X0166000Y0099738D01*
X0166000Y0099140D02*
X0166600Y0099140D01*
X0166600Y0098541D02*
X0166000Y0098541D01*
X0166000Y0097943D02*
X0166600Y0097943D01*
X0166600Y0097344D02*
X0166000Y0097344D01*
X0166000Y0096746D02*
X0166600Y0096746D01*
X0166600Y0094950D02*
X0166000Y0094950D01*
X0166000Y0094352D02*
X0166600Y0094352D01*
X0166600Y0093753D02*
X0166000Y0093753D01*
X0166000Y0093155D02*
X0166600Y0093155D01*
X0166600Y0092556D02*
X0166000Y0092556D01*
X0166000Y0091958D02*
X0166600Y0091958D01*
X0166600Y0091359D02*
X0166000Y0091359D01*
X0166000Y0090761D02*
X0166600Y0090761D01*
X0166600Y0090162D02*
X0166000Y0090162D01*
X0166000Y0090560D02*
X0165906Y0090560D01*
X0166000Y0090560D01*
X0166000Y0089563D02*
X0166600Y0089563D01*
X0166600Y0088965D02*
X0166000Y0088965D01*
X0166000Y0088366D02*
X0166600Y0088366D01*
X0166600Y0087768D02*
X0166000Y0087768D01*
X0166000Y0087169D02*
X0166600Y0087169D01*
X0166600Y0086571D02*
X0166000Y0086571D01*
X0166000Y0085972D02*
X0166600Y0085972D01*
X0166600Y0085374D02*
X0171700Y0085374D01*
X0171700Y0085972D02*
X0171297Y0085972D01*
X0171202Y0086571D02*
X0171740Y0086571D01*
X0171988Y0087169D02*
X0171034Y0087169D01*
X0170787Y0087768D02*
X0172236Y0087768D01*
X0172601Y0088366D02*
X0170441Y0088366D01*
X0169966Y0088965D02*
X0173200Y0088965D01*
X0173945Y0089563D02*
X0169296Y0089563D01*
X0168281Y0090162D02*
X0174600Y0090162D01*
X0174600Y0090761D02*
X0167709Y0090761D01*
X0169024Y0091359D02*
X0174422Y0091359D01*
X0173397Y0091958D02*
X0169769Y0091958D01*
X0170298Y0092556D02*
X0172799Y0092556D01*
X0172317Y0093155D02*
X0170686Y0093155D01*
X0170970Y0093753D02*
X0172069Y0093753D01*
X0171822Y0094352D02*
X0171165Y0094352D01*
X0171266Y0094950D02*
X0171700Y0094950D01*
X0164891Y0090761D02*
X0117000Y0090761D01*
X0117000Y0091359D02*
X0163576Y0091359D01*
X0162831Y0091958D02*
X0117000Y0091958D01*
X0117000Y0092556D02*
X0162302Y0092556D01*
X0164319Y0090162D02*
X0117000Y0090162D01*
X0117000Y0089563D02*
X0163304Y0089563D01*
X0162634Y0088965D02*
X0117000Y0088965D01*
X0135000Y0098541D02*
X0135600Y0098541D01*
X0135600Y0097943D02*
X0140700Y0097943D01*
X0140700Y0098541D02*
X0140286Y0098541D01*
X0140191Y0099140D02*
X0140768Y0099140D01*
X0141016Y0099738D02*
X0140012Y0099738D01*
X0139752Y0100337D02*
X0141264Y0100337D01*
X0141670Y0100935D02*
X0139391Y0100935D01*
X0138897Y0101534D02*
X0142268Y0101534D01*
X0143111Y0102132D02*
X0138202Y0102132D01*
X0137105Y0102731D02*
X0162175Y0102731D01*
X0162657Y0102132D02*
X0147489Y0102132D01*
X0148332Y0101534D02*
X0163335Y0101534D01*
X0164363Y0100935D02*
X0148930Y0100935D01*
X0149336Y0100337D02*
X0164821Y0100337D01*
X0163544Y0099738D02*
X0149584Y0099738D01*
X0149832Y0099140D02*
X0162809Y0099140D01*
X0162286Y0098541D02*
X0149900Y0098541D01*
X0149900Y0097943D02*
X0161902Y0097943D01*
X0161622Y0097344D02*
X0149900Y0097344D01*
X0149735Y0096746D02*
X0161428Y0096746D01*
X0161331Y0096147D02*
X0149487Y0096147D01*
X0143677Y0093753D02*
X0137861Y0093753D01*
X0138663Y0094352D02*
X0142503Y0094352D01*
X0141905Y0094950D02*
X0139221Y0094950D01*
X0139632Y0095549D02*
X0141361Y0095549D01*
X0141113Y0096147D02*
X0139936Y0096147D01*
X0140130Y0096746D02*
X0140865Y0096746D01*
X0140700Y0097344D02*
X0140249Y0097344D01*
X0135600Y0099140D02*
X0135000Y0099140D01*
X0135000Y0099738D02*
X0135600Y0099738D01*
X0135600Y0100337D02*
X0135000Y0100337D01*
X0135000Y0100935D02*
X0135600Y0100935D01*
X0135600Y0101534D02*
X0135000Y0101534D01*
X0135000Y0102132D02*
X0135600Y0102132D01*
X0135600Y0102731D02*
X0135000Y0102731D01*
X0140064Y0106920D02*
X0161485Y0106920D01*
X0161358Y0106322D02*
X0109442Y0106322D01*
X0108844Y0106920D02*
X0129536Y0106920D01*
X0128937Y0107519D02*
X0108245Y0107519D01*
X0107647Y0108117D02*
X0128338Y0108117D01*
X0127740Y0108716D02*
X0107048Y0108716D01*
X0100444Y0110511D02*
X0077900Y0110511D01*
X0077900Y0109913D02*
X0079788Y0109913D01*
X0080023Y0111110D02*
X0077900Y0111110D01*
X0077900Y0111708D02*
X0078646Y0111708D01*
X0078048Y0112307D02*
X0077900Y0112307D01*
X0077900Y0109314D02*
X0078549Y0109314D01*
X0077950Y0108716D02*
X0077900Y0108716D01*
X0077900Y0102132D02*
X0078222Y0102132D01*
X0077900Y0101534D02*
X0079000Y0101534D01*
X0079367Y0099738D02*
X0077900Y0099738D01*
X0077900Y0099140D02*
X0078374Y0099140D01*
X0077900Y0089563D02*
X0078945Y0089563D01*
X0078200Y0088965D02*
X0077900Y0088965D01*
X0077900Y0118891D02*
X0078125Y0118891D01*
X0077900Y0119489D02*
X0078765Y0119489D01*
X0077900Y0120088D02*
X0080210Y0120088D01*
X0079601Y0121285D02*
X0077900Y0121285D01*
X0077900Y0121883D02*
X0078472Y0121883D01*
X0077900Y0120686D02*
X0090270Y0120686D01*
X0090596Y0120360D02*
X0090596Y0120360D01*
X0079180Y0131459D02*
X0077900Y0131459D01*
X0077900Y0132058D02*
X0078297Y0132058D01*
X0087730Y0141634D02*
X0111119Y0141634D01*
X0116891Y0139240D02*
X0122765Y0139240D01*
X0121950Y0139838D02*
X0118084Y0139838D01*
X0118682Y0140437D02*
X0121389Y0140437D01*
X0120975Y0141035D02*
X0119233Y0141035D01*
X0119481Y0141634D02*
X0120670Y0141634D01*
X0120474Y0142232D02*
X0119729Y0142232D01*
X0119900Y0142831D02*
X0120353Y0142831D01*
X0125000Y0142831D02*
X0125600Y0142831D01*
X0125600Y0142232D02*
X0125000Y0142232D01*
X0125000Y0141634D02*
X0125600Y0141634D01*
X0125600Y0141035D02*
X0125000Y0141035D01*
X0125000Y0140437D02*
X0125600Y0140437D01*
X0125600Y0139838D02*
X0125000Y0139838D01*
X0125000Y0139240D02*
X0125600Y0139240D01*
X0127835Y0139240D02*
X0264524Y0139240D01*
X0264522Y0139838D02*
X0128650Y0139838D01*
X0129211Y0140437D02*
X0264520Y0140437D01*
X0264519Y0141035D02*
X0129625Y0141035D01*
X0129930Y0141634D02*
X0264517Y0141634D01*
X0264515Y0142232D02*
X0130126Y0142232D01*
X0130247Y0142831D02*
X0264513Y0142831D01*
X0264494Y0149415D02*
X0207276Y0149415D01*
X0207874Y0150013D02*
X0264492Y0150013D01*
X0264490Y0150612D02*
X0242020Y0150612D01*
X0241694Y0150560D02*
X0242471Y0150683D01*
X0243219Y0150926D01*
X0243921Y0151284D01*
X0244557Y0151746D01*
X0245114Y0152303D01*
X0245576Y0152939D01*
X0245934Y0153641D01*
X0246177Y0154389D01*
X0246300Y0155166D01*
X0246300Y0155260D01*
X0241600Y0155260D01*
X0241600Y0150560D01*
X0241694Y0150560D01*
X0241600Y0150612D02*
X0241000Y0150612D01*
X0240580Y0150612D02*
X0208473Y0150612D01*
X0209071Y0151210D02*
X0209781Y0151210D01*
X0212819Y0151210D02*
X0219781Y0151210D01*
X0218546Y0151809D02*
X0214054Y0151809D01*
X0214653Y0152407D02*
X0217947Y0152407D01*
X0217379Y0153006D02*
X0215221Y0153006D01*
X0215469Y0153604D02*
X0217131Y0153604D01*
X0216883Y0154203D02*
X0215717Y0154203D01*
X0215900Y0154801D02*
X0216700Y0154801D01*
X0216700Y0155400D02*
X0215900Y0155400D01*
X0215900Y0155998D02*
X0216700Y0155998D01*
X0216750Y0156597D02*
X0215850Y0156597D01*
X0215602Y0157195D02*
X0216998Y0157195D01*
X0216945Y0157794D02*
X0215354Y0157794D01*
X0214973Y0158392D02*
X0216346Y0158392D01*
X0215748Y0158991D02*
X0214375Y0158991D01*
X0216998Y0161983D02*
X0247869Y0161983D01*
X0248117Y0161385D02*
X0217596Y0161385D01*
X0218195Y0160786D02*
X0248365Y0160786D01*
X0248613Y0160188D02*
X0243231Y0160188D01*
X0241600Y0160188D02*
X0241000Y0160188D01*
X0241000Y0159589D02*
X0241600Y0159589D01*
X0241600Y0158991D02*
X0241000Y0158991D01*
X0241000Y0158392D02*
X0241600Y0158392D01*
X0241600Y0157794D02*
X0241000Y0157794D01*
X0241000Y0157195D02*
X0241600Y0157195D01*
X0241600Y0156597D02*
X0241000Y0156597D01*
X0241000Y0155998D02*
X0241600Y0155998D01*
X0241600Y0155400D02*
X0264476Y0155400D01*
X0264474Y0155998D02*
X0258560Y0155998D01*
X0260005Y0156597D02*
X0264472Y0156597D01*
X0264470Y0157195D02*
X0261345Y0157195D01*
X0261944Y0157794D02*
X0264469Y0157794D01*
X0264467Y0158392D02*
X0262542Y0158392D01*
X0263987Y0160188D02*
X0264462Y0160188D01*
X0264460Y0160786D02*
X0264235Y0160786D01*
X0264478Y0154801D02*
X0246242Y0154801D01*
X0246116Y0154203D02*
X0264479Y0154203D01*
X0264481Y0153604D02*
X0245915Y0153604D01*
X0245610Y0153006D02*
X0264483Y0153006D01*
X0264485Y0152407D02*
X0245190Y0152407D01*
X0244620Y0151809D02*
X0264487Y0151809D01*
X0264488Y0151210D02*
X0243776Y0151210D01*
X0241600Y0151210D02*
X0241000Y0151210D01*
X0241000Y0151809D02*
X0241600Y0151809D01*
X0241600Y0152407D02*
X0241000Y0152407D01*
X0241000Y0153006D02*
X0241600Y0153006D01*
X0241600Y0153604D02*
X0241000Y0153604D01*
X0241000Y0154203D02*
X0241600Y0154203D01*
X0241600Y0154801D02*
X0241000Y0154801D01*
X0241000Y0155400D02*
X0235900Y0155400D01*
X0235900Y0155998D02*
X0236307Y0155998D01*
X0236402Y0156597D02*
X0235850Y0156597D01*
X0235900Y0156475D02*
X0235200Y0158166D01*
X0233906Y0159460D01*
X0232215Y0160160D01*
X0230385Y0160160D01*
X0228694Y0159460D01*
X0227400Y0158166D01*
X0226700Y0156475D01*
X0226700Y0154645D01*
X0227400Y0152954D01*
X0228694Y0151660D01*
X0230385Y0150960D01*
X0232215Y0150960D01*
X0233906Y0151660D01*
X0235200Y0152954D01*
X0235900Y0154645D01*
X0235900Y0156475D01*
X0235602Y0157195D02*
X0236574Y0157195D01*
X0236827Y0157794D02*
X0235354Y0157794D01*
X0234973Y0158392D02*
X0237177Y0158392D01*
X0237660Y0158991D02*
X0234375Y0158991D01*
X0233593Y0159589D02*
X0238339Y0159589D01*
X0239369Y0160188D02*
X0218793Y0160188D01*
X0223593Y0159589D02*
X0229007Y0159589D01*
X0228225Y0158991D02*
X0224375Y0158991D01*
X0224973Y0158392D02*
X0227627Y0158392D01*
X0227246Y0157794D02*
X0225354Y0157794D01*
X0225602Y0157195D02*
X0226998Y0157195D01*
X0226750Y0156597D02*
X0225850Y0156597D01*
X0225900Y0155998D02*
X0226700Y0155998D01*
X0226700Y0155400D02*
X0225900Y0155400D01*
X0225900Y0154801D02*
X0226700Y0154801D01*
X0226883Y0154203D02*
X0225717Y0154203D01*
X0225469Y0153604D02*
X0227131Y0153604D01*
X0227379Y0153006D02*
X0225221Y0153006D01*
X0224653Y0152407D02*
X0227947Y0152407D01*
X0228546Y0151809D02*
X0224054Y0151809D01*
X0222819Y0151210D02*
X0229781Y0151210D01*
X0232819Y0151210D02*
X0238824Y0151210D01*
X0237980Y0151809D02*
X0234054Y0151809D01*
X0234653Y0152407D02*
X0237410Y0152407D01*
X0236990Y0153006D02*
X0235221Y0153006D01*
X0235469Y0153604D02*
X0236685Y0153604D01*
X0236484Y0154203D02*
X0235717Y0154203D01*
X0235900Y0154801D02*
X0236358Y0154801D01*
X0245423Y0158392D02*
X0250058Y0158392D01*
X0250656Y0157794D02*
X0245773Y0157794D01*
X0246026Y0157195D02*
X0251255Y0157195D01*
X0252595Y0156597D02*
X0246198Y0156597D01*
X0246293Y0155998D02*
X0254040Y0155998D01*
X0247621Y0162582D02*
X0025075Y0162582D01*
X0025075Y0163180D02*
X0247525Y0163180D01*
X0247525Y0163779D02*
X0025075Y0163779D01*
X0025075Y0164377D02*
X0247525Y0164377D01*
X0247525Y0164976D02*
X0025075Y0164976D01*
X0025075Y0165305D02*
X0023739Y0168531D01*
X0021271Y0170999D01*
X0018045Y0172335D01*
X0014555Y0172335D01*
X0011329Y0170999D01*
X0008861Y0168531D01*
X0007525Y0165305D01*
X0007525Y0161815D01*
X0008861Y0158589D01*
X0011329Y0156121D01*
X0014555Y0154785D01*
X0018045Y0154785D01*
X0021271Y0156121D01*
X0023739Y0158589D01*
X0025075Y0161815D01*
X0025075Y0165305D01*
X0024964Y0165574D02*
X0247525Y0165574D01*
X0247525Y0166173D02*
X0024716Y0166173D01*
X0024468Y0166771D02*
X0247718Y0166771D01*
X0247966Y0167370D02*
X0024220Y0167370D01*
X0023972Y0167968D02*
X0248214Y0167968D01*
X0248462Y0168567D02*
X0023703Y0168567D01*
X0023104Y0169165D02*
X0248710Y0169165D01*
X0249094Y0169764D02*
X0022506Y0169764D01*
X0021907Y0170363D02*
X0249693Y0170363D01*
X0250291Y0170961D02*
X0021309Y0170961D01*
X0019918Y0171560D02*
X0250890Y0171560D01*
X0251713Y0172158D02*
X0018473Y0172158D01*
X0014127Y0172158D02*
X0007105Y0172158D01*
X0007107Y0171560D02*
X0012682Y0171560D01*
X0011291Y0170961D02*
X0007108Y0170961D01*
X0007110Y0170363D02*
X0010693Y0170363D01*
X0010094Y0169764D02*
X0007112Y0169764D01*
X0007114Y0169165D02*
X0009496Y0169165D01*
X0008897Y0168567D02*
X0007115Y0168567D01*
X0007117Y0167968D02*
X0008628Y0167968D01*
X0008380Y0167370D02*
X0007119Y0167370D01*
X0007121Y0166771D02*
X0008132Y0166771D01*
X0007884Y0166173D02*
X0007123Y0166173D01*
X0007124Y0165574D02*
X0007636Y0165574D01*
X0007525Y0164976D02*
X0007126Y0164976D01*
X0007128Y0164377D02*
X0007525Y0164377D01*
X0007525Y0163779D02*
X0007130Y0163779D01*
X0007131Y0163180D02*
X0007525Y0163180D01*
X0007525Y0162582D02*
X0007133Y0162582D01*
X0007135Y0161983D02*
X0007525Y0161983D01*
X0007703Y0161385D02*
X0007137Y0161385D01*
X0007139Y0160786D02*
X0007951Y0160786D01*
X0008199Y0160188D02*
X0007140Y0160188D01*
X0007142Y0159589D02*
X0008447Y0159589D01*
X0008695Y0158991D02*
X0007144Y0158991D01*
X0007146Y0158392D02*
X0009058Y0158392D01*
X0009656Y0157794D02*
X0007147Y0157794D01*
X0007149Y0157195D02*
X0010255Y0157195D01*
X0010854Y0156597D02*
X0007151Y0156597D01*
X0007153Y0155998D02*
X0011625Y0155998D01*
X0013070Y0155400D02*
X0007155Y0155400D01*
X0007156Y0154801D02*
X0014515Y0154801D01*
X0018085Y0154801D02*
X0048420Y0154801D01*
X0047821Y0154203D02*
X0007158Y0154203D01*
X0007160Y0153604D02*
X0047223Y0153604D01*
X0046624Y0153006D02*
X0007162Y0153006D01*
X0007163Y0152407D02*
X0046026Y0152407D01*
X0045427Y0151809D02*
X0007165Y0151809D01*
X0007167Y0151210D02*
X0044829Y0151210D01*
X0044230Y0150612D02*
X0007169Y0150612D01*
X0007171Y0150013D02*
X0043632Y0150013D01*
X0043033Y0149415D02*
X0007172Y0149415D01*
X0007174Y0148816D02*
X0042435Y0148816D01*
X0041836Y0148218D02*
X0007176Y0148218D01*
X0007178Y0147619D02*
X0041238Y0147619D01*
X0040639Y0147021D02*
X0007179Y0147021D01*
X0007181Y0146422D02*
X0040041Y0146422D01*
X0039442Y0145824D02*
X0007183Y0145824D01*
X0007185Y0145225D02*
X0038844Y0145225D01*
X0038245Y0144627D02*
X0007187Y0144627D01*
X0007188Y0144028D02*
X0037647Y0144028D01*
X0037048Y0143430D02*
X0007190Y0143430D01*
X0007192Y0142831D02*
X0036450Y0142831D01*
X0035851Y0142232D02*
X0007194Y0142232D01*
X0007195Y0141634D02*
X0035253Y0141634D01*
X0034654Y0141035D02*
X0007197Y0141035D01*
X0007199Y0140437D02*
X0034056Y0140437D01*
X0019530Y0155400D02*
X0049018Y0155400D01*
X0049617Y0155998D02*
X0020974Y0155998D01*
X0021746Y0156597D02*
X0050215Y0156597D01*
X0050814Y0157195D02*
X0022345Y0157195D01*
X0022944Y0157794D02*
X0051412Y0157794D01*
X0052011Y0158392D02*
X0023542Y0158392D01*
X0023905Y0158991D02*
X0052609Y0158991D01*
X0053208Y0159589D02*
X0024153Y0159589D01*
X0024401Y0160188D02*
X0053807Y0160188D01*
X0054405Y0160786D02*
X0024649Y0160786D01*
X0024897Y0161385D02*
X0055004Y0161385D01*
X0054800Y0161181D02*
X0054800Y0161181D01*
X0055602Y0161983D02*
X0025075Y0161983D01*
X0125000Y0148218D02*
X0125600Y0148218D01*
X0125600Y0147619D02*
X0125000Y0147619D01*
X0125000Y0147021D02*
X0125600Y0147021D01*
X0125600Y0146422D02*
X0125000Y0146422D01*
X0125000Y0145824D02*
X0125600Y0145824D01*
X0125600Y0145225D02*
X0125000Y0145225D01*
X0125000Y0144627D02*
X0125600Y0144627D01*
X0129900Y0112905D02*
X0130341Y0112905D01*
X0130450Y0112307D02*
X0129760Y0112307D01*
X0129556Y0111708D02*
X0130644Y0111708D01*
X0130937Y0111110D02*
X0130154Y0111110D01*
X0130753Y0110511D02*
X0131335Y0110511D01*
X0127141Y0109314D02*
X0127070Y0109314D01*
X0139956Y0111708D02*
X0140044Y0111708D01*
X0140150Y0112307D02*
X0140643Y0112307D01*
X0141860Y0108716D02*
X0162413Y0108716D01*
X0161991Y0108117D02*
X0141262Y0108117D01*
X0140663Y0107519D02*
X0161686Y0107519D01*
X0171238Y0084775D02*
X0171700Y0084775D01*
X0171894Y0084177D02*
X0171108Y0084177D01*
X0170902Y0083578D02*
X0172142Y0083578D01*
X0172390Y0082980D02*
X0170597Y0082980D01*
X0170171Y0082381D02*
X0172973Y0082381D01*
X0173572Y0081783D02*
X0169594Y0081783D01*
X0168726Y0081184D02*
X0174600Y0081184D01*
X0174600Y0080586D02*
X0166857Y0080586D01*
X0169485Y0064426D02*
X0173661Y0064426D01*
X0173062Y0063827D02*
X0170104Y0063827D01*
X0170541Y0063229D02*
X0172464Y0063229D01*
X0172179Y0062630D02*
X0170857Y0062630D01*
X0171079Y0062032D02*
X0171931Y0062032D01*
X0171700Y0061433D02*
X0171224Y0061433D01*
X0224864Y0026720D02*
X0264858Y0026720D01*
X0264857Y0027318D02*
X0225462Y0027318D01*
X0226061Y0027917D02*
X0264855Y0027917D01*
X0264853Y0028515D02*
X0226659Y0028515D01*
X0227258Y0029114D02*
X0264851Y0029114D01*
X0264849Y0029712D02*
X0227857Y0029712D01*
X0228455Y0030311D02*
X0264848Y0030311D01*
X0264846Y0030909D02*
X0229054Y0030909D01*
X0229652Y0031508D02*
X0264844Y0031508D01*
X0264842Y0032106D02*
X0230251Y0032106D01*
X0230849Y0032705D02*
X0264841Y0032705D01*
X0264839Y0033303D02*
X0231448Y0033303D01*
X0232046Y0033902D02*
X0264837Y0033902D01*
X0264835Y0034500D02*
X0232645Y0034500D01*
X0233243Y0035099D02*
X0264833Y0035099D01*
X0264832Y0035697D02*
X0233842Y0035697D01*
X0234440Y0036296D02*
X0264830Y0036296D01*
X0264828Y0036894D02*
X0235039Y0036894D01*
X0235637Y0037493D02*
X0264826Y0037493D01*
X0264825Y0038092D02*
X0236236Y0038092D01*
X0236834Y0038690D02*
X0264823Y0038690D01*
X0264821Y0039289D02*
X0237433Y0039289D01*
X0238031Y0039887D02*
X0264819Y0039887D01*
X0264817Y0040486D02*
X0238630Y0040486D01*
X0239228Y0041084D02*
X0264816Y0041084D01*
X0264814Y0041683D02*
X0239827Y0041683D01*
X0240425Y0042281D02*
X0264812Y0042281D01*
X0264810Y0042880D02*
X0241024Y0042880D01*
X0241500Y0043478D02*
X0264809Y0043478D01*
X0264807Y0044077D02*
X0241500Y0044077D01*
X0241500Y0044675D02*
X0264805Y0044675D01*
X0264803Y0045274D02*
X0241500Y0045274D01*
X0241500Y0045872D02*
X0248047Y0045872D01*
X0247881Y0045926D02*
X0248629Y0045683D01*
X0249406Y0045560D01*
X0249500Y0045560D01*
X0249500Y0050260D01*
X0244800Y0050260D01*
X0244800Y0050166D01*
X0244923Y0049389D01*
X0245166Y0048641D01*
X0245524Y0047939D01*
X0245986Y0047303D01*
X0246543Y0046746D01*
X0247179Y0046284D01*
X0247881Y0045926D01*
X0246922Y0046471D02*
X0241948Y0046471D01*
X0242815Y0047069D02*
X0246220Y0047069D01*
X0245721Y0047668D02*
X0243413Y0047668D01*
X0243829Y0048266D02*
X0245357Y0048266D01*
X0245094Y0048865D02*
X0244077Y0048865D01*
X0244325Y0049463D02*
X0244911Y0049463D01*
X0244817Y0050062D02*
X0244400Y0050062D01*
X0244400Y0050660D02*
X0249500Y0050660D01*
X0249500Y0050860D02*
X0249500Y0050260D01*
X0250100Y0050260D01*
X0250100Y0050860D01*
X0249500Y0050860D01*
X0249500Y0055560D01*
X0249406Y0055560D01*
X0248629Y0055437D01*
X0247881Y0055194D01*
X0247179Y0054836D01*
X0246543Y0054374D01*
X0245986Y0053817D01*
X0245524Y0053181D01*
X0245166Y0052479D01*
X0244923Y0051731D01*
X0244800Y0050953D01*
X0244800Y0050860D01*
X0249500Y0050860D01*
X0249500Y0051259D02*
X0250100Y0051259D01*
X0250100Y0050860D02*
X0250100Y0055560D01*
X0250194Y0055560D01*
X0250971Y0055437D01*
X0251719Y0055194D01*
X0252421Y0054836D01*
X0253057Y0054374D01*
X0253614Y0053817D01*
X0254076Y0053181D01*
X0254434Y0052479D01*
X0254677Y0051731D01*
X0254800Y0050953D01*
X0254800Y0050860D01*
X0250100Y0050860D01*
X0250100Y0050660D02*
X0264787Y0050660D01*
X0264789Y0050062D02*
X0254783Y0050062D01*
X0254800Y0050166D02*
X0254800Y0050260D01*
X0250100Y0050260D01*
X0250100Y0045560D01*
X0250194Y0045560D01*
X0250971Y0045683D01*
X0251719Y0045926D01*
X0252421Y0046284D01*
X0253057Y0046746D01*
X0253614Y0047303D01*
X0254076Y0047939D01*
X0254434Y0048641D01*
X0254677Y0049389D01*
X0254800Y0050166D01*
X0254689Y0049463D02*
X0264791Y0049463D01*
X0264793Y0048865D02*
X0254506Y0048865D01*
X0254243Y0048266D02*
X0264794Y0048266D01*
X0264796Y0047668D02*
X0253879Y0047668D01*
X0253380Y0047069D02*
X0264798Y0047069D01*
X0264800Y0046471D02*
X0252678Y0046471D01*
X0251553Y0045872D02*
X0264801Y0045872D01*
X0264785Y0051259D02*
X0254752Y0051259D01*
X0254636Y0051857D02*
X0264784Y0051857D01*
X0264782Y0052456D02*
X0254441Y0052456D01*
X0254141Y0053054D02*
X0264780Y0053054D01*
X0264778Y0053653D02*
X0253733Y0053653D01*
X0253180Y0054251D02*
X0264777Y0054251D01*
X0264775Y0054850D02*
X0252394Y0054850D01*
X0250898Y0055448D02*
X0264773Y0055448D01*
X0264771Y0056047D02*
X0250925Y0056047D01*
X0250715Y0055960D02*
X0252406Y0056660D01*
X0253700Y0057954D01*
X0254400Y0059645D01*
X0254400Y0061475D01*
X0253700Y0063166D01*
X0252406Y0064460D01*
X0250715Y0065160D01*
X0248885Y0065160D01*
X0247194Y0064460D01*
X0245900Y0063166D01*
X0245200Y0061475D01*
X0245200Y0059645D01*
X0245900Y0057954D01*
X0247194Y0056660D01*
X0248885Y0055960D01*
X0250715Y0055960D01*
X0250100Y0055448D02*
X0249500Y0055448D01*
X0249500Y0054850D02*
X0250100Y0054850D01*
X0250100Y0054251D02*
X0249500Y0054251D01*
X0249500Y0053653D02*
X0250100Y0053653D01*
X0250100Y0053054D02*
X0249500Y0053054D01*
X0249500Y0052456D02*
X0250100Y0052456D01*
X0250100Y0051857D02*
X0249500Y0051857D01*
X0249500Y0050062D02*
X0250100Y0050062D01*
X0250100Y0049463D02*
X0249500Y0049463D01*
X0249500Y0048865D02*
X0250100Y0048865D01*
X0250100Y0048266D02*
X0249500Y0048266D01*
X0249500Y0047668D02*
X0250100Y0047668D01*
X0250100Y0047069D02*
X0249500Y0047069D01*
X0249500Y0046471D02*
X0250100Y0046471D01*
X0250100Y0045872D02*
X0249500Y0045872D01*
X0244848Y0051259D02*
X0244400Y0051259D01*
X0244242Y0051857D02*
X0244964Y0051857D01*
X0245159Y0052456D02*
X0243994Y0052456D01*
X0243746Y0053054D02*
X0245459Y0053054D01*
X0245867Y0053653D02*
X0243213Y0053653D01*
X0242614Y0054251D02*
X0246420Y0054251D01*
X0247206Y0054850D02*
X0241500Y0054850D01*
X0241500Y0055448D02*
X0248702Y0055448D01*
X0248675Y0056047D02*
X0241500Y0056047D01*
X0242370Y0056645D02*
X0247230Y0056645D01*
X0246611Y0057244D02*
X0242989Y0057244D01*
X0243588Y0057842D02*
X0246012Y0057842D01*
X0245699Y0058441D02*
X0243901Y0058441D01*
X0244149Y0059039D02*
X0245451Y0059039D01*
X0245203Y0059638D02*
X0244397Y0059638D01*
X0244400Y0060236D02*
X0245200Y0060236D01*
X0245200Y0060835D02*
X0244400Y0060835D01*
X0244400Y0061433D02*
X0245200Y0061433D01*
X0245431Y0062032D02*
X0244169Y0062032D01*
X0243921Y0062630D02*
X0245679Y0062630D01*
X0245964Y0063229D02*
X0243636Y0063229D01*
X0243038Y0063827D02*
X0246562Y0063827D01*
X0247161Y0064426D02*
X0242439Y0064426D01*
X0241500Y0065025D02*
X0248558Y0065025D01*
X0248885Y0065960D02*
X0247194Y0066660D01*
X0245900Y0067954D01*
X0245200Y0069645D01*
X0245200Y0071475D01*
X0245900Y0073166D01*
X0247194Y0074460D01*
X0248885Y0075160D01*
X0250715Y0075160D01*
X0252406Y0074460D01*
X0253700Y0073166D01*
X0254400Y0071475D01*
X0254400Y0069645D01*
X0253700Y0067954D01*
X0252406Y0066660D01*
X0250715Y0065960D01*
X0248885Y0065960D01*
X0248254Y0066222D02*
X0241500Y0066222D01*
X0241500Y0065623D02*
X0264743Y0065623D01*
X0264744Y0065025D02*
X0251042Y0065025D01*
X0251346Y0066222D02*
X0264741Y0066222D01*
X0264739Y0066820D02*
X0252565Y0066820D01*
X0253164Y0067419D02*
X0264737Y0067419D01*
X0264736Y0068017D02*
X0253726Y0068017D01*
X0253974Y0068616D02*
X0264734Y0068616D01*
X0264732Y0069214D02*
X0254222Y0069214D01*
X0254400Y0069813D02*
X0264730Y0069813D01*
X0264728Y0070411D02*
X0254400Y0070411D01*
X0254400Y0071010D02*
X0264727Y0071010D01*
X0264725Y0071608D02*
X0254345Y0071608D01*
X0254097Y0072207D02*
X0264723Y0072207D01*
X0264721Y0072805D02*
X0253849Y0072805D01*
X0253462Y0073404D02*
X0264720Y0073404D01*
X0264718Y0074002D02*
X0252863Y0074002D01*
X0252065Y0074601D02*
X0264716Y0074601D01*
X0264714Y0075199D02*
X0231702Y0075199D01*
X0232745Y0074601D02*
X0237535Y0074601D01*
X0236737Y0074002D02*
X0233429Y0074002D01*
X0233914Y0073404D02*
X0236138Y0073404D01*
X0235751Y0072805D02*
X0234268Y0072805D01*
X0234522Y0072207D02*
X0235503Y0072207D01*
X0235255Y0071608D02*
X0234696Y0071608D01*
X0234791Y0071010D02*
X0235200Y0071010D01*
X0230100Y0071010D02*
X0229500Y0071010D01*
X0229500Y0071608D02*
X0230100Y0071608D01*
X0230100Y0072207D02*
X0229500Y0072207D01*
X0229500Y0072805D02*
X0230100Y0072805D01*
X0230100Y0073404D02*
X0229500Y0073404D01*
X0229500Y0074002D02*
X0230100Y0074002D01*
X0230100Y0074601D02*
X0229500Y0074601D01*
X0229500Y0075199D02*
X0230100Y0075199D01*
X0230100Y0069214D02*
X0229500Y0069214D01*
X0229500Y0068616D02*
X0230100Y0068616D01*
X0230100Y0068017D02*
X0229500Y0068017D01*
X0229500Y0067419D02*
X0230100Y0067419D01*
X0230100Y0066820D02*
X0229500Y0066820D01*
X0229500Y0066222D02*
X0230100Y0066222D01*
X0230100Y0065025D02*
X0229500Y0065025D01*
X0229500Y0064426D02*
X0230100Y0064426D01*
X0230100Y0063827D02*
X0229500Y0063827D01*
X0229500Y0063229D02*
X0230100Y0063229D01*
X0230100Y0062630D02*
X0229500Y0062630D01*
X0229500Y0062032D02*
X0230100Y0062032D01*
X0230100Y0061433D02*
X0229500Y0061433D01*
X0230100Y0060835D02*
X0235200Y0060835D01*
X0235200Y0061433D02*
X0234724Y0061433D01*
X0234579Y0062032D02*
X0235431Y0062032D01*
X0235679Y0062630D02*
X0234357Y0062630D01*
X0234041Y0063229D02*
X0235964Y0063229D01*
X0236562Y0063827D02*
X0233604Y0063827D01*
X0232985Y0064426D02*
X0237161Y0064426D01*
X0235200Y0060236D02*
X0234800Y0060236D01*
X0234716Y0059638D02*
X0235203Y0059638D01*
X0235451Y0059039D02*
X0234563Y0059039D01*
X0234332Y0058441D02*
X0235699Y0058441D01*
X0236012Y0057842D02*
X0234006Y0057842D01*
X0233555Y0057244D02*
X0236611Y0057244D01*
X0237230Y0056645D02*
X0232918Y0056645D01*
X0231956Y0056047D02*
X0238100Y0056047D01*
X0238100Y0055448D02*
X0230898Y0055448D01*
X0232394Y0054850D02*
X0238100Y0054850D01*
X0236986Y0054251D02*
X0233180Y0054251D01*
X0233733Y0053653D02*
X0236387Y0053653D01*
X0235854Y0053054D02*
X0234141Y0053054D01*
X0234441Y0052456D02*
X0235606Y0052456D01*
X0235358Y0051857D02*
X0234636Y0051857D01*
X0234752Y0051259D02*
X0235200Y0051259D01*
X0252370Y0056645D02*
X0264769Y0056645D01*
X0264768Y0057244D02*
X0252989Y0057244D01*
X0253588Y0057842D02*
X0264766Y0057842D01*
X0264764Y0058441D02*
X0253901Y0058441D01*
X0254149Y0059039D02*
X0264762Y0059039D01*
X0264760Y0059638D02*
X0254397Y0059638D01*
X0254400Y0060236D02*
X0264759Y0060236D01*
X0264757Y0060835D02*
X0254400Y0060835D01*
X0254400Y0061433D02*
X0264755Y0061433D01*
X0264753Y0062032D02*
X0254169Y0062032D01*
X0253921Y0062630D02*
X0264752Y0062630D01*
X0264750Y0063229D02*
X0253636Y0063229D01*
X0253038Y0063827D02*
X0264748Y0063827D01*
X0264746Y0064426D02*
X0252439Y0064426D01*
X0247035Y0066820D02*
X0242565Y0066820D01*
X0243164Y0067419D02*
X0246436Y0067419D01*
X0245874Y0068017D02*
X0243726Y0068017D01*
X0243974Y0068616D02*
X0245626Y0068616D01*
X0245378Y0069214D02*
X0244222Y0069214D01*
X0244400Y0069813D02*
X0245200Y0069813D01*
X0245200Y0070411D02*
X0244400Y0070411D01*
X0244400Y0071010D02*
X0245200Y0071010D01*
X0245255Y0071608D02*
X0244345Y0071608D01*
X0244097Y0072207D02*
X0245503Y0072207D01*
X0245751Y0072805D02*
X0243849Y0072805D01*
X0243462Y0073404D02*
X0246138Y0073404D01*
X0246737Y0074002D02*
X0242863Y0074002D01*
X0242065Y0074601D02*
X0247535Y0074601D01*
X0251825Y0024326D02*
X0189040Y0024326D01*
X0189638Y0023727D02*
X0250380Y0023727D01*
X0249459Y0023129D02*
X0190215Y0023129D01*
X0190463Y0022530D02*
X0248861Y0022530D01*
X0248262Y0021932D02*
X0190711Y0021932D01*
X0190900Y0021333D02*
X0247663Y0021333D01*
X0247238Y0020735D02*
X0190900Y0020735D01*
X0190900Y0020136D02*
X0246990Y0020136D01*
X0246743Y0019538D02*
X0190856Y0019538D01*
X0190608Y0018939D02*
X0246495Y0018939D01*
X0246247Y0018341D02*
X0190360Y0018341D01*
X0189988Y0017742D02*
X0246025Y0017742D01*
X0246025Y0017144D02*
X0189389Y0017144D01*
D14*
X0176300Y0020560D02*
X0176300Y0028060D01*
X0223800Y0028060D01*
X0239800Y0044060D01*
X0239800Y0050560D01*
X0239800Y0060560D01*
X0239800Y0070560D01*
X0196300Y0050560D02*
X0196300Y0105560D01*
X0186300Y0115560D01*
X0161300Y0115560D01*
X0148800Y0128060D01*
X0154300Y0133560D01*
X0160800Y0133560D01*
X0148800Y0128060D02*
X0141300Y0135560D01*
X0091300Y0135560D01*
X0091300Y0122060D01*
X0115300Y0098060D01*
X0115300Y0083560D01*
X0115800Y0083060D01*
X0115800Y0065560D01*
X0126300Y0050560D02*
X0126300Y0035560D01*
X0126300Y0030560D01*
X0128800Y0028060D01*
X0176300Y0028060D01*
X0176300Y0040560D01*
X0176300Y0050560D01*
X0176300Y0060560D01*
X0176300Y0085560D01*
X0176300Y0095560D01*
X0176300Y0105560D01*
X0171200Y0110660D01*
X0141400Y0110660D01*
X0139200Y0108460D01*
X0130400Y0108460D01*
X0125300Y0113560D01*
X0125300Y0129060D01*
X0091300Y0135560D02*
X0091300Y0135660D01*
X0086300Y0140660D01*
X0079188Y0140660D01*
X0076200Y0137672D01*
X0076200Y0083098D01*
X0053662Y0060560D01*
X0048544Y0060560D02*
X0026300Y0060560D01*
X0021300Y0055560D01*
X0126300Y0030560D02*
X0126300Y0020560D01*
X0186300Y0040560D02*
X0196300Y0050560D01*
D15*
X0206300Y0150560D02*
X0176300Y0150560D01*
X0171300Y0155560D01*
X0061300Y0155560D01*
X0021300Y0115560D01*
X0031300Y0120560D02*
X0031300Y0105560D01*
X0021300Y0095560D01*
X0031300Y0120560D02*
X0061300Y0150560D01*
X0166300Y0150560D01*
X0206300Y0150560D02*
X0211300Y0155560D01*
X0216300Y0160560D02*
X0221300Y0155560D01*
X0216300Y0160560D02*
X0056300Y0160560D01*
X0021300Y0125560D01*
D16*
X0166300Y0150560D03*
M02*
