G75*
%MOIN*%
%OFA0B0*%
%FSLAX25Y25*%
%IPPOS*%
%LPD*%
%AMOC8*
5,1,8,0,0,1.08239X$1,22.5*
%
%ADD10C,0.00600*%
%ADD11C,0.00000*%
%ADD12C,0.00100*%
%ADD13C,0.00300*%
%ADD14C,0.00800*%
%ADD15C,0.00500*%
%ADD16C,0.00400*%
%ADD17C,0.02205*%
D10*
X0001300Y0001300D02*
X0001300Y0221300D01*
X0271300Y0221300D01*
X0271300Y0001300D01*
X0001300Y0001300D01*
X0121300Y0030020D02*
X0123800Y0027520D01*
X0128800Y0027520D01*
X0131300Y0030020D01*
X0133800Y0027520D01*
X0138800Y0027520D01*
X0141300Y0030020D01*
X0143800Y0027520D01*
X0148800Y0027520D01*
X0151300Y0030020D01*
X0151300Y0035020D01*
X0148800Y0037520D01*
X0143800Y0037520D01*
X0141300Y0035020D01*
X0141300Y0030020D01*
X0141300Y0035020D02*
X0138800Y0037520D01*
X0133800Y0037520D01*
X0131300Y0035020D01*
X0131300Y0030020D01*
X0131300Y0035020D02*
X0128800Y0037520D01*
X0123800Y0037520D01*
X0121300Y0035020D01*
X0121300Y0030020D01*
X0123800Y0068150D02*
X0128800Y0068150D01*
X0131300Y0070650D01*
X0133800Y0068150D01*
X0138800Y0068150D01*
X0141300Y0070650D01*
X0143800Y0068150D01*
X0148800Y0068150D01*
X0151300Y0070650D01*
X0151300Y0075650D01*
X0148800Y0078150D01*
X0143800Y0078150D01*
X0141300Y0075650D01*
X0141300Y0070650D01*
X0141300Y0075650D02*
X0138800Y0078150D01*
X0133800Y0078150D01*
X0131300Y0075650D01*
X0131300Y0070650D01*
X0131300Y0075650D02*
X0128800Y0078150D01*
X0123800Y0078150D01*
X0121300Y0075650D01*
X0121300Y0070650D01*
X0123800Y0068150D01*
X0123800Y0087206D02*
X0128800Y0087206D01*
X0131300Y0089706D01*
X0133800Y0087206D01*
X0138800Y0087206D01*
X0141300Y0089706D01*
X0143800Y0087206D01*
X0148800Y0087206D01*
X0151300Y0089706D01*
X0151300Y0094706D01*
X0148800Y0097206D01*
X0143800Y0097206D01*
X0141300Y0094706D01*
X0141300Y0089706D01*
X0141300Y0094706D02*
X0138800Y0097206D01*
X0133800Y0097206D01*
X0131300Y0094706D01*
X0131300Y0089706D01*
X0131300Y0094706D02*
X0128800Y0097206D01*
X0123800Y0097206D01*
X0121300Y0094706D01*
X0121300Y0089706D01*
X0123800Y0087206D01*
X0123800Y0127520D02*
X0128800Y0127520D01*
X0131300Y0130020D01*
X0133800Y0127520D01*
X0138800Y0127520D01*
X0141300Y0130020D01*
X0143800Y0127520D01*
X0148800Y0127520D01*
X0151300Y0130020D01*
X0151300Y0135020D01*
X0148800Y0137520D01*
X0143800Y0137520D01*
X0141300Y0135020D01*
X0141300Y0130020D01*
X0141300Y0135020D02*
X0138800Y0137520D01*
X0133800Y0137520D01*
X0131300Y0135020D01*
X0131300Y0130020D01*
X0131300Y0135020D02*
X0128800Y0137520D01*
X0123800Y0137520D01*
X0121300Y0135020D01*
X0121300Y0130020D01*
X0123800Y0127520D01*
X0124000Y0177300D02*
X0122900Y0177300D01*
X0122900Y0185300D01*
X0124000Y0185300D01*
X0128600Y0185300D02*
X0129700Y0185300D01*
X0129700Y0177300D01*
X0128600Y0177300D01*
X0126300Y0190500D02*
X0126300Y0194500D01*
X0125800Y0191500D01*
X0125300Y0191500D02*
X0126300Y0194500D01*
X0124800Y0191500D01*
X0124300Y0191500D02*
X0126300Y0194500D01*
X0123800Y0191500D01*
X0128800Y0191500D01*
X0126300Y0194500D01*
X0126800Y0191500D01*
X0127300Y0191500D02*
X0126300Y0194500D01*
X0127800Y0191500D01*
X0128300Y0191500D02*
X0126300Y0194500D01*
X0123800Y0194500D01*
X0126300Y0194500D02*
X0126300Y0195500D01*
X0126300Y0194500D02*
X0128800Y0194500D01*
X0128662Y0205119D02*
X0128662Y0207481D01*
X0123938Y0207481D02*
X0123938Y0205119D01*
X0199221Y0069883D02*
X0200906Y0069883D01*
X0215190Y0069883D01*
X0215206Y0065580D02*
X0215206Y0064580D01*
X0215206Y0060580D02*
X0215206Y0059580D01*
X0215206Y0055580D02*
X0215206Y0054580D01*
X0215190Y0050276D02*
X0200906Y0050276D01*
X0199221Y0050276D01*
X0199206Y0054580D02*
X0199206Y0055580D01*
X0199206Y0059580D02*
X0199206Y0060580D01*
X0199206Y0064580D02*
X0199206Y0065580D01*
D11*
X0177796Y0015985D02*
X0177798Y0016169D01*
X0177805Y0016352D01*
X0177816Y0016535D01*
X0177832Y0016718D01*
X0177852Y0016901D01*
X0177877Y0017083D01*
X0177906Y0017264D01*
X0177940Y0017444D01*
X0177978Y0017624D01*
X0178020Y0017802D01*
X0178067Y0017980D01*
X0178118Y0018156D01*
X0178174Y0018331D01*
X0178233Y0018505D01*
X0178297Y0018677D01*
X0178365Y0018847D01*
X0178438Y0019016D01*
X0178514Y0019183D01*
X0178595Y0019348D01*
X0178679Y0019511D01*
X0178768Y0019672D01*
X0178860Y0019830D01*
X0178956Y0019987D01*
X0179057Y0020141D01*
X0179160Y0020292D01*
X0179268Y0020441D01*
X0179379Y0020587D01*
X0179494Y0020730D01*
X0179612Y0020871D01*
X0179734Y0021008D01*
X0179859Y0021143D01*
X0179987Y0021274D01*
X0180118Y0021402D01*
X0180253Y0021527D01*
X0180390Y0021649D01*
X0180531Y0021767D01*
X0180674Y0021882D01*
X0180820Y0021993D01*
X0180969Y0022101D01*
X0181120Y0022204D01*
X0181274Y0022305D01*
X0181431Y0022401D01*
X0181589Y0022493D01*
X0181750Y0022582D01*
X0181913Y0022666D01*
X0182078Y0022747D01*
X0182245Y0022823D01*
X0182414Y0022896D01*
X0182584Y0022964D01*
X0182756Y0023028D01*
X0182930Y0023087D01*
X0183105Y0023143D01*
X0183281Y0023194D01*
X0183459Y0023241D01*
X0183637Y0023283D01*
X0183817Y0023321D01*
X0183997Y0023355D01*
X0184178Y0023384D01*
X0184360Y0023409D01*
X0184543Y0023429D01*
X0184726Y0023445D01*
X0184909Y0023456D01*
X0185092Y0023463D01*
X0185276Y0023465D01*
X0185460Y0023463D01*
X0185643Y0023456D01*
X0185826Y0023445D01*
X0186009Y0023429D01*
X0186192Y0023409D01*
X0186374Y0023384D01*
X0186555Y0023355D01*
X0186735Y0023321D01*
X0186915Y0023283D01*
X0187093Y0023241D01*
X0187271Y0023194D01*
X0187447Y0023143D01*
X0187622Y0023087D01*
X0187796Y0023028D01*
X0187968Y0022964D01*
X0188138Y0022896D01*
X0188307Y0022823D01*
X0188474Y0022747D01*
X0188639Y0022666D01*
X0188802Y0022582D01*
X0188963Y0022493D01*
X0189121Y0022401D01*
X0189278Y0022305D01*
X0189432Y0022204D01*
X0189583Y0022101D01*
X0189732Y0021993D01*
X0189878Y0021882D01*
X0190021Y0021767D01*
X0190162Y0021649D01*
X0190299Y0021527D01*
X0190434Y0021402D01*
X0190565Y0021274D01*
X0190693Y0021143D01*
X0190818Y0021008D01*
X0190940Y0020871D01*
X0191058Y0020730D01*
X0191173Y0020587D01*
X0191284Y0020441D01*
X0191392Y0020292D01*
X0191495Y0020141D01*
X0191596Y0019987D01*
X0191692Y0019830D01*
X0191784Y0019672D01*
X0191873Y0019511D01*
X0191957Y0019348D01*
X0192038Y0019183D01*
X0192114Y0019016D01*
X0192187Y0018847D01*
X0192255Y0018677D01*
X0192319Y0018505D01*
X0192378Y0018331D01*
X0192434Y0018156D01*
X0192485Y0017980D01*
X0192532Y0017802D01*
X0192574Y0017624D01*
X0192612Y0017444D01*
X0192646Y0017264D01*
X0192675Y0017083D01*
X0192700Y0016901D01*
X0192720Y0016718D01*
X0192736Y0016535D01*
X0192747Y0016352D01*
X0192754Y0016169D01*
X0192756Y0015985D01*
X0192754Y0015801D01*
X0192747Y0015618D01*
X0192736Y0015435D01*
X0192720Y0015252D01*
X0192700Y0015069D01*
X0192675Y0014887D01*
X0192646Y0014706D01*
X0192612Y0014526D01*
X0192574Y0014346D01*
X0192532Y0014168D01*
X0192485Y0013990D01*
X0192434Y0013814D01*
X0192378Y0013639D01*
X0192319Y0013465D01*
X0192255Y0013293D01*
X0192187Y0013123D01*
X0192114Y0012954D01*
X0192038Y0012787D01*
X0191957Y0012622D01*
X0191873Y0012459D01*
X0191784Y0012298D01*
X0191692Y0012140D01*
X0191596Y0011983D01*
X0191495Y0011829D01*
X0191392Y0011678D01*
X0191284Y0011529D01*
X0191173Y0011383D01*
X0191058Y0011240D01*
X0190940Y0011099D01*
X0190818Y0010962D01*
X0190693Y0010827D01*
X0190565Y0010696D01*
X0190434Y0010568D01*
X0190299Y0010443D01*
X0190162Y0010321D01*
X0190021Y0010203D01*
X0189878Y0010088D01*
X0189732Y0009977D01*
X0189583Y0009869D01*
X0189432Y0009766D01*
X0189278Y0009665D01*
X0189121Y0009569D01*
X0188963Y0009477D01*
X0188802Y0009388D01*
X0188639Y0009304D01*
X0188474Y0009223D01*
X0188307Y0009147D01*
X0188138Y0009074D01*
X0187968Y0009006D01*
X0187796Y0008942D01*
X0187622Y0008883D01*
X0187447Y0008827D01*
X0187271Y0008776D01*
X0187093Y0008729D01*
X0186915Y0008687D01*
X0186735Y0008649D01*
X0186555Y0008615D01*
X0186374Y0008586D01*
X0186192Y0008561D01*
X0186009Y0008541D01*
X0185826Y0008525D01*
X0185643Y0008514D01*
X0185460Y0008507D01*
X0185276Y0008505D01*
X0185092Y0008507D01*
X0184909Y0008514D01*
X0184726Y0008525D01*
X0184543Y0008541D01*
X0184360Y0008561D01*
X0184178Y0008586D01*
X0183997Y0008615D01*
X0183817Y0008649D01*
X0183637Y0008687D01*
X0183459Y0008729D01*
X0183281Y0008776D01*
X0183105Y0008827D01*
X0182930Y0008883D01*
X0182756Y0008942D01*
X0182584Y0009006D01*
X0182414Y0009074D01*
X0182245Y0009147D01*
X0182078Y0009223D01*
X0181913Y0009304D01*
X0181750Y0009388D01*
X0181589Y0009477D01*
X0181431Y0009569D01*
X0181274Y0009665D01*
X0181120Y0009766D01*
X0180969Y0009869D01*
X0180820Y0009977D01*
X0180674Y0010088D01*
X0180531Y0010203D01*
X0180390Y0010321D01*
X0180253Y0010443D01*
X0180118Y0010568D01*
X0179987Y0010696D01*
X0179859Y0010827D01*
X0179734Y0010962D01*
X0179612Y0011099D01*
X0179494Y0011240D01*
X0179379Y0011383D01*
X0179268Y0011529D01*
X0179160Y0011678D01*
X0179057Y0011829D01*
X0178956Y0011983D01*
X0178860Y0012140D01*
X0178768Y0012298D01*
X0178679Y0012459D01*
X0178595Y0012622D01*
X0178514Y0012787D01*
X0178438Y0012954D01*
X0178365Y0013123D01*
X0178297Y0013293D01*
X0178233Y0013465D01*
X0178174Y0013639D01*
X0178118Y0013814D01*
X0178067Y0013990D01*
X0178020Y0014168D01*
X0177978Y0014346D01*
X0177940Y0014526D01*
X0177906Y0014706D01*
X0177877Y0014887D01*
X0177852Y0015069D01*
X0177832Y0015252D01*
X0177816Y0015435D01*
X0177805Y0015618D01*
X0177798Y0015801D01*
X0177796Y0015985D01*
X0246694Y0122284D02*
X0246696Y0122468D01*
X0246703Y0122651D01*
X0246714Y0122834D01*
X0246730Y0123017D01*
X0246750Y0123200D01*
X0246775Y0123382D01*
X0246804Y0123563D01*
X0246838Y0123743D01*
X0246876Y0123923D01*
X0246918Y0124101D01*
X0246965Y0124279D01*
X0247016Y0124455D01*
X0247072Y0124630D01*
X0247131Y0124804D01*
X0247195Y0124976D01*
X0247263Y0125146D01*
X0247336Y0125315D01*
X0247412Y0125482D01*
X0247493Y0125647D01*
X0247577Y0125810D01*
X0247666Y0125971D01*
X0247758Y0126129D01*
X0247854Y0126286D01*
X0247955Y0126440D01*
X0248058Y0126591D01*
X0248166Y0126740D01*
X0248277Y0126886D01*
X0248392Y0127029D01*
X0248510Y0127170D01*
X0248632Y0127307D01*
X0248757Y0127442D01*
X0248885Y0127573D01*
X0249016Y0127701D01*
X0249151Y0127826D01*
X0249288Y0127948D01*
X0249429Y0128066D01*
X0249572Y0128181D01*
X0249718Y0128292D01*
X0249867Y0128400D01*
X0250018Y0128503D01*
X0250172Y0128604D01*
X0250329Y0128700D01*
X0250487Y0128792D01*
X0250648Y0128881D01*
X0250811Y0128965D01*
X0250976Y0129046D01*
X0251143Y0129122D01*
X0251312Y0129195D01*
X0251482Y0129263D01*
X0251654Y0129327D01*
X0251828Y0129386D01*
X0252003Y0129442D01*
X0252179Y0129493D01*
X0252357Y0129540D01*
X0252535Y0129582D01*
X0252715Y0129620D01*
X0252895Y0129654D01*
X0253076Y0129683D01*
X0253258Y0129708D01*
X0253441Y0129728D01*
X0253624Y0129744D01*
X0253807Y0129755D01*
X0253990Y0129762D01*
X0254174Y0129764D01*
X0254358Y0129762D01*
X0254541Y0129755D01*
X0254724Y0129744D01*
X0254907Y0129728D01*
X0255090Y0129708D01*
X0255272Y0129683D01*
X0255453Y0129654D01*
X0255633Y0129620D01*
X0255813Y0129582D01*
X0255991Y0129540D01*
X0256169Y0129493D01*
X0256345Y0129442D01*
X0256520Y0129386D01*
X0256694Y0129327D01*
X0256866Y0129263D01*
X0257036Y0129195D01*
X0257205Y0129122D01*
X0257372Y0129046D01*
X0257537Y0128965D01*
X0257700Y0128881D01*
X0257861Y0128792D01*
X0258019Y0128700D01*
X0258176Y0128604D01*
X0258330Y0128503D01*
X0258481Y0128400D01*
X0258630Y0128292D01*
X0258776Y0128181D01*
X0258919Y0128066D01*
X0259060Y0127948D01*
X0259197Y0127826D01*
X0259332Y0127701D01*
X0259463Y0127573D01*
X0259591Y0127442D01*
X0259716Y0127307D01*
X0259838Y0127170D01*
X0259956Y0127029D01*
X0260071Y0126886D01*
X0260182Y0126740D01*
X0260290Y0126591D01*
X0260393Y0126440D01*
X0260494Y0126286D01*
X0260590Y0126129D01*
X0260682Y0125971D01*
X0260771Y0125810D01*
X0260855Y0125647D01*
X0260936Y0125482D01*
X0261012Y0125315D01*
X0261085Y0125146D01*
X0261153Y0124976D01*
X0261217Y0124804D01*
X0261276Y0124630D01*
X0261332Y0124455D01*
X0261383Y0124279D01*
X0261430Y0124101D01*
X0261472Y0123923D01*
X0261510Y0123743D01*
X0261544Y0123563D01*
X0261573Y0123382D01*
X0261598Y0123200D01*
X0261618Y0123017D01*
X0261634Y0122834D01*
X0261645Y0122651D01*
X0261652Y0122468D01*
X0261654Y0122284D01*
X0261652Y0122100D01*
X0261645Y0121917D01*
X0261634Y0121734D01*
X0261618Y0121551D01*
X0261598Y0121368D01*
X0261573Y0121186D01*
X0261544Y0121005D01*
X0261510Y0120825D01*
X0261472Y0120645D01*
X0261430Y0120467D01*
X0261383Y0120289D01*
X0261332Y0120113D01*
X0261276Y0119938D01*
X0261217Y0119764D01*
X0261153Y0119592D01*
X0261085Y0119422D01*
X0261012Y0119253D01*
X0260936Y0119086D01*
X0260855Y0118921D01*
X0260771Y0118758D01*
X0260682Y0118597D01*
X0260590Y0118439D01*
X0260494Y0118282D01*
X0260393Y0118128D01*
X0260290Y0117977D01*
X0260182Y0117828D01*
X0260071Y0117682D01*
X0259956Y0117539D01*
X0259838Y0117398D01*
X0259716Y0117261D01*
X0259591Y0117126D01*
X0259463Y0116995D01*
X0259332Y0116867D01*
X0259197Y0116742D01*
X0259060Y0116620D01*
X0258919Y0116502D01*
X0258776Y0116387D01*
X0258630Y0116276D01*
X0258481Y0116168D01*
X0258330Y0116065D01*
X0258176Y0115964D01*
X0258019Y0115868D01*
X0257861Y0115776D01*
X0257700Y0115687D01*
X0257537Y0115603D01*
X0257372Y0115522D01*
X0257205Y0115446D01*
X0257036Y0115373D01*
X0256866Y0115305D01*
X0256694Y0115241D01*
X0256520Y0115182D01*
X0256345Y0115126D01*
X0256169Y0115075D01*
X0255991Y0115028D01*
X0255813Y0114986D01*
X0255633Y0114948D01*
X0255453Y0114914D01*
X0255272Y0114885D01*
X0255090Y0114860D01*
X0254907Y0114840D01*
X0254724Y0114824D01*
X0254541Y0114813D01*
X0254358Y0114806D01*
X0254174Y0114804D01*
X0253990Y0114806D01*
X0253807Y0114813D01*
X0253624Y0114824D01*
X0253441Y0114840D01*
X0253258Y0114860D01*
X0253076Y0114885D01*
X0252895Y0114914D01*
X0252715Y0114948D01*
X0252535Y0114986D01*
X0252357Y0115028D01*
X0252179Y0115075D01*
X0252003Y0115126D01*
X0251828Y0115182D01*
X0251654Y0115241D01*
X0251482Y0115305D01*
X0251312Y0115373D01*
X0251143Y0115446D01*
X0250976Y0115522D01*
X0250811Y0115603D01*
X0250648Y0115687D01*
X0250487Y0115776D01*
X0250329Y0115868D01*
X0250172Y0115964D01*
X0250018Y0116065D01*
X0249867Y0116168D01*
X0249718Y0116276D01*
X0249572Y0116387D01*
X0249429Y0116502D01*
X0249288Y0116620D01*
X0249151Y0116742D01*
X0249016Y0116867D01*
X0248885Y0116995D01*
X0248757Y0117126D01*
X0248632Y0117261D01*
X0248510Y0117398D01*
X0248392Y0117539D01*
X0248277Y0117682D01*
X0248166Y0117828D01*
X0248058Y0117977D01*
X0247955Y0118128D01*
X0247854Y0118282D01*
X0247758Y0118439D01*
X0247666Y0118597D01*
X0247577Y0118758D01*
X0247493Y0118921D01*
X0247412Y0119086D01*
X0247336Y0119253D01*
X0247263Y0119422D01*
X0247195Y0119592D01*
X0247131Y0119764D01*
X0247072Y0119938D01*
X0247016Y0120113D01*
X0246965Y0120289D01*
X0246918Y0120467D01*
X0246876Y0120645D01*
X0246838Y0120825D01*
X0246804Y0121005D01*
X0246775Y0121186D01*
X0246750Y0121368D01*
X0246730Y0121551D01*
X0246714Y0121734D01*
X0246703Y0121917D01*
X0246696Y0122100D01*
X0246694Y0122284D01*
X0202501Y0172619D02*
X0202503Y0172777D01*
X0202509Y0172935D01*
X0202519Y0173093D01*
X0202533Y0173251D01*
X0202551Y0173408D01*
X0202572Y0173565D01*
X0202598Y0173721D01*
X0202628Y0173877D01*
X0202661Y0174032D01*
X0202699Y0174185D01*
X0202740Y0174338D01*
X0202785Y0174490D01*
X0202834Y0174641D01*
X0202887Y0174790D01*
X0202943Y0174938D01*
X0203003Y0175084D01*
X0203067Y0175229D01*
X0203135Y0175372D01*
X0203206Y0175514D01*
X0203280Y0175654D01*
X0203358Y0175791D01*
X0203440Y0175927D01*
X0203524Y0176061D01*
X0203613Y0176192D01*
X0203704Y0176321D01*
X0203799Y0176448D01*
X0203896Y0176573D01*
X0203997Y0176695D01*
X0204101Y0176814D01*
X0204208Y0176931D01*
X0204318Y0177045D01*
X0204431Y0177156D01*
X0204546Y0177265D01*
X0204664Y0177370D01*
X0204785Y0177472D01*
X0204908Y0177572D01*
X0205034Y0177668D01*
X0205162Y0177761D01*
X0205292Y0177851D01*
X0205425Y0177937D01*
X0205560Y0178021D01*
X0205696Y0178100D01*
X0205835Y0178177D01*
X0205976Y0178249D01*
X0206118Y0178319D01*
X0206262Y0178384D01*
X0206408Y0178446D01*
X0206555Y0178504D01*
X0206704Y0178559D01*
X0206854Y0178610D01*
X0207005Y0178657D01*
X0207157Y0178700D01*
X0207310Y0178739D01*
X0207465Y0178775D01*
X0207620Y0178806D01*
X0207776Y0178834D01*
X0207932Y0178858D01*
X0208089Y0178878D01*
X0208247Y0178894D01*
X0208404Y0178906D01*
X0208563Y0178914D01*
X0208721Y0178918D01*
X0208879Y0178918D01*
X0209037Y0178914D01*
X0209196Y0178906D01*
X0209353Y0178894D01*
X0209511Y0178878D01*
X0209668Y0178858D01*
X0209824Y0178834D01*
X0209980Y0178806D01*
X0210135Y0178775D01*
X0210290Y0178739D01*
X0210443Y0178700D01*
X0210595Y0178657D01*
X0210746Y0178610D01*
X0210896Y0178559D01*
X0211045Y0178504D01*
X0211192Y0178446D01*
X0211338Y0178384D01*
X0211482Y0178319D01*
X0211624Y0178249D01*
X0211765Y0178177D01*
X0211904Y0178100D01*
X0212040Y0178021D01*
X0212175Y0177937D01*
X0212308Y0177851D01*
X0212438Y0177761D01*
X0212566Y0177668D01*
X0212692Y0177572D01*
X0212815Y0177472D01*
X0212936Y0177370D01*
X0213054Y0177265D01*
X0213169Y0177156D01*
X0213282Y0177045D01*
X0213392Y0176931D01*
X0213499Y0176814D01*
X0213603Y0176695D01*
X0213704Y0176573D01*
X0213801Y0176448D01*
X0213896Y0176321D01*
X0213987Y0176192D01*
X0214076Y0176061D01*
X0214160Y0175927D01*
X0214242Y0175791D01*
X0214320Y0175654D01*
X0214394Y0175514D01*
X0214465Y0175372D01*
X0214533Y0175229D01*
X0214597Y0175084D01*
X0214657Y0174938D01*
X0214713Y0174790D01*
X0214766Y0174641D01*
X0214815Y0174490D01*
X0214860Y0174338D01*
X0214901Y0174185D01*
X0214939Y0174032D01*
X0214972Y0173877D01*
X0215002Y0173721D01*
X0215028Y0173565D01*
X0215049Y0173408D01*
X0215067Y0173251D01*
X0215081Y0173093D01*
X0215091Y0172935D01*
X0215097Y0172777D01*
X0215099Y0172619D01*
X0215097Y0172461D01*
X0215091Y0172303D01*
X0215081Y0172145D01*
X0215067Y0171987D01*
X0215049Y0171830D01*
X0215028Y0171673D01*
X0215002Y0171517D01*
X0214972Y0171361D01*
X0214939Y0171206D01*
X0214901Y0171053D01*
X0214860Y0170900D01*
X0214815Y0170748D01*
X0214766Y0170597D01*
X0214713Y0170448D01*
X0214657Y0170300D01*
X0214597Y0170154D01*
X0214533Y0170009D01*
X0214465Y0169866D01*
X0214394Y0169724D01*
X0214320Y0169584D01*
X0214242Y0169447D01*
X0214160Y0169311D01*
X0214076Y0169177D01*
X0213987Y0169046D01*
X0213896Y0168917D01*
X0213801Y0168790D01*
X0213704Y0168665D01*
X0213603Y0168543D01*
X0213499Y0168424D01*
X0213392Y0168307D01*
X0213282Y0168193D01*
X0213169Y0168082D01*
X0213054Y0167973D01*
X0212936Y0167868D01*
X0212815Y0167766D01*
X0212692Y0167666D01*
X0212566Y0167570D01*
X0212438Y0167477D01*
X0212308Y0167387D01*
X0212175Y0167301D01*
X0212040Y0167217D01*
X0211904Y0167138D01*
X0211765Y0167061D01*
X0211624Y0166989D01*
X0211482Y0166919D01*
X0211338Y0166854D01*
X0211192Y0166792D01*
X0211045Y0166734D01*
X0210896Y0166679D01*
X0210746Y0166628D01*
X0210595Y0166581D01*
X0210443Y0166538D01*
X0210290Y0166499D01*
X0210135Y0166463D01*
X0209980Y0166432D01*
X0209824Y0166404D01*
X0209668Y0166380D01*
X0209511Y0166360D01*
X0209353Y0166344D01*
X0209196Y0166332D01*
X0209037Y0166324D01*
X0208879Y0166320D01*
X0208721Y0166320D01*
X0208563Y0166324D01*
X0208404Y0166332D01*
X0208247Y0166344D01*
X0208089Y0166360D01*
X0207932Y0166380D01*
X0207776Y0166404D01*
X0207620Y0166432D01*
X0207465Y0166463D01*
X0207310Y0166499D01*
X0207157Y0166538D01*
X0207005Y0166581D01*
X0206854Y0166628D01*
X0206704Y0166679D01*
X0206555Y0166734D01*
X0206408Y0166792D01*
X0206262Y0166854D01*
X0206118Y0166919D01*
X0205976Y0166989D01*
X0205835Y0167061D01*
X0205696Y0167138D01*
X0205560Y0167217D01*
X0205425Y0167301D01*
X0205292Y0167387D01*
X0205162Y0167477D01*
X0205034Y0167570D01*
X0204908Y0167666D01*
X0204785Y0167766D01*
X0204664Y0167868D01*
X0204546Y0167973D01*
X0204431Y0168082D01*
X0204318Y0168193D01*
X0204208Y0168307D01*
X0204101Y0168424D01*
X0203997Y0168543D01*
X0203896Y0168665D01*
X0203799Y0168790D01*
X0203704Y0168917D01*
X0203613Y0169046D01*
X0203524Y0169177D01*
X0203440Y0169311D01*
X0203358Y0169447D01*
X0203280Y0169584D01*
X0203206Y0169724D01*
X0203135Y0169866D01*
X0203067Y0170009D01*
X0203003Y0170154D01*
X0202943Y0170300D01*
X0202887Y0170448D01*
X0202834Y0170597D01*
X0202785Y0170748D01*
X0202740Y0170900D01*
X0202699Y0171053D01*
X0202661Y0171206D01*
X0202628Y0171361D01*
X0202598Y0171517D01*
X0202572Y0171673D01*
X0202551Y0171830D01*
X0202533Y0171987D01*
X0202519Y0172145D01*
X0202509Y0172303D01*
X0202503Y0172461D01*
X0202501Y0172619D01*
X0157501Y0172619D02*
X0157503Y0172777D01*
X0157509Y0172935D01*
X0157519Y0173093D01*
X0157533Y0173251D01*
X0157551Y0173408D01*
X0157572Y0173565D01*
X0157598Y0173721D01*
X0157628Y0173877D01*
X0157661Y0174032D01*
X0157699Y0174185D01*
X0157740Y0174338D01*
X0157785Y0174490D01*
X0157834Y0174641D01*
X0157887Y0174790D01*
X0157943Y0174938D01*
X0158003Y0175084D01*
X0158067Y0175229D01*
X0158135Y0175372D01*
X0158206Y0175514D01*
X0158280Y0175654D01*
X0158358Y0175791D01*
X0158440Y0175927D01*
X0158524Y0176061D01*
X0158613Y0176192D01*
X0158704Y0176321D01*
X0158799Y0176448D01*
X0158896Y0176573D01*
X0158997Y0176695D01*
X0159101Y0176814D01*
X0159208Y0176931D01*
X0159318Y0177045D01*
X0159431Y0177156D01*
X0159546Y0177265D01*
X0159664Y0177370D01*
X0159785Y0177472D01*
X0159908Y0177572D01*
X0160034Y0177668D01*
X0160162Y0177761D01*
X0160292Y0177851D01*
X0160425Y0177937D01*
X0160560Y0178021D01*
X0160696Y0178100D01*
X0160835Y0178177D01*
X0160976Y0178249D01*
X0161118Y0178319D01*
X0161262Y0178384D01*
X0161408Y0178446D01*
X0161555Y0178504D01*
X0161704Y0178559D01*
X0161854Y0178610D01*
X0162005Y0178657D01*
X0162157Y0178700D01*
X0162310Y0178739D01*
X0162465Y0178775D01*
X0162620Y0178806D01*
X0162776Y0178834D01*
X0162932Y0178858D01*
X0163089Y0178878D01*
X0163247Y0178894D01*
X0163404Y0178906D01*
X0163563Y0178914D01*
X0163721Y0178918D01*
X0163879Y0178918D01*
X0164037Y0178914D01*
X0164196Y0178906D01*
X0164353Y0178894D01*
X0164511Y0178878D01*
X0164668Y0178858D01*
X0164824Y0178834D01*
X0164980Y0178806D01*
X0165135Y0178775D01*
X0165290Y0178739D01*
X0165443Y0178700D01*
X0165595Y0178657D01*
X0165746Y0178610D01*
X0165896Y0178559D01*
X0166045Y0178504D01*
X0166192Y0178446D01*
X0166338Y0178384D01*
X0166482Y0178319D01*
X0166624Y0178249D01*
X0166765Y0178177D01*
X0166904Y0178100D01*
X0167040Y0178021D01*
X0167175Y0177937D01*
X0167308Y0177851D01*
X0167438Y0177761D01*
X0167566Y0177668D01*
X0167692Y0177572D01*
X0167815Y0177472D01*
X0167936Y0177370D01*
X0168054Y0177265D01*
X0168169Y0177156D01*
X0168282Y0177045D01*
X0168392Y0176931D01*
X0168499Y0176814D01*
X0168603Y0176695D01*
X0168704Y0176573D01*
X0168801Y0176448D01*
X0168896Y0176321D01*
X0168987Y0176192D01*
X0169076Y0176061D01*
X0169160Y0175927D01*
X0169242Y0175791D01*
X0169320Y0175654D01*
X0169394Y0175514D01*
X0169465Y0175372D01*
X0169533Y0175229D01*
X0169597Y0175084D01*
X0169657Y0174938D01*
X0169713Y0174790D01*
X0169766Y0174641D01*
X0169815Y0174490D01*
X0169860Y0174338D01*
X0169901Y0174185D01*
X0169939Y0174032D01*
X0169972Y0173877D01*
X0170002Y0173721D01*
X0170028Y0173565D01*
X0170049Y0173408D01*
X0170067Y0173251D01*
X0170081Y0173093D01*
X0170091Y0172935D01*
X0170097Y0172777D01*
X0170099Y0172619D01*
X0170097Y0172461D01*
X0170091Y0172303D01*
X0170081Y0172145D01*
X0170067Y0171987D01*
X0170049Y0171830D01*
X0170028Y0171673D01*
X0170002Y0171517D01*
X0169972Y0171361D01*
X0169939Y0171206D01*
X0169901Y0171053D01*
X0169860Y0170900D01*
X0169815Y0170748D01*
X0169766Y0170597D01*
X0169713Y0170448D01*
X0169657Y0170300D01*
X0169597Y0170154D01*
X0169533Y0170009D01*
X0169465Y0169866D01*
X0169394Y0169724D01*
X0169320Y0169584D01*
X0169242Y0169447D01*
X0169160Y0169311D01*
X0169076Y0169177D01*
X0168987Y0169046D01*
X0168896Y0168917D01*
X0168801Y0168790D01*
X0168704Y0168665D01*
X0168603Y0168543D01*
X0168499Y0168424D01*
X0168392Y0168307D01*
X0168282Y0168193D01*
X0168169Y0168082D01*
X0168054Y0167973D01*
X0167936Y0167868D01*
X0167815Y0167766D01*
X0167692Y0167666D01*
X0167566Y0167570D01*
X0167438Y0167477D01*
X0167308Y0167387D01*
X0167175Y0167301D01*
X0167040Y0167217D01*
X0166904Y0167138D01*
X0166765Y0167061D01*
X0166624Y0166989D01*
X0166482Y0166919D01*
X0166338Y0166854D01*
X0166192Y0166792D01*
X0166045Y0166734D01*
X0165896Y0166679D01*
X0165746Y0166628D01*
X0165595Y0166581D01*
X0165443Y0166538D01*
X0165290Y0166499D01*
X0165135Y0166463D01*
X0164980Y0166432D01*
X0164824Y0166404D01*
X0164668Y0166380D01*
X0164511Y0166360D01*
X0164353Y0166344D01*
X0164196Y0166332D01*
X0164037Y0166324D01*
X0163879Y0166320D01*
X0163721Y0166320D01*
X0163563Y0166324D01*
X0163404Y0166332D01*
X0163247Y0166344D01*
X0163089Y0166360D01*
X0162932Y0166380D01*
X0162776Y0166404D01*
X0162620Y0166432D01*
X0162465Y0166463D01*
X0162310Y0166499D01*
X0162157Y0166538D01*
X0162005Y0166581D01*
X0161854Y0166628D01*
X0161704Y0166679D01*
X0161555Y0166734D01*
X0161408Y0166792D01*
X0161262Y0166854D01*
X0161118Y0166919D01*
X0160976Y0166989D01*
X0160835Y0167061D01*
X0160696Y0167138D01*
X0160560Y0167217D01*
X0160425Y0167301D01*
X0160292Y0167387D01*
X0160162Y0167477D01*
X0160034Y0167570D01*
X0159908Y0167666D01*
X0159785Y0167766D01*
X0159664Y0167868D01*
X0159546Y0167973D01*
X0159431Y0168082D01*
X0159318Y0168193D01*
X0159208Y0168307D01*
X0159101Y0168424D01*
X0158997Y0168543D01*
X0158896Y0168665D01*
X0158799Y0168790D01*
X0158704Y0168917D01*
X0158613Y0169046D01*
X0158524Y0169177D01*
X0158440Y0169311D01*
X0158358Y0169447D01*
X0158280Y0169584D01*
X0158206Y0169724D01*
X0158135Y0169866D01*
X0158067Y0170009D01*
X0158003Y0170154D01*
X0157943Y0170300D01*
X0157887Y0170448D01*
X0157834Y0170597D01*
X0157785Y0170748D01*
X0157740Y0170900D01*
X0157699Y0171053D01*
X0157661Y0171206D01*
X0157628Y0171361D01*
X0157598Y0171517D01*
X0157572Y0171673D01*
X0157551Y0171830D01*
X0157533Y0171987D01*
X0157519Y0172145D01*
X0157509Y0172303D01*
X0157503Y0172461D01*
X0157501Y0172619D01*
X0024253Y0177402D02*
X0024255Y0177586D01*
X0024262Y0177769D01*
X0024273Y0177952D01*
X0024289Y0178135D01*
X0024309Y0178318D01*
X0024334Y0178500D01*
X0024363Y0178681D01*
X0024397Y0178861D01*
X0024435Y0179041D01*
X0024477Y0179219D01*
X0024524Y0179397D01*
X0024575Y0179573D01*
X0024631Y0179748D01*
X0024690Y0179922D01*
X0024754Y0180094D01*
X0024822Y0180264D01*
X0024895Y0180433D01*
X0024971Y0180600D01*
X0025052Y0180765D01*
X0025136Y0180928D01*
X0025225Y0181089D01*
X0025317Y0181247D01*
X0025413Y0181404D01*
X0025514Y0181558D01*
X0025617Y0181709D01*
X0025725Y0181858D01*
X0025836Y0182004D01*
X0025951Y0182147D01*
X0026069Y0182288D01*
X0026191Y0182425D01*
X0026316Y0182560D01*
X0026444Y0182691D01*
X0026575Y0182819D01*
X0026710Y0182944D01*
X0026847Y0183066D01*
X0026988Y0183184D01*
X0027131Y0183299D01*
X0027277Y0183410D01*
X0027426Y0183518D01*
X0027577Y0183621D01*
X0027731Y0183722D01*
X0027888Y0183818D01*
X0028046Y0183910D01*
X0028207Y0183999D01*
X0028370Y0184083D01*
X0028535Y0184164D01*
X0028702Y0184240D01*
X0028871Y0184313D01*
X0029041Y0184381D01*
X0029213Y0184445D01*
X0029387Y0184504D01*
X0029562Y0184560D01*
X0029738Y0184611D01*
X0029916Y0184658D01*
X0030094Y0184700D01*
X0030274Y0184738D01*
X0030454Y0184772D01*
X0030635Y0184801D01*
X0030817Y0184826D01*
X0031000Y0184846D01*
X0031183Y0184862D01*
X0031366Y0184873D01*
X0031549Y0184880D01*
X0031733Y0184882D01*
X0031917Y0184880D01*
X0032100Y0184873D01*
X0032283Y0184862D01*
X0032466Y0184846D01*
X0032649Y0184826D01*
X0032831Y0184801D01*
X0033012Y0184772D01*
X0033192Y0184738D01*
X0033372Y0184700D01*
X0033550Y0184658D01*
X0033728Y0184611D01*
X0033904Y0184560D01*
X0034079Y0184504D01*
X0034253Y0184445D01*
X0034425Y0184381D01*
X0034595Y0184313D01*
X0034764Y0184240D01*
X0034931Y0184164D01*
X0035096Y0184083D01*
X0035259Y0183999D01*
X0035420Y0183910D01*
X0035578Y0183818D01*
X0035735Y0183722D01*
X0035889Y0183621D01*
X0036040Y0183518D01*
X0036189Y0183410D01*
X0036335Y0183299D01*
X0036478Y0183184D01*
X0036619Y0183066D01*
X0036756Y0182944D01*
X0036891Y0182819D01*
X0037022Y0182691D01*
X0037150Y0182560D01*
X0037275Y0182425D01*
X0037397Y0182288D01*
X0037515Y0182147D01*
X0037630Y0182004D01*
X0037741Y0181858D01*
X0037849Y0181709D01*
X0037952Y0181558D01*
X0038053Y0181404D01*
X0038149Y0181247D01*
X0038241Y0181089D01*
X0038330Y0180928D01*
X0038414Y0180765D01*
X0038495Y0180600D01*
X0038571Y0180433D01*
X0038644Y0180264D01*
X0038712Y0180094D01*
X0038776Y0179922D01*
X0038835Y0179748D01*
X0038891Y0179573D01*
X0038942Y0179397D01*
X0038989Y0179219D01*
X0039031Y0179041D01*
X0039069Y0178861D01*
X0039103Y0178681D01*
X0039132Y0178500D01*
X0039157Y0178318D01*
X0039177Y0178135D01*
X0039193Y0177952D01*
X0039204Y0177769D01*
X0039211Y0177586D01*
X0039213Y0177402D01*
X0039211Y0177218D01*
X0039204Y0177035D01*
X0039193Y0176852D01*
X0039177Y0176669D01*
X0039157Y0176486D01*
X0039132Y0176304D01*
X0039103Y0176123D01*
X0039069Y0175943D01*
X0039031Y0175763D01*
X0038989Y0175585D01*
X0038942Y0175407D01*
X0038891Y0175231D01*
X0038835Y0175056D01*
X0038776Y0174882D01*
X0038712Y0174710D01*
X0038644Y0174540D01*
X0038571Y0174371D01*
X0038495Y0174204D01*
X0038414Y0174039D01*
X0038330Y0173876D01*
X0038241Y0173715D01*
X0038149Y0173557D01*
X0038053Y0173400D01*
X0037952Y0173246D01*
X0037849Y0173095D01*
X0037741Y0172946D01*
X0037630Y0172800D01*
X0037515Y0172657D01*
X0037397Y0172516D01*
X0037275Y0172379D01*
X0037150Y0172244D01*
X0037022Y0172113D01*
X0036891Y0171985D01*
X0036756Y0171860D01*
X0036619Y0171738D01*
X0036478Y0171620D01*
X0036335Y0171505D01*
X0036189Y0171394D01*
X0036040Y0171286D01*
X0035889Y0171183D01*
X0035735Y0171082D01*
X0035578Y0170986D01*
X0035420Y0170894D01*
X0035259Y0170805D01*
X0035096Y0170721D01*
X0034931Y0170640D01*
X0034764Y0170564D01*
X0034595Y0170491D01*
X0034425Y0170423D01*
X0034253Y0170359D01*
X0034079Y0170300D01*
X0033904Y0170244D01*
X0033728Y0170193D01*
X0033550Y0170146D01*
X0033372Y0170104D01*
X0033192Y0170066D01*
X0033012Y0170032D01*
X0032831Y0170003D01*
X0032649Y0169978D01*
X0032466Y0169958D01*
X0032283Y0169942D01*
X0032100Y0169931D01*
X0031917Y0169924D01*
X0031733Y0169922D01*
X0031549Y0169924D01*
X0031366Y0169931D01*
X0031183Y0169942D01*
X0031000Y0169958D01*
X0030817Y0169978D01*
X0030635Y0170003D01*
X0030454Y0170032D01*
X0030274Y0170066D01*
X0030094Y0170104D01*
X0029916Y0170146D01*
X0029738Y0170193D01*
X0029562Y0170244D01*
X0029387Y0170300D01*
X0029213Y0170359D01*
X0029041Y0170423D01*
X0028871Y0170491D01*
X0028702Y0170564D01*
X0028535Y0170640D01*
X0028370Y0170721D01*
X0028207Y0170805D01*
X0028046Y0170894D01*
X0027888Y0170986D01*
X0027731Y0171082D01*
X0027577Y0171183D01*
X0027426Y0171286D01*
X0027277Y0171394D01*
X0027131Y0171505D01*
X0026988Y0171620D01*
X0026847Y0171738D01*
X0026710Y0171860D01*
X0026575Y0171985D01*
X0026444Y0172113D01*
X0026316Y0172244D01*
X0026191Y0172379D01*
X0026069Y0172516D01*
X0025951Y0172657D01*
X0025836Y0172800D01*
X0025725Y0172946D01*
X0025617Y0173095D01*
X0025514Y0173246D01*
X0025413Y0173400D01*
X0025317Y0173557D01*
X0025225Y0173715D01*
X0025136Y0173876D01*
X0025052Y0174039D01*
X0024971Y0174204D01*
X0024895Y0174371D01*
X0024822Y0174540D01*
X0024754Y0174710D01*
X0024690Y0174882D01*
X0024631Y0175056D01*
X0024575Y0175231D01*
X0024524Y0175407D01*
X0024477Y0175585D01*
X0024435Y0175763D01*
X0024397Y0175943D01*
X0024363Y0176123D01*
X0024334Y0176304D01*
X0024309Y0176486D01*
X0024289Y0176669D01*
X0024273Y0176852D01*
X0024262Y0177035D01*
X0024255Y0177218D01*
X0024253Y0177402D01*
X0026222Y0015985D02*
X0026224Y0016169D01*
X0026231Y0016352D01*
X0026242Y0016535D01*
X0026258Y0016718D01*
X0026278Y0016901D01*
X0026303Y0017083D01*
X0026332Y0017264D01*
X0026366Y0017444D01*
X0026404Y0017624D01*
X0026446Y0017802D01*
X0026493Y0017980D01*
X0026544Y0018156D01*
X0026600Y0018331D01*
X0026659Y0018505D01*
X0026723Y0018677D01*
X0026791Y0018847D01*
X0026864Y0019016D01*
X0026940Y0019183D01*
X0027021Y0019348D01*
X0027105Y0019511D01*
X0027194Y0019672D01*
X0027286Y0019830D01*
X0027382Y0019987D01*
X0027483Y0020141D01*
X0027586Y0020292D01*
X0027694Y0020441D01*
X0027805Y0020587D01*
X0027920Y0020730D01*
X0028038Y0020871D01*
X0028160Y0021008D01*
X0028285Y0021143D01*
X0028413Y0021274D01*
X0028544Y0021402D01*
X0028679Y0021527D01*
X0028816Y0021649D01*
X0028957Y0021767D01*
X0029100Y0021882D01*
X0029246Y0021993D01*
X0029395Y0022101D01*
X0029546Y0022204D01*
X0029700Y0022305D01*
X0029857Y0022401D01*
X0030015Y0022493D01*
X0030176Y0022582D01*
X0030339Y0022666D01*
X0030504Y0022747D01*
X0030671Y0022823D01*
X0030840Y0022896D01*
X0031010Y0022964D01*
X0031182Y0023028D01*
X0031356Y0023087D01*
X0031531Y0023143D01*
X0031707Y0023194D01*
X0031885Y0023241D01*
X0032063Y0023283D01*
X0032243Y0023321D01*
X0032423Y0023355D01*
X0032604Y0023384D01*
X0032786Y0023409D01*
X0032969Y0023429D01*
X0033152Y0023445D01*
X0033335Y0023456D01*
X0033518Y0023463D01*
X0033702Y0023465D01*
X0033886Y0023463D01*
X0034069Y0023456D01*
X0034252Y0023445D01*
X0034435Y0023429D01*
X0034618Y0023409D01*
X0034800Y0023384D01*
X0034981Y0023355D01*
X0035161Y0023321D01*
X0035341Y0023283D01*
X0035519Y0023241D01*
X0035697Y0023194D01*
X0035873Y0023143D01*
X0036048Y0023087D01*
X0036222Y0023028D01*
X0036394Y0022964D01*
X0036564Y0022896D01*
X0036733Y0022823D01*
X0036900Y0022747D01*
X0037065Y0022666D01*
X0037228Y0022582D01*
X0037389Y0022493D01*
X0037547Y0022401D01*
X0037704Y0022305D01*
X0037858Y0022204D01*
X0038009Y0022101D01*
X0038158Y0021993D01*
X0038304Y0021882D01*
X0038447Y0021767D01*
X0038588Y0021649D01*
X0038725Y0021527D01*
X0038860Y0021402D01*
X0038991Y0021274D01*
X0039119Y0021143D01*
X0039244Y0021008D01*
X0039366Y0020871D01*
X0039484Y0020730D01*
X0039599Y0020587D01*
X0039710Y0020441D01*
X0039818Y0020292D01*
X0039921Y0020141D01*
X0040022Y0019987D01*
X0040118Y0019830D01*
X0040210Y0019672D01*
X0040299Y0019511D01*
X0040383Y0019348D01*
X0040464Y0019183D01*
X0040540Y0019016D01*
X0040613Y0018847D01*
X0040681Y0018677D01*
X0040745Y0018505D01*
X0040804Y0018331D01*
X0040860Y0018156D01*
X0040911Y0017980D01*
X0040958Y0017802D01*
X0041000Y0017624D01*
X0041038Y0017444D01*
X0041072Y0017264D01*
X0041101Y0017083D01*
X0041126Y0016901D01*
X0041146Y0016718D01*
X0041162Y0016535D01*
X0041173Y0016352D01*
X0041180Y0016169D01*
X0041182Y0015985D01*
X0041180Y0015801D01*
X0041173Y0015618D01*
X0041162Y0015435D01*
X0041146Y0015252D01*
X0041126Y0015069D01*
X0041101Y0014887D01*
X0041072Y0014706D01*
X0041038Y0014526D01*
X0041000Y0014346D01*
X0040958Y0014168D01*
X0040911Y0013990D01*
X0040860Y0013814D01*
X0040804Y0013639D01*
X0040745Y0013465D01*
X0040681Y0013293D01*
X0040613Y0013123D01*
X0040540Y0012954D01*
X0040464Y0012787D01*
X0040383Y0012622D01*
X0040299Y0012459D01*
X0040210Y0012298D01*
X0040118Y0012140D01*
X0040022Y0011983D01*
X0039921Y0011829D01*
X0039818Y0011678D01*
X0039710Y0011529D01*
X0039599Y0011383D01*
X0039484Y0011240D01*
X0039366Y0011099D01*
X0039244Y0010962D01*
X0039119Y0010827D01*
X0038991Y0010696D01*
X0038860Y0010568D01*
X0038725Y0010443D01*
X0038588Y0010321D01*
X0038447Y0010203D01*
X0038304Y0010088D01*
X0038158Y0009977D01*
X0038009Y0009869D01*
X0037858Y0009766D01*
X0037704Y0009665D01*
X0037547Y0009569D01*
X0037389Y0009477D01*
X0037228Y0009388D01*
X0037065Y0009304D01*
X0036900Y0009223D01*
X0036733Y0009147D01*
X0036564Y0009074D01*
X0036394Y0009006D01*
X0036222Y0008942D01*
X0036048Y0008883D01*
X0035873Y0008827D01*
X0035697Y0008776D01*
X0035519Y0008729D01*
X0035341Y0008687D01*
X0035161Y0008649D01*
X0034981Y0008615D01*
X0034800Y0008586D01*
X0034618Y0008561D01*
X0034435Y0008541D01*
X0034252Y0008525D01*
X0034069Y0008514D01*
X0033886Y0008507D01*
X0033702Y0008505D01*
X0033518Y0008507D01*
X0033335Y0008514D01*
X0033152Y0008525D01*
X0032969Y0008541D01*
X0032786Y0008561D01*
X0032604Y0008586D01*
X0032423Y0008615D01*
X0032243Y0008649D01*
X0032063Y0008687D01*
X0031885Y0008729D01*
X0031707Y0008776D01*
X0031531Y0008827D01*
X0031356Y0008883D01*
X0031182Y0008942D01*
X0031010Y0009006D01*
X0030840Y0009074D01*
X0030671Y0009147D01*
X0030504Y0009223D01*
X0030339Y0009304D01*
X0030176Y0009388D01*
X0030015Y0009477D01*
X0029857Y0009569D01*
X0029700Y0009665D01*
X0029546Y0009766D01*
X0029395Y0009869D01*
X0029246Y0009977D01*
X0029100Y0010088D01*
X0028957Y0010203D01*
X0028816Y0010321D01*
X0028679Y0010443D01*
X0028544Y0010568D01*
X0028413Y0010696D01*
X0028285Y0010827D01*
X0028160Y0010962D01*
X0028038Y0011099D01*
X0027920Y0011240D01*
X0027805Y0011383D01*
X0027694Y0011529D01*
X0027586Y0011678D01*
X0027483Y0011829D01*
X0027382Y0011983D01*
X0027286Y0012140D01*
X0027194Y0012298D01*
X0027105Y0012459D01*
X0027021Y0012622D01*
X0026940Y0012787D01*
X0026864Y0012954D01*
X0026791Y0013123D01*
X0026723Y0013293D01*
X0026659Y0013465D01*
X0026600Y0013639D01*
X0026544Y0013814D01*
X0026493Y0013990D01*
X0026446Y0014168D01*
X0026404Y0014346D01*
X0026366Y0014526D01*
X0026332Y0014706D01*
X0026303Y0014887D01*
X0026278Y0015069D01*
X0026258Y0015252D01*
X0026242Y0015435D01*
X0026231Y0015618D01*
X0026224Y0015801D01*
X0026222Y0015985D01*
D12*
X0121749Y0203350D02*
X0122750Y0203350D01*
X0123000Y0203600D01*
X0123000Y0204101D01*
X0122750Y0204351D01*
X0123000Y0204823D02*
X0123000Y0205824D01*
X0123000Y0205324D02*
X0121499Y0205324D01*
X0121999Y0204823D01*
X0121749Y0204351D02*
X0121499Y0204101D01*
X0121499Y0203600D01*
X0121749Y0203350D01*
X0261930Y0195000D02*
X0262180Y0194750D01*
X0262431Y0194750D01*
X0262681Y0195000D01*
X0262681Y0196251D01*
X0262431Y0196251D02*
X0262931Y0196251D01*
X0263403Y0196251D02*
X0264154Y0196251D01*
X0264404Y0196001D01*
X0264404Y0195501D01*
X0264154Y0195250D01*
X0263403Y0195250D01*
X0263403Y0194750D02*
X0263403Y0196251D01*
X0264877Y0195751D02*
X0265377Y0196251D01*
X0265377Y0194750D01*
X0264877Y0194750D02*
X0265878Y0194750D01*
D13*
X0128654Y0193266D02*
X0128654Y0191698D01*
X0127870Y0190914D01*
X0128654Y0189446D02*
X0123950Y0189446D01*
X0125518Y0189446D02*
X0125518Y0187094D01*
X0126302Y0186310D01*
X0127870Y0186310D01*
X0128654Y0187094D01*
X0128654Y0189446D01*
X0125518Y0187878D02*
X0123950Y0186310D01*
X0123950Y0184842D02*
X0123950Y0181706D01*
X0123950Y0183274D02*
X0128654Y0183274D01*
X0127086Y0184842D01*
X0124734Y0190914D02*
X0123950Y0191698D01*
X0123950Y0193266D01*
X0124734Y0194050D01*
X0127870Y0194050D01*
X0128654Y0193266D01*
D14*
X0156300Y0193091D02*
X0216300Y0193091D01*
X0216300Y0192678D02*
X0216300Y0166300D01*
X0216300Y0155276D02*
X0216300Y0133623D01*
X0216300Y0133249D02*
X0156694Y0133249D01*
X0156457Y0133229D02*
X0156457Y0155276D01*
X0156457Y0166300D02*
X0156457Y0193072D01*
X0200300Y0152800D02*
X0207300Y0152800D01*
X0233583Y0162363D02*
X0233583Y0165119D01*
X0233583Y0162363D02*
X0241851Y0162363D01*
X0260749Y0162363D02*
X0269017Y0162363D01*
X0269017Y0204489D01*
X0233583Y0204489D01*
X0233583Y0183623D01*
X0141300Y0114706D02*
X0141300Y0109706D01*
X0138800Y0107206D01*
X0133800Y0107206D01*
X0131300Y0109706D01*
X0128800Y0107206D01*
X0123800Y0107206D01*
X0121300Y0109706D01*
X0121300Y0114706D01*
X0123800Y0117206D01*
X0128800Y0117206D01*
X0131300Y0114706D01*
X0133800Y0117206D01*
X0138800Y0117206D01*
X0141300Y0114706D01*
X0182717Y0072560D02*
X0185867Y0072560D01*
X0185867Y0070198D01*
X0185867Y0063898D02*
X0185867Y0061536D01*
X0182717Y0061536D01*
X0182717Y0057560D02*
X0185867Y0057560D01*
X0185867Y0055198D01*
X0185867Y0048898D02*
X0185867Y0046536D01*
X0182717Y0046536D01*
X0171300Y0050020D02*
X0171300Y0055020D01*
X0168800Y0057520D01*
X0163800Y0057520D01*
X0161300Y0055020D01*
X0158800Y0057520D01*
X0153800Y0057520D01*
X0151300Y0055020D01*
X0148800Y0057520D01*
X0143800Y0057520D01*
X0141300Y0055020D01*
X0138800Y0057520D01*
X0133800Y0057520D01*
X0131300Y0055020D01*
X0128800Y0057520D01*
X0123800Y0057520D01*
X0121300Y0055020D01*
X0121300Y0050020D01*
X0123800Y0047520D01*
X0128800Y0047520D01*
X0131300Y0050020D01*
X0133800Y0047520D01*
X0138800Y0047520D01*
X0141300Y0050020D01*
X0143800Y0047520D01*
X0148800Y0047520D01*
X0151300Y0050020D01*
X0153800Y0047520D01*
X0158800Y0047520D01*
X0161300Y0050020D01*
X0163800Y0047520D01*
X0168800Y0047520D01*
X0171300Y0050020D01*
X0234765Y0085670D02*
X0234765Y0006930D01*
X0267835Y0006930D01*
X0267835Y0038887D01*
X0267835Y0053713D01*
X0261733Y0053713D01*
X0261733Y0038887D01*
X0267835Y0038887D01*
X0264194Y0038887D02*
X0264194Y0011359D01*
X0238406Y0011359D01*
X0238406Y0081241D01*
X0264194Y0081241D01*
X0264194Y0053713D01*
X0267835Y0053713D02*
X0267835Y0063855D01*
X0266654Y0063855D01*
X0266654Y0069678D01*
X0267835Y0069678D01*
X0267835Y0085670D01*
X0234765Y0085670D01*
D15*
X0210665Y0076333D02*
X0210665Y0071830D01*
X0212166Y0071830D02*
X0209163Y0071830D01*
X0207562Y0071830D02*
X0205310Y0074081D01*
X0204559Y0073331D02*
X0207562Y0076333D01*
X0209163Y0074832D02*
X0210665Y0076333D01*
X0204559Y0076333D02*
X0204559Y0071830D01*
X0202958Y0072580D02*
X0202958Y0075583D01*
X0202207Y0076333D01*
X0200706Y0076333D01*
X0199956Y0075583D01*
X0199956Y0072580D01*
X0200706Y0071830D01*
X0202207Y0071830D01*
X0202958Y0072580D01*
X0184629Y0073798D02*
X0183361Y0073798D01*
X0183995Y0073798D02*
X0183995Y0075700D01*
X0183361Y0075066D01*
X0182419Y0075383D02*
X0182419Y0074115D01*
X0182102Y0073798D01*
X0181468Y0073798D01*
X0181151Y0074115D01*
X0181151Y0075383D01*
X0181468Y0075700D01*
X0182102Y0075700D01*
X0182419Y0075383D01*
X0181785Y0074432D02*
X0182419Y0073798D01*
X0182102Y0060700D02*
X0182419Y0060383D01*
X0182419Y0059115D01*
X0182102Y0058798D01*
X0181468Y0058798D01*
X0181151Y0059115D01*
X0181151Y0060383D01*
X0181468Y0060700D01*
X0182102Y0060700D01*
X0183361Y0060383D02*
X0183678Y0060700D01*
X0184312Y0060700D01*
X0184629Y0060383D01*
X0184629Y0060066D01*
X0183361Y0058798D01*
X0184629Y0058798D01*
X0182419Y0058798D02*
X0181785Y0059432D01*
X0159549Y0080600D02*
X0158048Y0082102D01*
X0158799Y0082102D02*
X0156547Y0082102D01*
X0156547Y0080600D02*
X0156547Y0085104D01*
X0158799Y0085104D01*
X0159549Y0084354D01*
X0159549Y0082852D01*
X0158799Y0082102D01*
X0154945Y0081351D02*
X0154195Y0080600D01*
X0152693Y0080600D01*
X0151943Y0081351D01*
X0151943Y0084354D01*
X0152693Y0085104D01*
X0154195Y0085104D01*
X0154945Y0084354D01*
X0154945Y0081351D01*
X0150341Y0081351D02*
X0149591Y0080600D01*
X0148090Y0080600D01*
X0147339Y0081351D01*
X0148090Y0082852D02*
X0149591Y0082852D01*
X0150341Y0082102D01*
X0150341Y0081351D01*
X0148090Y0082852D02*
X0147339Y0083603D01*
X0147339Y0084354D01*
X0148090Y0085104D01*
X0149591Y0085104D01*
X0150341Y0084354D01*
X0145738Y0085104D02*
X0145738Y0080600D01*
X0142735Y0085104D01*
X0142735Y0080600D01*
X0141134Y0080600D02*
X0138131Y0080600D01*
X0138131Y0085104D01*
X0141134Y0085104D01*
X0139632Y0082852D02*
X0138131Y0082852D01*
X0136530Y0082102D02*
X0136530Y0081351D01*
X0135779Y0080600D01*
X0134278Y0080600D01*
X0133527Y0081351D01*
X0134278Y0082852D02*
X0133527Y0083603D01*
X0133527Y0084354D01*
X0134278Y0085104D01*
X0135779Y0085104D01*
X0136530Y0084354D01*
X0135779Y0082852D02*
X0136530Y0082102D01*
X0135779Y0082852D02*
X0134278Y0082852D01*
X0131926Y0079850D02*
X0128923Y0079850D01*
X0127322Y0082102D02*
X0127322Y0085104D01*
X0127322Y0082102D02*
X0125821Y0080600D01*
X0124319Y0082102D01*
X0124319Y0085104D01*
X0122751Y0085104D02*
X0121250Y0085104D01*
X0122001Y0085104D02*
X0122001Y0080600D01*
X0122751Y0080600D02*
X0121250Y0080600D01*
X0121250Y0064474D02*
X0121250Y0059970D01*
X0124253Y0059970D01*
X0125854Y0059970D02*
X0125854Y0064474D01*
X0128856Y0059970D01*
X0128856Y0064474D01*
X0130458Y0063724D02*
X0130458Y0060721D01*
X0131208Y0059970D01*
X0132710Y0059970D01*
X0133460Y0060721D01*
X0135062Y0060721D02*
X0135812Y0059970D01*
X0137314Y0059970D01*
X0138064Y0060721D01*
X0138064Y0063724D01*
X0137314Y0064474D01*
X0135812Y0064474D01*
X0135062Y0063724D01*
X0135062Y0060721D01*
X0133460Y0063724D02*
X0132710Y0064474D01*
X0131208Y0064474D01*
X0130458Y0063724D01*
X0124253Y0064474D02*
X0121250Y0064474D01*
X0121250Y0062222D02*
X0122751Y0062222D01*
X0139666Y0059970D02*
X0141918Y0059970D01*
X0142668Y0060721D01*
X0142668Y0063724D01*
X0141918Y0064474D01*
X0139666Y0064474D01*
X0139666Y0059970D01*
X0144270Y0059970D02*
X0147272Y0059970D01*
X0148874Y0059970D02*
X0148874Y0064474D01*
X0151125Y0064474D01*
X0151876Y0063724D01*
X0151876Y0062222D01*
X0151125Y0061472D01*
X0148874Y0061472D01*
X0150375Y0061472D02*
X0151876Y0059970D01*
X0147272Y0064474D02*
X0144270Y0064474D01*
X0144270Y0059970D01*
X0144270Y0062222D02*
X0145771Y0062222D01*
X0141918Y0044474D02*
X0139666Y0044474D01*
X0139666Y0039970D01*
X0139666Y0041472D02*
X0141918Y0041472D01*
X0142668Y0042222D01*
X0142668Y0043724D01*
X0141918Y0044474D01*
X0141167Y0041472D02*
X0142668Y0039970D01*
X0138064Y0039970D02*
X0135062Y0039970D01*
X0135062Y0044474D01*
X0138064Y0044474D01*
X0136563Y0042222D02*
X0135062Y0042222D01*
X0133460Y0039970D02*
X0130458Y0039970D01*
X0130458Y0044474D01*
X0133460Y0044474D01*
X0131959Y0042222D02*
X0130458Y0042222D01*
X0128856Y0044474D02*
X0125854Y0044474D01*
X0127355Y0044474D02*
X0127355Y0039970D01*
X0124253Y0040721D02*
X0123502Y0039970D01*
X0122001Y0039970D01*
X0121250Y0040721D01*
X0122001Y0042222D02*
X0123502Y0042222D01*
X0124253Y0041472D01*
X0124253Y0040721D01*
X0122001Y0042222D02*
X0121250Y0042973D01*
X0121250Y0043724D01*
X0122001Y0044474D01*
X0123502Y0044474D01*
X0124253Y0043724D01*
X0116300Y0006300D02*
X0006300Y0006300D01*
X0006300Y0216300D01*
X0046300Y0216300D01*
X0046300Y0181300D01*
X0076300Y0181300D01*
X0076300Y0216300D01*
X0116300Y0216300D01*
X0116300Y0006300D01*
X0121250Y0099656D02*
X0124253Y0099656D01*
X0125854Y0099656D02*
X0127355Y0099656D01*
X0126605Y0099656D02*
X0126605Y0104159D01*
X0127355Y0104159D02*
X0125854Y0104159D01*
X0128923Y0103409D02*
X0128923Y0100406D01*
X0129674Y0099656D01*
X0131175Y0099656D01*
X0131926Y0100406D01*
X0131926Y0101907D01*
X0130424Y0101907D01*
X0128923Y0103409D02*
X0129674Y0104159D01*
X0131175Y0104159D01*
X0131926Y0103409D01*
X0133527Y0104159D02*
X0133527Y0099656D01*
X0133527Y0101907D02*
X0136530Y0101907D01*
X0136530Y0099656D02*
X0136530Y0104159D01*
X0138131Y0104159D02*
X0141134Y0104159D01*
X0139632Y0104159D02*
X0139632Y0099656D01*
X0142735Y0100406D02*
X0143486Y0099656D01*
X0144987Y0099656D01*
X0145738Y0100406D01*
X0145738Y0101157D01*
X0144987Y0101907D01*
X0143486Y0101907D01*
X0142735Y0102658D01*
X0142735Y0103409D01*
X0143486Y0104159D01*
X0144987Y0104159D01*
X0145738Y0103409D01*
X0144270Y0119656D02*
X0144270Y0124159D01*
X0146522Y0124159D01*
X0147272Y0123409D01*
X0147272Y0121907D01*
X0146522Y0121157D01*
X0144270Y0121157D01*
X0142668Y0120406D02*
X0142668Y0123409D01*
X0141918Y0124159D01*
X0140416Y0124159D01*
X0139666Y0123409D01*
X0139666Y0120406D01*
X0140416Y0119656D01*
X0141918Y0119656D01*
X0142668Y0120406D01*
X0138064Y0124159D02*
X0135062Y0124159D01*
X0136563Y0124159D02*
X0136563Y0119656D01*
X0133460Y0120406D02*
X0132710Y0119656D01*
X0131208Y0119656D01*
X0130458Y0120406D01*
X0131208Y0121907D02*
X0130458Y0122658D01*
X0130458Y0123409D01*
X0131208Y0124159D01*
X0132710Y0124159D01*
X0133460Y0123409D01*
X0132710Y0121907D02*
X0133460Y0121157D01*
X0133460Y0120406D01*
X0132710Y0121907D02*
X0131208Y0121907D01*
X0128856Y0121907D02*
X0125854Y0121907D01*
X0124253Y0119656D02*
X0121250Y0119656D01*
X0121250Y0124159D01*
X0124253Y0124159D01*
X0122751Y0121907D02*
X0121250Y0121907D01*
X0121250Y0104159D02*
X0121250Y0099656D01*
X0121250Y0139970D02*
X0121250Y0144474D01*
X0123502Y0144474D01*
X0124253Y0143724D01*
X0124253Y0142222D01*
X0123502Y0141472D01*
X0121250Y0141472D01*
X0125854Y0140721D02*
X0126605Y0139970D01*
X0128106Y0139970D01*
X0128856Y0140721D01*
X0128856Y0143724D01*
X0128106Y0144474D01*
X0126605Y0144474D01*
X0125854Y0143724D01*
X0125854Y0140721D01*
X0130458Y0144474D02*
X0133460Y0144474D01*
X0131959Y0144474D02*
X0131959Y0139970D01*
X0189630Y0161967D02*
X0189947Y0161650D01*
X0190264Y0161650D01*
X0190581Y0161967D01*
X0190581Y0163552D01*
X0190264Y0163552D02*
X0190898Y0163552D01*
X0191840Y0162918D02*
X0192474Y0163552D01*
X0192474Y0161650D01*
X0191840Y0161650D02*
X0193108Y0161650D01*
X0076300Y0216300D02*
X0046300Y0216300D01*
D16*
X0046500Y0216500D02*
X0046500Y0221104D01*
X0048035Y0219569D01*
X0049569Y0221104D01*
X0049569Y0216500D01*
X0051104Y0216500D02*
X0053406Y0216500D01*
X0054173Y0217267D01*
X0054173Y0218035D01*
X0053406Y0218802D01*
X0051104Y0218802D01*
X0053406Y0218802D02*
X0054173Y0219569D01*
X0054173Y0220337D01*
X0053406Y0221104D01*
X0051104Y0221104D01*
X0051104Y0216500D01*
X0055708Y0216500D02*
X0055708Y0221104D01*
X0058777Y0221104D01*
X0060312Y0221104D02*
X0062614Y0221104D01*
X0063381Y0220337D01*
X0063381Y0217267D01*
X0062614Y0216500D01*
X0060312Y0216500D01*
X0060312Y0221104D01*
X0057242Y0218802D02*
X0055708Y0218802D01*
X0055708Y0216500D02*
X0058777Y0216500D01*
X0199902Y0087579D02*
X0200669Y0086044D01*
X0202204Y0084509D01*
X0202204Y0086811D01*
X0202971Y0087579D01*
X0203738Y0087579D01*
X0204506Y0086811D01*
X0204506Y0085277D01*
X0203738Y0084509D01*
X0202204Y0084509D01*
X0202204Y0082975D02*
X0202971Y0082207D01*
X0202971Y0079906D01*
X0202971Y0081440D02*
X0204506Y0082975D01*
X0202204Y0082975D02*
X0200669Y0082975D01*
X0199902Y0082207D01*
X0199902Y0079906D01*
X0204506Y0079906D01*
X0199506Y0078767D02*
X0197971Y0077232D01*
X0197971Y0078000D02*
X0197971Y0075698D01*
X0199506Y0075698D02*
X0194902Y0075698D01*
X0194902Y0078000D01*
X0195669Y0078767D01*
X0197204Y0078767D01*
X0197971Y0078000D01*
X0198738Y0080302D02*
X0199506Y0081069D01*
X0199506Y0082604D01*
X0198738Y0083371D01*
X0197971Y0083371D01*
X0197204Y0082604D01*
X0197204Y0081836D01*
X0197204Y0082604D02*
X0196436Y0083371D01*
X0195669Y0083371D01*
X0194902Y0082604D01*
X0194902Y0081069D01*
X0195669Y0080302D01*
X0200906Y0069883D02*
X0200906Y0050276D01*
X0189506Y0041654D02*
X0184902Y0041654D01*
X0187204Y0039352D01*
X0187204Y0042421D01*
X0187204Y0037817D02*
X0187971Y0037050D01*
X0187971Y0034748D01*
X0189506Y0034748D02*
X0184902Y0034748D01*
X0184902Y0037050D01*
X0185669Y0037817D01*
X0187204Y0037817D01*
X0187971Y0036283D02*
X0189506Y0037817D01*
X0209902Y0038213D02*
X0209902Y0035144D01*
X0212204Y0035144D01*
X0211436Y0036679D01*
X0211436Y0037446D01*
X0212204Y0038213D01*
X0213738Y0038213D01*
X0214506Y0037446D01*
X0214506Y0035911D01*
X0213738Y0035144D01*
X0214506Y0033609D02*
X0212971Y0032075D01*
X0212971Y0032842D02*
X0212971Y0030540D01*
X0214506Y0030540D02*
X0209902Y0030540D01*
X0209902Y0032842D01*
X0210669Y0033609D01*
X0212204Y0033609D01*
X0212971Y0032842D01*
X0224902Y0032842D02*
X0224902Y0030540D01*
X0229506Y0030540D01*
X0227971Y0030540D02*
X0227971Y0032842D01*
X0227204Y0033609D01*
X0225669Y0033609D01*
X0224902Y0032842D01*
X0226436Y0035144D02*
X0224902Y0036679D01*
X0229506Y0036679D01*
X0229506Y0038213D02*
X0229506Y0035144D01*
X0229506Y0033609D02*
X0227971Y0032075D01*
X0229263Y0023381D02*
X0228496Y0022614D01*
X0228496Y0021079D01*
X0229263Y0020312D01*
X0232333Y0020312D01*
X0233100Y0021079D01*
X0233100Y0022614D01*
X0232333Y0023381D01*
X0233100Y0018777D02*
X0228496Y0018777D01*
X0230031Y0017242D01*
X0228496Y0015708D01*
X0233100Y0015708D01*
X0232333Y0014173D02*
X0231565Y0014173D01*
X0230798Y0013406D01*
X0230798Y0011871D01*
X0230031Y0011104D01*
X0229263Y0011104D01*
X0228496Y0011871D01*
X0228496Y0013406D01*
X0229263Y0014173D01*
X0232333Y0014173D02*
X0233100Y0013406D01*
X0233100Y0011871D01*
X0232333Y0011104D01*
X0232333Y0009569D02*
X0229263Y0009569D01*
X0228496Y0008802D01*
X0228496Y0007267D01*
X0229263Y0006500D01*
X0232333Y0006500D01*
X0233100Y0007267D01*
X0233100Y0008802D01*
X0232333Y0009569D01*
X0219506Y0079906D02*
X0214902Y0079906D01*
X0214902Y0082207D01*
X0215669Y0082975D01*
X0217204Y0082975D01*
X0217971Y0082207D01*
X0217971Y0079906D01*
X0217971Y0081440D02*
X0219506Y0082975D01*
X0219506Y0084509D02*
X0216436Y0087579D01*
X0215669Y0087579D01*
X0214902Y0086811D01*
X0214902Y0085277D01*
X0215669Y0084509D01*
X0219506Y0084509D02*
X0219506Y0087579D01*
X0232267Y0151500D02*
X0231500Y0152267D01*
X0231500Y0155337D01*
X0232267Y0156104D01*
X0233802Y0156104D01*
X0234569Y0155337D01*
X0236104Y0155337D02*
X0236871Y0156104D01*
X0238406Y0156104D01*
X0239173Y0155337D01*
X0239173Y0154569D01*
X0236104Y0151500D01*
X0239173Y0151500D01*
X0234569Y0152267D02*
X0233802Y0151500D01*
X0232267Y0151500D01*
D17*
X0202910Y0067670D03*
M02*
